<?xml version="1.0" encoding="utf-8"?>
<!-- Generator: Adobe Illustrator 18.1.1, SVG Export Plug-In . SVG Version: 6.00 Build 0)  -->
<svg version="1.2" baseProfile="tiny" xmlns="http://www.w3.org/2000/svg" xmlns:xlink="http://www.w3.org/1999/xlink" x="0px"
	 y="0px" width="64px" height="64px" viewBox="0 0 64 64" xml:space="preserve">

<g id="Production">
	<g>
		<path fill="#ffffff" d="M52.624,52.1953c-2.6284-3.9829-3.3232-6.0112-3.4438-7.0117c-0.2012-1.6772-0.334-3.2739-0.4624-4.8179
			c-0.3369-4.0464-0.6274-7.5405-1.9917-10.4321c-1.3855-2.9374-4.3953-5.4232-6.6885-7.0023
			c0.4448-0.5234,0.7236-1.1922,0.7236-1.9313c0-1.3807-0.9424-2.5345-2.2144-2.8824l6.1553-8.6411
			c0.7717-1.0826-0.1533-2.6126-1.5171-2.3408l-5.0483,1.0132c-0.9116,0.1831-1.8809,0.0366-2.6968-0.4067L30.061,4.8184
			c-3.6421-1.98-6.5757-0.0611-8.9946,1.1157c-1.6709,0.8139-2.2046,2.9326-1.1304,4.438l5.5171,7.7455
			c-1.272,0.3478-2.2144,1.5017-2.2144,2.8824c0,0.7391,0.2788,1.4079,0.7236,1.9313c-2.2932,1.579-5.303,4.0648-6.6885,7.0023
			c-1.3638,2.8921-1.6548,6.3862-1.9917,10.4326c-0.1284,1.5439-0.2612,3.1401-0.4624,4.8174
			c-0.1206,1.0005-0.8154,3.0288-3.4438,7.0117c-1.0327,1.5649-1.1172,3.4873-0.2261,5.1431C12.0469,59.0049,13.7109,60,15.6016,60
			h32.7969c1.8906,0,3.5552-0.9951,4.4521-2.6621C53.7417,55.6826,53.6567,53.7598,52.624,52.1953z M21.5649,9.2114
			c-0.3596-0.5032-0.1819-1.207,0.3765-1.479c2.4204-1.1778,4.4927-2.6097,7.1646-1.1572l5.3789,2.9238
			c1.2251,0.666,2.6816,0.8862,4.0459,0.6108l3.8154-0.7734L36.1748,18h-8.3496L21.5649,9.2114z M26.2388,20
			c6.4763,0,9.3386,0,10.4932,0c0.512,0,0.6907,0,0.6956,0c0.0989,0,0.2085,0,0.3337,0c0.5513,0,1,0.4487,1,1s-0.4487,1-1,1H26.2388
			c-0.5513,0-1-0.4487-1-1S25.6875,20,26.2388,20z M51.0894,56.3901C50.5469,57.3979,49.541,58,48.3984,58H15.6016
			c-1.1421,0-2.1484-0.6016-2.6909-1.6099c-0.5361-0.9966-0.4858-2.1528,0.1343-3.0933c2.2832-3.459,3.5483-6.1084,3.7603-7.875
			c0.2061-1.7134,0.3403-3.3281,0.4702-4.8896c0.3208-3.853,0.5977-7.1807,1.8071-9.7451c1.374-2.9125,4.7915-5.4429,6.9233-6.8107
			c0.3423,0.0269,11.4148,0.0453,11.9905-0.0002c2.1311,1.3658,5.5447,3.8931,6.9211,6.8109
			c1.2095,2.5645,1.4863,5.8916,1.8071,9.7446c0.1299,1.5615,0.2642,3.1768,0.4702,4.8901c0.2119,1.7666,1.4771,4.416,3.7603,7.875
			C51.5757,54.2373,51.626,55.3936,51.0894,56.3901z"/>
		<path fill="#ffffff" d="M35.5254,41.7803c-0.4404-0.333-0.9473-0.6064-1.5205-0.8203c-0.5732-0.2129-1.1592-0.4004-1.7598-0.5596
			v-4.2207c0.7197,0,1.2432,0.1807,1.5703,0.54c0.3262,0.3604,0.5029,0.8799,0.5303,1.5605h2.2793
			c0-0.6533-0.1162-1.2266-0.3496-1.7207c-0.2334-0.4932-0.5469-0.8994-0.9404-1.2197s-0.8564-0.5596-1.3896-0.7197
			s-1.0996-0.2402-1.7002-0.2402v-1.5596h-0.8594v1.5596c-0.6006,0-1.1738,0.0869-1.7207,0.2598
			c-0.5469,0.1738-1.0293,0.4238-1.4502,0.75c-0.4199,0.3271-0.7529,0.7334-1,1.2207c-0.2461,0.4863-0.3691,1.0498-0.3691,1.6895
			c0,0.7334,0.1328,1.3467,0.3994,1.8398c0.2666,0.4941,0.6172,0.9033,1.0498,1.2305c0.4336,0.3271,0.9199,0.5938,1.46,0.7998
			c0.54,0.207,1.084,0.3838,1.6309,0.5303V47.54c-0.9209-0.0264-1.5801-0.293-1.9805-0.7998s-0.5938-1.2002-0.5801-2.0801h-2.2803
			c-0.0127,0.7471,0.0967,1.4062,0.3301,1.9795c0.2334,0.5742,0.5635,1.0576,0.9902,1.4502c0.4268,0.3936,0.9404,0.6973,1.54,0.9102
			s1.2598,0.3262,1.9805,0.3398v1.5605h0.8594v-1.5605c0.667-0.0264,1.2871-0.1367,1.8604-0.3301s1.0732-0.4727,1.5-0.8398
			c0.4268-0.3662,0.7627-0.8262,1.0098-1.3799c0.2471-0.5527,0.3701-1.2031,0.3701-1.9502c0-0.7197-0.1338-1.3262-0.4004-1.8203
			C36.3184,42.5273,35.9648,42.1133,35.5254,41.7803z M31.3857,40.1797c-0.2803-0.0664-0.5576-0.1494-0.8301-0.25
			c-0.2734-0.0996-0.5137-0.2295-0.7207-0.3896c-0.2061-0.1602-0.377-0.3535-0.5098-0.5801c-0.1338-0.2266-0.2002-0.5-0.2002-0.8203
			c0-0.7061,0.1973-1.21,0.5898-1.5098c0.3936-0.2998,0.9502-0.4502,1.6709-0.4502V40.1797z M34.0156,46.9102
			c-0.46,0.3672-1.0508,0.5771-1.7705,0.6299v-4.6602c0.3066,0.0801,0.6064,0.1738,0.9004,0.2803
			c0.293,0.1064,0.5566,0.2471,0.79,0.4199c0.2324,0.1738,0.4199,0.3867,0.5596,0.6396c0.1406,0.2539,0.21,0.5674,0.21,0.9404
			C34.7051,45.96,34.4756,46.543,34.0156,46.9102z"/>
	</g>
</g>
</svg>
