<?xml version="1.0" encoding="utf-8"?>
<!-- Generator: Adobe Illustrator 18.1.1, SVG Export Plug-In . SVG Version: 6.00 Build 0)  -->
<svg version="1.2" baseProfile="tiny" xmlns="http://www.w3.org/2000/svg" xmlns:xlink="http://www.w3.org/1999/xlink" x="0px"
	 y="0px" width="128px" height="128px" viewBox="0 0 128 128" xml:space="preserve">
<g id="box">
	<rect fill="none" width="128" height="128"/>
</g>
<g id="Production">
	<path fill="#ffffff" d="M122.5101,98.416L80.3314,25.3601c-1.5583-2.6998-5.4614-2.6952-7.0181,0L57.9632,51.948
		c2.2481,3.8939,2.4327,4.2136,4.6788,8.104l14.1806-24.5621l18.4229,31.9097L80.7064,58.645l-4.0806,21.5674l-6.0229-14.1839
		c-4.0244,2.5608-2.1077,1.341-8.2539,5.2527c-4.7674-8.2572-2.7918-4.8353-17.0894-29.5998c-1.5581-2.6993-5.4616-2.6958-7.018,0
		L5.388,98.5852c-1.5585,2.6981,0.3956,6.0778,3.5088,6.0778c10.0767,0,110.2066,0,110.2066,0
		C122.3192,104.663,124.2381,101.0938,122.5101,98.416z M46.1205,72.0578c-0.6424,1.7569-5.1973,14.2066-5.8286,15.9326
		c-1.512-4.1749-0.5303-1.464-4.0806-11.2695c-4.772,2.4194-7.6834,3.8958-12.5029,6.3396l18.042-31.2493
		c17.4409,30.2084,7.426,12.8619,13.8872,24.0533C55.6146,75.8553,46.1205,72.0578,46.1205,72.0578z"/>
</g>
</svg>
