<?xml version="1.0" encoding="utf-8"?>
<!-- Generator: Adobe Illustrator 18.1.1, SVG Export Plug-In . SVG Version: 6.00 Build 0)  -->
<svg version="1.2" baseProfile="tiny" xmlns="http://www.w3.org/2000/svg" xmlns:xlink="http://www.w3.org/1999/xlink" x="0px"
	 y="0px" width="128px" height="128px" viewBox="0 0 128 128" xml:space="preserve">
<g id="_x31_28px_boxes">
	<rect fill="none" width="128" height="128"/>
</g>
<g id="Production">
	<g>
		<path fill="#ffffff" d="M114.0833,11.0934c-0.3035-0.5574-0.9419-0.8435-1.5605-0.6951
			c-19.6468,4.6744-45.5695,22.9361-29.3443,41.604c9.0698-16.7122,24.3802-25.9038,21.5056-22.4895
			c-8.2507,9.8205-17.417,24.0539-20.8718,37.3618c-5.5383,0.9248-13.0543,3.3291-14.825,3.9363
			c-1.8443-16.8616-0.4046-25.6839,3.7278-37.5962l0.0025-0.0054c1.6914-4.863-5.1962-8.2322-7.8429-3.5322
			c-2.1758,3.864-5.2034,9.9453-6.8764,14.7432c0,0-4.7974-8.5584-8.0745-13.2691c-2.6296-4.5263-9.9026-0.437-7.3518,4.4353
			c4.5976,9.4004,7.2226,16.8379,5.3362,36.251c-12.176-6.1631-21.447-17.7922-24.0352-21.1162
			c-2.8586-3.898-9.0754-0.4924-6.8618,4.1196c1.0962,2.5628,4.8201,8.4822,5.8652,10.0039l-12.0017,3.7029
			c-4.3768,1.3467-2.9245,7.9031,1.5952,7.3123l17.2596-2.2554c2.3987,2.8618,9.5447,10.1118,16.2114,14.5112
			c-1.2317,7.6509-2.9329,15.7549-5.0935,24.064c-0.7237,2.7837,1.3874,5.4607,4.2224,5.4607h25.7424c0.0012,0,0.0027,0,0.0051,0
			c2.4096,0,4.3627-1.9534,4.3627-4.3628c0-0.3909-3.2603-13.2283-4.7333-26.2612c14.348-9.5921,27.7648-12.6338,35.2665-14.0672
			c4.53-0.7915,4.356-7.8901-0.6052-8.0049c-2.1675-0.166-8.5843,0.1675-12.771,0.627c0.7658-2.3394,1.6823-4.6345,2.7224-6.9094
			C117.9753,61.79,126.4354,33.7826,114.0833,11.0934z"/>
	</g>
</g>
</svg>
