<?xml version="1.0" encoding="utf-8"?>
<!-- Generator: Adobe Illustrator 18.1.1, SVG Export Plug-In . SVG Version: 6.00 Build 0)  -->
<svg version="1.2" baseProfile="tiny" xmlns="http://www.w3.org/2000/svg" xmlns:xlink="http://www.w3.org/1999/xlink" x="0px"
	 y="0px" width="128px" height="128px" viewBox="0 0 128 128" xml:space="preserve">
<g id="_x31_28px_boxes">
	<rect fill="none" width="128" height="128"/>
</g>
<g id="Production">
	<g>
		<path fill="#ffffff" d="M102.0041,60.2319c-0.7515-0.8774-1.845-1.8423-3.3696-2.5605c-0.2283-1.0338-0.6026-2.0655-1.1204-3.0787
			c2.8999-16.2954-0.5325-28.6267-8.9927-32.22c-4.1391-1.7577-12.9477-5.3244-19.6206-6.831
			c-0.072-2.1328-2.2358-3.845-4.9011-3.845c-2.6438,0-4.7934,1.6858-4.8974,3.7949c-5.6976,1.2522-13.3843,4.0701-17.9229,6.178
			c-4.0405,1.8768-7.5574,6.439-9.6487,12.5171c-3.0078,8.741-2.0086,17.2937-1.2925,20.9167
			c-0.3908,0.8477-0.6814,1.7061-0.8713,2.5655c-1.5259,0.7182-2.6187,1.6845-3.3704,2.5625
			c-2.6755,3.1255-3.5876,7.9946-2.6379,14.0816c1.0186,6.5268,4.4575,9.9887,7.3174,11.5083
			c4.6603,16.2381,19.7198,30.482,33.3457,30.482c13.3232,0,28.6208-13.2107,33.3318-30.4982
			c2.8537-1.5272,6.2729-4.9883,7.2876-11.4917C105.5913,68.2265,104.6794,63.3575,102.0041,60.2319z M44.7497,40.4607
			c0,0,5.9509,1.6784,6.1179,1.6781c1.9546-0.1704,3.3376-4.8452,1.5312-5.9544c-0.0896-0.0453-5.977-1.6958-5.977-1.6958
			c-0.4303-0.1181-0.606-0.7013-0.2122-1.0274c2.8439-2.3183,7.6354-3.0478,10.8082-0.1307
			c0.3315,0.3091,1.9933,2.2898,3.7051,2.3103h6.4995c1.3593,0.0132,2.5764-0.9603,3.7798-2.1865
			c0.5019-0.3169,2.1828-2.0464,5.1362-2.0132c3.0124,0.0508,6.3872,2.2342,7.6892,5.8911c0.1785,0.5043-0.312,0.8809-0.7175,0.7666
			c0,0-5.95-1.6802-6.1192-1.6771c-2.0888,0.1654-3.2179,4.9145-1.5288,5.9516c0.0864,0.0473,5.9761,1.6947,5.9761,1.6947
			c0.6938,0.1988,0.3553,0.9139,0.2153,1.0301c-2.5625,2.0827-5.5055,2.3652-7.9297,1.7612
			c-2.6799-0.5835-4.5133-3.9169-6.5847-3.9372h-6.4997c-1.7571-0.0213-3.4024,1.8063-3.7787,2.1423
			c-2.3483,2.1765-5.0905,2.3223-6.9694,1.7876c-2.6355-0.7466-4.9126-2.971-5.8583-5.6275
			C43.925,40.9319,44.1501,40.2958,44.7497,40.4607z M97.538,73.2046c-0.8032,5.1464-3.5107,6.2797-4.0376,6.4535l-2.1406,0.3214
			c-1.4201,11.6923-11.9201,27.4423-27.3381,29.1347c-3.1701,0.3479-21.832-4.6089-27.1968-29.0991l-2.3247-0.357
			c-0.5242-0.1723-3.2349-1.3036-4.0386-6.4535c-0.5041-3.2304-0.3232-5.8819,0.4817-7.4986
			c0.835,1.0948,3.5191,2.6601,3.5327,2.6656v2.6112c0,3.9411,5.9253,3.9411,5.9253,0v-2.3974
			c2.4756-0.5967,5.0447-1.8716,7.8955-3.2904c4.6277-2.3034,9.8738-4.9137,15.7034-4.9137c5.8298,0,11.0757,2.6103,15.7036,4.9137
			c2.8511,1.4183,5.4197,2.6933,7.8948,3.2904v2.3974c0,3.8516,5.9255,3.8516,5.9255,0v-2.6112
			c0.636-0.2472,3.0559-2.0398,3.5327-2.6651C97.8615,67.3227,98.0424,69.9742,97.538,73.2046z"/>
		<path fill="#ffffff" d="M51.8923,72.1075c-2.9922,0-5.4158,2.4242-5.4158,5.4173c0,2.9888,2.4236,5.4132,5.4158,5.4132
			c2.9863,0,5.4143-2.4244,5.4143-5.4132C57.3066,74.5317,54.8786,72.1075,51.8923,72.1075z"/>
		<path fill="#ffffff" d="M76.1833,72.1075c-2.9917,0-5.417,2.4242-5.417,5.4173c0,2.9888,2.4253,5.4132,5.417,5.4132
			c2.9868,0,5.4109-2.4244,5.4109-5.4132C81.5942,74.5317,79.1701,72.1075,76.1833,72.1075z"/>
	</g>
</g>
</svg>
