<?xml version="1.0" encoding="utf-8"?>
<!-- Generator: Adobe Illustrator 19.1.0, SVG Export Plug-In . SVG Version: 6.00 Build 0)  -->
<svg version="1.2" baseProfile="tiny" xmlns="http://www.w3.org/2000/svg" xmlns:xlink="http://www.w3.org/1999/xlink" x="0px"
	 y="0px" width="64px" height="64px" viewBox="0 0 64 64" xml:space="preserve">
<g id="box">
	<rect fill="none" width="64" height="64"/>
</g>
<g id="Production">
	<path fill="#ffffff" d="M63.3968,50.8301c-3.7256-5.6606-8.646-10.5356-14.625-14.4893
		c-5.5051-3.6402-9.6504-9.6841-11.1865-13.9653l-3.7515-3.7512l2.0525-2.0525L25.2798,5.9653L0,31.2451
		c4.9494,6.7354,12.1813,11.0474,19.9009,13.0757L23.437,29.021l1.3173-1.3173c2.8217,3.106,12.8243,13.8942,20.6302,19.5317
		c4.7563,3.4355,6.5566,7.0996,7.2295,9.5684c0.2422,0.8887,0.8716,1.603,1.728,1.9604c0.8456,0.3532,1.814,0.3185,2.6528-0.1489
		l5.1675-2.7324c0.8599-0.4849,1.4858-1.3125,1.7178-2.27C64.1107,52.6611,63.9344,51.647,63.3968,50.8301z M21.6177,28.0122
		l-3.1973,13.833C9.8735,39.2759,4.3345,33.397,2.6572,31.4165l22.6226-22.623l7.7783,7.7783L21.6177,28.0122z M61.2039,54.1274
		l-5.1548,2.7251l-0.0239,0.0132c-0.5727,0.321-1.31,0.0408-1.4814-0.5874c-0.7573-2.7798-2.7583-6.8867-7.9883-10.6641
		c-7.6113-5.4974-17.7038-16.3831-20.3841-19.3276l6.2482-6.2482l3.4406,3.441c0.5581,1.4355,3.8892,9.293,11.8081,14.5293
		c5.7524,3.8037,10.4819,8.4873,14.0576,13.9209C62.2374,52.7059,61.937,53.7132,61.2039,54.1274z"/>
</g>
</svg>

