<?xml version="1.0" encoding="utf-8"?>
<!-- Generator: Adobe Illustrator 18.1.1, SVG Export Plug-In . SVG Version: 6.00 Build 0)  -->
<svg version="1.2" baseProfile="tiny" xmlns="http://www.w3.org/2000/svg" xmlns:xlink="http://www.w3.org/1999/xlink" x="0px"
	 y="0px" width="128px" height="128px" viewBox="0 0 128 128" xml:space="preserve">
<g id="box">
	<rect fill="none" width="128" height="128"/>
</g>
<g id="Production">
	<g>
		<path fill="#ffffff" d="M65.4387,31.2659l-9.8991,3.5677c-0.6088,0.2197-0.633,1.0503-0.0584,1.3232l2.5149,1.1628l-7.7786,9.1966
			l-4.3747-6.6563L34.4863,53.2671l3.4644,2.9361l7.4306-8.7744l4.3755,6.666l11.7369-13.8767l1.7402,2.49
			c0.3646,0.529,1.1762,0.3359,1.2871-0.2832l1.8613-10.3599C66.4855,31.5378,65.9655,31.0879,65.4387,31.2659z"/>
		<path fill="#ffffff" d="M110.04,36.7002L88.4543,14.5931c-1.4367-1.4715-3.7934-1.4988-5.2658-0.0628
			c-1.4705,1.4368-1.499,3.7935-0.0625,5.2649l12.3291,12.6267c-0.1038,0.6278-0.0635,0.1031-0.0635,13.2254
			c0,1.2785,0.53,2.5061,1.4595,3.384l6.0261,5.689v31.5866c0,3.3598-1.878,5.5557-4.6687,5.5557
			c-3.9697-0.0085-5.5835-2.8452-5.5569-5.4084V66.0079c0.0093-3.5784-1.0176-6.743-2.5215-9.2495
			c-2.4995-4.1667-6.5414-7.2424-10.9104-9.1429v-18.28c-0.0022-6.1504-4.9834-11.1301-11.1335-11.1328H34.5391
			c-6.1502,0.0027-11.1314,4.9824-11.1336,11.1328v75.3784H16.125v9.815h70.3755v-9.815h-7.2808v-46.772
			c2.7402,2.0647,4.4191,4.6347,4.4353,8.066v20.4463c0.0051,7.8843,5.8978,14.4774,14.5535,14.4065
			c8.1783,0.0091,13.6665-5.5274,13.6665-15.6107V40.4437C111.875,38.804,111.1187,37.803,110.04,36.7002z M70.9983,58.6851
			c0,1.6057-1.3069,2.9121-2.9121,2.9121H34.5396c-1.6065,0-2.9131-1.3064-2.9131-2.9121V29.3365
			c0-1.606,1.3066-2.9124,2.9131-2.9124h33.5466c1.6052,0,2.9121,1.3064,2.9121,2.9124V58.6851z"/>
	</g>
</g>
</svg>
