<?xml version="1.0" encoding="utf-8"?>
<!-- Generator: Adobe Illustrator 18.1.1, SVG Export Plug-In . SVG Version: 6.00 Build 0)  -->
<svg version="1.2" baseProfile="tiny" xmlns="http://www.w3.org/2000/svg" xmlns:xlink="http://www.w3.org/1999/xlink" x="0px"
	 y="0px" width="128px" height="128px" viewBox="0 0 128 128" xml:space="preserve">
<g id="_x31_28px_boxes">
	<rect fill="none" width="128" height="128"/>
</g>
<g id="Production">
	<g>
		<path fill="#ffffff" d="M102.6031,33.3677h-7.8865c-16.5308-19.513-44.9217-19.4905-61.4332,0h-7.8865
			c-3.3088,0-5.9912,2.6824-5.9912,5.9913v60.5842h49.0436c0-3.8931,0-7.0955,0-7.0955c-1.8533,0.9722-5.242-0.713-3.5405-3.9509
			c0.7126-1.3559,2.0747-2.0266,2.5124-7.419c0.215-2.6472,1.3236-4.0739,4.2561-4.5239c3.1056-0.4761,6.0645-0.8725,9.6731-1.1794
			c3.3199-0.2825,3.9894,1.0178,3.9894,3.4465c0,0.0012,0,21.8999,0,30.0376h10.4236v-9.3154h12.8309V39.359
			C108.5943,36.0501,105.912,33.3677,102.6031,33.3677z M79.0246,71.4368c3.1828-4.5838,0.723-9.5987-3.3768-13.2873
			c-0.2028-0.1823-0.5228-0.13-0.6589,0.105c-2.5067,4.3398-3.3945,9.7482,0.9041,13.3232
			c0.0421,0.0354,0.0849,0.0713,0.1259,0.1045c-5.8802-0.2329-10.6602-4.6107-10.6602-10.0588
			c0-11.4937,10.2143-19.3829,12.3284-19.0467c1.8246,0.2906-1.6993,5.9065,3.5425,9.9112
			c3.2106,2.4533,6.4601,5.0898,6.4601,9.1355C87.6897,66.4985,83.8806,70.4365,79.0246,71.4368z"/>
	</g>
</g>
</svg>
