<?xml version="1.0" encoding="utf-8"?>
<!-- Generator: Adobe Illustrator 18.1.1, SVG Export Plug-In . SVG Version: 6.00 Build 0)  -->
<svg version="1.2" baseProfile="tiny" xmlns="http://www.w3.org/2000/svg" xmlns:xlink="http://www.w3.org/1999/xlink" x="0px"
	 y="0px" width="64px" height="64px" viewBox="0 0 64 64" xml:space="preserve">

<g id="Production">
	<path fill="#ffffff" d="M55,18v-2h-7V9h-2v7h-8V9h-2v7h-8V9h-2v7h-8V9h-2v7H9v2h7v8H9v2h7v8H9v2h7v8H9v2h7v7h2v-7h8v7h2v-7h8v7h2
		v-7h8v7h2v-7h7v-2h-7v-8h7v-2h-7v-8h7v-2h-7v-8H55z M36,18v8h-8v-8H36z M36,28v8h-8v-8H36z M18,18h8v8h-8V18z M18,28h8v8h-8V28z
		 M18,46v-8h8v8H18z M28,46v-8h8v8H28z M46,46h-8v-8h8V46z M46,36h-8v-8h8V36z M46,26h-8v-8h8V26z"/>
</g>
</svg>
