<?xml version="1.0" encoding="utf-8"?>
<!-- Generator: Adobe Illustrator 18.1.1, SVG Export Plug-In . SVG Version: 6.00 Build 0)  -->
<svg version="1.2" baseProfile="tiny" xmlns="http://www.w3.org/2000/svg" xmlns:xlink="http://www.w3.org/1999/xlink" x="0px"
	 y="0px" width="128px" height="128px" viewBox="0 0 128 128" xml:space="preserve">
<g id="_x31_28px_boxes">
	<rect fill="none" width="128" height="128"/>
</g>
<g id="Production">
	<g>
		<path fill="#ffffff" d="M42.2224,48.1291c2.8573,0,5.0163,2.0275,7.1172,3.7536c2.0984-1.724,4.2589-3.7536,7.1172-3.7536
			c2.8541,0,5.0114,2.0225,7.1173,3.7536c2.1026-1.7284,4.2617-3.7536,7.1177-3.7536c2.8567,0,5.0156,2.0274,7.1168,3.7536
			c2.0985-1.7241,4.2589-3.7536,7.1173-3.7536c2.7588,0,4.8658,1.889,6.9088,3.5815c5.6032-13.3439,15.4684-34.8682,6.3311-38.7054
			C89.0666,9.1837,80.563,31.538,75.9426,42.5411C74.5974,40.9439,73,39.6158,71,38.687V19.6198
			c0-0.7523-0.5237-1.4508-1.2024-1.8237c-0.099-0.0541-2.4901-1.3195-5.3931-1.3195c-2.8999,0-5.2239,1.2654-5.322,1.3191
			C58.4018,18.1685,58,18.867,58,19.6198V38.687c-2,1.1403-4.5082,2.8819-5.9504,4.9861
			c-2.1721-8.4934-4.4303-16.5726-5.1878-17.0501c-1.625-1.0248-15.2564,0.0345-15.0196,2.1428
			c0.0904,0.8033,0.8431,2.5528,2.0047,4.8489c-3.9359,0.8969-8.0011,2.3287-7.7046,3.4807
			c0.454,1.7643,4.9186,7.7986,9.8312,14.0676C37.8281,49.6247,39.7672,48.1291,42.2224,48.1291z"/>
		<path fill="#ffffff" d="M99.3871,52.407c-1.0651-0.0327-2.5374,1.1158-3.9979,2.333c-1.1894,0.9911-2.5829,2.1145-3.301,2.1145
			c-0.7174,0-2.0879-1.123-3.2767-2.114c-1.4404-1.2004-2.8123-2.3342-3.8742-2.3342c-1.0619,0-2.4283,1.1338-3.8686,2.3342
			c-1.1891,0.9909-2.5398,2.114-3.2573,2.114s-2.0667-1.1231-3.2557-2.114c-1.4405-1.2004-2.8018-2.3342-3.8632-2.3342
			c-1.0622,0-2.4233,1.1339-3.8641,2.3345c-1.1889,0.9907-2.5367,2.1137-3.2542,2.1137c-0.7173,0-2.0652-1.123-3.254-2.1137
			c-1.4407-1.2006-2.8014-2.3345-3.8633-2.3345c-1.0619,0-2.4225,1.1338-3.8629,2.3342c-1.189,0.9909-2.5369,2.114-3.2544,2.114
			s-2.0653-1.1231-3.2544-2.114c-1.4404-1.2004-2.801-2.3342-3.8628-2.3342c-1.0618,0-2.4224,1.1338-3.8629,2.3342
			c-1.1889,0.9909-2.5366,2.114-3.2544,2.114c-0.7174,0-2.0651-1.123-3.254-2.1137c-1.4168-1.1807-2.5206-2.2969-3.567-2.3335
			C28.1243,52.4017,28,52.5495,28,52.7095V100c0,8.2843,6.7157,15,15,15h42c8.25,0,15-6.75,15-15V53.0395
			C100,52.7011,99.7253,52.4174,99.3871,52.407z M50.3136,78.2176c-1.649-0.9528-1.1316-0.6539-2.3392-1.3511
			c-0.9257-0.5345-0.9261-1.8706,0-2.4043c1.3668-0.7888,8.7081-4.781,9.4826-5.2274C58.4068,68.6862,60,69.4222,60,70.4373v10.4541
			c0,1.0505-1.6081,1.7414-2.5391,1.2017l-2.3293-1.2193c-0.6771,2.6194-0.3433,5.4994,1.3074,7.8533l-4.5536,2.6086
			C49.273,87.359,48.7594,82.4674,50.3136,78.2176z M67,97.8162v2.7908c0,0.9293-1.4949,1.7741-2.4816,1.2019
			c-0.9887-0.5702-8.3593-4.7499-9.1856-5.2266c-0.9349-0.5418-0.9747-1.8795-0.0615-2.4048l9.2674-5.2275
			C65.5381,88.3727,67,89.1754,67,90.1521v2.3799c2-0.4131,2.9633-1.3015,4.1928-2.5281c0.7562-0.758,1.2206-1.6374,1.6883-2.6079
			l4.7487,2.5891C75.5112,94.1057,72,97.0982,67,97.8162z M77.755,85.5022l-9.0531-5.227c-0.925-0.5329-0.9249-1.8711,0-2.4043
			l2.2144-1.2791c-0.0176-0.0173-0.0332-0.0359-0.0508-0.0534c-2.0088-2.0033-4.758-3.0063-7.5962-2.7476l-0.0108-5.202
			c4.771-0.2829,9.2778,1.7367,12.2481,5.3539l2.2484-1.2984c0.9624-0.5577,2.0983,0.2017,2.0983,1.2017l0.0156,9.894
			C79.8689,85.5615,78.7116,86.0545,77.755,85.5022z"/>
	</g>
</g>
</svg>
