<?xml version="1.0" encoding="utf-8"?>
<!-- Generator: Adobe Illustrator 17.1.0, SVG Export Plug-In . SVG Version: 6.00 Build 0)  -->
<!DOCTYPE svg [
	<!ENTITY ns_flows "http://ns.adobe.com/Flows/1.0/">
	<!ENTITY ns_extend "http://ns.adobe.com/Extensibility/1.0/">
	<!ENTITY ns_ai "http://ns.adobe.com/AdobeIllustrator/10.0/">
	<!ENTITY ns_graphs "http://ns.adobe.com/Graphs/1.0/">
]>
<svg version="1.2" baseProfile="tiny" xmlns:x="&ns_extend;" xmlns:i="&ns_ai;" xmlns:graph="&ns_graphs;"
	 xmlns="http://www.w3.org/2000/svg" xmlns:xlink="http://www.w3.org/1999/xlink" xmlns:a="http://ns.adobe.com/AdobeSVGViewerExtensions/3.0/"
	 x="0px" y="0px" width="128px" height="128px" viewBox="0 0 128 128" xml:space="preserve">
<g id="_x31_28px_boxes">
	<rect fill="none" width="128" height="128"/>
</g>
<g id="Production">
	<g>
		<path fill="#ffffff" d="M107.8686,80.2205c-5.6467,0-10.2236,4.5774-10.2236,10.2237c0,5.6464,4.5769,10.2238,10.2236,10.2238
			c5.6465,0,10.2237-4.5774,10.2237-10.2238C118.0923,84.7979,113.5151,80.2205,107.8686,80.2205z M107.8686,94.6541
			c-2.3252,0-4.2099-1.885-4.2099-4.2099c0-2.325,1.8847-4.2098,4.2099-4.2098c2.3247,0,4.2095,1.8848,4.2095,4.2098
			C112.0781,92.7691,110.1933,94.6541,107.8686,94.6541z"/>
		<path fill="#ffffff" d="M38.7104,80.2205c-5.6465,0-10.2236,4.5774-10.2236,10.2237c0,5.6464,4.5771,10.2238,10.2236,10.2238
			s10.2237-4.5774,10.2237-10.2238C48.9341,84.7979,44.3569,80.2205,38.7104,80.2205z M38.7104,94.6541
			c-2.3247,0-4.2097-1.885-4.2097-4.2099c0-2.325,1.885-4.2098,4.2097-4.2098c2.3252,0,4.21,1.8848,4.21,4.2098
			C42.9204,92.7691,41.0356,94.6541,38.7104,94.6541z"/>
		<path fill="#ffffff" d="M126.0752,69.9208c-1.7793-1.9642-4.283-3.6434-5.8914-4.7034
			c-0.2561-3.3804-1.1169-7.5083-2.9568-11.3274c-2.1225-4.5279-6.4511-9.2437-13.0293-9.2437c0,0-10.3266,0-10.8327,0
			c-1.3816,0-2.5496,0.8407-2.5496,2.3139v29.3297c0,2.9095-4.4033,2.9125-4.4033,0V34.2981c0-1.3014-1.0203-2.6175-2.7505-2.6175
			H70.8093l0.0803-0.4075c0.3521-1.7897-0.813-3.526-2.6025-3.8783c-1.7402-0.343-3.4258,0.751-3.8418,2.4567L56.707,69.0817
			c-0.5713,2.8949-4.8828,1.9975-4.3203-0.8521l7.2095-36.549H46.4587l0.0803-0.4075c0.3526-1.7897-0.8127-3.526-2.6023-3.8783
			c-1.7385-0.342-3.424,0.7504-3.8415,2.4548l-9.8091,49.7293c2.3018-1.8073,5.2378-2.8855,8.3872-2.8855h0.0059h0.0061
			c7.1692,0,13.4324,5.6789,13.6116,13.5085l41.9128-0.0227c0.54-8.6056,7.0874-13.4858,13.6377-13.4858h0.0061h0.0059
			c6.4335,0,13.0058,4.6993,13.6389,13.4712l2.6616-0.0014c2.0683,0,3.8401-1.6692,3.8401-3.8531V74.3999
			C128,72.107,126.894,70.927,126.0752,69.9208z M98.8884,66.1741V52.4746h5.3093c2.6299,0,4.4068,1.5869,6.0955,4.8576
			c1.3647,2.7415,2.0495,6.3957,2.1985,8.8419H98.8884z"/>
		<path fill="#ffffff" d="M31.0847,32.1116c-0.4978,0.355-12.2725,8.7629-19.2698,14.5163
			c-8.229,6.7657-12.2988,16.2568-11.769,27.4472c0.3933,8.3141,3.1728,14.6388,3.2907,14.9022
			c0.375,0.8366,1.2061,1.4158,2.1228,1.4158h10.5894l9.0088-7.0623L34.75,34.1942C34.9077,32.204,32.6787,30.9737,31.0847,32.1116z
			"/>
	</g>
</g>
</svg>
