<?xml version="1.0" encoding="utf-8"?>
<!-- Generator: Adobe Illustrator 18.1.1, SVG Export Plug-In . SVG Version: 6.00 Build 0)  -->
<svg version="1.2" baseProfile="tiny" xmlns="http://www.w3.org/2000/svg" xmlns:xlink="http://www.w3.org/1999/xlink" x="0px"
	 y="0px" width="128px" height="128px" viewBox="0 0 128 128" xml:space="preserve">
<g id="_x31_28px_boxes">
	<rect fill="none" width="128" height="128"/>
</g>
<g id="Production">
	<g>
		<path fill="#ffffff" d="M102.1068,29.1441c2.8953,0.0105,5.3596,0.5345,7.2661,1.51c3.9492-3.472,5.0751-8.6844,2.4908-11.2684
			c-2.5789-2.5788-7.7871-1.4677-11.2701,2.4925C101.7072,24.0604,102.0976,26.7051,102.1068,29.1441z"/>
		<path fill="#ffffff" d="M87.1134,29.9187c2.2707,2.7002,2.8723,7.0292,2.5425,11.4217c2.7498-0.2059,8.3804-0.2725,11.6946,2.7895
			c0.0017-0.0006,0.0034-0.0012,0.0034-0.0012c6.4507-2.1185,9.7808-6.0393,8.0386-8.6923
			c-1.8291-2.7849-7.6739-2.8414-11.4104-2.1695c0.9441-5.2436,0.0551-9.9495-2.169-11.4103
			C93.1264,20.0917,89.2059,23.5261,87.1134,29.9187z"/>
		<path fill="#ffffff" d="M85.1778,45.8235c1.5413-6.6465,0.8851-12.6301-1.8554-14.2872
			c-3.0754-1.859-7.5884,2.5216-10.1421,10.0022c-1.2918,3.7859-0.9234,7.8426-6.0085,13.3413
			c2.4389,2.0045,10.0405,7.2961,10.5078,7.6227c4.7733-3.7286,8.2813-3.4862,11.7834-4.6816
			c7.4805-2.5535,11.8611-7.0665,10.002-10.1419C97.808,44.9385,91.8244,44.2823,85.1778,45.8235z"/>
		<path fill="#ffffff" d="M61.1096,83.572c-0.9925-1.4028-7.7773-11.6143-11.3917-15.3193
			c-7.9744,5.656-17.4658,12.8804-28.4487,24.3626c-0.3794,0.3965-0.5661,0.9397-0.5105,1.4858
			c0.659,6.4737,9.9366,15.51,16.1417,16.1416c0.546,0.0557,1.0891-0.1309,1.4858-0.5105
			C48.7897,99.7811,55.6964,91.0555,61.1096,83.572z"/>
		<path fill="#ffffff" d="M27.4064,21.6304c-3.4812-3.9584-8.6901-5.073-11.2703-2.4927
			c-2.5838,2.5841-1.4584,7.7968,2.4905,11.2682c1.9067-0.9758,4.3713-1.4998,7.2666-1.5101
			C25.9025,26.4505,26.2952,23.8081,27.4064,21.6304z"/>
		<path fill="#ffffff" d="M26.6734,43.8889c2.934-2.4712,7.5818-2.8362,11.4226-2.5485c-0.3413-4.5437,0.3149-9.0188,2.7833-11.6938
			c-1.7239-5.2484-5.5554-10.0969-8.6922-8.0379c-2.2241,1.4603-3.113,6.1661-2.1695,11.4103
			c-3.849-0.6933-9.6117-0.5692-11.4103,2.1692C16.4945,38.4058,21.7054,42.3488,26.6734,43.8889z"/>
		<path fill="#ffffff" d="M61.9486,76.9285c6.1335,8.7978,13.7668,19.7471,27.417,32.8037
			c0.3967,0.3794,0.9397,0.5662,1.4858,0.5105c7.6055-0.7741,15.627-11.0842,16.1419-16.1416
			c0.0554-0.5461-0.1311-1.0893-0.5107-1.4858C93.4259,78.9651,82.4767,71.3317,73.6788,65.1982
			C53.7612,51.312,57.161,49.1251,54.5714,41.5385c-2.5536-7.4806-7.0665-11.8612-10.142-10.0022
			c-2.7404,1.6571-3.3967,7.6407-1.8554,14.2872c-6.6465-1.5412-12.6302-0.885-14.2872,1.8555
			c-1.8591,3.0754,2.5216,7.5884,10.0021,10.1419C45.8501,60.4017,48.0501,56.9926,61.9486,76.9285z"/>
	</g>
</g>
</svg>

