<?xml version="1.0" encoding="utf-8"?>
<!-- Generator: Adobe Illustrator 18.1.1, SVG Export Plug-In . SVG Version: 6.00 Build 0)  -->
<svg version="1.2" baseProfile="tiny" xmlns="http://www.w3.org/2000/svg" xmlns:xlink="http://www.w3.org/1999/xlink" x="0px"
	 y="0px" width="128px" height="128px" viewBox="0 0 128 128" xml:space="preserve">
<g id="_x31_28px_boxes">
	<rect fill="none" width="128" height="128"/>
</g>
<g id="Production">
	<g>
		<circle fill="#ffffff" cx="63.6113" cy="34.1412" r="16.4822"/>
		<path fill="#ffffff" d="M119.3821,75.2618c-0.0139-1.8483-2.8805-3.2346-4.274-1.2975l-4.4443,6.1755
			c-23.8616-31.9896-69.4629-31.9905-93.3287-0.0021l-4.443-6.1734c-1.2675-1.761-4.0597-0.8722-4.0762,1.2975l-0.198,26.372
			c-0.0115,1.5398,1.4984,2.6391,2.9605,2.1516l24.9653-8.3082c2.0515-0.6828,2.0459-3.6014-0.0117-4.2734l-7.6699-2.5058
			c4.8691-6.4987,11.0854-11.4755,18.0603-14.5678v36.2108h33.3779V73.7981c7.2859,3.0593,13.791,8.1548,18.8391,14.8996
			l-7.6712,2.5061c-2.0551,0.6713-2.0652,3.5899-0.0116,4.2734l24.965,8.3082c1.4607,0.4873,2.9717-0.611,2.9605-2.1516V75.2618z"/>
	</g>
</g>
</svg>
