<?xml version="1.0" encoding="utf-8"?>
<!-- Generator: Adobe Illustrator 18.1.1, SVG Export Plug-In . SVG Version: 6.00 Build 0)  -->
<svg version="1.2" baseProfile="tiny" xmlns="http://www.w3.org/2000/svg" xmlns:xlink="http://www.w3.org/1999/xlink" x="0px"
	 y="0px" width="128px" height="128px" viewBox="0 0 128 128" xml:space="preserve">
<g id="_x31_28px_boxes">
	<rect fill="none" width="128" height="128"/>
</g>
<g id="Production">
	<g>
		<path fill="#ffffff" d="M51.4667,112.8919c-4.2734-5.0221-6.5014-10.5777-7.5439-10.4561
			c-1.042,0.1215-2.792,4.3715-7.5571,10.454c-5.0441,7.4487,0.3693,14.6973,7.5542,14.6973h0.0034
			C52.3833,127.5871,56.1599,118.4076,51.4667,112.8919z"/>
		<path fill="#ffffff" d="M47.4936,41.6283h11.4673v-6H47.4936V25.2339h11.4673v-6H47.4936v-7.3268
			c0-3.0294,2.4648-5.4942,5.4941-5.4942h25.9224c3.0298,0,5.4946,2.4648,5.4946,5.4942v39.171h6v-39.171
			c0-6.3378-5.1562-11.4942-11.4946-11.4942H52.9877c-6.3378,0-11.4941,5.1564-11.4941,11.4942v39.171h6V41.6283z"/>
		<path fill="#ffffff" d="M41.2944,55.585c-1.6568,0-3,1.3431-3,3v15.5891c0,1.6567,1.3432,3,3,3h17.2964
			c-0.1797,3.6093-1.7139,4.359-2.5616,4.7729c-4.8852,2.3842-12.3383,5.8826-12.4121,5.9172
			c-1.561,0.732-1.1435,1.9781-0.9013,2.4942l4.6333,9.873c0.6953,1.4814,2.2627,1.0098,2.4995,0.8982l0.0801-0.0376
			c1.8427-0.8665,8.1928-3.858,12.5283-5.9736c4.8218-2.3533,10.5459-7.3739,10.7954-17.9443H90.604c1.6567,0,3-1.3433,3-3V58.585
			c0-1.6569-1.3433-3-3-3H41.2944z"/>
	</g>
</g>
</svg>
