<?xml version="1.0" encoding="utf-8"?>

<svg version="1.2" baseProfile="tiny" xmlns="http://www.w3.org/2000/svg" xmlns:xlink="http://www.w3.org/1999/xlink" x="0px"
	 y="0px" width="64px" height="64px" viewBox="0 0 64 64" xml:space="preserve">

<g id="Production">
	<g>
		<path fill="#ffffff" d="M35,11.9974v5.0013c17-0.4355,25.3846,19.7371,13.5423,31.5562
			c-6.2245,6.2143-14.0947,5.4481-13.095,5.4481c-9.8506,0-18.4994-8.0275-18.4994-18.4872c0-0.1677,0.0153-0.4712,0.0202-0.4712
			c-5.6296,0-5.0247-0.2474-5.0247,0.4434c-0.002,13.0747,10.6204,23.5042,23.4891,23.5042
			c12.5914,0,23.5275-10.2385,23.5253-23.5042C58.9578,22.087,48,11.738,35,11.9974z"/>
		<path fill="#ffffff" d="M31,5.2656C17.0769,3.7965,3.7969,15.0879,5.1984,31H31V5.2656z M26.0275,26.0275h-15.802
			c1.1062-7.9561,7.8459-14.654,15.802-15.7557V26.0275z"/>
	</g>
</g>
</svg>
