<?xml version="1.0" encoding="utf-8"?>
<!-- Generator: Adobe Illustrator 18.1.1, SVG Export Plug-In . SVG Version: 6.00 Build 0)  -->
<svg version="1.2" baseProfile="tiny" xmlns="http://www.w3.org/2000/svg" xmlns:xlink="http://www.w3.org/1999/xlink" x="0px"
	 y="0px" width="128px" height="128px" viewBox="0 0 128 128" xml:space="preserve">
<g id="box">
	<rect fill="none" width="128" height="128"/>
</g>
<g id="Production">
	<g>
		<path fill="#ffffff" d="M119.1702,35.5397L89.9634,16.5856c-1.4038-0.9127-3.2627-0.605-4.2861,0.7108L48.826,64.3459
			c-0.0386,0.0542-0.0491,0.1239-0.0879,0.1784c-0.669,0.8684-0.8887,2.0165-0.4959,3.0788c0.1458,0,2.5203,7.3073,2.5203,11.6744
			c0,4.5515-1.6052,7.7165-1.6052,7.7165c-0.7679,1.4502-0.3103,3.2265,1.0444,4.157l17.0049,11.0436
			c1.3695,0.8544,3.066,0.5534,4.0818-0.5583c0,0,0-0.0079,0.2045-0.1914c0.677-0.5997,2.802-2.3215,7.1888-4.2835h0.0053
			c5.5527-2.5025,10.7644-2.766,10.7644-2.766c1.1272-0.0492,2.1045-0.6955,2.637-1.647c0.0491-0.0721,0.124-0.1187,0.1628-0.1962
			l28.0176-52.7963C121.052,38.2799,120.5738,36.4499,119.1702,35.5397z M88.2105,86.4254L56.075,65.5479l32.8491-41.9566
			l24.2666,15.7486L88.2105,86.4254z"/>
		<path fill="#ffffff" d="M32.2295,105.3872l-21.6579,0.0078c-1.7813,0-3.2159,1.4424-3.2159,3.2211
			c0,1.7813,1.4422,3.216,3.2232,3.216l21.6611-0.0079c1.7735,0,3.2136-1.4426,3.2136-3.221
			C35.4536,106.8246,34.0135,105.3872,32.2295,105.3872z"/>
		<path fill="#ffffff" d="M42.3245,107.6674c-1.1641,1.8352,0.1555,4.1849,2.2829,4.1957l12.6258,0.0749h0.0205
			c0.9463,0,1.8354-0.4964,2.3291-1.3109l3.4643-5.7078L49.625,96.2022L42.3245,107.6674z"/>
	</g>
</g>
</svg>
