<?xml version="1.0" encoding="utf-8"?>
<!-- Generator: Adobe Illustrator 19.1.0, SVG Export Plug-In . SVG Version: 6.00 Build 0)  -->
<svg version="1.2" baseProfile="tiny" xmlns="http://www.w3.org/2000/svg" xmlns:xlink="http://www.w3.org/1999/xlink" x="0px"
	 y="0px" width="64px" height="64px" viewBox="0 0 64 64" xml:space="preserve">
<g id="box">
	<rect fill="none" width="64" height="64"/>
</g>
<g id="Production">
	<path fill="#ffffff" d="M52.9937,28.3398c-0.0444-4.7134-0.043-8.252-0.0337-10.3906c0.0111-2.6226-2.1083-4.7422-4.729-4.7422
		c-2.3916,0-4.4102,1.7905-4.6953,4.1655l-1.4819,12.3501L20.1738,7.8428c-1.9492-1.9492-5.1206-1.9487-7.0708,0.0005
		c-1.9538,1.9528-1.9601,5.1117-0.0049,7.0659l9.5171,9.5166c-1.0044,0.3677-1.8716,0.9746-2.561,1.8013
		c-1.1421,1.3691-1.731,3.291-1.666,5.3716c-1.3179,0.4287-2.4873,1.3457-3.2949,2.6079c-1.0083,1.5757-1.3457,3.4897-0.9556,5.332
		c-2.4517,2.8516-2.1279,6.8091,0.8745,9.8115c4.5737,4.5737,9.9687,9.6075,16.4946,9.6069c4.4819,0,9.2993-2.3604,14.9272-7.9888
		C51.5771,45.8252,53.1099,40.5381,52.9937,28.3398z M45.02,49.5542c-10.7711,10.7705-17.4939,9.4817-28.5938-1.6182
		c-2.339-2.3396-2.7859-5.1055-0.0586-7.8296c-0.4931-1.666-0.6469-3.1701,0.4102-4.8223c1.1994-1.8743,2.7782-1.9151,3.7783-2.0605
		c-0.1219-1.0281-0.6165-3.7366,1.0337-5.7158c1.3611-1.6317,3.0633-1.482,5.3135-1.6221L14.5122,13.4951
		c-1.1756-1.1756-1.1645-3.0684,0.0059-4.2388c1.1679-1.1679,3.0708-1.1695,4.2417,0.0005l21.8799,21.8799
		c0.5454,0.5464,1.3374,0.7256,2.0684,0.4761c0.7295-0.2529,1.2397-0.8857,1.3311-1.6519l1.4819-12.3501
		c0.1646-1.3701,1.3296-2.4038,2.71-2.4038c1.5133,0,2.7951,1.2219,2.789,2.7334C51.0107,20.0854,51,23.3333,51,28.3589
		C51,40.0552,49.7651,44.8086,45.02,49.5542z"/>
</g>
</svg>

