<?xml version="1.0" encoding="utf-8"?>
<!-- Generator: Adobe Illustrator 18.1.0, SVG Export Plug-In . SVG Version: 6.00 Build 0)  -->
<svg version="1.2" baseProfile="tiny" xmlns="http://www.w3.org/2000/svg" xmlns:xlink="http://www.w3.org/1999/xlink" x="0px"
	 y="0px" width="64px" height="64px" viewBox="0 0 64 64" xml:space="preserve">
<g id="_x36_4px_boxes">
	<rect fill="none" width="64" height="64"/>
</g>
<g id="Production">
	<g>
		<circle fill="#ffffff" cx="14.5" cy="31.5" r="4.5"/>
		<path fill="#ffffff" d="M62.9102,24.8086C61.3135,21.7524,58.2725,20,54.5674,20H32.9658c-3.3926-4.2583-8.6104-7-14.4658-7
			C8.2988,13,0,21.2988,0,31.5C0,41.7012,8.2988,50,18.5,50c5.8555,0,11.0732-2.7417,14.4658-7h6.0918l3.5254-3.9126l4.3193,4.1353
			l4.5293-4.2691l4.6495,4.4819l1.7216-2.0566c0.0703-0.084,1.7549-2.1025,4.1309-5.52
			C64.2754,32.4917,64.6582,28.1538,62.9102,24.8086z M57.8281,33.0044c-0.8398,1.208-1.5908,2.2349-2.2031,3.0469l-4.1543-4.0049
			l-4.541,4.2798l-4.6104-4.4136L36.833,38h-0.8467h-0.1875h-5.4736c-2.2998,4.1685-6.7363,7-11.8252,7C11.0557,45,5,38.9438,5,31.5
			C5,24.0562,11.0557,18,18.5,18c5.0889,0,9.5254,2.8315,11.8252,7h5.4736h5.6426h13.126c1.833,0,3.1855,0.7349,3.9111,2.1245
			C59.375,28.8394,59.1201,31.1475,57.8281,33.0044z"/>
	</g>
</g>
</svg>

