<?xml version="1.0" encoding="utf-8"?>
<!-- Generator: Adobe Illustrator 19.1.0, SVG Export Plug-In . SVG Version: 6.00 Build 0)  -->
<svg version="1.2" baseProfile="tiny" xmlns="http://www.w3.org/2000/svg" xmlns:xlink="http://www.w3.org/1999/xlink" x="0px"
	 y="0px" width="64px" height="64px" viewBox="0 0 64 64" xml:space="preserve">
<g id="box">
	<rect fill="none" width="64" height="64"/>
</g>
<g id="Production">
	<path fill="#ffffff" d="M56.5,10c-1.9297,0-3.5,1.5703-3.5,3.5V15h-2v-2.3164c-0.7369-1.0498-1.6448-1.7227-3-1.7227
		c-1.3642,0-2.2694,0.6817-3,1.7227V15H35v-2.3164l-0.1816-0.2588c-0.6445-0.9165-1.6982-1.4639-2.8184-1.4639
		c-1.3642,0-2.2694,0.6817-3,1.7227V15h-2v-2.3164c-0.7369-1.0498-1.6448-1.7227-3-1.7227c-0.731,0-1.4209,0.2525-2,0.6691
		c-0.5791-0.4166-1.269-0.6691-2-0.6691s-1.4209,0.2525-2,0.6691c-0.5791-0.4166-1.269-0.6691-2-0.6691
		c-1.3642,0-2.2694,0.6817-3,1.7227V15h-2v-1.5c0-1.9297-1.5703-3.5-3.5-3.5S4,11.5703,4,13.5V54h7V43h2v2.3164
		c0.7369,1.0498,1.6448,1.7227,3,1.7227c0.731,0,1.4209-0.2525,2-0.6691c0.5791,0.4166,1.269,0.6691,2,0.6691
		c1.3642,0,2.2694-0.6817,3-1.7227V43h10v2.3164c0.7369,1.0498,1.6448,1.7227,3,1.7227c0.731,0,1.4209-0.2525,2-0.6691
		c0.5791,0.4166,1.269,0.6691,2,0.6691c1.3642,0,2.2694-0.6817,3-1.7227V43h2v2.3164c0.7369,1.0498,1.6448,1.7227,3,1.7227
		c1.3642,0,2.2694-0.6817,3-1.7227V43h2v11h7V13.5C60,11.5703,58.4297,10,56.5,10z M47,13.3618c0.5322-0.5146,1.4678-0.5146,2,0
		v5.2764c-0.5322,0.5146-1.4678,0.5146-2,0V13.3618z M31,13.3618c0.5322-0.5146,1.4678-0.5146,2,0v5.2764
		c-0.5322,0.5146-1.4678,0.5146-2,0V13.3618z M25,13.3618v5.2764c-0.5322,0.5146-1.4678,0.5146-2,0v-5.2764
		C23.5322,12.8472,24.4678,12.8472,25,13.3618z M21,13.3618v5.2764c-0.5322,0.5146-1.4678,0.5146-2,0v-5.2764
		C19.5322,12.8472,20.4678,12.8472,21,13.3618z M15,13.3618c0.5322-0.5146,1.4678-0.5146,2,0v5.2764
		c-0.5322,0.5146-1.4678,0.5146-2,0V13.3618z M13,17v2.3164c0.7369,1.0498,1.6448,1.7227,3,1.7227c0.731,0,1.4209-0.2525,2-0.6691
		c0.5791,0.4166,1.269,0.6691,2,0.6691s1.4209-0.2525,2-0.6691c0.5791,0.4166,1.269,0.6691,2,0.6691
		c1.3642,0,2.2694-0.6817,3-1.7227V17h2v2.3164c0.7369,1.0498,1.6448,1.7227,3,1.7227c1.3642,0,2.2694-0.6817,3-1.7227V17h10v2.3164
		c0.7369,1.0498,1.6448,1.7227,3,1.7227c1.3642,0,2.2694-0.6817,3-1.7227V17h2v11h-2v-2.3164c-0.7369-1.0498-1.6448-1.7227-3-1.7227
		c-0.731,0-1.4209,0.2525-2,0.6691c-0.5791-0.4166-1.269-0.6691-2-0.6691c-1.3642,0-2.2694,0.6817-3,1.7227V28H31v-2.3164
		c-0.7369-1.0498-1.6448-1.7227-3-1.7227c-0.731,0-1.4209,0.2525-2,0.6691c-0.5791-0.4166-1.269-0.6691-2-0.6691
		c-1.3642,0-2.2694,0.6817-3,1.7227V28h-2v-2.3164c-0.7369-1.0498-1.6448-1.7227-3-1.7227c-1.3642,0-2.2694,0.6817-3,1.7227V28h-2
		V17H13z M47,26.3618c0.5322-0.5146,1.4678-0.5146,2,0v5.2764c-0.5322,0.5146-1.4678,0.5146-2,0V26.3618z M43,31.6382v-5.2764
		c0.5322-0.5146,1.4678-0.5146,2,0v5.2764C44.4678,32.1528,43.5322,32.1528,43,31.6382z M27,26.3618
		c0.5322-0.5146,1.4678-0.5146,2,0v5.2764c-0.5322,0.5146-1.4678,0.5146-2,0V26.3618z M23,31.6382v-5.2764
		c0.5322-0.5146,1.4678-0.5146,2,0v5.2764C24.4678,32.1528,23.5322,32.1528,23,31.6382z M17,26.3618v5.2764
		c-0.5322,0.5146-1.4678,0.5146-2,0v-5.2764C15.5322,25.8472,16.4678,25.8472,17,26.3618z M9,52H6V13.5C6,12.6729,6.6729,12,7.5,12
		S9,12.6729,9,13.5V52z M15,44.6382v-5.2764c0.5322-0.5146,1.4678-0.5146,2,0v5.2764C16.4678,45.1528,15.5322,45.1528,15,44.6382z
		 M21,44.6382c-0.5322,0.5146-1.4678,0.5146-2,0v-5.2764c0.5322-0.5146,1.4678-0.5146,2,0V44.6382z M35,44.6382v-5.2764
		c0.5322-0.5146,1.4678-0.5146,2,0v5.2764C36.4678,45.1528,35.5322,45.1528,35,44.6382z M41,44.6382
		c-0.5322,0.5146-1.4678,0.5146-2,0v-5.2764c0.5322-0.5146,1.4678-0.5146,2,0V44.6382z M49,44.6382
		c-0.5322,0.5146-1.4678,0.5146-2,0v-5.2764c0.5322-0.5146,1.4678-0.5146,2,0V44.6382z M51,41v-2.3164
		c-0.7369-1.0498-1.6448-1.7227-3-1.7227c-1.3642,0-2.2694,0.6817-3,1.7227V41h-2v-2.3164c-0.7369-1.0498-1.6448-1.7227-3-1.7227
		c-0.731,0-1.4209,0.2525-2,0.6691c-0.5791-0.4166-1.269-0.6691-2-0.6691c-1.3642,0-2.2694,0.6817-3,1.7227V41H23v-2.3164
		c-0.7369-1.0498-1.6448-1.7227-3-1.7227c-0.731,0-1.4209,0.2525-2,0.6691c-0.5791-0.4166-1.269-0.6691-2-0.6691
		c-1.3642,0-2.2694,0.6817-3,1.7227V41h-2V30h2v2.3164c0.7369,1.0498,1.6448,1.7227,3,1.7227c1.3642,0,2.2694-0.6817,3-1.7227V30h2
		v2.3164c0.7369,1.0498,1.6448,1.7227,3,1.7227c0.731,0,1.4209-0.2525,2-0.6691c0.5791,0.4166,1.269,0.6691,2,0.6691
		c1.3642,0,2.2694-0.6817,3-1.7227V30h10v2.3164c0.7369,1.0498,1.6448,1.7227,3,1.7227c0.731,0,1.4209-0.2525,2-0.6691
		c0.5791,0.4166,1.269,0.6691,2,0.6691c1.3642,0,2.2694-0.6817,3-1.7227V30h2v11H51z M58,52h-3V13.5c0-0.8271,0.6729-1.5,1.5-1.5
		s1.5,0.6729,1.5,1.5V52z"/>
</g>
</svg>

