<?xml version="1.0" encoding="utf-8"?>

<svg version="1.2" baseProfile="tiny" xmlns="http://www.w3.org/2000/svg" xmlns:xlink="http://www.w3.org/1999/xlink" x="0px"
	 y="0px" width="128px" height="128px" viewBox="0 0 128 128" xml:space="preserve">
<g id="_x31_28px_boxes">
	<rect fill="none" width="128" height="128"/>
</g>
<g id="Production">
	<g>
		<path fill="#ffffff" d="M67.902,66.6872c1.6757-2.6852,8.7922-9.747,8.7922-22.7004c0-13.6654-8.9632-22.3791-20.0204-22.3791
			c-11.0563,0-20.0203,8.7137-20.0203,22.3791c0,6.3344,1.9182,13.0073,5.779,18.5625c2.5226,3.6258,4.3729,5.0848,3.7006,7.6056
			c-0.6857,2.5704-5.8813,4.705-12.5978,7.0432c-0.0647,0.0223-0.124,0.0449-0.1837,0.0671
			c-6.6112,2.271-16.8477,7.4779-16.8477,16.3544v3.9814h48.1434C59.5219,87.7815,60.5753,75.5565,67.902,66.6872z"/>
		<path fill="#ffffff" d="M89.5467,62.4943c-12.162,0-21.9486,9.8864-21.9486,21.949c0,12.1215,9.8282,21.949,21.9486,21.949
			c12.1221,0,21.9494-9.8267,21.9494-21.949S101.6688,62.4943,89.5467,62.4943z M102.3871,88.3936h-6.8357h-2.0538v8.8899h-7.9015
			v-8.8899h-8.8894v-7.9012h8.8894v-0.8613V71.603h7.9015v8.8894h8.8895V88.3936z"/>
	</g>
</g>
</svg>
