<?xml version="1.0" encoding="utf-8"?>
<!-- Generator: Adobe Illustrator 18.1.1, SVG Export Plug-In . SVG Version: 6.00 Build 0)  -->
<svg version="1.2" baseProfile="tiny" xmlns="http://www.w3.org/2000/svg" xmlns:xlink="http://www.w3.org/1999/xlink" x="0px"
	 y="0px" width="128px" height="128px" viewBox="0 0 128 128" xml:space="preserve">
<g id="box">
	<rect fill="none" width="128" height="128"/>
</g>
<g id="Production">
	<g>
		<path fill="#ffffff" d="M81.52,15.2501H46.4839c-6.2046,0-11.231,5.0268-11.231,11.2316v75.0414
			c0,6.1997,5.0264,11.2268,11.231,11.2268H81.52c6.2007,0,11.2271-5.0271,11.2271-11.2268V26.4817
			C92.7471,20.2769,87.7207,15.2501,81.52,15.2501z M64.0024,107.5585c-3.1757,0-5.7539-2.5786-5.7539-5.7539
			c0-3.1846,2.5782-5.7588,5.7539-5.7588c3.1797,0,5.7583,2.5742,5.7583,5.7588C69.7607,104.9799,67.1821,107.5585,64.0024,107.5585
			z M85.0835,90.7577H42.9214V28.5226h42.1621V90.7577z"/>
		<path fill="#ffffff" d="M59.1758,77.3961c4.0718-0.9846,7.0766-4.1459,7.0766-7.4399c0-3.2937,0-18.3068,0-18.3068
			c6.7603,0.4169,8.9307,5.7351,8.4566,9.9248c-0.1856,1.6366,1.6348,1.8594,2.5195,0.6718
			c0.8848-1.1881,3.5337-7.6746-0.0386-13.0679c-3.5722-5.3933-12.2573-7.9846-12.2573-7.9846s-0.3559-0.0689-0.5459-0.0689
			c-1.0307,0-1.8662,0.8352-1.8662,1.8661v21.724c-1.8359-0.8396-4.1626-1.0726-6.5337-0.4997
			c-4.6943,1.1367-7.7876,5.0069-6.9082,8.6482C49.9575,76.5035,54.4814,78.5328,59.1758,77.3961z"/>
	</g>
</g>
</svg>
