<?xml version="1.0" encoding="utf-8"?>

<svg version="1.2" baseProfile="tiny" xmlns="http://www.w3.org/2000/svg" xmlns:xlink="http://www.w3.org/1999/xlink" x="0px"
	 y="0px" width="32px" height="32px" viewBox="0 0 32 32" xml:space="preserve">
<g id="_x33_2px_boxes">
	<rect fill="none" width="32" height="32"/>
</g>
<g id="Production">
	<path fill="#ffffff" d="M30.9282,14.5615c-0.0703-0.6933-0.6089-1.2461-1.3003-1.333c-0.8554-0.1074-2.5591-0.3301-2.5595-0.333
		c-1.1364-0.2517-1.6748-1.559-1.0411-2.5371c-0.0014-0.0029,1.5684-2.0352,1.5684-2.0352c0.4272-0.5498,0.418-1.3212-0.022-1.8603
		c-0.6074-0.7461-1.292-1.4307-2.0346-2.0371c-0.5401-0.4385-1.312-0.4492-1.8614-0.0225
		c-0.6733,0.5225-2.0171,1.5576-2.0195,1.5567c-0.9993,0.6623-2.3395,0.0914-2.5659-1.0723c-0.002,0-0.3223-2.5147-0.3223-2.5147
		c-0.0874-0.6914-0.6401-1.2294-1.3325-1.3007c-0.9526-0.0967-1.9253-0.0967-2.877,0c-0.6933,0.0713-1.2456,0.6093-1.3325,1.3007
		c0,0-0.3149,2.4883-0.3159,2.4883c-0.2148,1.2085-1.6143,1.7818-2.6133,1.0635c-0.0034,0.002-1.9746-1.5195-1.9746-1.5195
		c-0.5508-0.4278-1.3218-0.417-1.8618,0.0224c-0.7451,0.6084-1.4302,1.292-2.0352,2.0332C3.9868,7.001,3.9766,7.7734,4.4043,8.3232
		c0.5093,0.6553,1.5112,1.9522,1.5103,1.9532c0.7557,1.0185,0.1415,2.453-1.0958,2.6357C4.8184,12.915,2.373,13.2275,2.373,13.2275
		c-0.6918,0.0879-1.2309,0.6407-1.3002,1.334c-0.0967,0.9658-0.0967,1.9336,0,2.877c0.0708,0.6933,0.6098,1.2451,1.3002,1.331
		l2.4429,0.3096c1.2479,0.1839,1.8524,1.6243,1.0962,2.6397c0.001,0.0029-1.5073,1.956-1.5073,1.956
		c-0.4273,0.5508-0.4175,1.3223,0.0239,1.8623c0.6148,0.751,1.2998,1.4356,2.0357,2.0352c0.5483,0.444,1.3212,0.4392,1.8598,0.0205
		c0,0,1.9678-1.5215,1.9693-1.5205c1.002-0.7254,2.4103-0.1494,2.6196,1.0664c0.0005,0.0009,0.3149,2.4883,0.3149,2.4883
		c0.0869,0.6914,0.6392,1.2294,1.3325,1.3007C15.0361,30.9756,15.52,31,15.9985,31c0.479,0,0.9629-0.0244,1.439-0.0723
		c0.6924-0.0713,1.2451-0.6093,1.3325-1.3007c0,0,0.3194-2.5147,0.3213-2.5157c0.2225-1.1773,1.5812-1.7399,2.5728-1.0761
		c0.0005,0,2.0117,1.5595,2.0117,1.5595c0.5463,0.4257,1.3192,0.4182,1.8618-0.0224c0.7451-0.6094,1.4302-1.293,2.0347-2.0352
		c0.4404-0.5381,0.4497-1.3105,0.0229-1.8603c-0.5293-0.6817-1.5688-2.0362-1.5654-2.0411c-0.6422-0.9871-0.0899-2.2941,1.041-2.54
		c0,0,1.7271-0.2207,2.5562-0.3242c0.6909-0.0869,1.2304-0.6397,1.3002-1.334C31.0244,16.4795,31.0249,15.5107,30.9282,14.5615z
		 M16.0024,21.0996c-2.8178,0-5.1025-2.2832-5.1025-5.0996s2.2847-5.0996,5.1025-5.0996c2.8169,0,5.0977,2.2832,5.0977,5.0996
		S18.8193,21.0996,16.0024,21.0996z"/>
</g>
</svg>
