<?xml version="1.0" encoding="utf-8"?>
<!-- Generator: Adobe Illustrator 18.1.1, SVG Export Plug-In . SVG Version: 6.00 Build 0)  -->
<svg version="1.2" baseProfile="tiny" xmlns="http://www.w3.org/2000/svg" xmlns:xlink="http://www.w3.org/1999/xlink" x="0px"
	 y="0px" width="64px" height="64px" viewBox="0 0 64 64" xml:space="preserve">
<g id="_x36_4px_boxes">
	<rect fill="none" width="64" height="64"/>
</g>
<g id="Production">
	<g>
		<path fill="#ffffff" d="M52,10H12c-2.7568,0-5,2.2432-5,5s2.2432,5,5,5h3v-2h-3c-1.6543,0-3-1.3457-3-3s1.3457-3,3-3h40
			c1.6543,0,3,1.3457,3,3s-1.3457,3-3,3h-3v2h3c2.7568,0,5-2.2432,5-5S54.7568,10,52,10z"/>
		<path fill="#ffffff" d="M45,43c0,1.6543-1.3457,3-3,3h-2V14h-5v32H22c-1.6543,0-3-1.3457-3-3V14h-2v29c0,2.7568,2.2432,5,5,5h20
			c2.7568,0,5-2.2432,5-5V14h-2V43z"/>
		<polygon fill="#ffffff" points="26,57 38,57 32,51 		"/>
	</g>
</g>
</svg>

