<?xml version="1.0" encoding="utf-8"?>

<svg version="1.2" baseProfile="tiny" xmlns="http://www.w3.org/2000/svg" xmlns:xlink="http://www.w3.org/1999/xlink" x="0px"
	 y="0px" width="128px" height="128px" viewBox="0 0 128 128" xml:space="preserve">
<g id="_x31_28px_boxes">
	<rect fill="none" width="128" height="128"/>
</g>
<g id="Production">
	<path fill="#ffffff" d="M98.5,40c-6.4121,0-49.6413,0-55.5,0c-3.3137,0-6-2.6863-6-6s2.6863-6,6-6c7.2152,0,49.5947,0,54,0v-5.5
		c0-1.9331-1.5669-3.5-3.5-3.5H43c-8.2842,0-15,6.7158-15,15v62c0,8.2842,6.7158,15,15,15h55.5c1.9331,0,3.5-1.5669,3.5-3.5v-64
		C102,41.5669,100.4331,40,98.5,40z M70.3232,89.1069c-1.5583,1.1907-3.7338,1.1907-5.2929,0
		c-0.867-0.6651-0.4783-0.3484-4.3694-4.2392c1.7979-1.8503,4.3175-2.9539,7.02-2.9531c2.6881-0.0008,5.2072,1.0962,7.0115,2.9536
		C70.8796,88.6771,71.2334,88.4109,70.3232,89.1069z M78.5718,80.9888c-3.0947-3.0948-6.9594-4.5564-10.8843-4.5603
		c-3.9776,0.0039-7.8354,1.4899-10.9058,4.5603l-4.2248-4.2254c4.2453-4.2453,9.6756-6.312,15.1306-6.3086
		c5.4747-0.0029,10.8875,2.087,15.1094,6.3089L78.5718,80.9888z M86.6533,72.9075c-5.4603-4.9786-11.2167-7.87-18.8972-7.8738
		c-7.484,0.004-14.4417,3.107-19.0549,7.874l-4.2241-4.2241c6.7611-6.5431,14.7995-9.6272,23.279-9.6233
		c8.2166-0.0026,16.2738,2.9837,23.1209,9.6233L86.6533,72.9075z"/>
</g>
</svg>
