<?xml version="1.0" encoding="utf-8"?>
<!-- Generator: Adobe Illustrator 18.1.1, SVG Export Plug-In . SVG Version: 6.00 Build 0)  -->
<svg version="1.2" baseProfile="tiny" xmlns="http://www.w3.org/2000/svg" xmlns:xlink="http://www.w3.org/1999/xlink" x="0px"
	 y="0px" width="64px" height="64px" viewBox="0 0 64 64" xml:space="preserve">

<g id="Production">
	<g>
		<path fill="#ffffff" d="M55.0601,45h-1.708c0.2085-0.3787,8.3923-15.2003,8.548-15.6035
			c0.3022-1.2882,0.1478-4.8638-5.0595-6.0214l-3.2766-8.774C52.9829,13.0454,51.4771,12,49.8164,12H35.5503
			c-1.1836,0-2.356,0.3027-3.3911,0.876l-0.8857,0.4905c-0.8067-2.1096-2.2778-4.3366-4.8306-4.3366
			c-5.4523,0-9.09,4.6319-12.0602,15.6614l-3.6165,1.8077c-1.0498,0.5249-1.9121,1.3311-2.4941,2.3315
			c-1.174,2.0178-3.0055,5.941-3.8459,11.643l-3.3074,0.8755C0.4813,46.3242,3.288,50.7004,7.1611,54H63
			C63,47.9181,59.1248,45,55.0601,45z M26.4429,11.0299c1.4534,0,2.4583,1.6248,3.0624,3.3159l-3.7045,2.0517
			c-1.0317,0.5718-1.8657,1.4263-2.4111,2.4712l-0.9336,1.7871l-5.6621,2.8302C20.075,12.416,23.6411,11.0299,26.4429,11.0299z
			 M10.0005,29.8364c0.3857-0.6626,0.96-1.1982,1.6602-1.5483l12.269-6.1323l1.2324-2.3613
			c0.3638-0.6968,0.9199-1.2666,1.6079-1.6475l6.3579-3.521C33.8672,14.2163,34.7051,14,35.5503,14h14.2661
			c0.8306,0,1.5835,0.5225,1.8735,1.3003L52.3246,17H35.0481l0.4615,2h17.5619l1.5167,4.0614
			c-7.4116-0.556-17.5977,2.6036-24.4744,5.5109c-1.2358,0.5229-2.3149,1.2949-3.208,2.2949l-4.2778,4.7881L6.5284,39.9171
			C7.366,35.0002,8.9618,31.622,10.0005,29.8364z M7.9023,52c-4.2988-3.7954-4.8638-7.5923-4.9038-9.0796
			c2.2004-0.5824,18.2889-4.841,20.7212-5.4849l4.6772-5.2363c0.6948-0.7773,1.5347-1.3784,2.4961-1.7852
			c3.4351-1.4521,12.292-4.8828,20.3198-5.3667c2.0254-0.1224,4.6233-0.0781,6.5096,0.6896v-0.0001
			c1.4105,0.574,2.4335,1.5909,2.2739,3.0981L49.9487,47h5.1113c2.9678,0,5.439,2.166,5.9165,5H7.9023z"/>
		<path fill="#ffffff" d="M37.9138,35.0998c-0.9183,0.3849-1.1652,1.7716-0.5515,3.0972c0.6137,1.3256,1.8556,2.0881,2.7739,1.7032
			c0.9183-0.3849,1.1652-1.7716,0.5515-3.0972C40.074,35.4774,38.8321,34.7148,37.9138,35.0998z"/>
	</g>
</g>
</svg>
