<?xml version="1.0" encoding="utf-8"?>
<!-- Generator: Adobe Illustrator 18.1.1, SVG Export Plug-In . SVG Version: 6.00 Build 0)  -->
<svg version="1.2" baseProfile="tiny" xmlns="http://www.w3.org/2000/svg" xmlns:xlink="http://www.w3.org/1999/xlink" x="0px"
	 y="0px" width="128px" height="128px" viewBox="0 0 128 128" xml:space="preserve">
<g id="box">
	<rect fill="none" width="128" height="128"/>
</g>
<g id="Production">
	<g>
		<path fill="#ffffff" d="M42.1262,36.4785c0.9762,0.6363,19.4709,12.6917,20.6096,13.4341c0.7982,0.5205,1.8481,0.5287,2.6597,0
			c3.4693-2.2612-7.8514,5.1174,20.6113-13.4341c1.4759-0.9633,1.4675-3.1243-0.0005-4.0808L65.395,18.9707
			c-0.8061-0.5261-1.8528-0.5261-2.6592,0l-20.6089,13.427C40.6575,33.3545,40.6512,35.5172,42.1262,36.4785z M64.0654,23.917
			l16.1504,10.5215L64.0654,44.9649L47.9167,34.4392L64.0654,23.917z"/>
		<path fill="#ffffff" d="M24.2651,102.1026c-0.0009,0.0542-0.0036,0.1084-0.0036,0.1626c0,3.9538,3.2031,7.1587,7.157,7.1587
			c2.8918,0,5.3828-1.7168,6.5122-4.1863h4.2343c1.1287,2.4695,3.6182,4.1863,6.511,4.1863c3.9539,0,7.159-3.2049,7.159-7.1587
			c0-0.0542-0.0032-0.1084-0.0044-0.1621C36.4088,102.1031,43.1949,102.1032,24.2651,102.1026z"/>
		<path fill="#ffffff" d="M71.0735,102.1031c-0.001,0.0542-0.0039,0.1079-0.0039,0.1621c0,3.9538,3.2031,7.1587,7.1567,7.1587
			c2.8923,0,5.3831-1.7168,6.5122-4.1863h4.2346c1.1289,2.4695,3.6182,4.1863,6.5113,4.1863c3.9536,0,7.1584-3.2049,7.1584-7.1587
			c0-0.0542-0.0032-0.1079-0.0041-0.1621C92.6858,102.1031,80.7164,102.1031,71.0735,102.1031z"/>
		<path fill="#ffffff" d="M115.1206,81.5039c-1.9663-10.3169-6.2637-26.3056-6.271-26.3408
			c-0.3289-1.2243-1.4355-2.0722-2.7031-2.0722H22.71c-1.2173,0-2.2908,0.7824-2.6641,1.9409
			c-0.3611,1-5.3255,16.8195-7.165,26.4721c-1.7613,9.2489-0.2129,16.9507,3.6892,16.9507h94.8608
			c0.7898,0,1.5508-0.3384,2.0791-0.9253C116.6479,94.2455,115.9855,86.053,115.1206,81.5039z M31.4014,77.0633H19.5859
			c1.4249-5.8793,3.3746-12.5742,5.1758-18.3753h6.6397V77.0633z M51.2873,77.0633H36.9997V58.688h14.2876V77.0633z
			 M71.1724,77.0633H56.885V58.688h14.2874V77.0633z M91.0571,93.0174H76.7698V58.688h14.2873V93.0174z M96.655,77.0633V58.688
			h7.3367c1.5264,5.8432,3.1983,12.5299,4.4902,18.3753H96.655z"/>
	</g>
</g>
</svg>
