<?xml version="1.0" encoding="utf-8"?>
<!-- Generator: Adobe Illustrator 18.1.1, SVG Export Plug-In . SVG Version: 6.00 Build 0)  -->
<svg version="1.2" baseProfile="tiny" xmlns="http://www.w3.org/2000/svg" xmlns:xlink="http://www.w3.org/1999/xlink" x="0px"
	 y="0px" width="128px" height="128px" viewBox="0 0 128 128" xml:space="preserve">
<g id="box">
	<rect fill="none" width="128" height="128"/>
</g>
<g id="Production">
	<g>
		<path fill="#ffffff" d="M120.2496,54.8644L109.9137,44.526c-0.4151-0.4148-1.0105-0.5747-1.5674-0.4277
			c-0.0054,0-0.9024,0.2292-2.0083,0.2216c-1.0984,0.0154-2.1914-0.2629-2.6995-0.8122c-1.3601-1.2848-0.477-4.5117-0.477-4.5117
			c0.2083-0.6927,0.0491-1.3376-0.3894-1.7762C85.7492,20.023,86.3059,20.7147,86.3059,20.7147
			c-4.836-4.8512-13.4993-9.0693-21.9351-9.0493c-12.1763,0.031-20.689,7.3684-20.8335,7.4687
			c-1.1714,0.9713-0.4365,2.9412,1.1294,2.8772c0.7656-0.031,1.4927-0.0439,2.2119-0.0439
			c19.0264,0.0879,22.1768,9.6553,22.3262,12.9707c-0.0049-0.0078-0.0073,0.0335-0.0073,0.0335
			c0.0927,1.3303-1.5415,4.1818-3.3545,6.3525c-1.7759,2.2095-3.5625,3.8982-3.5625,3.9033
			c-0.3301,0.312-0.5108,0.7424-0.5108,1.1912c0.0054,0.0154-0.0229,0.1391,0.0669,0.4819
			c-0.0024,0.1392,0.1651,0.4255,0.4307,0.6807l-0.0127,0.0156l13.7568,13.7463c0.6367,0.6343,1.6656,0.6421,2.3072,0.0078
			c0,0,1.4311-1.3972,3.437-2.7998c2.4692-1.7732,6.4585-3.9107,8.6338-1.7944c1.2812,1.1337,0.5725,4.7568,0.5725,4.7568
			c-0.1238,0.5491,0.0466,1.1214,0.4436,1.5184l10.338,10.3359c0.6122,0.6274,1.6566,0.6579,2.3203,0l16.1831-16.1831
			C120.9062,56.5145,120.8866,55.4962,120.2496,54.8644z M92.6638,42.1439L79.1462,28.7196
			c-9.1138-9.1316-22.2412-9.5183-23.4814-9.5261c-0.1651,0.0361-0.3506-0.0232-0.4537-0.1597
			c-0.1904-0.24-0.1125-0.6061,0.25-0.7273h0.0103c0.0181-0.0051,0.0283-0.0051,0.0439-0.0102
			c9.6433-2.1258,18.013-1.2908,27.0806,6.7934l13.5997,13.499C98.5426,40.9367,95.0019,44.4587,92.6638,42.1439z M112.4788,55.6739
			l-2.8769,2.9158c-0.0828,0.0903-0.1961,0.1367-0.3201,0.1367h-0.0256c-0.1109,0-0.2166-0.0488-0.2966-0.1262l-4.1971-4.2773
			l-0.0591-0.041c-0.9665-0.9714-0.9809-2.5464-0.0156-3.5269c0,0,0-0.0051,0.0051-0.0051c0-0.0027,0-0.0027,0-0.0027
			c1.009-1.0146,2.6003-0.9728,3.545-0.0181l4.2307,4.3054C112.6463,55.2098,112.6463,55.4908,112.4788,55.6739z"/>
		<path fill="#ffffff" d="M59.1608,50.8607c-0.6294-0.6343-1.645-0.6343-2.2714,0L7.7375,100.0126
			c-0.6343,0.6291-0.624,1.6474,0,2.2715l13.5791,13.5761c0.624,0.6301,1.6416,0.6351,2.271,0l49.1572-49.1494
			c0.6216-0.634,0.6289-1.6499,0-2.2764L59.1608,50.8607z"/>
	</g>
</g>
</svg>
