<?xml version="1.0" encoding="utf-8"?>

<svg version="1.2" baseProfile="tiny" xmlns="http://www.w3.org/2000/svg" xmlns:xlink="http://www.w3.org/1999/xlink" x="0px"
	 y="0px" width="64px" height="64px" viewBox="0 0 64 64" xml:space="preserve">

<g id="Production">
	<g>
		<circle fill="#ffffff" cx="46.0001" cy="17" r="5.0002"/>
		<path fill="#ffffff" d="M61.0009,17.9998C61.0009,9.7284,54.2717,3,45.9999,3C37.7287,3,31,9.7284,31,17.9998
			c0,8.7422,5.6349,14.4683,14.9999,26.4578C56.2781,31.299,61.0009,26.3165,61.0009,17.9998z M46.0009,8
			c5.5139,0,9.9998,4.4862,9.9998,9.9998c0,6.1294-3.9007,10.5055-10.0008,18.3319c-6.0688-7.7889-9.9998-12.1885-9.9998-18.3319
			C36.0001,12.4862,40.4866,8,46.0009,8z"/>
		<polygon fill="#ffffff" points="2.5353,60 7.6237,60 15.9258,16 10.8375,16 		"/>
		<polygon fill="#ffffff" points="25.0581,16 19.9698,16 28.2719,60 33.3602,60 32.0394,53 61,53 61,48 31.096,48 		"/>
	</g>
</g>
</svg>
