<?xml version="1.0" encoding="utf-8"?>
<!-- Generator: Adobe Illustrator 18.1.1, SVG Export Plug-In . SVG Version: 6.00 Build 0)  -->
<svg version="1.2" baseProfile="tiny" xmlns="http://www.w3.org/2000/svg" xmlns:xlink="http://www.w3.org/1999/xlink" x="0px"
	 y="0px" width="128px" height="128px" viewBox="0 0 128 128" xml:space="preserve">
<g id="_x31_28px_boxes">
	<rect fill="none" width="128" height="128"/>
</g>
<g id="Production">
	<g>
		<path fill="#ffffff" d="M97.9657,86.6714l-25.541,7.2146c1.3127-4.4584,1.6985-8.0007,1.8992-10.9692
			c18.2123,3.9044,33.0688-14.3857,24.4777-29.5079c14.779-14.2234,1.8682-37.8536-19.266-33.6232
			c-10.406-18.5654-37.7654-10.4945-40.553,7.3395c-21.9357,3.5922-24.5421,30.2008-6.3135,38.1956
			c-0.3336,2.101-0.3152,4.244,0.0637,6.337c2.3568,13.0244,17.5004,20.2281,30.5634,14.1592
			c-2.728,7.9099-6.07,11.5041-12.4341,14.1599l-14.2632,4.029c-9.4155,2.6597-5.6797,17.1924,4.0777,14.4351l61.3668-17.3345
			C111.5783,98.4133,107.5172,83.9717,97.9657,86.6714z M40.6801,64.2118c0.8429-2.2498-0.5868-4.4645-2.627-4.9599
			c-5.1643-1.2536-9.0651-4.959-9.7673-9.7372c-1.754-11.9365,12.2081-15.1679,14.2826-15.1965
			c2.1035-0.029,3.7719-1.7825,3.6958-3.8852c-0.5359-14.8247,23.0055-18.812,27.6083-4.9915
			c0.6659,2.0001,2.8492,3.0579,4.8317,2.3421c15.9464-5.7604,25.9846,13.0556,12.93,21.804
			c-1.8782,1.2588-2.2229,3.8841-0.7342,5.5849c10.0096,11.4389-7.1143,27.0006-19.9839,18.3014
			c-1.6796-1.135-3.9568-0.7299-5.1421,0.9142C56.8237,86.8058,35.2649,78.6649,40.6801,64.2118z"/>
		<path fill="#ffffff" d="M58.0472,65.2348l6.5575-12.2347l10.4316,9.1613c-0.764,2.4947,1.2294,6.1855,5.4214,5.4266
			c2.626-0.4751,4.4024-2.8086,3.9673-5.2119c-0.6205-3.428-4.2838-3.9046-6.1338-3.3451l-10.3451-9.0854l13.0356-6.5903
			c3.6322,1.9686,7.9477-1.0723,7.2919-4.6984c-0.435-2.4038-2.917-3.9665-5.543-3.4912c-2.2913,0.4149-3.9347,2.2441-4.0282,4.2997
			l-13.0655,6.6055l-2.3693-13.0896c1.3786-1.0025,2.1475-2.6383,1.8449-4.3097c-0.4351-2.4033-2.917-3.9663-5.5435-3.491
			c-2.626,0.4754-4.4023,2.8093-3.9678,5.2127c0.3027,1.6712,1.5959,2.9339,3.2384,3.3895l2.3693,13.0893l-14.5021-1.6013
			c-0.8037-1.9004-2.9892-3.0434-5.2859-2.628c-2.6264,0.4756-4.4028,2.809-3.9677,5.2126c0.9787,5.4065,7.1235,3.3897,8.4666,1.856
			l14.4847,1.5994l-6.4671,12.066c-1.3856,0.0668-5.3617,1.3998-4.6574,5.2859c0.435,2.4035,2.9165,3.9665,5.5429,3.4914
			C60.4858,71.1287,58.4833,65.8252,58.0472,65.2348z"/>
	</g>
</g>
</svg>
