<?xml version="1.0" encoding="utf-8"?>
<!-- Generator: Adobe Illustrator 18.1.1, SVG Export Plug-In . SVG Version: 6.00 Build 0)  -->
<svg version="1.2" baseProfile="tiny" xmlns="http://www.w3.org/2000/svg" xmlns:xlink="http://www.w3.org/1999/xlink" x="0px"
	 y="0px" width="128px" height="128px" viewBox="0 0 128 128" xml:space="preserve">
<g id="_x31_28px_boxes">
	<rect fill="none" width="128" height="128"/>
</g>
<g id="Production">
	<g>
		<path fill="#ffffff" d="M58.4125,99.101h-3.5303v-5.0503h-9.7246v5.0503h-3.5302c-1.9405,0-3.6243,1.3392-4.0608,3.23
			l-4.7215,20.4453h8.5547l2.0195-8.7455l10.469,8.7455h13.3064l-4.7214-20.4453C62.0368,100.4402,60.3529,99.101,58.4125,99.101z
			 M45.1005,107.4364h9.9971l2.3896,10.3473L45.1005,107.4364z"/>
		<path fill="#ffffff" d="M48.5478,32.6519c2.3681-0.2421,4.7517,0.1021,6.9409,0.9844c0.0307-0.0841,5.875-26.0216,5.875-26.0216
			c0.1977-0.8793-0.3631-2.398-2.0379-2.3909H42.935c-1.2893,0.0106-2.4165,1.1976-1.9634,2.6774L48.5478,32.6519z"/>
		<path fill="#ffffff" d="M15.872,25.8035l22.834,12.131c1.497-1.8177,3.4094-3.2548,5.6289-4.198
			c-0.0379-0.0818-14.2454-22.5549-14.2454-22.5549c-0.5417-0.8568-2.0989-1.4922-3.2268-0.3451L15.3671,22.5219
			C14.0714,23.8388,15.0805,25.3831,15.872,25.8035z"/>
		<path fill="#ffffff" d="M36.4906,41.627c-0.0569-0.0181-25.9338-5.848-25.9338-5.848c-1.3345-0.3008-2.5364,0.7312-2.5259,2.0378
			v16.3911c0.011,1.3317,1.2117,2.0542,2.2066,2.0542c0.2028,0,25.215-7.6238,25.215-7.6238
			C35.2162,46.243,35.5785,43.8337,36.4906,41.627z"/>
		<path fill="#ffffff" d="M36.538,52.8909c-0.0645,0.032-22.5061,14.2201-22.5061,14.2201
			c-0.7627,0.4826-1.5501,2.0418-0.3452,3.2269l11.6858,11.4954c0.8686,0.8546,2.5188,0.9316,3.2817-0.5048l12.1045-22.7837
			C38.9281,57.0419,37.4848,55.1229,36.538,52.8909z"/>
		<path fill="#ffffff" d="M44.5529,60.7942c-0.0105,0.0373-5.8296,25.8732-5.8296,25.8732
			c-0.3176,1.4125,0.4629,2.1074,1.3445,2.4121h17.0847c1.4297-0.0117,2.3591-1.4059,1.9636-2.6979l-7.5337-24.6118
			C49.185,62.0298,46.7694,61.6873,44.5529,60.7942z"/>
		<path fill="#ffffff" d="M84.1073,68.5595L61.3539,56.4714c-1.4814,1.8058-3.396,3.2688-5.6697,4.2308
			C55.7126,60.7574,69.89,83.1817,69.89,83.1817c0.6792,1.0742,2.1766,1.4131,3.2269,0.3451l11.4953-11.6856
			C85.4787,70.9604,85.4206,69.2572,84.1073,68.5595z"/>
		<path fill="#ffffff" d="M89.2643,38.2145l-24.6787,7.5546c0.239,2.3819-0.1145,4.7784-1.0124,6.9765
			c0.0708,0.0242,25.9765,5.8619,25.9765,5.8619c0.937,0.211,2.5393-0.3892,2.5259-2.0378V40.1781
			C92.0644,38.8095,90.5724,37.8145,89.2643,38.2145z"/>
		<path fill="#ffffff" d="M63.4867,41.5013c0.0796-0.0371,22.5489-14.2442,22.5489-14.2442
			c0.8811-0.5575,1.5146-2.0765,0.3452-3.2269L74.6947,12.5347c-0.8842-0.8697-2.6047-0.7698-3.2817,0.5048L59.2775,35.882
			C61.0944,37.3726,62.5392,39.2827,63.4867,41.5013z"/>
		<path fill="#ffffff" d="M56.3839,43.1857c-2.2334-3.5271-6.8662-4.5679-10.3935-2.3353
			c-3.5269,2.2338-4.5679,6.8662-2.3345,10.3938c2.2339,3.5268,6.866,4.568,10.3933,2.3349
			C57.5768,51.3462,58.6171,46.7129,56.3839,43.1857z"/>
		<path fill="#ffffff" d="M117.2301,28.0119c0,0-15.6706,9.1384-15.7819,9.251c-2.8169,1.788-4.8089,6.1727-4.8089,11.3021
			c0,5.0771,1.9514,9.4258,4.7227,11.2479c0.1311,0.153,15.8679,9.3501,15.8679,9.3501c0.7192,0.4182,2.7393,0.3201,2.7393-1.5757
			V29.5876C119.9692,28.4593,118.6449,27.1889,117.2301,28.0119z"/>
	</g>
</g>
</svg>

