<?xml version="1.0" encoding="utf-8"?>

<svg version="1.2" baseProfile="tiny" xmlns="http://www.w3.org/2000/svg" xmlns:xlink="http://www.w3.org/1999/xlink" x="0px"
	 y="0px" width="32px" height="32px" viewBox="0 0 32 32" xml:space="preserve">
<g id="_x33_2px_boxes">
	<rect fill="none" width="32" height="32"/>
</g>
<g id="Production">
	<g>
		<path fill="#ffffff" d="M2,24.0313v4.0371c0,0.7978,0.4746,1.5185,1.2061,1.8359C4.8867,30.6309,6.668,31,8.5,31
			s3.6133-0.3691,5.2939-1.0957C14.5254,29.5869,15,28.8662,15,28.0684v-4.0371C10.79,25.5127,6.21,25.5127,2,24.0313z"/>
		<path fill="#ffffff" d="M13,1.0098h-1c0,0.5429,0,6.9912,0,6.9912c-0.29,0.3662-1.6113,1.1513-3.5,1.1513S5.29,8.3672,5,8.001
			c0,0,0-6.4483,0-6.9912H4c-1.001,0-2,1.0205-2,2v16.8613c4.21,1.4814,8.79,1.4814,13,0V3.0098C15,2.0098,14.001,1.0098,13,1.0098z
			"/>
		<path fill="#ffffff" d="M17,24.0313v4.0371c0,0.7978,0.4746,1.5185,1.2061,1.8359C19.8867,30.6309,21.668,31,23.5,31
			s3.6133-0.3691,5.2939-1.0957C29.5254,29.5869,30,28.8662,30,28.0684v-4.0371C25.79,25.5127,21.21,25.5127,17,24.0313z"/>
		<path fill="#ffffff" d="M28,1.0098h-1c0,0.5429,0,6.9912,0,6.9912c-0.29,0.3662-1.6113,1.1513-3.5,1.1513S20.29,8.3672,20,8.001
			c0,0,0-6.4483,0-6.9912h-1c-1.001,0-2,1.0205-2,2v16.8613c4.21,1.4814,8.79,1.4814,13,0V8.5098v-5.5
			C30,2.0098,29.001,1.0098,28,1.0098z"/>
	</g>
</g>
</svg>
