<?xml version="1.0" encoding="utf-8"?>
<!-- Generator: Adobe Illustrator 18.1.1, SVG Export Plug-In . SVG Version: 6.00 Build 0)  -->
<svg version="1.2" baseProfile="tiny" xmlns="http://www.w3.org/2000/svg" xmlns:xlink="http://www.w3.org/1999/xlink" x="0px"
	 y="0px" width="128px" height="128px" viewBox="0 0 128 128" xml:space="preserve">
<g id="box">
	<rect fill="none" width="128" height="128"/>
</g>
<g id="Production">
	<g>
		<path fill="#ffffff" d="M44.9802,86.1975h-1.2539L32.2527,49.2543c-0.3799-1.2028-1.5477-2.0629-2.7994-2.0629
			c-1.281,0-2.4438,0.9315-2.8012,2.0629L15.1804,86.1975h-1.2515c-1.122,0-2.0698,0.9047-2.0698,2.0701
			c-0.0879,9.097,8.5,12.6244,17.5967,12.6382c9.2258-0.014,17.6865-3.6299,17.5942-12.6382
			C47.05,87.1643,46.1521,86.1975,44.9802,86.1975z M29.2937,96.7661c-5.1824-0.0205-11.7786-1.388-13.043-6.4287h9.5498
			c0.3552,2.9541,1.543,5.0571,3.5847,6.4287C29.3523,96.7661,29.3264,96.7661,29.2937,96.7661z M21.322,86.1975l8.1313-26.1915
			l8.1338,26.1915H21.322z"/>
		<path fill="#ffffff" d="M114.071,72.8841h-1.2563l-11.4715-36.9338c-0.3374-1.0883-1.4861-2.0653-2.8015-2.0653
			c-1.3542,0-2.4905,1.0653-2.7991,2.0653L84.2688,72.8841h-1.2515c-1.116,0-2.0698,0.9042-2.0698,2.0773
			c-0.0877,9.0489,8.4209,12.6286,17.5991,12.638c9.1946-0.0095,17.686-3.6104,17.5942-12.638
			C116.1408,73.8554,115.2426,72.8841,114.071,72.8841z M98.3842,83.4551c-5.2111-0.0248-11.7797-1.3974-13.0429-6.4309h9.55
			c0.355,2.9568,1.5427,5.0571,3.5845,6.4353C98.4431,83.4595,98.4172,83.4551,98.3842,83.4551z M90.4126,72.8841l8.1291-26.1844
			l8.1338,26.1844H90.4126z"/>
		<path fill="#ffffff" d="M34.2072,42.7599h0.0025c20.6792-8.3654,41.0161-12.4352,64.5295-12.1208
			c10.2649,0.1366,12.7183-8.3644,10.6248-10.4672c-2.0982-2.1077-6.6001,1.8512-10.6057,1.5266
			c-3.9988-0.3293-20.2029-1.6417-35.3982,1.2113c-15.1997,2.8578-28.7976,9.7664-32.4131,11.5256
			c-3.606,1.7596-9.2464-0.2963-10.4319,2.4252C19.3249,39.5774,24.695,46.6102,34.2072,42.7599z M64.3269,25.2621
			c1.5346-0.2843,2.8408,0.8569,3.0766,2.1028c0.2075,1.1418-0.5537,2.7879-2.103,3.0791
			c-1.5474,0.2854-2.8603-0.9697-3.0762-2.1006C61.9758,26.9726,62.8684,25.5392,64.3269,25.2621z"/>
		<path fill="#ffffff" d="M78.5483,99.9038c-1.0447-0.5622-4.5632-2.3733-7.6848-3.9778V36.6796
			c-1.9893,0.3132-4.9114,0.6534-11.9277,2.3614v56.8335c-3.1167,1.6158-6.6661,3.4671-7.6963,4.0362
			c-2.1216,1.1623-3.98,3.0578-4.0083,5.6594c0,0.9028-0.1585,1.8608,0.4399,2.4438c0.2822,0.2801,0.6563,0.4353,1.0537,0.4353
			h32.3567c0.8262,0,1.4937-0.6694,1.4937-1.4887v-1.3904C82.5612,103.0017,80.771,101.073,78.5483,99.9038z"/>
	</g>
</g>
</svg>
