<?xml version="1.0" encoding="utf-8"?>
<!-- Generator: Adobe Illustrator 18.1.1, SVG Export Plug-In . SVG Version: 6.00 Build 0)  -->
<svg version="1.2" baseProfile="tiny" xmlns="http://www.w3.org/2000/svg" xmlns:xlink="http://www.w3.org/1999/xlink" x="0px"
	 y="0px" width="128px" height="128px" viewBox="0 0 128 128" xml:space="preserve">
<g id="_x31_28px_boxes">
	<rect fill="none" width="128" height="128"/>
</g>
<g id="Production">
	<g>
		<path fill="#ffffff" d="M68.2369,79.8442H48.611l-21.2354,31.3409c-1.4329,2.1145-0.8801,4.9902,1.2346,6.4231
			c2.1165,1.4339,4.9917,0.8783,6.4231-1.2347l18.7657-27.696v25.1018c0,2.5542,2.0708,4.625,4.625,4.625
			c2.5541,0,4.625-2.0708,4.625-4.625V88.6775l18.7656,27.696c1.4336,2.1157,4.3098,2.6669,6.4231,1.2347
			c2.1147-1.4329,2.6675-4.3086,1.2346-6.4231L68.2369,79.8442z"/>
		<path fill="#ffffff" d="M107.7194,45.8882l-17.0269,4.126V65.781l17.0271,4.1253c1.3501,0.3281,2.6624-0.6963,2.6624-2.0943
			V47.9824C110.382,46.5875,109.0736,45.5591,107.7194,45.8882z"/>
		<path fill="#ffffff" d="M29.4191,70.6469c0,2.3696,2.3972,4.6973,5.344,4.6973H80.849c2.9465,0,5.3435-2.4277,5.3435-4.7973
			V46.4927c6.8818-2.9217,11.7097-9.742,11.7097-17.6895c0-10.6079-8.6006-19.208-19.2075-19.208
			c-5.5374,0-10.5232,2.3457-14.0283,6.0938c-0.0183,0.0188-0.0374,0.0351-0.0557,0.0547
			c-4.1662,4.4262-4.2502,6.4755-6.7029,6.4755c-2.3906,0-2.6616-1.927-6.4052-6.1435c-0.0828-0.0935-0.1651-0.187-0.2495-0.2788
			c-0.0162-0.0178-0.0313-0.0352-0.0477-0.0532c-0.0349-0.0386-0.0708-0.0726-0.1062-0.1082
			c-3.5026-3.7166-8.467-6.0403-13.9765-6.0403c-10.6096,0-19.2078,8.6001-19.2078,19.208c0,7.8677,4.732,14.6275,11.5042,17.5969
			v3.9686h-5.0252c-0.3354-1.5423-1.7043-2.6968-3.3479-2.6968c-1.893,0-3.428,1.5346-3.428,3.4302v9.2641
			c0,1.8916,1.535,3.4282,3.428,3.4282c1.6436,0,3.0127-1.156,3.3482-2.6963h5.0249V70.6469z"/>
	</g>
</g>
</svg>
