<?xml version="1.0" encoding="utf-8"?>

<svg version="1.2" baseProfile="tiny" xmlns="http://www.w3.org/2000/svg" xmlns:xlink="http://www.w3.org/1999/xlink" x="0px"
	 y="0px" width="64px" height="64px" viewBox="0 0 64 64" xml:space="preserve">

<g id="Production">
	<g>
		<circle fill="#ffffff" cx="32" cy="32" r="3"/>
		<path fill="#ffffff" d="M50.9493,31C50.4419,21.3226,42.6774,13.5581,33,13.0507V6c-2.9375,0,0.9375,0-2,0v7.0507
			C21.3226,13.5581,13.5581,21.3226,13.0507,31H6c0,2.9375,0-0.9375,0,2h7.0507C13.5581,42.6774,21.3226,50.4419,31,50.9493V58
			c2.9375,0-0.9375,0,2,0v-7.0507C42.6774,50.4419,50.4419,42.6774,50.9493,33H58c0-2.9375,0,0.9375,0-2H50.9493z M32,49
			c-9.374,0-17-7.626-17-17s7.626-17,17-17s17,7.626,17,17S41.374,49,32,49z"/>
	</g>
</g>
</svg>
