<?xml version="1.0" encoding="utf-8"?>
<!-- Generator: Adobe Illustrator 18.1.1, SVG Export Plug-In . SVG Version: 6.00 Build 0)  -->
<svg version="1.2" baseProfile="tiny" xmlns="http://www.w3.org/2000/svg" xmlns:xlink="http://www.w3.org/1999/xlink" x="0px"
	 y="0px" width="128px" height="128px" viewBox="0 0 128 128" xml:space="preserve">
<g id="_x31_28px_boxes">
	<rect fill="none" width="128" height="128"/>
</g>
<g id="Production">
	<g>
		<rect x="76.5663" y="70.3794" fill="#ffffff" width="11.0232" height="7.5753"/>
		<rect x="76.5663" y="47.0805" fill="#ffffff" width="11.0232" height="7.0658"/>
		<rect x="76.5663" y="58.7298" fill="#ffffff" width="11.0232" height="7.0661"/>
		<path fill="#ffffff" d="M24.1005,77.9875H71.983V35.443H24.1005c-10.2453,0-18.5804,9.5429-18.5804,21.2727
			C5.5201,68.4449,13.8552,77.9875,24.1005,77.9875z M29.2759,59.7588c0.3707-4.0069,2.8935-6.2017,5.3679-9.7384
			c1.5223-2.1734,2.8297-4.3425,3.4845-5.5771c0.0006-0.0014,0.0011-0.0025,0.0018-0.0035c0.0015-0.0023,0.002-0.0039,0.002-0.0039
			c0.0034-0.0053-0.0015,0.0016,0.0146-0.0249c0.3256-0.5324,1.1653-0.534,1.4959-0.0106c0.0155,0.0228,0.0113,0.018,0.015,0.0233
			c0.0013,0.0024,0.0018,0.0035,0.0023,0.0044c0.001,0.0014,0.0012,0.0025,0.0012,0.0025c0.001,0.0019,0.0014,0.0025,0.002,0.003
			c0.0007,0.0019,0.0017,0.0039,0.0033,0.0058c0.0023,0.0048,0.0062,0.0116,0.0111,0.021c0.0099,0.0186,0.0249,0.0459,0.0449,0.0816
			c0.7758,1.4045,2.0484,3.4806,3.4326,5.4823c2.4571,3.5544,4.994,5.7285,5.3654,9.734c0.4765,5.15-3.8291,9.662-9.6204,9.662
			h-0.0039C33.0321,69.4193,28.7906,64.8252,29.2759,59.7588z"/>
		<path fill="#ffffff" d="M92.1727,77.9875h11.7276c10.2447,0,18.5796-9.5426,18.5796-21.2718
			c0-11.7298-8.3349-21.2727-18.5796-21.2727H92.1727V77.9875z"/>
		<rect x="76.5663" y="35.443" fill="#ffffff" width="11.0232" height="7.0545"/>
		<path fill="#ffffff" d="M109.5691,83.1996H18.4309c-5.5205,0-9.9962,4.4757-9.9962,9.9962c0,5.521,4.4757,9.9964,9.9962,9.9964
			c3.4772,0,6.5386-1.7763,8.3295-4.4702h5.7418c1.7909,2.6939,4.8519,4.4702,8.3291,4.4702c5.521,0,9.9966-4.4754,9.9966-9.9964
			c0-1.2813-0.2438-2.505-0.683-3.631h26.5796c-0.4395,1.126-0.6831,2.3497-0.6831,3.631c0,5.521,4.4757,9.9964,9.9966,9.9964
			c3.477,0,6.5385-1.7763,8.3293-4.4702h6.8726c1.791,2.6939,4.8523,4.4702,8.3292,4.4702c5.5209,0,9.9965-4.4754,9.9965-9.9964
			C119.5656,87.6753,115.09,83.1996,109.5691,83.1996z"/>
		<path fill="#ffffff" d="M74.1311,30.9187h15.9707c1.6776,0,3.0555-1.3702,3.0555-3.0556c0-1.6875-1.368-3.0553-3.0555-3.0553
			H74.1311c-1.6875,0-3.0555,1.3678-3.0555,3.0553C71.0756,29.55,72.4457,30.9187,74.1311,30.9187z"/>
	</g>
</g>
</svg>
