<?xml version="1.0" encoding="utf-8"?>

<svg version="1.2" baseProfile="tiny" xmlns="http://www.w3.org/2000/svg" xmlns:xlink="http://www.w3.org/1999/xlink" x="0px"
	 y="0px" width="128px" height="128px" viewBox="0 0 128 128" xml:space="preserve">
<g id="_x31_28px_boxes">
	<rect fill="none" width="128" height="128"/>
</g>
<g id="Production">
	<g>
		<path fill="#ffffff" d="M104.8073,39.8029L85.6752,20.2084c-1.2737-1.3042-3.3626-1.3286-4.6675-0.0556
			c-1.3035,1.2734-1.3286,3.3623-0.0552,4.6665L91.88,36.0109c-0.0914,0.5567-0.0559,11.158-0.0559,11.7222
			c0,1.1333,0.4695,2.2214,1.2935,2.9995l5.341,5.0425v27.9965c0.0066,4.0329-1.6581,4.9244-4.1382,4.9244
			c-3.5259-0.0078-4.9485-2.53-4.925-4.7937V65.7797c0.0192-7.586-5.0948-13.3412-11.9055-16.302V33.2753
			c-0.002-5.4514-4.417-9.8652-9.8679-9.8677H37.8873c-5.4509,0.0025-9.8659,4.4163-9.8679,9.8677v66.8113h-6.4531v8.6995h62.3769
			v-8.6995h-6.4533V58.6305c2.4396,1.8376,3.9172,4.1204,3.9311,7.1492v18.1226c0.006,6.5482,4.7781,12.7693,12.8203,12.7693
			c0.0264,0,0.0528,0,0.0791-0.0003c7.3254,0.0084,12.0873-4.8379,12.1133-12.8997V43.121
			C106.4337,41.6761,105.7835,40.8015,104.8073,39.8029z M70.203,59.2892c0,1.4231-1.1584,2.5811-2.581,2.5811H37.8881
			c-1.4241,0-2.5821-1.158-2.5821-2.5811V33.276c0-1.4233,1.158-2.5813,2.5821-2.5813H67.622c1.4226,0,2.581,1.158,2.581,2.5813
			V59.2892z"/>
		<path fill="#ffffff" d="M45.6469,40.2111h-3.7852c-0.4142,0-0.75,0.3358-0.75,0.75v6.2212c0,0.4142,0.3358,0.75,0.75,0.75h3.7852
			c0.4141,0,0.75-0.3358,0.75-0.75v-6.2212C46.3969,40.5469,46.061,40.2111,45.6469,40.2111z"/>
		<path fill="#ffffff" d="M54.4562,40.2111H50.671c-0.4142,0-0.75,0.3358-0.75,0.75v6.2212c0,0.4142,0.3358,0.75,0.75,0.75h3.7852
			c0.4142,0,0.75-0.3358,0.75-0.75v-6.2212C55.2062,40.5469,54.8704,40.2111,54.4562,40.2111z"/>
		<path fill="#ffffff" d="M63.2655,40.2111h-3.7851c-0.4142,0-0.75,0.3358-0.75,0.75v6.2212c0,0.4142,0.3358,0.75,0.75,0.75h3.7851
			c0.4142,0,0.75-0.3358,0.75-0.75v-6.2212C64.0155,40.5469,63.6797,40.2111,63.2655,40.2111z"/>
	</g>
</g>
</svg>
