<?xml version="1.0" encoding="utf-8"?>
<!-- Generator: Adobe Illustrator 18.1.1, SVG Export Plug-In . SVG Version: 6.00 Build 0)  -->
<svg version="1.2" baseProfile="tiny" xmlns="http://www.w3.org/2000/svg" xmlns:xlink="http://www.w3.org/1999/xlink" x="0px"
	 y="0px" width="128px" height="128px" viewBox="0 0 128 128" xml:space="preserve">
<g id="_x31_28px_boxes">
	<rect fill="none" width="128" height="128"/>
</g>
<g id="Production">
	<g>
		<path fill="#ffffff" d="M58.1174,59.5899l-1.6392,6.1168c-0.2519,0.9404,0.3062,1.907,1.2465,2.1591
			c0.3682,0.0986,5.6835,1.5621,6.0616,1.5621c0.7962,0,1.4957-0.5344,1.7028-1.3065l1.4556-5.4319l2.6227,4.5431
			c0.492,0.8521,1.5742,1.1272,2.408,0.6452l5.0257-2.9016c0.8433-0.4866,1.1323-1.5649,0.6453-2.4079l-2.6227-4.5428
			c0.3684,0.0987,5.5093,1.5154,5.8875,1.5154c0.7948,0,1.4955-0.5326,1.7028-1.3066l1.5019-5.6056
			c0.2519-0.9403-0.3062-1.907-1.2465-2.159l-6.1169-1.6389L58.1174,59.5899z"/>
		<path fill="#ffffff" d="M65.7932,86.0185l30.024-17.3345c3.4916-2.0161,0.4456-7.304-3.0515-5.2856L62.7416,80.7328
			C59.2791,82.7322,62.2718,88.0507,65.7932,86.0185z"/>
		<path fill="#ffffff" d="M103.9428,89.1708l-3.4414-5.9601c-0.5461-0.946-1.7562-1.27-2.702-0.724L77.103,94.436l-3.4841-6.0355
			c-0.549-0.9509-1.7651-1.2769-2.7161-0.728l-4.2942,2.4789c-3.1852,1.8392-7.0742,0.6122-8.7855-2.3529L45.5036,66.4524
			c-1.7114-2.9647-2.2148-5.6644-1.496-8.0245c1.1708-3.8453,4.9511-5.7072,7.1513-6.9777l2.237,3.8748
			c0.6208,1.0755,1.9529,1.1686,2.7163,0.7279L74.707,45.3173c1.1466-0.6621,1.2655-1.7849,0.7277-2.7163l-13.825-23.9453
			c-0.5492-0.9511-1.7655-1.2773-2.7163-0.7278l-3.5479,2.0483l-3.4266-5.9349l1.7969-1.0375
			c3.64-2.1014,0.4646-7.6149-3.1814-5.5105l-15.0923,8.7135c-3.5798,2.0668-0.5686,7.6748,3.1814,5.5105l1.797-1.0375l3.4265,5.935
			l-3.548,2.0485c-0.9511,0.549-1.2769,1.7651-0.7278,2.7161l1.6456,2.8503c-7.6505,4.4174-13.5327,9.5418-16.2313,18.4062
			c-2.3536,7.7294-1.2135,15.9444,3.297,23.7568L40.6019,97.739c3.4162,5.9179,8.8742,10.1974,15.4136,12.1031H39.0031
			c-7.4561,0-7.4561,11.1352,0,11.1352h54.6815c7.3074,0,7.3074-11.1352,0-11.1352H70.7807
			c2.0021-0.5889,32.4382-17.969,32.4382-17.969C104.1652,91.3268,104.4894,90.1169,103.9428,89.1708z"/>
	</g>
</g>
</svg>
