<?xml version="1.0" encoding="utf-8"?>
<!-- Generator: Adobe Illustrator 18.1.1, SVG Export Plug-In . SVG Version: 6.00 Build 0)  -->
<svg version="1.2" baseProfile="tiny" xmlns="http://www.w3.org/2000/svg" xmlns:xlink="http://www.w3.org/1999/xlink" x="0px"
	 y="0px" width="128px" height="128px" viewBox="0 0 128 128" xml:space="preserve">
<g id="box">
	<rect fill="none" width="128" height="128"/>
</g>
<g id="Production">
	<g>
		<path fill="#ffffff" d="M72.9854,81.95c-5.2067,7.1576-14.1395,10.1983-23.3331,10.664
			c-4.5932,4.6019-7.153,7.7561-19.0092,11.5955C34.0297,98.0416,35,94.75,36.1665,90.3523
			c-7.7315-3.7247-14.5186-8.9303-14.5186-17.8291c0-5.8108,3.3711-11.052,8.7474-14.7219
			c-0.7784-1.9676-1.3316-4.0005-1.6526-6.0806c-7.6211,4.5517-13.1343,11.8636-13.1343,20.8025
			c0,8.4394,5.0288,16.1677,13.5796,21.0703c-1.3005,3.7161-3.2178,6.3698-4.4119,8.8005
			c-2.1075,4.2868,1.6957,9.5004,7.1526,7.7464c12.165-3.9017,16.0774-7.3256,20.3716-11.6299
			c11.6019-0.9103,23.2091-6.8393,27.9268-16.9812c-0.0303-0.0195-0.0621-0.0383-0.0923-0.0579
			C77.7922,81.7778,75.4028,81.9368,72.9854,81.95z"/>
		<path fill="#ffffff" d="M112.3916,47.45c0-16.9214-18.1671-29.9756-39.7236-29.9756c-21.5477,0-39.7234,13.0505-39.7234,29.9756
			c0,8.1379,4.2221,15.7436,11.8894,21.415c10.2065,7.5505,24.0467,9.8761,36.3127,7.8806
			c5.5257,3.7511,12.0307,6.713,19.4449,8.4949c2.0625,0.4977,3.5979-1.8641,2.3493-3.5498
			c-0.7423-1.0035-3.3858-5.1179-5.3201-10.8902C106.1199,65.6223,112.3916,57.4355,112.3916,47.45z"/>
	</g>
</g>
</svg>
