<?xml version="1.0" encoding="utf-8"?>
<!-- Generator: Adobe Illustrator 18.1.1, SVG Export Plug-In . SVG Version: 6.00 Build 0)  -->
<svg version="1.2" baseProfile="tiny" xmlns="http://www.w3.org/2000/svg" xmlns:xlink="http://www.w3.org/1999/xlink" x="0px"
	 y="0px" width="128px" height="128px" viewBox="0 0 128 128" xml:space="preserve">
<g id="box">
	<rect fill="none" width="128" height="128"/>
</g>
<g id="Production">
	<g>
		<path fill="#ffffff" d="M20.0952,40.6829H34.814c1.6358,0,3.0324-1.3162,3.0324-3.0349v-4.1072
			c0-1.6795-1.3608-3.0347-3.0324-3.0347H20.0952c-1.7287,0-3.0347,1.4198-3.0347,3.0347v4.1072
			C17.0605,39.2996,18.4133,40.6829,20.0952,40.6829z"/>
		<path fill="#ffffff" d="M97.76,64.5884c0,0-9.7974,0-21.2991,0c-3.7907,0-7.188-1.4978-10.4243-3.4895
			c-4.6787-2.8887-9.0141-6.8135-13.688-8.8464c-1.8967-0.8289-3.8466-1.3521-5.9016-1.3521h-0.1677v-2.9495
			c0-1.5319-1.2592-3.0273-3.0322-3.0273h-23.001c-1.6746,0-3.0325,1.3671-3.0325,3.0273v52.1809
			c0,1.6539,1.3586,3.0276,3.0325,3.0276c10.1746,0,79.6534,0,90.6934,0V77.7703C110.9395,70.4876,105.0378,64.5884,97.76,64.5884z
			 M40.2146,58.2634c-4.5457,0-7.7205,3.5486-7.7205,7.5625v13.4959c0,4.0088,3.1695,7.5698,7.7205,7.5698v10.2102H23.2805v-46.126
			h16.9341V58.2634z M91.9019,88.9365h-28.168c-3.4873,0-6.3176-2.8208-6.3176-6.3127c0-3.4893,2.8303-6.3125,6.3176-6.3125h28.168
			c3.4846,0,6.3103,2.8232,6.3103,6.3125C98.2122,86.1157,95.3865,88.9365,91.9019,88.9365z"/>
		<path fill="#ffffff" d="M88.4709,41.7869c9.7244-5.6441,13.6829-13.1602,13.773-13.3328c1.115-2.1414-2.5447-3.6206-4.4839-3.6135
			c-4.6741,0.3086-7.0107,4.4158-12.6521,7.1636c-7.9175,4.1118-16.8516,5.0334-23.5288,9.5344
			c-3.2461,2.2349-5.5049,4.7151-7.0713,6.9619c4.6225,2.1089,8.7752,5.7002,12.793,8.292
			C71.0991,47.5984,79.9917,46.655,88.4709,41.7869z"/>
	</g>
</g>
</svg>
