<?xml version="1.0" encoding="utf-8"?>
<!-- Generator: Adobe Illustrator 18.1.1, SVG Export Plug-In . SVG Version: 6.00 Build 0)  -->
<svg version="1.2" baseProfile="tiny" xmlns="http://www.w3.org/2000/svg" xmlns:xlink="http://www.w3.org/1999/xlink" x="0px"
	 y="0px" width="128px" height="128px" viewBox="0 0 128 128" xml:space="preserve">
<g id="box">
	<rect fill="none" width="128" height="128"/>
</g>
<g id="Production">
	<g>
		<path fill="#ffffff" d="M108.0511,18.1782c-0.8413-1.8093-2.6552-2.9665-4.6503-2.9665H62.1183
			c-2.832,0-5.1279,2.2959-5.1279,5.1279v68.5947c0,2.8321,2.2959,5.128,5.1279,5.128h41.2825c2.0459,0,3.896-1.2161,4.7075-3.094
			c0.2412-0.5589,5.9126-13.9475,5.9126-36.7788C114.0209,31.2859,108.2948,18.7026,108.0511,18.1782z M69.5448,27.2913h29.353
			v14.4702h-29.353V27.2913z M72.3824,82.842c-2.1228,0-3.8435-1.7202-3.8435-3.8432c0-2.1226,1.7207-3.8438,3.8435-3.8438
			s3.8436,1.7212,3.8436,3.8438C76.226,81.1218,74.5052,82.842,72.3824,82.842z M72.3824,70.9561
			c-2.1228,0-3.8435-1.7207-3.8435-3.844c0-2.1226,1.7207-3.8433,3.8435-3.8433s3.8436,1.7207,3.8436,3.8433
			C76.226,69.2354,74.5052,70.9561,72.3824,70.9561z M72.3824,59.0693c-2.1228,0-3.8435-1.7207-3.8435-3.8435
			c0-2.123,1.7207-3.8432,3.8435-3.8432s3.8436,1.7202,3.8436,3.8432C76.226,57.3486,74.5052,59.0693,72.3824,59.0693z
			 M83.9843,82.842c-2.1231,0-3.8438-1.7202-3.8438-3.8432c0-2.1226,1.7207-3.8438,3.8438-3.8438
			c2.123,0,3.8437,1.7212,3.8437,3.8438C87.828,81.1218,86.1073,82.842,83.9843,82.842z M83.9843,70.9561
			c-2.1231,0-3.8438-1.7207-3.8438-3.844c0-2.1226,1.7207-3.8433,3.8438-3.8433c2.123,0,3.8437,1.7207,3.8437,3.8433
			C87.828,69.2354,86.1073,70.9561,83.9843,70.9561z M83.9843,59.0693c-2.1231,0-3.8438-1.7207-3.8438-3.8435
			c0-2.123,1.7207-3.8432,3.8438-3.8432c2.123,0,3.8437,1.7202,3.8437,3.8432C87.828,57.3486,86.1073,59.0693,83.9843,59.0693z
			 M95.5858,82.842c-2.1225,0-3.8432-1.7202-3.8432-3.8432c0-2.1226,1.7207-3.8438,3.8432-3.8438
			c2.1231,0,3.8438,1.7212,3.8438,3.8438C99.4296,81.1218,97.7089,82.842,95.5858,82.842z M95.5858,70.9561
			c-2.1225,0-3.8432-1.7207-3.8432-3.844c0-2.1226,1.7207-3.8433,3.8432-3.8433c2.1231,0,3.8438,1.7207,3.8438,3.8433
			C99.4296,69.2354,97.7089,70.9561,95.5858,70.9561z M95.5858,59.0693c-2.1225,0-3.8432-1.7207-3.8432-3.8435
			c0-2.123,1.7207-3.8432,3.8432-3.8432c2.1231,0,3.8438,1.7202,3.8438,3.8432C99.4296,57.3486,97.7089,59.0693,95.5858,59.0693z"/>
		<path fill="#ffffff" d="M46.4738,15.2119h-15.595c-2.832,0-5.1279,2.2957-5.1279,5.1277c0,7.1783,0,61.1255,0,68.5947
			c0,2.8321,2.2959,5.128,5.1279,5.128h4.0005v4.5v0.1508c0,3.7635-3.0618,6.8252-6.825,6.8252
			c-3.7634,0-6.8252-3.0617-6.8252-6.8252l0.0218-27.2819c-4.3321,2.4025-7.2718,7.0217-7.2718,12.3164v14.9655
			c0,7.761,6.314,14.0752,14.0752,14.0752c7.761,0,14.075-6.3142,14.075-14.0752v-0.1508v-4.5h4.3445
			c2.832,0,5.1276-2.2959,5.1276-5.128V20.3396C51.6014,17.5076,49.3058,15.2119,46.4738,15.2119z"/>
	</g>
</g>
</svg>
