<?xml version="1.0" encoding="utf-8"?>
<!-- Generator: Adobe Illustrator 18.1.1, SVG Export Plug-In . SVG Version: 6.00 Build 0)  -->
<svg version="1.2" baseProfile="tiny" xmlns="http://www.w3.org/2000/svg" xmlns:xlink="http://www.w3.org/1999/xlink" x="0px"
	 y="0px" width="128px" height="128px" viewBox="0 0 128 128" xml:space="preserve">
<g id="box">
	<rect fill="none" width="128" height="128"/>
</g>
<g id="Production">
	<g>
		<path fill="#ffffff" d="M44.0076,59.2714c1.2209,1.003,2.4409,1.9231,3.6154,2.7573c4.8858-8.0659,15.1893-10.9292,23.5149-6.6013
			c1.0562-7.7483,2.2217-18.1242,2.2217-26.1855c0-20.6057-23.0615-14.5095-31.7073-2.6939
			C32.4998,39.0568,34.3997,51.3796,44.0076,59.2714z"/>
		<path fill="#ffffff" d="M45.0498,72.0964c-7.2383,2.9592-16.8076,7.1377-23.7893,11.1689
			c-17.8452,10.3032-1.0354,27.2268,13.5203,28.8059c15.4089,1.6726,25.1306-6.1342,27.1618-18.4011
			c0.2578-1.5561,0.4446-3.0706,0.5794-4.5024C53.2732,88.977,45.4885,81.6616,45.0498,72.0964z"/>
		<path fill="#ffffff" d="M112.2822,75.2609c-6.2563-14.1811-17.8784-18.6965-29.5166-14.3225
			c-1.476,0.5549-2.8806,1.1499-4.188,1.7493c4.5618,8.3266,1.8184,18.6521-6.0473,23.6694
			c6.1816,4.7883,14.5844,10.9851,21.5654,15.0156C111.9409,111.6755,118.1921,88.6559,112.2822,75.2609z"/>
		<path fill="#ffffff" d="M69.1052,60.5554c-5.9309-3.4244-13.5139-1.3924-16.9382,4.5385
			c-3.4241,5.9302-1.3923,13.5135,4.5388,16.938c5.9304,3.4236,13.5142,1.3916,16.937-4.539
			C77.0674,71.562,75.0361,63.9792,69.1052,60.5554z M68.2798,66.6059c-4.822-2.1184-11.8123,1.7674-11.5584,8.4373
			c0.0484,1.2436-2.5417-2.6368-0.9287-6.6116c1.5843-3.9907,6.1372-5.7297,9.7708-4.2146
			C67.7546,65.0851,69.2759,67.0413,68.2798,66.6059z"/>
	</g>
</g>
</svg>
