<?xml version="1.0" encoding="utf-8"?>

<svg version="1.2" baseProfile="tiny" xmlns="http://www.w3.org/2000/svg" xmlns:xlink="http://www.w3.org/1999/xlink" x="0px"
	 y="0px" width="64px" height="64px" viewBox="0 0 64 64" xml:space="preserve">

<g id="Production">
	<g>
		<path fill="#ffffff" d="M34.7162,42.0118l-7.3124,7.3124c-3.5179,3.5169-9.2097,3.5173-12.728,0
			c-3.5088-3.5093-3.5088-9.2188,0-12.728c8.5005-8.5005,8.9125-9.3649,11.7003-10.2205
			c5.8721-1.8017,11.8808,2.6714,11.6325,8.9526c0.6904-0.3322,1.3398-0.7767,1.9114-1.3483l0.0552-0.0552
			c-0.5892-6.225-6.2464-10.7348-12.5358-9.8223c-4.6278,0.6715-5.9291,2.8311-14.1776,11.0797
			c-4.2891,4.2886-4.2891,11.2676,0,15.5562c4.2986,4.2986,11.2568,4.2994,15.5562,0c8.2916-8.2916,8.1474-8.0708,8.8817-9.0118
			C36.548,41.9722,35.6733,42.0305,34.7162,42.0118z"/>
		<path fill="#ffffff" d="M50.7383,13.2617c-4.2986-4.2986-11.2568-4.2994-15.5562,0c-8.2875,8.2875-8.1467,8.07-8.881,9.0109
			c0.9826-0.2096,1.9828-0.3045,2.9833-0.285l7.3118-7.3118c3.5179-3.5169,9.2097-3.5173,12.728,0
			c3.5088,3.5093,3.5088,9.2188,0,12.728c-4.6678,4.6678-3.3242,3.3242-7.9902,7.9902c-3.2933,3.2942-8.567,3.4534-12.0511,0.6116
			c-2.2389-1.8284-3.4018-4.5401-3.2915-7.3335c-0.7907,0.3803-1.3987,0.8352-1.9665,1.403
			c0.8692,9.1835,12.1108,13.3453,18.7231,6.7329c4.6658-4.6658,3.3229-3.3229,7.9902-7.9902
			C55.0273,24.5293,55.0273,17.5503,50.7383,13.2617z"/>
	</g>
</g>
</svg>
