<?xml version="1.0" encoding="utf-8"?>
<!-- Generator: Adobe Illustrator 18.1.1, SVG Export Plug-In . SVG Version: 6.00 Build 0)  -->
<svg version="1.2" baseProfile="tiny" xmlns="http://www.w3.org/2000/svg" xmlns:xlink="http://www.w3.org/1999/xlink" x="0px"
	 y="0px" width="128px" height="128px" viewBox="0 0 128 128" xml:space="preserve">
<g id="_x31_28px_boxes">
	<rect fill="none" width="128" height="128"/>
</g>
<g id="Production">
	<g>
		<path fill="#ffffff" d="M56.6029,82.9817c0.1997,0,0.3999,0.0061,0.5999,0.0171L36.3304,55.9656l26.201-11.9626
			c-4.2827-7.4182-5.1219-8.7688-6.0779-10.9666l-41.7061,19.042c-3.1401,1.4338-4.5232,5.1413-3.0898,8.2815
			c1.4341,3.1404,5.1416,4.5227,8.2812,3.0896l4.7156-2.1528l21.895,28.3576C48.2245,85.648,52.1307,82.9817,56.6029,82.9817z"/>
		<path fill="#ffffff" d="M94.889,102.4778H65.1683l-2.31-10.0217c-0.5371-2.3111-2.3413-4.2403-4.8091-4.8091
			c-3.4517-0.7957-6.8948,1.3574-7.6904,4.8091l-2.3099,10.0217h-5.217c-4.0205,0-7.2915,3.271-7.2915,7.2915v3.3655
			c0,1.0356,0.8396,1.875,1.875,1.875h62.8901c1.0357,0,1.875-0.8394,1.875-1.875v-3.3655
			C102.1805,105.7488,98.9095,102.4778,94.889,102.4778z"/>
		<path fill="#ffffff" d="M116.3885,41.0547c-4.7297-8.1922-14.4335-11.622-24.0349-10.5408l-5.4069-9.3654
			c-3.6788-6.3716-7.7378-11.74-19.1734-5.1377c-11.4355,6.6023-9.0071,12.4712-5.1372,19.1735l5.4087,9.3677
			c-5.687,7.7158-7.7017,17.7511-2.8904,26.083c1.0698,1.853,3.439,2.4883,5.2932,1.4182l10.8059-6.2387
			c4.5965,2.3586,10.2571,2.4118,15.0642-0.3636c4.8072-2.7756,7.5916-7.7043,7.847-12.8642l10.8054-6.2385
			C116.8236,45.2781,117.4586,42.9082,116.3885,41.0547z"/>
	</g>
</g>
</svg>
