<?xml version="1.0" encoding="utf-8"?>

<svg version="1.2" baseProfile="tiny" xmlns="http://www.w3.org/2000/svg" xmlns:xlink="http://www.w3.org/1999/xlink" x="0px"
	 y="0px" width="128px" height="128px" viewBox="0 0 128 128" xml:space="preserve">
<g id="_x31_28px_boxes">
	<rect fill="none" width="128" height="128"/>
</g>
<g id="Production">
	<g>
		<path fill="#ffffff" d="M108.2825,26.522h-88.565c-1.4582,0-2.6404,1.1821-2.6404,2.6403c0,14.2113,0,33.1891,0,47.3775
			c0,1.4582,1.1822,2.6404,2.6404,2.6404h41.5528l0.1806-0.21c2.5317-2.9398,1.5345-1.7818,4.3667-5.0708H22.3579V40.7939h83.2842
			v33.1055H95.6177c-0.814,1.7402-1.9334,3.5301-3.3802,5.2808h16.045c1.4582,0,2.6403-1.1822,2.6403-2.6404
			c0-14.1881,0-33.1662,0-47.3775C110.9228,27.7041,109.7407,26.522,108.2825,26.522z"/>
		<rect x="29.0139" y="47.6982" fill="#ffffff" width="38.6067" height="3.9605"/>
		<rect x="81.1775" y="47.6982" fill="#ffffff" width="17.7754" height="3.9605"/>
		<rect x="29.0139" y="56.7583" fill="#ffffff" width="38.6067" height="3.9604"/>
		<path fill="#ffffff" d="M56.332,87.6601c1.9575-2.2751-1.4689-5.1759-3.4028-2.9272L41.1143,98.466
			c-1.9807,2.302,1.4968,5.1436,3.4028,2.9273L56.332,87.6601z"/>
		<path fill="#ffffff" d="M46.27,103.4787l0.0003,0.0003c-0.0025,0.0027-0.0051,0.0054-0.0078,0.008
			c-2.6143,3.0405-2.2678,7.6226,0.769,10.2354c3.2065,2.7578,8.1034,2.2085,10.6055-1.2398
			c0.7387-0.8578,14.5855-16.9358,15.2729-17.7338l-10.9851-9.4497C61.9248,85.2991,46.4159,103.3093,46.27,103.4787z"/>
		<path fill="#ffffff" d="M92.302,63.7546l2.3938-2.8003c1.5195-1.7736-1.1569-4.111-2.6992-2.3049l-2.3972,2.8081
			c-3.7317-1.1349-8.8341,1.9475-11.9087,5.5334c-0.396,0.4598-12.8169,14.8833-13.2144,15.345l10.9851,9.45
			C89.9669,74.9463,89.3599,75.775,90.5105,73.8994C92.2721,71.0277,93.7779,66.7435,92.302,63.7546z"/>
	</g>
</g>
</svg>
