<?xml version="1.0" encoding="utf-8"?>
<!-- Generator: Adobe Illustrator 18.1.1, SVG Export Plug-In . SVG Version: 6.00 Build 0)  -->
<svg version="1.2" baseProfile="tiny" xmlns="http://www.w3.org/2000/svg" xmlns:xlink="http://www.w3.org/1999/xlink" x="0px"
	 y="0px" width="128px" height="128px" viewBox="0 0 128 128" xml:space="preserve">
<g id="_x31_28px_boxes">
	<rect fill="none" width="128" height="128"/>
</g>
<g id="Production">
	<g>
		<path fill="#ffffff" d="M43.4614,88.4558c8.9385,0,16.1856-10.8672,16.1856-21.916c0-11.0479-7.2471-18.0928-16.1856-18.0928
			c-8.9394,0-16.1865,7.0449-16.1865,18.0928C27.2749,77.5886,34.522,88.4558,43.4614,88.4558z"/>
		<path fill="#ffffff" d="M55.9956,90.1055c-1.5117,4.8588-4.0864,11.5039-7.6372,14.9541
			c-0.7183-1.8736-1.541-3.4668-2.3877-4.5879c1.2051-1.6385,2.1626-3.9544,2.1626-5.2505c0-2.146-1.0312-3.8877-4.6723-3.8877
			c-3.6407,0-4.6724,1.7417-4.6724,3.8877c0,1.2959,0.957,3.6118,2.1616,5.25c-0.833,1.1047-1.6445,2.667-2.3555,4.5058
			c-3.5131-3.4687-6.0893-10.0373-7.6162-14.8759c-8.3377,1.6255-20.9487,6.4428-20.9487,14.8442v4.9399h66.8633v-4.9399
			C76.8931,96.5492,64.311,91.7451,55.9956,90.1055z"/>
		<path fill="#ffffff" d="M105.1338,22.5669H59.2485c-8.5224,0-15.4555,6.9358-15.4555,15.4617v5.6284
			c1.9096,0.0058,3.7656,0.2668,5.5361,0.7588v-6.3872c0-5.4788,4.4404-9.9256,9.9194-9.9256h45.8853
			c5.4814,0,9.9214,4.4468,9.9214,9.9256v22.853c0,5.479-4.44,9.9194-9.9214,9.9194H91.6846L76.7461,86.0737l2.7993-15.2727H64.2901
			c-0.2696,1.8814-0.7061,3.7398-1.3023,5.5361h9.915l-1.602,8.7386c-0.9815,5.3528,5.5921,8.7638,9.4033,4.8691l13.3101-13.6077
			h11.1196c8.5234,0,15.458-6.9333,15.458-15.4555v-22.853C120.5918,29.5027,113.6572,22.5669,105.1338,22.5669z"/>
		<path fill="#ffffff" d="M81.0452,56.824c-2.5579,0-4.8905-0.7779-6.5833-1.5557l-1.2412,4.9136
			c1.4672,0.707,4.0252,1.3784,6.6583,1.4848v2.982h4.2885v-3.3003c8.1236-1.3365,10.492-10.3857,0.5267-13.4326
			c-3.1601-1.0606-4.4389-1.732-4.4389-2.6158c0-2.4684,5.6284-1.4472,8.5767-0.3181l1.2038-4.7014
			c-1.3167-0.5303-3.0846-1.0249-5.6802-1.1309V36.258h-4.2884v3.1741c-4.2886,0.8132-6.6584,3.3582-6.6584,6.575
			c0,7.1112,10.8714,5.9551,10.8714,9.1906C84.2802,56.3288,82.9636,56.824,81.0452,56.824z"/>
	</g>
</g>
</svg>
