<?xml version="1.0" encoding="utf-8"?>

<svg version="1.2" baseProfile="tiny" xmlns="http://www.w3.org/2000/svg" xmlns:xlink="http://www.w3.org/1999/xlink" x="0px"
	 y="0px" width="128px" height="128px" viewBox="0 0 128 128" xml:space="preserve">
<g id="_x31_28px_boxes">
	<rect fill="none" width="128" height="128"/>
</g>
<g id="Production">
	<path fill="#ffffff" d="M108,44H33c-1.1045,0-2,0.8955-2,2v46.02c0,1.0935-0.8865,1.98-1.98,1.98h-0.04
		C27.8865,94,27,93.1135,27,92.02V42c0-1.1045,0.8955-2,2-2h73v-6c0-1.1045-0.8955-2-2-2H51.9092l-4.3406-7.9578
		C47.218,23.3998,46.5447,23,45.8127,23H21c-1.1045,0-2,0.8955-2,2v67c0,5.5228,4.4771,10,10,10h71c5.5229,0,10-4.4772,10-10V46
		C110,44.8955,109.1045,44,108,44z M80,85.9092H57c-4.4182,0-8-3.5818-8-8c0-4.1035,3.0909-7.4807,7.0708-7.9418
		C55.4099,69.1198,55,68.0671,55,66.9092c0-2.7615,2.2385-5,5-5c1.2471,0,2.373,0.4729,3.2489,1.2279
		C64.2734,59.5936,67.5355,57,71.4092,57c4.1543,0,7.607,2.9822,8.3478,6.9214c0.0816-0.0017,0.161-0.0122,0.243-0.0122
		c6.0752,0,11,4.9248,11,11C91,80.9843,86.0752,85.9092,80,85.9092z"/>
</g>
</svg>
