<?xml version="1.0" encoding="utf-8"?>
<!-- Generator: Adobe Illustrator 18.1.1, SVG Export Plug-In . SVG Version: 6.00 Build 0)  -->
<svg version="1.2" baseProfile="tiny" xmlns="http://www.w3.org/2000/svg" xmlns:xlink="http://www.w3.org/1999/xlink" x="0px"
	 y="0px" width="128px" height="128px" viewBox="0 0 128 128" xml:space="preserve">
<g id="_x31_28px_boxes" display="none">
	<rect display="inline" fill="none" width="128" height="128"/>
</g>
<g id="Production">
	<g>
		<path fill="#ffffff" d="M18.542,104.6252h51.4216c2.117,0,3.8331-1.7161,3.8331-3.833V59.5371
			c0-2.117-1.7161-3.8331-3.8331-3.8331H51.1467v10.7431H37.3589V55.704H18.542c-2.1169,0-3.833,1.7161-3.833,3.8331v41.2551
			C14.709,102.9091,16.4251,104.6252,18.542,104.6252z"/>
		<path fill="#ffffff" d="M114.0427,30.8666c0-12.6357-10.2797-22.9156-22.9152-22.9156c-12.6358,0-22.9158,10.2799-22.9158,22.9156
			c0,10.9886,7.7751,20.1939,18.1125,22.4074v48.0907c0,5.593-4.55,10.1433-10.143,10.1433H18.1919c-5.6424,0-5.6501,8.541,0,8.541
			h57.9893c10.3025,0,18.6841-8.3818,18.6841-18.6843V53.4755C105.729,51.6855,114.0427,42.2296,114.0427,30.8666z M91.1275,46.9493
			c-8.8682,0-16.083-7.2146-16.083-16.0827s7.2148-16.0828,16.083-16.0828c8.8679,0,16.0825,7.2147,16.0825,16.0828
			S99.9954,46.9493,91.1275,46.9493z"/>
		<path fill="#ffffff" d="M95.9883,32.1876c0.88-3.2463-1.5749-6.3626-4.8608-6.3626c-2.7847,0-5.0418,2.2572-5.0418,5.0416
			c0,3.0177,2.6541,5.4192,5.7442,4.9871l5.7155,4.7749c1.4528,1.2108,3.4895-0.5791,2.4654-2.1743L95.9883,32.1876z"/>
	</g>
</g>
</svg>
