<?xml version="1.0" encoding="utf-8"?>
<!-- Generator: Adobe Illustrator 18.1.1, SVG Export Plug-In . SVG Version: 6.00 Build 0)  -->
<svg version="1.2" baseProfile="tiny" xmlns="http://www.w3.org/2000/svg" xmlns:xlink="http://www.w3.org/1999/xlink" x="0px"
	 y="0px" width="128px" height="128px" viewBox="0 0 128 128" xml:space="preserve">
<g id="_x31_28px_boxes">
	<rect fill="none" width="128" height="128"/>
</g>
<g id="Production">
	<g>
		<path fill="#ffffff" d="M49.1396,67.094v8.2926h10.6607v-8.526c8.6958,3.5641,18.4741-2.2549,18.4741-10.8051
			c0-3.5616-1.7966-6.9566-4.8376-9.2016c-0.2395-3.5295-1.753-6.816-4.3035-9.3138c-2.7126-2.6563-6.2925-4.1192-10.0806-4.1192
			c-3.1853,0-6.1484,1.0406-8.5548,2.8141c-1.3314-0.7779-2.8753-1.2312-4.5287-1.2312c-5.7436,0-10.133,5.3614-8.738,11.1212
			c-3.5792,2.1191-5.9539,5.7757-5.9539,9.9305C31.2773,64.3403,40.5125,70.1623,49.1396,67.094z"/>
		<path fill="#ffffff" d="M105.4036,22.0326H22.5969c-1.9114,0-3.5268,1.5497-3.5268,3.5293v58.1884
			c0,1.8918,1.5373,3.524,3.5268,3.524h82.8067c1.9627,0,3.5263-1.594,3.5263-3.524V25.5619
			C108.9299,23.5905,107.3215,22.0326,105.4036,22.0326z M101.8792,80.2185H26.1204V29.0884h75.7588V80.2185z"/>
		<path fill="#ffffff" d="M81.7419,99.0287h-5.7983V91.68H52.064v7.3487h-5.7957c-3.8144,0-6.9028,3.0932-6.9028,6.9027
			c0,0.0479,49.279,0.0479,49.279,0C88.6445,102.1219,85.5566,99.0287,81.7419,99.0287z"/>
		<path fill="#ffffff" d="M83.3608,50.4679c0.2085,0.8561,1.3567,1.0481,1.8343,0.2895l1.6299-2.6126l3.799,5.2554
			c0.1551,0.2164,0.3889,0.3625,0.657,0.4054c0.0523,0.0102,0.1062,0.0144,0.1592,0.0144c0.2104,0,0.4194-0.0673,0.592-0.1948
			l1.3928-1.0091c0.2159-0.1606,0.3624-0.3883,0.4058-0.6562c0.0427-0.2682-0.022-0.5362-0.1821-0.7512l-3.7783-5.224l2.9863-0.7695
			c0.8625-0.2236,1.0321-1.3695,0.2764-1.8347L81.575,36.2547c-0.7754-0.4788-1.7308,0.2398-1.5076,1.1037L83.3608,50.4679z"/>
	</g>
</g>
</svg>
