<?xml version="1.0" encoding="utf-8"?>
<!-- Generator: Adobe Illustrator 18.1.1, SVG Export Plug-In . SVG Version: 6.00 Build 0)  -->
<svg version="1.2" baseProfile="tiny" xmlns="http://www.w3.org/2000/svg" xmlns:xlink="http://www.w3.org/1999/xlink" x="0px"
	 y="0px" width="64px" height="64px" viewBox="0 0 64 64" xml:space="preserve">

<g id="Production">
	<g>
		<polygon fill="#ffffff" points="15,23.959 2,28.3553 2,30.4665 15,26.0701 		"/>
		<path fill="#ffffff" d="M56,13H22c-2.7568,0-5,2.2432-5,5v12.8175l2-1.0476V24h40v12c0,1.6543-1.3457,3-3,3
			c-8.3661,0-14.6083,0-25.9329,0l5.1848-4.9492c1.7681-1.6875,1.9497-4.3994,0.4229-6.3076
			c-1.396-1.7451-3.8457-2.2593-5.8247-1.2222l-18.314,9.5933c1.3628,2.6023-0.4351-0.8308,0.9277,1.7715l18.314-9.5933
			c1.1333-0.5938,2.5356-0.2998,3.3354,0.6997c0.874,1.0928,0.77,2.6455-0.2422,3.6123L16.918,48.7871
			C15.4229,50.2139,13.4609,51,11.394,51H2v2h9.394c2.5835,0,5.0356-0.9824,6.9048-2.7666l2.4165-2.3067
			c0.2306,1.6268,1.3278,2.7734,2.6504,3.2296c1.1202,0.3863,2.3172,0.2564,3.3875-0.3995c0.4705,0.651,1.1252,1.1558,1.8997,1.4229
			l0.062,0.0205c1.7422,0.571,3.6108-0.1165,4.5728-1.6636l0.0549-0.0884c0.3811,1.3692,1.5081,2.4523,2.9827,2.712
			c2.0624,0.3634,4.0251-1.0127,4.3867-3.0752L42.3047,41c6.4867,0,7.2339,0,13.6953,0c2.7568,0,5-2.2432,5-5V18
			C61,15.2432,58.7568,13,56,13z M26.4385,46.6436c-0.3525,0.6815-0.4756,1.4412-0.4033,2.1888
			c-1.0299,0.9486-2.6699,0.599-3.2148-0.6795c-0.4275-1.001,0.0454-1.678,0.54-2.751L27.9719,41h1.3879L26.4385,46.6436z
			 M33.3784,46.6036l-1.7891,2.8769c-0.481,0.7734-1.4194,1.1064-2.2798,0.8096l-0.0322-0.0107
			c-1.1008-0.3986-1.6012-1.6754-1.0625-2.7163L31.6118,41h2.1453L33.3784,46.6036z M38.7422,49.7393
			c-0.1703,0.9714-1.0952,1.6236-2.0703,1.4512c-0.9009-0.1587-1.5337-0.9668-1.4722-1.8799L35.7612,41h4.5132L38.7422,49.7393z
			 M19,20v-2c0-1.6543,1.3457-3,3-3h34c1.6543,0,3,1.3457,3,3v2H19z"/>
	</g>
</g>
</svg>
