<?xml version="1.0" encoding="utf-8"?>
<!-- Generator: Adobe Illustrator 18.1.1, SVG Export Plug-In . SVG Version: 6.00 Build 0)  -->
<svg version="1.2" baseProfile="tiny" xmlns="http://www.w3.org/2000/svg" xmlns:xlink="http://www.w3.org/1999/xlink" x="0px"
	 y="0px" width="128px" height="128px" viewBox="0 0 128 128" xml:space="preserve">
<g id="_x31_28px_boxes">
	<rect fill="none" width="128" height="128"/>
</g>
<g id="Production">
	<g>
		<path fill="#ffffff" d="M36.554,88.4151c-8.6492-8.5775-18.8574-26.4109-4.6826-37.0878
			c5.5532-3.8253,13.2575-3.6888,17.5952-3.6888c1.105,0.0532,4.6882-0.4468,1.8965-4.7593c-2.375-5.5832-8.5-14.2082,0.571-25.6438
			c5.9148-6.8562,15.7017-5.7042,18.1419-6.0322c1.1665,0,1.7751-2.2544,0.3488-3.0596L70.417,8.1392
			c-4.9956-2.8105-16.7424-4.4188-25.1113,3.7062c-12.5156,12.1512-4.5676,27.0338-3.7986,28.1913
			c-5.5815-0.845-26.0815,2.03-26.6106,25.1417c0.4822,13.7426,12.9197,26.6936,25.5601,32.05
			c1.1694,0.4826,3.7146-0.8214,1.3237-3.256C41.1719,93.3229,37.6499,89.6612,36.554,88.4151z"/>
		<path fill="#ffffff" d="M49.7759,88.4943c-0.2639-5.8446,1.0064-9.7108,5.6006-13.2916
			c5.1116-3.761,12.2996-7.1474,15.2607-8.6619c7.2879-3.7137,13.0491-7.2512,16.7952-11.8641
			c5.1209-6.385,5.544-14.0806,1.24-21.3622c-0.4736-0.7983-1.418-1.2517-2.3789-1.0549c-1.2124,0.2483-1.9939,1.4325-1.7456,2.645
			l0.0107,0.0525c1.0074,4.9183,1.1629,9.8656-3.3601,14.0859c-2.0229,2.2112-8.3891,5.4948-10.7424,6.6035
			c-12.4993,5.889-17.2139,8.2897-21.46,12.6464c-6.259,6.4592-6.9065,14.991-2.3,21.2429
			C48.2693,91.1917,49.8274,89.6433,49.7759,88.4943z"/>
		<path fill="#ffffff" d="M48.4051,109.93c-0.8069-1.0692-1.5652,0.4872-1.7661,1.0352c-0.9663,2.6247,0.479,5.6809,2.4233,7.8321
			c1.9441,2.1512,4.8306,3.8902,7.5393,3.1943c0.5659-0.1449,2.1914-0.7417,1.2085-1.6526
			C53.9568,117.0667,50.3943,112.6605,48.4051,109.93z"/>
		<path fill="#ffffff" d="M70.3101,117.6013c-10.3845-7.9096-15.447-16.0658-17.9182-19.83
			c-1.0632-1.7725-2.3091,0.7863-2.8797,2.1289c-0.5703,1.3428-1.0507,2.9815-0.3676,4.2925
			c2.2473,4.2957,10.3628,13.298,14.4487,15.9899c1.2349,0.8127,2.9141,0.5002,4.3074,0.0684
			C69.294,119.8192,71.9656,118.8378,70.3101,117.6013z"/>
		<path fill="#ffffff" d="M106.1089,60.7426c-1.2217,0.6854-45.6035,27.2692-49.5273,29.6564
			c-1.5095,0.9187-1.8987,2.6699-0.874,4.5227c4.1399,7.1135,11.1818,14.882,17.7722,19.6687
			c1.74,1.2065,3.5217,0.9963,4.5881-0.413c2.771-3.6623,33.7039-45.131,34.5088-46.2767
			C114.8006,64.5667,109.4725,58.8792,106.1089,60.7426z"/>
	</g>
</g>
</svg>

