<?xml version="1.0" encoding="utf-8"?>
<!-- Generator: Adobe Illustrator 18.1.1, SVG Export Plug-In . SVG Version: 6.00 Build 0)  -->
<svg version="1.2" baseProfile="tiny" xmlns="http://www.w3.org/2000/svg" xmlns:xlink="http://www.w3.org/1999/xlink" x="0px"
	 y="0px" width="128px" height="128px" viewBox="0 0 128 128" xml:space="preserve">
<g id="_x31_28px_boxes">
	<rect fill="none" width="128" height="128"/>
</g>
<g id="Production">
	<g>
		<path fill="#ffffff" d="M96.2476,38.4396L93.4614,24.432c-0.3425-1.7448-2.1202-2.906-3.82-2.3871L35.6467,38.4396H96.2476z"/>
		<path fill="#ffffff" d="M68.1821,74.0795c0-7.7805,6.3301-13.9999,14.1109-13.9999h21.6997V49.5519
			c0-3.7172-3.3853-6.4723-7.1026-6.4723c-7.2498,0-54.7557,0-62,0c-4.6036,0-7.9448-2.3567-7.9448-5.5607
			c0-3.182,3.267-5.4393,7.9448-5.4393h6.9156l19.6489-6H34.8901c-8.08,0-13.8974,4.5898-13.8974,11.198v57.1731
			c0,3.2115,1.7459,6.3562,4.8315,8.5091c3.5091,2.448,7.218,3.1198,11.252,3.1198h59.7866c3.728,0,7.1299-3.1453,7.1299-6.8732
			V88.0796H82.293C74.5122,88.0796,68.1821,81.86,68.1821,74.0795z"/>
		<path fill="#ffffff" d="M101.7339,64.5996H82.293c-5.3081,0-9.6109,4.1923-9.6109,9.4999c0,5.3076,4.3028,9.5001,9.6109,9.5001
			h19.4409c3.4682,0,5.2734-1.4769,5.2734-9.5001C107.0073,66.0766,105.2021,64.5996,101.7339,64.5996z M82.293,78.7832
			c-2.7664,0-5.0088-2.2429-5.0088-5.0092c0-2.7661,2.2424-5.0083,5.0088-5.0083c2.7661,0,5.0083,2.2422,5.0083,5.0083
			C87.3013,76.5403,85.0591,78.7832,82.293,78.7832z"/>
	</g>
</g>
</svg>
