<?xml version="1.0" encoding="utf-8"?>

<svg version="1.2" baseProfile="tiny" xmlns="http://www.w3.org/2000/svg" xmlns:xlink="http://www.w3.org/1999/xlink" x="0px"
	 y="0px" width="128px" height="128px" viewBox="0 0 128 128" xml:space="preserve">
<g id="_x31_28px_boxes">
	<rect fill="none" width="128" height="128"/>
</g>
<g id="Production">
	<g>
		<path fill="#ffffff" d="M25.1853,90.4499C33.658,102.8475,47.895,111,64,111c15.8726,0,29.9312-7.9189,38.4448-20.0162
			c0.125-0.1777,0.2486-0.3564,0.3711-0.5356L64.0022,68.5023L25.1853,90.4499z"/>
		<path fill="#ffffff" d="M60.9255,17C36.4375,18.5909,17,39.0381,17,63.9482c0,7.6222,1.8218,14.8258,5.0491,21.2004
			l38.8764-21.9814V17z"/>
		<path fill="#ffffff" d="M67.0789,17.0002v6.9436c3.8772,0.2963,7.6005,1.15,11.0935,2.4765l-11.0935,6.2222v7.9434
			l18.5476-10.4028c1.4277,0.9196,2.7922,1.929,4.0886,3.0173L67.0789,45.8965V53.84l27.7126-15.5432
			c0.9951,1.1948,1.9211,2.4486,2.7742,3.7546L67.0789,59.1506v4.0166l3.4865,1.9714l30.2754-16.9805
			c0.6145,1.4313,1.147,2.9056,1.594,4.4165L75.2803,67.8045l7.053,3.9878l21.5219-12.071c0.146,1.3895,0.2224,2.7995,0.2224,4.2269
			c0,0.323-0.0046,0.6448-0.0122,0.9659l-17.0171,9.5443l7.053,3.9877l8.8264-4.9505c-0.7046,2.8801-1.7207,5.6389-3.0107,8.2388
			l6.0349,3.4122C109.1787,78.7725,111,71.5697,111,63.9482C111,39.0397,91.5649,18.5934,67.0789,17.0002z"/>
	</g>
</g>
</svg>
