<?xml version="1.0" encoding="utf-8"?>
<!-- Generator: Adobe Illustrator 19.1.0, SVG Export Plug-In . SVG Version: 6.00 Build 0)  -->
<svg version="1.2" baseProfile="tiny" xmlns="http://www.w3.org/2000/svg" xmlns:xlink="http://www.w3.org/1999/xlink" x="0px"
	 y="0px" width="64px" height="64px" viewBox="0 0 64 64" xml:space="preserve">
<g id="_x36_4px_boxes">
	<rect fill="none" width="64" height="64"/>
</g>
<g id="Production">
	<path fill="#ffffff" d="M32,7C18.2148,7,7,18.2148,7,32s11.2148,25,25,25s25-11.2148,25-25S45.7852,7,32,7z M32,55
		c-4.3601,0-8.4407-1.2196-11.9187-3.3354c3.8774-1.6985,7.5505-1.6704,7.9038-5.9651c0.0786-0.9546-0.0823-2.0993-0.1768-2.658
		c-2.9573-0.6094-4.9188-1.7932-5.9615-2.5753c-0.5269-0.3951-0.7059-0.9402-0.4355-1.5516
		c1.9262-4.3555,1.2872-5.7199,1.2872-12.1935c0-4.1998,2.6928-8.3179,8.0782-8.3179c0.9852-0.8332,2.2349-1.2406,3.5295-1.2406
		c3.4156,0,7.1429,2.8364,7.1429,8.1722c0,5.6185-0.6456,8.5831,2.4985,14.1539c0.4045,0.7174,0.4269,1.1664-0.3076,1.4987
		c-1.3686,0.6188-4.0795,1.9388-7.4805,2.3217c-0.0919,0.6105-0.201,1.5724-0.1337,2.3901c0.3497,4.2501,4.0265,4.302,7.8741,5.9761
		C40.426,53.7844,36.3524,55,32,55z M41.9864,48.8167c-3.0835-1.0551-3.8194-1.4843-3.9672-3.2812
		c-0.012-0.1451-0.0164-0.3095-0.0135-0.4896c2.735-0.5366,4.9131-1.5308,6.1769-2.1077l0.2816-0.1282
		c1.0439-0.4722,1.4652-1.1894,1.6349-1.7079c0.3871-1.1829-0.1914-2.2091-0.4092-2.5954
		c-2.3936-4.2413-2.3473-6.6782-2.2705-10.7153c0.0146-0.7681,0.0299-1.5805,0.0299-2.4564c0-6.6071-4.7106-10.1722-9.1429-10.1722
		c-1.5381,0-3.0106,0.4432-4.2213,1.2599c-6.1656,0.3487-9.3864,5.353-9.3864,10.2985c0,1.4988,0.033,2.7066,0.0622,3.7722
		c0.0953,3.4854,0.1274,4.6594-1.1785,7.6124c-0.6381,1.4422-0.2202,2.9969,1.0646,3.9605
		c1.0954,0.8215,2.8574,1.8773,5.3425,2.5872c0.0214,0.3359,0.0226,0.6366,0.0025,0.882c-0.1478,1.7959-0.8707,2.2172-3.8986,3.2386
		c-1.2057,0.4067-2.5579,0.8641-3.9318,1.5829C12.6011,46.1548,9,39.4908,9,32C9,19.3179,19.3179,9,32,9s23,10.3179,23,23
		c0,7.4979-3.6077,14.1677-9.1769,18.3692C44.4851,49.6754,43.1652,49.22,41.9864,48.8167z"/>
</g>
</svg>

