<?xml version="1.0" encoding="utf-8"?>
<!-- Generator: Adobe Illustrator 18.1.1, SVG Export Plug-In . SVG Version: 6.00 Build 0)  -->
<svg version="1.2" baseProfile="tiny" xmlns="http://www.w3.org/2000/svg" xmlns:xlink="http://www.w3.org/1999/xlink" x="0px"
	 y="0px" width="128px" height="128px" viewBox="0 0 128 128" xml:space="preserve">
<g id="box">
	<rect fill="none" width="128" height="128"/>
</g>
<g id="Production">
	<g>
		<path fill="#ffffff" d="M104.4148,20.9938H42.4924c-1.5674,0-2.8386,1.2711-2.8386,2.8387v30.9863
			c2.2813,0.0135,4.4636,1.1992,5.6782,3.2997V26.6716h56.2434v47.2455c-0.1257,2.5224-0.9441,4.3972-3.394,5.377
			c-3.3069,1.3227-6.6804,1.5837-13.4634,1.5837c-2.363,0-3.2366,1.6383-3.1623,2.978c0.3,5.4766,0.2895,13.5078-2.2803,15.9605
			c-1.228,1.1719-2.0093,1.5058-3.2925,1.5058c-1.5676,0-30.6509,0.0064-30.6509,0.0064V88.2047l-5.6782,3.5813v12.3811
			c0,1.5681,1.2712,2.8391,2.8386,2.8391c0,0,34.5139-0.0063,35.1587-0.0063c1.9788,0,3.8928-0.6763,5.698-1.7144
			c2.5496-1.467,18.3062-18.2932,20.1475-20.4136c1.8369-2.1152,3.7475-5.132,3.7568-12.4606l0.0005-0.0008v-48.578
			C107.2539,22.2649,105.9819,20.9938,104.4148,20.9938z"/>
		<path fill="#ffffff" d="M40.9092,63.4507c2.6911-1.6991,0.1267-5.7866-2.5757-4.0791L21.8706,69.7675
			c-2.062,1.3021-1.0832,4.4521,1.29,4.4521C24.1606,74.2196,23.1094,74.6924,40.9092,63.4507z"/>
		<path fill="#ffffff" d="M47.3999,62.7843C47.1975,62.912,25.7881,76.4171,25.5916,76.541l0.0002,0.0007
			c-2.6387,1.3193-5.2412,6.3326-2.4409,10.7663c2.4175,3.8276,7.6133,4.83,11.2886,2.063
			c2.3818-1.5023,18.895-11.9174,21.2758-13.4189L47.3999,62.7843z"/>
		<path fill="#ffffff" d="M86.6895,44.8593l-3.3467,2.1314c-3.6223-2.4375-9.9612-0.6076-13.9803,1.9394
			C68.4688,49.4939,51.8481,59.978,50.9543,60.542l8.3152,13.1681c0.8977-0.5661,17.5708-11.0817,18.4646-11.6455
			c4.0506-2.6467,8.3665-7.5357,7.6631-11.8628l3.3411-2.1249C90.8652,46.7292,88.8252,43.5004,86.6895,44.8593z"/>
	</g>
</g>
</svg>
