<?xml version="1.0" encoding="utf-8"?>
<!-- Generator: Adobe Illustrator 18.1.1, SVG Export Plug-In . SVG Version: 6.00 Build 0)  -->
<svg version="1.2" baseProfile="tiny" xmlns="http://www.w3.org/2000/svg" xmlns:xlink="http://www.w3.org/1999/xlink" x="0px"
	 y="0px" width="128px" height="128px" viewBox="0 0 128 128" xml:space="preserve">
<g id="_x31_28px_boxes">
	<rect fill="none" width="128" height="128"/>
</g>
<g id="Production">
	<g>
		<path fill="#ffffff" d="M89.1817,99.6479L68.4123,84.5253v-15.373h-9v15.373l-20.769,15.1226
			c1.3394,0.6531,5.8785,2.482,8.8489,4.6901l16.4201-11.956l16.4236,11.9583C83.2937,102.1336,87.8135,100.3149,89.1817,99.6479z"
			/>
		<path fill="#ffffff" d="M90.5832,64.6523c-0.3203-8.2989-2.8482-9.5616-9.2583-12.916
			c-4.606-2.4102-10.3726-3.6568-10.0391-7.9068c0.32-4.0881,6.1035-6.7242,6.1035-16.7666c0-19.8426-26.9443-19.5514-26.9443,0
			c0,9.99,5.7851,12.7295,6.104,16.7666c0.3335,4.25-5.4336,5.4966-10.0401,7.9068c-6.409,3.354-8.9373,4.6171-9.258,12.916H90.5832
			z"/>
		<path fill="#ffffff" d="M48.197,115.7101c-0.2425-6.2856-2.1571-7.2419-7.0121-9.7827c-5.9214-3.0985-10.2154-3.3337-5.7707-9.728
			c6.3971-10.6618,0.7146-20.1311-7.4141-20.2176c-5.4611,0.0581-10.2039,4.6111-10.2039,11.2581
			c0,6.1865,3.1139,9.0889,4.1259,11.0147c2.3705,4.508-3.4879,5.7791-7.107,7.6728c-4.8542,2.5405-6.7693,3.4971-7.0121,9.7827
			H48.197z"/>
		<path fill="#ffffff" d="M120.197,115.7101c-0.2425-6.2856-2.1571-7.2419-7.0121-9.7827c-5.4862-2.8707-10.3063-3.203-5.7707-9.728
			c0.0015-0.0025,0.0028-0.0049,0.0039-0.0073c1.1043-1.9605,2.7859-4.1046,2.7859-8.9522c0-6.0693-4.1147-11.1933-10.2039-11.2581
			c-5.4611,0.0581-10.2039,4.6111-10.2039,11.2581c0,6.1865,3.1139,9.0889,4.1259,11.0147c2.3705,4.508-3.4879,5.7791-7.107,7.6728
			c-4.8542,2.5405-6.7693,3.4971-7.0121,9.7827H120.197z"/>
	</g>
</g>
</svg>
