<?xml version="1.0" encoding="utf-8"?>
<!-- Generator: Adobe Illustrator 18.1.1, SVG Export Plug-In . SVG Version: 6.00 Build 0)  -->
<svg version="1.2" baseProfile="tiny" xmlns="http://www.w3.org/2000/svg" xmlns:xlink="http://www.w3.org/1999/xlink" x="0px"
	 y="0px" width="128px" height="128px" viewBox="0 0 128 128" xml:space="preserve">
<g id="_x31_28px_boxes">
	<rect fill="none" width="128" height="128"/>
</g>
<g id="Production">
	<g>
		<path fill="#ffffff" d="M75.0029,43.568l-4.7388-4.0664l5.0629-5.9002c3.2269-3.7605-2.4616-8.6486-5.6919-4.8842L54.6246,46.2098
			c-3.2433,3.7798,2.4898,8.6158,5.6919,4.8843l5.0632-5.9006l5.0058,4.2956C72.3753,47.7892,73.9474,45.7437,75.0029,43.568z"/>
		<path fill="#ffffff" d="M11.8326,85.191c-1.0933-12.7892,9.0245-23.6921,21.7378-23.6921
			c12.7073,0,22.8316,10.8968,21.7377,23.6921h17.3837c-1.0922-12.7989,9.0316-23.6921,21.7375-23.6921
			c12.7185,0,22.829,10.9051,21.7379,23.6921h5.0744c2.4853,0,4.5-2.0146,4.5-4.5V68.9225c0-2.7073-2.3301-4.5-4.5-4.5h-2.8833
			c-4.9155-10.6072-15.3225-22.0281-34.8503-28.6717c-0.9995-0.3396-2.4602,0.2276-2.4788,1.7522
			C80.813,55.1841,53.888,72.5875,28.4171,41.3422c-0.572-0.7017-1.5635-0.8946-2.357-0.4583
			c-8.7785,4.8279-14.6555,12.9439-17.0789,23.5386H6.7584c-2.2133,0-4.5,1.9092-4.5,4.5V80.691c0,3.0059,2.6507,4.5,4.5,4.5
			H11.8326z"/>
		<path fill="#ffffff" d="M50.8894,83.318c0-9.565-7.7541-17.3191-17.319-17.3191c-9.5652,0-17.3191,7.7541-17.3191,17.3191
			c0,9.5649,7.7539,17.3188,17.3191,17.3188C43.1353,100.6368,50.8894,92.8829,50.8894,83.318z M30.0351,83.318
			c0-1.9527,1.5826-3.5352,3.5353-3.5352c1.9524,0,3.5354,1.5825,3.5354,3.5352c0,1.9521-1.583,3.5351-3.5354,3.5351
			C31.6177,86.8531,30.0351,85.2701,30.0351,83.318z"/>
		<path fill="#ffffff" d="M111.7485,83.318c0-9.565-7.7542-17.3191-17.3192-17.3191c-9.5651,0-17.3188,7.7541-17.3188,17.3191
			c0,9.5649,7.7537,17.3188,17.3188,17.3188C103.9943,100.6368,111.7485,92.8829,111.7485,83.318z M90.894,83.318
			c0-1.9527,1.5827-3.5352,3.5353-3.5352c1.9527,0,3.5355,1.5825,3.5355,3.5352c0,1.9521-1.5828,3.5351-3.5355,3.5351
			C92.4767,86.8531,90.894,85.2701,90.894,83.318z"/>
	</g>
</g>
</svg>
