<?xml version="1.0" encoding="utf-8"?>
<!-- Generator: Adobe Illustrator 18.1.1, SVG Export Plug-In . SVG Version: 6.00 Build 0)  -->
<svg version="1.2" baseProfile="tiny" xmlns="http://www.w3.org/2000/svg" xmlns:xlink="http://www.w3.org/1999/xlink" x="0px"
	 y="0px" width="64px" height="64px" viewBox="0 0 64 64" xml:space="preserve">

<g id="Production">
	<g>
		<path fill="#ffffff" d="M51,8H13v38h38V8z M49,44H15V10h34V44z"/>
		<path fill="#ffffff" d="M7,48c0,3.78,0-1.8885,0,8h10v-6h10v6h10v-6h10v6h10c0-9.893,0-4.2211,0-8C40.3508,48,25.8723,48,7,48z
			 M15,54H9v-4h6V54z M35,54h-6v-4h6V54z M55,54h-6v-4h6V54z"/>
		<polygon fill="#ffffff" points="25,22.4429 25,36 27,36 27,22.3854 29.6714,25.0571 31.0854,23.6431 26.0288,18.5859 
			20.9717,23.6431 22.3857,25.0571 		"/>
		<polygon fill="#ffffff" points="37,22.3854 37,36 39,36 39,22.4429 41.6143,25.0571 43.0283,23.6431 37.9712,18.5859 
			32.9146,23.6431 34.3286,25.0571 		"/>
	</g>
</g>
</svg>
