<?xml version="1.0" encoding="utf-8"?>
<!-- Generator: Adobe Illustrator 18.1.1, SVG Export Plug-In . SVG Version: 6.00 Build 0)  -->
<svg version="1.2" baseProfile="tiny" xmlns="http://www.w3.org/2000/svg" xmlns:xlink="http://www.w3.org/1999/xlink" x="0px"
	 y="0px" width="128px" height="128px" viewBox="0 0 128 128" xml:space="preserve">
<g id="_x31_28px_boxes">
	<rect fill="none" width="128" height="128"/>
</g>
<g id="Production">
	<g>
		<rect x="49.8006" y="56.295" fill="#ffffff" width="9.6945" height="19.9486"/>
		<rect x="63.9951" y="56.295" fill="#ffffff" width="9.6949" height="19.9486"/>
		<rect x="35.606" y="56.295" fill="#ffffff" width="9.6946" height="19.9486"/>
		<path fill="#ffffff" d="M99.0574,44.1294c-3.6699,0-6.6455,2.9753-6.6455,6.6455c0,2.6882,1.5969,5.0014,3.893,6.0481v22.0744
			c-1.4331-0.7475-3.0612-1.1723-4.7895-1.1723v20.7475c5.7297,0,10.3347-4.6445,10.3347-10.3738c0-0.4275,0-31.2761,0-31.2761
			c2.2959-1.0466,3.8528-3.3598,3.8528-6.0478C105.7029,47.1047,102.728,44.1294,99.0574,44.1294z"/>
		<path fill="#ffffff" d="M54.648,15.0034c-17.8667,0-32.3509,14.4841-32.3509,32.3511v65.6421h64.7014V47.3545
			C86.9985,29.4875,72.5149,15.0034,54.648,15.0034z M63.0667,104.0041H46.229l-7.052-6.7253h30.9422L63.0667,104.0041z
			 M78.19,80.7436H31.106V51.795H78.19V80.7436z"/>
	</g>
</g>
</svg>
