<?xml version="1.0" encoding="utf-8"?>
<!-- Generator: Adobe Illustrator 19.1.0, SVG Export Plug-In . SVG Version: 6.00 Build 0)  -->
<svg version="1.2" baseProfile="tiny" xmlns="http://www.w3.org/2000/svg" xmlns:xlink="http://www.w3.org/1999/xlink" x="0px"
	 y="0px" width="64px" height="64px" viewBox="0 0 64 64" xml:space="preserve">
<g id="box">
	<rect fill="none" width="64" height="64"/>
</g>
<g id="Production">
	<path fill="#ffffff" d="M57.1069,37.6724l-23.0977-9.8994C33.396,27.5107,33,26.9097,33,26.2422c0-0.2197,0-0.8877,1.3018-1.6533
		c1.668-0.981,5.4492-3.7324,4.5425-8.084c-0.5518-2.6475-2.7017-4.7974-5.3491-5.3491c-2.1133-0.4404-4.2651,0.0742-5.9087,1.4106
		S25,15.8833,25,18h2c0-1.5117,0.6738-2.9268,1.8481-3.8818c1.1748-0.9546,2.7207-1.3213,4.2388-1.0044
		c1.8809,0.3921,3.4072,1.9185,3.7993,3.7993c0.6426,3.084-2.3022,5.1899-3.5981,5.9521C31.77,23.7578,31,24.894,31,26.2422
		c0,1.4688,0.8721,2.7915,2.2217,3.3691l23.0972,9.8989C57.9478,40.2085,59,41.8042,59,43.5762C59,46.0156,57.0156,48,54.5762,48
		H9.4238C6.9844,48,5,46.0156,5,43.5762c0-1.772,1.0522-3.3677,2.6812-4.0659l20.6011-8.8291
		c0.5073-0.2173,0.7427-0.8052,0.5249-1.313c-0.2168-0.5068-0.8042-0.7422-1.313-0.5249L6.8931,37.6724
		C4.5283,38.6855,3,41.0029,3,43.5762C3,47.1182,5.8818,50,9.4238,50h45.1523C58.1182,50,61,47.1182,61,43.5762
		C61,41.0029,59.4717,38.6855,57.1069,37.6724z"/>
</g>
</svg>

