<?xml version="1.0" encoding="utf-8"?>
<!-- Generator: Adobe Illustrator 19.1.0, SVG Export Plug-In . SVG Version: 6.00 Build 0)  -->
<svg version="1.2" baseProfile="tiny" xmlns="http://www.w3.org/2000/svg" xmlns:xlink="http://www.w3.org/1999/xlink" x="0px"
	 y="0px" width="64px" height="64px" viewBox="0 0 64 64" xml:space="preserve">
<g id="box">
	<rect fill="none" width="64" height="64"/>
</g>
<g id="Production">
	<g>
		<path fill="#ffffff" d="M62,13v-2H42.6836c-0.0427-0.3601-0.0972-0.7132-0.1799-1.0438C41.4609,5.7955,37.675,3,33.0835,3
			c-3.9644,0-10.3845,2.2108-11.574,6.9562c-0.0828,0.3306-0.1372,0.6837-0.1799,1.0438H2v2h19.2502
			c0.0334,1.2106,0.1819,2.3864,0.3257,3.2562c-0.3962,0.503-0.6758,1.1912-0.7476,2.0801c-0.1548,1.919,0.375,4.9189,2.25,6.2295
			c0.2766,1.2384,0.5637,2.3774,1.0837,3.4342H2v2h23.1963c0.0312,0.2659,0.0479,0.5675,0.0181,0.8797
			c-0.1545,1.6209-1.3646,1.8232-3.2454,2.3408c-3.1165,0.8578-8.3328,2.2935-11.2358,5.1509
			C8.6809,40.3915,7.7603,42.7762,7.3442,45H2v1.99h5.0852C7.0032,48.0465,7,49.0317,7,49.8494V61h2V49.8494
			c0-2.7219,0-6.9656,3.1362-10.0527c2.9155-2.8698,8.99-4.2292,11.5276-4.975l-4.6775,10.7106l-3.2236,0.2948l1.457,15.9336
			l31.8672-2.9141l-1.457-15.9336l-3.7085,0.3391l-3.5745-8.4311c2.5347,0.7456,8.6006,2.1052,11.5168,4.9756
			C55,42.8839,55,50.0714,55,52.8494C55,54.6927,55,61,55,61h2v-8.1506c0-1.8601-0.0591-3.8788-0.2996-5.8494H62v-2h-5.616
			c-0.5176-2.6047-1.4514-4.9888-3.1172-6.6286c-2.9041-2.8583-8.1145-4.2941-11.2275-5.1519
			c-1.9377-0.534-3.0882-0.7415-3.2405-2.3398C38.769,30.5681,38.7852,30.2662,38.8167,30H62v-2H39.8784
			c0.6245-1.1487,0.8247-2.1511,1.0366-3.2518c0.0122-0.064,0.0247-0.1288,0.0376-0.1949c1.8601-1.317,2.3862-4.3041,2.2322-6.2167
			c-0.0718-0.8891-0.3513-1.5775-0.7476-2.0804c0.1438-0.8698,0.2922-2.0455,0.3257-3.2562H62z M45.8203,45.0869l1.0928,11.9502
			l-27.8838,2.5498l-1.0928-11.9502L45.8203,45.0869z M39.1331,37.0823l2.697,6.3611l-20.5703,1.881l3.6025-8.2496
			C26.3806,39.4448,29.0369,41,32,41C34.9602,41,37.614,39.4481,39.1331,37.0823z M39.1946,23.1779
			c-0.5134,2.2858-0.4065,3.3432-2.1016,5.3336c0,0-0.4143,1.2029-0.2852,2.558c0.0865,0.9072,0.1909,0.956,1.2961,3.5856
			C37.2148,37.2006,34.7861,39,32,39c-2.7761,0-5.1953-1.7874-6.0923-4.3184c0.4223-0.9903,1.1955-2.5406,1.2976-3.6121
			c0.1292-1.355-0.2854-2.558-0.2854-2.558c-1.304-1.3684-1.5879-3.0478-2.1013-5.3336c-1.6545-0.3265-2.1113-3.2603-1.9968-4.6805
			c0.0991-1.2263,0.7549-1.3081,0.928-1.3081c0.0269,0,0.042,0.002,0.042,0.002s-0.97-4.2452-0.3423-6.7487
			C24.3247,6.9506,29.6035,5,33.0835,5c3.4797,0,6.605,1.9506,7.4802,5.4424c0.6274,2.5035-0.3423,6.7487-0.3423,6.7487
			s0.0151-0.002,0.042-0.002c0.1731,0,0.8289,0.0818,0.9277,1.3081C41.3057,19.9175,40.8489,22.8513,39.1946,23.1779z"/>
		
			<rect x="31.2429" y="40.3454" transform="matrix(0.0911 0.9958 -0.9958 0.0911 79.4417 13.6508)" fill="#ffffff" width="1.9995" height="19.9996"/>
		
			<rect x="31.6072" y="46.3288" transform="matrix(-0.0911 -0.9958 0.9958 -0.0911 -18.5258 91.7486)" fill="#ffffff" width="1.9995" height="15.9996"/>
	</g>
</g>
</svg>

