<?xml version="1.0" encoding="utf-8"?>
<!-- Generator: Adobe Illustrator 18.1.1, SVG Export Plug-In . SVG Version: 6.00 Build 0)  -->
<svg version="1.2" baseProfile="tiny" xmlns="http://www.w3.org/2000/svg" xmlns:xlink="http://www.w3.org/1999/xlink" x="0px"
	 y="0px" width="64px" height="64px" viewBox="0 0 64 64" xml:space="preserve">

<g id="Production">
	<g>
		<path fill="#ffffff" d="M16.9414,45.1504c2.108-2.1084,5.4731-3.4825,8.3719-4.4268c-1.9048-0.9933-4.153-1.5439-5.033-1.8666
			c-1.1242-0.4123-1.7438-1.2403-1.8-2.515c2.8048-0.2728,4.7798-0.9419,5.8848-1.4272c0.5713-0.2509,0.8006-0.9447,0.4846-1.4886
			c-2.4494-4.2154-1.9466-6.4586-1.9466-10.71c0-5.5679-5.5224-7.5392-8.3151-5.2452c-4.196,0-6.294,3.1161-6.294,6.294
			c0,4.8985,0.4978,5.931-1.003,9.2267c-0.2107,0.4626-0.0597,1.0105,0.3591,1.2985c0.8622,0.593,2.5416,1.4966,5.1559,1.9296
			c-0.0261,1.2647-0.5913,2.146-1.8045,2.5909c-1.2515,0.459-5.2823,1.4213-7.1418,3.4239C2,44.2372,2,47,2,47h13.426
			C15.8542,46.3679,16.3493,45.7424,16.9414,45.1504z"/>
		<path fill="#ffffff" d="M58.4261,46.5644c-3.147-3.147-9.9551-4.5599-12.0731-5.2812c-1.8473-0.6291-2.8621-1.854-3.0338-3.6849
			c-0.1296-1.3813,0.2862-2.6191,0.2862-2.6191c1.7009-2.029,1.5934-3.1127,2.1086-5.4429c1.66-0.3329,2.1183-3.3265,2.0034-4.7742
			c-0.1145-1.4425-0.9731-1.333-0.9731-1.333s0.9731-4.3282,0.3434-6.8803c-0.7891-3.1978-3.6897-5.5484-7.5057-5.5484
			c-6.0054,0-8.9861,2.7895-9.6667,5.5479c-0.6296,2.5521,0.3434,6.8795,0.3434,6.8795s-0.8586-0.111-0.9731,1.3315
			c-0.1149,1.4478,0.3434,4.4384,2.0034,4.7713c0.5152,2.3302,0.8002,4.0422,2.1086,5.4371c0,0,0.4158,1.2263,0.2862,2.6076
			c-0.1718,1.8309-1.1865,3.0327-3.0338,3.6617c-2.1179,0.7213-8.9391,2.1805-12.0862,5.3275C15.4171,49.7114,15.4171,54,15.4171,54
			h46.1561C61.5731,54,61.5731,49.7114,58.4261,46.5644z"/>
	</g>
</g>
</svg>
