<?xml version="1.0" encoding="utf-8"?>
<!-- Generator: Adobe Illustrator 18.1.1, SVG Export Plug-In . SVG Version: 6.00 Build 0)  -->
<svg version="1.2" baseProfile="tiny" xmlns="http://www.w3.org/2000/svg" xmlns:xlink="http://www.w3.org/1999/xlink" x="0px"
	 y="0px" width="128px" height="128px" viewBox="0 0 128 128" xml:space="preserve">
<g id="_x31_28px_boxes">
	<rect fill="none" width="128" height="128"/>
</g>
<g id="Production">
	<g>
		<path fill="#ffffff" d="M86.1894,93.3377H28.2602V35.4085h52.2484l12.4987-10.5H23.0102c-2.8995,0-5.25,2.3504-5.25,5.25v68.4292
			c0,2.8994,2.3505,5.25,5.25,5.25h68.4292c2.8996,0,5.25-2.3506,5.25-5.25V56.2723l-10.5,12.2326V93.3377z"/>
		<path fill="#ffffff" d="M99.1013,25.9454L59.4298,61.6382l-9.9414-10.4786c-7.2222-7.5552-18.9508,2.4696-12.6487,10.7553
			c15.2486,20.0477,14.8416,19.6636,15.8247,20.5673c3.7316,3.4287,9.536,3.1833,12.9647-0.5481l0.0431-0.0469l42.7489-46.5238
			C114.0672,29.178,105.3269,20.3443,99.1013,25.9454z"/>
	</g>
</g>
</svg>
