<?xml version="1.0" encoding="utf-8"?>
<!-- Generator: Adobe Illustrator 18.1.1, SVG Export Plug-In . SVG Version: 6.00 Build 0)  -->
<svg version="1.2" baseProfile="tiny" xmlns="http://www.w3.org/2000/svg" xmlns:xlink="http://www.w3.org/1999/xlink" x="0px"
	 y="0px" width="128px" height="128px" viewBox="0 0 128 128" xml:space="preserve">
<g id="_x31_28px_boxes">
	<rect fill="none" width="128" height="128"/>
</g>
<g id="Production">
	<g>
		<path fill="#ffffff" d="M45.6824,74H26V26h45v20.9764c2-0.1,4.092,0.0051,6.0977,0.3428C77.9287,45.402,80,43.9869,82,43.6803
			v-6.1089c-3-0.4258-5.2374-2.9834-5.2374-6.0652S79.0342,25.8666,82,25.4408V17c0-1.6569-1.3431-3-3-3h-7.1095
			c-0.4258,2.9658-2.9832,5.3235-6.065,5.3235S60.1866,17,59.7608,14h-4.9487c-0.4258,3-2.9837,5.2526-6.0655,5.2526
			c-3.082,0-5.6396-2.2526-6.0654-5.2526h-4.9487c-0.4258,3-2.9834,5.3235-6.0652,5.3235S26.0276,16.9658,25.6019,14H18
			c-1.6569,0-3,1.3431-3,3v8.4408c3,0.4258,5.2524,2.9836,5.2524,6.0654S18,37.1456,15,37.5714v6.1089
			c3,0.4258,5.2524,2.9836,5.2524,6.0654c0,3.0818-2.2524,5.6397-5.2524,6.0655v6.1089c3,0.4258,5.2524,2.9836,5.2524,6.0654
			c0,3.0818-2.2524,5.6396-5.2524,6.0654V83c0,1.6569,1.3431,3,3,3h7.6019c0.4257-3,2.9836-5.2527,6.0654-5.2527
			S37.3067,83,37.7325,86h4.9487c0.3147-3,1.7957-4.2025,3.7903-5.0036C45.6019,77.609,45.6815,74,45.6824,74z"/>
		<path fill="#ffffff" d="M31.9261,33.8261c-0.8657-0.1491-1.6668,0.5104-1.6821,1.3923
			c-0.0083,0.4675-0.1143,11.488,7.4755,15.3906c-5.4365,5.5867-4.7094,14.5982-4.6704,15.0342
			c0.0786,0.8758,0.9204,1.4794,1.7779,1.2686c0.3703-0.0916,7.5466-1.9244,11.1665-7.1243
			C49.8004,48.4187,45.4222,36.1477,31.9261,33.8261z"/>
		<path fill="#ffffff" d="M61.699,49.2943c5.5791-4.6189,5.4927-13.6536,5.4854-14.0759c-0.0159-0.8797-0.8115-1.5412-1.6824-1.3923
			c-12.8147,2.2044-17.3909,13.5152-14.5901,24.1911C53.6751,54.2509,57.388,51.2252,61.699,49.2943z"/>
		<path fill="#ffffff" d="M51.5267,32.7938c-0.0762,0.1087-1.4795,2.1224-2.9407,5.1775c-1.4609-3.0551-2.8645-5.0688-2.9409-5.1775
			c-1.1416-1.6247-3.5935,0.1034-2.4549,1.7246c0.0225,0.0318,2.2454,3.2193,3.9124,7.5901c0.4924,1.2914,2.4746,1.2899,2.9666,0
			c1.6594-4.3505,3.8906-7.5591,3.913-7.591C55.1197,32.8958,52.6671,31.17,51.5267,32.7938z"/>
		<path fill="#ffffff" d="M110.6116,100.4418l-13.8637-13.864v-0.0003c-2.5662,4.8918-6.5791,8.8927-11.4566,11.4449l0,0
			l13.8711,13.8759c3.1226,3.1265,8.2361,3.182,11.4439,0.0076C113.7747,108.7222,113.7703,103.5906,110.6116,100.4418z"/>
		<path fill="#ffffff" d="M94.9861,74.0172c0-12.2773-9.9526-22.2299-22.2299-22.2299c-12.2769,0-22.23,9.9526-22.23,22.2299
			c0,12.2774,9.9531,22.2298,22.23,22.2298C85.0335,96.247,94.9861,86.2946,94.9861,74.0172z M72.7562,88.976
			c-8.2618,0-14.9585-6.6973-14.9585-14.9588c0-8.2612,6.6967-14.9587,14.9585-14.9587c8.2612,0,14.9585,6.6975,14.9585,14.9587
			C87.7147,82.2787,81.0174,88.976,72.7562,88.976z"/>
	</g>
</g>
</svg>
