<?xml version="1.0" encoding="utf-8"?>
<!-- Generator: Adobe Illustrator 18.1.1, SVG Export Plug-In . SVG Version: 6.00 Build 0)  -->
<svg version="1.2" baseProfile="tiny" xmlns="http://www.w3.org/2000/svg" xmlns:xlink="http://www.w3.org/1999/xlink" x="0px"
	 y="0px" width="64px" height="64px" viewBox="0 0 64 64" xml:space="preserve">

<g id="Production">
	<g>
		<path fill="#ffffff" d="M20.0767,31c-6.2007,0-10.5376-4.7672-10.5376-11.1992c0-6.2535,3.989-11.3623,10.6011-11.3623
			c6.601,0,10.4736,4.762,10.4736,11.3623C30.6138,26.4645,25.9127,31,20.0767,31z M20.0132,28.9414
			c5.2967,0,8.1885-4.7454,8.1885-9.1406c0-5.8902-3.6479-9.2676-8.125-9.2676c-5.1574,0-8.1255,4.2472-8.1255,9.2676
			C11.9512,24.1041,14.8182,28.9414,20.0132,28.9414z M45.2773,7.6768h2.5396L18.2993,54.5234h-2.5391L45.2773,7.6768z
			 M32.7725,42.5264c0-6.1335,3.8725-11.3633,10.6006-11.3633c4.6354,0,8.2783,2.3685,9.7759,6.8564
			c0.4653,1.3965,0.6982,2.8984,0.6982,4.5068c0,6.7016-4.7393,11.2354-10.5376,11.2354
			C37.2188,53.7617,32.7725,49.0818,32.7725,42.5264z M35.1846,42.5264c0,4.5084,3.0443,9.1406,8.0615,9.1406
			c5.2775,0,8.189-4.7638,8.189-9.1406c0-5.789-3.5458-9.2686-8.1255-9.2686C38.1384,33.2578,35.1846,37.5225,35.1846,42.5264z"/>
	</g>
</g>
</svg>
