<?xml version="1.0" encoding="utf-8"?>
<!-- Generator: Adobe Illustrator 18.1.1, SVG Export Plug-In . SVG Version: 6.00 Build 0)  -->
<svg version="1.2" baseProfile="tiny" xmlns="http://www.w3.org/2000/svg" xmlns:xlink="http://www.w3.org/1999/xlink" x="0px"
	 y="0px" width="64px" height="64px" viewBox="0 0 64 64" xml:space="preserve">

<g id="Production">
	<path fill="#ffffff" d="M50.98,52.9365c-2.5984-1.6831-3.6405-5.0384-3.9058-8.1484C46.938,43.1987,45.6519,42,44.082,42h-0.5945
		c2.5535-7.1937-2.1672-11.484-6.365-15.2949C35.3828,25.126,33.7188,23.6157,32.6592,22h5.1416l2.5039,1.0381
		c1.5246,0.6313,3.2999-0.0781,3.9326-1.6528l1.3823-3.4404c0.7212-1.7939,0.0576-3.8442-1.5781-4.875L34.4141,7H31V2.0703
		C19.6574,5.1214,13.3488,13.162,14.0659,22.6772C14.643,30.3356,17.9883,37.1875,21.1218,42H19.918
		c-1.5698,0-2.856,1.1987-2.9922,2.7881c-0.2606,3.056-1.3164,6.5194-3.9258,8.1411V60h37.98
		C50.98,52.7615,50.9928,53.7797,50.98,52.9365z M16.06,22.5269C15.6806,17.4907,17.9849,8.2847,29,4.7139V9h4.8359l9.1392,5.7612
		c0.8174,0.5156,1.1494,1.541,0.7891,2.438l-1.3823,3.4404c-0.2017,0.5024-0.8003,0.7632-1.3115,0.5508L38.1992,20h-8.6826
		c1.0979,2.7121,1.2889,3.6716,6.2612,8.186c4.2153,3.8267,8.2031,7.4473,5.5693,13.814H23.5234
		C20.3486,37.3716,16.6508,30.3628,16.06,22.5269z M49,58H15v-4.022c1.0381-0.8813,3.4468-3.4907,3.9189-9.02
		C18.9653,44.4121,19.395,44,19.918,44h2.5615c10.1831,0,11.0829,0,21.6025,0c0.5229,0,0.9526,0.4121,0.999,0.958
		c0.4722,5.5293,2.8809,8.1387,3.9189,9.02V58z"/>
</g>
</svg>
