<?xml version="1.0" encoding="utf-8"?>
<!-- Generator: Adobe Illustrator 18.1.1, SVG Export Plug-In . SVG Version: 6.00 Build 0)  -->
<svg version="1.2" baseProfile="tiny" xmlns="http://www.w3.org/2000/svg" xmlns:xlink="http://www.w3.org/1999/xlink" x="0px"
	 y="0px" width="128px" height="128px" viewBox="0 0 128 128" xml:space="preserve">
<g id="box">
	<rect fill="none" width="128" height="128"/>
</g>
<g id="Production">
	<g>
		<polygon fill="#ffffff" points="85.3994,13.2903 59.7505,38.9388 63.7083,42.896 85.3994,21.2051 106.7959,42.6023 
			85.1057,64.2931 89.063,68.2513 114.7104,42.6023 		"/>
		<path fill="#ffffff" d="M55.8394,42.3487c-2.0242-2.0235-5.3094-2.013-7.3213,0L14.8057,76.0606
			c-2.0215,2.022-2.0215,5.2998,0,7.3215l29.8125,29.8132c2.0127,2.0127,5.2964,2.0256,7.3215,0l33.7129-33.7128
			c2.0188-2.0187,2.0195-5.3006,0-7.3207L55.8394,42.3487z M53.9253,56.0745L29.1252,80.8747
			c-2.7441,2.7458-6.903-1.4074-4.1552-4.1554L49.7705,51.919C52.5149,49.1743,56.6755,53.3252,53.9253,56.0745z"/>
		
			<rect x="76.366" y="33.4915" transform="matrix(-0.7072 -0.707 0.707 -0.7072 111.2021 121.2242)" fill="#ffffff" width="8.6719" height="8.1899"/>
		
			<rect x="85.816" y="42.9414" transform="matrix(0.7071 0.7071 -0.7071 0.7071 59.6682 -49.9714)" fill="#ffffff" width="8.6721" height="8.1911"/>
	</g>
</g>
</svg>
