<?xml version="1.0" encoding="utf-8"?>
<!-- Generator: Adobe Illustrator 18.1.1, SVG Export Plug-In . SVG Version: 6.00 Build 0)  -->
<svg version="1.2" baseProfile="tiny" xmlns="http://www.w3.org/2000/svg" xmlns:xlink="http://www.w3.org/1999/xlink" x="0px"
	 y="0px" width="128px" height="128px" viewBox="0 0 128 128" xml:space="preserve">
<g id="_x31_28px_boxes" display="none">
	<rect display="inline" fill="none" width="128" height="128"/>
</g>
<g id="Production">
	<g>
		<path fill="#ffffff" d="M114.9695,47.0413h-0.0002H93.5708c-2.7871-9.8299-11.8422-17.0515-22.5527-17.0515H59.5064
			c-10.9224,0-19.1571,6.7606-23.4146,17.0515H12.8604c-1.885,0-3.4131,1.528-3.4131,3.4131v28.0483
			c0,1.885,1.5281,3.4131,3.4131,3.4131h23.2314c4.2867,10.3616,12.558,17.0515,23.4146,17.0515h11.5117
			c10.7105,0,19.7656-7.2219,22.5527-17.0515h21.3985h0.0002c1.885,0,3.4131-1.5281,3.4131-3.4131V50.4544
			C118.3826,48.5693,116.8545,47.0413,114.9695,47.0413z M41.0118,64.4785c0-12.7998,5.7432-26.2973,18.4946-26.2973h11.5117
			c6.127,0,11.418,3.635,13.8386,8.8601l-24.278,0.0139c-1.0376,0-3.1968,0-5.4029,3.3967
			c-1.7256,2.6563-2.8657,6.4115-3.2683,10.6135h11.9014c4.5101,0,4.5148,6.8262,0,6.8262H51.9075
			c0.4026,4.202,1.5427,7.9573,3.2683,10.6135c2.2061,3.3968,4.3653,3.3968,5.4029,3.3968l24.278,0.0139
			c-2.4206,5.2251-7.7116,8.8601-13.8386,8.8601H59.5064C46.7593,90.7759,41.0118,77.2849,41.0118,64.4785z M31.354,64.4785
			c0,2.7325-2.2148,4.9473-4.9472,4.9473c-2.732,0-4.947-2.2148-4.947-4.9473c0-2.7324,2.215-4.9472,4.947-4.9472
			C29.1392,59.5313,31.354,61.7461,31.354,64.4785z M101.4146,59.5313c2.7324,0,4.9473,2.2148,4.9473,4.9472
			c0,2.7325-2.2149,4.9473-4.9473,4.9473c-2.7322,0-4.947-2.2148-4.947-4.9473C96.4676,61.7461,98.6824,59.5313,101.4146,59.5313z"
			/>
	</g>
</g>
</svg>
