<?xml version="1.0" encoding="utf-8"?>
<!-- Generator: Adobe Illustrator 18.1.1, SVG Export Plug-In . SVG Version: 6.00 Build 0)  -->
<svg version="1.2" baseProfile="tiny" xmlns="http://www.w3.org/2000/svg" xmlns:xlink="http://www.w3.org/1999/xlink" x="0px"
	 y="0px" width="128px" height="128px" viewBox="0 0 128 128" xml:space="preserve">
<g id="_x31_28px_boxes">
	<rect fill="none" width="128" height="128"/>
</g>
<g id="Production">
	<g>
		<path fill="#ffffff" d="M85.0492,50.9381V36.8043h-2.2234v14.023C83.5487,50.7149,84.2908,50.7426,85.0492,50.9381z"/>
		<rect x="42.0376" y="36.8046" fill="#ffffff" width="2.2222" height="36.0034"/>
		<polygon fill="#ffffff" points="94.0696,36.8043 89.2917,36.8043 89.2917,53.2602 94.0696,56.206 		"/>
		<rect x="34.8936" y="36.8046" fill="#ffffff" width="4.7779" height="36.0034"/>
		<rect x="70.6355" y="36.8046" fill="#ffffff" width="7.4099" height="36.0034"/>
		<rect x="46.9461" y="36.8046" fill="#ffffff" width="7.4099" height="36.0034"/>
		<rect x="61.3534" y="36.8046" fill="#ffffff" width="4.5008" height="36.0034"/>
		<path fill="#ffffff" d="M105.4036,22.0148H22.5969c-1.9084,0-3.5268,1.5463-3.5268,3.5293v58.1885
			c0,1.8873,1.5332,3.5237,3.5268,3.5237h82.8067c1.9627,0,3.5263-1.5943,3.5263-3.5237V25.5441
			C108.9299,23.562,107.2925,22.0148,105.4036,22.0148z M101.8792,80.2008H26.1204V29.0709h75.7588V80.2008z"/>
		<path fill="#ffffff" d="M81.742,99.0106h-5.7984V91.662H52.0637v7.3486h-5.7954c-3.8144,0-6.9028,3.1292-6.9028,6.9388
			c0,0.0478,49.2788,0.0478,49.2788,0C88.6443,102.1398,85.5564,99.0106,81.742,99.0106z"/>
		<path fill="#ffffff" d="M85.9927,69.6254c0.207,0.8504,1.3543,1.0524,1.8345,0.2895l1.6298-2.6128l3.7989,5.2554
			c0.3214,0.4476,0.9556,0.5598,1.4082,0.2251l1.3931-1.0093c0.4782-0.3559,0.5393-0.9834,0.2236-1.4072l-3.7783-5.2241
			l2.9863-0.7695c0.8621-0.2237,1.032-1.37,0.2764-1.8345L84.207,55.412c-0.7755-0.4786-1.7303,0.2397-1.5078,1.1035
			L85.9927,69.6254z"/>
	</g>
</g>
</svg>
