<?xml version="1.0" encoding="utf-8"?>
<!-- Generator: Adobe Illustrator 18.1.1, SVG Export Plug-In . SVG Version: 6.00 Build 0)  -->
<svg version="1.2" baseProfile="tiny" xmlns="http://www.w3.org/2000/svg" xmlns:xlink="http://www.w3.org/1999/xlink" x="0px"
	 y="0px" width="64px" height="64px" viewBox="0 0 64 64" xml:space="preserve">

<g id="Production">
	<g>
		<path fill="#ffffff" d="M53.6978,13H25.7446c-1.3745-1.9199-3.5503-4-6.5239-4h-8.8154C8.5596,9,7,10.5176,7,12.314v37.3926
			C7,51.4917,8.5596,53,10.4053,53h43.2925C55.5186,53,57,51.5225,57,49.7065V16.3145C57,14.4868,55.5186,13,53.6978,13z
			 M10.4053,11h8.8154c2.4354,0,4.1331,1.9988,5.4629,4h29.0142C54.416,15,55,15.5898,55,16.3145V19H9v-6.686
			C9,11.6138,9.6567,11,10.4053,11z M53.6978,51H10.4053C9.6567,51,9,50.3955,9,49.7065V21h46v28.7065
			C55,50.4316,54.4282,51,53.6978,51z"/>
		<polygon fill="#ffffff" points="33,41.4854 33,27 31,27 31,41.4854 24.6938,35.1792 23.2798,36.5933 32,45.3135 40.7202,36.5933 
			39.3062,35.1792 		"/>
	</g>
</g>
</svg>
