<?xml version="1.0" encoding="utf-8"?>
<!-- Generator: Adobe Illustrator 18.1.1, SVG Export Plug-In . SVG Version: 6.00 Build 0)  -->
<svg version="1.2" baseProfile="tiny" xmlns="http://www.w3.org/2000/svg" xmlns:xlink="http://www.w3.org/1999/xlink" x="0px"
	 y="0px" width="128px" height="128px" viewBox="0 0 128 128" xml:space="preserve">
<g id="_x31_28px_boxes">
	<rect fill="none" width="128" height="128"/>
</g>
<g id="Production">
	<g>
		<path fill="#ffffff" d="M40.8394,60.8926v0.1102c-0.4019,4.2847-3.1602,6.1207-7.7992,8.3956
			c-4.5051,2.2092-7.527,5.7665-8.5093,10.017c-0.8417,3.6405-3.0628,17.0639-3.4567,19.1429
			c-1.2136,6.4125,2.2165,10.6278,8.7367,10.6278h76.7571c6.5202,0,9.9499-4.2149,8.7366-10.6284
			c-0.3938-2.0783-2.615-15.5017-3.4566-19.1424c-0.9827-4.2505-4.0046-7.8079-8.5095-10.0169
			c-4.8482-2.3771-7.4973-4.328-7.7993-8.458v-0.0478H40.8394z M36.3614,89.7012c2.5325,0,4.5857,2.0531,4.5857,4.5858
			c0,2.5326-2.0532,4.5858-4.5857,4.5858c-2.5327,0-4.5859-2.0532-4.5859-4.5858C31.7755,91.7543,33.8287,89.7012,36.3614,89.7012z
			 M102.2806,89.7012c2.5325,0,4.5857,2.0531,4.5857,4.5858c0,2.5326-2.0532,4.5858-4.5857,4.5858
			c-2.5325,0-4.5857-2.0532-4.5857-4.5858C97.6949,91.7543,99.7481,89.7012,102.2806,89.7012z M93.5392,76.5173
			c2.5325,0,4.5859,2.0531,4.5859,4.5858c0,2.5326-2.0535,4.5858-4.5859,4.5858c-2.5325,0-4.5859-2.0532-4.5859-4.5858
			C88.9532,78.5704,91.0067,76.5173,93.5392,76.5173z M85.8009,89.7012c2.5324,0,4.5857,2.0531,4.5857,4.5858
			c0,2.5326-2.0532,4.5858-4.5857,4.5858c-2.5327,0-4.586-2.0532-4.586-4.5858C81.2149,91.7543,83.2682,89.7012,85.8009,89.7012z
			 M77.0594,76.5173c2.5325,0,4.5857,2.0531,4.5857,4.5858c0,2.5326-2.0532,4.5858-4.5857,4.5858s-4.5859-2.0532-4.5859-4.5858
			C72.4735,78.5704,74.5269,76.5173,77.0594,76.5173z M69.3209,89.7012c2.5327,0,4.5859,2.0531,4.5859,4.5858
			c0,2.5326-2.0532,4.5858-4.5859,4.5858c-2.5325,0-4.5857-2.0532-4.5857-4.5858C64.7352,91.7543,66.7884,89.7012,69.3209,89.7012z
			 M60.5795,76.5173c2.5324,0,4.5859,2.0531,4.5859,4.5858c0,2.5326-2.0535,4.5858-4.5859,4.5858
			c-2.5325,0-4.5858-2.0532-4.5858-4.5858C55.9937,78.5704,58.047,76.5173,60.5795,76.5173z M52.8412,89.7012
			c2.5324,0,4.5856,2.0531,4.5856,4.5858c0,2.5326-2.0532,4.5858-4.5856,4.5858c-2.5325,0-4.586-2.0532-4.586-4.5858
			C48.2552,91.7543,50.3087,89.7012,52.8412,89.7012z M48.6854,81.1031c0,2.5326-2.0532,4.5858-4.5857,4.5858
			c-2.5325,0-4.5859-2.0532-4.5859-4.5858c0-2.5327,2.0534-4.5858,4.5859-4.5858C46.6322,76.5173,48.6854,78.5704,48.6854,81.1031z"
			/>
		<path fill="#ffffff" d="M46.5366,36.7918V24.6101h43.3053v12.1817h5.7964V21.712c0-1.6005-1.2976-2.8981-2.8982-2.8981H43.6385
			c-1.6006,0-2.898,1.2976-2.898,2.8981v15.0798H46.5366z"/>
		<path fill="#ffffff" d="M105.909,52.9497c0,2.2767,1.7915,5.0716,5.0718,5.0716c2.801,0,5.0718-2.2706,5.0718-5.0716v-8.2151
			c0-2.801-2.2708-5.0716-5.0718-5.0716c-3.3506,0-5.0718,2.9096-5.0718,5.0716V52.9497z"/>
		<path fill="#ffffff" d="M37.0705,56.3926h63.1701c1.0356,0,1.875-0.8395,1.875-1.875V43.1668c0-1.0356-0.8394-1.875-1.875-1.875
			H36.1383c-1.4951,0-3.9237,0.3751-5.5317,2.4545c-12.3106,15.9196-4.4673,5.7769-18.0342,23.3213
			c-2.0869,2.6963,1.5072,6.1305,4.1074,3.9292c11.4866-9.7251,10.4607-6.16,16.3313-9.0002
			C34.8423,61.1105,36.2972,59.2558,37.0705,56.3926z"/>
	</g>
</g>
</svg>
