<?xml version="1.0" encoding="utf-8"?>
<!-- Generator: Adobe Illustrator 18.1.1, SVG Export Plug-In . SVG Version: 6.00 Build 0)  -->
<svg version="1.2" baseProfile="tiny" xmlns="http://www.w3.org/2000/svg" xmlns:xlink="http://www.w3.org/1999/xlink" x="0px"
	 y="0px" width="128px" height="128px" viewBox="0 0 128 128" xml:space="preserve">
<g id="_x31_28px_boxes">
	<rect fill="none" width="128" height="128"/>
</g>
<g id="Production">
	<g>
		<path fill="#ffffff" d="M12.6715,95.3832c-2.582,4.804-0.7807,10.7914,4.0232,13.3733
			c4.8045,2.5822,10.7915,0.7804,13.3734-4.0232l13.0058-24.1982l-17.1178-9.8683L12.6715,95.3832z"/>
		<path fill="#ffffff" d="M63.9606,19.1924c-0.3076-3.2133-2.1774-6.0504-4.9256-7.6237c-2.2506-1.0152-2.613,1.8509-2.653,3.9014
			v9.5164c1.476,0.8016,2.4804,2.3658,2.4804,4.1604s-1.0044,3.3587-2.4804,4.1604v4.3421c1.2716,0.7653,2.125,2.1547,2.125,3.747
			v10.666c0,2.4164-1.9588,4.375-4.375,4.375c-2.4163,0-4.375-1.9586-4.375-4.375v-10.666c0-1.5923,0.8534-2.9817,2.125-3.747
			v-4.3421c-1.476-0.8017-2.4804-2.3658-2.4804-4.1604s1.0044-3.3588,2.4804-4.1604v-9.9784
			c-0.0902-2.0268-0.5694-4.477-2.7608-3.3837c-2.7021,1.5881-4.5339,4.4072-4.8307,7.5928
			c-0.4171,2.8465-3.8263,23.9223-16.2071,47.4818l17.1218,9.8706c1.1785-2.219,2.2869-4.4191,3.3273-6.5905h11.1883
			c1.0414,2.1729,2.1504,4.3747,3.3299,6.5951l17.1219-9.8707C67.8668,43.2761,64.3829,22.0214,63.9606,19.1924z"/>
		<path fill="#ffffff" d="M114.5846,93.3505L96.83,60.6963c-3.0056-5.5233-0.9688-12.4253,4.5557-15.4309
			c2.5528-1.3892,5.4773-1.7451,8.2771-1.0208v-9.1673c-4.3095-0.6154-8.6848,0.1642-12.5786,2.2826
			c-9.8914,5.3816-13.5434,17.7432-8.1603,27.6367l17.7548,32.6542c1.7866,3.2836,0.5757,7.3874-2.7092,9.1748
			c-2.9442,1.602-6.565,0.7816-8.5628-1.7782c1.677-2.8711,1.8647-6.5209,0.1753-9.6642l-13.282-24.7119L65.182,80.5397
			l13.0034,24.1936c1.888,3.5127,5.671,5.5209,9.6121,5.1555c4.5295,6.5187,13.3555,8.7148,20.4731,4.8422
			C115.9225,110.568,118.7501,101.0052,114.5846,93.3505z"/>
	</g>
</g>
</svg>
