<?xml version="1.0" encoding="utf-8"?>

<svg version="1.2" baseProfile="tiny" xmlns="http://www.w3.org/2000/svg" xmlns:xlink="http://www.w3.org/1999/xlink" x="0px"
	 y="0px" width="64px" height="64px" viewBox="0 0 64 64" xml:space="preserve">

<g id="Production">
	<g>
		<path fill="#ffffff" d="M47.5286,5.8872L25.1236,28.3151L19.936,44.998l16.7367-5.1474L46,30.5451V54H12V12h23.5292
			c4.6058-5,3.7759-4,4.6848-5H7v52h44V25.5398l8.0805-8.12c2.5187-2.52,2.5032-6.6211-0.0155-9.142l-2.3955-2.39
			C54.1534,3.3676,50.0471,3.3656,47.5286,5.8872z M34.0019,35.4616l-4.9104,1.5127l-1.1123-1.1133l1.5226-4.8974l15.2064-15.2219
			l4.4991,4.499L34.0019,35.4616z M55.5376,13.9037l-2.796,2.7993l-4.5001-4.4985l2.7989-2.8012
			c0.5567-0.5576,1.5508-0.5581,2.1085,0.0005l2.3878,2.39C56.1079,12.3661,56.1079,13.3319,55.5376,13.9037z"/>
	</g>
</g>
</svg>
