<?xml version="1.0" encoding="utf-8"?>

<svg version="1.2" baseProfile="tiny" xmlns="http://www.w3.org/2000/svg" xmlns:xlink="http://www.w3.org/1999/xlink" x="0px"
	 y="0px" width="64px" height="64px" viewBox="0 0 64 64" xml:space="preserve">

<g id="Production">
	<g>
		<path fill="#ffffff" d="M48.9346,23.4502l-3.2891-4.1411l0.9517-11.6577c-1.0003-0.3795-2.7666-1.0505-3.999-1.3916
			c-2.1237-0.5886-3.4676,0.2345-5.0503,0.938c-0.6963,0.3154-1.5747,0.3154-2.271,0c-2.6951-1.2216-3.1929-1.523-6.5542,0
			c-0.6953,0.3154-1.6235,0.2915-2.2202,0.0239c-1.7518-0.9176-3.3007-1.5037-5.1875-0.9355
			c-1.3401,0.4047-2.9131,0.9882-3.9131,1.3594l0.9526,11.6626l-3.2896,4.1426C13.7139,25.1523,13,27.1558,13,29.2437V57h38V29.2441
			C51,27.1548,50.2856,25.1514,48.9346,23.4502z M49,55H15V29.2437c0-1.6318,0.564-3.2051,1.6313-4.5493l3.7808-4.7612L19.519,8.999
			c3.3904-1.2142,3.4446-1.2851,6.1084,0.02c1.2109,0.5488,2.71,0.5488,3.9209,0c2.3542-1.0671,2.262-1.1972,4.9033,0
			c1.2109,0.5488,2.7144,0.5469,3.9175,0.002c2.6239-1.1659,2.4154-1.3744,6.1118-0.0273l-0.8931,10.9404l3.7803,4.7603
			C48.4355,26.0381,49,27.6113,49,29.2441V55z"/>
		<path fill="#ffffff" d="M32,30.1004c-1.7017,4.3205-5.5917,7.5812-6.6908,10.454c-0.9792,2.5594,0.3158,6.7825,4.6261,7.817
			c-1.3353-0.8786-1.7128-2.5602-1.3088-3.6649c0.5541-1.5152,2.5154-3.235,3.3735-5.5137
			c0.8581,2.2787,2.8194,3.9985,3.3735,5.5137c0.4041,1.1047,0.0266,2.7861-1.3087,3.6648c4.3101-1.0345,5.6052-5.2576,4.626-7.817
			C37.5918,37.6816,33.7018,34.4209,32,30.1004z"/>
		<rect x="23" y="18" fill="#ffffff" width="4" height="2"/>
		<rect x="30" y="18" fill="#ffffff" width="4" height="2"/>
		<rect x="37" y="18" fill="#ffffff" width="4" height="2"/>
	</g>
</g>
</svg>
