<?xml version="1.0" encoding="utf-8"?>

<svg version="1.2" baseProfile="tiny" xmlns="http://www.w3.org/2000/svg" xmlns:xlink="http://www.w3.org/1999/xlink" x="0px"
	 y="0px" width="128px" height="128px" viewBox="0 0 128 128" xml:space="preserve">
<g id="_x31_28px_boxes">
	<rect fill="none" width="128" height="128"/>
</g>
<g id="Production">
	<g>
		<path fill="#ffffff" d="M92.5,17h-58c-1.9331,0-3.5,1.567-3.5,3.5c0,13.696,0.0015,87.1949,0.0049,87.1975
			c0.0127,0.8908,0.4446,1.6741,1.0972,2.186c0,0.0053,0.0014,0.0101,0.0014,0.0154l3.043,2.3789
			c1.6465,1.2843,3.9431,1.2453,5.542-0.0019c3.4231-2.6766,2.6228-2.0508,3.623-2.833c1,0.7815,0.4507,0.3523,3.627,2.8349
			c1.6318,1.2735,3.9082,1.272,5.542-0.0019c3.4231-2.6766,2.6228-2.0508,3.623-2.833c1,0.7815,0.4507,0.3523,3.627,2.8349
			c1.6328,1.2735,3.9101,1.273,5.541-0.0019c3.5986-2.8125,2.6802-2.0947,3.625-2.833c1.051,0.8216,0.5107,0.3992,3.626,2.8349
			c1.6318,1.2735,3.9091,1.273,5.541-0.0019c3.5986-2.8125,2.6802-2.0947,3.625-2.833c1.051,0.8216,0.5107,0.3992,3.626,2.8349
			c1.5898,1.2406,3.8754,1.2989,5.541-0.0019l3.0456-2.3808c0-0.0074,0.002-0.0142,0.0022-0.0216
			c0.6526-0.5119,1.0796-1.2953,1.0921-2.186C95.9968,107.6863,96,29.6939,96,20.5C96,18.567,94.4331,17,92.5,17z M89,105.4919
			l-6.3115-4.9348l-6.3965,5.0005l-6.3955-5.0005L63.5,105.5576l-6.3965-5.0005l-6.3955,5.0005l-6.3965-5.0005L38,105.4919V24h51
			V105.4919z"/>
		<rect x="48" y="64" fill="#ffffff" width="31" height="7"/>
		<rect x="62" y="77" fill="#ffffff" width="17" height="7"/>
		<rect x="48" y="51" fill="#ffffff" width="31" height="7"/>
		<rect x="48" y="38" fill="#ffffff" width="31" height="7"/>
	</g>
</g>
</svg>
