<?xml version="1.0" encoding="utf-8"?>
<!-- Generator: Adobe Illustrator 18.1.1, SVG Export Plug-In . SVG Version: 6.00 Build 0)  -->
<svg version="1.2" baseProfile="tiny" xmlns="http://www.w3.org/2000/svg" xmlns:xlink="http://www.w3.org/1999/xlink" x="0px"
	 y="0px" width="128px" height="128px" viewBox="0 0 128 128" xml:space="preserve">
<g id="_x31_28px_boxes">
	<rect fill="none" width="128" height="128"/>
</g>
<g id="Production">
	<g>
		<path fill="#ffffff" d="M109.4878,21.0963c-8.3869-1.2895-16.2312,4.4639-17.5205,12.8508
			c-0.7346,4.7757,0.8167,9.3733,3.835,12.6872c4.5305-6.861,8.1057-12.2975,8.1963-12.4352
			c1.1557-1.7573,3.5178-2.2463,5.2758-1.0902c1.7581,1.1561,2.2461,3.5182,1.0904,5.2763
			c-0.3616,0.5497-3.8333,5.8288-8.1919,12.4299c9.1274,3.1147,18.7202-2.7993,20.166-12.1974
			C123.6282,30.2314,117.875,22.3859,109.4878,21.0963z"/>
		<path fill="#ffffff" d="M48.4002,59.0829c-2.8021,0-5.0818,2.2798-5.0818,5.0818c0,2.8023,2.2797,5.0818,5.0818,5.0818
			s5.0818-2.2795,5.0818-5.0818C53.482,61.3627,51.2023,59.0829,48.4002,59.0829z"/>
		<path fill="#ffffff" d="M70.3699,88.796c-4.2214,1.4773-14.0399,3.8211-14.4558,3.9202
			c-2.0509,0.4875-4.1016-0.7796-4.5884-2.8233c-0.4874-2.0466,0.7766-4.1008,2.8233-4.5883c0.098-0.0235,9.8515-2.3517,13.7043-3.7
			c3.4746-1.216,6.2593-2.8461,9.4004-7.2087c1.6438-2.283,7.3462-10.8369,13.0657-19.4707
			c-4.2266-19.2624-21.3875-33.6804-41.9187-33.6804c-23.7039,0-42.9202,19.216-42.9202,42.9199
			c0,23.7041,19.2163,42.9197,42.9202,42.9197c22.625,0,41.1599-17.5071,42.7998-39.7136
			c-3.6014,5.4045-6.605,9.8675-7.7637,11.4767C78.8897,85.163,74.4693,87.3611,70.3699,88.796z M48.4002,79.4628
			c-8.4355,0-15.2981-6.8628-15.2981-15.2981s6.8626-15.2981,15.2981-15.2981c8.4354,0,15.2981,6.8628,15.2981,15.2981
			S56.8356,79.4628,48.4002,79.4628z"/>
	</g>
</g>
</svg>
