<?xml version="1.0" encoding="utf-8"?>
<!-- Generator: Adobe Illustrator 18.1.1, SVG Export Plug-In . SVG Version: 6.00 Build 0)  -->
<svg version="1.2" baseProfile="tiny" xmlns="http://www.w3.org/2000/svg" xmlns:xlink="http://www.w3.org/1999/xlink" x="0px"
	 y="0px" width="128px" height="128px" viewBox="0 0 128 128" xml:space="preserve">
<g id="_x31_28px_boxes">
	<rect fill="none" width="128" height="128"/>
</g>
<g id="Production">
	<path fill="#ffffff" d="M95.8572,47.1553c-1.1327-1.1245-2.6532-2.6446-4.3656-4.3609l8.058-8.0609l-13.271-13.2721l-8.0226,8.0224
		c-2.1754-2.1913-3.7128-3.7401-3.973-3.9984c-1.0646-1.06-2.2608-1.5049-3.923-1.5049
		c-1.6621,0.0009-26.2417,0.0009-26.2417,0.0009c-12.291-0.0009-15.6665,9.0323-15.6679,17.4389l0.0005,60.2809
		c0,2.6714,2.165,4.8363,4.8374,4.8374l59.7691-0.0011c2.6723,0.0005,4.8374-2.1649,4.8374-4.8358c0,0-0.001-48.0849,0-49.9316
		C97.8948,49.9219,97.2488,48.5361,95.8572,47.1553z M39.2341,36.7231c0-2.8754,2.33-5.2036,5.2055-5.2041l20.8169,0.0005
		c2.8745-0.0005,5.2041,2.3286,5.2046,5.2036c0,2.875-2.3296,5.2052-5.2051,5.2037l-20.8173,0.0015
		C41.5646,41.9272,39.2336,39.5967,39.2341,36.7231z M84.033,90.374c1.3192,1.3194,1.3192,3.458,0,4.7774
		c-1.32,1.3199-3.4579,1.3194-4.7774,0L63.009,78.9047L46.7625,95.1514c-1.32,1.3199-3.458,1.3194-4.7775,0
		c-1.3192-1.3194-1.3192-3.458,0-4.7774l16.2466-16.2466L41.985,57.8809c-1.3192-1.3194-1.3192-3.458,0-4.7773
		c1.3194-1.3194,3.4581-1.3194,4.7775,0L63.009,69.35l16.2466-16.2464c1.3194-1.3194,3.4581-1.3194,4.7774,0
		c1.3192,1.3193,1.3192,3.4579,0,4.7773L67.7864,74.1274L84.033,90.374z"/>
</g>
</svg>
