<?xml version="1.0" encoding="utf-8"?>
<!-- Generator: Adobe Illustrator 18.1.1, SVG Export Plug-In . SVG Version: 6.00 Build 0)  -->
<svg version="1.2" baseProfile="tiny" xmlns="http://www.w3.org/2000/svg" xmlns:xlink="http://www.w3.org/1999/xlink" x="0px"
	 y="0px" width="128px" height="128px" viewBox="0 0 128 128" xml:space="preserve">
<g id="_x31_28px_boxes">
	<rect fill="none" width="128" height="128"/>
</g>
<g id="Production">
	<g>
		<path fill="#ffffff" d="M53.1687,47.6524c0,10.864,7.394,13.5508,7.394,19.0523c0,5.5014-4.6094,16.7802-4.6094,39.9685
			c0,3.7566,3.3443,6.749,7.472,6.749c4.1195,0,7.5733-3.0193,7.5733-6.749c0-8.0592,0-79.0438,0-87.8174
			C70.9986,6.941,53.1687,20.992,53.1687,47.6524z"/>
		<path fill="#ffffff" d="M40.8227,19.2977c-1.5763,0-2.8523,1.2732-2.8523,2.8489v20.5813l-4.3963,0.0026V22.1441
			c0-1.5732-1.2754-2.8491-2.8421-2.8491c-1.5766,0-2.8518,1.2759-2.8518,2.8491v20.5864h-4.3985v-0.0026V22.1466
			c0-1.5757-1.276-2.8489-2.8448-2.8489c-1.5694,0-2.8426,1.2732-2.8426,2.8489l-0.0067,20.5813
			c0.036,5.1894,3.4798,9.3727,8.1623,11.1062c0,0-2.6888,30.2292-2.6888,52.5986c0,3.7852,3.3437,6.9895,7.4709,6.9895
			c4.1247,0,7.469-3.2078,7.469-6.9895c0-22.3694-2.6844-52.6008-2.6844-52.6008c4.6803-1.7337,8.1186-5.9173,8.1479-11.104V22.1466
			C43.6645,20.5709,42.3913,19.2977,40.8227,19.2977z"/>
		<path fill="#ffffff" d="M110.2124,36.6324c0-10.2483-6.0932-18.5564-13.6095-18.5564c-7.5166,0-13.6101,8.3081-13.6101,18.5564
			c0,7.9436,3.6621,14.7182,8.8089,17.365c-0.2091,2.375-2.6745,30.8562-2.6745,52.4353c0,3.6042,3.3437,6.9895,7.4712,6.9895
			c4.1245,0,7.4688-3.1651,7.4688-6.9895c0-21.5608-2.4571-50.0142-2.6695-52.4319
			C106.5478,51.3563,110.2124,44.5792,110.2124,36.6324z"/>
	</g>
</g>
</svg>
