<?xml version="1.0" encoding="utf-8"?>
<!-- Generator: Adobe Illustrator 18.1.1, SVG Export Plug-In . SVG Version: 6.00 Build 0)  -->
<svg version="1.2" baseProfile="tiny" xmlns="http://www.w3.org/2000/svg" xmlns:xlink="http://www.w3.org/1999/xlink" x="0px"
	 y="0px" width="128px" height="128px" viewBox="0 0 128 128" xml:space="preserve">
<g id="_x31_28px_boxes">
	<rect fill="none" width="128" height="128"/>
</g>
<g id="Production">
	<g>
		<path fill="#ffffff" d="M84.9663,80.3366c0.196,0.8855,0.3527,1.7521,0.5074,2.5744c0.727,3.8657-4.2088,5.0339-5.1637,2.06
			c-0.6112-1.9038-1.5467-4.8225-2.5244-7.8749l22.2608-4.919c0.9917-0.2829,1.605-1.2909,1.3799-2.3114L87.9585,8.8397
			c-0.2344-1.0616-1.2854-1.7293-2.3432-1.496L38.5921,17.7213c-1.0598,0.234-1.73,1.2832-1.4961,2.3434l13.5797,61.373
			c0.4222,0.9932,1.4499,1.3208,2.2316,1.1488l3.8338-0.8461l4.7548-22.7999c1.614-5.3201,9.5446-4.4057,9.7981,0.6576
			l-0.0025,21.6058c7.8981,20.8211,2.3331,23.4406-4.6266,32.1158H49.0701c0,0,0.0776-3.9679-2.2155-10.768
			c-2.2928-6.7999-12.6147-15.357-12.9381-22.4778c-0.1595-3.5067,3.6313-11.1107,7.6095-18.0604l-2.3353-10.5089
			c-4.8477,7.8689-12.9878,21.4767-12.6495,28.9049c-0.014,8.7838,11.8261,20.0338,13.3173,24.5011
			c2.6956,7.9929,1.5857,7.9812,1.4427,15.7921h28.906c7.8335-9.6598,13.6385-14.457,12.0671-26.7832
			c1.6862,0.0665,5.5487-0.2429,8.3512-3.5579c3.2671-3.8643,2.2948-8.2525,1.5502-11.616L84.9663,80.3366z"/>
	</g>
</g>
</svg>
