<?xml version="1.0" encoding="utf-8"?>
<!-- Generator: Adobe Illustrator 18.1.1, SVG Export Plug-In . SVG Version: 6.00 Build 0)  -->
<svg version="1.2" baseProfile="tiny" xmlns="http://www.w3.org/2000/svg" xmlns:xlink="http://www.w3.org/1999/xlink" x="0px"
	 y="0px" width="128px" height="128px" viewBox="0 0 128 128" xml:space="preserve">
<g id="_x31_28px_boxes">
	<rect fill="none" width="128" height="128"/>
</g>
<g id="Production">
	<g>
		<path fill="#ffffff" d="M35.3044,24.25h1.3168L57.157,39.7224v2.106c0,1.3342,1.0815,2.4157,2.416,2.4157h8.656
			c1.3342,0,2.4157-1.0815,2.4157-2.4157v-2.106L91.1804,24.25h1.3166c2.4627,0,4.4588-1.9963,4.4588-4.4587
			c0-2.4627-1.9961-4.4588-4.4588-4.4588H35.3044c-2.4625,0-4.4587,1.9961-4.4587,4.4588
			C30.8457,22.2537,32.8419,24.25,35.3044,24.25z M80.088,24.25l-9.4433,7.1145v-0.6638c0-1.3345-1.0815-2.416-2.4157-2.416h-8.656
			c-1.3345,0-2.416,1.0815-2.416,2.416v0.6638L47.7141,24.25H80.088z"/>
		<path fill="#ffffff" d="M106.6416,64.5696h-8.5574c-1.3037,0-2.3603,1.0566-2.3603,2.3603v6.3013h-9.357
			c-5.8955-8.1603-13.9039-8.8688-13.6838-12.7541c0.2095-3.6902,4.9162-3.3265,4.9923-3.3457c2.5199,0,4.5629-2.043,4.5629-4.563
			c0-2.5201-2.043-4.563-4.5629-4.563h-27.549c-2.52,0-4.5629,2.0429-4.5629,4.563c0,2.52,2.0429,4.563,4.5629,4.563
			c0.0757,0.0192,4.778-0.3445,4.9871,3.3457c0.2206,3.8812-7.7501,4.5464-13.6787,12.7541h-9.1587v-6.3013
			c0-1.3037-1.0566-2.3603-2.3604-2.3603h-8.5571c-1.3037,0-2.3606,1.0566-2.3606,2.3603v40.4908
			c0,1.3037,1.0569,2.3606,2.3606,2.3606h8.5571c1.3038,0,2.3604-1.0569,2.3604-2.3606v-6.3016h8.8894
			c4.8274,6.9502,13.2063,11.5484,22.7356,11.5484c9.529,0,17.9076-4.5982,22.7346-11.5484h9.0882v6.3016
			c0,1.3037,1.0566,2.3606,2.3603,2.3606h8.5574c1.3037,0,2.3604-1.0569,2.3604-2.3606V66.9299
			C109.002,65.6262,107.9453,64.5696,106.6416,64.5696z"/>
	</g>
</g>
</svg>
