<?xml version="1.0" encoding="utf-8"?>
<!-- Generator: Adobe Illustrator 18.1.1, SVG Export Plug-In . SVG Version: 6.00 Build 0)  -->
<svg version="1.2" baseProfile="tiny" xmlns="http://www.w3.org/2000/svg" xmlns:xlink="http://www.w3.org/1999/xlink" x="0px"
	 y="0px" width="64px" height="64px" viewBox="0 0 64 64" xml:space="preserve">

<g id="Production">
	<g>
		<path fill="#ffffff" d="M46.5117,7.0884H32.8701L3.5859,36.3726l24.0415,24.0415l29.2842-29.2842V17.4883
			C56.9116,11.7539,52.2461,7.0884,46.5117,7.0884z M55,30.3018L27.6274,57.5859L6.4141,36.3726L33.6982,9h12.8135
			C51.1436,9,55,12.8564,55,17.4883V30.3018z"/>
		<path fill="#ffffff" d="M46.5,13c-2.4814,0-4.45,2.0186-4.45,4.5S44.0186,22,46.5,22s4.5-2.0186,4.5-4.5S48.9814,13,46.5,13z
			 M46.5,20c-1.3784,0-2.5-1.1216-2.5-2.5s1.1216-2.5,2.5-2.5s2.5,1.1216,2.5,2.5S47.8784,20,46.5,20z"/>
	</g>
</g>
</svg>
