<?xml version="1.0" encoding="utf-8"?>

<svg version="1.2" baseProfile="tiny" xmlns="http://www.w3.org/2000/svg" xmlns:xlink="http://www.w3.org/1999/xlink" x="0px"
	 y="0px" width="64px" height="64px" viewBox="0 0 64 64" xml:space="preserve">

<g id="Production">
	<path fill="#ffffff" d="M45.479,9.4614C42.2129,5.9395,37.4258,4,31.9995,4C26.5737,4,21.7871,5.9395,18.521,9.4609
		c-3.2866,3.5435-4.8691,8.522-4.4551,14.0181c0.8561,11.3687,9.0872,18.9772,15.0637,20.9866L26.335,50H31v9h2v-9h4.6655
		l-2.7911-5.5263c2.6232-0.8611,5.5255-2.7455,7.9908-5.2979c4.1172-4.2617,6.6274-9.8364,7.0684-15.6968
		C50.3477,17.9829,48.7656,13.0049,45.479,9.4614z M34.4146,48H29.585l1.5464-3.0621C31.431,44.9753,31.7232,45,31.9995,45
		c0.2769,0,0.5713-0.0392,0.8633-0.0732L34.4146,48z M47.9395,23.3286C47.0352,35.3394,36.9644,43,31.9995,43
		c-4.9644,0-15.0347-7.6606-15.9395-19.6714c-0.3716-4.9351,1.0229-9.377,3.9272-12.5078C22.8706,7.7119,27.1367,6,31.9995,6
		c4.8633,0,9.1299,1.7124,12.0132,4.8213C46.9165,13.9521,48.311,18.394,47.9395,23.3286z"/>
</g>
</svg>
