<?xml version="1.0" encoding="utf-8"?>
<!-- Generator: Adobe Illustrator 17.1.0, SVG Export Plug-In . SVG Version: 6.00 Build 0)  -->
<!DOCTYPE svg [
	<!ENTITY ns_flows "http://ns.adobe.com/Flows/1.0/">
	<!ENTITY ns_extend "http://ns.adobe.com/Extensibility/1.0/">
	<!ENTITY ns_ai "http://ns.adobe.com/AdobeIllustrator/10.0/">
	<!ENTITY ns_graphs "http://ns.adobe.com/Graphs/1.0/">
]>
<svg version="1.2" baseProfile="tiny" xmlns:x="&ns_extend;" xmlns:i="&ns_ai;" xmlns:graph="&ns_graphs;"
	 xmlns="http://www.w3.org/2000/svg" xmlns:xlink="http://www.w3.org/1999/xlink" xmlns:a="http://ns.adobe.com/AdobeSVGViewerExtensions/3.0/"
	 x="0px" y="0px" width="128px" height="128px" viewBox="0 0 128 128" xml:space="preserve">
<g id="_x31_28px_boxes">
	<rect fill="none" width="128" height="128"/>
</g>
<g id="Production">
	<g>
		<polygon fill="#ffffff" points="68.7546,94.7862 43.3875,94.7862 43.3875,108.4046 18.0205,108.4046 18.0205,116.3319 
			51.3147,116.3319 51.3147,102.7135 76.6819,102.7135 76.6819,89.4049 102.0488,89.4049 102.0488,81.4776 68.7546,81.4776 		"/>
		<path fill="#ffffff" d="M28.3523,59.6102c-0.5481-5.7412-0.5498-11.9104-0.0095-13.1909c0.5644-1.19,3.3403-3.9617,6.1272-6.397
			c-0.7881,5.1582-1.9656,13.113-2.6416,17.2319c-0.493,3.0012-0.2552,3.5341,1.6667,21.3347L26.6675,96.796
			c-0.8777,2.3403,0.3081,4.9492,2.6487,5.8269c2.342,0.8777,4.9497-0.3094,5.8269-2.6487l7.2053-19.2144
			c0.2483-0.6623,0.3381-1.3738,0.2617-2.0771L40.957,63.439l9.4234,8.4034l-2.502,11.6157
			c-0.5261,2.4433,1.0281,4.851,3.4717,5.3774c2.4463,0.5263,4.8516-1.0306,5.3774-3.4717l3.0567-14.1924
			c0.3432-1.5925-0.1963-3.2465-1.4121-4.3307l-10.7764-9.6101l1.8462-11.2552c1.0474,2.0032,2.3664,4.1179,4.0747,6.0108
			c4.9929,5.5329,11.2371,7.8727,11.5002,7.9697c1.6758,0.616,3.5296-0.2408,4.1512-1.9143
			c0.6218-1.6739-0.2325-3.5369-1.9043-4.1636c-0.0501-0.0188-5.0508-1.927-8.9363-6.2331
			c-6.7424-7.4707-3.7129-14.0676-13.0552-16.2481c-3.5329-0.8242-8.7724-0.7766-12.8406,1.894
			c-2.1445,1.408-8.3315,6.9524-9.9436,10.3521c-1.6318,3.4414-0.9536,12.7441-0.5861,16.584
			C22.3147,64.5433,28.7588,63.871,28.3523,59.6102z"/>
		<path fill="#ffffff" d="M43.4795,28.149c4.3284,1.9934,9.457,0.1065,11.4553-4.2376c1.9768-4.3334,0.072-9.4626-4.2532-11.4555
			c-4.3393-1.9866-9.4751-0.0869-11.4511,4.2502C37.2419,21.0389,39.1377,26.1575,43.4795,28.149z"/>
		<path fill="#ffffff" d="M109.9795,52.8057v0.0004C109.9795,52.8066,109.9795,52.8057,109.9795,52.8057z"/>
		<path fill="#ffffff" d="M107.5244,21.0719H78.2405c-2.1741,0-3.2749,2.6397-1.7324,4.1823l6.614,6.614l-7.7744,7.7749
			c-0.8521,0.8519-0.8521,2.2332,0,3.085l12.9704,12.9704c0.8521,0.8522,2.2332,0.8523,3.0852,0l7.7747-7.7743l6.614,6.614
			c1.5298,1.5296,4.187,0.4576,4.1875-1.7321c-0.0005-0.0104-0.0049-0.8134-0.0051-29.2843
			C109.9744,22.1688,108.8774,21.0719,107.5244,21.0719z"/>
	</g>
</g>
</svg>
