<?xml version="1.0" encoding="utf-8"?>
<!-- Generator: Adobe Illustrator 18.1.1, SVG Export Plug-In . SVG Version: 6.00 Build 0)  -->
<svg version="1.2" baseProfile="tiny" xmlns="http://www.w3.org/2000/svg" xmlns:xlink="http://www.w3.org/1999/xlink" x="0px"
	 y="0px" width="128px" height="128px" viewBox="0 0 128 128" xml:space="preserve">
<g id="_x31_28px_boxes">
	<rect fill="none" width="128" height="128"/>
</g>
<g id="Production">
	<g>
		<polygon fill="#ffffff" points="77.9813,75.2686 75.224,66.6228 52.7757,66.6228 50.0184,75.2686 		"/>
		<polygon fill="#ffffff" points="82.1734,88.4144 79.4163,79.7686 48.5833,79.7686 45.8263,88.4144 		"/>
		<polygon fill="#ffffff" points="73.7889,62.1228 71.1537,53.8585 56.846,53.8585 54.2108,62.1228 		"/>
		<path fill="#ffffff" d="M123.838,100.1817l-1.7092-11.2084c-0.1336-0.8761-0.7002-1.6258-1.5069-1.9932l-9.384-4.275
			l-1.4951-9.8049c-0.1336-0.876-0.7002-1.6255-1.5069-1.993l-9.3855-4.2754l-1.4948-9.8041
			c-0.1336-0.8762-0.7003-1.6257-1.5069-1.9931c0,0-11.0217-4.9988-11.2014-5.0383V27.5584c0-1.525-1.2361-2.7608-2.7607-2.7608
			h-35.773c-1.5247,0-2.7607,1.2358-2.7607,2.7608v22.2379c-0.1799,0.0395-11.2019,5.0383-11.2019,5.0383
			c-0.8067,0.3673-1.3733,1.1169-1.5069,1.9931l-1.4948,9.8041l-9.385,4.2754c-0.8067,0.3675-1.3734,1.117-1.5069,1.993
			l-1.4951,9.8049l-9.3843,4.275c-0.8066,0.3674-1.3733,1.1171-1.5068,1.9932L4.162,100.1817
			c-0.2423,1.587,0.9877,3.0207,2.5949,3.0207h29.6304L53.0585,50.925c0.2973-0.933,1.1642-1.5665,2.1435-1.5665h4.4792V38.2833
			h8.6373v11.0752h4.4792c0.9792,0,1.8462,0.6335,2.1436,1.5665l16.6711,52.2774h29.6306
			C122.8481,103.2024,124.0804,101.7708,123.838,100.1817z"/>
		<polygon fill="#ffffff" points="83.6085,92.9144 44.3912,92.9144 41.1105,103.2024 86.8893,103.2024 		"/>
	</g>
</g>
</svg>

