<?xml version="1.0" encoding="utf-8"?>

<svg version="1.2" baseProfile="tiny" xmlns="http://www.w3.org/2000/svg" xmlns:xlink="http://www.w3.org/1999/xlink" x="0px"
	 y="0px" width="128px" height="128px" viewBox="0 0 128 128" xml:space="preserve">
<g id="_x31_28px_boxes">
	<rect fill="none" width="128" height="128"/>
</g>
<g id="Production">
	<g>
		<path fill="#ffffff" d="M48.9243,72.7769c-10.5383-12.3968-9.99-31.347-1.1999-40.0827c0,0-3.7166-3.467-9.6512-3.4151
			c-15.485,0-20.0275,19.3666-11.1394,31.9702c0.574,1.0823,3.5533,3.8739,2.9026,5.9649c-0.6176,1.9852-4.5805,3.721-9.844,5.5039
			C5.374,77.6695,6.6838,85.2329,6.6838,88.6609h17.8296C28.5735,78.8855,43.1993,75.5065,48.9243,72.7769z"/>
		<path fill="#ffffff" d="M107.8889,72.681c-13.1839-4.5987-10.5141-6.2825-7.1201-11.024
			c9.2283-12.4496,4.9076-32.3779-10.8418-32.3779c-6.0129,0-9.6504,3.4151-9.6504,3.4151
			c7.2099,6.7713,10.9558,24.3818-1.2156,40.0825c5.7678,3.0595,19.3808,5.2549,24.4258,15.8842h17.8294v-3.1108
			C121.3162,78.4949,113.009,74.4061,107.8889,72.681z"/>
		<path fill="#ffffff" d="M73.5071,72.1287c0.4521-1.1938,1.541-2.3989,2.8891-4.2822
			c10.7442-14.4948,5.3135-37.0176-12.3957-37.0176c-17.2769,0-23.1409,21.5755-12.7234,36.5767
			c2.2378,3.216,3.9044,4.5552,3.3062,6.7949c-1.2914,4.8421-17.9851,6.0458-24.1622,14.4604
			c-2.6873,3.6612-2.3083,6.0803-2.3083,10.0606h71.7751c0-3.9187,0.385-6.5096-2.3178-10.0606
			C90.0456,78.7791,70.8096,79.2566,73.5071,72.1287z"/>
	</g>
</g>
</svg>
