<?xml version="1.0" encoding="utf-8"?>
<!-- Generator: Adobe Illustrator 18.1.1, SVG Export Plug-In . SVG Version: 6.00 Build 0)  -->
<svg version="1.2" baseProfile="tiny" xmlns="http://www.w3.org/2000/svg" xmlns:xlink="http://www.w3.org/1999/xlink" x="0px"
	 y="0px" width="128px" height="128px" viewBox="0 0 128 128" xml:space="preserve">
<g id="box">
	<rect fill="none" width="128" height="128"/>
</g>
<g id="Production">
	<g>
		<path fill="#ffffff" d="M9.6013,105.3204c-0.7268,2.664,0.8438,5.4126,3.5081,6.1391c2.6692,0.728,5.4139-0.8502,6.1394-3.5102
			l4.1855-15.3472h24.5003L30.7485,27.7857L9.6013,105.3204z"/>
		<path fill="#ffffff" d="M118.408,105.3546L95.8337,20.1387c-0.581-2.1923-2.5649-3.7866-4.833-3.7866H40.457
			c-3.0958,0-5.7091,3.0781-4.833,6.3831l22.5745,85.165c0.7151,2.6974,3.4773,4.2632,6.1142,3.5642
			c2.6692-0.7075,4.2596-3.4221,3.5518-6.0913l-3.3257-12.521h40.1983l4.0048,15.0855c0.7076,2.6694,3.4454,4.2487,6.1143,3.5415
			C117.5254,110.7715,119.1157,108.0237,118.408,105.3546z M61.8877,82.8521l-14.9324-56.5h40.1983l14.9321,56.5H61.8877z"/>
	</g>
</g>
</svg>
