<?xml version="1.0" encoding="utf-8"?>
<!-- Generator: Adobe Illustrator 18.1.1, SVG Export Plug-In . SVG Version: 6.00 Build 0)  -->
<svg version="1.2" baseProfile="tiny" xmlns="http://www.w3.org/2000/svg" xmlns:xlink="http://www.w3.org/1999/xlink" x="0px"
	 y="0px" width="128px" height="128px" viewBox="0 0 128 128" xml:space="preserve">
<g id="box">
	<rect fill="none" width="128" height="128"/>
</g>
<g id="Production">
	<g>
		<path fill="#ffffff" d="M44.2102,43.5932c2.2517,0,4.077-1.8175,4.077-4.0746V26.3033c0-2.2571-1.8253-4.0694-4.077-4.0746
			c-2.2441,0.0052-4.0693,1.8175-4.0771,4.0746v13.2153C40.1331,41.7757,41.9661,43.5932,44.2102,43.5932z"/>
		<path fill="#ffffff" d="M83.5637,43.5982c2.2517-0.0074,4.0742-1.8303,4.0742-4.082V26.3005c0-2.2465-1.8225-4.0692-4.0742-4.0692
			c-2.2441,0-4.0693,1.8227-4.0771,4.0692v13.2157C79.4866,41.7679,81.3118,43.5982,83.5637,43.5982z"/>
		<path fill="#ffffff" d="M51.3591,77.8262c-2.2467,1.4139-5.0744,2.9125-7.568,5.0745c-2.8713,2.4548-4.4908,5.9482-4.5344,9.6472
			h23.2485v-5.9895H48.7396c1.8715-1.8275,3.0358-2.5344,5.2389-3.9073c4.2415-2.6193,8.2338-4.6989,8.2338-10.2723
			c0-6.195-5.1156-9.1899-10.8532-9.1899c-7.2363,0-11.8095,4.8663-11.3955,12.0588h6.614
			c0.0413-3.1593,1.0797-5.8634,4.8225-5.8634c2.2468,0,3.743,1.3726,3.743,3.6194C55.1431,74.9573,53.562,76.3712,51.3591,77.8262z
			"/>
		<path fill="#ffffff" d="M102.7302,31.9225H92.1548v7.5911c0,4.7504-3.8457,8.591-8.5886,8.6063
			c-4.7608,0-8.5962-3.8635-8.5962-8.6063v-7.5911H52.8114v7.5937c-0.0103,4.758-3.8584,8.5937-8.6038,8.6012
			c-4.7375-0.0075-8.5963-3.8354-8.6013-8.6012v-7.5937H25.2699c-1.777,0-3.203,1.4556-3.203,3.2083v67.4351
			c0,1.7511,1.4347,3.2054,3.203,3.2054h77.4603c1.7329,0,3.2029-1.3914,3.2029-3.2054V35.1308
			C105.9331,33.332,104.4818,31.9225,102.7302,31.9225z M99.5298,99.3629H28.4729V56.9012h71.0569V99.3629z"/>
		<path fill="#ffffff" d="M77.2192,92.9233c6.3111,0,11.5938-3.7864,11.5938-10.6884c0-5.2801-4.072-9.5655-9.3958-9.5655
			c-2.7429,0-5.3134,0.6684-6.7658,3.0771h-0.0847c0.1669-3.2853,1.7016-7.3596,5.7734-7.3596c0.6221,0,1.3677,0.0822,2.031,0.4574
			c0.6658,0.4165,1.2053,1.0823,1.4575,2.2468h6.6091c-0.9128-5.2826-4.9484-7.9022-10.0976-7.9022
			c-8.7632,0-12.668,6.9459-12.668,15.0537C65.6721,85.6459,68.6643,92.9233,77.2192,92.9233z M77.2605,77.8674
			c3.1951,0,4.9407,2.1644,4.9407,4.8685c0,2.3704-1.9561,4.4474-4.9021,4.4474c-2.7427,0-4.5655-1.995-4.5655-4.4911
			C72.7336,80.0318,74.5999,77.8674,77.2605,77.8674z"/>
	</g>
</g>
</svg>
