<?xml version="1.0" encoding="utf-8"?>
<!-- Generator: Adobe Illustrator 18.1.1, SVG Export Plug-In . SVG Version: 6.00 Build 0)  -->
<svg version="1.2" baseProfile="tiny" xmlns="http://www.w3.org/2000/svg" xmlns:xlink="http://www.w3.org/1999/xlink" x="0px"
	 y="0px" width="64px" height="64px" viewBox="0 0 64 64" xml:space="preserve">

<g id="Production">
	<g>
		<path fill="#ffffff" d="M61,13H3c-1.6543,0-3,1.3457-3,3v4c0,1.6543,1.3457,3,3,3h1c0-0.382,0-0.6447,0-0.8262
			c0-0.2548,0-0.3458,0-0.3477C4,21.6446,4,21.382,4,21c-1.0015,0-2,0.1037-2-1v-4c0-0.5513,0.4487-1,1-1h58c0.5513,0,1,0.4487,1,1
			v4c0,1.1035-0.9996,1-2,1c0,0.382,0,0.6446,0,0.8261c0,0.2548,0,0.3459,0,0.3477c0,0.1815,0,0.4442,0,0.8262h1
			c1.6543,0,3-1.3457,3-3v-4C64,14.3457,62.6543,13,61,13z"/>
		<path fill="#ffffff" d="M7,17H6c0,10.171,0,14.0389,0,24h48c0-10.0635,0-13.4628,0-24h-1h-1v22H8V17H7z"/>
		<polygon fill="#ffffff" points="32,56 38,50 26,50 		"/>
		<polygon fill="#ffffff" points="56,44 10,44 10,46 58,46 58,17 56,17 		"/>
		<path fill="#ffffff" d="M40,27c0-5.5142-4.4858-10-10-10s-10,4.4858-10,10s4.4858,10,10,10S40,32.5142,40,27z M22,27
			c0-4.4111,3.5889-8,8-8s8,3.5889,8,8s-3.5889,8-8,8S22,31.4111,22,27z"/>
		<path fill="#ffffff" d="M30.3564,32.2422v-1.0454c2.0185-0.1346,3.0752-1.4026,3.0752-2.5581
			c0-2.1556-1.4347-2.6071-3.0752-3.0132v-2.1772c0.6005,0,1.0052,0.5724,1.0215,1.1807h1.7461
			c-0.0911-1.5918-1.168-2.4419-2.7676-2.6196v-0.9468h-0.7256v0.9468c-1.6056,0.1086-2.8525,1.0424-2.8525,2.6323
			c0,2.0754,1.8525,2.1533,2.8525,2.5581V29.77c-0.7776-0.1521-1.3328-0.6995-1.3154-1.6235h-1.7344
			c0.1616,1.906,1.1827,2.9162,3.0498,3.0503v1.0454H30.3564z M30.3564,27.4087c0.7523,0.204,1.3291,0.4185,1.3291,1.1562
			c0,0.7131-0.6143,1.1275-1.3291,1.2051V27.4087z M29.6309,23.4482v2.0049C27.8664,25.0481,28.3411,23.4482,29.6309,23.4482z"/>
		<circle fill="#ffffff" cx="14" cy="27" r="2"/>
		<circle fill="#ffffff" cx="46" cy="27" r="2"/>
	</g>
</g>
</svg>
