<?xml version="1.0" encoding="utf-8"?>
<!-- Generator: Adobe Illustrator 19.1.0, SVG Export Plug-In . SVG Version: 6.00 Build 0)  -->
<svg version="1.2" baseProfile="tiny" xmlns="http://www.w3.org/2000/svg" xmlns:xlink="http://www.w3.org/1999/xlink" x="0px"
	 y="0px" width="64px" height="64px" viewBox="0 0 64 64" xml:space="preserve">
<g id="box">
	<rect fill="none" width="64" height="64"/>
</g>
<g id="Production">
	<g>
		<path fill="#ffffff" d="M41.4761,3.5537L19.9922,25.0376c-0.9551,0.9551-1.3623,2.3145-1.0894,3.6362
			c0.9143,4.4576-0.745,8.4955-3.7969,11.0112L4.457,48.4634c-2.9399,2.424-3.1414,6.8547-0.4575,9.5376
			c2.6868,2.6867,7.1172,2.4775,9.5376-0.458l8.7778-10.6489c2.5259-3.064,6.5847-4.7106,11.0107-3.7969
			c1.3223,0.2725,2.6821-0.1348,3.6367-1.0894l21.4839-21.4839L41.4761,3.5537z M35.5483,40.5938
			c-0.4775,0.4775-1.1553,0.6816-1.8188,0.5444c-5.1426-1.0617-9.9482,0.8337-12.9575,4.4834l-8.7778,10.6489
			c-1.6873,2.0463-4.7373,2.1586-6.5806,0.3164c-1.865-1.8661-1.7085-4.9123,0.3159-6.5806l10.6489-8.7783
			c3.5912-2.96,5.5564-7.727,4.4834-12.958c-0.1367-0.6611,0.0669-1.3408,0.5444-1.8184l0.9777-0.9779l14.1423,14.1423
			L35.5483,40.5938z M37.9404,38.2021L23.7979,24.0596l5.6572-5.6567l14.1421,14.1421L37.9404,38.2021z M30.8691,16.9888
			L41.4761,6.3818l14.1421,14.1421L45.0112,31.1309L30.8691,16.9888z"/>
		<circle fill="#ffffff" cx="9" cy="53" r="2"/>
		<path fill="#ffffff" d="M55.6187,34.4009c-1.3563-1.475-1.5308-1.673-2.6201-2.8867c-1.0928,1.2175-1.2654,1.4134-2.6187,2.8853
			c-3.6636,3.9854-6.3105,6.8652-6.3789,10.9077c-0.0824,4.8878,4.0808,8.6298,8.9893,8.6812
			c0.0327,0.0005,0.0649,0.0005,0.0977,0.0005c4.8724,0,8.9944-3.8103,8.9111-8.6792
			C61.9292,41.2666,59.2822,38.3867,55.6187,34.4009z M53.0117,51.9883c-3.8383-0.0405-7.0743-2.9095-7.0107-6.647
			c0.0612-3.6398,2.8931-6.3315,6.9976-10.8394c4.1157,4.5195,6.9377,7.2065,7.0005,10.8418
			C60.0643,49.1554,56.7095,52.0721,53.0117,51.9883z"/>
	</g>
</g>
</svg>

