<?xml version="1.0" encoding="utf-8"?>

<svg version="1.2" baseProfile="tiny" xmlns="http://www.w3.org/2000/svg" xmlns:xlink="http://www.w3.org/1999/xlink" x="0px"
	 y="0px" width="128px" height="128px" viewBox="0 0 128 128" xml:space="preserve">
<g id="_x31_28px_boxes">
	<rect fill="none" width="128" height="128"/>
</g>
<g id="Production">
	<g>
		<path fill="#ffffff" d="M90.7323,41.5297H37.2677c-3.8543,0.0166-6.9507,3.1133-6.9619,6.9638v69.7508h24.4646V102.932h18.1362
			v15.3123h24.7876V48.4935C97.6849,44.6486,94.5902,41.539,90.7323,41.5297z M51.4215,94.4008h-9.854V52.455h9.854V94.4008z
			 M68.9327,94.4008h-9.8672V52.455h9.8672V94.4008z M86.4327,94.4008h-9.8579V52.455h9.8579V94.4008z"/>
		<path fill="#ffffff" d="M87.9425,15.0451c-0.0081-2.9216-2.3613-5.2851-5.291-5.2894H45.349
			c-2.9236,0.0143-5.2832,2.366-5.2913,5.2894v20.2525h47.8848V15.0451z M50.8048,28.8214h-3.9512V16.0648h3.9512V28.8214z
			 M66.723,28.8214h-3.7151l-4.7744-7.0032v7.0032h-3.7109V16.0648h3.6826l4.8027,7.0605v-7.0605h3.7151V28.8214z M72.6534,28.4346
			c-4.5249-2.0576-5.192-12.5853,3.2127-12.5853c2.9623,0,4.8811,1.065,5.843,3.9657l-3.4814,0.7734
			c-0.7528-2.3047-3.3099-2.236-4.3162-0.7123c-0.6788,1.0003-1.4038,6.2051,1.9138,6.2051c1.4883,0,2.1928-0.8301,2.5469-2.4796
			l3.4587,1.0464C80.4726,30.3118,74.2977,29.1975,72.6534,28.4346z"/>
	</g>
</g>
</svg>
