<?xml version="1.0" encoding="utf-8"?>
<!-- Generator: Adobe Illustrator 18.1.1, SVG Export Plug-In . SVG Version: 6.00 Build 0)  -->
<svg version="1.2" baseProfile="tiny" xmlns="http://www.w3.org/2000/svg" xmlns:xlink="http://www.w3.org/1999/xlink" x="0px"
	 y="0px" width="128px" height="128px" viewBox="0 0 128 128" xml:space="preserve">
<g id="_x31_28px_boxes">
	<rect fill="none" width="128" height="128"/>
</g>
<g id="Production">
	<g>
		<path fill="#ffffff" d="M21.0956,52.9402l24.6052,9.6123c3.5542,1.3892,6.6306-2.3391,5.4268-5.4196l-2.7881-8.4361
			c15.0508-4.6897,31.259-3.2866,44.7256,6.7864c0.0007-0.0012,0.0014-0.0024,0.0022-0.0037
			c1.0754,0.7674,2.5761,0.4871,3.2624-0.7251c0.0383-0.0673,9.3484-15.737,9.3792-15.789
			c0.6506-1.1045,0.4807-2.1958-0.6548-2.9859l0.0002-0.0004c-0.0022-0.0015-0.0046-0.0032-0.0071-0.0049
			c-0.0107-0.0073-0.0215-0.0149-0.0324-0.0222c-20.9253-14.3323-43.49-14.0069-62.9712-6.305l-2.4822-7.5105
			c-1.1702-3.5412-6.0476-3.8493-7.7058-0.5783l-12.97,25.5927C17.0953,50.6832,20.6224,52.7554,21.0956,52.9402z"/>
		<path fill="#ffffff" d="M106.9532,75.1165l-24.6049-9.6128c-2.7845-1.0884-6.7613,1.3828-5.4959,5.2107l2.6733,8.0889
			c-14.7639,4.6123-30.8505,3.6408-44.7658-6.7593c-0.0012,0.0017-0.0022,0.0034-0.0032,0.0051
			c-0.7461-0.5337-2.4565-0.5622-3.2095,0.6324c-0.0315,0.0498-9.4326,15.8601-9.4326,15.8601h0.0003
			c-0.7527,1.2575-0.315,2.3132,0.6259,2.9843l-0.0002,0.0005c0.0044,0.0034,0.0093,0.0064,0.0137,0.0098
			c18.3591,12.7102,40.8256,15.1211,63.0659,6.313l2.6672,8.0703c1.2283,3.7175,6.2014,3.5461,7.7058,0.5786l12.97-25.5923
			C109.9357,79.3819,110.0267,76.3174,106.9532,75.1165z"/>
	</g>
</g>
</svg>
