<?xml version="1.0" encoding="utf-8"?>
<!-- Generator: Adobe Illustrator 18.1.1, SVG Export Plug-In . SVG Version: 6.00 Build 0)  -->
<svg version="1.2" baseProfile="tiny" xmlns="http://www.w3.org/2000/svg" xmlns:xlink="http://www.w3.org/1999/xlink" x="0px"
	 y="0px" width="128px" height="128px" viewBox="0 0 128 128" xml:space="preserve">
<g id="_x31_28px_boxes" display="none">
	<rect display="inline" fill="none" width="128" height="128"/>
</g>
<g id="Production">
	<g>
		<path fill="#ffffff" d="M101.1621,34.7677c11.1135-7.739,11.0484-7.6065,11.6893-8.2799
			c5.1497-5.4126-3.0364-13.2128-8.1917-7.7948L94.0555,29.8372l-9.0374,23.1947h9.0278L101.1621,34.7677z"/>
		<path fill="#ffffff" d="M17.2085,88.0271h49.4034c1.6569,0,3-1.343,3-3V43.968c0-1.6569-1.3431-3-3-3H17.2085
			c-1.6569,0-3,1.3431-3,3v41.0591C14.2085,86.6841,15.5516,88.0271,17.2085,88.0271z M20.2085,46.968h16.4278v9.4098h10.5478
			V46.968h16.4278v35.0591H20.2085V46.968z"/>
		<path fill="#ffffff" d="M100.4519,103.4702h4.8689c1.4749,0,2.7649-0.9934,3.1421-2.4194
			c0.0686-0.2593,1.6746-6.4397,1.4212-14.6914c-0.3399-11.0835-3.9055-20.6823-10.3116-27.7587
			c-0.6162-0.6805-1.4912-1.0688-2.4094-1.0688H78.7395c-1.7949,0-3.25,1.455-3.25,3.25v32.4383h-56.896
			c-6.7714,0-6.7807,10.25,0,10.25h4.4798c-0.5243,3.2491,1.4707,6.3193,4.2795,7.2871c4.7558,1.6376,9.5716-2.3058,8.7683-7.2871
			h46.2234c0.7185,4.3404,4.4945,7.6694,9.0537,7.6694C95.5591,111.1396,99.663,108.2358,100.4519,103.4702z"/>
	</g>
</g>
</svg>
