<?xml version="1.0" encoding="utf-8"?>

<svg version="1.2" baseProfile="tiny" xmlns="http://www.w3.org/2000/svg" xmlns:xlink="http://www.w3.org/1999/xlink" x="0px"
	 y="0px" width="128px" height="128px" viewBox="0 0 128 128" xml:space="preserve">
<g id="_x31_28px_boxes">
	<rect fill="none" width="128" height="128"/>
</g>
<g id="Production">
	<g>
		<path fill="#ffffff" d="M112.9754,23.7583H33.0037c-2.8394,0-5.1494,2.31-5.1494,5.1494v28.7752l-7.3629,0.9157
			c-2.5446,0.3164-5.3132,2.5577-6.1523,4.981L2.7429,97.0679l14.2234,21.4995c4.2029-2.273,7.2722-5.7447,9.165-10.3926
			c1.4742-3.6201,7.0408-18.3223,7.0408-18.3223c0.1097-0.2983,0.3072-0.5561,0.5662-0.7402l16.0576-11.5298
			c2.1643-1.5346,2.5952-4.7405,1.2256-6.9253c-1.5095-2.4091-4.6868-3.1382-7.096-1.6284l-17.6157,11.04
			c-0.5039-0.0058-0.9963-0.2524-1.2954-0.7045c-0.4797-0.7246-0.2807-1.7012,0.4443-2.1812l14.1634-9.3703V35.0586h66.7348v44.4868
			H52.6543L35.9582,91.397l-3.1608,8.5947c11.158,2.5126,12.2364,3.0633,14.3066,2.0151c2.5161-1.2735,3.4659-3.8527,2.9133-6.1313
			c2.3072,0.52,4.7811,1.5825,7.1849,1.3613c1.0866-0.0996,2.205-0.4682,2.9492-1.2949c0.3117-0.3462,1.0715-1.1025,1.5378-1.96
			h51.2862c2.8393,0,5.1493-2.31,5.1493-5.1494V28.9077C118.1247,26.0683,115.8147,23.7583,112.9754,23.7583z M76.428,88.04
			c0,1.0845-0.8789,1.9634-1.9634,1.9634h-2.9104c-1.084,0-1.9634-0.8789-1.9634-1.9634v-2.9101
			c0-1.0845,0.8794-1.9634,1.9634-1.9634h2.9104c1.0845,0,1.9634,0.8789,1.9634,1.9634V88.04z"/>
		<path fill="#ffffff" d="M62.0393,51.9243v-6.5391c0-1.8666-1.5137-3.3798-3.3799-3.3798h-6.539
			c-1.8667,0-3.3804,1.5132-3.3804,3.3798v6.5391c0,1.8667,1.5137,3.3804,3.3804,3.3804h6.539
			C60.5256,55.3047,62.0393,53.791,62.0393,51.9243z"/>
		<path fill="#ffffff" d="M69.74,55.3047h6.5395c1.8667,0,3.3794-1.5137,3.3794-3.3804v-6.5391
			c0-1.8666-1.5127-3.3798-3.3794-3.3798H69.74c-1.8662,0-3.3799,1.5132-3.3799,3.3798v6.5391
			C66.3601,53.791,67.8738,55.3047,69.74,55.3047z"/>
		<path fill="#ffffff" d="M66.3601,69.2178c0,1.8667,1.5137,3.3803,3.3799,3.3803h6.5395c1.8667,0,3.3794-1.5136,3.3794-3.3803
			v-6.5391c0-1.8667-1.5127-3.3799-3.3794-3.3799H69.74c-1.8662,0-3.3799,1.5132-3.3799,3.3799V69.2178z"/>
		<path fill="#ffffff" d="M93.8994,72.5981c1.8667,0,3.3794-1.5136,3.3794-3.3803v-6.5391c0-1.8667-1.5127-3.3799-3.3794-3.3799
			h-6.5395c-1.8662,0-3.3799,1.5132-3.3799,3.3799v6.5391c0,1.8667,1.5137,3.3803,3.3799,3.3803H93.8994z"/>
	</g>
</g>
</svg>
