<?xml version="1.0" encoding="utf-8"?>
<!-- Generator: Adobe Illustrator 18.1.1, SVG Export Plug-In . SVG Version: 6.00 Build 0)  -->
<svg version="1.2" baseProfile="tiny" xmlns="http://www.w3.org/2000/svg" xmlns:xlink="http://www.w3.org/1999/xlink" x="0px"
	 y="0px" width="128px" height="128px" viewBox="0 0 128 128" xml:space="preserve">
<g id="box">
	<rect fill="none" width="128" height="128"/>
</g>
<g id="Production">
	<g>
		<path fill="#ffffff" d="M44.2208,80.6531l-1.6191-4.0025l2.6631-3.4013c0.4087-0.5222,0.509-1.2261,0.2612-1.8431l-1.6191-4.0078
			l2.663-3.3857c0.4168-0.5298,0.5169-1.2261,0.2613-1.8508l-1.6192-4.0027l2.6631-3.3933
			c0.4087-0.5301,0.5064-1.2261,0.2613-1.8484l-1.6192-4.0025l2.6631-3.4013c0.3613-0.4695,0.4853-1.0733,0.3245-1.6533
			c-0.1853-1.0009-1.7058-5.3493-2.9505-7.375c-0.6303-0.8384-1.1128-1.9485-3.0085-2.1382
			c-2.4444,0.3269-2.7659,2.125-3.2564,3.9365c-1.5776,7.1548-9.6372,50.1846-9.6372,50.1846
			c1.3867-1.0831,11.9041-6.5998,13.6106-7.512C44.2391,80.8562,44.2628,80.7454,44.2208,80.6531z"/>
		<path fill="#ffffff" d="M80.3544,66.9263c-48.9605,26.1748-45.9746,24.413-47.6377,25.8584
			c-4.752,4.1256-5.5393,10.775-2.9055,15.7121c3.3486,6.249,11.1162,8.6062,17.3679,5.263l45.2751-24.2105
			c6.1409-3.2773,8.4981-10.8262,5.408-17.0251C94.3556,65.682,86.4886,63.6865,80.3544,66.9263z"/>
		<path fill="#ffffff" d="M121.7245,12.7971c-0.1663,0.0528-11.4802,3.8946-23.4695,22.7761
			c-6.0276,9.4922-10.3782,18.3594-13.3577,25.2754c6.606-0.5534,12.451,2.5194,15.8572,7.47
			c5.7481-8.4324,12.9544-19.5039,16.0049-26.2117c5.1958-12.0726,6.0671-19.3757,6.0671-28.5188
			C122.8151,12.99,122.2423,12.6211,121.7245,12.7971z M109.7748,45.7456c-2.3413,4.0183-4.9729,6.9109-5.8718,6.46
			c-0.9073-0.4561,0.2688-4.0948,2.6103-8.1211c2.3491-4.0288,4.9727-6.9082,5.8718-6.46
			C113.2843,38.0833,112.1188,41.7061,109.7748,45.7456z"/>
		<path fill="#ffffff" d="M17.1364,71.48c-0.7427-0.2613-1.3809,0.5662-0.9703,1.2182c0.021,0.0079,2.3413,3.8575,2.3018,6.3069
			c-0.0686,1.1392-0.2874,1.6824-1.4688,2.0252c-3.0014,0.6953-4.3657-4.1371-4.8935-7.0559
			c-0.8372-4.3502-0.9985-10.2442-0.8914-13.0017c0.0298-0.8029-0.9748-1.1614-1.466-0.5433
			c-0.0501,0.066-4.5667,5.698-4.5747,14.0301c0,3.5754,0.8413,7.6438,3.238,11.9126c2.7368,4.8095,9.5923,9.7771,15.4617,13.4157
			c0.008-0.0512,3.2905-17.8687,3.3064-17.9533C25.0844,78.5773,20.7555,72.7919,17.1364,71.48z"/>
	</g>
</g>
</svg>
