<?xml version="1.0" encoding="utf-8"?>
<!-- Generator: Adobe Illustrator 18.1.1, SVG Export Plug-In . SVG Version: 6.00 Build 0)  -->
<svg version="1.2" baseProfile="tiny" xmlns="http://www.w3.org/2000/svg" xmlns:xlink="http://www.w3.org/1999/xlink" x="0px"
	 y="0px" width="128px" height="128px" viewBox="0 0 128 128" xml:space="preserve">
<g id="_x31_28px_boxes">
	<rect fill="none" width="128" height="128"/>
</g>
<g id="Production">
	<g>
		<path fill="#ffffff" d="M33.6531,47.0386l8.0922-12.9817l14.5408,2.4817c0.6753,0.1161,1.3753,0.0422,2.0059-0.2106
			l22.0852-8.8181l13.2993,19.5287h8.6567L84.8669,21.2995c-1.0766-1.6716-3.3059-1.8351-4.4404-1.3822l-23.9182,9.5499
			L40.5017,26.735c-1.0376-0.177-2.7617-0.0194-3.7764,1.7335L25.2097,47.0386H33.6531z"/>
		<path fill="#ffffff" d="M109.7573,51.5136H18.2448c-7.0178,0-6.7292,10.5,0,10.5h2.5684l14.4141,42.715
			c0.7202,2.1343,2.7217,3.5713,4.9743,3.5713h47.5987c2.2526,0,4.2541-1.437,4.9743-3.5713l14.4141-42.715h2.5686
			C116.5149,62.0136,116.7417,51.5136,109.7573,51.5136z M70.0202,74.6791H57.9817l-1.3714-12.6655h14.7813L70.0202,74.6791z
			 M46.049,62.0136l1.3714,12.6655H36.1689L31.895,62.0136H46.049z M43.9709,97.7999l-4.2588-12.6208h8.8452l1.3665,12.6208H43.9709
			z M60.4851,97.7999l-1.3665-12.6208h9.7649l-1.3664,12.6208H60.4851z M84.031,97.7999h-5.9527l1.3665-12.6208h8.845
			L84.031,97.7999z M91.833,74.6791H80.5818l1.371-12.6655h14.1541L91.833,74.6791z"/>
	</g>
</g>
</svg>
