<?xml version="1.0" encoding="utf-8"?>
<!-- Generator: Adobe Illustrator 18.1.1, SVG Export Plug-In . SVG Version: 6.00 Build 0)  -->
<svg version="1.2" baseProfile="tiny" xmlns="http://www.w3.org/2000/svg" xmlns:xlink="http://www.w3.org/1999/xlink" x="0px"
	 y="0px" width="128px" height="128px" viewBox="0 0 128 128" xml:space="preserve">
<g id="_x31_28px_boxes">
	<rect fill="none" width="128" height="128"/>
</g>
<g id="Production">
	<g>
		<path fill="#ffffff" d="M75.4426,46.273l5.1919,4.5989c0.7004,0.6203,1.6411,0.895,2.566,0.7464l7.2863-1.166l3.071,5.1824h7.1262
			l0.1028-0.0609l-6.0066-10.1363c-0.654-1.1035-1.9151-1.6961-3.1823-1.4925l-7.9258,1.2683l-5.4629-4.839
			c-0.8499-0.7528-2.0418-0.9858-3.1126-0.6074l-10.1242,3.5752c1.5515,1.574,3.1176,3.2229,4.6717,4.9785L75.4426,46.273z"/>
		<path fill="#ffffff" d="M103.3916,60.6347h-0.148H29.2841h-0.4232c-2.0711,0-3.75,1.679-3.75,3.75c0,2.0711,1.6789,3.75,3.75,3.75
			h0.7728l9.4961,48.095c-1.2949,0.5909-2.1967,1.8939-2.1967,3.4101c0,1.8837,1.3945,3.75,4.0434,3.75
			c15.5128,0,34.6477,0,50.5928,0c2.071,0,3.75-1.6789,3.75-3.75c0-1.5164-0.9019-2.8193-2.1968-3.4102l9.4959-48.0949h0.7732
			c2.0711,0,3.75-1.6789,3.75-3.75C107.1416,62.3137,105.4627,60.6347,103.3916,60.6347z M57.6635,103.6357
			c-6.706,0-12.1616-5.4556-12.1616-12.1614c0-3.9192,1.8652-7.4091,4.7529-9.6347c-1.8284-5.1122,1.9648-10.5159,7.4087-10.5159
			c5.453,0,9.2351,5.4113,7.4087,10.5161c2.8875,2.2256,4.7528,5.7154,4.7528,9.6345
			C69.825,98.1801,64.3693,103.6357,57.6635,103.6357z M85.5449,115.8898h-9.4072l4.0615-47.7551h14.7746L85.5449,115.8898z"/>
		<path fill="#ffffff" d="M61.9815,85.7657c-2.6184,1.7229-6.0163,1.7238-8.6361,0c-1.7261,1.3088-2.8435,3.3803-2.8435,5.7086
			c0,3.9488,3.2127,7.1614,7.1616,7.1614c3.9488,0,7.1615-3.2126,7.1615-7.1614C64.825,89.146,63.7075,87.0745,61.9815,85.7657z"/>
		<path fill="#ffffff" d="M33.4334,55.6347h35.7898C58.6169,42.0712,49.5075,38.3574,43.2461,24.2851l-14.2103,6.4581
			C32.6052,38.7647,32.7539,40.9205,33.4334,55.6347z"/>
		<path fill="#ffffff" d="M41.2749,19.6887c1.9963-2.5733,0.2766-6.3023-2.9566-6.479l-2.9159-6.5535
			c-0.4403-0.9886-1.3415-1.6968-2.358-1.8526l-0.0183-0.0039c-4.5426-0.8742-9.3531,1.3484-11.6726,5.1939l-0.0014,0.0029
			c-0.5724,0.8591-0.6532,2.0105-0.2105,3.0051l2.8789,6.4705c-2.3169,2.5831-0.4957,6.6899,2.9741,6.7066L41.2749,19.6887z"/>
	</g>
</g>
</svg>
