<?xml version="1.0" encoding="utf-8"?>

<svg version="1.2" baseProfile="tiny" xmlns="http://www.w3.org/2000/svg" xmlns:xlink="http://www.w3.org/1999/xlink" x="0px"
	 y="0px" width="128px" height="128px" viewBox="0 0 128 128" xml:space="preserve">
<g id="_x31_28px_boxes">
	<rect fill="none" width="128" height="128"/>
</g>
<g id="Production">
	<g>
		<path fill="#ffffff" d="M32.6863,58.1782c-12.6492,0-22.94,10.2908-22.94,22.94c0,12.6491,10.2908,22.9399,22.94,22.9399
			c12.6491,0,22.9397-10.2908,22.9397-22.9399C55.626,68.469,45.3354,58.1782,32.6863,58.1782z M32.6863,93.5581
			c-6.8594,0-12.44-5.5806-12.44-12.4399c0-6.8594,5.5806-12.44,12.44-12.44c6.8591,0,12.4397,5.5806,12.4397,12.44
			C45.126,87.9775,39.5454,93.5581,32.6863,93.5581z"/>
		<path fill="#ffffff" d="M84.1797,70.2358c6.9746-6.9741,17.8008-8.8232,26.7673-4.2463
			c-0.1784-3.3982-1.073-8.5283-5.0598-10.2131c-4.2624-1.8006-26.4382-3.0469-30.4868-3.2598l-1.0708-21.3281h2.5669
			c2.071,0,3.75-1.679,3.75-3.75c0-2.0711-1.679-3.75-3.75-3.75H34.0613c-2.0711,0-3.75,1.6789-3.75,3.75
			c0,2.071,1.6789,3.75,3.75,3.75h0.1177v14.8877h-9.6453c-2.0711,0-3.75,1.6789-3.75,3.75c0,2.071,1.6789,3.75,3.75,3.75h22.6721
			l13.3789,17.1333v12.5776c0,3.5039,2.8401,6.3438,6.3435,6.3438H77.636C76.6768,82.4312,79.0618,75.3535,84.1797,70.2358z
			 M46.5056,46.0762H40.179V31.1885h6.3266V46.0762z M65.9856,65.3901c-0.5986-0.7497-13.48-17.2129-13.48-17.2129V31.1885h15.8162
			c0,0,1.5847,31.1885,1.6555,33.0942C70.0681,66.73,67.501,67.2886,65.9856,65.3901z"/>
		<path fill="#ffffff" d="M100.4832,68.769c-9.8165,0.003-17.7681,7.9546-17.7715,17.771
			c0.0034,9.8164,7.955,17.7681,17.7715,17.7715c9.8159-0.0034,17.767-7.9551,17.7705-17.7715
			C118.2502,76.7236,110.2991,68.7729,100.4832,68.769z M100.4832,94.7959c-4.5628-0.0049-8.251-3.6873-8.2559-8.2559
			c0.0049-4.5608,3.687-8.2509,8.2559-8.2548c4.5603,0.0039,8.2519,3.6875,8.2548,8.2548
			C108.7351,91.1001,105.0515,94.791,100.4832,94.7959z"/>
	</g>
</g>
</svg>
