<?xml version="1.0" encoding="utf-8"?>
<!-- Generator: Adobe Illustrator 18.1.1, SVG Export Plug-In . SVG Version: 6.00 Build 0)  -->
<svg version="1.2" baseProfile="tiny" xmlns="http://www.w3.org/2000/svg" xmlns:xlink="http://www.w3.org/1999/xlink" x="0px"
	 y="0px" width="128px" height="128px" viewBox="0 0 128 128" xml:space="preserve">
<g id="_x31_28px_boxes">
	<rect fill="none" width="128" height="128"/>
</g>
<g id="Production">
	<polygon fill="#ffffff" points="117.5078,68.1784 117.5078,62.7906 112.8794,62.7906 112.8794,49.808 107.7398,49.808 
		107.7398,55.3807 103.6248,55.3807 103.6248,43.4039 98.9962,43.4039 98.9962,30.2145 93.8559,30.2145 93.8559,56.7618 
		89.7412,56.7618 89.7412,61.6212 84.6006,61.6212 84.6006,53.5799 80.4858,53.5799 80.4858,39.7711 75.8574,39.7711 
		75.8574,31.6344 71.2299,31.6344 71.2299,13.4835 66.0893,13.4835 66.0893,24.4757 61.4621,24.4757 61.4621,40.5223 
		57.3466,40.5223 57.3466,33.7203 52.2065,33.7203 52.2065,46.004 47.5786,46.004 47.5786,56.6588 43.4629,56.6588 43.4629,50.9679 
		38.3227,50.9679 38.3227,61.7076 33.6953,61.7076 33.6953,68.1784 29.5161,68.1784 29.5161,55.9025 24.8882,55.9025 
		24.8882,42.2594 19.7478,42.2594 19.7478,50.0968 15.1196,50.0968 15.1196,61.9979 10.4922,61.9979 10.4922,68.1784 
		5.8642,68.1784 5.8642,77.9627 10.4922,77.9627 10.4922,83.4781 15.1196,83.4781 15.1196,93.9279 19.7478,93.9279 
		19.7478,102.3458 24.8882,102.3458 24.8882,89.8641 29.5161,89.8641 29.5161,77.9627 33.6953,77.9627 33.6953,83.12 38.3227,83.12 
		38.3227,92.1862 42.9511,92.1862 42.9511,97.411 48.0913,97.411 48.0913,86.651 52.2065,86.651 52.2065,92.7667 56.8342,92.7667 
		56.8342,100.0092 61.4621,100.0092 61.4621,106.4801 66.0893,106.4801 66.0893,114.5165 71.2299,114.5165 71.2299,102.4266 
		75.8574,102.4266 75.8574,93.9501 80.4858,93.9501 80.4858,87.026 84.6006,87.026 84.6006,81.285 89.7412,81.285 89.7412,90.9943 
		93.8559,90.9943 93.8559,108.0468 98.9962,108.0468 98.9962,96.6141 103.6248,96.6141 103.6248,83.1119 107.7398,83.1119 
		107.7398,89.264 112.8794,89.264 112.8794,84.7857 117.5078,84.7857 117.5078,77.9627 122.1358,77.9627 122.1358,68.1784 	"/>
</g>
</svg>

