<?xml version="1.0" encoding="utf-8"?>

<svg version="1.2" baseProfile="tiny" xmlns="http://www.w3.org/2000/svg" xmlns:xlink="http://www.w3.org/1999/xlink" x="0px"
	 y="0px" width="128px" height="128px" viewBox="0 0 128 128" xml:space="preserve">
<g id="_x31_28px_boxes">
	<rect fill="none" width="128" height="128"/>
</g>
<g id="Production">
	<g>
		<path fill="#ffffff" d="M107,27v-7c0-1.1046-0.8955-2-2-2h-7c-1.1045,0-2,0.8954-2,2H32c0-1.1046-0.8955-2-2-2h-7
			c-1.1045,0-2,0.8954-2,2v7c0,1.1045,0.8955,2,2,2v24c-1.1045,0-2,0.8954-2,2v7c10.4306,0,75.5923,0,86,0v-7c0-1.1046-0.8955-2-2-2
			V29C106.1045,29,107,28.1045,107,27z M36,55h-4v-2V27h4V55z M48,55h-4V27h4V55z M60,55h-4V27h4V55z M72,55h-4V27h4V55z M84,55h-4
			V27h4V55z M96,55h-4V27h4v26V55z"/>
		<path fill="#ffffff" d="M21,66v7c0,1.1045,0.8955,2,2,2v24c-1.1045,0-2,0.8954-2,2v7c0,1.1045,0.8955,2,2,2h7
			c1.1045,0,2-0.8955,2-2h64c0,1.1045,0.8955,2,2,2h7c1.1045,0,2-0.8955,2-2v-7c0-1.1046-0.8955-2-2-2V75c1.1045,0,2-0.8955,2-2v-7
			C96.5934,66,31.4309,66,21,66z M36,101h-4V75v-2h4V101z M48,101h-4V73h4V101z M60,101h-4V73h4V101z M72,101h-4V73h4V101z M84,101
			h-4V73h4V101z M96,101h-4V73h4v2V101z"/>
	</g>
</g>
</svg>
