<?xml version="1.0" encoding="utf-8"?>
<!-- Generator: Adobe Illustrator 18.1.1, SVG Export Plug-In . SVG Version: 6.00 Build 0)  -->
<svg version="1.2" baseProfile="tiny" xmlns="http://www.w3.org/2000/svg" xmlns:xlink="http://www.w3.org/1999/xlink" x="0px"
	 y="0px" width="128px" height="128px" viewBox="0 0 128 128" xml:space="preserve">
<g id="box">
	<rect fill="none" width="128" height="128"/>
</g>
<g id="Production">
	<g>
		<path fill="#ffffff" d="M12.7367,57.3246l10.1002,0.8715v12.7065c0,1.8705,1.5233,3.3697,3.367,3.3697H65.011v-6.7498H29.5758
			v-8.7444l36.458,3.1502c2.1679-5.724,7.6591-9.8136,14.1492-9.8136h26.7718c-2.3603-2.3328-6.3142-4.7955-12.8476-6.9553
			c-11.701-3.9464-38.3218-12.2519-50.6853-12.2519C17.9626,32.956,11.0937,54.6696,11.0775,54.8618
			C10.7202,55.9835,11.4878,57.2075,12.7367,57.3246z"/>
		<path fill="#ffffff" d="M107.439,56.8808H80.1802c-5.7483,0-10.4033,4.6605-10.4033,10.4064v14.3381H23.6244
			c-7.4371,0-13.4696,6.03-13.4696,13.4672h97.2842c5.7457,0,10.4062-4.6577,10.4062-10.406V67.2872
			C117.8452,61.5413,113.1847,56.8808,107.439,56.8808z"/>
	</g>
</g>
</svg>
