<?xml version="1.0" encoding="utf-8"?>
<!-- Generator: Adobe Illustrator 18.1.1, SVG Export Plug-In . SVG Version: 6.00 Build 0)  -->
<svg version="1.2" baseProfile="tiny" xmlns="http://www.w3.org/2000/svg" xmlns:xlink="http://www.w3.org/1999/xlink" x="0px"
	 y="0px" width="128px" height="128px" viewBox="0 0 128 128" xml:space="preserve">
<g id="_x31_28px_boxes">
	<rect fill="none" width="128" height="128"/>
</g>
<g id="Production">
	<g>
		<path fill="#ffffff" d="M47.6003,40.9578l6.689,5.0196c4.4775-8.1697,15.7727-8.3457,20.5154-0.4749l6.4763-5.2886
			C73.0305,28.1531,55.3262,28.5826,47.6003,40.9578z"/>
		<path fill="#ffffff" d="M87.0435,35.5091l6.4411-5.2593c-14.7617-19.884-44.6072-19.2095-58.4734,1.2608l6.6531,4.9929
			C52.3264,20.2957,75.7227,19.8395,87.0435,35.5091z"/>
		<path fill="#ffffff" d="M108.1748,59H18.8252C15.0557,59,12,62.0557,12,65.825v39.35c0,3.7693,3.0557,6.825,6.8252,6.825h89.3496
			c3.7695,0,6.8252-3.0557,6.8252-6.825v-39.35C115,62.0557,111.9443,59,108.1748,59z M57,70h7v8h-7V70z M70,82v7h-7v-7H70z M58,82
			v7h-7v-7H58z M45,70h8v8h-8V70z M47,82v7h-8v-7H47z M34,70h7v8h-7V70z M35,82v7h-7v-7H35z M22,70h7v8h-7V70z M29,101h-7v-8h7V101z
			 M64,101H34v-8h30V101z M76,101h-7v-8h7V101z M76,78h-7v-8h7V78z M93,101h-8v-8h8V101z M93,89h-8v-7h8V89z M93,78h-8v-8h8V78z
			 M104,101h-7v-8h7V101z M104,89h-7v-7h7V89z M104,78h-7v-8h7V78z"/>
	</g>
</g>
</svg>
