<?xml version="1.0" encoding="utf-8"?>
<!-- Generator: Adobe Illustrator 18.1.1, SVG Export Plug-In . SVG Version: 6.00 Build 0)  -->
<svg version="1.2" baseProfile="tiny" xmlns="http://www.w3.org/2000/svg" xmlns:xlink="http://www.w3.org/1999/xlink" x="0px"
	 y="0px" width="64px" height="64px" viewBox="0 0 64 64" xml:space="preserve">

<g id="Production">
	<g>
		<path fill="#ffffff" d="M21,19c24.71-0.0056,21.8467-0.0361,22.9272,0.0582l-8.248,8.248l1.4141,1.4141L47.8135,18L37.0933,7.2798
			l-1.4141,1.4141l8.3588,8.3588c0,0,1.5036-0.0526-23.038-0.0526C8.6871,17,1.5839,31.1228,9.0286,41h2.6122
			C3.721,32.7671,9.5714,19,21,19z"/>
		<path fill="#ffffff" d="M54.9714,23h-2.6122C60.2789,31.2329,54.4286,45,43,45c-24.1789,0-21.8861,0.0173-22.6686-0.0311
			l8.2751-8.2751l-1.4141-1.4141L16.4722,46l10.7202,10.7202l1.4141-1.4141l-8.3362-8.3362C21.06,47.0169,18.9767,47,43,47
			C55.3129,47,62.4161,32.8772,54.9714,23z"/>
	</g>
</g>
</svg>
