<?xml version="1.0" encoding="utf-8"?>
<!-- Generator: Adobe Illustrator 18.1.1, SVG Export Plug-In . SVG Version: 6.00 Build 0)  -->
<svg version="1.2" baseProfile="tiny" xmlns="http://www.w3.org/2000/svg" xmlns:xlink="http://www.w3.org/1999/xlink" x="0px"
	 y="0px" width="128px" height="128px" viewBox="0 0 128 128" xml:space="preserve">
<g id="_x31_28px_boxes">
	<rect fill="none" width="128" height="128"/>
</g>
<g id="Production">
	<g>
		<path fill="#ffffff" d="M90.558,69.572L80.3629,54.4605c-2.9546,3.6315-6.9382,6.3932-11.5034,7.8356L78.942,77.2407
			c-2.3533,3.2461-3.7444,7.2349-3.7444,11.5508c0,10.8836,8.8223,19.7064,19.7061,19.7064
			c10.8833,0,19.7065-8.8228,19.7065-19.7064C114.6102,76.1956,102.9281,66.7861,90.558,69.572z M93.0009,85.0067
			c-2.0533,2.2251-5.2857,2.5819-7.2198,0.7969c-1.9345-1.7847-1.8383-5.0355,0.2149-7.2603
			c2.0527-2.225,5.2851-2.5819,7.2197-0.7969C95.1498,79.5312,95.0536,82.7818,93.0009,85.0067z"/>
		<path fill="#ffffff" d="M81.2875,39.2083c0-10.8833-8.8228-19.7062-19.7061-19.7062c-10.8838,0-19.7063,8.8229-19.7063,19.7062
			c0,4.7709,1.6958,9.1453,4.5168,12.5546L38.655,65.2304c4.686,1.1055,8.8503,3.5765,12.0485,6.9684l7.7726-13.5298
			C70.5269,60.5782,81.2875,51.2585,81.2875,39.2083z M52.5896,36.2665c-1.9344-1.7847-1.8381-5.0355,0.2148-7.2603
			c2.053-2.225,5.2855-2.5819,7.2198-0.7969c1.9343,1.7848,1.8381,5.0354-0.2149,7.2602
			C57.7565,37.6947,54.5238,38.0515,52.5896,36.2665z"/>
		<path fill="#ffffff" d="M33.0959,69.0853c-10.8838,0-19.7061,8.8229-19.7061,19.7062c0,10.8836,8.8223,19.7064,19.7061,19.7064
			c10.8835,0,19.7064-8.8228,19.7064-19.7064C52.8023,77.9082,43.9794,69.0853,33.0959,69.0853z M24.0952,85.8339
			c-1.9345-1.7847-1.8381-5.0355,0.2149-7.2603c2.0529-2.225,5.2855-2.582,7.2197-0.7969c1.9343,1.7848,1.8381,5.0354-0.2149,7.2602
			C29.2621,87.262,26.0294,87.6189,24.0952,85.8339z"/>
	</g>
</g>
</svg>
