<?xml version="1.0" encoding="utf-8"?>
<!-- Generator: Adobe Illustrator 18.1.1, SVG Export Plug-In . SVG Version: 6.00 Build 0)  -->
<svg version="1.2" baseProfile="tiny" xmlns="http://www.w3.org/2000/svg" xmlns:xlink="http://www.w3.org/1999/xlink" x="0px"
	 y="0px" width="64px" height="64px" viewBox="0 0 64 64" xml:space="preserve">

<g id="Production">
	<g>
		<path fill="#ffffff" d="M20.1704,31H9v2h11.1704c-0.0276-0.3304-0.0504-0.6624-0.0504-1S20.1428,31.3304,20.1704,31z"/>
		<path fill="#ffffff" d="M43.8296,33H55v-2H43.8296c0.0276,0.3304,0.0504,0.6624,0.0504,1S43.8572,32.6696,43.8296,33z"/>
		<path fill="#ffffff" d="M11.5815,42.6338l1,1.7324l9.6721-5.584c-0.3806-0.5458-0.7103-1.1273-0.9962-1.7347L11.5815,42.6338z"/>
		<path fill="#ffffff" d="M52.4185,21.3662l-1-1.7324l-9.6721,5.584c0.3806,0.5458,0.7103,1.1273,0.9962,1.7347L52.4185,21.3662z"/>
		<path fill="#ffffff" d="M19.6338,51.4185l1.7324,1l5.5863-9.6759c-0.6073-0.2859-1.1888-0.6157-1.7347-0.9962L19.6338,51.4185z"/>
		<path fill="#ffffff" d="M44.3662,12.5815l-1.7324-1l-5.5863,9.6759c0.6073,0.2859,1.1888,0.6157,1.7347,0.9962L44.3662,12.5815z"
			/>
		<path fill="#ffffff" d="M31,43.8295V55h2V43.8295c-0.3304,0.0276-0.6624,0.0505-1,0.0505S31.3304,43.8571,31,43.8295z"/>
		<path fill="#ffffff" d="M33,20.1705V9h-2v11.1705c0.3304-0.0276,0.6624-0.0505,1-0.0505S32.6696,20.1429,33,20.1705z"/>
		<path fill="#ffffff" d="M42.6338,52.4185l1.7324-1l-5.584-9.6721c-0.5459,0.3805-1.1274,0.7103-1.7347,0.9962L42.6338,52.4185z"/>
		<path fill="#ffffff" d="M21.3662,11.5815l-1.7324,1l5.584,9.6721c0.5459-0.3805,1.1274-0.7103,1.7347-0.9962L21.3662,11.5815z"/>
		<path fill="#ffffff" d="M51.4185,44.3662l1-1.7324l-9.6759-5.5863c-0.2859,0.6074-0.6156,1.1889-0.9962,1.7347L51.4185,44.3662z"
			/>
		<path fill="#ffffff" d="M12.5815,19.6338l-1,1.7324l9.6759,5.5863c0.2859-0.6074,0.6156-1.1889,0.9962-1.7347L12.5815,19.6338z"/>
	</g>
</g>
</svg>
