<?xml version="1.0" encoding="utf-8"?>
<!-- Generator: Adobe Illustrator 18.1.1, SVG Export Plug-In . SVG Version: 6.00 Build 0)  -->
<svg version="1.2" baseProfile="tiny" xmlns="http://www.w3.org/2000/svg" xmlns:xlink="http://www.w3.org/1999/xlink" x="0px"
	 y="0px" width="128px" height="128px" viewBox="0 0 128 128" xml:space="preserve">
<g id="_x31_28px_boxes">
	<rect fill="none" width="128" height="128"/>
</g>
<g id="Production">
	<g>
		<path fill="#ffffff" d="M63.5582,82.9948l17.7664,0.6289c1.6808-0.0586,5.3366,0.3382,7.9739,3.7386
			c2.1083-1.355,7.9372-5.1011,12.8644-8.2676c-3.1842-4.9993-4.0782-11.9585-13.246-11.2542
			c-4.5303,0.3482-3.7268-3.9619-7.0488-7.0884c-4.3722-4.1147-10.274,1.5993-11.3118,2.3306
			c-1.4974-5.0437-0.9897-10.0019,0.5316-14.6616c18.6042,4.384,28.7445-18.5179,17.4779-39.2283
			c-0.4049-0.7439-1.2574-1.1236-2.082-0.9276c-15.5292,3.7056-36.058,17.581-25.3369,33.1571
			c7.0246-13.3765,19.5078-21.383,17.6864-18.7639c-6.5546,9.4297-19.766,25.1298-14.2103,42.5911
			c-2.1602,0.0421-4.5246-0.6989-7.1087-0.4832c-2.8467,0.237-5.5758,0.5324-10.9376,6.5711
			C46.7283,71.4368,59.8332,80.4243,63.5582,82.9948z"/>
		<path fill="#ffffff" d="M111.9491,77.2634c-0.5712,0.3667-21.435,13.7754-21.435,13.7754
			c0.7622,3.0488-0.344,11.4368-8.8516,11.6748c-0.0703,0.0049-22.789,1.1562-22.9477,1.1562
			c-2.3299,0-3.1588-0.5395-10.1368-3.3232c-2.7343-1.0908-4.6733-3.3213-5.4902-5.9272c0,0,12.9795,5.7797,15.627,5.7797
			c0.1,0,23.2299-1.1714,23.2299-1.1714c7.6683-0.3889,7.3208-11.8598-0.2831-11.8598c-0.1057,0-19.3316-0.6641-19.3316-0.6641
			c-3.2896-2.271-11.5581-7.9746-17.4126-11.9702c-7.7141-5.2648-16.1837-5.17-24.961-0.7852
			c-7.0913,3.5425-14.7377,7.7793-14.7646,7.795l12.9502,29.02c3.4736-1.5586,6.8774-3.084,8.0601-3.6074
			c1.4763-0.6551,3.631-0.6685,5.1098-0.0586c2.4258,1.0004,21.4102,8.6401,30.0166,11.7461
			c3.7363,1.3484,9.5456,1.5464,13.9107-1.4048c1.4048-0.9502,27.2694-17.4675,44.228-28.4678
			C127.6923,83.6357,119.0039,72.7304,111.9491,77.2634z"/>
	</g>
</g>
</svg>
