<?xml version="1.0" encoding="utf-8"?>
<!-- Generator: Adobe Illustrator 17.1.0, SVG Export Plug-In . SVG Version: 6.00 Build 0)  -->
<!DOCTYPE svg [
	<!ENTITY ns_flows "http://ns.adobe.com/Flows/1.0/">
	<!ENTITY ns_extend "http://ns.adobe.com/Extensibility/1.0/">
	<!ENTITY ns_ai "http://ns.adobe.com/AdobeIllustrator/10.0/">
	<!ENTITY ns_graphs "http://ns.adobe.com/Graphs/1.0/">
]>
<svg version="1.2" baseProfile="tiny" xmlns:x="&ns_extend;" xmlns:i="&ns_ai;" xmlns:graph="&ns_graphs;"
	 xmlns="http://www.w3.org/2000/svg" xmlns:xlink="http://www.w3.org/1999/xlink" xmlns:a="http://ns.adobe.com/AdobeSVGViewerExtensions/3.0/"
	 x="0px" y="0px" width="128px" height="128px" viewBox="0 0 128 128" xml:space="preserve">
<g id="_x31_28px_boxes">
	<rect fill="none" width="128" height="128"/>
</g>
<g id="Production">
	<path fill="#ffffff" d="M104.98,7.5825c0.0245-0.0477,0.037-0.1059,0.0007-0.0155l0.0063-0.0094
		C104.9834,7.5697,104.9814,7.5774,104.98,7.5825z"/>
	<g>
		<path fill="#ffffff" d="M95.8892,59.3926l10.6971-21.318c2.0857-4.1559,1.229-8.9574-1.6834-12.1377
			c1.5108-3.0036,3.8394-7.9053,5.0615-11.0379c0.8409-3.3448-3.8418-5.1227-5.4306-2.0604
			c-0.0056,0.0161-0.0096,0.0257-0.0059,0.011c-0.0061,0.0122-0.0132,0.0236-0.0195,0.0358c0.008-0.0207,0.0149-0.038,0.0202-0.0513
			c-1.2468,1.8232-3.6933,5.7093-5.988,9.716c-4.6548-0.697-9.1582,1.6423-11.2627,5.8362L76.5811,49.7042
			c-2.226,4.436-1.0857,9.5565,2.2129,12.6806c-3.7759,9.2128-5.1682,13.1635-6.3357,17.094
			c-1.8962-17.5012-7.8757-35.7042-18.8869-49.3505c-1.2422-1.5402-3.7041-0.157-3.0315,1.7066
			c8.7546,24.2438,8.4016,36.6556,8.0276,49.7961c-0.2774,9.7518-0.564,19.8363,2.8735,35.1085h11.7141
			c4.1687-29.9465,6.8701-36.512,12.8694-51.3933C90.3165,65.4218,94.0513,63.0562,95.8892,59.3926z"/>
		<path fill="#ffffff" d="M116.5763,58.4906c-27.2706,17.8586-39.0655,54.5189-38.4947,58.2489h15.3706
			c2.0762-19.1067,12.0166-40.8849,25.3948-55.5863C120.233,59.6303,118.3006,57.3617,116.5763,58.4906z"/>
		<path fill="#ffffff" d="M51.6851,75.3351l-7.8383-22.5266c-1.3934-4.0042-5.1163-6.7265-9.3296-6.8617
			c-2.074-5.2493-4.1084-8.8589-5.1045-11.0164c-1.8648-4.0383-6.4312-1.4952-5.8274,1.6089
			c0.7405,2.7007,1.3933,5.295,3.8972,11.9047c-3.0386,2.6365-4.3818,6.9801-2.9526,11.0861l7.8381,22.5261
			c1.376,3.9553,5.0251,6.6599,9.175,6.8562c1.2671,3.8328,2.8191,8.2245,5.1019,18.0012
			c-9.6351-11.9924-22.1988-23.5525-35.2862-31.3421c-1.7905-1.0651-3.6262,1.3409-2.1257,2.786
			c10.7021,10.3076,20.0207,24.0195,26.4805,38.382h20.9326c-2.4165-12.9642-4.7554-21.5482-7.7534-30.4653
			C51.837,83.5991,53.0728,79.323,51.6851,75.3351z"/>
	</g>
</g>
</svg>
