<?xml version="1.0" encoding="utf-8"?>
<!-- Generator: Adobe Illustrator 18.1.1, SVG Export Plug-In . SVG Version: 6.00 Build 0)  -->
<svg version="1.2" baseProfile="tiny" xmlns="http://www.w3.org/2000/svg" xmlns:xlink="http://www.w3.org/1999/xlink" x="0px"
	 y="0px" width="128px" height="128px" viewBox="0 0 128 128" xml:space="preserve">
<g id="_x31_28px_boxes">
	<rect fill="none" width="128" height="128"/>
</g>
<g id="Production">
	<g>
		<path fill="#ffffff" d="M75.4978,91.7752l-8.4753,27.4995h9.9082l8.6078-27.9296C82.4582,91.5396,79.0091,91.7055,75.4978,91.7752
			z"/>
		<polygon fill="#ffffff" points="39.7766,99.9198 47.5266,119.2747 58.7918,119.2747 48.6974,94.0655 		"/>
		<path fill="#ffffff" d="M24.6303,119.2747l11.2144-21.921c0,0,16.116-10.9982,17.3138-11.8109
			c8.0996,1.2286,15.7708,3.2526,44.3465,0.119l5.4859,17.3658h9.9303l-7.6053-24.0727c-0.5557-1.7591-2.0827-3.0353-3.9127-3.2698
			l-7.1798-0.92c2.2356-4.7941,3.3389-11.131,2.7709-19.4313c0.0842,0.017,8.7349,1.77,8.6538,1.7542
			c4.7913,0.9387,8.0582-4.818,4.7257-8.4384L99.4567,36.7879c1.6502,0.0382,3.3055,0.0503,4.9557,0.0055
			c4.6783-0.1269,4.4257-7.4435-0.3968-7.0218c-8.72,0.7719-15.3405-5.5636-15.3405-10.7384c0-4.5775-6.9283-4.5824-6.9283,0
			c0,2.5655,0.8881,5.3569,2.4311,7.8952c-7.1702-3.091-10.2769-8.1139-10.3997-14.8101c-0.0848-4.6375-7.0106-4.4499-6.9272,0.1267
			c0.2105,11.4916,7.0924,18.8426,18.0018,22.2849c-2.4326,1.4636-4.0165,3.8911-4.3971,6.8858
			c-0.6338,4.9906,1.4742,16.5501-4.3368,19.0046c-8.193,3.4603-29.021-3.7229-33.2774-5.2592l0.5141-6.7004
			c0.1928-2.5074-2.1247-4.1067-2.9281-3.4639c-11.3571,9.7787-13.1948,23.5679-8.2964,36.568l-17.0522,37.7099H24.6303z
			 M95.4079,45.8144c-1.3584,0-2.4633-1.0285-2.4633-2.2928c0-1.2644,1.1049-2.293,2.4633-2.293
			c1.3587,0,2.4639,1.0286,2.4639,2.293C97.8718,44.7859,96.7666,45.8144,95.4079,45.8144z"/>
	</g>
</g>
</svg>
