<?xml version="1.0" encoding="utf-8"?>
<!-- Generator: Adobe Illustrator 18.1.0, SVG Export Plug-In . SVG Version: 6.00 Build 0)  -->
<svg version="1.2" baseProfile="tiny" xmlns="http://www.w3.org/2000/svg" xmlns:xlink="http://www.w3.org/1999/xlink" x="0px"
	 y="0px" width="64px" height="64px" viewBox="0 0 64 64" xml:space="preserve">
<g id="_x36_4px_boxes">
	<rect fill="none" width="64" height="64"/>
</g>
<g id="Production">
	<g>
		<path fill="#ffffff" d="M31.4818,57c0.0011,0,0.0022,0,0.0022,0c0.001,0,0.0019,0,0.0019,0
			c22.4728,0,34.1385-27.374,18.0173-43.4944c-8.5211-8.5207-19.2549-7.4638-18.02-7.4638c-0.0012,0-0.0018,0-0.0015,0
			c-6.8018,0-13.2019,2.6401-18.018,7.4555C8.6505,18.3097,6,24.7113,6,31.5171C5.999,45.5972,17.3969,57,31.4818,57z
			 M11.164,33.9988h8.8787c0.2168,4.9959,1.2033,11.6268,3.5099,16.4154C17.0675,47.6922,12.0841,41.9923,11.164,33.9988z
			 M27.4498,46.8537c-1.3588-3.4714-2.1899-7.859-2.4032-12.8549h12.8722c-0.5051,11.9902-4.2856,18.0021-6.4351,18.0021
			C29.789,52.0009,28.0691,48.436,27.4498,46.8537z M39.413,50.4152c2.3064-4.7887,3.2929-11.4205,3.5097-16.4164h8.8787
			C50.8807,41.9923,45.8924,47.6959,39.413,50.4152z M39.422,12.6337c-0.0032-0.0067-0.0063-0.0137-0.0095-0.0204
			c4.7441,1.9895,8.7715,5.9073,10.8745,10.7706c-0.0095-0.0007-0.0191,0.0061-0.0286,0.0054
			c0.7743,1.7829,1.3062,3.6353,1.5431,5.6336h-8.8787c-0.1541-3.9967-0.6629-7.4323-1.4797-10.6368
			c-1.8193-1.3853-3.9345-2.3969-6.2359-2.9293c1.7668,4.0649,2.518,9.5695,2.7116,13.5662H25.0466
			c0.508-11.9902,4.3108-17.9893,6.4361-17.9913S36.8864,11.5661,39.422,12.6337z M23.5525,12.6277
			c-2.3063,4.7874-3.2927,11.3993-3.5098,16.3953h-8.8786C12.0858,21.0295,17.0757,15.3456,23.5525,12.6277z"/>
	</g>
</g>
</svg>

