<?xml version="1.0" encoding="utf-8"?>
<!-- Generator: Adobe Illustrator 18.1.1, SVG Export Plug-In . SVG Version: 6.00 Build 0)  -->
<svg version="1.2" baseProfile="tiny" xmlns="http://www.w3.org/2000/svg" xmlns:xlink="http://www.w3.org/1999/xlink" x="0px"
	 y="0px" width="64px" height="64px" viewBox="0 0 64 64" xml:space="preserve">

<g id="Production">
	<g>
		<path fill="#ffffff" d="M14.3613,57.3506c-3.437,1.939-8.2104,2.4561-10.3057,2.5923c0.1348-2.0986,0.6484-6.856,2.5938-10.3042
			c1.4937-2.6483,4.6743-4.9865,6.8978-6.3932l-1.4487-1.4487c-2.3757,1.5398-5.5679,3.9811-7.1913,6.8594
			C3.4414,51.2547,2.111,55.5232,2.0127,61.981c4.3006-0.0042,9.6076-0.7875,13.3311-2.8882
			c2.8784-1.6237,5.3182-4.8151,6.8588-7.192l-1.4479-1.4479C19.3495,52.6757,17.0147,55.8537,14.3613,57.3506z"/>
		<path fill="#ffffff" d="M31.293,17.1509c-0.9044,0.9044-1.7719,1.8099-2.6122,2.7089l-7.4859,0.3942
			c-1.9775,0.104-3.8374,0.9321-5.2363,2.332L3.7158,34.8286l3.9517,3.9512l9.8994-2.8282l1.638,1.638l-5.3201,3.1648l9.3608,9.3608
			l3.1648-5.3201l1.638,1.638l-2.8282,9.8994l3.9512,3.9517l12.2427-12.2427c1.3999-1.3989,2.228-3.2588,2.332-5.2363l0.3941-7.4859
			c0.8989-0.8404,1.8046-1.7079,2.7089-2.6122c9.506-9.506,14.5385-21.2252,15.1653-30.7215
			C52.5089,2.613,40.8024,7.6415,31.293,17.1509z M6.5439,34.8286L17.3726,24c1.0498-1.0498,2.4443-1.6709,3.9277-1.749
			l5.4551-0.287c-5.1371,5.7578-8.6721,10.7733-9.519,12.0024l-8.9869,2.5673L6.5439,34.8286z M22.8413,46.8828l-5.7241-5.7241
			l3.5466-2.1102l4.2877,4.2877L22.8413,46.8828z M41.749,42.6997c-0.0781,1.4834-0.6992,2.8779-1.749,3.9277L29.1714,57.4561
			l-1.7051-1.7056l2.5673-8.9869c1.2291-0.8469,6.2446-4.3819,12.0023-9.519L41.749,42.6997z M45.4351,31.293
			c-6.9077,6.9077-13.9746,12.0317-16.1455,13.5527c-4.2148-4.2148-5.1084-5.1084-10.1353-10.1353
			c1.5195-2.1699,6.6392-9.2319,13.5527-16.1455c3.4355-3.4355,6.9624-6.06,10.3126-8.0722l10.4908,10.4908
			C51.4981,24.3303,48.873,27.855,45.4351,31.293z M54.5399,19.1849L44.819,9.4641c6.7837-3.7149,12.547-4.8875,14.9757-5.2568
			C59.4285,6.6354,58.2617,12.3958,54.5399,19.1849z"/>
	</g>
</g>
</svg>
