<?xml version="1.0" encoding="utf-8"?>
<!-- Generator: Adobe Illustrator 18.1.1, SVG Export Plug-In . SVG Version: 6.00 Build 0)  -->
<svg version="1.2" baseProfile="tiny" xmlns="http://www.w3.org/2000/svg" xmlns:xlink="http://www.w3.org/1999/xlink" x="0px"
	 y="0px" width="64px" height="64px" viewBox="0 0 64 64" xml:space="preserve">

<g id="Production">
	<path fill="#ffffff" d="M32,10.005c-13.7852,0-25,9.067-25,20.2052c0,6.2305,3.4502,11.7986,9.7285,15.7034
		c-0.2624,4.3605-3.2386,7.1396-5.0503,9.0864c2.8861,0,7.4984,0.5071,12.5098-4.6044c0.2515-0.2568,0.5757-0.4467,1.0405-0.4545
		C26.5332,50.0046,27.8179,50,29.0474,50c0.001,0,0.001,0,0.002,0C43.9041,50,57,45.05,57,30.2027
		C57,19.0645,45.7852,10.005,32,10.005z M29.0493,48c0,0-0.0015,0-0.002,0c-3.6897,0-4.9753-0.3682-6.2881,0.9741
		c-1.9517,1.9907-4.1201,3.2349-6.4702,3.7173c1.1729-1.7012,2.4131-4.1992,2.4551-7.1924c0.0073-0.4429-0.2246-0.8599-0.605-1.0874
		C12.2456,40.873,9,35.8262,9,30.2002C9,20.1646,19.3179,12,32,12s23,8.1461,23,18.1818C55,43.8158,42.7517,48,29.0493,48z"/>
</g>
</svg>
