<?xml version="1.0" encoding="utf-8"?>
<!-- Generator: Adobe Illustrator 18.1.1, SVG Export Plug-In . SVG Version: 6.00 Build 0)  -->
<svg version="1.2" baseProfile="tiny" xmlns="http://www.w3.org/2000/svg" xmlns:xlink="http://www.w3.org/1999/xlink" x="0px"
	 y="0px" width="128px" height="128px" viewBox="0 0 128 128" xml:space="preserve">
<g id="_x31_28px_boxes">
	<rect fill="none" width="128" height="128"/>
</g>
<g id="Production">
	<g>
		<path fill="#ffffff" d="M105.9223,50.7619c-0.4021-1.8612-2.942-2.1628-3.762-0.4345
			c-2.4707,5.2119-2.9807,14.6584-17.3396,21.7605c-9.2075,4.5542-13.7886,13.239-14.8008,23.4703
			c-2.1323-6.8393-3.1921-14.0821-3.1811-21.2786c-3.5786,0.4698-7.6775,0.4433-11.0855,0.1099
			c1.1465,15.2651,6.449,30.2857,16.1968,42.4904l0.0618,0.0775c1.2234,1.5231,3.4035,1.8349,5.0796,0.7646
			c2.0678-1.3205,1.3562-3.5296,1.123-5.0991c-1.1926-8.0163,3.9295-12.6355,10.1033-17.8436
			c5.2126-4.3974,9.3855-9.4379,12.4023-14.9813c2.4203-4.4471,4.1033-9.2213,5.0022-14.1896
			C107.258,57.1205,105.9777,51.0174,105.9223,50.7619z"/>
		<path fill="#ffffff" d="M38.2084,80.6288C27.5426,72.401,27.2028,61.4353,27.1935,60.9802
			c-0.0339-2.678-3.9253-3.0481-4.4553-0.4147c-2.9019,14.4172-0.5581,27.4854,6.5991,36.7973
			c8.6397,11.2398,20.6265,13.7834,33.7332,14.5907C55.123,98.5915,50.4525,90.0733,38.2084,80.6288z"/>
		<path fill="#ffffff" d="M63.0995,23.9122c2.5987-3.1559,5.8201-5.9557,9.4693-7.7632
			c-6.4803-6.8967-14.5945-8.6466-22.9073-3.6077C55.4433,14.7301,59.9284,18.7281,63.0995,23.9122z"/>
		<path fill="#ffffff" d="M30.9504,22.2372c6.154,5.1117,7.592,10.6825,5.1291,19.8691c-1.9631,7.3223-1.043,14.108,2.5911,19.1072
			c5.0725,6.9784,13.9533,8.9291,22.5832,8.9291c7.9136,0,13.5044-1.8456,17.0921-5.6418
			c4.0993-4.3377,5.6601-10.9909,5.0615-21.5727c-0.6917-12.2228,6.5141-16.9702,6.8081-17.1581
			c1.1821-0.7316,1.4233-2.3506,0.5085-3.3954c-5.3125-6.0521-16.9983-5.7368-25.354,5.9668
			c4.0779,9.6403,4.1087,21.5409,0.4607,31.3115L65.829,59.657c-0.9023,2.4179-4.5527,1.1247-3.7436-1.3203
			c6.2246-18.7386-2.3533-46.8303-29.0845-40.6415C29.5739,19.2162,29.6225,21.1346,30.9504,22.2372z"/>
	</g>
</g>
</svg>

