<?xml version="1.0" encoding="utf-8"?>
<!-- Generator: Adobe Illustrator 18.1.1, SVG Export Plug-In . SVG Version: 6.00 Build 0)  -->
<svg version="1.2" baseProfile="tiny" xmlns="http://www.w3.org/2000/svg" xmlns:xlink="http://www.w3.org/1999/xlink" x="0px"
	 y="0px" width="64px" height="64px" viewBox="0 0 64 64" xml:space="preserve">

<g id="Production">
	<g>
		<path fill="#ffffff" d="M51,23h-6v-5H13v33c0,3.3086,2.6641,6,5.9385,6h20.123C42.3359,57,45,54.3086,45,51v-4h6
			c4.4111,0,8-3.5854,8-7.9927V31C59,26.5889,55.4111,23,51,23z M43,51c0,2.2432-1.73,4-3.9385,4h-20.123C16.73,55,15,53.2432,15,51
			V20h28C43,31.5636,43,39.7368,43,51z M57,39.0073C57,42.3115,54.3086,45,51,45h-6V25h6c3.3086,0,6,2.6914,6,6V39.0073z"/>
		<path fill="#ffffff" d="M21.0122,11.1724c-0.031,1.1062,0.4659,2.0186,0.959,2.8276h2.3268
			c-0.6161-1.1221-1.3096-1.9385-1.2867-2.772c0.048-1.7169,2.9336-2.743,2.8916-5.5098C25.8867,4.6574,25.3949,3.7812,24.9172,3
			h-2.3239c0.5576,1.0281,1.2968,1.9228,1.3094,2.7485C23.9301,7.4843,21.0885,8.462,21.0122,11.1724z"/>
		<path fill="#ffffff" d="M33.0122,11.1724c-0.031,1.1062,0.4659,2.0186,0.959,2.8276h2.3268
			c-0.6161-1.1221-1.3096-1.9385-1.2867-2.772c0.048-1.7169,2.9336-2.743,2.8916-5.5098C37.8867,4.6574,37.3949,3.7812,36.9172,3
			h-2.3239c0.5576,1.0281,1.2968,1.9228,1.3094,2.7485C35.9301,7.4843,33.0885,8.462,33.0122,11.1724z"/>
	</g>
</g>
</svg>
