<?xml version="1.0" encoding="utf-8"?>
<!-- Generator: Adobe Illustrator 18.1.1, SVG Export Plug-In . SVG Version: 6.00 Build 0)  -->
<svg version="1.2" baseProfile="tiny" xmlns="http://www.w3.org/2000/svg" xmlns:xlink="http://www.w3.org/1999/xlink" x="0px"
	 y="0px" width="64px" height="64px" viewBox="0 0 64 64" xml:space="preserve">

<g id="Production">
	<g>
		<rect x="2" y="30" fill="#ffffff" width="9" height="2"/>
		<rect x="53" y="30" fill="#ffffff" width="9" height="2"/>
		
			<rect x="12.9689" y="44.531" transform="matrix(-0.7071 -0.7071 0.7071 -0.7071 -10.8242 93.579)" fill="#ffffff" width="1.9998" height="9.0004"/>
		
			<rect x="49.0314" y="8.4685" transform="matrix(0.7071 0.7071 -0.7071 0.7071 23.8241 -31.579)" fill="#ffffff" width="1.9998" height="9.0004"/>
		<rect x="31" y="1" fill="#ffffff" width="2" height="9"/>
		
			<rect x="45.531" y="48.0314" transform="matrix(-0.7071 -0.7071 0.7071 -0.7071 50.7384 119.079)" fill="#ffffff" width="9.0004" height="1.9998"/>
		
			<rect x="9.4685" y="11.9689" transform="matrix(0.7071 0.7071 -0.7071 0.7071 13.2616 -6.0789)" fill="#ffffff" width="9.0004" height="1.9998"/>
		<path fill="#ffffff" d="M48,31.0361C48,22.1938,40.9171,15,32.0748,15c-8.4201,0-15.138,6.4382-15.9417,14.3672
			c-0.749,7.3921,2.0515,10.543,4.5315,13.3232c1.5975,1.7906,3.0035,3.369,3.3353,5.9617v8.9685L29.7603,61h4.479L40,57.6206
			V49.177c0.1804-3.0037,1.5291-4.4882,3.2251-6.3079C45.4634,40.4683,48,37.7466,48,31.0361z M33.6963,59h-3.3931L26,56.4751V49h12
			v7.4751L33.6963,59z M38.2408,47H25.7007c-0.6642-2.4027-2.1193-4.0444-3.5433-5.6411c-2.313-2.5928-4.6946-5.2739-4.0339-11.79
			C18.8207,22.6864,24.6454,17,32.0748,17C39.8141,17,46,23.2964,46,31.0361c0,5.9229-2.1543,8.2339-4.2378,10.4692
			C40.3857,42.9819,38.9196,44.5634,38.2408,47z"/>
	</g>
</g>
</svg>
