<?xml version="1.0" encoding="utf-8"?>
<!-- Generator: Adobe Illustrator 18.1.1, SVG Export Plug-In . SVG Version: 6.00 Build 0)  -->
<svg version="1.2" baseProfile="tiny" xmlns="http://www.w3.org/2000/svg" xmlns:xlink="http://www.w3.org/1999/xlink" x="0px"
	 y="0px" width="64px" height="64px" viewBox="0 0 64 64" xml:space="preserve">

<g id="Production">
	<g>
		<path fill="#ffffff" d="M4,53h56V33H4V53z M6,35h52v16H6V35z"/>
		<rect x="10" y="37" fill="#ffffff" width="2" height="12"/>
		<rect x="16" y="37" fill="#ffffff" width="2" height="12"/>
		<rect x="22" y="37" fill="#ffffff" width="2" height="12"/>
		<rect x="28" y="37" fill="#ffffff" width="2" height="12"/>
		<rect x="34" y="37" fill="#ffffff" width="2" height="12"/>
		<rect x="40" y="37" fill="#ffffff" width="2" height="12"/>
		<rect x="46" y="37" fill="#ffffff" width="2" height="12"/>
		<rect x="52" y="37" fill="#ffffff" width="2" height="12"/>
		<path fill="#ffffff" d="M4,11v20h56V11H4z M58,29H6V13h52V29z"/>
		<rect x="10" y="15" fill="#ffffff" width="2" height="12"/>
		<rect x="16" y="15" fill="#ffffff" width="2" height="12"/>
		<rect x="22" y="15" fill="#ffffff" width="2" height="12"/>
		<rect x="28" y="15" fill="#ffffff" width="2" height="12"/>
		<rect x="34" y="15" fill="#ffffff" width="2" height="12"/>
		<rect x="40" y="15" fill="#ffffff" width="2" height="12"/>
		<rect x="46" y="15" fill="#ffffff" width="2" height="12"/>
		<rect x="52" y="15" fill="#ffffff" width="2" height="12"/>
	</g>
</g>
</svg>
