<?xml version="1.0" encoding="utf-8"?>

<svg version="1.2" baseProfile="tiny" xmlns="http://www.w3.org/2000/svg" xmlns:xlink="http://www.w3.org/1999/xlink" x="0px"
	 y="0px" width="128px" height="128px" viewBox="0 0 128 128" xml:space="preserve">
<g id="_x31_28px_boxes">
	<rect fill="none" width="128" height="128"/>
</g>
<g id="Production">
	<g>
		<path fill="#ffffff" d="M122.624,94.8375L111.0793,78.675c-0.7508-1.0512-1.9631-1.675-3.2548-1.675h-3.5412
			c0.5598-1.5559,0.9923-3.283,1.2665-5.1267c2.4766-0.5357,4.333-2.7366,4.333-5.3733c0-2.7699-2.0495-5.0551-4.7137-5.4375
			c-1.443-6.4005-4.8648-10.9443-8.1691-11.0496V36c0-2,3-3,3-3v-3c0,0-3-2-8-2s-8,2-8,2v3c0,0,3,1,3,3v14h-5v-7
			c0-2.2092-2.6863-4-6-4s-6,1.7908-6,4v7h-5v-7c0-2.2092-2.6863-4-6-4s-6,1.7908-6,4v-8c0-2.2092-1.7908-4-4-4H7.96
			C6.8774,31,6,31.8774,6,32.96v3.2065c0,1.0073,0.7675,1.8178,1.766,1.9495C12.95,38.8,15,42.4004,15,46.0002
			C15,58.4104,15,70.6948,15,83c0,1.1046,0.8954,2,2,2c0,0,1.1667,0,2.2803,0C20.6993,77.0444,27.6366,71,36,71
			c6.4973,0,12.1387,3.6477,15,9.0044C53.8613,74.6477,59.5027,71,66,71c7.9609,0,14.6246,5.48,16.4731,12.868
			C84.7489,81.4888,87.9476,80,91.5,80c6.9036,0,12.5,5.5964,12.5,12.5c0,1.9764-0.4712,3.8385-1.2878,5.5h18.2843
			C122.6233,98,123.5695,96.1613,122.624,94.8375z M42,57c0,0.5522-0.4478,1-1,1H28c-0.5522,0-1-0.4478-1-1V43
			c0-2.2092,3.3579-4,7.5-4s7.5,1.7908,7.5,4V57z M53,64v-7h42.9067c0.8372,0.9377,2.1423,3.4318,2.7029,7H53z"/>
		<circle fill="#ffffff" cx="91.5" cy="92.5" r="8.5"/>
		<path fill="#ffffff" d="M33.3184,89.7207l15.5793-3.28C48.126,79.9976,42.6509,75,36,75c-7.1797,0-13,5.8203-13,13
			s5.8203,13,13,13c5.915,0,10.8987-3.9542,12.4739-9.3608l-14.1262,2.9741c-0.1729,0.0371-0.3467,0.0547-0.5176,0.0547
			c-1.1572,0-2.1953-0.8086-2.4434-1.9864C31.1025,91.3311,31.9668,90.0049,33.3184,89.7207z"/>
		<path fill="#ffffff" d="M66,75c-6.333,0-11.6021,4.5305-12.7582,10.526l14.9105-3.1393c1.3448-0.2861,2.6758,0.5801,2.961,1.9317
			c0.2842,1.3505-0.5801,2.6767-1.9317,2.9609l-15.9149,3.3508C54.4829,96.5488,59.7214,101,66,101c7.1797,0,13-5.8203,13-13
			S73.1797,75,66,75z"/>
	</g>
</g>
</svg>
