<?xml version="1.0" encoding="utf-8"?>

<svg version="1.2" baseProfile="tiny" xmlns="http://www.w3.org/2000/svg" xmlns:xlink="http://www.w3.org/1999/xlink" x="0px"
	 y="0px" width="128px" height="128px" viewBox="0 0 128 128" xml:space="preserve">
<g id="_x31_28px_boxes">
	<rect fill="none" width="128" height="128"/>
</g>
<g id="Production">
	<path fill="#ffffff" d="M78.1234,64.9428c1.9802-1.9775,4.8373-2.6342,7.6897-2.848c3.9667-0.2972,5.4148,0.1952,8.7693-0.702
		c10.342-2.7663,16.8435-13,17.7002-22.2955c0.0971-1.3987-1.3698-2.3656-2.5815-1.6577
		c-0.3711,0.2138-13.0211,7.5442-15.384,8.8174c-3.2792,1.7671-6.8371-2.1769-8.7669-5.5049
		c-1.7736-3.2168-3.5492-7.9795-0.4667-9.9487c2.5077-1.6019,15.08-8.7582,15.5741-9.043c1.1942-0.6716,1.1407-2.4754-0.1296-3.0574
		c-13.3067-6.1505-29.6994-0.5707-33.4304,13.4458c-0.9799,3.6811-0.7554,6.671-0.9074,9.0268
		c-0.2267,3.5133-1.0162,6.5775-3.121,8.6849l-13.198,13.198c-3.1271,3.1194-8.4132,2.9512-12.445,2.9426l0.083,0.0884
		C24.7724,66.7896,16.6531,78.3957,15.7201,88.902c-0.1298,1.4781,1.4293,2.3248,2.5625,1.6541
		c0.4042-0.2328,15.3069-8.856,15.751-8.9988c3.6032-0.9298,6.5545,2.466,8.3999,5.6914c4.4379,8.0216,0.397,10.0686,0.397,10.0686
		l-15.4944,8.9272c-1.2284,0.7047-1.1137,2.4938,0.1301,3.0525c15.0924,6.9672,33.708-1.0982,34.2004-18.9121l0.0828,0.083
		c-0.1123-4.9963,0.3726-9.5232,3.1763-12.3269L78.1234,64.9428z"/>
</g>
</svg>
