<?xml version="1.0" encoding="utf-8"?>
<!-- Generator: Adobe Illustrator 18.1.1, SVG Export Plug-In . SVG Version: 6.00 Build 0)  -->
<svg version="1.2" baseProfile="tiny" xmlns="http://www.w3.org/2000/svg" xmlns:xlink="http://www.w3.org/1999/xlink" x="0px"
	 y="0px" width="128px" height="128px" viewBox="0 0 128 128" xml:space="preserve">
<g id="box">
	<rect fill="none" width="128" height="128"/>
</g>
<g id="Production">
	<g>
		<path fill="#ffffff" d="M35.7367,36.1535h56.5139v32.1503c8.1778-6.7455,4.6843-3.8641,16.1702-13.3375
			c0,0-4.0672-3.4861-9.6748-8.2974V29.6682H78.8895c-6.8733-5.876-12.3615-10.5545-12.8352-10.9112
			c-1.3305-1.0101-3.3222-0.9918-4.4494,0.0027c-0.4012,0.354-5.8528,5.0299-12.7051,10.9085H29.2513v16.842
			c-5.7067,4.8893-9.8698,8.4561-9.8698,8.4561c11.801,9.597,8.1554,6.6327,16.3552,13.2986V36.1535z"/>
		<path fill="#ffffff" d="M60.67,53.5371c1.1148,0,2.0152-0.9009,2.0152-2.0152c0-1.1195-0.9004-2.023-2.0152-2.023H46.7518
			c-1.1245,0-2.0229,0.9035-2.0229,2.023c0,1.1143,0.8984,2.0152,2.0229,2.0152H60.67z"/>
		<path fill="#ffffff" d="M81.2533,67.2624H46.757c-1.1246,0-2.0281,0.901-2.0281,2.023c0,1.1065,0.9035,2.0151,2.0281,2.0151
			h34.4963c1.1118,0,2.0154-0.9086,2.0154-2.0151C83.2687,68.1634,82.3651,67.2624,81.2533,67.2624z"/>
		<path fill="#ffffff" d="M81.2533,58.3873H46.757c-1.1246,0-2.0281,0.9033-2.0281,2.0151c0,1.1167,0.9035,2.0177,2.0281,2.0177
			h34.4963c1.1118,0,2.0154-0.901,2.0154-2.0177C83.2687,59.2906,82.3651,58.3873,81.2533,58.3873z"/>
		<path fill="#ffffff" d="M87.6915,79.6709l11.1302,15.2848c0.9475,1.3148,0.6613,3.1477-0.6482,4.1031
			c-1.3147,0.9476-3.1477,0.6614-4.1031-0.6482L83.1537,83.412l-38.0549,0.0208L33.9845,98.5095l0.0051,0.0079
			c-0.9581,1.3008-2.7959,1.5844-4.1081,0.6171c-1.3045-0.961-1.5804-2.7937-0.617-4.1032l11.281-15.3033L18.569,61.8603v45.1991
			c0,1.5958,1.3102,2.934,2.9316,2.934h84.999c1.5948,0,2.9314-1.3086,2.9314-2.934V61.7379L87.6915,79.6709z"/>
	</g>
</g>
</svg>
