<?xml version="1.0" encoding="utf-8"?>
<!-- Generator: Adobe Illustrator 18.1.1, SVG Export Plug-In . SVG Version: 6.00 Build 0)  -->
<svg version="1.2" baseProfile="tiny" xmlns="http://www.w3.org/2000/svg" xmlns:xlink="http://www.w3.org/1999/xlink" x="0px"
	 y="0px" width="128px" height="128px" viewBox="0 0 128 128" xml:space="preserve">
<g id="box">
	<rect fill="none" width="128" height="128"/>
</g>
<g id="Production">
	<g>
		<path fill="#ffffff" d="M49.7188,73.2665v7.7773l-21.6179-9.2583c-1.0609-0.455-2.2454,0.3235-2.2454,1.481v35.6374
			c0,0.8811,0.7148,1.6106,1.6113,1.6106h43.2447c0.2391-3.2321,1.9408-26.2209,2.2021-29.7571l-20.9492-8.9719
			C50.9034,71.3306,49.7188,72.1091,49.7188,73.2665z"/>
		<path fill="#ffffff" d="M97.9392,52.027c-0.0659-0.8933-0.8061-1.58-1.7014-1.58h-5.4905
			c-1.2373-5.4036-5.5016-11.6332-13.653-16.0185c1.9293-9.5089-5.6215-17.0387-14.9261-17.0387
			c-7.8014,0.0012-11.0984,6.3388-19.3142,6.3506c-5.2995,0-10.0053-2.8247-11.2404-4.0893
			c-0.7039-0.6332-1.8426-0.1457-1.8426,0.8254c-0.0112,0.4579,0.1643,9.2319,10.1841,17.9895
			c10.0555,8.792,25.4713,10.0804,32.2446,4.2604c-10.4552-7.7359-26.2016-12.3755-23.9189-11.656
			c-0.148-0.0467-0.2373-0.1962-0.209-0.3484c0.0283-0.1527,0.166-0.2593,0.3208-0.249c0.0107,0.0034,2.9915,0.1989,7.3574,1.092
			c10.8934,2.2281,26.3495,8.3418,29.8636,18.882H80.2c-0.8955,0-1.6355,0.6861-1.7014,1.58
			c-0.0101,0.1359-4.2037,56.7409-4.2037,56.8771c0,0.9741,0.795,1.7061,1.7049,1.7061h24.4387
			c0.9892,0,1.7739-0.8414,1.7014-1.8321v-0.0002L97.9392,52.027z"/>
	</g>
</g>
</svg>
