<?xml version="1.0" encoding="utf-8"?>
<!-- Generator: Adobe Illustrator 18.1.1, SVG Export Plug-In . SVG Version: 6.00 Build 0)  -->
<svg version="1.2" baseProfile="tiny" xmlns="http://www.w3.org/2000/svg" xmlns:xlink="http://www.w3.org/1999/xlink" x="0px"
	 y="0px" width="128px" height="128px" viewBox="0 0 128 128" xml:space="preserve">
<g id="_x31_28px_boxes">
	<rect fill="none" width="128" height="128"/>
</g>
<g id="Production">
	<g>
		<path fill="#ffffff" d="M55.5064,30.1245c4.9075,3.6018,11.7837,2.5352,15.3713-2.3579
			c3.6026-4.8989,2.5518-11.7681-2.3386-15.3645c-4.8789-3.6078-11.7693-2.5492-15.3738,2.3423
			C49.5808,19.6343,50.6287,26.5213,55.5064,30.1245z"/>
		<path fill="#ffffff" d="M77.8818,78.6302l-4.9916,8.0637c-0.5386,0.8701-0.836,1.8677-0.8611,2.8905l-0.5479,22.1592
			c-0.2095,7.7621,11.3113,8.0955,11.521,0.2849l0.5093-20.5971l10.3137-17.0202l14.0317,39.4077
			c2.8109,7.5827,13.2691,2.9577,10.857-3.8657l-16.9961-47.7326L77.8818,78.6302z"/>
		<path fill="#ffffff" d="M32.4563,88.2125c3.6055,3.9031,0.8621,9.9781-2.6133,11.8003c-3.8615,2.025-0.8019,7.8734,3.065,5.8452
			c5.0232-2.634,7.0488-7.4458,7.6006-10.6457c1.9978-11.5705-9.3919-18.9965-19.6096-14.6015
			c-9.2854,3.9935-16.8022,16.8171-8.1712,37.1186h7.2532C7.3112,91.797,25.4197,80.5959,32.4563,88.2125z"/>
		<path fill="#ffffff" d="M25.3477,113.0069c-3.047,0.4644-2.2681,4.989,0.562,4.7225c9.9038-1.0129,24.7163-6.8278,26.6514-28.1016
			l62.5505-41.555c3.5149-2.3355,0.2822-8.1101-4.0191-5.2539c-1.1386-4.3965-3.1781-11.0712-6.9843-13.429
			c-4.4597-2.7624-15.5723-1.7151-21.6431-0.8997c-7.1851,0.4662-14.1435,4.7523-18.643,11.4938
			c-3.5316,5.2905-3.6905,28.9081-3.7161,36.7078L47.5,85.0664c-0.8945,0.6043-1.4946,1.7386-1.47,2.8077
			C46.3301,100.8845,39.6678,110.8249,25.3477,113.0069z M99.738,36.3944c1.1566,1.069,2.929,6.0967,4.0433,11.2818l-7.491,4.9766
			c-3.4053-5.0337-8.135-12.0134-11.008-16.2048C91.691,35.6969,98.1158,35.6531,99.738,36.3944z M69.7034,49.1921l10.0315,14.4593
			L68.418,71.1697C68.5305,64.8561,68.8169,55.6726,69.7034,49.1921z"/>
	</g>
</g>
</svg>
