<?xml version="1.0" encoding="utf-8"?>
<!-- Generator: Adobe Illustrator 18.1.1, SVG Export Plug-In . SVG Version: 6.00 Build 0)  -->
<svg version="1.2" baseProfile="tiny" xmlns="http://www.w3.org/2000/svg" xmlns:xlink="http://www.w3.org/1999/xlink" x="0px"
	 y="0px" width="128px" height="128px" viewBox="0 0 128 128" xml:space="preserve">
<g id="box">
	<rect fill="none" width="128" height="128"/>
</g>
<g id="Production">
	<g>
		<path fill="#ffffff" d="M66.7666,33.1938c4.4344-3.2756,5.3868-9.5365,2.1282-13.9818c-3.2768-4.447-9.5408-5.4092-13.9761-2.1294
			c-4.4458,3.2693-5.4011,9.5139-2.1259,13.9678C56.0542,35.4984,62.3052,36.4681,66.7666,33.1938z"/>
		<path fill="#ffffff" d="M50.9632,84.6205l-6.3421-10.245L23.712,65.3047L9.3052,105.7652
			c-0.9704,2.7256,0.4524,5.7217,3.178,6.6922c0.5808,0.2069,1.1736,0.3049,1.7571,0.3049c2.1533,0,4.1714-1.338,4.935-3.4827
			l12.7593-35.8337c0.1292,0.4237,9.3728,15.4814,9.3728,15.4814l0.4629,18.7247c0.0703,2.8482,2.4011,5.109,5.2344,5.109
			c0.0437,0,0.0879-0.0005,0.1318-0.0016c2.8923-0.0716,5.179-2.4741,5.1074-5.3665l-0.498-20.1446
			C51.7229,86.3185,51.4527,85.4114,50.9632,84.6205z"/>
		<path fill="#ffffff" d="M75.0916,83.5068l3.2368-5.4084l-12.3735-5.368c-0.8603-6.1519-3.7273-26.0476-6.7478-30.5734
			c-3.9872-5.9734-12.404-9.0035-19.0811-8.6971c-1.9695,0.0907-12.0061,0.674-16.1721,3.2544
			c-3.3179,2.0552-7.6189,9.1759-9.9985,13.4576l-2.4307-1.0545c-1.5828-0.6868-3.4236,0.0397-4.1106,1.6232
			c-0.6868,1.5832,0.04,3.4236,1.6233,4.1105L75.0916,83.5068z M54.2215,50.0075c1.4254,5.3797,2.8015,13.6875,3.6411,19.2123
			L44.8184,63.561L54.2215,50.0075z M27.9031,43.0903c1.4192-0.8791,6.0552-1.6451,10.3215-1.9929
			c-3.215,4.7137-7.7102,11.3564-10.2722,15.1467l-7.0781-3.0707C23.6849,48.2204,26.7058,43.8364,27.9031,43.0903z"/>
		<path fill="#ffffff" d="M95.2666,76.4067c-1.3383-1.9018-3.551-2.9974-5.872-2.9115c-2.3238,0.0858-4.4466,1.3417-5.6407,3.3372
			l-7.684,12.8396l-6.0562,2.0428c-1.7121,0.5777-3.1279,1.8065-3.9404,3.4206l-8.9243,17.7301h63.6958L95.2666,76.4067z"/>
	</g>
</g>
</svg>
