<?xml version="1.0" encoding="utf-8"?>
<!-- Generator: Adobe Illustrator 18.1.1, SVG Export Plug-In . SVG Version: 6.00 Build 0)  -->
<svg version="1.2" baseProfile="tiny" xmlns="http://www.w3.org/2000/svg" xmlns:xlink="http://www.w3.org/1999/xlink" x="0px"
	 y="0px" width="64px" height="64px" viewBox="0 0 64 64" xml:space="preserve">

<g id="Production">
	<g>
		<path fill="#ffffff" d="M57.98,24.5c0-1.9297-1.5503-3.5-3.48-3.5h-3.2643l-1.8124-5.4863
			c-0.4937-1.4927-1.8228-2.562-3.3872-2.7236C43.1777,12.4951,37.5532,12,32,12s-11.1777,0.4951-14.0361,0.79
			c-1.5645,0.1616-2.8936,1.231-3.3872,2.7241L12.7644,21H9.5C7.5703,21,6,22.5703,6,24.5c0,1.9142,1.5464,3.4705,3.4548,3.4954
			C7.8772,30.2943,7,32.9548,7,35.6016C7,44.9156,7,41.6583,7,51c0,1.103,0.897,2,2,2h6c1.103,0,2-0.897,2-2v-4h30v4
			c0,1.103,0.897,2,2,2h6c1.103,0,2-0.897,2-2c0-9.3643,0-5.937,0-15.3984c0-2.6468-0.8772-5.3073-2.4548-7.6061
			C56.4536,27.9705,57.98,26.4142,57.98,24.5z M54.5,23c0.8271,0,1.48,0.6729,1.48,1.5S55.3271,26,54.5,26h-1.5905
			c-0.0123-0.0126-0.0227-0.0265-0.035-0.0391L51.8964,23H54.5z M16.4761,16.1416c0.2466-0.7466,0.9111-1.2812,1.6929-1.3623
			C20.9893,14.4883,26.5366,14,32,14s11.0107,0.4883,13.8311,0.7793c0.7817,0.0811,1.4463,0.6157,1.6929,1.3618L50.4509,25H13.5491
			L16.4761,16.1416z M9.5,26C8.6729,26,8,25.3271,8,24.5S8.6729,23,9.5,23h2.6036l-0.9781,2.9609
			c-0.0123,0.0126-0.0227,0.0265-0.035,0.0391H9.5z M15.0015,51H9v-4h6.0005L15.0015,51z M55.0015,51H49v-4h6.0005L55.0015,51z
			 M55,45c-10.9299,0-36.3581,0-46,0v-9.3984c0-2.8563,1.1682-5.8912,3.874-8.5586L12.8882,27h38.2236l0.0142,0.043
			C53.8209,29.6996,55,32.7306,55,35.6016V45z"/>
		<rect x="24" y="38" fill="#ffffff" width="16" height="2"/>
		<path fill="#ffffff" d="M19.248,33.8984l-6-0.75C12.0444,32.9932,11,33.9473,11,35.1328V38c0,1.103,0.897,2,2,2h6
			c1.103,0,2-0.897,2-2v-2.1172C21,34.876,20.2466,34.0229,19.248,33.8984z M13,38v-2.8672l6,0.75L19.0015,38H13z"/>
		<path fill="#ffffff" d="M50.752,33.1484l-6,0.75C43.7534,34.0229,43,34.876,43,35.8828V38c0,1.103,0.897,2,2,2h6
			c1.103,0,2-0.897,2-2v-2.8672C53,33.9473,51.9526,32.9932,50.752,33.1484z M45,38v-2.1172l6-0.75L51.0015,38H45z"/>
	</g>
</g>
</svg>
