<?xml version="1.0" encoding="utf-8"?>
<!-- Generator: Adobe Illustrator 18.1.1, SVG Export Plug-In . SVG Version: 6.00 Build 0)  -->
<svg version="1.2" baseProfile="tiny" xmlns="http://www.w3.org/2000/svg" xmlns:xlink="http://www.w3.org/1999/xlink" x="0px"
	 y="0px" width="128px" height="128px" viewBox="0 0 128 128" xml:space="preserve">
<g id="_x31_28px_boxes">
	<rect fill="none" width="128" height="128"/>
</g>
<g id="Production">
	<g>
		<path fill="#ffffff" d="M101.0393,73.4544C97.9186,62.7045,84.1062,48.639,77.646,39.2889H50.3518
			C43.8914,48.64,30.0796,62.7048,26.9587,73.4544c-5.6596,19.4938,7.5232,38.9797,37.0406,38.9797
			C93.5713,112.4341,106.6951,92.9345,101.0393,73.4544z M67.2609,94.0645v5.9237h-6.0588v-5.4635
			c-4.1003-0.1726-8.0781-1.2654-10.4038-2.4731l1.836-6.7285c2.5705,1.3224,6.1811,2.5302,10.159,2.5302
			c3.5497,0,5.9364-1.3227,5.9364-3.5656c0-2.1853-1.9583-3.5657-6.5483-5.0035c-6.5483-2.0703-11.0159-4.9458-11.0159-10.5243
			c0-5.1184,3.7943-9.0866,10.3428-10.2368v-5.4635h5.9974v5.0609c4.0392,0.115,6.7931,0.9777,8.9352,1.8979l-1.836,6.4986
			c-1.5301-0.69-4.4064-2.0128-8.8128-2.0128c-3.9779,0-5.2631,1.6677-5.2631,3.2781c0,1.8403,2.142,3.1055,7.4051,4.8884
			c7.2827,2.4154,10.159,5.5784,10.159,10.812C78.0931,88.6011,74.2988,92.9717,67.2609,94.0645z"/>
		<path fill="#ffffff" d="M45.6545,23.1691c3.2325,1.9535,6.8421,6.4662,7.7244,9.6568c0.0132,0.0473,0.0259,0.1183,0.0295,0.2169
			h21.1812c0.0037-0.0986,0.0164-0.1696,0.0294-0.2169c0.7504-2.7134,3.5734-6.1996,7.9491-9.8163
			c1.4788-1.2225,0.627-4.1626-3.4413-4.1626c-2.5489,0-6.1649,1.0278-8.0648,1.6298c-1.6819-2.0013-4.5583-4.9109-7.0627-4.9109
			c-2.5047,0-5.3814,2.9098-7.0634,4.9112c-1.9-0.6017-5.5172-1.6288-8.0663-1.6288
			C44.5831,18.8483,43.8947,22.1052,45.6545,23.1691z"/>
	</g>
</g>
</svg>
