<?xml version="1.0" encoding="utf-8"?>

<svg version="1.2" baseProfile="tiny" xmlns="http://www.w3.org/2000/svg" xmlns:xlink="http://www.w3.org/1999/xlink" x="0px"
	 y="0px" width="64px" height="64px" viewBox="0 0 64 64" xml:space="preserve">

<g id="Production">
	<g>
		<path fill="#ffffff" d="M17.53,5.0103c-3.4592,0-4.3865,1.6893-11.6682,8.9695c-2.535,2.5359-2.5346,6.6581,0,9.1929
			l6.0109,6.0096l16.2641-16.2635C21.826,6.6088,20.9142,5.0103,17.53,5.0103z M11.8727,22.1116
			c-4.3748-4.3737-4.5635-2.5087,4.5958-11.6664c0.5788-0.5797,1.541-0.582,2.1221,0l2.4747,2.4741L11.8727,22.1116z"/>
		<polygon fill="#ffffff" points="50.9246,35.7061 30.9651,15.7478 27.4299,19.2834 46.5593,38.4131 50.0251,48.702 
			47.6569,51.0703 37.3666,47.605 18.2372,28.4763 14.7019,32.0114 34.6594,51.9691 59.1827,60.2278 		"/>
		<path fill="#ffffff" d="M42.8023,40.3116L24.6006,22.1121l-3.5352,3.5352l18.2017,18.1995
			C41.6024,46.1819,45.1429,42.6498,42.8023,40.3116z"/>
	</g>
</g>
</svg>
