<?xml version="1.0" encoding="utf-8"?>
<!-- Generator: Adobe Illustrator 18.1.1, SVG Export Plug-In . SVG Version: 6.00 Build 0)  -->
<svg version="1.2" baseProfile="tiny" xmlns="http://www.w3.org/2000/svg" xmlns:xlink="http://www.w3.org/1999/xlink" x="0px"
	 y="0px" width="128px" height="128px" viewBox="0 0 128 128" xml:space="preserve">
<g id="_x31_28px_boxes">
	<rect fill="none" width="128" height="128"/>
</g>
<g id="Production">
	<g>
		<path fill="#ffffff" d="M60.4399,57.0948c7.5394,0.0033,14.135-4.0447,17.7302-10.0857l9.0882,0.0033l6.477-5.1399l6.4752,5.1465
			l2.0108,0.0005c4.9495,0.0025,8.9635-4.0077,8.9654-8.9582c0.0019-4.9491-4.0086-8.9627-8.9601-8.966l-22.5404-0.0094
			c-2.9718-7.7228-10.4588-13.2051-19.2305-13.2074c-11.38-0.0056-20.6115,9.2171-20.6163,20.5993
			C39.8359,47.8599,49.0589,57.0905,60.4399,57.0948z M55.2726,30.8509c3.1121,0.0017,5.6343,2.5251,5.6331,5.6368
			c-0.0013,3.1122-2.5255,5.6347-5.6379,5.6336c-3.112-0.0022-5.6338-2.5259-5.6326-5.6379
			C49.6368,33.3718,52.1605,30.8495,55.2726,30.8509z"/>
		<path fill="#ffffff" d="M110.3859,71.0164c-0.5522,0.3547-1.6736,1.0748-3.2024,2.0568c-1.2144-4.2078-6.0441-6.1333-9.812-3.9676
			l-4.9922,2.8698c-1.4233-3.9904-6.0784-5.6533-9.6866-3.5796l-14.9201,8.5771l13.3997,0.4744
			c11.6708,0.4131,11.5607,17.8421-0.0592,18.1674c-0.068,0.005-0.1356,0.0121-0.2043,0.0156
			c-0.6225,0.0315-20.0568,1.0336-21.3132,1.0723c-1.4018,0.0431-2.7125-0.1047-4.0301-0.6171
			c-6.1333-2.447-10.1482-3.2299-11.7359-8.2941l12.9788,5.1779c1.4181,0.5657,2.3766,0.4031,4.2308,0.3087
			c1.4841-0.0754,18.2765-0.923,19.6648-0.9993c3.3417-0.1837,5.1709-1.774,5.8511-3.979c1.2278-3.9797-1.841-7.7164-5.7549-7.5085
			l-18.3728-0.6503c-3.1792-2.1951-11.1709-7.7075-16.8294-11.5693c-12.8237-8.7523-24.6432-1.0464-38.396,6.7749l12.5169,28.0488
			c3.3571-1.5065,6.647-2.9808,7.7901-3.4869c1.2163-0.5392,3.3029-0.731,4.9387-0.0567
			c2.3446,0.9671,20.6935,8.351,29.0121,11.3532c4.5156,1.6295,9.9072,1.034,13.4447-1.358
			c1.3578-0.9184,26.3083-16.9578,42.7478-27.5148C125.1413,77.5226,117.8582,66.2169,110.3859,71.0164z"/>
	</g>
</g>
</svg>
