<?xml version="1.0" encoding="utf-8"?>
<!-- Generator: Adobe Illustrator 18.1.1, SVG Export Plug-In . SVG Version: 6.00 Build 0)  -->
<svg version="1.2" baseProfile="tiny" xmlns="http://www.w3.org/2000/svg" xmlns:xlink="http://www.w3.org/1999/xlink" x="0px"
	 y="0px" width="128px" height="128px" viewBox="0 0 128 128" xml:space="preserve">
<g id="box">
	<rect fill="none" width="128" height="128"/>
</g>
<g id="Production">
	<g>
		<path fill="#ffffff" d="M87.2278,44.6375c0.6323,0.6354,1.4663,0.9541,2.2996,0.9541c0.8344,0,1.6652-0.3187,2.3007-0.9541
			c1.2727-1.2729,1.2727-3.3327,0-4.6029c-10.0097-10.012-11.4773-11.4801-11.5996-11.6022
			c0.1179,0.1185,1.0523,1.0542-11.7612-11.7585c-1.2703-1.2733-3.3325-1.2733-4.6006,0c-1.2805,1.2701-1.2805,3.3298,0,4.603
			l0.0894,0.089L22.9932,62.3365c-3.1919,3.1865-4.8098,7.4028-4.8023,11.5876c-0.0163,9.0129,7.3184,16.3843,16.376,16.3843
			c4.1824,0,8.4014-1.6023,11.5928-4.7966v-0.0081L87.1231,44.533L87.2278,44.6375z M76.3223,46.1274H56.4717L32.4636,70.1341
			c-3.7671,3.7666-4.2219,8.4534-2.3296,12.5547c-0.9045-0.4575-1.7722-1.0225-2.5305-1.7803
			c-1.9443-1.9475-2.896-4.4487-2.896-6.9844c0-2.5434,0.9517-5.0449,2.8885-6.9765l40.9597-40.968L82.52,39.9324L76.3223,46.1274z"
			/>
		<path fill="#ffffff" d="M106.5132,81.4915l-0.0056-0.0078c-1.5969-2.7944-13.7779-23.8574-13.7779-23.8653
			c-1.2556-2.1567-4.3955-2.1741-5.654,0.0157c-0.0051,0.0233-12.0234,21.0003-13.7307,23.8184
			c-1.8633,3.0737-3.2542,6.8091-3.2542,10.9734c0,10.9624,8.8899,19.8552,19.8609,19.8552
			c10.9604,0,19.8469-8.8928,19.8574-19.8552C109.7986,88.1336,108.2073,84.4869,106.5132,81.4915z M89.9517,105.6053
			c-7.2986,0-13.2324-5.9336-13.2324-13.2422c0-2.6479,0.7973-5.1025,2.1337-7.1728c0.2456-0.3904,0.8809-0.1943,0.8433,0.2793
			c-0.0154,0.3007-0.0623,0.5493-0.0623,0.7661h0.0052c0.0078,7.2773,5.9023,13.1638,13.177,13.1794
			c3.4663,0,6.5945-1.3694,8.9475-3.5598c0.1489-0.144,0.3843-0.1597,0.5649-0.0474
			C103.3286,96.4528,99.1831,105.6053,89.9517,105.6053z"/>
	</g>
</g>
</svg>
