<?xml version="1.0" encoding="utf-8"?>

<svg version="1.2" baseProfile="tiny" xmlns="http://www.w3.org/2000/svg" xmlns:xlink="http://www.w3.org/1999/xlink" x="0px"
	 y="0px" width="64px" height="64px" viewBox="0 0 64 64" xml:space="preserve">

<g id="Production">
	<path fill="#ffffff" d="M23.5522,24c0,0-8.511,19.2222-10.0551,22.7397c-0.54,1.2305-1.6025,1.4543-2.338,1.1799
		C9.4601,47.285,9.9258,47,9.9258,15h11.6733l2.0001,5H51v-5H26.9839l-2.0001-5H5v34.548c0,4.6106,2.3145,8.4274,6.7169,8.447
		c0.2041,0,32.8808-0.004,32.8808-0.004c3.8156,0,5.358-2.3588,6.2839-4.4232C51.5506,47.0767,61.1812,24,61.1812,24H23.5522z
		 M47.0565,44.8739C45.5658,48.2943,45.4327,48,44.5791,48H18.4105c1.749-4,8.4016-19.01,8.4016-19.01h26.8602
		C53.6722,28.99,48.1843,42.2858,47.0565,44.8739z"/>
</g>
</svg>
