<?xml version="1.0" encoding="utf-8"?>
<!-- Generator: Adobe Illustrator 18.1.1, SVG Export Plug-In . SVG Version: 6.00 Build 0)  -->
<svg version="1.2" baseProfile="tiny" xmlns="http://www.w3.org/2000/svg" xmlns:xlink="http://www.w3.org/1999/xlink" x="0px"
	 y="0px" width="128px" height="128px" viewBox="0 0 128 128" xml:space="preserve">
<g id="_x31_28px_boxes">
	<rect fill="none" width="128" height="128"/>
</g>
<g id="Production">
	<g>
		<path fill="#ffffff" d="M37.8045,39.0629H20.357c-1.6567,0-3,1.3433-3,3v74.5h23.4475v-15.9458H24.857v-14h15.9475V70.0978H24.857
			v-14h15.9475V42.0629C40.8045,40.4062,39.4614,39.0629,37.8045,39.0629z"/>
		<path fill="#ffffff" d="M86.6768,82.0322h-6.3679V63.6476c0-7.4785-6.0625-13.541-13.541-13.541s-13.541,6.0625-13.541,13.541
			v52.9153h27.082V99.2822h6.459c1.4202-0.029,3.3573,0.4841,4.4473,1.5312c1.1132,1.0693,1.6777,3.0037,1.6777,5.7495v10h17.25v-10
			C110.1429,91.0126,99.3968,81.8198,86.6768,82.0322z M75.8089,112.0629h-4.875V61.5544c0-2.6553-1.0049-5.064-2.6279-6.8142
			c4.2546,0.7326,7.5029,4.4467,7.5029,8.9074V112.0629z"/>
		<path fill="#ffffff" d="M60.6505,30.2931c14.6849-1.25,9.7916-6.3747,30.2199-4.1211
			c10.4969,1.158,21.8333-4.2102,19.4524-10.2319c-2.3807-6.0217-14.6307-0.1885-24.5123-2.6216
			c-3.6122-0.9287-8.3087-1.9558-12.5133-1.8772c-8.0217-0.0068-14.0635,3.0127-14.0781,3.0074l-0.0269-0.0098
			c-10.5085-3.8984-26.9455-5.2405-33.7872,5.978c-2.4469,4.0125-3.154,9.062-3.3147,14.146h14.8364
			C38.9222,24.1803,50.1124,31.1904,60.6505,30.2931z"/>
	</g>
</g>
</svg>
