<?xml version="1.0" encoding="utf-8"?>
<!-- Generator: Adobe Illustrator 18.1.1, SVG Export Plug-In . SVG Version: 6.00 Build 0)  -->
<svg version="1.2" baseProfile="tiny" xmlns="http://www.w3.org/2000/svg" xmlns:xlink="http://www.w3.org/1999/xlink" x="0px"
	 y="0px" width="128px" height="128px" viewBox="0 0 128 128" xml:space="preserve">
<g id="_x31_28px_boxes">
	<rect fill="none" width="128" height="128"/>
</g>
<g id="Production">
	<g>
		<polygon fill="#ffffff" points="62.4822,51.426 62.482,51.426 62.4822,51.4263 		"/>
		<path fill="#ffffff" d="M120.5,45.0247c-12.8637-4.8086-29.1489-2.4533-38.6064,7.4994c-2.3452,2.4585-2.3308,3.3899-3.45,3.0675
			c-1.7595-0.5056,0.0674-5.7338,1.1546-7.6252c1.6889-2.942,4.5466-5.6469,7.9702-7.856
			c11.7366-7.0956,12.4468-18.9944,5.3269-29.0165c-1.7241-2.4274-5.8486-0.5755-4.4063,2.8363
			c4.0948,9.6809,1.2154,14.8696-5.5097,17.9466c-0.1446-5.9421-2.4846-11.3363-5.9795-14.8886
			c-2.1731-2.2117-5.698,0.651-3.9727,3.2334l0.043,0.0642c2.666,3.9911,3.4299,10.0074,0.7822,15.6814
			c-2.7661,5.9409-5.0141,4.6608-8.2575,15.375h-0.002c-0.0461,1.8856-2.6726,2.575-3.1477,0.0832l0.0369,0.0006
			c-0.3641-1.0402-1.0342-5.5296-5.4119-10.8797c-2.3159-2.8294-3.9624-6.075-4.4326-9.716
			c-0.2317-1.7845-0.1709-3.6336,0.209-5.4449c0.3813-1.8079,1.0691-3.5814,2.0832-5.0996l0.0437-0.0647
			c1.7241-2.5758-1.7956-5.4466-3.9736-3.2329c-3.4021,3.458-5.8316,8.8053-5.9795,14.8886
			c-3.3169-1.5176-5.9155-3.3686-6.9356-6.8919c-1.0571-3.7031,0.0608-7.8447,1.556-11.3607
			c1.2104-2.8579-2.7398-5.0584-4.5364-2.5303c-7.136,10.0448-6.3931,21.9314,5.3266,29.0166
			c10.4839,6.7651,10.6079,15.0519,9.1128,15.4811c-1.3442,0.3874-1.4416-1.4321-4.2749-3.8971
			c-2.1137-2.0395-4.5725-3.7879-7.3218-5.1851c-9.289-4.7211-20.8928-5.0561-30.447-1.4847
			c-1.4463,0.5409-2.3413,1.9941-2.1731,3.5291c1.1158,10.1387,9.4671,26.344,30.2864,27.8832
			c0.1399,22.0094,14.95,41.5783,28.387,41.5783c13.436,0,28.2466-19.568,28.3864-41.5782
			c10.2457-0.729,19.19-5.2123,24.9292-13.8894c4.5328-6.8532,5.3257-13.7063,5.3572-13.9945
			C122.8411,47.0184,121.9461,45.5654,120.5,45.0247z M93.7434,69.5189c-2.9834,0.4047-4.8564,0.3069-8.3991,0.2946
			c0.3906,7.3486,0.6848,13.7263-2.7581,22.5799c-4.375,11.2509-12.532,18.8719-18.5806,18.8719
			c-5.8649,0-13.4753-7.0178-17.9292-17.3061c-3.4401-7.947-4.0166-14.7472-3.3913-24.1375
			c-3.1394,0.0178-5.5183,0.1149-9.0618-0.3988C18.6599,67.1851,13.9597,55.7675,12.5742,50.481
			c11.587-3.112,22.9393,0.5768,28.9212,6.9156c2.0849,2.2094,2.5732,3.489,4.626,7.3762c2.7714-1.4289,8.4814-5.0176,18.3444-4.891
			c8.9229,0.1145,13.9534,3.1578,17.4129,4.9413c1.6194-3.0928,2.5151-5.1989,5.1269-7.851
			c6.9009-7.0072,18.479-9.1605,28.4197-6.4905C112.7432,60.7223,105.3565,67.9437,93.7434,69.5189z"/>
		<circle fill="#ffffff" cx="53.511" cy="78.8878" r="5.1249"/>
		<circle fill="#ffffff" cx="74.489" cy="78.8878" r="5.1247"/>
		<path fill="#ffffff" d="M55.991,97.3422c0,4.5,4.1894,8.0086,8.0078,8.0086c3.8189,0,8.01-3.5086,8.01-8.0086
			S55.991,92.8422,55.991,97.3422z"/>
	</g>
</g>
</svg>

