<?xml version="1.0" encoding="utf-8"?>
<!-- Generator: Adobe Illustrator 18.1.1, SVG Export Plug-In . SVG Version: 6.00 Build 0)  -->
<svg version="1.2" baseProfile="tiny" xmlns="http://www.w3.org/2000/svg" xmlns:xlink="http://www.w3.org/1999/xlink" x="0px"
	 y="0px" width="128px" height="128px" viewBox="0 0 128 128" xml:space="preserve">
<g id="box">
	<rect fill="none" width="128" height="128"/>
</g>
<g id="Production">
	<path fill="#ffffff" d="M108.7458,40.4337H63.7651c-2.3432-1.2-5.0959-2.5765-8.3571-4.1363
		c-10.545-5.0429-13.1905-4.353-19.6426,0.7163c-4.6753,3.6739-9.8189,8.4956-17.9717,8.4956c-1.6943,0-3.7007,0-5.5395,0v41.0191
		c0,0,11.395,0,15.2812,0c7.5566,0,10.1465,8.6264,19.4907,8.6264c5.5498,0,7.9268,0,14.8057,0
		c6.8784,0,11.2954-0.1606,13.2808-5.3217c1.104-2.8706,0.1669-3.2012,0.7363-5.8765c0.4785-2.251,3.6977-3.2017,4.9097-7.2295
		c1.0712-3.561-1.2452-5.4951-0.7261-8.6128c0.4512-2.7055,2.6387-2.6216,3.6909-6.6806c0.4707-1.8155-0.2647-4.4734-1.3101-7
		h26.3325c3.866,0,7-3.1341,7-7C115.7458,43.5677,112.6118,40.4337,108.7458,40.4337z"/>
</g>
</svg>
