<?xml version="1.0" encoding="utf-8"?>
<!-- Generator: Adobe Illustrator 18.1.1, SVG Export Plug-In . SVG Version: 6.00 Build 0)  -->
<svg version="1.2" baseProfile="tiny" xmlns="http://www.w3.org/2000/svg" xmlns:xlink="http://www.w3.org/1999/xlink" x="0px"
	 y="0px" width="128px" height="128px" viewBox="0 0 128 128" xml:space="preserve">
<g id="_x31_28px_boxes">
	<rect fill="none" width="128" height="128"/>
</g>
<g id="Production">
	<g>
		<path fill="#ffffff" d="M105.4329,57.1237c-7.283-6.348-16.1211-9.9886-24.2483-9.9886H61.6921c-0.58,0-1.1372,0.228-1.5507,0.635
			C59.804,48.1019,52.0178,55.8872,50.196,67.6H27.9265L17.8169,46.8055c-0.3084-0.6343-0.9519-1.037-1.6572-1.037h-7.897
			c-1.1604,0-2.0327,1.0619-1.8076,2.2004l2.5903,13.0873c-3.0735,2.155-5.0886,5.7215-5.0886,9.7519
			c0,4.0446,2.0293,7.6225,5.1213,9.775l-0.8896,4.1518c-0.2459,1.1476,0.6308,2.2288,1.8017,2.2288h6.4163
			c0.4285,0,0.8437-0.1495,1.1743-0.4227l7.9317-6.5601l29.7702,6.1699c7.2105,8.3707,16.5715,10.3964,34.9763,10.3196
			c15.7166-0.0657,26.3272-8.8707,26.3272-19.7322C116.5862,70.5433,112.4165,63.2108,105.4329,57.1237z M15.8618,77.0623
			c-3.4485,0-6.2541-2.8058-6.2541-6.2542c0-3.4488,2.8056-6.2543,6.2541-6.2543c3.4487,0,6.2547,2.8055,6.2547,6.2543
			C22.1165,74.2565,19.3105,77.0623,15.8618,77.0623z M85.2278,76.2781c-6.147-3.9803-8.8259-9.199-10.5891-14.7673
			c-1.5205-4.8009,0.2607-7.0051,6.5459-7.0051c6.2854,0,13.445,2.9795,19.4055,8.1743c2.8357,2.4717,5.1579,5.2914,6.6763,7.9796
			C111.592,78.829,98.1497,84.6456,85.2278,76.2781z"/>
		<path fill="#ffffff" d="M120.6616,31.5275H29.9041c-1.8731,0-3.3819,1.5173-3.3819,3.3815c0,1.8698,1.5088,3.3842,3.3819,3.3842
			h41.5615v5.0337c6.4104,0,6.4853-0.0122,7.6367,0.0405v-5.0742h41.5593c1.8645,0,3.3816-1.5144,3.3816-3.3842
			C124.0432,33.0448,122.5261,31.5275,120.6616,31.5275z"/>
	</g>
</g>
</svg>
