<?xml version="1.0" encoding="utf-8"?>
<!-- Generator: Adobe Illustrator 18.1.1, SVG Export Plug-In . SVG Version: 6.00 Build 0)  -->
<svg version="1.2" baseProfile="tiny" xmlns="http://www.w3.org/2000/svg" xmlns:xlink="http://www.w3.org/1999/xlink" x="0px"
	 y="0px" width="128px" height="128px" viewBox="0 0 128 128" xml:space="preserve">
<g id="box">
	<rect fill="none" width="128" height="128"/>
</g>
<g id="Production">
	<g>
		<path fill="#ffffff" d="M70.1808,49.4707c-0.0027-1.1594-0.3797-2.2274-0.9998-3.1059c-0.9797-1.3794-2.5818-2.2907-4.3992-2.2931
			c-1.8098,0.0024-3.3996,0.8985-4.3764,2.2552c-0.6455,0.8886-1.0354,1.9692-1.0379,3.1438
			c0.0079,2.9893,2.4224,5.4065,5.4143,5.4142C67.7609,54.8772,70.1732,52.46,70.1808,49.4707z"/>
		<path fill="#ffffff" d="M101.1215,115.8728c-0.2202-0.5845-4.1714-15.2019-4.1714-15.2019
			c1.5769-1.9387,2.0225-4.665,0.9036-7.0798l-4.3308-9.2818h4.1084c1.6753,0,3.0374-1.3564,3.0374-3.0371
			c0-1.6809-1.3621-3.0451-3.0374-3.0451h-6.9431L78.3463,51.7589c1.6882-2.5592,2.6904-5.6141,2.6904-8.897
			c0-7.1683-4.685-13.1696-11.1369-15.2933V13.2373c0-0.9228-0.7581-1.7212-1.7212-1.7212h-6.6113
			c-0.9447,0-1.7188,0.7765-1.7188,1.7212v14.3313c-6.3833,2.0984-11.0408,7.9857-11.1445,15.0476
			c-0.0076,0.0784-0.0076,0.1621-0.0076,0.2457c0,3.2171,0.9641,6.2189,2.5918,8.7424L38.8754,78.2271h-7.024
			c-1.6831,0-3.0449,1.3642-3.0449,3.0451c0,1.6807,1.3618,3.0371,3.0449,3.0371h4.1866l-4.3106,9.2466
			c-1.1011,2.3589-0.6909,5.0117,0.7998,6.948l-5.4216,11.6101c-0.7112,1.5391-0.0427,3.3665,1.4885,4.0801
			c1.6516,0.7485,3.4051-0.0257,4.0801-1.488l5.414-11.6053c2.4402-0.0988,4.7408-1.4934,5.8445-3.8498l6.9632-14.9417h10.4687
			v3.597c0,1.8957,1.5364,3.4397,3.44,3.4397c1.893,0,3.4345-1.544,3.4345-3.4397v-3.597H78.67l6.981,14.9695
			c1.1265,2.4148,3.4929,3.822,5.9939,3.8623c0,0,8.626,12.5293,8.9424,13.0481
			C100.9012,116.7083,101.3365,116.45,101.1215,115.8728z M68.2391,78.2271v-3.5943c0-1.896-1.5415-3.4348-3.4345-3.4348
			c-1.9036,0-3.44,1.5388-3.44,3.4348v3.5943h-7.6313l9.135-19.6014c-4.2449-0.8806-7.4417-4.6446-7.4417-9.155
			c0-1.2681,0.2581-2.4731,0.719-3.5742c-0.3418-0.9541-0.5722-1.9616-0.5722-3.0346c0.0102-5.1333,4.1638-9.2868,9.2995-9.2945
			c5.1333,0.0077,9.2791,4.1612,9.2866,9.2945c0,1.1845-0.2578,2.2957-0.6579,3.3334c0.3845,1.0227,0.6225,2.1184,0.625,3.2754
			c0,4.5079-3.1863,8.2716-7.4363,9.155l9.1423,19.6014H68.2391z"/>
	</g>
</g>
</svg>
