<?xml version="1.0" encoding="utf-8"?>
<!-- Generator: Adobe Illustrator 18.1.1, SVG Export Plug-In . SVG Version: 6.00 Build 0)  -->
<svg version="1.2" baseProfile="tiny" xmlns="http://www.w3.org/2000/svg" xmlns:xlink="http://www.w3.org/1999/xlink" x="0px"
	 y="0px" width="128px" height="128px" viewBox="0 0 128 128" xml:space="preserve">
<g id="_x31_28px_boxes">
	<rect fill="none" width="128" height="128"/>
</g>
<g id="Production">
	<g>
		<path fill="#ffffff" d="M107.885,23.1084H76.7805c-2.9926,0-5.4184,2.4262-5.4184,5.4177v7.1843H82.99
			c4.8523,0,8.8064,3.947,8.8064,8.8064v44.9644c0,4.8404-3.9355,8.8054-8.8064,8.8054h-7.6948
			c1.399,1.9271,2.125,4.2284,2.125,6.553c0,0.0114-0.0016,0.023-0.0017,0.0346h30.4665c2.9922,0,5.418-2.4253,5.418-5.4182V28.5261
			C113.303,25.5346,110.8772,23.1084,107.885,23.1084z"/>
		<path fill="#ffffff" d="M72.9202,104.8742c0-3.8066-3.0626-6.7009-6.666-6.7009h-6.0308v-4.3867H82.99
			c2.3957,0,4.3064-1.9523,4.3064-4.3054V44.5168c0-2.3722-1.9296-4.3064-4.3064-4.3064H19.0034
			c-2.3813,0-4.3064,1.9388-4.3064,4.3064v44.9644c0,2.3577,1.9148,4.3054,4.3064,4.3054h22.7664v4.3867h-6.0276
			c-3.6826,0-6.6665,3.0149-6.6665,6.7009C29.0757,104.8974,72.9202,104.8974,72.9202,104.8742z M23.3091,85.175V48.8225h55.3745
			V85.175H23.3091z"/>
		<path fill="#ffffff" d="M50.544,58.426l3.4531,13.7451c0.2557,1.021,1.6174,1.2335,2.1743,0.3428l1.602-2.565l3.8643,5.3423
			c0.3842,0.5311,1.1316,0.6562,1.6699,0.2681l1.4605-1.0564c0.5349-0.3861,0.6564-1.1333,0.268-1.6699l-3.8418-5.3123
			l2.9332-0.7568c1.0209-0.264,1.222-1.6261,0.3286-2.177c-2.9991-1.8479-9.1308-5.6259-12.1245-7.4705
			C51.4198,56.5545,50.2831,57.387,50.544,58.426z"/>
	</g>
</g>
</svg>
