<?xml version="1.0" encoding="utf-8"?>
<!-- Generator: Adobe Illustrator 18.1.1, SVG Export Plug-In . SVG Version: 6.00 Build 0)  -->
<svg version="1.2" baseProfile="tiny" xmlns="http://www.w3.org/2000/svg" xmlns:xlink="http://www.w3.org/1999/xlink" x="0px"
	 y="0px" width="64px" height="64px" viewBox="0 0 64 64" xml:space="preserve">

<g id="Production">
	<g>
		<g>
			<path fill="#ffffff" d="M38,7c-6.6167,0-12,5.3833-12,12c0,7.7606,5.0221,11.5759,11.1348,22.1304L38,42.624l0.8652-1.4937
				C44.9775,30.5765,49.98,26.7605,49.98,19C49.98,12.3833,44.6167,7,38,7z M38,38.6636C32.3014,29.2089,28,25.6752,28,19
				c0-5.5142,4.4858-10,10-10s9.98,4.4858,9.98,10C47.98,25.6752,43.6986,29.2089,38,38.6636z"/>
			<path fill="#ffffff" d="M51.1935,34H45.816c-0.0009,0.0013-0.0018,0.0026-0.0027,0.0039
				c-0.4362,0.6382-0.8898,1.3033-1.3558,1.9961h8.2198L51.1935,34z"/>
		</g>
		<path fill="#ffffff" d="M38,24c2.7568,0,5-2.2432,5-5s-2.2432-5-5-5s-4.99,2.2432-4.99,5S35.2432,24,38,24z M38,16
			c1.6543,0,3,1.3457,3,3s-1.3457,3-3,3s-2.99-1.3457-2.99-3S36.3457,16,38,16z"/>
		<path fill="#ffffff" d="M61.5806,48l-1.4839-2H45.4573l-3.26-6.5263c-0.4014,0.6432-0.8103,1.3173-1.2256,2.0213L43.2219,46H22V36
			h9.5449c-0.468-0.6952-0.9225-1.361-1.36-2H22v-8h-2v8H7v2h13v10H7v2h13v9h2v-9h22.2208l4.5248,9h2.2355l-4.5248-9H61.5806z"/>
	</g>
</g>
</svg>
