<?xml version="1.0" encoding="utf-8"?>
<!-- Generator: Adobe Illustrator 18.1.1, SVG Export Plug-In . SVG Version: 6.00 Build 0)  -->
<svg version="1.2" baseProfile="tiny" xmlns="http://www.w3.org/2000/svg" xmlns:xlink="http://www.w3.org/1999/xlink" x="0px"
	 y="0px" width="128px" height="128px" viewBox="0 0 128 128" xml:space="preserve">
<g id="_x31_28px_boxes">
	<rect fill="none" width="128" height="128"/>
</g>
<g id="Production">
	<g>
		<path fill="#ffffff" d="M26.1674,23.3666c-4.3234,1.2067-5.9263,2.9018-3.0478,6.4675c0.6958,0.8618,1.6706,1.9585,2.9045,3.3465
			c7.5225,8.4621,23.1751,26.0705,22.3824,43.3784c-0.6363,13.8545-3.1182,31.2287,5.385,37.5622
			c-1.0838,0.9585-5.326,4.8904-4.3235,6.8755c1.1189,2.2146,7.4018-3.2439,9.937-1.9451c2.5088,1.2847,2.2461,5.0416,4.6111,5.0416
			c2.3647,0,2.1604-3.5828,4.6694-4.868c2.5349-1.2981,8.7595,3.9861,9.8782,1.7715c0.9563-1.8938-2.8587-5.5576-4.1529-6.7229
			c9.0978-6.3509,3.696-18.0481,5.2686-38.1423c1.3533-17.2935,9.9814-35.739,25.647-54.8274
			c1.6455-1.8715,2.0073-5.8427-4.7654-7.3865c-5.6736-1.2927-16.7406-1.3107-22.429,3.2598
			c-6.6174,5.3139-17.1413,22.5974-22.8076,36.0278c-2.1022-0.0532-3.4815-2.1838-2.7097-4.112
			c0.1882-0.4702,2.6926-6.668,7.0261-14.7339c-4.1963-6.6165-9.2204-12.6143-11.3081-13.4729
			C45.2323,19.6112,31.4627,21.89,26.1674,23.3666z M62.1162,29.9139c2.9358-5.0876,6.4807-10.5881,10.5351-15.7075
			c-0.103-6.9465-0.5972-7.5029-1.145-8.1194C69.22,3.5149,42.5357,2.6116,40.968,6.7919
			c-0.4471,1.1916-0.1861,2.4404,2.6645,9.3139C48.72,15.815,51.945,14.7235,62.1162,29.9139z M57.8506,63.4357
			c0.489-0.2664,0.9958-0.4006,1.56-0.3494c5.4102,0.4922,1.4937,10.1143,6.8372,10.1643c4.3022,0.0403,5.9931-5.5723,9.2661-8.9485
			c-4.1726,17.4608-0.7334,33.2902-1.9168,40.626c-1.2995,8.0548-17.8415,9.3399-19.2317-1.3069
			C52.8935,92.3503,53.3232,77.0143,57.8506,63.4357z"/>
	</g>
</g>
</svg>

