<?xml version="1.0" encoding="utf-8"?>
<!-- Generator: Adobe Illustrator 19.1.0, SVG Export Plug-In . SVG Version: 6.00 Build 0)  -->
<svg version="1.2" baseProfile="tiny" xmlns="http://www.w3.org/2000/svg" xmlns:xlink="http://www.w3.org/1999/xlink" x="0px"
	 y="0px" width="64px" height="64px" viewBox="0 0 64 64" xml:space="preserve">
<g id="box">
	<rect fill="none" width="64" height="64"/>
</g>
<g id="Production">
	<g>
		<polygon fill="#ffffff" points="46,27 46,20.56 46.6797,21.1733 48.0195,19.689 40,12.4512 31.9805,19.689 33.3203,21.1733 
			34,20.56 34,27 		"/>
		<path fill="#ffffff" d="M40,3c-8.6847,0-16.1548,4.416-19.3471,10.6948c-1.2115,2.3829-1.7989,4.9734-1.6057,7.8213
			c0.4227-0.0469,0.8344-0.076,1.2205-0.076c0.2629,0,0.5227,0.0115,0.7799,0.0307c-0.1616-2.1477,0.1816-4.1505,1.02-6.0967
			C24.6675,9.3385,31.7244,5,40,5c10.4766,0,19,6.9531,19,15.5c0,6.6223-5.1667,12.3166-12.3856,14.5197
			c-2.5408,0.7754-4.6613,0.9593-6.9533,0.9769c-1.468,2.0474-3.2424,3.6353-5.812,4.522c1.1472-2.1943,1.2567-3.8209,1.3877-4.9966
			c-1.2423-0.3135-3.1323-0.7417-5.5442-2.005c0.1512,0.4379,0.2677,0.9067,0.3089,1.4316c0.025,0.3177,0.0279,0.6392,0.0198,0.9614
			c0.9517,0.4243,1.9515,0.7925,2.9953,1.0974c-0.205,0.9667-0.5544,1.8289-0.9223,2.5413c-0.6387,1.237-1.143,1.7866-2.6236,3.6458
			c2.4073-0.2057,3.3822-0.2117,5.0526-0.7868c2.3657-0.8146,4.5717-2.3787,6.1623-4.4236C51.9326,37.6802,61,29.9229,61,20.5
			C61,10.8506,51.5796,3,40,3z"/>
		<path fill="#ffffff" d="M27.9849,47.0397c-2.5636-0.778-2.9963-1.0625-3.0861-2.0308c-0.0316-0.3403,0.0205-0.8328,0.0839-1.2225
			c0.9854-1.3672,1.1992-2.6168,1.3901-3.7318c0.0055-0.032,0.011-0.0643,0.0165-0.0966c1.353-1.1367,1.7373-3.3382,1.6184-4.8528
			c-0.051-0.6483-0.2361-1.1774-0.5042-1.5939c0.1861-1.2349,0.363-3.133,0.0085-4.5852c-0.801-3.2814-3.7123-5.486-7.2443-5.486
			c-2.9969,0-7.8569,1.7436-8.7704,5.4861c-0.3545,1.452-0.1776,3.3502,0.0084,4.5851c-0.268,0.4165-0.4532,0.9457-0.5041,1.5939
			c-0.1196,1.5222,0.2691,3.7382,1.6387,4.8698c0.2745,1.3362,0.5753,2.7007,1.3898,3.8325
			c0.0616,0.3851,0.1115,0.8669,0.0804,1.2015c-0.0907,0.9772-0.4868,1.2388-3.0274,1.9988
			c-2.0803,0.6224-4.6694,1.397-6.9268,3.6785C1.0352,53.8406,1.2039,55.8674,1.0047,58h36.9907
			c-0.1829-1.9595,0.0417-4.0869-3.1516-7.3143C32.6308,48.4492,30.0547,47.6678,27.9849,47.0397z M21.3857,56l-0.8486-4.6202
			l1.2159-1.3213l-2.351-2.8917l-2.351,2.8917l1.3481,1.465L17.4674,56H3.2c0,0,0.1552-1.6618,2.378-3.9082
			c4.1975-4.2423,10.1057-2.3919,10.524-6.8986c0.0915-0.986-0.2021-2.2529-0.2021-2.2529
			c-0.9241-0.9957-1.1254-2.6095-1.4893-4.2728c-1.1724-0.2377-1.4962-2.3724-1.415-3.4059
			c0.0701-0.8924,0.535-0.9518,0.6577-0.9518c0.0189,0,0.0297,0.0015,0.0297,0.0015s-0.6873-3.0891-0.2426-4.9109
			c0.6203-2.541,4.3613-3.9603,6.8275-3.9603c2.4662,0,4.681,1.4194,5.3013,3.9604c0.4447,1.8217-0.2426,4.9108-0.2426,4.9108
			s0.0108-0.0014,0.0297-0.0014c0.1227,0,0.5876,0.0595,0.6577,0.9519c0.0812,1.0334-0.2426,3.1683-1.415,3.4059
			c-0.3638,1.6634-0.288,2.8246-1.4893,4.273c0,0-0.2936,1.2672-0.2021,2.2532c0.416,4.4821,6.3894,2.7287,10.5148,6.898
			C35.6448,54.3382,35.8,56,35.8,56H21.3857z"/>
	</g>
</g>
</svg>

