<?xml version="1.0" encoding="utf-8"?>
<!-- Generator: Adobe Illustrator 19.1.0, SVG Export Plug-In . SVG Version: 6.00 Build 0)  -->
<svg version="1.2" baseProfile="tiny" xmlns="http://www.w3.org/2000/svg" xmlns:xlink="http://www.w3.org/1999/xlink" x="0px"
	 y="0px" width="64px" height="64px" viewBox="0 0 64 64" xml:space="preserve">
<g id="box">
	<rect fill="none" width="64" height="64"/>
</g>
<g id="Production">
	<path fill="#ffffff" d="M54.7375,9.677c-2.2554-2.3398-5.2852-3.645-8.5317-3.6748c-3.2314-0.062-6.2998,1.2183-8.5957,3.5142
		l-4.9023,4.9023c-0.5869,0.5869-0.9077,1.3999-0.8804,2.2314c0.0269,0.8198,0.394,1.5977,1.0063,2.1338
		c2.9434,2.5752,5.7749,4.0142,8.48,4.3164c0.3942,3.3681,2.6337,6.7896,4.1401,8.2711l-5.9794,5.9794
		C32.1475,44.6776,26.3507,48.99,22.5978,51.4964c0.919-2.8072,0.2571-5.9557-1.941-8.1531
		c-2.5371-2.5379-6.3313-3.0067-9.3347-1.4474L25.4727,4.9199l-1.8682-0.7148L7.8433,45.3896l0.0174,0.0067
		c-1.5189,3.0016-1.0317,6.7469,1.4826,9.2604c2.5508,2.5517,6.3333,2.9895,9.3065,1.4608l0.0085,0.0192
		c0.3491-0.1548,8.6906-3.8323,22.2302-17.3719l6.5166-6.5166c0.0159,0.0009,0.0309,0.0062,0.0469,0.0068
		c0.0391,0.0015,0.0786,0.002,0.1177,0.002c0.7905,0,1.5562-0.3149,2.1162-0.875l4.6367-4.6372
		C59.0588,22.009,59.2448,14.3523,54.7375,9.677z M10.7573,53.2427c-2.3447-2.3447-2.3452-6.1401,0-8.4854
		c2.3447-2.3447,6.1401-2.3452,8.4854,0c2.3447,2.3447,2.3452,6.1401,0,8.4854C16.898,55.5873,13.1025,55.5879,10.7573,53.2427z
		 M52.9084,25.3308l-4.6367,4.6367c-0.4148,0.4169-1.0988,0.3794-1.4873-0.0757c-1.9761-2.3174-3.1333-4.5918-3.4517-6.7793
		c2.4526-0.251,4.7914-1.4828,7.0052-3.6966l0.0001,0.0001c1.5621-1.5621,1.5621-4.0947,0-5.6569
		c-1.5621-1.5621-4.0948-1.5621-5.6569,0l4.2427,4.2427c-2.794,2.7934-7.3638,5.758-14.7728-0.7228
		c-0.4149-0.3624-0.4425-1.0326-0.0293-1.4458l4.9023-4.9028c1.8911-1.8906,4.3979-2.9287,7.0688-2.9287
		c0.0312,0,0.063,0,0.0947,0.0005c2.7051,0.0249,5.2305,1.1123,7.1104,3.0625C57.0534,14.9606,56.8786,21.3601,52.9084,25.3308z"/>
</g>
</svg>

