<?xml version="1.0" encoding="utf-8"?>

<svg version="1.2" baseProfile="tiny" xmlns="http://www.w3.org/2000/svg" xmlns:xlink="http://www.w3.org/1999/xlink" x="0px"
	 y="0px" width="64px" height="64px" viewBox="0 0 64 64" xml:space="preserve">

<g id="Production">
	<g>
		<path fill="#ffffff" d="M55.5356,47.001L37.7354,29.2002c2.5078-5.9619,1.1743-12.9175-3.4219-17.5137
			C31.2915,8.6646,27.2734,7,23,7s-8.2915,1.6646-11.3135,4.6865c-6.2383,6.2383-6.2383,16.3887,0,22.627
			c3.0142,3.0146,7.0239,4.6753,11.2905,4.6753c2.144,0,4.2959-0.4465,6.2666-1.28L34.6055,43H39v5h6v5.5513l1.9934,1.9854
			C47.9377,56.48,49.1971,57,50.5326,57s2.5928-0.52,3.5372-1.4644l1.4649-1.4639C57.4843,52.1226,57.4854,48.9502,55.5356,47.001z
			 M48.4075,54.1221L47,52.7231V46h-6v-5h-5.5732l-5.7646-5.6897c-1.9876,0.962-3.9452,1.6765-6.6851,1.6765
			c-3.7324,0-7.2397-1.4511-9.8765-4.0883c-5.4585-5.4585-5.4585-14.3398,0-19.7983C15.7451,10.456,19.2607,8.9997,23,8.9997
			s7.2549,1.4567,9.8994,4.1007c3.9809,3.9809,5.4836,10.0991,2.4365,16.5289L54.1216,48.415c1.1694,1.1699,1.1694,3.0728,0,4.2427
			l-1.4639,1.4639C52.0913,54.688,51.3339,55,50.5326,55S48.9739,54.688,48.4075,54.1221z"/>
		<path fill="#ffffff" d="M19.0161,14.0161c-2.7568,0-5,2.2432-5,5s2.2432,5,5,5s5-2.2432,5-5S21.7729,14.0161,19.0161,14.0161z
			 M19.0161,22.0161c-1.6543,0-3-1.3457-3-3s1.3457-3,3-3s3,1.3457,3,3S20.6704,22.0161,19.0161,22.0161z"/>
	</g>
</g>
</svg>
