<?xml version="1.0" encoding="utf-8"?>
<!-- Generator: Adobe Illustrator 19.1.0, SVG Export Plug-In . SVG Version: 6.00 Build 0)  -->
<svg version="1.2" baseProfile="tiny" xmlns="http://www.w3.org/2000/svg" xmlns:xlink="http://www.w3.org/1999/xlink" x="0px"
	 y="0px" width="64px" height="64px" viewBox="0 0 64 64" xml:space="preserve">
<g id="box">
	<rect fill="none" width="64" height="64"/>
</g>
<g id="Production">
	<g>
		<polygon fill="#ffffff" points="11.4686,32 10.3257,28 21.8699,28 22.3096,32 24.322,32 23.8822,28 40.1178,28 39.678,32 
			41.6904,32 42.1301,28 53.6743,28 52.5314,32 54.6115,32 56.3257,26 7.6743,26 9.3885,32 		"/>
		<path fill="#ffffff" d="M16.6598,24h2.0758l-2.6985-9.7324c-0.1457-0.5258,0.157-1.0811,0.6963-1.2305
			C16.8223,13.0122,16.9121,13,17.002,13c0.4278,0,0.8366,0.2811,0.9619,0.7334L20.8107,24h2.0756l-2.9948-10.8008
			c-0.4419-1.5942-2.0952-2.5298-3.6924-2.0898c-0.772,0.2144-1.415,0.7163-1.8096,1.4136
			c-0.3945,0.6978-0.4941,1.5068-0.2803,2.2788L16.6598,24z"/>
		<path fill="#ffffff" d="M39.001,21.625c-0.0011,0.0226-0.0845,1.2709-0.4557,2.375h2.0937
			c0.2208-0.8179,0.3337-1.6447,0.3611-2.3335c0-1.6025-0.5117-3.1138-1.0068-4.5752C39.5049,15.6504,39,14.1602,39,12.5977
			C39,10.2104,40.3345,9,42.9658,9s3.9658,1.2104,3.9658,3.5977c0,1.5625-0.5049,3.0527-0.9932,4.4937
			c-0.4951,1.4614-1.0068,2.9727-1.0059,4.6152c0.0269,0.6728,0.1354,1.4861,0.3539,2.2935h2.1007
			c-0.3718-1.0981-0.4551-2.3335-0.4556-2.3335c0-1.2729,0.438-2.5654,0.9014-3.9336c0.54-1.5947,1.0986-3.2432,1.0986-5.1353
			c0-3.5049-2.23-5.5977-5.9658-5.5977S37,9.0928,37,12.5977c0,1.8921,0.5586,3.5405,1.0986,5.1353
			C38.562,19.1011,39,20.3936,39.001,21.625z"/>
		<path fill="#ffffff" d="M13,48v2h1.5313l1.7143,6h31.5088l1.7143-6H51v-2H13z M17.7544,54l-1.1429-4h7.6769l0.4398,4H17.7544z
			 M26.7405,54l-0.4398-4h11.3986l-0.4398,4H26.7405z M46.2456,54h-6.9738l0.4398-4h7.6769L46.2456,54z"/>
		<polygon fill="#ffffff" points="9,34 9,36 10.5314,36 13.3885,46 15.4686,46 12.6115,36 22.7493,36 23.8487,46 25.861,46 
			24.7617,36 39.2383,36 38.139,46 40.1513,46 41.2507,36 51.3886,36 48.5314,46 50.6115,46 53.4686,36 55,36 55,34 		"/>
	</g>
</g>
</svg>

