<?xml version="1.0" encoding="utf-8"?>
<!-- Generator: Adobe Illustrator 17.1.0, SVG Export Plug-In . SVG Version: 6.00 Build 0)  -->
<!DOCTYPE svg [
	<!ENTITY ns_flows "http://ns.adobe.com/Flows/1.0/">
	<!ENTITY ns_extend "http://ns.adobe.com/Extensibility/1.0/">
	<!ENTITY ns_ai "http://ns.adobe.com/AdobeIllustrator/10.0/">
	<!ENTITY ns_graphs "http://ns.adobe.com/Graphs/1.0/">
]>
<svg version="1.2" baseProfile="tiny" xmlns:x="&ns_extend;" xmlns:i="&ns_ai;" xmlns:graph="&ns_graphs;"
	 xmlns="http://www.w3.org/2000/svg" xmlns:xlink="http://www.w3.org/1999/xlink" xmlns:a="http://ns.adobe.com/AdobeSVGViewerExtensions/3.0/"
	 x="0px" y="0px" width="128px" height="128px" viewBox="0 0 128 128" xml:space="preserve">
<g id="_x31_28px_boxes">
	<rect fill="none" width="128" height="128"/>
</g>
<g id="Production">
	<g>
		<path fill="#ffffff" d="M39.7155,64.1556c-0.0244,0.3262,0.1033,0.576,0.221,0.8868l1.299,2.0937
			c1.2014,0.4964,2.4104,1.0502,3.636,1.4544c0.0759-1.2767-0.5322-2.0384-1.6653-2.7527
			C42.9064,65.6483,39.7057,64.2921,39.7155,64.1556z"/>
		<polygon fill="#ffffff" points="45.3486,69.9916 47.2968,70.754 50.1118,70.754 50.3276,69.9916 46.2145,68.6592 		"/>
		<path fill="#ffffff" d="M114.9098,51.8798c-2.7359-15.5125-16.5245-12.1805-23.2065-25.488
			c-4.3769-8.711-2.0542-17.453-2.0305-17.539c0.2366-0.8542-0.6333-1.5974-1.4385-1.2352
			c-0.5381,0.2417-13.2351,6.1538-18.5276,26.5422c-5.1135,19.6927,4.8899,42.9896,22.5657,42.7461
			c1.4431-12.2559-8.0669-34.564-8.1689-34.8013c-0.1221-0.2838,0.2426-0.5267,0.4575-0.3049
			c3.8672,4.0009,16.3034,21.5818,12.8127,39.564c-0.0024,0.0005-0.0046,0.0009-0.0071,0.0014
			c-3.4782,17.8211-19.2077,31.314-38.0317,31.314c-21.3672,0-38.751-17.3835-38.751-38.7505c0-3.3709,0.4336-6.6423,1.2464-9.7622
			c1.1994,1.3857,2.0212,2.9099,2.7268,3.5127c1.781,1.5216,3.6926,2.7073,4.1377,2.3157c0.3232-0.2842-1.1287-1.218-1.7554-2.0953
			c-1.5637-2.1877-2.5718-2.687-0.7817-3.7888c1.8056,3.1757,2.217,3.4755,3.9382,5.2067c0.7124,0.7168,0.6037,2.0453,1.3308,2.4618
			c2.6602,1.5237,5.0461,2.02,5.0461,2.02s1.2994,1.9041,1.948,2.4753c0.6497,0.5711,1.5157,0.7615,1.5157,0.7615l1.299-0.1904
			c0,0,0.4275,2.2774,0.4324,2.3037c-0.0293-0.1594-2.9185,1.1428-3.0942,1.75c-0.4431,1.5247,2.5515,5.5767,3.5559,6.6941
			c1.5271,1.6969,4.8152,1.5933,6.5019,3.1316c2.0564,1.8733,2.3499,12.4609,3.6365,14.7756
			c1.9492,3.5095,1.9268,5.3876,6.3948,3.3079c2.1726-1.0113,4.1518-9.9292,6.0715-11.1978
			c1.7761-1.1744,1.3443-2.6462,3.4265-2.9822c5.7625-0.9306,4.9485-7.1735,4.9485-10.6491
			c-4.5303-1.6072-4.2939-2.5127-9.1267-3.2185c-0.9314-0.6216-1.8464-2.256-1.5583-2.8269
			c-3.2217-1.2549-3.9795-0.6651-7.2725-1.7643c-2.49-0.8335-6.0278-0.9955-8.6665-1.0289
			c-3.0706-0.038-4.0689,0.9973-6.9817-0.5789c0,0-1.4355,0.1792-1.512,0.1894c0.0389-0.0051-0.2758-3.1887-0.3007-3.436
			c-0.2134-2.0634-0.5757-1.9625-2.7337-3.2275c0.5774-1.2674,1.155-2.5392,1.7317-3.8072
			c-1.9714-0.8791-2.8992-0.0493-4.7632,0.7605c-0.311-2.7403-1.979-8.581,3.8001-8.291c1.6274,0.0813,3.8025,1.5662,5.2937,2.1992
			c-0.0728,1.3327-0.1446,2.6662-0.2176,3.9981c0.794,0.1904,1.5882,0.3811,2.3824,0.5715
			c0.1157-1.3506-0.3372-4.1157,0.3884-5.2526c0.6418-1.0027,3.1064-1.6392,4.3747-2.1719
			c0.0257-1.2002-0.2358-1.8933,0.6758-2.7456c0.8526-0.7962,10.909-4.2512,11.6643-3.5262
			c-1.0656-1.0236-2.5107-1.9878-2.9362-3.3874c1.4397-0.1148,4.361-0.741,5.9768-0.6924
			c-0.0393-2.7705,0.1667-5.5681,0.6201-8.3585c-2.0742,0.8407-5.261,2.2018-5.8257,2.337
			c0.1226-0.5621,0.0898-1.1517,0.2156-1.7136c-0.721-0.3801-1.4434-0.7612-2.1651-1.1422
			c-1.5446,2.4747-4.278,4.6105-4.5473,7.2347c-0.2954,0.0341-1.0279-0.0773-1.2962-0.1901
			c0.1319-0.8789,0.6324-2.1964,0.4329-3.0464c-0.2175-0.927-1.7051-1.7739-1.8862-2.663
			c-0.1114-0.5463-0.0113-1.1051,0.2265-1.6493c5.0415-1.3819,10.22-1.6959,15.1907-1.0576
			c0.511-2.5188,1.2676-5.1699,2.1138-7.5771C38.1105,23.585,12.7866,45.5784,12.7866,73.9286
			c0,25.6665,20.8815,46.5478,46.5483,46.5478c19.2446,0,35.7969-11.7399,42.8757-28.4335l0.0125,0.0053
			c2.623-6.1994,3.853-12.8339,3.6347-19.6252C112.4863,67.7164,116.3616,60.0962,114.9098,51.8798z"/>
	</g>
</g>
</svg>
