<?xml version="1.0" encoding="utf-8"?>
<!-- Generator: Adobe Illustrator 18.1.1, SVG Export Plug-In . SVG Version: 6.00 Build 0)  -->
<svg version="1.2" baseProfile="tiny" xmlns="http://www.w3.org/2000/svg" xmlns:xlink="http://www.w3.org/1999/xlink" x="0px"
	 y="0px" width="128px" height="128px" viewBox="0 0 128 128" xml:space="preserve">
<g id="_x31_28px_boxes">
	<rect fill="none" width="128" height="128"/>
</g>
<g id="Production">
	<g>
		<path fill="#ffffff" d="M71.7236,54.646c-2.2251,0-3.7623,2.9708-3.7623,9.4219c0,6.3241,1.4561,9.3375,3.8023,9.3375
			c2.3867,0,3.6809-3.1409,3.6809-9.4225C75.4445,57.8711,74.1908,54.646,71.7236,54.646z"/>
		<path fill="#ffffff" d="M63.9999,38.231c-14.2651,0-25.8708,11.6057-25.8708,25.8714c0,14.2653,11.6057,25.871,25.8708,25.871
			c14.2656,0,25.8714-11.6057,25.8714-25.871C89.8713,49.8367,78.2655,38.231,63.9999,38.231z M57.4672,77.8192h-5.9463V55.9617
			h-0.0805l-5.0157,2.504l-1.0114-4.8385l6.9978-3.3955h5.0561V77.8192z M71.6425,78.2863c-6.7954,0-9.7888-6.4091-9.8291-14.2184
			c0-8.0217,3.1953-14.3029,9.9912-14.3029c6.9971,0,9.7883,6.5785,9.7883,14.1333C81.5929,72.3866,78.3163,78.2863,71.6425,78.2863
			z"/>
		<path fill="#ffffff" d="M63.9999,17.1843c-25.8142,0-46.8157,21.0014-46.8157,46.8156c0,25.8143,21.0015,46.8158,46.8157,46.8158
			c25.8145,0,46.8159-21.0015,46.8159-46.8158C110.8158,38.1857,89.8144,17.1843,63.9999,17.1843z M94.224,67.0907
			c-0.9023,9.1969-5.9235,17.2029-13.1901,22.1437v12.4584c-10.7946,4.8975-23.2687,4.8996-34.0679-0.0002V89.2342
			c-7.2664-4.9407-12.2874-12.9466-13.1897-22.1435l-11.0125-6.3584c0.9566-12.1819,7.2129-22.8972,16.459-29.8353l10.8106,6.2418
			c4.1838-2.176,8.9338-3.4078,13.9665-3.4078c5.033,0,9.783,1.2318,13.9668,3.4078l10.8106-6.2418
			c9.2461,6.9381,15.5024,17.6537,16.459,29.8354L94.224,67.0907z"/>
	</g>
</g>
</svg>
