<?xml version="1.0" encoding="utf-8"?>
<!-- Generator: Adobe Illustrator 18.1.1, SVG Export Plug-In . SVG Version: 6.00 Build 0)  -->
<svg version="1.2" baseProfile="tiny" xmlns="http://www.w3.org/2000/svg" xmlns:xlink="http://www.w3.org/1999/xlink" x="0px"
	 y="0px" width="128px" height="128px" viewBox="0 0 128 128" xml:space="preserve">
<g id="_x31_28px_boxes">
	<rect fill="none" width="128" height="128"/>
</g>
<g id="Production">
	<g>
		<path fill="#ffffff" d="M68.8358,79.262L33.291,17.0074c-1.1481-2.0106-3.7089-2.7101-5.7192-1.562
			c-2.0108,1.1479-2.7101,3.7086-1.562,5.7192l8.9747,15.7186H14.3826c-2.3154,0-4.1923,1.877-4.1923,4.1923
			s1.8769,4.1923,4.1923,4.1923h25.3891l18.16,31.8062C61.7809,76.7595,65.531,77.558,68.8358,79.262z"/>
		<path fill="#ffffff" d="M104.6953,74.5816L78.3826,89.7737c1.1303,2.8323,1.596,5.8582,1.3753,8.8877l29.1298-16.8186
			c2.0051-1.1577,2.6921-3.7217,1.5344-5.7268C109.2644,74.1111,106.7007,73.4241,104.6953,74.5816z"/>
		<path fill="#ffffff" d="M51.6427,83.4871c-3.6718,2.1199-6.2982,5.5425-7.3956,9.6377
			c-2.7178,10.1418,4.9814,19.9822,15.3414,19.9822c6.8933,0,13.3894-4.5526,15.3219-11.7664
			c0.0154-0.0573,0.027-0.115,0.0417-0.1723v-0.0003c1.0545-4.1147,0.4181-8.3283-1.6279-11.872
			C68.9504,81.7213,59.2295,79.1064,51.6427,83.4871z M59.5885,103.0071c-2.0612,0-3.9805-1.1067-5.009-2.8884
			c-1.5951-2.7622-0.6504-6.289,2.1134-7.885c2.7974-1.6145,6.315-0.6057,7.8845,2.1125
			C66.7939,98.1856,64.0198,103.0071,59.5885,103.0071z"/>
		<path fill="#ffffff" d="M117.3555,58.4155L96.8098,22.829c-0.9349-1.6196-3.0059-2.1744-4.6254-1.2395L56.5968,42.1356
			c-1.6183,0.9342-2.1744,3.006-1.2394,4.6253l20.5464,35.5873c0.9384,1.6252,3.0131,2.1702,4.6255,1.2393l35.5869-20.5467
			C117.7357,62.1058,118.2905,60.035,117.3555,58.4155z M80.0755,76.0296L62.9153,46.3073l9.9737-5.7582l4.8405,8.2327
			l9.3559-5.5003l-4.7967-8.1591l10.3493-5.975l17.1597,29.7217L80.0755,76.0296z"/>
	</g>
</g>
</svg>
