<?xml version="1.0" encoding="utf-8"?>
<!-- Generator: Adobe Illustrator 19.1.0, SVG Export Plug-In . SVG Version: 6.00 Build 0)  -->
<svg version="1.2" baseProfile="tiny" xmlns="http://www.w3.org/2000/svg" xmlns:xlink="http://www.w3.org/1999/xlink" x="0px"
	 y="0px" width="64px" height="64px" viewBox="0 0 64 64" xml:space="preserve">
<g id="box">
	<rect fill="none" width="64" height="64"/>
</g>
<g id="Production">
	<g>
		<path fill="#ffffff" d="M44,31.1555v-6c-1.8945,0.288-3.9359,0.3502-6,0.151v6C40.0641,31.5057,42.1055,31.4435,44,31.1555z"/>
		<path fill="#ffffff" d="M26,22.4269v-6c-1.8909-0.343-3.8551-0.5059-6-0.3672v6C22.1449,21.921,24.1091,22.0838,26,22.4269z"/>
		<path fill="#ffffff" d="M38,25.3065v-6c-2.8227-0.2726-4.5569-0.877-6-1.3215v6C33.4129,24.4202,35.1616,25.0324,38,25.3065z"/>
		<path fill="#ffffff" d="M26,22.4269v6c2.0342,0.369,3.9889,0.9381,6,1.5581v-6C29.9889,23.365,28.0342,22.7959,26,22.4269z"/>
		<path fill="#ffffff" d="M47.9912,11.0591c-4.2181,1.7916-9.9835,1.7406-14.8609,0.2291C25.468,8.9108,21.0903,8.0137,13,10.4176
			V55h2V36.4812c7.3211-1.9873,12.2068-0.3772,17.8931,1.3802C38.4943,39.5973,45.5395,39.532,51,36.2863V9.4059
			C49.4649,10.3185,48.9914,10.6343,47.9912,11.0591z M38,36.8388v-5.5323c-2.8227-0.2726-4.5569-0.877-6-1.3215v5.5079
			c-1.975-0.6055-3.9362-1.1678-6-1.5278v-5.5382c-1.8909-0.343-3.8551-0.5059-6-0.3672v5.5486
			c-1.5616,0.096-3.2167,0.3455-5,0.7967v-5.5096c1.7892-0.4672,3.4454-0.7352,5-0.8357v-6c-1.5546,0.1005-3.2108,0.3685-5,0.8357
			v-6c1.7892-0.4672,3.4454-0.7352,5-0.8357V11.056c2.1454-0.1445,4.102,0.0322,6,0.3882v4.9827
			c2.0342,0.369,3.9889,0.9381,6,1.5581v-4.9528c1.2276,0.3798,3.0008,0.9818,6,1.2639v5.0104c2.0641,0.1992,4.1055,0.137,6-0.151
			v-4.9919c1.7994-0.2614,3.5052-0.707,5-1.3657v4.881c-1.4443,0.688-3.1442,1.1944-5,1.4765v6
			c1.8558-0.2821,3.5557-0.7885,5-1.4765v6c-1.4443,0.688-3.1442,1.1944-5,1.4765v5.5368C42.0931,36.9932,40.0433,37.043,38,36.8388
			z"/>
	</g>
</g>
</svg>

