<?xml version="1.0" encoding="utf-8"?>
<!-- Generator: Adobe Illustrator 19.1.0, SVG Export Plug-In . SVG Version: 6.00 Build 0)  -->
<svg version="1.2" baseProfile="tiny" xmlns="http://www.w3.org/2000/svg" xmlns:xlink="http://www.w3.org/1999/xlink" x="0px"
	 y="0px" width="64px" height="64px" viewBox="0 0 64 64" xml:space="preserve">
<g id="box">
	<rect fill="none" width="64" height="64"/>
</g>
<g id="Production">
	<g>
		<path fill="#ffffff" d="M42.3208,44.5039C42.0708,42.5063,40.3643,41,38.3516,41H38v-6.6237c3.5806-2.0788,6-5.9464,6-10.3763
			c0-6.6167-5.3833-12-12-12s-12,5.3833-12,12c0,4.4299,2.4194,8.2975,6,10.3763V41h-0.3516c-2.0127,0-3.7192,1.5063-3.9692,3.5039
			l-1.25,10c-0.1421,1.1382,0.2114,2.2837,0.9707,3.1436C22.1587,58.5068,23.2515,59,24.3984,59h15.2031
			c1.147,0,2.2397-0.4932,2.9985-1.3525c0.7593-0.8599,1.1128-2.0054,0.9707-3.1436L42.3208,44.5039z M22,24
			c0-5.5142,4.4858-10,10-10s10,4.4858,10,10s-4.4858,10-10,10S22,29.5142,22,24z M28,35.2999C29.2534,35.745,30.5959,36,32,36
			s2.7466-0.255,4-0.7001V41h-8V35.2999z M41.1011,56.3237C40.7158,56.7598,40.1836,57,39.6016,57H24.3984
			c-0.582,0-1.1143-0.2402-1.4995-0.6763c-0.3848-0.436-0.5571-0.9946-0.4854-1.5718l1.25-10C23.7886,43.7534,24.6421,43,25.6484,43
			h12.7031c1.0063,0,1.8599,0.7534,1.9849,1.752l1.25,10C41.6582,55.3291,41.4858,55.8877,41.1011,56.3237z"/>
		<rect x="31" y="2" fill="#ffffff" width="2" height="6"/>
		
			<rect x="42.4348" y="36.4349" transform="matrix(-0.7071 -0.7071 0.7071 -0.7071 51.0917 96.0325)" fill="#ffffff" width="6" height="1.9998"/>
		
			<rect x="15.5652" y="9.5653" transform="matrix(0.7071 0.7071 -0.7071 0.7071 12.9083 -10.0331)" fill="#ffffff" width="6" height="1.9998"/>
		<rect x="48" y="23" fill="#ffffff" width="6" height="2"/>
		<rect x="10" y="23" fill="#ffffff" width="6" height="2"/>
		
			<rect x="44.4349" y="7.5652" transform="matrix(0.7071 0.7071 -0.7071 0.7071 20.7783 -29.0328)" fill="#ffffff" width="1.9998" height="6"/>
		
			<rect x="15.5652" y="36.4349" transform="matrix(0.7071 -0.7071 0.7071 0.7071 -21.0328 24.092)" fill="#ffffff" width="6" height="1.9998"/>
	</g>
</g>
</svg>

