<?xml version="1.0" encoding="utf-8"?>
<!-- Generator: Adobe Illustrator 18.1.1, SVG Export Plug-In . SVG Version: 6.00 Build 0)  -->
<svg version="1.2" baseProfile="tiny" xmlns="http://www.w3.org/2000/svg" xmlns:xlink="http://www.w3.org/1999/xlink" x="0px"
	 y="0px" width="128px" height="128px" viewBox="0 0 128 128" xml:space="preserve">
<g id="_x31_28px_boxes">
	<rect fill="none" width="128" height="128"/>
</g>
<g id="Production">
	<g>
		<path fill="#ffffff" d="M105.3597,41.9947H76.3684v9.2983c0,3.3179-2.6897,6.0076-6.0077,6.0076H57.6392
			c-3.3179,0-6.0077-2.6897-6.0077-6.0076v-9.2983H22.6401c-3.9034,0-7.0677,3.1645-7.0677,7.0678v50.26
			c0,3.9036,3.1643,7.0679,7.0677,7.0679h82.7196c3.9035,0,7.0679-3.1643,7.0679-7.0679v-50.26
			C112.4276,45.1592,109.2632,41.9947,105.3597,41.9947z M66.1228,76.876h30.8034v5.3013H66.1228V76.876z M96.9262,89.4644v5.3012
			H66.1228v-5.3012H96.9262z M57.6449,66.4295v28.6784c-2.5869-4.1568-10.6872-4.762-11.274-6.9629
			c-0.2596-0.9729,0.4097-1.5578,1.3576-2.8815c1.534-2.0696,2.4899-4.8819,2.4899-7.7208c0-12.0907-16.2233-12.0888-16.2233,0
			c0,2.8389,0.9564,5.6512,2.4903,7.7208c0.9478,1.3237,1.6169,1.9086,1.3574,2.8815c-0.5888,2.2062-8.6848,2.8018-11.2741,6.9629
			V66.4295c0-1.0367,0.8482-1.8848,1.8848-1.8848h27.3066C56.7968,64.5447,57.6449,65.3928,57.6449,66.4295z"/>
		<path fill="#ffffff" d="M55.8722,51.293c0,0.9758,0.7911,1.7668,1.767,1.7668h12.7215c0.9759,0,1.767-0.791,1.767-1.7668V23.3765
			c0-0.9758-0.7911-1.7669-1.767-1.7669H57.6392c-0.9759,0-1.767,0.7911-1.767,1.7669V51.293z M64,32.9116
			c2.4426,0,4.4229,1.9805,4.4229,4.4231c0,2.4427-1.9803,4.4231-4.4229,4.4231c-2.443,0-4.4232-1.9804-4.4232-4.4231
			C59.5768,34.8921,61.557,32.9116,64,32.9116z"/>
	</g>
</g>
</svg>
