<?xml version="1.0" encoding="utf-8"?>
<!-- Generator: Adobe Illustrator 18.1.1, SVG Export Plug-In . SVG Version: 6.00 Build 0)  -->
<svg version="1.2" baseProfile="tiny" xmlns="http://www.w3.org/2000/svg" xmlns:xlink="http://www.w3.org/1999/xlink" x="0px"
	 y="0px" width="128px" height="128px" viewBox="0 0 128 128" xml:space="preserve">
<g id="_x31_28px_boxes">
	<rect fill="none" width="128" height="128"/>
</g>
<g id="Production">
	<g>
		<path fill="#ffffff" d="M111.0978,34.4852c-2.0454-4.5591-8.6006-8.7191-18.4587-11.714
			c-21.6726-6.5841-56.3064-6.8225-75.9683,5.638c-0.9575,0.6069-0.3701,2.0951,0.7383,1.892
			c13.0591-2.3552,38.2371-2.7671,54.2715,7.3096c0.2351,0.1478,0.52,0.1951,0.7893,0.1308
			c5.7256-1.3579,12.1348-2.331,15.615-2.8106l-5.7852,7.0022c-0.3579,0.4332-0.3113,1.0793,0.1404,1.4536L97.673,54.8023
			c0.4058,0.1911,0.8511,0.0972,1.1465-0.18c0.0559-0.0524,5.6377-5.3008,10.1333-10.3508
			C112.5444,40.2373,112.1015,36.723,111.0978,34.4852z"/>
		<path fill="#ffffff" d="M72.7904,59.9449l-10.1066-7.8341c-2.3457-1.8181-5.7207-1.3902-7.5386,0.9549
			c-1.8179,2.3454-1.3904,5.7207,0.9551,7.5387l11.2768,8.7412c-6.2461,11.828-13.3745,14.1787-24.6872,20.292l-2.3326-1.8778
			c-2.5476-2.0503-6.2746-1.6485-8.3259,0.8994c-2.0508,2.5474-1.6482,6.275,0.8992,8.3258l14.165,11.4033
			c2.5491,2.0515,6.2761,1.647,8.3259-0.8995c2.0508-2.5473,1.6482-6.2749-0.8991-8.3256l-1.2971-1.0442
			c9.7675-5.0903,18.9809-10.0555,26.2981-25.2884c2.8374-5.9057,7.844-11.7642,12.9555-16.756l-10.0315-7.518
			C79.0116,52.0336,75.6369,55.8846,72.7904,59.9449z"/>
	</g>
</g>
</svg>

