<?xml version="1.0" encoding="utf-8"?>

<svg version="1.2" baseProfile="tiny" xmlns="http://www.w3.org/2000/svg" xmlns:xlink="http://www.w3.org/1999/xlink" x="0px"
	 y="0px" width="128px" height="128px" viewBox="0 0 128 128" xml:space="preserve">
<g id="_x31_28px_boxes">
	<rect fill="none" width="128" height="128"/>
</g>
<g id="Production">
	<g>
		<path fill="#ffffff" d="M62.0323,30.3042V17.606c0-1.0093-0.8181-1.8276-1.8273-1.8276H37.2396
			c-1.0093,0-1.8274,0.8183-1.8274,1.8276v12.6982H62.0323z"/>
		<path fill="#ffffff" d="M88.7037,39.3412c-2.945-3.2129-7.5903-4.6511-10.8874-4.6511h-48.406
			c-3.7007,0-6.7007,3.0001-6.7007,6.7008v64.1299c0,3.7006,3,6.7008,6.7007,6.7008h69.1794c3.7007,0,6.7007-3.0002,6.7007-6.7008
			V62.6589c0-4.3171-1.6411-8.2452-4.7458-11.3593C90.4242,41.1461,88.9232,39.58,88.7037,39.3412z M90.7264,69.0564
			c-1.247,1.2471-2.8823,1.8708-4.5166,1.8708c-1.6352,0-3.27-0.6236-4.5171-1.8709L71.1625,58.5259
			c-2.4947-2.4946-2.4947-6.5393,0-9.0337c2.4946-2.4944,6.539-2.4943,9.0337,0.0001l10.5302,10.5304
			C93.2206,62.5173,93.2206,66.5619,90.7264,69.0564z M36.111,66.5509h24.426l12.6155,12.6159v19.6533H36.111V66.5509z"/>
	</g>
</g>
</svg>
