<?xml version="1.0" encoding="utf-8"?>

<svg version="1.2" baseProfile="tiny" xmlns="http://www.w3.org/2000/svg" xmlns:xlink="http://www.w3.org/1999/xlink" x="0px"
	 y="0px" width="128px" height="128px" viewBox="0 0 128 128" xml:space="preserve">
<g id="_x31_28px_boxes">
	<rect fill="none" width="128" height="128"/>
</g>
<g id="Production">
	<g>
		<path fill="#ffffff" d="M67.9019,66.6872c1.6753-2.6841,8.7924-9.747,8.7924-22.7004c0-13.6654-8.9633-22.3791-20.0205-22.3791
			c-11.0564,0-20.0205,8.7137-20.0205,22.3791c0,6.769,2.2017,13.4809,5.7649,18.5345c0.0061,0.009,0.0073,0.0179,0.0144,0.028
			c2.5225,3.6258,4.3728,5.0848,3.7005,7.6055c-0.6858,2.5705-5.8811,4.7051-12.5979,7.0433
			c-0.0645,0.0223-0.1241,0.0449-0.1836,0.0671c-6.6114,2.271-16.8477,7.4779-16.8477,16.3544v3.9814h48.1436
			C59.532,87.8006,60.5602,75.5747,67.9019,66.6872z"/>
		<path fill="#ffffff" d="M89.5469,62.4943c-12.1619,0-21.9488,9.886-21.9488,21.949c0,12.1226,9.829,21.949,21.9488,21.949
			c12.122,0,21.9492-9.8267,21.9492-21.949S101.6689,62.4943,89.5469,62.4943z M95.8328,96.3163l-6.2862-6.2861l-6.2859,6.2858
			l-5.5869-5.5871l6.2857-6.2857l-0.6089-0.609l-5.6768-5.6767l5.5872-5.5872l6.2859,6.2857l6.2856-6.2859l5.5872,5.5871
			l-4.8338,4.8336l-1.4521,1.4523l6.2861,6.286L95.8328,96.3163z"/>
	</g>
</g>
</svg>
