<?xml version="1.0" encoding="utf-8"?>

<svg version="1.2" baseProfile="tiny" xmlns="http://www.w3.org/2000/svg" xmlns:xlink="http://www.w3.org/1999/xlink" x="0px"
	 y="0px" width="128px" height="128px" viewBox="0 0 128 128" xml:space="preserve">
<g id="_x31_28px_boxes">
	<rect fill="none" width="128" height="128"/>
</g>
<g id="Production">
	<g>
		<path fill="#ffffff" d="M54.1396,28.2564h2.434v6.2172c2.4109-0.4336,4.8928-0.6603,7.4266-0.6603
			c2.5339,0,5.0155,0.2267,7.4264,0.6603v-6.2172h2.434c0.8264,0,1.4962-0.6698,1.4962-1.4962V16.4828
			c0-0.8263-0.6698-1.4962-1.4962-1.4962h-19.721c-0.8264,0-1.4962,0.6699-1.4962,1.4962v10.2774
			C52.6434,27.5866,53.3132,28.2564,54.1396,28.2564z"/>
		<path fill="#ffffff" d="M104.2521,42.6783l-6.9507-7.2005c-0.569-0.5893-1.516-0.6161-2.1157-0.0373l-6.6048,6.376
			c3.523,2.5659,6.6311,5.6671,9.2047,9.1839l6.4291-6.2064C104.8092,44.22,104.8259,43.2728,104.2521,42.6783z"/>
		<path fill="#ffffff" d="M39.4191,41.8166l-6.6043-6.376c-0.6086-0.5875-1.5551-0.5436-2.1156,0.0372l-6.9512,7.2005
			c-0.5739,0.5945-0.5572,1.5418,0.0373,2.1157l6.4293,6.2064C32.7882,47.4836,35.8964,44.3824,39.4191,41.8166z"/>
		<path fill="#ffffff" d="M64.0002,38.3021c-20.598,0-37.3558,16.7575-37.3558,37.3553c0,20.5981,16.7578,37.356,37.3558,37.356
			c20.5978,0,37.3554-16.7579,37.3554-37.356C101.3556,55.0596,84.598,38.3021,64.0002,38.3021z M64.0002,102.839
			c-14.9878,0-27.1812-12.1936-27.1812-27.1816c0-14.9875,12.1934-27.1808,27.1812-27.1808
			c14.9876,0,27.1808,12.1933,27.1808,27.1808C91.181,90.6454,78.9878,102.839,64.0002,102.839z"/>
		<path fill="#ffffff" d="M82.5171,83.5947l-11.4415-7.5772c0.0061-0.1191,0.0091-0.2391,0.0091-0.3599
			c0-3.9123-3.1719-7.0844-7.0845-7.0844c-3.9126,0-7.0849,3.1721-7.0849,7.0844c0,3.9129,3.1723,7.085,7.0849,7.085
			c1.3859,0,2.6779-0.3994,3.7699-1.0874l12.1449,6.3472c1.1477,0.5947,2.594,0.2461,3.3238-0.8562
			C84.0203,85.9662,83.697,84.3759,82.5171,83.5947z"/>
	</g>
</g>
</svg>
