<?xml version="1.0" encoding="utf-8"?>
<!-- Generator: Adobe Illustrator 18.1.1, SVG Export Plug-In . SVG Version: 6.00 Build 0)  -->
<svg version="1.2" baseProfile="tiny" xmlns="http://www.w3.org/2000/svg" xmlns:xlink="http://www.w3.org/1999/xlink" x="0px"
	 y="0px" width="64px" height="64px" viewBox="0 0 64 64" xml:space="preserve">

<g id="Production">
	<g>
		<path fill="#ffffff" d="M39,52v3c0,1.6543-1.3457,3-3,3s-3-1.3457-3-3V36.0797c-0.3369-0.0403-0.6721-0.0635-1-0.0635
			s-0.6631,0.0233-1,0.0635V55c0,2.7568,2.2432,5,5,5s5-2.2432,5-5v-3h-1H39z"/>
		<path fill="#ffffff" d="M33,10.0247V4h-2v6.0247C17.9426,10.5367,7.522,21.0178,7,34.3125
			c-0.048,1.2096,1.1645,1.9819,2.1968,1.4829c4.9354-2.3887,9.1953-2.5167,14.7744,0.6909
			c5.8333-3.3399,10.4843-3.1702,16.0591-0.001c5.5832-3.2084,9.8445-3.0753,14.7729-0.6899
			C55.835,36.2941,57.048,35.5221,57,34.313C56.478,21.0179,46.0574,10.5367,33,10.0247z M40.0264,34.1987
			c-5.6364-2.8811-10.4084-2.8852-16.0527,0c-5.5371-2.8469-9.9317-2.7608-15.001-0.5039C9.8052,21.4736,19.7905,12,32,12
			s22.1948,9.4731,23.0273,21.6948C49.9663,31.4416,45.5713,31.3478,40.0264,34.1987z"/>
	</g>
</g>
</svg>
