<?xml version="1.0" encoding="utf-8"?>
<!-- Generator: Adobe Illustrator 18.1.1, SVG Export Plug-In . SVG Version: 6.00 Build 0)  -->
<svg version="1.2" baseProfile="tiny" xmlns="http://www.w3.org/2000/svg" xmlns:xlink="http://www.w3.org/1999/xlink" x="0px"
	 y="0px" width="128px" height="128px" viewBox="0 0 128 128" xml:space="preserve">
<g id="_x31_28px_boxes">
	<rect fill="none" width="128" height="128"/>
</g>
<g id="Production">
	<path fill="#ffffff" d="M104.4185,15.4924c-4.1326,0-7.4822,3.3501-7.4822,7.482V41.347
		c-3.5188-1.8325-7.5152-2.8703-11.7495-2.8703c-3.4886,0-6.8155,0.7045-9.8472,1.9772l-14.157-9.5119
		c-2.6846-1.8036-6.9836-1.6733-9.5537,0.2896l-35.529,27.1338v32.518c6.0217,0.5301,11.904-1.1814,16.8789-4.5766
		c6.1086-4.1697,11.9892-8.6889,17.9524-13.0631c0.9497-0.6968,2.0705-1.9134,3.3276-1.9546c0,0,25.6706-0.7292,26.1877-0.859
		c2.6997-0.6775,4.7928-3.464,4.8611-6.2541c0.0884-3.5846-2.7461-6.562-6.3308-6.6501l-25.0098-0.615
		c-1.4397-0.0711-2.2546-0.7092-2.2546-1.9124c0-1.2426,0.9045-2.0042,2.1472-2.0042h15.2132
		c3.52-5.1383,9.4292-8.5176,16.114-8.5176c10.7653,0,19.5232,8.758,19.5232,19.5231c0,10.7653-8.7579,19.5235-19.5232,19.5235
		c-6.4864,0-12.2937-3.1379-15.9197-8.2242l-14.1648,0.4646l-9.2161,6.7644l0.0777,0.0807l9.3984,9.7788
		c2.6091,2.7146,6.9251,2.8003,9.6397,0.1911c0.7819-0.7514,1.3444-1.6447,1.6884-2.6004l4.9554,5.1557
		c2.6086,2.7143,6.9245,2.8006,9.6394,0.1911c1.6406-1.5766,2.3193-3.7765,2.0251-5.8698c4.7495,0.3441,9.4365-0.6205,13.626-2.8023
		v18.372c0,4.1325,3.3498,7.4826,7.4822,7.4826c4.1318,0,7.4816-3.3501,7.4816-7.4826V22.9744
		C111.9001,18.8425,108.5503,15.4924,104.4185,15.4924z"/>
</g>
</svg>
