<?xml version="1.0" encoding="utf-8"?>
<!-- Generator: Adobe Illustrator 18.1.1, SVG Export Plug-In . SVG Version: 6.00 Build 0)  -->
<svg version="1.2" baseProfile="tiny" xmlns="http://www.w3.org/2000/svg" xmlns:xlink="http://www.w3.org/1999/xlink" x="0px"
	 y="0px" width="128px" height="128px" viewBox="0 0 128 128" xml:space="preserve">
<g id="_x31_28px_boxes">
	<rect fill="none" width="128" height="128"/>
</g>
<g id="Production">
	<g>
		<path fill="#ffffff" d="M102.4952,61.75V20.7565c0-4.1422-3.3579-7.5-7.5-7.5H33.0047c-4.1421,0-7.5,3.3578-7.5,7.5V61.75
			H102.4952z M84.9378,51.0624H43.0621c-0.6903,0-1.25-0.5598-1.25-1.25V27.273c0-0.6902,0.5597-1.25,1.25-1.25h41.8757
			c0.6904,0,1.25,0.5598,1.25,1.25v22.5394C86.1878,50.5026,85.6282,51.0624,84.9378,51.0624z"/>
		<path fill="#ffffff" d="M25.5047,66.25v40.9935c0,4.1423,3.3579,7.5,7.5,7.5h61.9905c4.1421,0,7.5-3.3577,7.5-7.5V66.25H25.5047z
			 M82.3609,75.5805c2.8965,0,5.2529,2.3564,5.2529,5.2529c0,2.8966-2.3564,5.2533-5.2529,5.2533
			c-2.8966,0-5.253-2.3567-5.253-5.2533C77.1079,77.9369,79.4643,75.5805,82.3609,75.5805z M82.3609,92.0393
			c2.8965,0,5.2529,2.3566,5.2529,5.253c0,2.8966-2.3564,5.2532-5.2529,5.2532c-2.8966,0-5.253-2.3566-5.253-5.2532
			C77.1079,94.3959,79.4643,92.0393,82.3609,92.0393z M38.1474,87.8282c0-1.3808,1.1192-2.5,2.5-2.5h6.5802v-6.5805
			c0-1.3808,1.1193-2.5,2.5001-2.5h2.4704c1.3807,0,2.5,1.1192,2.5,2.5v6.5805h6.5802c1.3806,0,2.5,1.1192,2.5,2.5v2.4698
			c0,1.3806-1.1194,2.5-2.5,2.5h-6.5802v6.5806c0,1.3806-1.1193,2.5-2.5,2.5h-2.4704c-1.3808,0-2.5001-1.1194-2.5001-2.5V92.798
			h-6.5802c-1.3808,0-2.5-1.1194-2.5-2.5V87.8282z"/>
	</g>
</g>
</svg>
