<?xml version="1.0" encoding="utf-8"?>
<!-- Generator: Adobe Illustrator 18.1.1, SVG Export Plug-In . SVG Version: 6.00 Build 0)  -->
<svg version="1.2" baseProfile="tiny" xmlns="http://www.w3.org/2000/svg" xmlns:xlink="http://www.w3.org/1999/xlink" x="0px"
	 y="0px" width="128px" height="128px" viewBox="0 0 128 128" xml:space="preserve">
<g id="_x31_28px_boxes">
	<rect fill="none" width="128" height="128"/>
</g>
<g id="Production">
	<g>
		<path fill="#ffffff" d="M102.0039,42.8803c-0.7161-0.8362-1.7405-1.7527-3.1543-2.4584
			C94.8943,4.1034,60.2873-1.837,43.0495,12.2711c-1.9276,5.4163-1.1983,12.1907,2.3147,18.6136
			c4.6908,8.5766,15.0069,16.9919,30.1847,16.9924c3.721,0.0003,7.7329-0.5054,12.0275-1.6384l0.022,0.0832v7.2203
			c0,1.6362,1.3264,2.9626,2.9626,2.9626s2.9626-1.3264,2.9626-2.9626v-7.1209c1.8499,0.0244,2.6091,0.6558,3.0188,1.1343
			c1.2314,1.4382,1.5942,4.4626,0.9958,8.2976c-0.8032,5.1465-3.511,6.28-4.0378,6.4536l-2.1404,0.3218
			c-0.5833,2.5205-0.8701,3.9085-1.579,6.0346C84.4202,84.7427,70.5067,91.7628,64.022,91.7628
			c-8.3888,0-24.3957-10.9069-27.1971-29.0988l-2.3244-0.357c-0.5246-0.1723-3.2348-1.3044-4.0388-6.4538
			c-0.5984-3.835-0.2355-6.8594,0.996-8.2979c0.4095-0.4782,1.1687-1.1098,3.0185-1.1342v7.1211
			c0,1.6362,1.3266,2.9626,2.9627,2.9626c1.6363,0,2.9626-1.3264,2.9626-2.9626v-4.0849c0.8172,0.0397,1.7135-0.0773,2.6947-0.4044
			c3.5523-1.1841,6.2926-2.7463,8.4077-4.4422c-4.4442-3.353-7.833-7.444-10.088-11.5668
			c-2.6543-4.8531-3.9427-9.9134-3.9118-14.6592c-5.7879,5.0378-9.4389,14.7719-7.5033,21.6606
			c-1.8623,0.7315-3.1526,1.8396-4.0044,2.8347c-2.6756,3.1255-3.5877,7.9949-2.6377,14.0818
			c1.0188,6.5264,4.4579,9.9885,7.3174,11.5078C36.3915,88.384,53.6339,98.9518,64.022,98.9518
			c10.0009,0,27.6908-9.7998,33.3317-30.498c2.8538-1.5274,6.2727-4.9883,7.2876-11.4922
			C105.5913,50.8749,104.6792,46.0055,102.0039,42.8803z"/>
		<path fill="#ffffff" d="M51.6781,65.5514c2.987,0,5.4147-2.4243,5.4147-5.4131c0-2.9926-2.4277-5.4174-5.4147-5.4174
			c-2.9917,0-5.4154,2.4248-5.4154,5.4174C46.2627,63.1271,48.6864,65.5514,51.6781,65.5514z"/>
		<path fill="#ffffff" d="M81.3808,60.1383c0-2.9926-2.4248-5.4174-5.4107-5.4174c-2.992,0-5.4173,2.4248-5.4173,5.4174
			c0,2.9888,2.4253,5.4131,5.4173,5.4131C78.956,65.5514,81.3808,63.1271,81.3808,60.1383z"/>
		<path fill="#ffffff" d="M44.1719,97.4828c-2.0564-1.3242-4.7937-0.7637-6.1642,1.2622
			c-0.4261,0.6304-2.5526,4.1241-2.5526,11.0259c0,6.9016,2.1262,10.3958,2.5525,11.0261c1.3706,2.027,4.109,2.5867,6.1643,1.2625
			l9.8455-6.3413c-0.6983-1.6573-1.0999-3.6275-1.0999-5.7622c0-2.26,0.4486-4.3369,1.2244-6.052L44.1719,97.4828z"/>
		<path fill="#ffffff" d="M84.0025,97.4828l-10.0399,6.4656c0.7636,1.7068,1.2054,3.7668,1.2054,6.0076
			c0,2.1155-0.394,4.0695-1.0809,5.7177l9.9154,6.3858c2.0553,1.3243,4.7936,0.7644,6.1642-1.2625
			c0.4263-0.6303,2.5525-4.1245,2.5525-11.0261c0-6.9018-2.1265-10.3955-2.5527-11.0259
			C88.7964,96.7189,86.0583,96.1586,84.0025,97.4828z"/>
		<path fill="#ffffff" d="M67.8573,103.6713h-7.6292c-1.1189,0-2.8106,2.5066-2.8106,6.2847c0,3.7778,1.6917,6.2841,2.8106,6.2841
			h7.6292c1.1189,0,2.8107-2.5063,2.8107-6.2841C70.668,106.1779,68.9762,103.6713,67.8573,103.6713z"/>
	</g>
</g>
</svg>
