<?xml version="1.0" encoding="utf-8"?>
<!-- Generator: Adobe Illustrator 18.1.1, SVG Export Plug-In . SVG Version: 6.00 Build 0)  -->
<svg version="1.2" baseProfile="tiny" xmlns="http://www.w3.org/2000/svg" xmlns:xlink="http://www.w3.org/1999/xlink" x="0px"
	 y="0px" width="128px" height="128px" viewBox="0 0 128 128" xml:space="preserve">
<g id="_x31_28px_boxes">
	<rect fill="none" width="128" height="128"/>
</g>
<g id="Production">
	<path fill="#ffffff" d="M36.4973,50.1507c0.0369,0.04,4.0361,4.3162,10.1411,4.4287c9.3328,0.1751,13.0525-8.9585,22.9883-8.9585
		c9.5353,0,18.095,7.2614,18.3176,18.376c6.6514,2.8235,13.0865,6.8174,20.0533,12.3728
		c12.5543-15.8308,1.2195-21.3349-1.1106-26.3059c-0.9498-4.1879,4.5435-16.7349-13.3445-21.5286
		c-1.0064-0.2697-2.5166-0.6748-3.0105-0.9636c-3.6302-3.2988-6.0967-16.1949-23.2918-9.6238c-3.3789,1.2899-2.9067,1.3235-6.3711,0
		c-10.0413-3.8351-15.4756-2.2013-21.4909,7.1023c-1.8909,2.9243-1.4667,2.5871-4.8128,3.4858
		c-10.5793,2.8347-13.8982,7.4474-13.3476,18.3057c0.1781,3.5268,0.341,3.0172-1.7889,5.6355
		c-6.9855,8.5807-6.9898,14.4598,0,23.0471c2.1314,2.6177,1.9664,2.1103,1.7884,5.6346
		c-0.5486,10.8523,2.76,15.4685,13.3481,18.3068c3.3428,0.8951,2.9231,0.5614,4.8125,3.4846
		c5.9993,9.2785,11.424,10.9487,21.4912,7.1026c3.3886-1.2928,2.9092-1.3222,6.3702,0c10.0817,3.8519,15.4985,2.164,21.4909-7.1026
		c1.8894-2.9219,1.4688-2.5892,4.8128-3.4846c8.7251-2.3391,13.6165-6.1603,13.4326-16.1355
		c-1-0.5072-30.9021-26.3957-53.1648-16.4043c-0.4334,0.195-0.2583,0.8516,0.218,0.8011
		c2.7083-0.3563,18.1913-0.8441,30.1987,8.6335c-9.0188,12.9835-29.8264,8.5034-40.5647-3.3835
		c-9.9282-10.9856-9.7299-21.4449-9.7165-21.8845C33.986,49.7774,35.6123,49.1758,36.4973,50.1507z"/>
</g>
</svg>
