<?xml version="1.0" encoding="utf-8"?>

<svg version="1.2" baseProfile="tiny" xmlns="http://www.w3.org/2000/svg" xmlns:xlink="http://www.w3.org/1999/xlink" x="0px"
	 y="0px" width="128px" height="128px" viewBox="0 0 128 128" xml:space="preserve">
<g id="_x31_28px_boxes">
	<rect fill="none" width="128" height="128"/>
</g>
<g id="Production">
	<g>
		<path fill="#ffffff" d="M96.5296,77.6021c3.1999,0,5.8064-2.6086,5.8064-5.8159c0-3.2122-2.6065-5.8136-5.8064-5.8136
			c-3.2121,0-5.8232,2.6014-5.8232,5.8136C90.7064,74.9935,93.3175,77.6021,96.5296,77.6021z"/>
		<path fill="#ffffff" d="M92.1033,86.0003c-1.2339,8.9427-8.5862,17.1599-19.5317,17.1721
			c-11.9913-0.0122-19.676-9.866-19.7299-19.7273v-1.9688c-2.9053,0.3381-6.1552,0.3474-9.226-0.0317
			c0,19.323,13.5136,30.915,28.9559,30.9538c16.5249-0.0341,27.6318-12.9047,28.8411-26.5399
			c5.8452-2.0322,10.0688-7.5332,10.0735-14.0747c-0.0074-8.2638-6.7003-14.9591-14.9495-14.9591
			c-8.2732,0-14.9785,6.6953-14.9785,14.9591C81.5582,78.4961,86.0088,84.1047,92.1033,86.0003z M96.5367,61.7051
			c5.5403,0.0049,10.0542,4.5118,10.0715,10.0787c-0.0173,5.5595-4.5312,10.0737-10.0715,10.0809
			c-5.5767-0.0072-10.0904-4.5214-10.0979-10.0809C86.4463,66.2242,90.96,61.71,96.5367,61.7051z"/>
		<path fill="#ffffff" d="M21.3579,58.6079c7.208,24.9507,46.4596,25.3443,53.7955,0.0293
			c4.2084-14.4902,4.9297-16.0324,4.9297-20.2599c-0.0125-8.4371-5.0054-15.565-12.1504-18.3031c0,0,0-0.0025-0.002-0.0025
			c-1.1801-2.6308-3.8061-4.4676-6.8764-4.4676c-4.1674,0-7.5505,3.3806-7.5505,7.5429c0,4.1721,3.3831,7.553,7.5505,7.553
			c1.7243,0,3.2954-0.6034,4.5654-1.5781c3.0481,1.5513,5.1687,4.7999,5.2344,9.2554c0,2.5917-0.2188,2.7546-4.5528,17.6461
			c-2.4087,7.7263-8.5619,12.0327-18.0324,12.1843c-9.3749-0.0977-15.8236-4.8391-18.0563-12.199
			c-4.3603-14.9521-4.4725-14.7557-4.4725-17.1526c0.0341-4.2944,2.1201-7.7042,4.9807-9.463
			c1.2114,0.8256,2.6722,1.3091,4.2453,1.3115c4.1624-0.0072,7.5457-3.3855,7.5457-7.5525c0-4.1674-3.3833-7.5457-7.5457-7.5505
			c-3.1951,0.0048-5.9162,1.9933-7.0227,4.7925c-6.8836,3.0706-11.4123,10.3839-11.4296,18.462
			C16.5138,42.8992,17.0936,43.979,21.3579,58.6079z"/>
	</g>
</g>
</svg>
