<?xml version="1.0" encoding="utf-8"?>
<!-- Generator: Adobe Illustrator 18.1.1, SVG Export Plug-In . SVG Version: 6.00 Build 0)  -->
<svg version="1.2" baseProfile="tiny" xmlns="http://www.w3.org/2000/svg" xmlns:xlink="http://www.w3.org/1999/xlink" x="0px"
	 y="0px" width="128px" height="128px" viewBox="0 0 128 128" xml:space="preserve">
<g id="_x31_28px_boxes">
	<rect fill="none" width="128" height="128"/>
</g>
<g id="Production">
	<path fill="#ffffff" d="M99.071,14.1098c-8.7646-4.8274-61.3774-4.8274-70.142,0c-1.3186,0.7265-2.1177,2.1316-2.0679,3.636
		c0.0024,0.0769,0.2663,8.031,1.313,38.4047c0.2256,6.5509,3.5725,10.7801,6.5044,12.9654
		c0.448,7.2018,1.9521,31.2859,2.6867,41.7747c0.3125,4.4599,2.9278,6.6202,6.4434,6.6202h40.3828
		c3.5161,0,6.1309-2.161,6.4434-6.6202c0.7346-10.4888,2.2387-34.5729,2.6867-41.7747c2.9319-2.1853,6.2788-6.4145,6.5044-12.9652
		c1.0467-30.3739,1.3106-38.328,1.313-38.4049C101.1887,16.2414,100.3896,14.8363,99.071,14.1098z M92.4131,38.9376H81.4214
		c0.0713,6.5741,0.6074,14.5179,2.342,20.6565c5.1878,18.3578-18.9524,18.3633-13.7632,0
		c1.7347-6.1386,2.2708-14.0824,2.3421-20.6565H45.1355c0,0,0.5261,9.1432,0.6609,13.1824c0.2781,8.3415,4.866,5.036,5.4219,10.8753
		c0.5559,5.8391,2.3564,37.6458,2.3564,37.6458h29.73c-0.2197,3.36-0.4241,6.4247-0.5933,8.8697H45.2886
		c-0.8875-12.8203-2.7349-42.6516-2.7537-42.958c-0.092-1.4856-1.0012-2.7973-2.3601-3.4046
		c-0.0381-0.0171-3.8188-1.8562-4.0056-7.2731c-0.7073-20.5311-1.0571-30.8159-1.2102-35.3477
		c12.0647-2.7119,45.9692-2.7228,58.082,0C92.9377,23.5849,92.7449,29.2621,92.4131,38.9376z"/>
</g>
</svg>
