<?xml version="1.0" encoding="utf-8"?>

<svg version="1.2" baseProfile="tiny" xmlns="http://www.w3.org/2000/svg" xmlns:xlink="http://www.w3.org/1999/xlink" x="0px"
	 y="0px" width="128px" height="128px" viewBox="0 0 128 128" xml:space="preserve">
<g id="_x31_28px_boxes">
	<rect fill="none" width="128" height="128"/>
</g>
<g id="Production">
	<g>
		<path fill="#ffffff" d="M112.1566,12.4741c-7.6482-0.009-32.9604,0.679-53.7141,9.5288
			c-1.8452,4.7249-2.563,11.0657-2.7993,13.8526c-0.0405,0.4787-0.6636,0.6296-0.9185,0.2226
			c-1.1421-1.8213-3.1216-5.6116-3.5258-10.4985C26.8998,39.4412,28.8263,63.8787,28.8263,63.8787
			c-2.8296-3.1128-5.5171-3.0938-6.6655-2.897c-0.3133,0.0537-0.489,0.3845-0.3726,0.6802
			c3.4109,8.6499,4.7771,15.7963,5.22,21.1814c19.8369-25.9335,31.5103-36.2141,42.2834-44.0796
			c5.3552-3.7948,7.2265-4.8199,8.4097-5.51c1.1244-0.6592,2.0595,0.7967,1.186,1.5488
			c-24.4716,21.1196-60.7808,70.1789-63.7888,74.9282c-1.3796,2.1782,1.263,1.8755,3.563,0.9282
			c6.8602-2.8241,8.8406-12.2811,23.5398-17.5302c6.9663-2.4876,20.0112-2.2066,23.3691-1.7369
			c0.3755,0.0523,0.6634-0.3188,0.5357-0.6757c-1.5156-4.2373-7.5298-5.4624-7.5298-5.4624s15.9324,0.1123,24.9829-13.1214
			c-4.5469-0.4746-12.0259-2.3845-15.5981-9.6184c-0.2015-0.4077,0.185-0.8608,0.6125-0.7063
			c2.8347,1.0266,10.6553,3.5056,19.0022,3.094c7.5615-15.7805,4.7778-24.0268,25.4656-50.6042
			C113.6178,13.5569,113.0951,12.4753,112.1566,12.4741z"/>
		<path fill="#ffffff" d="M98.9103,98.1628c-10.0243,6.2923-24.5716,10.2373-33.9204,10.4202
			c0.4956-1.7214,1.1465-3.5366,1.112-4.9749c-0.0972-4.1066-14.2987-5.4144-24.52-1.2866
			c-3.2134,1.2779-12.9455,7.314-11.6308,9.5818c0.4501,0.7764,1.4885,0.7578,2.2749,0.3255
			c6.9582-3.8262,18.1345-6.7845,25.8894-5.4256c-0.4749,1.0559-1.8079,5.846-1.1231,7.4214
			c0.7776,1.7881,12.0891,2.5,27.0632-3.0239c4.8218-1.7788,19.011-9.4922,17.2862-12.6953
			C100.8622,97.615,99.7662,97.5464,98.9103,98.1628z"/>
	</g>
</g>
</svg>
