<?xml version="1.0" encoding="utf-8"?>
<!-- Generator: Adobe Illustrator 18.1.1, SVG Export Plug-In . SVG Version: 6.00 Build 0)  -->
<svg version="1.2" baseProfile="tiny" xmlns="http://www.w3.org/2000/svg" xmlns:xlink="http://www.w3.org/1999/xlink" x="0px"
	 y="0px" width="128px" height="128px" viewBox="0 0 128 128" xml:space="preserve">
<g id="box">
	<rect fill="none" width="128" height="128"/>
</g>
<g id="Production">
	<g>
		<path fill="#ffffff" d="M75.2333,44.4196c-1.271,1.9529-0.7141,4.5671,1.241,5.8303c1.945,1.2661,4.5544,0.7144,5.8254-1.2432
			c1.271-1.9453,0.7141-4.5622-1.2358-5.8254C79.1059,41.9127,76.4965,42.4696,75.2333,44.4196z"/>
		<path fill="#ffffff" d="M100.4853,17.4374c-10.175-6.6072-22.5578-4.0037-29.7566,7.1587L45.5168,63.4242
			c-2.1101,3.2238-2.5269,6.4543-0.6294,9.8179l-7.6033,11.7057l14.4551,29.0151l16.7622-25.8188
			c3.4303,0.2187,6.2525-1.7744,8.0054-4.5918c0.0073-0.0152,0.9414-1.4532,7.8703-12.1029
			C93.0197,58.18,100.238,59.2206,106.443,49.6659v-0.0076C115.3123,35.9474,112.4903,25.1276,100.4853,17.4374z M52.4533,101.4234
			l-8.0051-16.0635l18.5449-28.5751c7.8514,5.0928,4.9111,3.1843,12.9792,8.4246L52.4533,101.4234z M79.3984,59.9408
			c-8.0707-5.2316-5.1344-3.3269-12.9844-8.4221l11.7182-18.0381c7.725,5.0116,4.766,3.0899,12.9795,8.4295L79.3984,59.9408z"/>
		<path fill="#ffffff" d="M39.5912,107.9229h-20.113c-1.7254,0-3.1135,1.393-3.1135,3.1137c0,1.7178,1.3881,3.1114,3.1135,3.1114
			h20.113c1.7183,0,3.1114-1.3936,3.1114-3.1114C42.7026,109.3159,41.3095,107.9229,39.5912,107.9229z"/>
	</g>
</g>
</svg>
