<?xml version="1.0" encoding="utf-8"?>
<!-- Generator: Adobe Illustrator 18.1.1, SVG Export Plug-In . SVG Version: 6.00 Build 0)  -->
<svg version="1.2" baseProfile="tiny" xmlns="http://www.w3.org/2000/svg" xmlns:xlink="http://www.w3.org/1999/xlink" x="0px"
	 y="0px" width="128px" height="128px" viewBox="0 0 128 128" xml:space="preserve">
<g id="_x31_28px_boxes">
	<rect fill="none" width="128" height="128"/>
</g>
<g id="Production">
	<g>
		<path fill="#ffffff" d="M95.2497,23.7006c3.0576-8.0054-9.0563-12.6408-12.1169-4.6271L77.9533,32.637h12.3064
			C94.8818,24.4994,94.9675,24.4393,95.2497,23.7006z"/>
		<path fill="#ffffff" d="M95.955,48.6302c3.1778-0.0405,5.7417-2.6274,5.7417-5.8145c0-3.2123-2.6042-5.8164-5.8164-5.8164H32.1197
			c-3.2123,0-5.8164,2.6041-5.8164,5.8164c0,3.1871,2.5639,5.7743,5.7416,5.8145c-11.9282,13.5553-14.6294,32.7722,0.3242,43.8382
			c1.1057-7.2961,5.6912-12.3286,12.1464-14.3379c0,0-1.6874,15.0401,6.4489,15.1655c8.4309,0.1299,13.858-13.6064,6.8935-24.7194
			c9.6733,1.708,15.0906,7.8479,18.1343,16.8054c3.5878,10.5596,15.4792,3.5481,12.2524-10.593
			c6.8347,5.5754,8.3208,11.9939,7.9783,17.2292C110.5586,80.8626,107.6646,61.9366,95.955,48.6302z"/>
		<path fill="#ffffff" d="M36.4719,95.0626l-10.2278,1.8616c-0.0028,0.0005-0.0055,0.0008-0.0082,0.0012
			c-0.0027,0.0005-0.0052,0.0013-0.0078,0.0017l-0.0325,0.0059l0.0003,0.001c-4.3095,0.812-6.9487,5.7285-5.6912,10.97
			c1.2577,5.2409,5.841,8.4243,10.0496,7.1921l0.0004,0.0015L64,105.0807l33.4453,10.0169l0.0002-0.0015
			c4.2088,1.2322,8.7918-1.9512,10.0498-7.1921c1.2573-5.2415-1.3818-10.158-5.6911-10.97v-0.001l-0.0323-0.0059
			c-0.0026-0.0004-0.0053-0.0012-0.0078-0.0017c-0.0027-0.0004-0.0056-0.0007-0.0083-0.0012L91.528,95.0626
			C76.6545,103.0978,51.3843,103.1185,36.4719,95.0626z"/>
		<circle fill="#ffffff" cx="57.6781" cy="26.0782" r="5.4752"/>
		<circle fill="#ffffff" cx="45.2345" cy="16.3724" r="3.7331"/>
	</g>
</g>
</svg>

