<?xml version="1.0" encoding="utf-8"?>
<!-- Generator: Adobe Illustrator 18.1.1, SVG Export Plug-In . SVG Version: 6.00 Build 0)  -->
<svg version="1.2" baseProfile="tiny" xmlns="http://www.w3.org/2000/svg" xmlns:xlink="http://www.w3.org/1999/xlink" x="0px"
	 y="0px" width="64px" height="64px" viewBox="0 0 64 64" xml:space="preserve">

<g id="Production">
	<path fill="#ffffff" d="M36.4497,60.4043c-4.0149,3.3095-10.3003,1.2157-11.312-3.9902c-0.7515-3.8682,1.6494-7.5029,5.4658-8.2749
		C31.9922,47.8584,33,46.625,33,45.207V41h7.2036l9.6045-10.9756L46,21.4559V0h-2v16.9559L39.1309,6H23.8691L19,16.9559V0h-2
		v21.4559l-3.8081,8.5685L22.7964,41H31v4.207c0,0.4702-0.3335,0.8789-0.793,0.9722c-4.8257,0.9761-7.98,5.7388-7.0322,10.6167
		c1.2973,6.6809,9.3596,9.4278,14.5469,5.1514C39.8052,60.2295,41,57.6978,41,55h-2C39,57.0981,38.0703,59.0679,36.4497,60.4043z
		 M15.5386,29.6689L25.1689,8h12.6621l9.6304,21.6689L39.2964,39H23.7036L15.5386,29.6689z"/>
</g>
</svg>
