<?xml version="1.0" encoding="utf-8"?>

<svg version="1.2" baseProfile="tiny" xmlns="http://www.w3.org/2000/svg" xmlns:xlink="http://www.w3.org/1999/xlink" x="0px"
	 y="0px" width="64px" height="64px" viewBox="0 0 64 64" xml:space="preserve">

<g id="Production">
	<g>
		<path fill="#ffffff" d="M41.2121,40.9415l5.5207-0.002c5.0767,0,8.2306-2.7295,8.2306-7.3006c0-3.452-1.8131-5.3536-2.0572-6.3536
			c-0.1382-0.5683-0.0962-1.0327-0.0327-1.7353c0.1011-1.125,0.2397-2.6665-0.419-4.9164c-0.8329-2.8384-2.6255-3.9764-3.73-5.6166
			c-0.8833-1.3157-0.7814-4.4132-5.4197-6.6083C41.0724,7.3518,38.2253,7,35.7456,7c-4.7744,0-9.2073,1.3355-13.189,3.6718
			C19.8185,12.2797,11,12.0462,8,12.0189v4.9517c0,0.002,0.5967,0.0044,0.9141,0.0068c5.5906,0.0415,12.532,0.1495,16.1663-1.9834
			c3.3648-1.9746,6.9747-2.976,10.7365-2.976c0.9624-0.0259,3.6337,0.1015,5.3505,0.915c3.2438,1.5348,0.9753,2.3591,5.0168,6.8739
			c0.7994,0.8946,1.3937,1.3999,1.6383,2.2334c0.7759,2.6505-0.2863,3.6371,0.3914,6.4258
			c0.6908,2.8474,1.7495,3.2011,1.7495,5.1729c0,2.8854-2.3054,2.4102-8.7527,2.4126c-6.4014,0-10.7776,5.1737-6.3303,13.5584
			c0.5752,1.0849,1.1187,2.1098,1.0786,2.8061c-0.0886,1.5506-1.9225,1.9759-3.3409,1.1806
			c-1.3804-0.841-5.8467-6.2481-7.1526-7.8749C21.0234,40.1837,16,34.4777,8,33.9411v5.0058c6,0.5579,9.728,5.1221,13.8716,10.2855
			c1.393,1.7354,6.1025,7.4926,8.313,8.7279c4.7042,2.6321,10.4686-0.0223,10.7702-5.2572
			c0.2299-4.0038-3.1649-6.1855-2.8612-9.8417C38.205,41.5255,39.8424,40.9415,41.2121,40.9415z"/>
	</g>
</g>
</svg>
