<?xml version="1.0" encoding="utf-8"?>

<svg version="1.2" baseProfile="tiny" xmlns="http://www.w3.org/2000/svg" xmlns:xlink="http://www.w3.org/1999/xlink" x="0px"
	 y="0px" width="64px" height="64px" viewBox="0 0 64 64" xml:space="preserve">

<g id="Production">
	<g>
		<path fill="#ffffff" d="M46.502,54H15.2764C7.9551,54,2,48.0146,2,40.6582c0-5.9004,3.3145-10.6348,8.7832-12.7539
			c0.0352-5.0898,1.7305-9.666,4.8643-13.0479C19.1484,11.0801,24.1777,9,29.8096,9c8.6201,0,16.039,5.8066,18.2959,14.0527
			C56.376,24.4258,62,30.5254,62,38.4082C62,47.0059,55.0469,54,46.502,54z M29.8096,14c-4.2237,0-7.9512,1.5117-10.4951,4.2559
			c-2.6192,2.8252-3.8204,6.7197-3.4766,11.2627l0.1601,2.0966l-2.038,0.5166C9.6016,33.2354,7,36.4238,7,40.6582
			C7,45.2578,10.7129,49,15.2764,49H46.502C52.291,49,57,44.248,57,38.4082c0-5.7344-4.5811-10.0908-11.1396-10.5957l-1.9405-0.1484
			l-0.332-1.918C42.4131,18.9395,36.6182,14,29.8096,14z"/>
	</g>
</g>
</svg>
