<?xml version="1.0" encoding="utf-8"?>

<svg version="1.2" baseProfile="tiny" xmlns="http://www.w3.org/2000/svg" xmlns:xlink="http://www.w3.org/1999/xlink" x="0px"
	 y="0px" width="128px" height="128px" viewBox="0 0 128 128" xml:space="preserve">
<g id="_x31_28px_boxes">
	<rect fill="none" width="128" height="128"/>
</g>
<g id="Production">
	<g>
		<path fill="#ffffff" d="M110.3582,86.5462H17.6418c-1.5545,0-2.8147,1.2602-2.8147,2.8147v15.3615
			c0,1.5545,1.2602,2.8147,2.8147,2.8147h92.7164c1.5545,0,2.8147-1.2602,2.8147-2.8147V89.3609
			C113.1729,87.8064,111.9127,86.5462,110.3582,86.5462z M55.4965,101.9077h-23.193v-9.7322h23.193V101.9077z M95.6967,101.9077
			h-23.193v-9.7322h23.193V101.9077z"/>
		<path fill="#ffffff" d="M30.4049,79.9238h67.1903c1.8568,0,3.3622-1.5051,3.3622-3.362V23.8251
			c0-1.8568-1.5054-3.3622-3.3622-3.3622H30.4049c-1.8568,0-3.3622,1.5054-3.3622,3.3622v52.7367
			C27.0427,78.4187,28.5481,79.9238,30.4049,79.9238z M75.9325,45.5039l5.0344-7.5979c0.1497-0.2253,0.4018-0.3609,0.6718-0.3614
			h0.0017c0.2699,0,0.5217,0.1346,0.6716,0.359l5.0791,7.5979c0.1653,0.2474,0.1812,0.5665,0.0408,0.8296
			c-0.1406,0.2627-0.4144,0.4268-0.7124,0.4268h-3.031V60.417h-4.0523V46.7579h-3.0304c-0.2974,0-0.571-0.1636-0.7117-0.4259
			C75.7533,46.0701,75.7678,45.7518,75.9325,45.5039z M60.0364,45.5039l5.0354-7.5979c0.1496-0.2253,0.4014-0.3609,0.6717-0.3614
			h0.0014c0.27,0,0.5218,0.1346,0.6716,0.359l5.0786,7.5979c0.1659,0.2474,0.1814,0.5665,0.041,0.8296
			c-0.1402,0.2627-0.4143,0.4268-0.7121,0.4268h-3.0333V60.417h-4.0503V46.7579h-3.0308c-0.2975,0-0.5709-0.1636-0.7117-0.4259
			C59.8573,46.0701,59.8721,45.7518,60.0364,45.5039z M59.5884,64.3528c0-0.4463,0.3617-0.808,0.808-0.808h26.6363
			c0.446,0,0.8076,0.3617,0.8076,0.808v2.8241c0,0.4462-0.3616,0.808-0.8076,0.808H60.3964c-0.4463,0-0.808-0.3618-0.808-0.808
			V64.3528z"/>
	</g>
</g>
</svg>
