<?xml version="1.0" encoding="utf-8"?>
<!-- Generator: Adobe Illustrator 18.1.1, SVG Export Plug-In . SVG Version: 6.00 Build 0)  -->
<svg version="1.2" baseProfile="tiny" xmlns="http://www.w3.org/2000/svg" xmlns:xlink="http://www.w3.org/1999/xlink" x="0px"
	 y="0px" width="128px" height="128px" viewBox="0 0 128 128" xml:space="preserve">
<g id="_x31_28px_boxes">
	<rect fill="none" width="128" height="128"/>
</g>
<g id="Production">
	<g>
		<path fill="#ffffff" d="M17.8077,84.2654c-0.9877,0.9878-0.5696,2.2973,0,2.867l6.7447,6.7447l-0.2097,6.1466
			c-0.0355,1.0381,0.7897,2,1.9329,2c0.0219,0,6.2124-0.2108,6.2124-0.2108l3.7221,3.7221
			c-2.5163,2.1333-7.9205,4.7137-11.5573,1.0769l-4.2896-4.2896c-2.8896-2.89-7.2662,1.4868-4.3765,4.3766l4.2895,4.2894
			c5.584,5.5841,14.8213,4.4873,21.2354-1.927c0.0586-0.0586,12.6313-12.5473,12.6313-12.5473L29.8512,72.2222L17.8077,84.2654z"/>
		<path fill="#ffffff" d="M111.6766,19.5422l-4.8533-4.8534c-1.712-1.7121-4.488-1.7121-6.2-0.0003
			c-0.9287,0.9286-1.3492,2.1701-1.2706,3.3849c-2.9009,0.8925-6.0549,2.6848-8.8367,4.5512
			c-1.937-1.6051-4.2338-2.4787-6.5723-2.4787c-2.253,0-4.4777,0.8158-6.2646,2.2973c-1.6353,1.3559-2.5555,3.1336-3.0733,4.698
			c-1.7167,0.315-3.7946,1.0379-5.6816,2.6244c-1.8753,1.5769-2.9198,3.6278-3.5002,5.3585
			c-1.859,0.3426-4.2134,1.1648-6.5365,3.037c-0.0183,0.0147-0.0365,0.0296-0.0546,0.0448l-10.6516,8.909l-1.2708-1.271
			c-1.3514-1.3509-3.8083-1.6621-5.4708,0L28.4742,58.8096c-1.5106,1.5108-1.5106,3.9601,0,5.4707l33.6104,33.6106
			c1.6176,1.6173,4.0707,1.4002,5.4706,0l12.9656-12.9652c1.5582-1.5583,1.4627-4.0082,0.0001-5.4707l-1.271-1.271
			c0,0,8.9394-10.688,8.9541-10.7063c1.87-2.3202,2.6939-4.6689,3.0371-6.5367c1.7305-0.5802,3.7815-1.625,5.3583-3.5
			c1.5862-1.8864,2.3103-3.9607,2.6255-5.6818c1.5642-0.5179,3.3414-1.4382,4.6971-3.0735c3.1614-3.813,3.0408-8.9483-0.179-12.8327
			c1.188-1.7646,3.4652-5.2558,4.5531-8.8404c1.2136,0.0774,2.4529-0.3432,3.3802-1.2705
			C113.3885,24.0298,113.3886,21.2542,111.6766,19.5422z M97.9662,43.7477c-0.4586,0.5531-1.7589,0.9004-2.5377,0.943
			c-2.4245,0.0216-4.0681,2.0681-3.7247,4.3305c0.0168,0.2425,0.1044,2.0965-1.026,3.4408c-0.8728,1.0379-2.7531,1.4179-3.375,1.474
			c-2.1604,0.1023-3.9266,2.0375-3.5698,4.4303c0.0029,0.0194,0.1831,2.0848-1.5325,4.2312l-8.4428,10.0943L53.6735,52.6072
			l10.0936-8.4422c1.7281-1.3811,3.4197-1.5307,4.0689-1.5307c0.6222,0,1.7679,0.3418,3.1839-0.7522
			c0.8813-0.6809,1.3406-1.7232,1.4101-2.8349c0.0229-0.3682,0.3716-2.4337,1.4731-3.3599
			c1.1109-0.9341,2.5797-1.0348,3.1597-1.0348c1.3104,0,2.047,0.1715,3.2754-0.8501c2.3218-1.9309,0.5834-3.7876,2.2789-5.4034
			c1.0506-1.0011,2.3703-0.4381,3.2744,0.4662l11.6083,11.6084C98.6214,41.595,98.7869,42.7579,97.9662,43.7477z"/>
	</g>
</g>
</svg>
