<?xml version="1.0" encoding="utf-8"?>
<!-- Generator: Adobe Illustrator 18.1.1, SVG Export Plug-In . SVG Version: 6.00 Build 0)  -->
<svg version="1.2" baseProfile="tiny" xmlns="http://www.w3.org/2000/svg" xmlns:xlink="http://www.w3.org/1999/xlink" x="0px"
	 y="0px" width="128px" height="128px" viewBox="0 0 128 128" xml:space="preserve">
<g id="box">
	<rect fill="none" width="128" height="128"/>
</g>
<g id="Production">
	<g>
		<path fill="#ffffff" d="M81.9478,41.9363c-2.1997,0.0063-3.9888,1.8007-3.9935,3.9941c0.0044,2.2036,1.789,3.9888,3.9935,3.9932
			c0.1367-0.001,0.2715-0.0081,0.4046-0.0215c1.8811-0.1924,3.3753-1.6868,3.5672-3.5674c0.0137-0.1328,0.021-0.268,0.0211-0.4043
			C85.9371,43.7263,84.1518,41.9407,81.9478,41.9363z"/>
		<path fill="#ffffff" d="M46.0499,78.0764c-2.2027,0.0047-3.9895,1.7888-3.9932,3.9932c0.0037,2.2036,1.7892,3.9897,3.9932,3.9931
			c2.154-0.0034,3.9035-1.7106,3.9858-3.8447c0.0018-0.0493,0.0076-0.0981,0.0077-0.1484
			C50.0396,79.8655,48.2542,78.0808,46.0499,78.0764z"/>
		<path fill="#ffffff" d="M99.4816,24.6028H71.5449c-9.4489,9.4484-5.8569,5.8564-15.5888,15.5884
			c0.9799,1.6877,1.5437,3.6467,1.5446,5.7392c-0.0026,6.3245-5.1255,11.4475-11.4508,11.45
			c-6.3256-0.0025-11.4479-5.1255-11.4506-11.45c0.0027-6.3249,5.125-11.4482,11.4506-11.4502
			c1.774,0.0005,3.4532,0.4038,4.9516,1.124c4.2227-4.2226,1.2231-1.2231,11.0019-11.0014H28.5182
			c-2.1581,0-3.9156,1.7544-3.9156,3.9155v70.9634c0,2.1559,1.7546,3.9155,3.9156,3.9155h70.0682
			c-6.3887-6.3886-6.5892-6.5891-11.2332-11.2329c-1.61,0.8638-3.4497,1.355-5.4053,1.3555
			c-6.326-0.0022-11.4484-5.1253-11.4509-11.4502c0.0025-6.325,5.1249-11.4483,11.4509-11.45
			c6.3254,0.0017,11.4483,5.125,11.4502,11.45c-0.0007,1.9126-0.4721,3.7134-1.3004,5.2973
			c8.549,8.5506,2.3333,2.3328,11.2997,11.3008V28.5183C103.3974,26.3609,101.6427,24.6028,99.4816,24.6028z M81.9478,57.3804
			c-2.0376-0.0008-3.9488-0.5354-5.6059-1.4683L55.9443,76.3098c0.987,1.6919,1.5554,3.659,1.5562,5.7598
			c-0.0024,6.3249-5.125,11.448-11.4506,11.4502c-6.3261-0.0022-11.4478-5.1253-11.4506-11.4502
			c0.0021-6.325,5.1252-11.4483,11.4506-11.45c1.7656,0.0005,3.437,0.4007,4.9299,1.114l20.7123-20.7121
			c-0.763-1.534-1.1944-3.2615-1.1952-5.0911c0.0026-6.3249,5.1249-11.4482,11.4509-11.4502
			c6.3261,0.002,11.4476,5.1253,11.4503,11.4502C93.3962,52.2549,88.2734,57.3779,81.9478,57.3804z"/>
		<path fill="#ffffff" d="M42.0568,45.9304c0.0037,2.2036,1.789,3.9888,3.9931,3.9932c2.1425-0.0044,3.884-1.6919,3.984-3.8098
			c0.0028-0.0613,0.0093-0.1211,0.0094-0.1834c-0.0038-2.2041-1.7891-3.9897-3.9934-3.9941
			C43.8818,41.9411,42.0605,43.6999,42.0568,45.9304z"/>
		<path fill="#ffffff" d="M81.9479,78.0764c-2.2043,0.0044-3.9893,1.7891-3.9932,3.9932c0.004,2.2225,1.811,3.9891,3.9932,3.9931
			c2.2045-0.0034,3.9893-1.7895,3.9931-3.9931c-0.0004-0.3421-0.0486-0.6719-0.1299-0.989
			C85.3682,79.356,83.81,78.0801,81.9479,78.0764z"/>
	</g>
</g>
</svg>
