<?xml version="1.0" encoding="utf-8"?>

<svg version="1.2" baseProfile="tiny" xmlns="http://www.w3.org/2000/svg" xmlns:xlink="http://www.w3.org/1999/xlink" x="0px"
	 y="0px" width="128px" height="128px" viewBox="0 0 128 128" xml:space="preserve">
<g id="_x31_28px_boxes">
	<rect fill="none" width="128" height="128"/>
</g>
<g id="Production">
	<path fill="#ffffff" d="M99.5442,41.1375c0.2705-1.4373,0.4182-2.9179,0.4182-4.4336c0-13.1625-10.6704-23.8328-23.833-23.8328
		c-7.3911,0-13.9956,3.365-18.3672,8.646c-2.5952-1.7656-5.728-2.7997-9.1038-2.7997c-8.9504,0-16.2063,7.2559-16.2063,16.2064
		c0,0.2085,0.0235,0.411,0.0313,0.6177C24.0271,37.8833,17.811,45.6151,17.811,54.8169c0,11.0564,8.9629,20.0195,20.0196,20.0195
		h15.8838L41.7778,90H60.864l-21.2229,26.812L85.3975,83H66.405l-0.0022,0.0027l0.0022-0.215l20.2539-25.6776l-6.6096,17.7263h14.98
		c9.477,0,17.1597-7.6826,17.1597-17.1596C112.189,49.7649,106.8271,43.1218,99.5442,41.1375z"/>
</g>
</svg>
