<?xml version="1.0" encoding="utf-8"?>
<!-- Generator: Adobe Illustrator 18.1.1, SVG Export Plug-In . SVG Version: 6.00 Build 0)  -->
<svg version="1.2" baseProfile="tiny" xmlns="http://www.w3.org/2000/svg" xmlns:xlink="http://www.w3.org/1999/xlink" x="0px"
	 y="0px" width="128px" height="128px" viewBox="0 0 128 128" xml:space="preserve">
<g id="_x31_28px_boxes">
	<rect fill="none" width="128" height="128"/>
</g>
<g id="Production">
	<g>
		<path fill="#ffffff" d="M94,63.7444V74h-9V63.565c-12,0.3093-18.4062,1.98-22.8757,5.7919
			c-3.5996,3.0804-2.6247,3.1377-14.4686,20.0877l-4.7654-6.78l-15.3948-2.3977l13.1003,27.7363
			c2.5383,5.3136,9.5988,6.0115,13.1857,1.5972l9.8581-13.8474L63.6909,112H119V81.8829C119,65.9319,103,64.3709,94,63.7444z"/>
		<path fill="#ffffff" d="M42.8172,71.6665c-0.2413-0.6355-7.7283-19.2709-8.2566-20.5502
			c-1.6538-4.0036-4.2693-4.9043-6.3631-5.2417c-1.0549-0.1702-5.8625-0.8851-10.0695-1.5076
			c6.2265-3.3352,13.2871-7.1048,14.1992-7.5491c0.6565-0.3194,1.3252-0.0691,1.5747,0.5672
			c0.2077,0.5292,10.372,25.7524,10.372,25.7524c2.4126-1.5039,3.1841-3.803,2.1666-6.5262
			c-0.4129-1.1059-8.1485-20.3576-8.3492-20.8693c-1.3032-3.3229-4.8987-4.3514-7.7343-2.9697
			C28.7339,33.5625,9.9639,43.6414,9.9529,43.6477c-0.8096,0.4634-1.4607,1.5501-0.9763,2.7789l10.6538,26.944
			c0.2651,0.6727,0.9204,1.2573,1.7212,1.3909c0.0046,0.0007,0.0093,0.0025,0.0139,0.0032
			c0.5884,0.0947,14.4341,2.3201,16.5491,2.5974C42.2832,77.9343,44.0784,74.992,42.8172,71.6665z"/>
		<circle fill="#ffffff" cx="89.4204" cy="36.1246" r="20.625"/>
	</g>
</g>
</svg>
