<?xml version="1.0" encoding="utf-8"?>
<!-- Generator: Adobe Illustrator 17.1.0, SVG Export Plug-In . SVG Version: 6.00 Build 0)  -->
<!DOCTYPE svg [
	<!ENTITY ns_flows "http://ns.adobe.com/Flows/1.0/">
	<!ENTITY ns_extend "http://ns.adobe.com/Extensibility/1.0/">
	<!ENTITY ns_ai "http://ns.adobe.com/AdobeIllustrator/10.0/">
	<!ENTITY ns_graphs "http://ns.adobe.com/Graphs/1.0/">
]>
<svg version="1.2" baseProfile="tiny" xmlns:x="&ns_extend;" xmlns:i="&ns_ai;" xmlns:graph="&ns_graphs;"
	 xmlns="http://www.w3.org/2000/svg" xmlns:xlink="http://www.w3.org/1999/xlink" xmlns:a="http://ns.adobe.com/AdobeSVGViewerExtensions/3.0/"
	 x="0px" y="0px" width="128px" height="128px" viewBox="0 0 128 128" xml:space="preserve">
<g id="_x31_28px_boxes">
	<rect fill="none" width="128" height="128"/>
</g>
<g id="Production">
	<path fill="#ffffff" d="M92.3531,21.1523c-1.1282-0.6037-2.5242-0.1869-3.3782,0.7506c-0.854,0.9375-0.875,3,0.2534,4.0708
		c7.7185,7.0711,12.4517,15.9428,13.6978,25.7038c0.0029,0.0236,0.0061,0.0471,0.0095,0.0708
		c1.3787,9.8813-0.3557,18.3999-5.303,26.0429c-9.2585,13.8573-25.4721,18.3232-38.3933,12.3885
		C39.378,79.3966,45.5018,57.2712,57.7149,57.1309c1.6135-0.0186,2.9709,0.4722,4.0615,1.4618
		c-0.0112,0.0028-0.0224,0.0052-0.0339,0.0079C47.7364,62.156,52.7454,86.3461,73.6707,83.343
		c17.3425-2.489,23.646-22.9133,18.0103-37.4545c-5.1875-13.3849-21.3975-23.9927-38.6343-22.065
		c-15.2588,1.7063-29.2515,11.223-36.3999,27.3222c-4.7044,10.5952-4.3521,17.3133-3.9004,23.7564
		c0.8569,12.2282,11.0215,26.4301,23.5791,32.0747c1.0871,0.4676,2.3379-0.2075,2.9204-1.0324
		c0.7085-1.003,0.5417-2.75-0.3208-3.5511C27.1771,91.8546,22.8987,77.4654,25.481,62.9428
		c3.3577-18.8826,27.209-35.6632,47.0671-22.1565c7.2432,6.0375,12.815,16.7269,6.4893,25.5304
		c-2.4502,3.4096-8.6406,8.0824-12.5181,3.6987C80.117,66.12,75.6341,44.685,57.5672,44.8936
		c-10.04,0.1213-18.7241,7.9005-21.5916,15.9723c-6.8662,19.3434,6.906,38.9698,25.8164,43.0655
		c16.7745,3.6317,32.3138-2.9854,41.74-13.8484c6.4898-7.478,10.6087-15.7876,11.6917-26.6568
		C117.146,44.1154,109.0198,30.1498,92.3531,21.1523z"/>
</g>
</svg>
