<?xml version="1.0" encoding="utf-8"?>
<!-- Generator: Adobe Illustrator 19.1.0, SVG Export Plug-In . SVG Version: 6.00 Build 0)  -->
<svg version="1.2" baseProfile="tiny" xmlns="http://www.w3.org/2000/svg" xmlns:xlink="http://www.w3.org/1999/xlink" x="0px"
	 y="0px" width="64px" height="64px" viewBox="0 0 64 64" xml:space="preserve">
<g id="box">
	<rect fill="none" width="64" height="64"/>
</g>
<g id="Production">
	<g>
		<path fill="#ffffff" d="M50,25c0-0.7744-0.3654-1.4719-1-2.0983v-9.4252c0.636-0.5831,1-1.2394,1-1.9765C50,7.7212,40.6694,6,32,6
			s-18,1.7212-18,5.5c0,0.7371,0.364,1.3934,1,1.9765v9.4252c-0.6346,0.6264-1,1.3239-1,2.0983c0,0.7779,0.3643,1.4795,1,2.1095
			v9.1174c-0.6346,0.6786-1,1.4341-1,2.2731c0,0.8427,0.3643,1.6027,1,2.2852v8.809c-0.6338,0.7215-1,1.5216-1,2.4058
			c0,4.5469,9.2739,7,18,7s18-2.4531,18-7c0-0.8843-0.3662-1.6843-1-2.4058v-8.809c0.6357-0.6825,1-1.4426,1-2.2852
			c0-0.8389-0.3654-1.5944-1-2.2731v-9.1174C49.6357,26.4795,50,25.7779,50,25z M32,8c10.3525,0,16,2.312,16,3.5S42.3525,15,32,15
			s-16-2.312-16-3.5S21.6475,8,32,8z M17,14.7126C20.4473,16.2648,26.3555,17,32,17s11.5527-0.7352,15-2.2874v9.0901
			c0.6621,0.4344,1,0.8527,1,1.1973c0,1.396-5.4951,4-16,4s-16-2.604-16-4c0-0.3445,0.3379-0.7629,1-1.1973V14.7126z M47,50.432
			c0.6492,0.5358,1,1.0749,1,1.568c0,2.0879-6.0869,5-16,5s-16-2.9121-16-5c0-0.4931,0.3508-1.0322,1-1.568v-8.1866
			C20.3977,44.0601,26.2141,45,32,45s11.6023-0.9399,15-2.7546V50.432z M47,37.1216c0.6467,0.475,1,0.9494,1,1.3784
			c0,1.835-6.2329,4.5-16,4.5s-16-2.665-16-4.5c0-0.429,0.3533-0.9033,1-1.3784v-8.6643C20.3977,30.1325,26.2141,31,32,31
			s11.6023-0.8675,15-2.5427V37.1216z"/>
		<ellipse fill="#ffffff" cx="38.405" cy="11.5" rx="3.405" ry="1.25"/>
	</g>
</g>
</svg>

