<?xml version="1.0" encoding="utf-8"?>

<svg version="1.2" baseProfile="tiny" xmlns="http://www.w3.org/2000/svg" xmlns:xlink="http://www.w3.org/1999/xlink" x="0px"
	 y="0px" width="64px" height="64px" viewBox="0 0 64 64" xml:space="preserve">

<g id="Production">
	<g>
		<path fill="#ffffff" d="M23.4771,22h17.0005C42.4072,22,44,20.4106,44,18.4809V18h4v5.7887l5-4.9998V13h-9v-1.519
			C44,9.5513,42.4072,8,40.4775,8h-0.7529C37.667,0,26.2917,0,24.23,8h-0.7529C21.5474,8,20,9.5513,20,11.481
			c0,0.0253,0,0.0453,0,0.0696c0,0.7775,0,1.0325,0,1.0234c0,0.1235,0,0.2557,0,0.407c0,5.5783,0,3.3814,0,5.4999
			C20,20.4106,21.5474,22,23.4771,22z M25,13h4.2507c-0.017,0-0.2736-2.83-0.2736-3.0095c0-1.6542,1.3458-3.0047,3.0001-3.0047
			c1.7885,0,3.156,1.5662,2.9854,3.2717L34.7039,13H39v4H25V13z"/>
		<path fill="#ffffff" d="M56.2159,21.2133c-4.6566,4.6563-19.2433,19.2391-24.0114,24.0066l-9.2604-11.7841l-3.9325,3.0898
			l12.7524,16.2156L48,36.5163V57H16c0-9,0-35,0-44h-5v49h42V31.5162l6.7567-6.7678C57.9314,22.9232,58.7017,23.699,56.2159,21.2133
			z"/>
	</g>
</g>
</svg>
