<?xml version="1.0" encoding="utf-8"?>
<!-- Generator: Adobe Illustrator 17.1.0, SVG Export Plug-In . SVG Version: 6.00 Build 0)  -->
<!DOCTYPE svg [
	<!ENTITY ns_flows "http://ns.adobe.com/Flows/1.0/">
	<!ENTITY ns_extend "http://ns.adobe.com/Extensibility/1.0/">
	<!ENTITY ns_ai "http://ns.adobe.com/AdobeIllustrator/10.0/">
	<!ENTITY ns_graphs "http://ns.adobe.com/Graphs/1.0/">
]>
<svg version="1.2" baseProfile="tiny" xmlns:x="&ns_extend;" xmlns:i="&ns_ai;" xmlns:graph="&ns_graphs;"
	 xmlns="http://www.w3.org/2000/svg" xmlns:xlink="http://www.w3.org/1999/xlink" xmlns:a="http://ns.adobe.com/AdobeSVGViewerExtensions/3.0/"
	 x="0px" y="0px" width="128px" height="128px" viewBox="0 0 128 128" xml:space="preserve">
<g id="_x31_28px_boxes">
	<rect fill="none" width="128" height="128"/>
</g>
<g id="Production">
	<g>
		<path fill="#ffffff" d="M42.54,83.5444c4.5039,4.9793,11.1728,7.8725,18.2971,7.8725h0.0867h0.0007
			c7.1045,0,13.769-2.8409,18.2842-7.7881c6.7165-7.3598,7.9948-18.0453,0.6438-28.9505
			c-3.222-4.7832-9.606-11.8645-16.4619-24.4846c-0.0035-0.0066-0.0076-0.0138-0.0118-0.0218
			c-0.9641-1.7801-3.789-1.7755-4.737,0.0191l-0.0139,0.0263C52.8398,41.0902,44.9418,50.2598,42.019,54.563
			C34.652,65.3984,35.831,76.1277,42.54,83.5444z M48.2446,59.0441c3.0366-4.4858,6.6923-8.1131,12.7602-18.0022
			c4.3169,7.1213,7.2402,10.8886,9.1533,13.3921c3.7398,4.894,6.5957,8.59,6.9742,13.9895
			c0.4155,5.847-3.2566,11.5104-9.4505,13.9732c-3.2952,1.3103-6.5286,1.2877-6.5286,1.2877
			c4.202-2.7725,6.1397-7.9065,6.1563-13.6815c0.0173-5.8971-5.0735-16.996-6.5198-20.0293
			c-4.957,8.0588-7.8213,10.8541-10.3213,14.5487c-4.3547,6.4297-3.5307,12.1573,0.3521,16.0821
			C44.3339,76.0627,42.1703,68.011,48.2446,59.0441z"/>
		<path fill="#ffffff" d="M115.9965,48.7342l-4.4746,1.0574c-2.7642-11.1191-9.2177-21.1011-18.2239-28.1579
			C82.3666,13.069,67.7133,8.7821,52.6794,11.3882L49.4645,22.607c22.5948-6.8221,46.334,6.4166,52.1363,29.5292l-4.4234,1.0454
			c-1.2799,0.3024-1.7765,1.862-0.909,2.8487l13.5875,15.4541c0.9159,1.0417,2.6394,0.6504,2.9971-0.7082l5.2316-19.9013
			C118.4186,49.6044,117.2765,48.4315,115.9965,48.7342z"/>
		<path fill="#ffffff" d="M21.1664,71.7499c-3.4797-14.7246,1.4165-29.4998,11.5786-39.3225l3.3221,3.5258
			c0.9021,0.958,2.5012,0.6067,2.9216-0.6369l6.5898-19.495c0.4473-1.3221-0.768-2.6085-2.1113-2.2409l-19.8513,5.42
			c-1.2654,0.3457-1.7131,1.9202-0.8098,2.8781l2.9458,3.1267C13.0312,37.2457,6.8996,55.7045,11.2453,74.0944
			c1.8166,7.687,5.3974,14.8469,10.3647,20.8983l11.2185-2.799C27.2052,86.8102,23.0683,79.7991,21.1664,71.7499z"/>
		<path fill="#ffffff" d="M70.975,102.517c-6.9302,1.6369-14.0908,1.4677-20.8335-0.4313l1.3452-4.4818
			c0.377-1.2589-0.7233-2.4685-2.0131-2.2119l-20.178,4.0404c-1.3631,0.2729-1.8782,1.9653-0.8848,2.9494L43.03,116.8644
			c0.9397,0.9294,2.5222,0.514,2.8977-0.7384l1.2946-4.3136c8.6858,2.5062,17.5899,2.6364,26.097,0.6255
			c17.5056-4.1354,30.8867-16.7034,36.6921-32.735l-8.1409-8.427C98.5762,85.9365,87.2316,98.6752,70.975,102.517z"/>
	</g>
</g>
</svg>
