<?xml version="1.0" encoding="utf-8"?>
<!-- Generator: Adobe Illustrator 18.1.1, SVG Export Plug-In . SVG Version: 6.00 Build 0)  -->
<svg version="1.2" baseProfile="tiny" xmlns="http://www.w3.org/2000/svg" xmlns:xlink="http://www.w3.org/1999/xlink" x="0px"
	 y="0px" width="128px" height="128px" viewBox="0 0 128 128" xml:space="preserve">
<g id="_x31_28px_boxes">
	<rect fill="none" width="128" height="128"/>
</g>
<g id="Production">
	<path fill="#ffffff" d="M109.7304,57.8619c-3.3926-25.2748-26.5907-42.9859-51.8696-39.5927
		c-25.2745,3.3921-42.9856,26.5913-39.5926,51.8694c3.3921,25.2702,26.588,42.9851,51.8697,39.5924
		c0.0593-0.0082,0.1186-0.0174,0.1777-0.0285c11.6819-2.1531,15.72-8.7118,17.0874-12.4297
		c1.4836-4.0342,1.167-8.4604-0.7507-11.7213c0.0537-0.0516,0.1096-0.1007,0.1623-0.1534c2.4192-2.4196,3.7124-5.8577,3.7398-9.9428
		c0.0024-0.3666-0.1966-0.7047-0.5179-0.881l-14.8527-8.143c-0.3887-0.2129-0.8711-0.1438-1.1846,0.1692l-6.4734,6.4737
		c-0.2693,0.2692-0.7063,0.3234-1.0337,0.1244c-4.8981-2.9737-9.4126-7.3722-12.5674-12.5669
		c-0.2024-0.3332-0.1511-0.7585,0.1245-1.0339l6.4734-6.4733c0.3135-0.3138,0.3823-0.7959,0.1695-1.1849L52.549,37.0869
		c-0.176-0.3214-0.5083-0.5138-0.8811-0.5179c-4.0852,0.0279-7.5232,1.3208-9.9422,3.74c-3.664,3.664-4.6835,9.4754-2.8708,16.3635
		c4.406,16.7433,23.2649,32.4654,37.8831,32.4658c1.1355,0,2.2192-0.1006,3.248-0.2917c0.0156,0.0199,0.0283,0.0407,0.0444,0.0605
		c0.8597,1.0548,1.367,3.3259,0.4497,5.8196c-0.8222,2.2361-3.3986,6.2029-11.4135,7.7056
		c-21.2137,2.7988-40.6432-12.0815-43.4878-33.275c-2.8506-21.2344,12.0261-40.7275,33.2634-43.5778
		c21.2327-2.8507,40.7271,12.0251,43.5776,33.2639c1.2146,9.0437-0.6716,18.3647-6.2776,26.8323
		c-1.1242,1.6983-0.6591,3.9865,1.0394,5.1109c1.6977,1.1244,3.9863,0.6593,5.111-1.0392
		C108.8356,79.8649,111.194,68.7608,109.7304,57.8619z"/>
</g>
</svg>
