<?xml version="1.0" encoding="utf-8"?>
<!-- Generator: Adobe Illustrator 18.1.1, SVG Export Plug-In . SVG Version: 6.00 Build 0)  -->
<svg version="1.2" baseProfile="tiny" xmlns="http://www.w3.org/2000/svg" xmlns:xlink="http://www.w3.org/1999/xlink" x="0px"
	 y="0px" width="128px" height="128px" viewBox="0 0 128 128" xml:space="preserve">
<g id="_x31_28px_boxes">
	<rect fill="none" width="128" height="128"/>
</g>
<g id="Production">
	<g>
		<path fill="#ffffff" d="M80.3552,99.0719c-1.0721-0.5984-14.8327-8.135-16.06-8.8047c-1.2273-0.6695-2.6046-0.4473-3.4751,0.4236
			c-0.8712,0.8711-5.5475,5.5478-5.5475,5.5478c-1.9807,1.9812-3.7102,2.6975-6.0571,1.1653
			c-5.9506-3.8856-11.2467-9.1776-15.1387-15.1387c-1.5322-2.3467-0.8156-4.0764,1.1656-6.0571c0,0,4.6762-4.6763,5.5476-5.5474
			c0.8708-0.8711,1.0931-2.2478,0.4236-3.4751s-8.2066-14.988-8.8047-16.06c-0.5982-1.0718-1.8488-2.0244-3.2525-1.856
			c-4.1538,0.4983-7.562,1.8467-10.2563,4.5415c-9.4666,9.4671-3.9445,30.3377,12.2436,46.5259
			c16.1883,16.1882,37.0591,21.7102,46.5259,12.2439c2.6948-2.6948,4.0432-6.1028,4.5418-10.2568
			C82.3798,100.9207,81.4269,99.67,80.3552,99.0719z"/>
		<path fill="#ffffff" d="M80.5684,10.7887c-18.3153,0-33.1622,14.8471-33.1622,33.1621c0,9.3286,3.8536,17.7561,10.0538,23.7817
			c-1.3846,2.842-3.9303,5.8777-6.462,7.1685c-1.9315,1.0019-0.8414,3.4543,1.3962,3.2419c0,0,7.1234-0.662,14.6211-3.918
			c4.1377,1.855,8.7246,2.888,13.5531,2.888c18.3148,0,33.1621-14.8474,33.1621-33.1621
			C113.7305,25.6358,98.8832,10.7887,80.5684,10.7887z M93.361,45.4054c-3.7998,8.208-10.8135,13.1018-12.7715,13.1018
			s-8.9721-4.8938-12.7722-13.1018c-5.1327-11.087,4.0091-15.3827,9.0047-11.8608c3.0363,2.1408,3.7675,5.3099,3.7675,5.3099
			s0.7306-3.1691,3.7669-5.3099C89.3522,30.0227,98.4938,34.3184,93.361,45.4054z"/>
	</g>
</g>
</svg>
