<?xml version="1.0" encoding="utf-8"?>

<svg version="1.2" baseProfile="tiny" xmlns="http://www.w3.org/2000/svg" xmlns:xlink="http://www.w3.org/1999/xlink" x="0px"
	 y="0px" width="64px" height="64px" viewBox="0 0 64 64" xml:space="preserve">

<g id="Production">
	<g>
		<polygon fill="#ffffff" points="34,43 34,28.0276 39.5961,22.3968 36.0433,18.8616 31.4388,23.4573 26.8386,18.8616 
			23.3361,22.3968 29,28.0276 29,43 		"/>
		<path fill="#ffffff" d="M31.5005,3.0046c-12.6962,0-19.2706,8.4566-18.3686,18.0972c0.5937,6.3659,2.9219,9.0508,5.017,11.8533
			C20.3881,35.7586,20.0351,36,20.0351,43h4.9529c0-9,0.2888-8.555-3.2915-13.6101c-5.0158-6.4446-4.4607-13.5355-0.8322-17.5357
			c4.7048-5.1889,16.5637-5.1968,21.2736-0.002c3.6346,4.0071,4.1924,11.1098-0.8113,17.5372C37.596,34.1223,38.0234,35,38.0234,43
			h4.9329c0-7-0.3525-7.2491,1.927-10.1268C55.2976,19.4791,49.0837,3.0046,31.5005,3.0046z"/>
		<rect x="20" y="47" fill="#ffffff" width="23" height="5"/>
		<rect x="25" y="56" fill="#ffffff" width="13" height="5"/>
	</g>
</g>
</svg>
