<?xml version="1.0" encoding="utf-8"?>

<svg version="1.2" baseProfile="tiny" xmlns="http://www.w3.org/2000/svg" xmlns:xlink="http://www.w3.org/1999/xlink" x="0px"
	 y="0px" width="128px" height="128px" viewBox="0 0 128 128" xml:space="preserve">
<g id="_x31_28px_boxes">
	<rect fill="none" width="128" height="128"/>
</g>
<g id="Production">
	<g>
		<path fill="#ffffff" d="M42.5,34.5c-1.9331,0-3.5,1.5674-3.5,3.5c0,10.296,0,11.6792,0,22c0,4.2464-5.1643,5.5-9.5,5.5
			c-4.4588,0-9.5-1.4174-9.5-5.5c0-10.3213,0-11.701,0-22c0-1.9326-1.5669-3.5-3.5-3.5S13,36.0674,13,38
			c0,7.6066,0,60.7558,0,66.4004c0,4.2715,3.4751,11.5,16.5,11.5s16.5-7.2285,16.5-11.5C46,98.7555,46,45.6081,46,38
			C46,36.0674,44.4331,34.5,42.5,34.5z"/>
		<path fill="#ffffff" d="M115.3799,72.3447c-2.2536-7.3601-11.3709-37.4717-12.4496-41.0356
			c-0.4083-2.0407-2.5814-3.2683-4.4728-2.6948c-1.524,0.4609-2.4858,1.8701-2.4702,3.3857
			c0.0012,0.1191-0.001,0.2371,0.0127,0.3569V51.875c0,3.7617-2.2286,5.4124-5.9585,5.9053C86.717,58.2224,84,56.9281,84,54V32
			c0-1.9326-1.5669-3.5-3.5-3.5c-1.813,0-3.2864,1.3838-3.4646,3.1494H77V12c0-1.9326-1.5669-3.5-3.5-3.5S70,10.0674,70,12
			c0,37.9598,0,17.0084,0,24c0,4.6877-12,4.6456-12,0c0-6.7647,0,11.7783,0-24c0-1.9326-1.5669-3.5-3.5-3.5S51,10.0674,51,12
			c0,11.8663,0,81.3147,0,92.4004c0,5.5391,4.0684,11.5,13,11.5s13-5.9609,13-11.5V65.8843l13.1978,42.144
			c1.1372,3.6328,4.7036,7.874,11.0102,7.875c0,0,0.0005,0,0.001,0c4.1417,0,10.4555-2.068,13.313-7.1719
			c1.9091-3.4099,1.4472-3.3634,1.4472-32.4423C115.9692,74.9482,115.771,73.6211,115.3799,72.3447z"/>
	</g>
</g>
</svg>
