<?xml version="1.0" encoding="utf-8"?>
<!-- Generator: Adobe Illustrator 18.1.1, SVG Export Plug-In . SVG Version: 6.00 Build 0)  -->
<svg version="1.2" baseProfile="tiny" xmlns="http://www.w3.org/2000/svg" xmlns:xlink="http://www.w3.org/1999/xlink" x="0px"
	 y="0px" width="128px" height="128px" viewBox="0 0 128 128" xml:space="preserve">
<g id="_x31_28px_boxes">
	<rect fill="none" width="128" height="128"/>
</g>
<g id="Production">
	<g>
		<path fill="#ffffff" d="M118.4837,41.1484l-12.9766-22.4793c-2.2114-3.8313-6.7715-4.3967-9.8262-2.6335L75.3074,27.7965
			c-6.9173,3.9932-15.1228,4.2564-22.4973,0L32.436,16.0356c-3.355-1.9366-7.802-0.8723-9.8262,2.6335L9.6338,41.1484
			c-1.9854,3.4377-0.8068,7.8401,2.6338,9.8261l14.8408,8.5667c0.0014,0.001,5.5317,3.1931,5.5317,3.1931
			c7.2886,4.2073,11.2476,10.4717,11.2476,19.4797v23.5142c0,3.9727,3.2207,7.1933,7.1933,7.1933h25.9559
			c3.9726,0,7.1933-3.2206,7.1933-7.1933V82.214c0-7.6057,3.959-15.2724,11.2476-19.48l20.372-11.7595
			C119.196,49.0429,120.2505,44.2094,118.4837,41.1484z M29.4075,50.9203l-8.7178-5.0112
			c-2.5774-1.4817-0.3386-5.3843,2.2427-3.9014l8.7178,5.0113C34.2103,48.4909,32.0011,52.4112,29.4075,50.9203z M35.6199,44.0356
			l-12.1074-6.9597c-2.5772-1.4816-0.3392-5.3842,2.2426-3.9014l12.1075,6.9597C40.44,41.6161,38.2004,45.5182,35.6199,44.0356z
			 M38.4421,35.2023l-8.7173-5.0107c-2.5774-1.4812-0.3383-5.3843,2.2427-3.9014l8.7173,5.0107
			C43.262,32.782,41.0235,36.685,38.4421,35.2023z M54.3638,105.3605c-1.6851,0-3.0562-1.3711-3.0562-3.0564
			s1.3711-3.0564,3.0562-3.0564c1.6855,0,3.0566,1.3711,3.0566,3.0564S56.0493,105.3605,54.3638,105.3605z M54.3638,96.1762
			c-1.6851,0-3.0562-1.3711-3.0562-3.0564c0-1.6856,1.3711-3.0566,3.0562-3.0566c1.6855,0,3.0566,1.371,3.0566,3.0566
			C57.4204,94.8051,56.0493,96.1762,54.3638,96.1762z M54.3638,86.9921c-1.6851,0-3.0562-1.3711-3.0562-3.0566
			c0-1.6853,1.3711-3.0564,3.0562-3.0564c1.6855,0,3.0566,1.3711,3.0566,3.0564C57.4204,85.621,56.0493,86.9921,54.3638,86.9921z
			 M53.2085,50.4077c3.4448-5.9923,11.0945-8.0572,17.0872-4.6129c5.9921,3.4444,8.0571,11.0945,4.6132,17.087
			c-3.4453,5.9922-11.0952,8.0576-17.0876,4.6125C51.8296,64.0502,49.7641,56.3998,53.2085,50.4077z M64.0583,105.3605
			c-1.685,0-3.0561-1.3711-3.0561-3.0564s1.3711-3.0564,3.0561-3.0564c1.6856,0,3.0567,1.3711,3.0567,3.0564
			S65.7439,105.3605,64.0583,105.3605z M64.0583,96.1762c-1.685,0-3.0561-1.3711-3.0561-3.0564
			c0-1.6856,1.3711-3.0566,3.0561-3.0566c1.6856,0,3.0567,1.371,3.0567,3.0566C67.115,94.8051,65.7439,96.1762,64.0583,96.1762z
			 M64.0583,86.9921c-1.685,0-3.0561-1.3711-3.0561-3.0566c0-1.6853,1.3711-3.0564,3.0561-3.0564
			c1.6856,0,3.0567,1.3711,3.0567,3.0564C67.115,85.621,65.7439,86.9921,64.0583,86.9921z M73.7532,105.3605
			c-1.6856,0-3.0567-1.3711-3.0567-3.0564s1.3711-3.0564,3.0567-3.0564c1.6855,0,3.0566,1.3711,3.0566,3.0564
			S75.4387,105.3605,73.7532,105.3605z M73.7532,96.1762c-1.6856,0-3.0567-1.3711-3.0567-3.0564
			c0-1.6856,1.3711-3.0566,3.0567-3.0566c1.6855,0,3.0566,1.371,3.0566,3.0566C76.8098,94.8051,75.4387,96.1762,73.7532,96.1762z
			 M73.7532,86.9921c-1.6856,0-3.0567-1.3711-3.0567-3.0566c0-1.6853,1.3711-3.0564,3.0567-3.0564
			c1.6855,0,3.0566,1.3711,3.0566,3.0564C76.8098,85.621,75.4387,86.9921,73.7532,86.9921z M87.4321,31.3009l8.7173-5.0107
			c2.5798-1.4823,4.8209,2.4199,2.2427,3.9014l-8.7173,5.0107C87.0959,36.6839,84.8522,32.7836,87.4321,31.3009z M90.2544,40.1342
			l12.1074-6.9597c2.5765-1.4818,4.8239,2.4174,2.2427,3.9014l-12.1074,6.9597C89.9015,45.5276,87.6936,41.6063,90.2544,40.1342z
			 M107.4272,45.9091l-8.7177,5.0112c-2.5785,1.4817-4.8224-2.4183-2.2427-3.9013l8.7178-5.0113
			C107.7621,40.527,110.0087,44.4249,107.4272,45.9091z"/>
	</g>
</g>
</svg>
