<?xml version="1.0" encoding="utf-8"?>
<!-- Generator: Adobe Illustrator 18.1.1, SVG Export Plug-In . SVG Version: 6.00 Build 0)  -->
<svg version="1.2" baseProfile="tiny" xmlns="http://www.w3.org/2000/svg" xmlns:xlink="http://www.w3.org/1999/xlink" x="0px"
	 y="0px" width="128px" height="128px" viewBox="0 0 128 128" xml:space="preserve">
<g id="box">
	<rect fill="none" width="128" height="128"/>
</g>
<g id="Production">
	<g>
		<path fill="#ffffff" d="M23.4185,64.801c-4.178,0.005-7.5577,3.3883-7.5596,7.5596v5.0518
			c1.6655-1.6172,3.8931-2.7129,6.3374-2.9888v-2.063c0.0015-0.6738,0.5481-1.221,1.2222-1.2219h8.1171v-6.3372l-7.6279-0.0005
			H23.4185z"/>
		<path fill="#ffffff" d="M15.8591,46.6167v5.0515c1.6653-1.6172,3.8933-2.7134,6.3372-2.9888v-2.0627
			c0.0017-0.6736,0.5481-1.2202,1.2217-1.2217h8.1176v-6.3376H23.418C19.2427,39.0591,15.8606,42.4404,15.8591,46.6167z"/>
		<path fill="#ffffff" d="M15.8589,59.489v5.0513c1.6655-1.6172,3.8935-2.7129,6.3374-2.9888V59.489
			c0.0015-0.6736,0.5481-1.2209,1.2226-1.2219h8.1167v-6.3374h-8.1167C19.2302,51.9297,15.8604,55.3282,15.8589,59.489z"/>
		<path fill="#ffffff" d="M86.9409,23.0815c0-1.9948-1.6174-3.612-3.6118-3.612c-1.9946,0-3.6116,1.6172-3.6116,3.612v5.6365h7.2234
			V23.0815z"/>
		<path fill="#ffffff" d="M73.7617,23.0808c0-1.9949-1.6172-3.6113-3.6113-3.6113c-1.9951,0-3.6116,1.6164-3.6116,3.6113v5.6372
			h7.2229V23.0808z"/>
		<path fill="#ffffff" d="M40.1816,104.9197c0,1.9941,1.6175,3.6113,3.6119,3.6113c1.9948,0,3.6113-1.6172,3.6113-3.6113V93.3525
			h-7.2232V104.9197z"/>
		<path fill="#ffffff" d="M60.5833,23.0815c0-1.9956-1.617-3.6125-3.6114-3.6125c-1.9948,0-3.6118,1.6169-3.6118,3.6125v5.6365
			h7.2232V23.0815z"/>
		<path fill="#ffffff" d="M15.8584,85.2322v2.5151c0,1.7507,1.4192,3.1694,3.1692,3.1694c1.7497,0,3.1689-1.4187,3.1689-3.1694
			v-2.5151c0.0013-0.6724,0.5481-1.2197,1.222-1.2217h8.1171v-6.3369h-8.1171C19.2773,77.6736,15.8618,81.0276,15.8584,85.2322z"/>
		<path fill="#ffffff" d="M47.4048,23.0808c0-1.9941-1.6172-3.6113-3.6113-3.6113c-1.9949,0-3.6116,1.6172-3.6116,3.6113v5.6372
			h7.2229V23.0808z"/>
		<path fill="#ffffff" d="M104.5815,51.929h-8.4108v6.3381h8.4108c0.6746,0.001,1.2207,0.5483,1.2222,1.2214v2.063
			c2.4439,0.2754,4.6719,1.3716,6.3379,2.9888v-5.0518C112.1404,55.3381,108.7856,51.9363,104.5815,51.929z"/>
		<path fill="#ffffff" d="M104.5815,64.8015h-8.4108v6.3377h8.4108c0.6746,0.0012,1.2207,0.5481,1.2222,1.2214v2.0625
			c2.4439,0.2759,4.6712,1.3716,6.3379,2.9885v-5.051C112.1404,68.1709,108.7358,64.8015,104.5815,64.8015z"/>
		<path fill="#ffffff" d="M104.5815,39.0569h-8.4108v6.3381h8.4108c0.6746,0.001,1.2207,0.5481,1.2222,1.2222v2.0622
			c2.4439,0.2754,4.6719,1.3716,6.3379,2.9888v-5.051C112.1394,42.4399,108.7578,39.0591,104.5815,39.0569z"/>
		<path fill="#ffffff" d="M53.3601,104.9197c0,1.9941,1.617,3.6113,3.6116,3.6113c1.9946,0,3.6116-1.6172,3.6116-3.6113V93.3525
			h-7.2232V104.9197z"/>
		<path fill="#ffffff" d="M104.5815,77.6726h-8.4108v6.3386l8.4108-0.0007c0.6746,0.002,1.2207,0.5493,1.2222,1.2217v2.5158
			c0,1.75,1.4192,3.1687,3.1692,3.1687s3.1687-1.4187,3.1687-3.1687v-2.5158C112.1404,81.048,108.7466,77.6774,104.5815,77.6726z"/>
		<path fill="#ffffff" d="M88.6433,32.6409H39.0627c-2.0007-0.001-3.6086,1.6272-3.6035,3.5874v49.6142
			c-0.0046,1.9549,1.5945,3.588,3.6035,3.5869H88.646c2.0352,0,3.6045-1.6652,3.6011-3.5869V36.2283
			C92.252,34.2845,90.6616,32.6409,88.6433,32.6409z M77.1045,74.1086H50.7073V47.8379h26.3972V74.1086z"/>
		<path fill="#ffffff" d="M66.5388,104.9197c0,1.9941,1.616,3.6113,3.6113,3.6113c1.9944,0,3.6119-1.6172,3.6119-3.6113V93.3525
			h-7.2232V104.9197z"/>
		<path fill="#ffffff" d="M79.7168,104.9197c0,1.9941,1.6174,3.6113,3.6121,3.6113c1.9946,0,3.6115-1.6172,3.6115-3.6113V93.3525
			h-7.2236V104.9197z"/>
	</g>
</g>
</svg>
