<?xml version="1.0" encoding="utf-8"?>
<!-- Generator: Adobe Illustrator 18.1.1, SVG Export Plug-In . SVG Version: 6.00 Build 0)  -->
<svg version="1.2" baseProfile="tiny" xmlns="http://www.w3.org/2000/svg" xmlns:xlink="http://www.w3.org/1999/xlink" x="0px"
	 y="0px" width="128px" height="128px" viewBox="0 0 128 128" xml:space="preserve">
<g id="box">
	<rect fill="none" width="128" height="128"/>
</g>
<g id="Production">
	<g>
		<path fill="#ffffff" d="M38.6378,59.0643c-1.4383,1.4436-2.3071,3.1814-2.3372,5.0557l-0.0518,0.0515l-2.7483-4.1567l8.4033-8.398
			l-3.9171-3.9167L26.0233,59.6634l8.8664,12.5601l4.1867-4.1868c-0.4087-1.874,0.2696-3.154,1.5772-4.4563
			c1.9039-1.904,4.2709-1.716,6.1178,0.1336c1.8441,1.8496,1.6832,4.4043-0.109,6.197c-1.3864,1.3916-3.8898,2.1487-5.4097,0.6809
			l-4.6224,4.6196c4.8103,4.271,9.648,2.585,13.7829-1.5498c4.4047-4.4048,5.4396-10.1113,0.7628-14.7854
			C47.2316,54.9347,42.5276,55.1744,38.6378,59.0643z"/>
		<path fill="#ffffff" d="M66.3945,38.5968c-14.223-14.2445-37.333-14.2309-51.5473,0c-14.1237,14.1179-14.358,37.1922,0,51.5447
			c14.1949,14.2,37.2796,14.264,51.5473,0.008l23.066-23.0634c1.4912-1.4855,1.5028-3.9208,0-5.4178L66.3945,38.5968z
			 M55.5913,79.3463c-8.3323,8.3298-21.8348,8.3298-30.1645,0c-8.3323-8.3296-8.3323-21.8347,0-30.1645
			c8.3325-8.3294,21.8349-8.3294,30.1645,0C63.9238,57.5116,63.921,71.0167,55.5913,79.3463z"/>
		<polygon fill="#ffffff" points="108.7675,27.1835 86.1807,49.7594 93.6444,57.2118 108.7675,42.0968 116.3783,49.7074 
			123.8336,42.2467 		"/>
	</g>
</g>
</svg>
