<?xml version="1.0" encoding="utf-8"?>
<!-- Generator: Adobe Illustrator 18.1.1, SVG Export Plug-In . SVG Version: 6.00 Build 0)  -->
<svg version="1.2" baseProfile="tiny" xmlns="http://www.w3.org/2000/svg" xmlns:xlink="http://www.w3.org/1999/xlink" x="0px"
	 y="0px" width="128px" height="128px" viewBox="0 0 128 128" xml:space="preserve">
<g id="_x31_28px_boxes">
	<rect fill="none" width="128" height="128"/>
</g>
<g id="Production">
	<g>
		<path fill="#ffffff" d="M48.1302,53.5904l21.1851-17.5031c1.5632,0.8443,3.3979,1.2,5.2548,0.9264L88.491,60.7073l7.7439,1.3653
			L79.8001,34.1009c0.9341-1.1043,1.5991-2.4612,1.8682-3.9883c0.8115-4.6015-2.2612-8.9891-6.8621-9.8008
			c-4.6023-0.8115-8.99,2.2614-9.8015,6.8629c-0.2693,1.5271-0.1086,3.0297,0.3916,4.3871L40.3866,52.225L48.1302,53.5904z"/>
		<path fill="#ffffff" d="M101.7474,67.6028L33.3145,55.536c-5.8064-1.0234-11.3425,2.8535-12.3659,8.6586l-3.3548,19.0269
			c-1.0241,5.8062,2.8523,11.3423,8.6582,12.3662l68.4334,12.0665c5.8056,1.0238,11.3418-2.8526,12.3657-8.6583l3.3552-19.0267
			C111.43,74.1634,107.5531,68.6263,101.7474,67.6028z M37.9837,74.9969c-0.8227-1.3228-1.7104-2.0483-2.9512-2.2671
			c-2.2258-0.3921-4.0017,1.0411-4.4218,3.4244c-0.3821,2.1665,0.7663,4.1767,3.0117,4.5722
			c1.2407,0.2187,2.3227-0.1587,3.5486-1.1206l-0.7398,4.1953c-1.3254,0.376-2.5395,0.4663-3.8003,0.2441
			c-4.1557-0.7328-6.5976-4.3925-5.8474-8.6468c0.7503-4.2544,4.2964-6.8584,8.4522-6.1256
			c1.2607,0.2221,2.3708,0.7227,3.4878,1.5288L37.9837,74.9969z M47.3968,86.2831l-8.6074-1.5177l2.4831-14.0834l3.8409,0.6772
			l-1.9031,10.7939l4.7666,0.841L47.3968,86.2831z M61.2816,86.8832c-1.6846,1.1449-3.7503,1.5727-5.72,1.2255
			c-1.7136-0.3021-3.3196-1.2147-4.4875-2.538c-1.5228-1.7305-2.1336-3.9097-1.7344-6.1748
			c0.3545-2.0094,1.4421-3.6861,3.1264-4.8306c1.6614-1.129,3.7305-1.5767,5.7002-1.2291c1.9698,0.3472,3.7808,1.4791,4.9558,3.1081
			c1.1912,1.6517,1.6167,3.6156,1.2659,5.6048C64.0338,84.0584,62.9427,85.7547,61.2816,86.8832z M72.0902,81.5794
			c2.3835,1.1109,3.5991,2.2798,3.1406,4.8794c-0.5176,2.9352-2.9631,4.5957-6.2722,4.0122
			c-1.9893-0.3505-3.375-1.2451-4.6382-2.9501l2.2371-2.5509c0.8967,1.4786,1.8852,2.3228,3.008,2.5205
			c1.0635,0.188,1.864-0.3208,2.0098-1.1479c0.198-1.1226-0.511-1.5933-2.0337-2.2881c-2.4226-1.1177-3.4829-2.3608-3.094-4.5669
			c0.4619-2.6196,2.7163-4.2324,5.6709-3.7114c1.5757,0.2779,2.8816,0.9347,3.9534,1.9966l-1.6878,2.5459
			c-0.7544-0.9048-1.6338-1.4458-2.5005-1.5987c-0.9453-0.1665-1.6462,0.2378-1.7641,0.9074
			C69.9422,80.6321,70.869,81.019,72.0902,81.5794z M87.0387,81.9407l-4.8848-0.8613l-0.4307,2.4424l4.6089,0.8125l-0.5312,3.0138
			l-4.6092-0.8131l-0.4201,2.3833l4.8847,0.8613l-0.5556,3.152L76.4735,91.41l2.4834-14.083l8.6269,1.5211L87.0387,81.9407z
			 M101.6168,88.5931c-0.4412,2.5014-1.7302,4.2851-3.7254,5.2329c-1.9719,0.9316-3.9355,0.667-6.2795,0.2534
			c-0.3152-0.0557-0.6502-0.1146-0.9849-0.1733l-2.9348-0.5176l2.4832-14.0835l2.9348,0.5176
			c0.1577,0.0278,0.2954,0.0523,0.4531,0.0801c2.6196,0.4619,4.7202,0.873,6.3425,2.4996
			C101.4598,83.9554,102.0614,86.0721,101.6168,88.5931z"/>
		<path fill="#ffffff" d="M57.5933,76.5862c-2.1667-0.3822-4.0063,1.1822-4.4128,3.487c-0.4097,2.3241,0.7087,4.3895,2.9541,4.7855
			c2.1863,0.3854,4.0063-1.1821,4.4126-3.4868C60.95,79.0873,59.7401,76.9648,57.5933,76.5862z"/>
		<path fill="#ffffff" d="M94.0714,83.2416l-0.6502-0.1148l-1.3718,7.7802l0.6501,0.1148c2.9346,0.5176,4.531-0.3584,5.0171-3.1162
			C98.2098,85.1087,96.9666,83.7518,94.0714,83.2416z"/>
	</g>
</g>
</svg>
