<?xml version="1.0" encoding="utf-8"?>
<!-- Generator: Adobe Illustrator 18.1.1, SVG Export Plug-In . SVG Version: 6.00 Build 0)  -->
<svg version="1.2" baseProfile="tiny" xmlns="http://www.w3.org/2000/svg" xmlns:xlink="http://www.w3.org/1999/xlink" x="0px"
	 y="0px" width="128px" height="128px" viewBox="0 0 128 128" xml:space="preserve">
<g id="_x31_28px_boxes">
	<rect fill="none" width="128" height="128"/>
</g>
<g id="Production">
	<g>
		<path fill="#ffffff" d="M15.8756,88.9602c0,1.157,0.949,2.0649,2.0671,2.0649h6.4529c1.1355,0,2.0674-0.9227,2.0674-2.0649v-8.062
			H15.8756V88.9602z"/>
		<path fill="#ffffff" d="M50.1832,23.3739c0.2271-1.0733,1.7976-2.2354,2.9095-2.2354c0.0336,0,0.0676,0,0.1003,0.0037h25.2607
			c1.1143-0.0706,2.7513,1.1122,2.9878,2.2059l3.2815,10.491H66.6932c1.3184,1.4465,2.3455,3.1777,2.9734,5.1164l0.0142,0.0453
			l1.1658,3.7334l24.2526,0.0009c-0.092-1.6795-0.3344-3.3009-0.7688-4.7276c-0.2915-0.9312-0.6496-1.794-1.2602-2.5926
			c-0.5686-0.7633-1.635-1.5595-2.9705-1.5706c-0.1906-0.7831,0.3926,1.1577-3.7197-12.0113
			c-1.1309-3.4901-4.3345-5.7752-7.9263-5.8477H53.193c-3.5957,0.0725-6.8086,2.3485-7.9522,5.8794l-2.3024,7.3557h5.4118
			L50.1832,23.3739z"/>
		<path fill="#ffffff" d="M46.8876,66.5053l3.9341-12.5667H20.6801l3.7155-11.8517c0.2574-1.2152,2.0357-2.5316,3.2954-2.5316
			c0.0371,0,0.0757,0,0.1133,0.0042h28.606c1.2612-0.0796,3.1152,1.2596,3.3825,2.498l0.5125,1.6383
			c2.1462-0.7948,3.8787-0.9616,5.8269-0.9616l-0.7468-2.3921c-1.2801-3.9527-4.9082-6.5404-8.9751-6.6222h-28.606
			c-4.0718,0.0818-7.7104,2.6595-9.0051,6.6576c-4.7959,15.3214-3.9785,12.6527-4.2266,13.6067
			c-2.9245,0.3415-4.0652,2.7157-4.7141,4.5864c-0.6968,2.1175-0.9831,4.6094-0.9897,7.1243
			c0.0066,2.5128,0.2929,5.0114,0.9897,7.1348c0.6738,1.9396,1.8496,4.4458,5.0259,4.6368h25.1541
			c0.2165-1.2663,0.5024-2.4576,0.8652-3.5605l0.0232-0.0689C42.1915,70.1922,44.1901,67.7378,46.8876,66.5053z M28.8976,67.818
			c0,1.6889-1.3692,3.0517-3.0518,3.0517h-5.5039c-1.6916,0-3.0478-1.3686-3.0542-3.0517v-2.8302
			c0.0064-1.6891,1.3626-3.0519,3.0542-3.0519h5.5039c1.6826,0,3.0518,1.3628,3.0518,3.0519V67.818z"/>
		<path fill="#ffffff" d="M99.2638,109.6745c0,1.3091,1.0583,2.3402,2.3376,2.3402h7.2889c1.2636,0,2.3305-1.0252,2.3305-2.3402
			v-9.102h-11.957V109.6745z"/>
		<path fill="#ffffff" d="M118.0909,75.4118c-0.3732-1.1914-0.8315-2.2954-1.6123-3.3169c-0.728-0.9765-2.0918-1.9956-3.8015-2.0097
			c-0.2285-0.9516,0.4646,1.3611-4.7593-15.3687c-1.446-4.4659-5.5454-7.3896-10.1406-7.4823h-32.322
			c-4.6008,0.0927-8.7117,3.005-10.1746,7.5225C49.8597,72.0737,50.765,69.1299,50.505,70.13
			c-3.3047,0.3858-4.5933,3.0683-5.3267,5.1822c-0.7871,2.3925-1.1108,5.208-1.1181,8.0492
			c0.0073,2.8394,0.331,5.6627,1.1181,8.0622c0.7618,2.1909,2.0901,5.0233,5.6792,5.2387h61.8033
			c1.6836,0.0069,3.0688-1.0005,3.8178-1.9698c2.1827-2.9785,2.5537-6.9834,2.6526-11.2406
			C119.1266,80.6056,118.8165,77.797,118.0909,75.4118z M61.6036,56.6883c0.2911-1.3735,2.3008-2.8604,3.7234-2.8604
			c0.0428,0,0.086,0,0.1282,0.0047h32.322c1.4248-0.0901,3.5198,1.423,3.822,2.8225l4.1988,13.4232H57.4056L61.6036,56.6883z
			 M66.5211,85.6018c0,1.9071-1.5464,3.4468-3.4472,3.4468h-6.2161c-1.9104,0-3.4422-1.5461-3.4495-3.4468v-3.1964
			c0.0073-1.9082,1.5391-3.4472,3.4495-3.4472h6.2161c1.9008,0,3.4472,1.539,3.4472,3.4472V85.6018z M109.5914,85.6018
			c0,1.9071-1.542,3.4399-3.4467,3.4399h-6.2095c-1.9053,0-3.4544-1.5328-3.4544-3.4399v-3.1964
			c0-1.9082,1.5491-3.4472,3.4544-3.4472h6.2095c1.9047,0,3.4467,1.539,3.4467,3.4472V85.6018z"/>
		<path fill="#ffffff" d="M51.9774,109.6819c0,1.31,1.075,2.3328,2.3357,2.3328h7.2905c1.273,0,2.3365-1.0329,2.3365-2.3328v-9.1094
			H51.9774V109.6819z"/>
	</g>
</g>
</svg>
