<?xml version="1.0" encoding="utf-8"?>
<!-- Generator: Adobe Illustrator 18.1.1, SVG Export Plug-In . SVG Version: 6.00 Build 0)  -->
<svg version="1.2" baseProfile="tiny" xmlns="http://www.w3.org/2000/svg" xmlns:xlink="http://www.w3.org/1999/xlink" x="0px"
	 y="0px" width="128px" height="128px" viewBox="0 0 128 128" xml:space="preserve">
<g id="_x31_28px_boxes">
	<rect fill="none" width="128" height="128"/>
</g>
<g id="Production">
	<g>
		<path fill="#ffffff" d="M113.4212,67.1648c-4.5564-8.1705-21.0064-14.3605-27.6233-16.5738l15.2104,15.2105
			c3.2217,3.2218,3.2217,8.4454,0,11.6672l-5.9568,5.9567c-9.1271,9.1765-3.4077,28.1411,8.0845,26.0129
			c8.7908-1.6278,5.5601-13.2391,7.2974-21.5248C112.0813,80.0545,118.2351,75.7962,113.4212,67.1648z"/>
		<path fill="#ffffff" d="M97.8262,68.9835L79.5088,50.666c3.3587-19.878-5.7832-39.9409-19.7478-39.9409
			c-11.4331,0-20.3931,13.8466-20.4287,31.5428l8.3455-8.3456c1.7154-8.2361,6.4047-15.6972,12.0832-15.6972
			c9.2126,0,16.4323,19.5206,11.1743,36.0573c0.8311,1.1453,1.3225,2.5532,1.3225,4.0764c0,3.8384-3.1118,6.95-6.9499,6.95
			c-3.8379,0-6.9497-3.1116-6.9497-6.95c0-3.5955,2.7309-6.5533,6.2312-6.9129c1.2145-4.8539,1.4565-10.0063,0.9065-14.7927
			l-4.4305-4.4305c-1.4634-1.4636-3.8391-1.4642-5.3032,0L13.8721,74.113c-1.4646,1.4645-1.4646,3.8389,0,5.3032l36.7607,36.7608
			c1.4637,1.4637,3.8391,1.4641,5.3033,0l41.8901-41.8903C99.2908,72.8222,99.2908,70.448,97.8262,68.9835z"/>
	</g>
</g>
</svg>
