<?xml version="1.0" encoding="utf-8"?>

<svg version="1.2" baseProfile="tiny" xmlns="http://www.w3.org/2000/svg" xmlns:xlink="http://www.w3.org/1999/xlink" x="0px"
	 y="0px" width="128px" height="128px" viewBox="0 0 128 128" xml:space="preserve">
<g id="_x31_28px_boxes">
	<rect fill="none" width="128" height="128"/>
</g>
<g id="Production">
	<g>
		<path fill="#ffffff" d="M100.4109,75.1511c-1.7974-19.233-15.6927-25.5745-32.7944-56.9251l-0.0798-0.1412
			c-1.5396-2.5829-5.7205-2.5364-7.1538,0.1434l-0.0132,0.0249C44.8602,47.7067,29.444,55.2605,27.5892,75.1274
			c-1.8907,20.0003,15.0449,36.6905,36.4052,36.6905h0.0144C85.4948,111.8179,102.2872,94.9996,100.4109,75.1511z M43.8882,61.4829
			c4.8187-7.1619,10.5298-12.82,20.1392-28.5816C74.148,49.4852,79.2492,54.3395,84.0833,61.5131
			c14.3559,21.2249-1.3222,38.7058-19.6248,38.9821c6.6465-4.4126,9.6936-12.5659,9.6936-21.7188
			c0-9.3443-8.1179-26.9122-10.4243-31.7136C55.9361,59.8108,51.3629,64.325,47.438,70.1614
			c-6.7988,10.1013-5.5446,19.0816,0.3555,25.2615C37.7344,88.2238,34.3626,75.6335,43.8882,61.4829z"/>
	</g>
</g>
</svg>
