<?xml version="1.0" encoding="utf-8"?>
<!-- Generator: Adobe Illustrator 18.1.1, SVG Export Plug-In . SVG Version: 6.00 Build 0)  -->
<svg version="1.2" baseProfile="tiny" xmlns="http://www.w3.org/2000/svg" xmlns:xlink="http://www.w3.org/1999/xlink" x="0px"
	 y="0px" width="128px" height="128px" viewBox="0 0 128 128" xml:space="preserve">
<g id="_x31_28px_boxes">
	<rect fill="none" width="128" height="128"/>
</g>
<g id="Production">
	<g>
		<circle fill="#ffffff" cx="45.7213" cy="21.462" r="14.2395"/>
		<circle fill="#ffffff" cx="83.6248" cy="27.6353" r="13.3659"/>
		<path fill="#ffffff" d="M95.957,45.6816H73.6209c3.7164,6.9412-1.3007,15.465-9.272,15.465
			c-11.5628,0-14.5986-16.0599-3.8493-20.2931c-1.1568-0.2329,0.7253-0.1656-27.9159-0.1656c-5.1714,0-9.0985,4.7014-8.7811,10.3645
			l1.8135,27.6217c0.1936,3.458,2.3575,6.3835,5.2992,7.6957v34.4077h21.9746V97.6767c-2.2774-0.9186-3.9513-2.9677-4.101-5.3897
			l-1.4035-19.3468c-0.2455-3.9664,2.7933-7.2599,6.7956-7.2599h20.3351c4.0023,0,7.041,3.2935,6.7956,7.2599L79.9079,92.287
			c-0.1498,2.422-1.825,4.4711-4.102,5.3897v23.1008h21.7159V88.5598c2.7609-1.2315,4.7919-3.9779,4.9753-7.2237l1.7013-25.9264
			C104.4965,50.094,100.8109,45.6816,95.957,45.6816z"/>
	</g>
</g>
</svg>
