<?xml version="1.0" encoding="utf-8"?>
<!-- Generator: Adobe Illustrator 18.1.1, SVG Export Plug-In . SVG Version: 6.00 Build 0)  -->
<svg version="1.2" baseProfile="tiny" xmlns="http://www.w3.org/2000/svg" xmlns:xlink="http://www.w3.org/1999/xlink" x="0px"
	 y="0px" width="128px" height="128px" viewBox="0 0 128 128" xml:space="preserve">
<g id="_x31_28px_boxes">
	<rect fill="none" width="128" height="128"/>
</g>
<g id="Production">
	<g>
		<path fill="#ffffff" d="M98.4835,26.3227c2.3955,3.3089,4.2936,7.016,5.6713,11.088c2.7101,0.594,5.3228,1.4575,7.7671,2.5427
			l5.2312-8.8907C111.3701,28.3183,104.9753,26.6808,98.4835,26.3227z"/>
		<path fill="#ffffff" d="M61.083,14.4817c-44.9506,2.8518-65.1267,53.6069-37.9226,95.6491l6.4162-9.2537
			c-8.5996-13.361-14.0447-36.7908-5.2822-57.4054c2.4236-5.7016,6.7304-8.7154,12.4546-8.7154h4.9069
			c1.2322,0,2.4749,0.3044,3.6147,0.8559c4.8648-5.4053,11.4325-8.561,19.6227-9.4053
			c21.4471-2.2127,28.5585,17.7395,26.9242,30.4328c-1.9615,15.2352-19.1371,17.7566-24.0282,6.4786
			C64.5412,55.6287,69.4019,43.7481,83.54,38.581c-2.2506-3.4844-5.8722-6.6743-9.0152-7.1607
			c-8.7769,2.9301-22.0873,18.9259-16.406,35.0958c7.609,21.6551,43.5994,18.2911,43.9559-13.8557
			C102.3283,29.8132,85.3956,12.9392,61.083,14.4817z"/>
		<path fill="#ffffff" d="M33.5812,85.3614c-0.3791,0.6317-2.5387,4.3225-3.7779,6.4417
			c12.2808,27.4766,39.4535,26.8676,39.1111,9.9749c-0.2386-11.7805-5.823-12.9684-12.0343-18.9937c-6.1213,0-18.2993,0-19.2322,0
			C35.9481,82.7843,34.4397,83.9306,33.5812,85.3614z"/>
		<path fill="#ffffff" d="M32.3314,57.9894c-1.2502,0-2.6075,0.51-3.3456,1.0243c-0.5224,0.364-3.0951,2.5152-4.5547,3.7417
			c-0.4336,7.5663,0.6409,14.9696,2.5894,21.511c1.5214-1.9433,3.7759-4.8009,4.3246-5.3751
			c0.8473-0.8867,2.0693-1.689,3.4027-1.689c1.0504,0,12.6227,0,17.4881,0c-4.1054-6.162-5.9799-12.2851-6.6059-19.2129
			C42.5861,57.9894,33.237,57.9894,32.3314,57.9894z"/>
		<path fill="#ffffff" d="M36.749,39.2563c-3.1226,0-6.3009,1.2417-8.3132,5.9758c-1.5924,3.7462-2.6708,7.5896-3.3211,11.439
			c1.1634-0.7398,3.123-1.9751,4.2926-2.6525c0.7807-0.4521,2.1739-0.8323,3.1739-0.8323c0.8739,0,10.4176,0,12.811,0
			c-0.0343-2.8303,0.0997-5.7929,0.3755-8.8912c0.2932-3.2948-2.2001-5.0388-4.1118-5.0388
			C39.7441,39.2563,39.8716,39.2563,36.749,39.2563z"/>
	</g>
</g>
</svg>

