<?xml version="1.0" encoding="utf-8"?>
<!-- Generator: Adobe Illustrator 18.1.1, SVG Export Plug-In . SVG Version: 6.00 Build 0)  -->
<svg version="1.2" baseProfile="tiny" xmlns="http://www.w3.org/2000/svg" xmlns:xlink="http://www.w3.org/1999/xlink" x="0px"
	 y="0px" width="128px" height="128px" viewBox="0 0 128 128" xml:space="preserve">
<g id="box">
	<rect fill="none" width="128" height="128"/>
</g>
<g id="Production">
	<g>
		<path fill="#ffffff" d="M99.3888,64.2119h17.3738v-4.3152H94.463C96.3265,61.1987,97.974,62.6357,99.3888,64.2119z"/>
		<path fill="#ffffff" d="M107.2716,90.0227h9.491v-4.3154h-9.5157C107.2975,86.6567,107.3566,86.9357,107.2716,90.0227z"/>
		<path fill="#ffffff" d="M85.7369,34.1006c0.2012,1.373,0.3284,2.7978,0.3262,4.2617c0,0.0193-0.0024,0.0317-0.0024,0.0464h30.7019
			v-4.3081H85.7369z"/>
		<path fill="#ffffff" d="M42.7389,38.3623c0-1.4639,0.125-2.8887,0.3262-4.2617H11.2374v4.3081h31.5042
			C42.7416,38.394,42.7389,38.3816,42.7389,38.3623z"/>
		<path fill="#ffffff" d="M79.2516,78.6953l-30.9717,3.8025c-1.0393,0.1279-1.7822,1.0715-1.655,2.1111
			c0.0542,0.4365,0.2673,0.8091,0.5544,1.0984c0.3457,0.3508,0.8164,0.5737,1.3335,0.5737c0.0762,0,0.1548-0.0073,0.2329-0.0146
			l4.5606-0.5591l26.4111-3.2364c1.0422-0.1274,1.7778-1.0788,1.655-2.1232C81.2452,79.3081,80.2938,78.5728,79.2516,78.6953z"/>
		<path fill="#ffffff" d="M64.4037,59.6687c2.4836,0,5.2222-1.0664,7.7795-2.9009c1.4268-1.0173,2.7876-2.2773,4.0235-3.7336
			c4.3264-5.1314,6.436-11.7191,5.1782-18.9336c-1.6353-9.3316-8.6157-15.211-16.9812-15.211
			c-8.3684,0-15.3462,5.8794-16.9819,15.211c-1.2542,7.1949,0.8337,13.8216,5.2226,18.9873
			C55.5363,56.4844,60.0114,59.6687,64.4037,59.6687z"/>
		<path fill="#ffffff" d="M80.2765,87.0703l-24.0498,2.9524l-6.9116,0.8481c-1.0498,0.1302-1.7828,1.074-1.6578,2.1109
			c0.1177,0.9641,0.9366,1.6726,1.8804,1.6726c0.0786,0,0.1548-0.0073,0.2332-0.0122l30.9714-3.8101
			c0.5591-0.0691,1.0203-0.3781,1.3193-0.8093c0.2549-0.363,0.397-0.8166,0.336-1.302
			C82.2726,87.6836,81.3312,86.9409,80.2765,87.0703z"/>
		<path fill="#ffffff" d="M64.4037,63.9692c-3.5769-0.0453-7.0908-1.429-10.0208-3.4912
			c-1.6211,3.8253-1.3132,3.0994-6.6887,15.8167l31.1875-3.8225c-2.3411-5.736-4.801-11.7593-4.801-11.7593
			C71.2377,62.6281,67.85,63.926,64.4037,63.9692z"/>
		<path fill="#ffffff" d="M93.1097,64.2119c-4.8366-3.7695-14.1054-6.1367-15.4248-6.4531
			c-0.0341,0.0342-0.0661,0.0759-0.1052,0.1079c2.0391,4.9793,0.6008,1.469,5.7471,14.0588l3.1479-0.3899l1.7437,14.1717
			l0.5268,4.3154l0.7308,5.919l-46.9334,5.7663L41.111,90.0227l-0.5298-4.3154l-1.0322-8.4075l3.1997-0.3994
			c4.219-9.9785,8.052-19.0537,8.052-19.0537c-4.3601,0.9592-10.3545,2.4452-15.378,6.3652
			c-6.8972,5.3748-9.393,13.1616-9.8249,21.4954c-0.1695,3.7108,0.9277,12.3056,1.6306,13.674
			c1.5522,5.8331,6.647,9.7168,12.1565,9.7291c1.2319-0.0003,45.2378-0.0076,46.4621-0.0076c6.5909,0,14.4368-3.5598,15.9815-9.763
			c1.0225-4.1085,1.3242-9.9195,1.1106-13.6325C102.495,77.3809,100.0043,69.5942,93.1097,64.2119z"/>
		<path fill="#ffffff" d="M34.0397,59.8967H11.2374v4.3152h17.8841C30.5409,62.6357,32.1862,61.1912,34.0397,59.8967z"/>
		<path fill="#ffffff" d="M21.278,85.7073H11.2374v4.3154h10.0869C21.1466,87.2806,21.2325,86.7075,21.278,85.7073z"/>
	</g>
</g>
</svg>
