<?xml version="1.0" encoding="utf-8"?>

<svg version="1.2" baseProfile="tiny" xmlns="http://www.w3.org/2000/svg" xmlns:xlink="http://www.w3.org/1999/xlink" x="0px"
	 y="0px" width="64px" height="64px" viewBox="0 0 64 64" xml:space="preserve">

<g id="Production">
	<g>
		<path fill="#ffffff" d="M11.4985,56C10.6714,56,10,55.2988,10,54.4718V17.4722C10,16.645,10.6714,16,11.4985,16
			c6.9955,0,13.9986,0,21.0005,0C33.3262,16,34,16.645,34,17.4722v9.5977c1.6428-0.7126,3.1428-1.2842,5-1.6067v-7.991
			C39,14.2926,36.6538,11,32,11V8.4723C32,4.8884,29.083,2,25.499,2h-7.0002C14.9146,2,12,4.8884,12,8.4723v2.5
			c-5,0-7,3.27-7,6.4999v36.9996C5,58.0557,7.9146,61,11.4985,61h16.8599c-1.7871-1.8572-2.7156-2.9286-3.79-5H11.4985z M17,8.4723
			c0-0.8271,0.6721-1.4862,1.4995-1.4862C27.7856,6.9861,26.999,6,26.999,11H17V8.4723z"/>
		<path fill="#ffffff" d="M57.4211,37.0535l-3.6702,3.6707c2.9753,6.051,0.3811,13.3657-5.8127,16.1577
			c-4.6455,2.0946-9.9731,0.9854-13.3884-2.4296c-3.4326-3.4327-4.4741-8.6342-2.5508-13.1488
			c1.2856-3.0181,3.8621-5.5922,7.0002-6.6428c2.5488-0.8538,4.5833-0.7046,8.6965-0.6892
			c-0.8657,0.8657-3.655,3.7356-4.5059,4.5864c3.1419,3.1419,3.2143,3.2143,3.5352,3.5352
			c1.2424-1.2424,7.5913-7.5917,10.5168-10.5175c-7.7729-7.7733-3.4893-3.4893-10.5168-10.5175l-3.5352,3.5352
			c0.6802,0.6804,3.7798,3.78,4.4573,4.4578c-4.2483-0.0156-7.741-0.2407-11.6479,1.4933
			c-9.5164,4.22-13.189,16.5446-6.6875,25.4274c3.3403,4.5647,8.5176,6.9775,13.7004,6.9775
			c9.3423-0.0021,16.9683-7.5416,16.9683-16.9587C59.9805,42.7791,59.0781,39.7126,57.4211,37.0535z"/>
	</g>
</g>
</svg>
