<?xml version="1.0" encoding="utf-8"?>

<svg version="1.2" baseProfile="tiny" xmlns="http://www.w3.org/2000/svg" xmlns:xlink="http://www.w3.org/1999/xlink" x="0px"
	 y="0px" width="128px" height="128px" viewBox="0 0 128 128" xml:space="preserve">
<g id="_x31_28px_boxes">
	<rect fill="none" width="128" height="128"/>
</g>
<g id="Production">
	<g>
		<path fill="#ffffff" d="M114.7273,51.7988c0,0,7.9035-14.0463-2.053-17.8013c-9.9558-3.7551-21.3632,18.7479-21.3632,18.7479
			s-9.0001-1.7422-15.609-1.3386C70.4214,51.73,60.832,51.9782,61.9587,62.0339l-14.1429,3.1644
			c-0.4821-2.1716,0.7178-4.086,2.8004-4.7202l6.2785-1.9619c-1.262-5.7806-4.4234-10.1447-8.2616-10.5561
			c-5.3382-0.5721-9.9427,6.6173-9.8778,16.0612c0.0653,9.4423,4.7674,16.5685,10.0981,15.9228
			c3.9658-0.4802,7.149-5.1837,8.2318-11.2812l6.1758-0.8484c-0.8971,13.9744-6.9779,26.0313-15.3216,28.0894
			c-10.571,2.6087-20.5355-11.4248-20.6758-31.804c-0.1403-20.378,9.6303-34.548,20.2364-32.0852
			c6.4629,1.5002,11.6591,8.9783,14.1939,18.7336c2.2116-1.8044,4.9341-2.7119,7.5353-3.1982
			C65.8153,32.1576,57.856,19.5104,47.4331,16.0217c-17.387-5.819-34.7956,15.092-34.5679,48.1774
			c0.2273,33.0855,17.9218,53.7551,35.2272,47.6974c11.9851-4.1953,20.5122-20.5689,22.5108-39.188
			c3.3857,0.0591,7.0208-1.6434,9.5888-2.7731c6.0605-2.667,13.2838-8.2575,13.2838-8.2575s20.4435,14.7842,27.5767,6.8878
			C128.1845,60.6679,114.7273,51.7988,114.7273,51.7988z"/>
	</g>
</g>
</svg>
