<?xml version="1.0" encoding="utf-8"?>
<!-- Generator: Adobe Illustrator 19.1.0, SVG Export Plug-In . SVG Version: 6.00 Build 0)  -->
<svg version="1.2" baseProfile="tiny" xmlns="http://www.w3.org/2000/svg" xmlns:xlink="http://www.w3.org/1999/xlink" x="0px"
	 y="0px" width="64px" height="64px" viewBox="0 0 64 64" xml:space="preserve">
<g id="box">
	<rect fill="none" width="64" height="64"/>
</g>
<g id="Production">
	<g>
		<path fill="#ffffff" d="M48,7H16c-2.7568,0-5,2.2432-5,5v40c0,2.7568,2.2432,5,5,5h32c2.7568,0,5-2.2432,5-5V12
			C53,9.2432,50.7568,7,48,7z M16,9h32c1.6543,0,3,1.3457,3,3v5H13v-5C13,10.3457,14.3457,9,16,9z M48,55H16c-1.6543,0-3-1.3457-3-3
			V19h38v33C51,53.6543,49.6543,55,48,55z"/>
		<circle fill="#ffffff" cx="43" cy="13" r="2"/>
		<path fill="#ffffff" d="M35.4829,37.1382C34.5498,37.948,33.2776,39,32,39c-1.2742,0-2.538-1.0418-3.4683-1.8491
			c-0.9219,0.7885-2.0247,1.6851-3.243,1.8254c0.1981,0.6712,0.4926,1.3007,0.8702,1.8719c0.9505-0.2446,1.8064-0.74,2.3651-1.1232
			C29.2886,40.2539,30.6133,41,32,41c1.3809,0,2.7002-0.7397,3.4668-1.2686c0.5537,0.3878,1.4022,0.8834,2.3701,1.1237
			c0.3795-0.5726,0.6752-1.204,0.874-1.8774C37.4345,38.843,36.3919,37.9506,35.4829,37.1382z"/>
		<path fill="#ffffff" d="M32,26c-6.0654,0-11,4.9346-11,11s4.9346,11,11,11s11-4.9346,11-11S38.0654,26,32,26z M32,46
			c-4.9624,0-9-4.0376-9-9s4.0376-9,9-9s9,4.0376,9,9S36.9624,46,32,46z"/>
	</g>
</g>
</svg>

