<?xml version="1.0" encoding="utf-8"?>
<!-- Generator: Adobe Illustrator 18.1.1, SVG Export Plug-In . SVG Version: 6.00 Build 0)  -->
<svg version="1.2" baseProfile="tiny" xmlns="http://www.w3.org/2000/svg" xmlns:xlink="http://www.w3.org/1999/xlink" x="0px"
	 y="0px" width="128px" height="128px" viewBox="0 0 128 128" xml:space="preserve">
<g id="_x31_28px_boxes">
	<rect fill="none" width="128" height="128"/>
</g>
<g id="Production">
	<g>
		<path fill="#ffffff" d="M127.5194,42.3215l-9.3641-10.1836c-4.197-4.7241-9.7116-7.2214-15.9483-7.2214
			c-4.9468,0-8.6156,1.5639-8.7694,1.6306c-1.057,0.4572-1.3619,1.8143-0.6044,2.6804l2.1728,2.4849
			c-6.1653,5.6394-12.2465,7.1252-16.1112,7.4143c2.9071,7.3669,11.3161,12.7866,18.0668,15.2771l10.2073-8.6953
			c0,0,16.0138,2.0319,16.4942,2.0319C127.9962,47.7404,128.6318,43.5296,127.5194,42.3215z"/>
		<path fill="#ffffff" d="M71.2369,63.5644c1.2612,2.3413,2.326,4.9766,3.1899,7.9024l7.8623,2.1042
			c2.6413-1.5286,5.3964-3.4846,7.273-5.7703c2.1433-2.6108,3.6204-5.5139,4.5939-7.8984
			C87.7432,59.2141,79.0189,59.1804,71.2369,63.5644z"/>
		<path fill="#ffffff" d="M88.6896,79.2878l-16.3234-4.3684c-0.6647-0.178-1.1849-0.6963-1.3658-1.3606
			c-1.5867-5.8308-3.9757-10.397-7.1309-13.6531c-7.0132-6.3944-16.5545-7.4344-24.2612-4.2773
			c-2.3629,0.9733-3.8392-2.6008-1.474-3.5757c0.2659-0.1096,3.9559-1.5952,9.0093-1.9294
			c0.9465-3.5323,3.2422-10.065,8.0566-14.5633c-18.8525-0.3679-31.4126,9.3663-43.1483,23.999
			c-3.0331,3.7818-5.2355,2.0959-4.7373-0.6391c0.6432-3.5303,3.7484-5.7315,5.9257-8.2984
			c0.954-1.1254,1.4969-3.4414-0.3201-4.1025c-2.6197-0.9524-8.8755,4.9248-10.5004,7.1062
			c-4.2023,5.6387-2.8183,14.2929,3.2736,16.3843c5.2423,1.7983,12.1874-3.6193,12.2388-4.6194
			c0.1596,11.195,7.1397,16.0821,18.1413,17.636l15.4154-3.1416c-1.3377-1.99-2.5749-4.1138-4.0496-6.0039
			c5.922-4.0706,11.961-1.7324,13.2172,0.8193l-6.9071,9.0012l-15.5258,3.1824c-3.4355,0.6232-2.8835,5.7931,0.6459,5.6223
			l8.7378-0.4216l4.6567,6.3069c0.5028,0.6789,1.2465,1.1833,2.1382,1.3713l15.3064,3.2254
			c4.7603,1.003,6.2649-6.1926,1.5152-7.1927L57.75,92.956l-0.6606-1.5288c0.1734-0.0781,12.3352-8.8225,12.3352-8.8225
			l16.1881,3.8035C89.873,87.4091,92.3412,81.7096,88.6896,79.2878z"/>
	</g>
</g>
</svg>
