<?xml version="1.0" encoding="utf-8"?>
<!-- Generator: Adobe Illustrator 18.1.1, SVG Export Plug-In . SVG Version: 6.00 Build 0)  -->
<svg version="1.2" baseProfile="tiny" xmlns="http://www.w3.org/2000/svg" xmlns:xlink="http://www.w3.org/1999/xlink" x="0px"
	 y="0px" width="128px" height="128px" viewBox="0 0 128 128" xml:space="preserve">
<g id="_x31_28px_boxes">
	<rect fill="none" width="128" height="128"/>
</g>
<g id="Production">
	<g>
		<path fill="#ffffff" d="M41.9387,12.09v24.3334l0.0195-0.0074c0,10.2741-2.3384,13.1433-6.581,18.6831
			c-3.0016,4.4846-6.1885,6.32-6.1885,9.6978v0.001v0.0025c-3.6157,46.383-3.4101,42.8726-3.3231,44.0009
			c0.3402,4.4043,4.1892,7.6993,8.5937,7.3589s7.7008-4.1864,7.3606-8.5907l-3.2191-41.714
			c4.8448-5.797,9.676-11.9341,9.676-21.9793c0-15.5965,0.0475-27.3336,0.048-27.4508C48.3411,12.2934,43.8147,11.236,41.9387,12.09
			z"/>
		<path fill="#ffffff" d="M102.7658,113.5714c-0.0589-0.2784-5.904-28.2519-5.904-66.8247c0-4.9667-5.8157-9.827-8.7865-11.1714
			c-6.6549,0-11.7968,0-18.9099,0c-5.6315,3.0115-8.9311,7.8568-8.9311,11.1867c0,38.5733-5.8456,66.5393-5.9045,66.8172
			c-0.2605,1.2274,0.6213,2.4961,2.0886,2.4961h44.2588C102.1377,116.0753,103.0275,114.8036,102.7658,113.5714z"/>
		<path fill="#ffffff" d="M70.6276,31.3253h15.8389c1.4794,0,2.5393-1.2422,2.3561-2.7101
			c-1.0873-8.7086-0.6832-5.4832-1.7724-14.1469c-0.1838-1.4682-1.5448-2.643-3.0244-2.643H73.0671
			c-1.4796,0-2.8406,1.164-3.0243,2.6322c-1.0885,8.6742-0.6847,5.4447-1.7712,14.1662
			C68.0878,30.0919,69.1479,31.3253,70.6276,31.3253z"/>
		<path fill="#ffffff" d="M39.1914,15.3726c-0.5068-0.7867-1.3883-1.2973-2.3936-1.2973c-10.5983,0,0.5964,0-11.6091,0v5.75
			c12.2024,0,1.0155,0,11.6091,0C38.9553,19.8253,40.4337,17.303,39.1914,15.3726z"/>
		<path fill="#ffffff" d="M36.7978,30.8253c-10.5983,0,0.5964,0-11.6091,0v5.5c12.2024,0,1.0155,0,11.6091,0
			C40.4126,36.3253,40.7102,30.8253,36.7978,30.8253z"/>
		<path fill="#ffffff" d="M39.1914,23.6226c-0.5068-0.7867-1.3883-1.2973-2.3936-1.2973c-10.5983,0,0.5964,0-11.6091,0v5.75
			c12.2024,0,1.0155,0,11.6091,0C38.9553,28.0753,40.4337,25.553,39.1914,23.6226z"/>
	</g>
</g>
</svg>
