<?xml version="1.0" encoding="utf-8"?>
<!-- Generator: Adobe Illustrator 18.1.1, SVG Export Plug-In . SVG Version: 6.00 Build 0)  -->
<svg version="1.2" baseProfile="tiny" xmlns="http://www.w3.org/2000/svg" xmlns:xlink="http://www.w3.org/1999/xlink" x="0px"
	 y="0px" width="128px" height="128px" viewBox="0 0 128 128" xml:space="preserve">
<g id="box">
	<rect fill="none" width="128" height="128"/>
</g>
<g id="Production">
	<g>
		<path fill="#ffffff" d="M102.9177,12.5563c-4.4409-3.1096-10.561-2.0303-13.6709,2.4106L65.9543,48.232
			c-7.603-3.0614-15.9331-3.8669-24.2033-2.2476c-2.128,0.4167-3.5154,2.4795-3.0987,4.6076
			c0.4168,2.128,2.479,3.5162,4.6077,3.0986c8.1487-1.5957,16.3677-0.3094,23.5308,3.6148L46.7903,85.8695
			c-1.2437,1.7762-0.812,4.2246,0.9641,5.4682c1.7776,1.2445,4.2253,0.8111,5.4682-0.9642l20.0005-28.5641
			c6.1377,5.3892,10.1575,12.6726,11.4451,20.8756c0.3359,2.1406,2.3433,3.6062,4.4878,3.2699
			c2.1421-0.3363,3.6062-2.3456,3.2698-4.4877c-1.3072-8.325-4.9131-15.8772-10.3904-21.9748l23.293-33.2654
			C108.4375,21.7863,107.3581,15.6658,102.9177,12.5563z"/>
		<path fill="#ffffff" d="M68.8574,78.3126c7.385,14.235-3.0124,31.0547-18.8728,31.0547c-10.1028,0-19.0754-7.2148-20.8992-17.5572
			C26.5945,77.6835,38.55,65.2075,52.7737,67.0562l4.9084-7.0102c-20.4983-5.6021-40.0417,12.0775-36.3298,33.1277
			c2.5022,14.1924,14.8098,24.0461,28.6323,24.0461c23.6052,0,37.4016-26.7059,23.7825-45.9188L68.8574,78.3126z"/>
	</g>
</g>
</svg>
