<?xml version="1.0" encoding="utf-8"?>
<!-- Generator: Adobe Illustrator 18.1.1, SVG Export Plug-In . SVG Version: 6.00 Build 0)  -->
<svg version="1.2" baseProfile="tiny" xmlns="http://www.w3.org/2000/svg" xmlns:xlink="http://www.w3.org/1999/xlink" x="0px"
	 y="0px" width="128px" height="128px" viewBox="0 0 128 128" xml:space="preserve">
<g id="_x31_28px_boxes">
	<rect fill="none" width="128" height="128"/>
</g>
<g id="Production">
	<g>
		<path fill="#ffffff" d="M89.3719,42.5488h18.1924c10.6824,0,10.6983-16.1709,0-16.1709H89.3719
			C78.6877,26.3779,78.6763,42.5488,89.3719,42.5488z"/>
		<path fill="#ffffff" d="M116.1058,48.7578h-8.4946c-0.5995,0-1.1634,0.2834-1.5211,0.7644l-6.6368,8.9236h-9.4779v-3.8086
			c0-3.8249-3.1008-6.9258-6.9259-6.9258h-6.1677v-13.248c0-2.6792-2.172-4.8514-4.8512-4.8514H46.6527
			c-1.632,0-3.1545,0.8206-4.0518,2.1836L32.1221,47.7114H16.9245c-3.8249,0-6.9257,3.1009-6.9257,6.9258v25.3394
			c0,3.8249,3.1008,6.9257,6.9257,6.9257h3.3197v7.794c0,3.8249,3.1006,6.9258,6.9255,6.9258h5.0019
			c4.0063,0,5.6662-3.0054,7.141-4.2303c0.4422-0.4616,1.3794-1.0356,2.4044-1.0602l17.1615,0.0012
			c1.0219,0.0017,1.942,0.4299,2.5969,1.1145c1.6958,1.4924,3.1305,4.1748,7.0844,4.1748h14.4897
			c3.8251,0,6.9259-3.1009,6.9259-6.9258V80.7442h9.4779l6.6368,8.9235c0.3577,0.481,0.9216,0.7644,1.5211,0.7644h8.4946
			c1.0468,0,1.8954-0.8486,1.8954-1.8955V50.6533C118.0012,49.6065,117.1526,48.7578,116.1058,48.7578z M55.7182,61.0552v14.644
			H31.3447v-14.644H55.7182z M49.2669,39.3147h17.9123v8.3967H43.7387L49.2669,39.3147z"/>
	</g>
</g>
</svg>
