<?xml version="1.0" encoding="utf-8"?>
<!-- Generator: Adobe Illustrator 18.1.1, SVG Export Plug-In . SVG Version: 6.00 Build 0)  -->
<svg version="1.2" baseProfile="tiny" xmlns="http://www.w3.org/2000/svg" xmlns:xlink="http://www.w3.org/1999/xlink" x="0px"
	 y="0px" width="128px" height="128px" viewBox="0 0 128 128" xml:space="preserve">
<g id="_x31_28px_boxes">
	<rect fill="none" width="128" height="128"/>
</g>
<g id="Production">
	<g>
		<rect x="13.0183" y="83.3733" fill="#ffffff" width="22.1885" height="24.2451"/>
		<rect x="92.7898" y="83.3733" fill="#ffffff" width="22.1885" height="24.2451"/>
		<path fill="#ffffff" d="M84.9364,51.5469l17.2475-13.9953c-8.7822-9.9289-21.3645-16.4209-35.4476-17.17v22.2453
			C73.8804,43.3043,80.2717,46.602,84.9364,51.5469z"/>
		<path fill="#ffffff" d="M92.7897,77.1813h22.1885c0-7.1253,0.9241-20.3845-8.9784-34.752L88.6821,56.4817
			C93.3437,64.2245,92.7897,70.5205,92.7897,77.1813z"/>
		<path fill="#ffffff" d="M60.5442,42.7038V20.4271c-14.1231,0.9497-26.687,7.6754-35.3451,17.8305l17.4967,13.6807
			C47.2358,46.9443,53.5037,43.5496,60.5442,42.7038z"/>
		<path fill="#ffffff" d="M39.0423,56.9417L21.473,43.2043c-9.2902,14.0209-8.4546,26.7015-8.4546,33.977h22.1885
			C35.2069,70.4582,34.6912,64.4812,39.0423,56.9417z"/>
		<path fill="#ffffff" d="M80.8416,99.1043c4.9545-2.1084,2.1423-9.6532-3.0043-7.9554l-14.0897,4.6524l-13.9661-4.6492
			c-5.1517-1.7133-7.9699,5.8434-3.0136,7.9522c-6.5737,0-5.974,8.5141-0.5302,8.5141h35.1338
			C86.8181,107.6184,87.4066,99.1043,80.8416,99.1043z"/>
		<path fill="#ffffff" d="M65.8732,52.4927c7.0859,19.0746-2.2989,20.1837-5.1084,18.0771
			c-3.9122-2.9335-2.1103-11.0119-2.3403-9.6882c-15.5093,9.0003-14.1303,25.5048,0.1262,29.5037
			c-3.3785-3.3244-4.413-8.4562,0.2881-12.3735c0.4732,6.2366,11.6955,5.071,11.9541-1.2468
			c3.2077,3.0799,2.3343,9.5387-1.6768,12.1262C85.8751,85.4886,83.0399,61.9051,65.8732,52.4927z"/>
	</g>
</g>
</svg>
