<?xml version="1.0" encoding="utf-8"?>
<!-- Generator: Adobe Illustrator 18.1.1, SVG Export Plug-In . SVG Version: 6.00 Build 0)  -->
<svg version="1.2" baseProfile="tiny" xmlns="http://www.w3.org/2000/svg" xmlns:xlink="http://www.w3.org/1999/xlink" x="0px"
	 y="0px" width="64px" height="64px" viewBox="0 0 64 64" xml:space="preserve">

<g id="Production">
	<g>
		<path fill="#ffffff" d="M16.0499,41.5245l0.7902-1.8566l-6.8986-4.0875C10.3109,33.6997,8.8665,32,7,32c-1.6569,0-3,1.3431-3,3
			c0,2.5229,2.9418,3.937,4.9111,2.2947L16.0499,41.5245z"/>
		<path fill="#ffffff" d="M16.0238,51.7982l8.8578-20.8102C24.9218,30.9896,24.9595,31,25,31c1.1458,0,2.1297-0.6498,2.6349-1.5941
			l15.6758,2.4069l0.6425-1.9246l-16.0107-2.4583C27.6758,26.0461,26.4616,25,25,25c-1.6569,0-3,1.3431-3,3
			c0,0.897,0.4017,1.6929,1.0257,2.2427l-8.8432,20.7758C12.3722,50.9072,11,52.3381,11,54c0,1.6569,1.3431,3,3,3s3-1.3431,3-3
			C17,53.1261,16.6201,52.3466,16.0238,51.7982z"/>
		<path fill="#ffffff" d="M58,30c-1.1632,0-2.1605,0.6691-2.6582,1.6369l-5.3713-0.8248l-0.6425,1.9246l5.7371,0.8809
			C55.3499,34.9779,56.555,36,58,36c1.6569,0,3-1.3431,3-3S59.6569,30,58,30z"/>
		<path fill="#ffffff" d="M40.8926,51.6899L54.147,11.9852C55.7341,11.9069,57,10.6065,57,9c0-1.6569-1.3431-3-3-3s-3,1.3431-3,3
			c0,0.9922,0.4875,1.8649,1.2299,2.4111L39.0135,51.0013C39.0089,51.0013,39.0046,51,39,51c-0.7173,0-1.367,0.2622-1.8832,0.6822
			l-15.0694-8.9288l-0.7902,1.8566l14.8074,8.7736C35.6739,55.2523,37.0981,57,39,57c1.6569,0,3-1.3431,3-3
			C42,53.0649,41.5632,52.2401,40.8926,51.6899z"/>
	</g>
</g>
</svg>
