<?xml version="1.0" encoding="utf-8"?>
<!-- Generator: Adobe Illustrator 18.1.1, SVG Export Plug-In . SVG Version: 6.00 Build 0)  -->
<svg version="1.2" baseProfile="tiny" xmlns="http://www.w3.org/2000/svg" xmlns:xlink="http://www.w3.org/1999/xlink" x="0px"
	 y="0px" width="128px" height="128px" viewBox="0 0 128 128" xml:space="preserve">
<g id="_x31_28px_boxes">
	<rect fill="none" width="128" height="128"/>
</g>
<g id="Production">
	<g>
		<path fill="#ffffff" d="M84.8135,33.156H72.0518v-4.6111c0-2.3264-1.8857-4.2124-4.2124-4.2124h-9.092
			c-2.3265,0-4.2122,1.886-4.2122,4.2124v4.4563H33.1158c-11.8787,0-18.0362,13.0384-20.5425,25.9883
			c-13.4989,1.5967-13.1551,39.3872,0.8274,39.3872c0,0,71.5573,0.0005,71.5781,0C103.8285,98.006,103.9548,33.156,84.8135,33.156z
			 M84.8135,89.1712l-0.0056-0.0059c-7.4924-8.8965-6.6016-40.2432-0.0032-46.7944c0.003-0.003,2.0293,3.3053,3.2966,7.2352
			C91.363,59.7206,91.1067,81.4168,84.8135,89.1712z M33.1514,48.0012h14.169c-0.844,3.303-1.4383,7.0127-1.7586,10.9388H27.9397
			C28.5691,56.4246,31.3291,48.8084,33.1514,48.0012z"/>
		<path fill="#ffffff" d="M102.4019,39.5623c0,0,12.9182-4.5808,13.2839-4.8352c5.5223-3.8422-0.3257-12.1349-5.7939-8.3277
			l-10.4854,7.2947C96.2476,35.8932,98.7852,40.8226,102.4019,39.5623z"/>
		<path fill="#ffffff" d="M115.6846,96.8047c-0.3662-0.2542-13.283-4.834-13.283-4.834c-3.3792-1.1792-6.2807,3.5782-2.9948,5.8682
			l10.4851,7.2951C115.4528,109.0014,121.1553,100.6131,115.6846,96.8047z"/>
		<path fill="#ffffff" d="M120.8941,60.7307c-0.4441-0.0542-14.0039,1.9361-14.0039,1.9361
			c-3.8107,0.5791-3.7091,6.1227,0.0967,6.5876c0,0,13.0915,1.5842,13.2968,1.5845h0.0003
			C126.5555,70.8389,127.2262,61.502,120.8941,60.7307z"/>
	</g>
</g>
</svg>
