<?xml version="1.0" encoding="utf-8"?>
<!-- Generator: Adobe Illustrator 18.1.1, SVG Export Plug-In . SVG Version: 6.00 Build 0)  -->
<svg version="1.2" baseProfile="tiny" xmlns="http://www.w3.org/2000/svg" xmlns:xlink="http://www.w3.org/1999/xlink" x="0px"
	 y="0px" width="128px" height="128px" viewBox="0 0 128 128" xml:space="preserve">
<g id="_x31_28px_boxes" display="none">
	<rect display="inline" fill="none" width="128" height="128"/>
</g>
<g id="Production">
	<g>
		<path fill="#ffffff" d="M102.6313,53.916l3.9782-12.4317c0.2127-0.665,0.1881-1.3476-0.0214-1.9614l0.0367-0.0185
			c0,0-1.8062-3.4618-2.2964-4.6034c-0.6326-1.4732-2.1293-2.1935-3.4835-2.1935c-0.4287,0-8.5987-0.0001-17.2818-0.0001v-6.8019
			c0-0.9265-0.7511-1.6776-1.6776-1.6776H70.3073c-0.8207,0-1.5208,0.5937-1.655,1.4034l-1.1724,7.0761c-2.5974,0-4.3958,0-4.8255,0
			v-6.8019c0-0.9265-0.7511-1.6776-1.6776-1.6776H49.3989c-0.7985,0-1.4863,0.5627-1.6444,1.3453l-6.0421,29.9036h-3.2417
			c-1.3446,0-2.539,0.8589-2.967,2.1335L27.898,80.2645l6.781-0.5313l6.033-17.9694h7.8845l1.9483-18.1109l13.6595-2.2516h35.8599
			l-4.0485,12.6513C98.3007,53.8689,102.0185,53.8983,102.6313,53.916z"/>
		<polygon fill="#ffffff" points="87.7325,44.785 85.0647,53.7415 92.3463,53.7415 95.0141,44.785 		"/>
		<polygon fill="#ffffff" points="75.0715,53.7415 82.353,53.7415 85.0212,44.785 77.7397,44.785 		"/>
		<polygon fill="#ffffff" points="65.0784,53.7415 72.3601,53.7415 75.028,44.785 67.7464,44.785 		"/>
		<polygon fill="#ffffff" points="53.1555,54.2846 60.8436,53.7155 63.2854,44.7857 53.9849,46.2794 		"/>
		<path fill="#ffffff" d="M100.3034,103.7721c4.9754-11.6731,11.9806-17.2146,11.9806-17.2146s9.0919-0.9236,10.0233-7.2572
			c0.3839-2.6111,0.9513-4.2399,1.2371-8.3128c0.7899-11.2578-17.7388-13.1697-29.3704-12.0837
			c-13.2561,1.2372-32.2558,6.8232-38.7655,8.6587c-1.756,0.4951-2.8794,1.5794-3.8346,3.4037
			c-0.6538,1.2489-4.2922,7.8831-6.9359,12.6956c-34.3018,2.6873-31.071,2.4325-32.1745,2.5244
			c-4.5011,0.3912-8.0324,4.1689-8.0324,8.7713c0,4.8625,3.9419,8.8046,8.8047,8.8046L100.3034,103.7721z M70.9675,86.1593
			c-0.7343-2.0755,2.1286-2.7858,2.78-0.9532l1.2129,3.3167l6.4136-1.3988l-1.0194-3.4365h0.004
			c-0.6219-2.052,2.5001-3.0187,3.1331-0.9334l1.5427,5.1986c0.2821,0.9374-0.3188,1.9007-1.2768,2.0818l-9.3626,1.6652
			c-0.7987,0.1275-1.5616-0.3137-1.8266-1.064L70.9675,86.1593z"/>
	</g>
</g>
</svg>
