<?xml version="1.0" encoding="utf-8"?>
<!-- Generator: Adobe Illustrator 18.1.1, SVG Export Plug-In . SVG Version: 6.00 Build 0)  -->
<svg version="1.2" baseProfile="tiny" xmlns="http://www.w3.org/2000/svg" xmlns:xlink="http://www.w3.org/1999/xlink" x="0px"
	 y="0px" width="128px" height="128px" viewBox="0 0 128 128" xml:space="preserve">
<g id="_x31_28px_boxes">
	<rect fill="none" width="128" height="128"/>
</g>
<g id="Production">
	<g>
		<path fill="#ffffff" d="M50.6634,85.1606c-1.9275,2.5733-5.6897-0.0981-3.9422-3.2488
			c5.2723-9.5056,7.8703-17.7406,3.1499-27.7049c-2.2739-4.7956-5.507-8.2572-6.8071-8.3426
			c-1.9483-0.1279-18.0487,8.8687-19.7341,19.3349c-1.4196,8.7684,0.8876,13.5957,3.9944,18.167
			c1.8774,2.7597-1.6641,6.2738-4.0996,2.9674c-0.8583-1.1647-1.6364-2.4113-2.336-3.7169
			c0.2888,8.591-0.5754,14.7959,3.0501,22.9055c5.78,12.9314,28.5488,11.4502,31.07-4.6975
			c1.2039-7.7063-1.1857-12.4024-3.3244-17.1728C51.2717,84.3065,50.9205,84.817,50.6634,85.1606z"/>
		<path fill="#ffffff" d="M58.7759,40.9425c0.8514-13.6615-1.2771-24.703-15.3393-25.8263
			c-10.4995-0.839-26.1875,9.6162-27.6719,26.4053c-0.5061,5.7268-0.9363,11.501,1.2528,19.1386
			C19.09,46.6822,32.3538,36.3334,39.747,33.7973l1.5773-5.2013c0.5176-1.7071,2.3213-2.6715,4.0285-2.154
			c1.3888,0.4212,2.2852,1.6979,2.2928,3.0768l0.0256,5.6519c3.2312,2.5605,6.9695,7.3876,9.2555,13.6362
			c2.4875,6.8003,2.8096,13.5213,0.6935,21.2899c3.4748-6.6447,4.7912-13.2278,3.9115-19.6413
			C61.0851,47.2011,60.093,43.9658,58.7759,40.9425z"/>
		<path fill="#ffffff" d="M84.8985,44.2597c-1.8025-0.1967-8.4233,5.3951-11.2366,12.7115
			c-2.0674,5.3788-1.7732,11.182-0.3055,16.8034c0.5019,1.9224,1.8233,5.8682,1.8249,5.8762
			c0.6009,3.0751-3.2093,4.7081-4.5841,1.9908c-0.1938-0.383-0.4511-0.9471-0.7441-1.6638
			c-2.9343,4.3273-6.1028,8.5375-6.2544,16.3367c-0.3175,16.3398,21.8481,21.7489,29.7847,10.0165
			c4.9768-7.3576,5.2026-13.618,6.9775-22.0285c-0.9154,1.1643-1.8977,2.2567-2.9448,3.2551
			c-2.9753,2.8362-5.8453-1.2479-3.5237-3.6344c3.5923-3.429,5.4142-6.7943,6.365-11.1178c0.4127-1.8794,0.629-3.8375,0.7138-5.7366
			C101.4438,56.4736,86.9569,44.484,84.8985,44.2597z"/>
		<path fill="#ffffff" d="M89.8663,13.9131C75.66,12.5642,71.7188,23.3289,70.2256,37.1599
			c-0.2426,2.2511,0.0186,4.8752,0.5101,7.5924c3.3352-5.7572,7.8543-9.8624,11.4808-11.8236l1.0057-5.5615
			c0.3175-1.7557,1.9981-2.9211,3.7536-2.6039c1.4282,0.2583,2.4657,1.4229,2.6322,2.7918
			c0.2458,2.0387,0.4348,3.6052,0.6508,5.3966c6.3429,3.505,24.6133,20.186,14.8728,43.2143
			c4.2287-6.1285,6.9257-13.963,5.99-21.5117c0.8322-3.482,1.1375-6.714,1.4161-9.9353
			C113.9886,27.9272,100.352,14.9087,89.8663,13.9131z"/>
	</g>
</g>
</svg>

