<?xml version="1.0" encoding="utf-8"?>
<!-- Generator: Adobe Illustrator 18.1.1, SVG Export Plug-In . SVG Version: 6.00 Build 0)  -->
<svg version="1.2" baseProfile="tiny" xmlns="http://www.w3.org/2000/svg" xmlns:xlink="http://www.w3.org/1999/xlink" x="0px"
	 y="0px" width="128px" height="128px" viewBox="0 0 128 128" xml:space="preserve">
<g id="_x31_28px_boxes">
	<rect fill="none" width="128" height="128"/>
</g>
<g id="Production">
	<g>
		<path fill="#ffffff" d="M104.7361,82.0003c-3.4818-5.4756,5.3573-9.6066,2.6228-14.2107c-1.2295-2.07-4.5263-3.6311-7.6689-3.6311
			c-6.2712,0-8.1136,8.3872-13.5965,8.3872c-41.9265,0-41.7887-3.8507-60.7295-1.2403c-9.0197,1.3149-8.863,14.5241,0.0147,15.7347
			c19.0227,2.6215,18.0272-1.2295,60.9692-1.2295c12.5782,0,11.2378,14.7714,0.4394,18.9578
			c-2.4785,0.9611,0.4705,11.3642,9.6562,11.3642C109.7535,116.1321,113.1929,95.2996,104.7361,82.0003z M22.4783,79.1718
			c0.0004-4.3424,3.0804-4.108,7.4177-4.7055c-0.9764,2.809-0.9835,6.5814,0.0003,9.411
			C25.7113,83.3006,22.4783,83.5014,22.4783,79.1718z"/>
		<path fill="#ffffff" d="M107.2656,47.8404c-0.0661-1.8865-4.4289-3.4447-11.1437-4.3281
			c4.5874-1.8539,7.4783-3.8856,7.6714-6.0069c0.6382-7.0197-21.9551-16.0623-43.0667-19.4954
			c2.0448-2.6474-2.0182-5.6996-7.9932-6.0998c-5.7706-0.3875-10.3558,1.9077-9.2544,4.7116
			c-6.1123,0.1416-11.2593,1.1605-14.5056,3.3468c-8.3806,5.644-11.5166,24.3691-6.7939,30.6557
			C26.6922,56.6348,107.5272,55.2586,107.2656,47.8404z"/>
	</g>
</g>
</svg>
