<?xml version="1.0" encoding="utf-8"?>
<!-- Generator: Adobe Illustrator 17.1.0, SVG Export Plug-In . SVG Version: 6.00 Build 0)  -->
<!DOCTYPE svg [
	<!ENTITY ns_flows "http://ns.adobe.com/Flows/1.0/">
	<!ENTITY ns_extend "http://ns.adobe.com/Extensibility/1.0/">
	<!ENTITY ns_ai "http://ns.adobe.com/AdobeIllustrator/10.0/">
	<!ENTITY ns_graphs "http://ns.adobe.com/Graphs/1.0/">
]>
<svg version="1.2" baseProfile="tiny" xmlns:x="&ns_extend;" xmlns:i="&ns_ai;" xmlns:graph="&ns_graphs;"
	 xmlns="http://www.w3.org/2000/svg" xmlns:xlink="http://www.w3.org/1999/xlink" xmlns:a="http://ns.adobe.com/AdobeSVGViewerExtensions/3.0/"
	 x="0px" y="0px" width="128px" height="128px" viewBox="0 0 128 128" xml:space="preserve">
<g id="_x31_28px_boxes">
	<rect fill="none" width="128" height="128"/>
</g>
<g id="Production">
	<g>
		<path fill="#ffffff" d="M114.8791,65.5178c-1.8816,1.3777-4.3758,2.5243-7.8415,2.5243c-9.078,0-10.9077-7.4751-14.2872-7.4751
			c-3.3956,0-5.1754,7.4751-14.2869,7.4751c-9.1117,0-10.8906-7.4751-14.2871-7.4751c-3.3917,0-5.1826,7.4751-14.2874,7.4751
			c-9.112,0-10.8913-7.4751-14.2874-7.4751c-3.3956,0-5.176,7.4751-14.2873,7.4751c-3.5857,0-6.131-1.2275-8.0342-2.6686
			C6.6752,76.4882,23.3451,84.727,36.9527,88.0378c-4.0952,2.0234-6.5617,4.6301-6.5617,7.4759
			c0,6.4342,12.606,11.654,28.1673,11.654c15.5407,0,28.1668-5.2129,28.1668-11.654c0-2.1348-1.3888-4.1353-3.811-5.8558
			c19.484-3.0239,33.2977-10.5905,33.2977-19.4498C116.2118,68.5224,115.7167,66.9582,114.8791,65.5178z"/>
		<path fill="#ffffff" d="M28.7638,58.7464c1.6897-1.7566,3.4696-3.4184,6.8378-3.4184c7.1436,0,7.1436,7.475,14.2874,7.475
			c7.1436,0,7.1436-7.475,14.2874-7.475c7.1436,0,7.1436,7.475,14.2871,7.475c2.3866,0,3.9744-0.8359,5.2991-1.9471L57.8825,42.5512
			l4.2244-5.2147l3.9619,2.8657c0.5161,0.3733,1.2337,0.277,1.6335-0.2189l3.1699-3.9362c0.4229-0.5251,0.3291-1.2946-0.2072-1.7032
			l-3.7946-2.8876l3.5769-4.4156c0.8279-1.022,0.6635-2.5239-0.3652-3.3429L55.8129,12.339
			c-1.0046-0.7995-2.4637-0.6529-3.2889,0.3311l-4.0279,4.803l-4.3215-3.2888c-0.4991-0.3795-1.2067-0.3109-1.6228,0.1615
			l-3.8881,4.4149c-0.4653,0.5282-0.3759,1.3463,0.1967,1.7606l4.4065,3.1874L38.79,29.0473l-3.172-2.2435
			c-0.6447-0.6068-2.3005-1.9054-4.6658-1.9054c-2.3347,0-4.5081,1.2097-6.4596,3.5951c-3.8792,4.7414-5.3967,9.8608-4.5109,15.2162
			C20.9882,49.7941,24.9797,55.0166,28.7638,58.7464z"/>
		<ellipse fill="#ffffff" cx="87.7566" cy="111.7865" rx="9.0953" ry="4.3896"/>
	</g>
</g>
</svg>
