<?xml version="1.0" encoding="utf-8"?>
<!-- Generator: Adobe Illustrator 19.1.0, SVG Export Plug-In . SVG Version: 6.00 Build 0)  -->
<svg version="1.2" baseProfile="tiny" xmlns="http://www.w3.org/2000/svg" xmlns:xlink="http://www.w3.org/1999/xlink" x="0px"
	 y="0px" width="64px" height="64px" viewBox="0 0 64 64" xml:space="preserve">
<g id="box">
	<rect fill="none" width="64" height="64"/>
</g>
<g id="Production">
	<g>
		<path fill="#ffffff" d="M13.9941,31.801c2.4907,2.0873,5.8071,3.1559,9.1812,3.1559c0.9182,0,1.84-0.0853,2.7515-0.2447
			c-0.0532-0.6641-0.1464-1.3289-0.2653-1.9933c-3.7135,0.6577-7.6835-0.1821-10.3793-2.441
			c-3.1191-2.6136-3.7822-5.5406-4.6216-9.2462C9.8145,17.2971,8.7749,12.7075,4.7749,7.298
			c3.5576-1.0992,14.1431-3.4315,23.709,3.8489c4.4512,3.3878,6.7544,7.6027,6.4858,11.8686
			c-0.1804,2.8591-1.5427,5.4561-3.7046,7.2298c0.1683,0.7191,0.3159,1.4401,0.4252,2.1634c3.076-2.1045,5.0374-5.496,5.2755-9.2683
			c0.3115-4.9502-2.269-9.7711-7.2671-13.5748c-7.5224-5.7247-15.461-6.0095-20.7613-5.2568
			C4.8106,4.8949,2.543,5.9854,1.543,6.4102c4.3299,5.4198,5.6477,8.3547,7.1665,15.0595
			C9.5952,25.3793,10.3604,28.7554,13.9941,31.801z"/>
		<path fill="#ffffff" d="M57.8433,22.7303l-0.7109-1.0874l-0.8636,0.9697c-3.5583,3.9941-6.8051,5.3442-9.6695,6.5347
			c-2.7522,1.144-5.3517,2.2251-7.2115,5.4102c-1.7468,2.9911-1.8091,6.9031-0.3616,10.2172
			c0.6117-0.2845,1.2061-0.5897,1.7804-0.9146c-1.1353-2.7142-1.0857-5.9189,0.2996-8.291c1.5215-2.606,3.6104-3.4746,6.2551-4.5737
			c2.6695-1.1099,5.9376-2.4683,9.441-6.0327c1.3498,2.7202,4.1068,9.9609,0.0627,17.7021
			c-1.9313,3.6968-4.7419,5.9292-7.9142,6.2847c-1.3752,0.1555-2.7304-0.0732-3.9466-0.6114
			c-0.6511,0.4148-1.3229,0.8116-2.0208,1.1856c1.7931,1.1283,3.9553,1.6654,6.1886,1.4136c3.8497-0.4321,7.2082-3.04,9.457-7.3438
			C64.2729,32.7899,58.1083,23.1361,57.8433,22.7303z"/>
		<path fill="#ffffff" d="M53.6533,36.3304l-1.7959-0.8809c-3.27,6.6701-13.307,14.9097-25.8226,13.3494
			c1.6813-2.3454,2.8621-4.9675,3.4716-7.8253c1.8315-8.5918-1.6006-18.2061-8.9575-25.0898l-1.3662,1.46
			c6.8477,6.4082,10.0542,15.3027,8.3677,23.2129c-1.5581,7.3057-7.2246,12.9868-15.9565,15.998l0.6523,1.8906
			c5.1719-1.7834,9.3442-4.4627,12.3456-7.8392c1.5347,0.2601,3.0382,0.3889,4.5029,0.3889
			C41.0288,50.995,50.4102,42.9452,53.6533,36.3304z"/>
	</g>
</g>
</svg>

