<?xml version="1.0" encoding="utf-8"?>
<!-- Generator: Adobe Illustrator 17.1.0, SVG Export Plug-In . SVG Version: 6.00 Build 0)  -->
<!DOCTYPE svg [
	<!ENTITY ns_flows "http://ns.adobe.com/Flows/1.0/">
	<!ENTITY ns_extend "http://ns.adobe.com/Extensibility/1.0/">
	<!ENTITY ns_ai "http://ns.adobe.com/AdobeIllustrator/10.0/">
	<!ENTITY ns_graphs "http://ns.adobe.com/Graphs/1.0/">
]>
<svg version="1.2" baseProfile="tiny" xmlns:x="&ns_extend;" xmlns:i="&ns_ai;" xmlns:graph="&ns_graphs;"
	 xmlns="http://www.w3.org/2000/svg" xmlns:xlink="http://www.w3.org/1999/xlink" xmlns:a="http://ns.adobe.com/AdobeSVGViewerExtensions/3.0/"
	 x="0px" y="0px" width="128px" height="128px" viewBox="0 0 128 128" xml:space="preserve">
<g id="_x31_28px_boxes">
	<rect fill="none" width="128" height="128"/>
</g>
<g id="Production">
	<g>
		<path fill="#ffffff" d="M52.25,51.7623c0-1.8158-1.4193-3.2373-3.2345-3.2373H35.3109C33.4945,48.525,32,49.9465,32,51.7623
			v6.0127h20.25V51.7623z"/>
		<path fill="#ffffff" d="M75.75,51.7623v6.0127h20.5v-6.0127c0-1.8158-1.5138-3.2373-3.3295-3.2373H79.2159
			C77.4003,48.525,75.75,49.9465,75.75,51.7623z"/>
		<path fill="#ffffff" d="M103.375,62.275h-78.75c-1.7258,0-3.125,1.3991-3.125,3.125v46.75c0,1.7257,1.3992,3.125,3.125,3.125
			h78.75c1.7258,0,3.125-1.3993,3.125-3.125V65.4C106.5,63.6741,105.1008,62.275,103.375,62.275z M52,90.775H32v-6.5h20V90.775z
			 M97.5,90.775h-8.25v8.25h-6.5v-8.25H74.5v-6.5h8.25v-8.25h6.5v8.25h8.25V90.775z"/>
		<path fill="#ffffff" d="M57.633,36.775h6.7409l-4.8151,12.4848c-0.7348,1.9031,1.9307,3.2535,3.2306,1.7149l17.3255-20.5703
			c0.9936-1.1768,0.0564-2.8794-1.4689-2.8794h-6.7398l4.8139-12.4458c0.7351-1.8978-1.9411-3.216-3.2305-1.6821L56.1645,33.9603
			C55.2056,35.0956,56.0386,36.775,57.633,36.775z"/>
	</g>
</g>
</svg>
