<?xml version="1.0" encoding="utf-8"?>
<!-- Generator: Adobe Illustrator 18.1.1, SVG Export Plug-In . SVG Version: 6.00 Build 0)  -->
<svg version="1.2" baseProfile="tiny" xmlns="http://www.w3.org/2000/svg" xmlns:xlink="http://www.w3.org/1999/xlink" x="0px"
	 y="0px" width="64px" height="64px" viewBox="0 0 64 64" xml:space="preserve">

<g id="Production">
	<g>
		<path fill="#ffffff" d="M8,9v14h2v32h44V23h2V9H8z M52,53H12V23h40V53z M54,21H10V11h44V21z"/>
		<path fill="#ffffff" d="M25.5,34h13c1.9297,0,3.5-1.5703,3.5-3.5S40.4297,27,38.5,27h-13c-1.9297,0-3.5,1.5703-3.5,3.5
			S23.5703,34,25.5,34z M25.5,29h13c0.8271,0,1.5,0.6729,1.5,1.5S39.3271,32,38.5,32h-13c-0.8271,0-1.5-0.6729-1.5-1.5
			S24.6729,29,25.5,29z"/>
	</g>
</g>
</svg>
