<?xml version="1.0" encoding="utf-8"?>
<!-- Generator: Adobe Illustrator 18.1.0, SVG Export Plug-In . SVG Version: 6.00 Build 0)  -->
<svg version="1.2" baseProfile="tiny" xmlns="http://www.w3.org/2000/svg" xmlns:xlink="http://www.w3.org/1999/xlink" x="0px"
	 y="0px" width="64px" height="64px" viewBox="0 0 64 64" xml:space="preserve">
<g id="_x36_4px_boxes">
	<rect fill="none" width="64" height="64"/>
</g>
<g id="Production">
	<g>
		<path fill="#ffffff" d="M38.8975,30c-1.0813,0-2.9062,0-5.8975,0v-8h-5v13c3,0,10,0,13,0v-5c-0.2761,0-0.5089,0-0.7227,0
			C39.3052,30,38.9343,30,38.8975,30z"/>
		<path fill="#ffffff" d="M50.7804,30C50.2117,25,48,21.1609,45,18.0071V9.4839C45,5.9,42.0325,3,38.4484,3H22.4479
			C18.8638,3,16,5.9,16,9.4839v8.5233c-8,8.011-8,20.9369,0,28.953v8.5233C16,59.0673,18.8638,62,22.4479,62h16.0005
			C42.0325,62,45,59.0673,45,55.4834v-8.5233C48,43.8064,50.2117,40,50.7804,35H55v-5H50.7804z M40,55.4834
			C40,56.3105,39.2756,57,38.4484,57H22.4479C21.6208,57,21,56.3105,21,55.4834v-4.8507c6,3.1335,13,3.138,19,0V55.4834z
			 M39.9614,44.7045c-5.5807,4.348-13.3353,4.3984-18.981-0.0001C12.9234,38.4273,13,26.4234,21,20.2628v-3.0475v-2.8807
			c0-1.8282,0-2.7427,0-3.17c0-0.253,0-0.3371,0-0.3337c0-0.252,0-0.67,0-1.347C21,8.6567,21.6208,8,22.4479,8h16.0005
			C39.2756,8,40,8.6567,40,9.4839v4.8507c-5-2.3408-10-3.0338-15-1.5594c0,1.8868,0,3.2834,0,5.2551
			c5-1.9755,10.7604-1.0505,14.9744,2.2325C47.9469,26.474,47.9586,38.4741,39.9614,44.7045z"/>
	</g>
</g>
</svg>

