<?xml version="1.0" encoding="utf-8"?>
<!-- Generator: Adobe Illustrator 18.1.1, SVG Export Plug-In . SVG Version: 6.00 Build 0)  -->
<svg version="1.2" baseProfile="tiny" xmlns="http://www.w3.org/2000/svg" xmlns:xlink="http://www.w3.org/1999/xlink" x="0px"
	 y="0px" width="128px" height="128px" viewBox="0 0 128 128" xml:space="preserve">
<g id="box">
	<rect fill="none" width="128" height="128"/>
</g>
<g id="Production">
	<g>
		<path fill="#ffffff" d="M62.0596,34.8676c-2.8557,0-5.1978,1.2175-5.2322,2.7367c-0.0362,1.5265,2.2897,2.8045,5.2327,2.804
			c2.9308,0,5.2677-1.268,5.2321-2.804C67.2583,36.0851,64.9148,34.8676,62.0596,34.8676z"/>
		<path fill="#ffffff" d="M108.813,72.3231c-5.7779-4.1708-11.8873-8.2163-11.9309-19.0079c0-0.02,0-0.0463,0.0005-0.077
			l0.0007-0.0101c0-16.196,0.0527-14.8523-0.0901-15.8705c-1.4785-10.5808-16.9795-18.5195-34.7331-18.5195
			c-14.3878,0-34.7654,6.5786-34.7654,18.7806c-0.0727,0-0.0488,18.4916-0.0488,18.5643c-0.0057,3.6521-0.7752,6.3257-1.8992,8.5275
			c-2.6781,5.2335-7.6331,7.8336-10.3748,11.4673c-3.8015,4.9957-1.7653,12.6566,6.472,14.4597
			c6.0311,1.3114,14.3226-0.2925,20.2607-0.2764c4.0015-0.0138,5.7348,0.477,9.4646,3.8831
			c4.4414,4.0038,9.2317,10.1043,14.5288,13.106c5.9093,3.3351,12.1618,2.233,15.4729-4.5965
			c1.8905-3.9535,2.6413-8.7165,4.4402-11.3701c2.6565-3.9201,9.3417-1.6564,17.2939-1.6335
			c4.9016-0.0126,9.112-1.1527,11.17-5.5223C116.7967,78.3842,112.3852,74.9605,108.813,72.3231z M62.0601,53.0825
			c-16.3854,0-28.4673-7.3759-27.3836-15.4782c0.9268-7.7344,13.1619-13.6306,27.3836-13.6306
			c14.2204,0,26.4548,5.8959,27.382,13.6306C90.4366,45.8915,78.2199,53.0825,62.0601,53.0825z"/>
		<path fill="#ffffff" d="M62.0591,27.2059c-11.0073,0.0002-20.3412,4.6769-20.5916,10.6611
			c-0.2771,6.0653,8.8262,11.1777,20.5921,11.1777c11.9361,0,21.137-5.2608,20.5803-11.4404
			C82.113,31.7414,72.9085,27.2059,62.0591,27.2059z M62.0601,44.2554c-6.954,0-12.404-3.0361-12.2098-6.6511
			c0.1875-3.514,5.6519-6.285,12.2098-6.2853c6.5571,0,12.0212,2.7705,12.2082,6.2853
			C74.5126,42.2008,66.9636,44.2554,62.0601,44.2554z"/>
	</g>
</g>
</svg>
