<?xml version="1.0" encoding="utf-8"?>
<!-- Generator: Adobe Illustrator 18.1.1, SVG Export Plug-In . SVG Version: 6.00 Build 0)  -->
<svg version="1.2" baseProfile="tiny" xmlns="http://www.w3.org/2000/svg" xmlns:xlink="http://www.w3.org/1999/xlink" x="0px"
	 y="0px" width="64px" height="64px" viewBox="0 0 64 64" xml:space="preserve">

<g id="Production">
	<g>
		<path fill="#ffffff" d="M38,46.0015V6c0-3.3086-2.6914-6-6-6s-6,2.6914-6,6v40.0015c-2.5146,1.8872-4,4.8379-4,7.9985
			c0,5.5142,4.4858,10,10,10s10-4.4858,10-10C42,50.8389,40.5146,47.8882,38,46.0015z M32,62c-4.4111,0-8-3.5889-8-8
			c0-2.7201,1.2187-5.0833,4-6.9487V6c0-2.2056,1.7944-4,4-4s4,1.7944,4,4v41.0513c2.7777,1.861,4,4.2255,4,6.9487
			C40,58.4111,36.4111,62,32,62z"/>
		<path fill="#ffffff" d="M33,50.1414V19h-2v31.1414c-1.7222,0.4461-3,1.9969-3,3.8586c0,2.2092,1.7909,4,4,4c2.2092,0,4-1.7908,4-4
			C36,52.1382,34.7222,50.5875,33,50.1414z"/>
	</g>
</g>
</svg>
