<?xml version="1.0" encoding="utf-8"?>

<svg version="1.2" baseProfile="tiny" xmlns="http://www.w3.org/2000/svg" xmlns:xlink="http://www.w3.org/1999/xlink" x="0px"
	 y="0px" width="128px" height="128px" viewBox="0 0 128 128" xml:space="preserve">
<g id="_x31_28px_boxes">
	<rect fill="none" width="128" height="128"/>
</g>
<g id="Production">
	<g>
		<rect x="34.1342" y="14.8608" fill="#ffffff" width="7.5" height="17.7732"/>
		<rect x="45.8542" y="14.8608" fill="#ffffff" width="3" height="17.7732"/>
		<rect x="52.1281" y="14.8608" fill="#ffffff" width="7.5" height="17.7732"/>
		<rect x="64.2889" y="14.8608" fill="#ffffff" width="2.75" height="17.7732"/>
		<rect x="71.9371" y="14.8608" fill="#ffffff" width="4.5" height="17.7732"/>
		<rect x="79.9476" y="14.8608" fill="#ffffff" width="3" height="17.7732"/>
		<rect x="88.2333" y="14.8608" fill="#ffffff" width="6" height="17.7732"/>
		<path fill="#ffffff" d="M100.3227,33.7866L82.07,54.2773H45.5967L27.6955,33.8072c-2.6088-2.9838-7.1296,0.9617-4.5166,3.9497
			l16.152,18.4698c-6.2209,3.4663-7.5453,10.3907-0.7047,15.9685c9.2043,7.5057,16.2767,7.6909,14.1188,15.3718
			c-3.3147,13.7919-3.4898,13.7127-3.1667,15.6056c0.8899,5.2108,7.2285,9.6738,14.6716,9.9666
			c7.4431-0.2928,13.7818-4.7558,14.6717-9.9666c0.3222-1.8878,0.1525-1.7949-3.1668-15.6056
			c-2.1578-7.6809,4.9146-7.8661,14.1188-15.3718c7.0358-5.737,5.4352-12.8989-1.2477-16.2572l16.177-18.1605
			C107.4397,34.8174,102.9627,30.8238,100.3227,33.7866z M64.2502,77.0526c-3.2241,0-5.8375-2.6137-5.8375-5.8373
			c0-3.2238,2.6134-5.8374,5.8375-5.8374c3.2236,0,5.837,2.6136,5.837,5.8374C70.0872,74.4389,67.4738,77.0526,64.2502,77.0526z"/>
	</g>
</g>
</svg>
