<?xml version="1.0" encoding="utf-8"?>
<!-- Generator: Adobe Illustrator 18.1.1, SVG Export Plug-In . SVG Version: 6.00 Build 0)  -->
<svg version="1.2" baseProfile="tiny" xmlns="http://www.w3.org/2000/svg" xmlns:xlink="http://www.w3.org/1999/xlink" x="0px"
	 y="0px" width="128px" height="128px" viewBox="0 0 128 128" xml:space="preserve">
<g id="_x31_28px_boxes">
	<rect fill="none" width="128" height="128"/>
</g>
<g id="Production">
	<g>
		<path fill="#ffffff" d="M11.2227,96.4423c-7.8404,11.1981,9.1045,23.0736,16.9485,11.8711
			c0.0933-0.1328,19.594-27.9834,19.594-27.9834L35.2886,62.05C35.2886,62.05,11.3995,96.1904,11.2227,96.4423z"/>
		<circle fill="#ffffff" cx="77.0457" cy="26.1951" r="3.7472"/>
		<path fill="#ffffff" d="M83.5247,88.8005l35.2749-50.3777L81.1468,12.0089c-4.2279-2.9601-9.9924-1.8693-12.8938,2.2735
			L38.1055,57.3377l18.605,27.932l13.4929,9.482l0.0003,0.0002c5.44,3.9234-0.3659,10.4363-0.3659,16.3447
			c-0.8162,8.7612,14.0724,8.7564,13.246,0c0-5.3117-6.6698-12.1128,0.4404-22.2954L83.5247,88.8005z M54.1573,45.5329
			c1.8576,5.2014,8.515,6.8516,12.3965,2.9984c4.7183-4.6828,1.1849-12.8432-5.4797-12.8768l12.4034-17.7137
			c0.8951-1.2783,2.6852-1.6357,4.0114-0.7071l29.5053,20.703c-4.9755-0.1798-8.1635,1.5847-10.5857,4.9319
			c-3.4019-2.7915-8.523-2.7466-11.7041,0.1959c-5.094,4.7117-1.8009,12.9434,5.3702,13.7089
			c-3.6674,7.1105-12.0523,17.0891-17.8576,9.8325c-1.7282-2.1602-0.5017-5.6823-2.0041-8.1986
			c-3.5954-6.0202-12.1788-1.671-10.7465,5.4888c1.0029,5.0136,6.7384,3.6207,8.7424,6.9001
			c1.8965,3.1035-0.634,7.7327-4.466,7.3763c-4.0314-0.4921-6.3421-3.4677-9.9383-8.7705l-7.976-11.9744L54.1573,45.5329z"/>
	</g>
</g>
</svg>
