<?xml version="1.0" encoding="utf-8"?>
<!-- Generator: Adobe Illustrator 18.1.1, SVG Export Plug-In . SVG Version: 6.00 Build 0)  -->
<svg version="1.2" baseProfile="tiny" xmlns="http://www.w3.org/2000/svg" xmlns:xlink="http://www.w3.org/1999/xlink" x="0px"
	 y="0px" width="128px" height="128px" viewBox="0 0 128 128" xml:space="preserve">
<g id="_x31_28px_boxes">
	<rect fill="none" width="128" height="128"/>
</g>
<g id="Production">
	<g>
		<path fill="#ffffff" d="M34.9629,73.973V37.3817h58.0752V73.973h10.6196V29.4281c0-1.5357-1.2451-2.7808-2.7808-2.7808H27.124
			c-1.5361,0-2.7813,1.2451-2.7813,2.7808V73.973H34.9629z"/>
		<path fill="#ffffff" d="M23.8306,78.8347L13.3091,87.632c-0.0245,0.02-0.0484,0.041-0.0718,0.0621
			c-5.3992,4.8386-2.8068,13.6586,4.5947,13.6586h92.3369c7.4056,0,9.9895-8.8231,4.5948-13.6586
			c-0.024-0.0211-0.0479-0.0421-0.0723-0.0621l-10.521-8.7973H23.8306z M77.4292,95.1623H50.5723c-3.303,0-3.3082-5,0-5h26.8569
			C80.7313,90.1623,80.7381,95.1623,77.4292,95.1623z"/>
		<path fill="#ffffff" d="M55.3604,74.3347l7.5361-7.9279c1.4121-1.4861,1.6377-3.7364,0.5483-5.472
			c-2.4462-3.9077,0.515-6.4286,3.061-3.6926c0.0147,0.0159,0.0298,0.0314,0.0457,0.0463l8.75,8.3157
			c0.3816,0.3629,0.9851,0.3472,1.3472-0.0342l1.3325-1.4018c0.302-0.3175,0.3484-0.8,0.1128-1.1693l-4.3652-6.8413l7.0549,4.0118
			c0.3803,0.2166,0.8601,0.1456,1.1619-0.1719l1.5102-1.5889c0.3629-0.3815,0.3476-0.9849-0.0342-1.3474L72.21,46.4051
			c-9.2587-8.8006-24.5868-0.0852-17.9698,16.0895L42.9849,74.3347H55.3604z"/>
	</g>
</g>
</svg>
