<?xml version="1.0" encoding="utf-8"?>
<!-- Generator: Adobe Illustrator 18.1.1, SVG Export Plug-In . SVG Version: 6.00 Build 0)  -->
<svg version="1.2" baseProfile="tiny" xmlns="http://www.w3.org/2000/svg" xmlns:xlink="http://www.w3.org/1999/xlink" x="0px"
	 y="0px" width="128px" height="128px" viewBox="0 0 128 128" xml:space="preserve">
<g id="_x31_28px_boxes">
	<rect fill="none" width="128" height="128"/>
</g>
<g id="Production">
	<g>
		<path fill="#ffffff" d="M64.0001,55.19c-7.8197,0-14.1581,6.5049-14.1581,14.5288s6.3384,16.8546,14.1581,16.8546
			c7.819,0,14.1584-8.8307,14.1584-16.8546S71.8191,55.19,64.0001,55.19z"/>
		<path fill="#ffffff" d="M127.2152,35.1835c-1.1124-1.1594-3.9105-0.8815-6.1426-1.1556
			c-12.201-1.4966-12.3854-11.5632-25.4307-11.5632c-4.0593,0-59.2241,0-63.2832,0c-13.0686,0-13.2172,10.0651-25.4308,11.5632
			c-2.0771,0.2551-5.0428,0.0092-6.1426,1.1556c-1.3911,1.4486-1.2486,5.0818,2.8097,6.329
			c-0.7011,2.9749,0.3156,4.7506,3.2385,5.6486c-0.6883,2.9278,0.267,4.734,3.2377,5.6495
			c-1.9373,8.2132,8.4508,5.6474,13.3566-1.4913c1.665,18.2281,6.9219,36.5,15.1976,54.216h50.7497
			c8.2756-17.716,13.5327-35.9879,15.1975-54.216c5.0702,7.3777,15.2614,9.5593,13.3566,1.4913
			c2.9601-0.9119,3.9291-2.7109,3.2376-5.6495c2.928-0.8994,3.9388-2.6784,3.2388-5.6486
			C128.4654,40.2646,128.6042,36.6297,127.2152,35.1835z M78.6251,31.8033l2.9702-0.0215l0.9785-2.8534
			c0.2895-0.8445,1.4879-0.8444,1.7773,0.0002l0.9783,2.8532l2.9704,0.0216c0.8897,0.0065,1.2721,1.1372,0.5689,1.6823
			l-2.3845,1.8483l0.8621,2.8119c0.2596,0.8463-0.694,1.55-1.4263,1.0526l-2.4576-1.6691l-2.457,1.6691
			c-0.7278,0.4948-1.6869-0.2043-1.4263-1.0525l0.8619-2.812l-2.3848-1.8486C77.353,32.9403,77.7355,31.8097,78.6251,31.8033z
			 M59.1625,31.8033l2.9702-0.0215l0.9788-2.8534c0.2897-0.8448,1.4881-0.8444,1.7777,0.0003l0.9775,2.8531l2.9707,0.0216
			c0.8895,0.0065,1.2718,1.1374,0.5686,1.6823l-2.3845,1.8483l0.8621,2.812c0.2593,0.8451-0.6949,1.5489-1.4263,1.0525
			l-2.457-1.6691l-2.4574,1.6691c-0.727,0.4946-1.6872-0.2005-1.4264-1.0525l0.8618-2.812l-2.3846-1.8486
			C57.8926,32.9417,58.2717,31.8097,59.1625,31.8033z M39.7003,31.8033l2.9705-0.0215l0.9787-2.8534
			c0.2902-0.8465,1.4874-0.8462,1.7776,0.0003l0.9777,2.8531l2.9703,0.0216c0.887,0.0065,1.2726,1.1364,0.5688,1.6823
			l-2.3846,1.8483l0.862,2.8119c0.2605,0.8485-0.6983,1.5478-1.4263,1.0526l-2.4568-1.6693l-2.458,1.6693
			c-0.7322,0.4974-1.6857-0.2062-1.4261-1.0525l0.862-2.812l-2.3847-1.8486C38.4303,32.9417,38.8095,31.8097,39.7003,31.8033z
			 M64.0003,94.5341c-17.8335,0-25.15-25.6698-27.8561-48.1086c5.0191,0,50.6932,0,55.712,0
			C89.1502,68.8643,81.8335,94.5341,64.0003,94.5341z"/>
	</g>
</g>
</svg>
