<?xml version="1.0" encoding="utf-8"?>
<!-- Generator: Adobe Illustrator 18.1.1, SVG Export Plug-In . SVG Version: 6.00 Build 0)  -->
<svg version="1.2" baseProfile="tiny" xmlns="http://www.w3.org/2000/svg" xmlns:xlink="http://www.w3.org/1999/xlink" x="0px"
	 y="0px" width="128px" height="128px" viewBox="0 0 128 128" xml:space="preserve">
<g id="_x31_28px_boxes">
	<rect fill="none" width="128" height="128"/>
</g>
<g id="Production">
	<g>
		<path fill="#ffffff" d="M61.5007,48.2512L27.5952,76.6116c0.3204,2.2661,0.8257,4.4631,1.5083,6.5605l36.2468-30.3188
			C68.3911,50.3099,64.5448,45.7053,61.5007,48.2512z"/>
		<path fill="#ffffff" d="M49.9984,71.5188L30.8563,87.5513c0.8916,1.8538,1.9385,3.5964,3.1312,5.2039L53.851,76.1184
			C56.8896,73.5736,53.0416,68.9698,49.9984,71.5188z"/>
		<path fill="#ffffff" d="M77.6549,75.4856c-1.7953,17.4795-13.3814,31.009-27.3634,31.009
			c-15.222,0-27.6061-16.0356-27.6061-35.7463S35.0695,35.002,50.2915,35.002c13.1915,0,24.2498,12.0437,26.9658,28.0847
			c4.6337-1.3563,7.6029-0.9199,9.6364-5.2847c-4.3388-18.2153-18.322-33.3-36.6022-33.3c-21.5395,0-38.1061,21.19-38.1061,46.2463
			c0,25.0691,16.5767,46.2463,38.1061,46.2463c19.1289,0,33.8392-16.5744,37.2952-36.6887
			C85.3295,76.0039,82.4202,76.5676,77.6549,75.4856z"/>
		<path fill="#ffffff" d="M75.8442,28.0552c6.5015,0.9072,8.1914,2.9348,9.0575,11.7966c0.0367,0.2954,0.7762,1.4636,1.7049,1.5068
			c0.9696-0.0453,1.6396-1.1613,1.7048-1.5068c0.9873-10.1028,2.7003-11.2295,8.5571-12.0468c2.2961-0.3203,2.3454-3.1696,0-3.4966
			c-6.6981-0.9344-7.9469-2.9927-8.8072-11.7967c-0.0338-0.2488-0.697-1.459-1.7048-1.5063
			c-0.788,0.0361-1.6495,0.9626-1.7049,1.5063c-1.0015,10.2476-3.1669,11.26-8.8074,12.0469
			C73.5313,24.8808,73.5258,27.7319,75.8442,28.0552z"/>
		<path fill="#ffffff" d="M112.9142,66.1533c-10.781-1.0124-13.5487-6.03-15.5584-20.0502
			c-0.6276-3.4437-3.687-2.7739-3.8536,0.1733C92.638,62.7395,88.251,65.5015,79.2855,67.166
			c-3.7956,0.7039-3.5049,3.6459,0.1796,3.992c10.4645,0.9831,13.5354,5.938,15.5586,20.0503
			c0.4762,2.799,3.3359,3.46,3.8536-0.1734c0.8521-16.2309,4.9072-19.1609,14.2164-20.8896
			C116.8393,69.4501,116.6593,66.505,112.9142,66.1533z"/>
	</g>
</g>
</svg>
