<?xml version="1.0" encoding="utf-8"?>

<svg version="1.2" baseProfile="tiny" xmlns="http://www.w3.org/2000/svg" xmlns:xlink="http://www.w3.org/1999/xlink" x="0px"
	 y="0px" width="64px" height="64px" viewBox="0 0 64 64" xml:space="preserve">

<g id="Production">
	<g>
		<circle fill="#ffffff" cx="18.9998" cy="56.9915" r="4.9999"/>
		<circle fill="#ffffff" cx="50.9995" cy="56.9925" r="5.0009"/>
		<path fill="#ffffff" d="M18.6077,10c-1.1121-3-4.4666-6-8.3079-6H1v5h9.2998C12.27,9,14,10.6064,14,12.4462v28.5164
			C14,45.54,17.5674,49,22.3,49H56v-5H22.3c-2.0054,0-3.3-1.1972-3.3-3.0375V14.99h35.5979c-0.3853,5-0.9512,11.8892-1.2163,13.6416
			c-0.2739,1.8087-1.9785,3.1351-4.4509,3.4736C46.1353,32.488,32,34.1579,25,34.9557v5.036c6-0.7586,21.6509-2.5345,24.6089-2.9393
			c4.6858-0.6416,8.1069-3.6557,8.7163-7.6834C58.7668,26.451,59.7778,13,59.9888,10H18.6077z"/>
	</g>
</g>
</svg>
