<?xml version="1.0" encoding="utf-8"?>
<!-- Generator: Adobe Illustrator 18.1.1, SVG Export Plug-In . SVG Version: 6.00 Build 0)  -->
<svg version="1.2" baseProfile="tiny" xmlns="http://www.w3.org/2000/svg" xmlns:xlink="http://www.w3.org/1999/xlink" x="0px"
	 y="0px" width="128px" height="128px" viewBox="0 0 128 128" xml:space="preserve">
<g id="_x31_28px_boxes">
	<rect fill="none" width="128" height="128"/>
</g>
<g id="Production">
	<g>
		<path fill="#ffffff" d="M58.6526,56.9529c2.5514-0.8449,5.1586-1.5562,7.8069-2.1265c-2.8384-4.9162-8.63-11.5762-19.8789-14.7414
			L35.0018,28.5062c2.3026-10.407-10.4579-17.4469-18.0144-9.8899c-7.5644,7.5635-0.5044,20.3141,9.8899,18.0145l11.4682,11.4681
			C38.3455,48.0989,50.623,48.9728,58.6526,56.9529z"/>
		<path fill="#ffffff" d="M71.0866,53.9803c2.4044-0.3636,4.8562-0.6184,7.4331-0.7442
			c-2.4709-7.2072-8.085-14.2426-16.1787-18.3751c-3.9435,0.2-7.5352,1.1778-10.2754,2.3043
			C64.794,42.0468,70.0485,51.8032,71.0866,53.9803z"/>
		<path fill="#ffffff" d="M83.2079,53.1617c3.2983,0.0553,6.5552,0.3408,9.7421,0.8537c-0.8864-2.0985-1.9948-4.0802-3.2948-5.9166
			l11.4682-11.4681c10.4084,2.3028,17.4467-10.4583,9.8902-18.0144c-7.564-7.5644-20.3147-0.5046-18.0146,9.89L81.4192,40.086
			c-2.9204-1.9497-6.1854-3.4232-9.6849-4.3093C77.5585,40.7158,81.6501,47.423,83.2079,53.1617z"/>
		<path fill="#ffffff" d="M90.1427,83.6473c1.0477-1.569,1.5517-2.5166,2.1808-3.8247
			c-9.5915,1.6884-19.1636,5.6906-27.3923,11.8008c-2.0568,0.0737-4.1906-0.0826-6.469-0.5879
			c10.1196-8.7223,22.8493-14.3186,35.7098-16.053c0.489-1.6835,0.8783-3.4589,1.0922-5.7359
			C78.12,68.1134,60.4124,74.2429,47.4224,85.4882c-1.0323-0.8902-2.0799-1.9258-3.144-3.2279
			C58.6667,69.7031,77.717,63.6268,95.3768,64.7438c-0.0935-2.0113-0.3769-3.9727-0.8315-5.8678
			c-18.6902-3.7481-39.9018,1.2125-55.2071,13.5298c-0.4117-1.6605-0.6566-3.3741-0.727-5.1217
			c4.0026-2.7522,7.2267-5.2745,15.2708-8.5672c-4.5471-3.6689-10.9712-5.8583-18.0761-6.3492
			c-5.1113,10.3772-3.9188,22.341,2.0519,31.2801c-3.5053,3.5053-24.7731,23.5354-20.0925,28.2163
			c4.6832,4.6822,24.7348-16.6102,28.1055-19.9809c7.9536,5.6291,22.8229,9.5124,36.2592-0.0001
			c3.4551,3.4551,23.3637,24.7222,28.105,19.9815C114.9269,107.1721,93.5707,87.0754,90.1427,83.6473z"/>
	</g>
</g>
</svg>
