<?xml version="1.0" encoding="utf-8"?>
<!-- Generator: Adobe Illustrator 18.1.1, SVG Export Plug-In . SVG Version: 6.00 Build 0)  -->
<svg version="1.2" baseProfile="tiny" xmlns="http://www.w3.org/2000/svg" xmlns:xlink="http://www.w3.org/1999/xlink" x="0px"
	 y="0px" width="128px" height="128px" viewBox="0 0 128 128" xml:space="preserve">
<g id="_x31_28px_boxes">
	<rect fill="none" width="128" height="128"/>
</g>
<g id="Production">
	<g>
		<path fill="#ffffff" d="M110.8445,65.0688c0-9.1613-7.2212-16.6342-16.2823-17.0426
			c3.0239-15.3435-8.6763-29.7117-24.3989-29.7117c-11.4663,0-21.1181,7.7596-23.9961,18.314
			c-14.6806-3.8484-29.0117,7.2401-29.0117,22.3745c0,9.7604,6.0461,18.1078,14.597,21.5038
			c2.1962,16.6412,16.4906,29.1787,33.3185,29.1787c15.8552,0,30.3127-11.3131,33.1074-28.1279
			C105.4708,79.6177,110.8445,72.9724,110.8445,65.0688z M65.071,102.8489c-20.2329,0-33.3138-21.7538-23.4101-39.6999
			l-3.8408-2.377c-1.4131-0.8743-1.3196-2.967,0.1697-3.7102l15.8818-7.9221c1.4157-0.7063,3.0752,0.3294,3.075,1.9026
			l-0.0028,17.7484c-0.0002,1.6743-1.8401,2.6765-3.2446,1.8077l-3.9803-2.4632c-6.0138,11.6137,2.482,25.2632,15.3521,25.2632
			c7.5283,0,14.5762-4.999,16.6712-12.8074c1.196-4.4585,0.5844-9.1157-1.7222-13.1142c-3.479-6.0302-10.3245-9.4257-17.256-8.4977
			l0.0258-9.5034c10.3573-0.881,20.2816,4.3788,25.4161,13.2788c3.568,6.1847,4.514,13.389,2.6638,20.2853
			C87.6248,95.1343,76.7243,102.8489,65.071,102.8489z"/>
	</g>
</g>
</svg>
