<?xml version="1.0" encoding="utf-8"?>
<!-- Generator: Adobe Illustrator 18.1.1, SVG Export Plug-In . SVG Version: 6.00 Build 0)  -->
<svg version="1.2" baseProfile="tiny" xmlns="http://www.w3.org/2000/svg" xmlns:xlink="http://www.w3.org/1999/xlink" x="0px"
	 y="0px" width="128px" height="128px" viewBox="0 0 128 128" xml:space="preserve">
<g id="box">
	<rect fill="none" width="128" height="128"/>
</g>
<g id="Production">
	<g>
		<path fill="#ffffff" d="M97.3039,69.3237c-2.4358,0.0025-4.6995,0.6426-6.729,1.6731c-0.1172-1.2777-0.2759-2.4693-0.4526-3.5387
			c-0.2552-1.4209-1.4886-2.4668-2.9273-2.4668H60.9849l2.654,13.2234l6.9109-1.3921l3.5361,17.5481L56.5405,97.907l-3.5413-17.5457
			l6.1485-1.2409l-2.8334-14.1291H19.3601c-1.4416,0-2.6747,1.0382-2.9194,2.4589c-1.7872,10.106-0.2833,21.735,6.4347,29.9078
			c7.312,8.9145,18.98,11.6466,30.6053,11.6466c13.2161,0,25.7724-3.7935,32.5405-15.0267c2.7402,3.1849,6.7473,5.243,11.2827,5.243
			c8.2585,0,14.9407-6.6871,14.9487-14.9434C112.2446,76.0188,105.5624,69.3315,97.3039,69.3237z M97.3039,90.322
			c-3.3359-0.0051-6.0366-2.7086-6.0447-6.0445c0.0081-3.3383,2.7088-6.0393,6.0447-6.0445
			c3.3357,0.0052,6.0418,2.7062,6.0469,6.0445C103.3457,87.6134,100.6474,90.3169,97.3039,90.322z"/>
		<path fill="#ffffff" d="M44.5141,60.4587c0.0156-9.1201,1.5454-13.3798,9.6431-16.7806
			c19.1792-8.0717,9.073-24.6827,9.073-24.6827C63.0588,43.319,33.989,29.2369,34.7175,60.4587H44.5141z"/>
		<path fill="#ffffff" d="M57.4278,60.4587h9.6742c0.0649-3.5858,1.7878-4.5745,6.4453-7.1895
			c5.8157-3.2655-1.0513-13.5357-1.0513-13.5357C73.5419,53.2067,57.5839,44.3131,57.4278,60.4587z"/>
	</g>
</g>
</svg>
