<?xml version="1.0" encoding="utf-8"?>

<svg version="1.2" baseProfile="tiny" xmlns="http://www.w3.org/2000/svg" xmlns:xlink="http://www.w3.org/1999/xlink" x="0px"
	 y="0px" width="64px" height="64px" viewBox="0 0 64 64" xml:space="preserve">

<g id="Production">
	<path fill="#ffffff" d="M40.4199,12.4267C33.0486,12.4282,29.47,9.0024,21.5166,9.0024c-3.4451,0-6.0863,0.6929-8.5166,1.415
		C13,32.7152,13,25.2361,13,55h2V34.4475c2.2648-0.6149,4.4082-0.9319,6.5176-0.9319c7.8172,0,10.9793,3.4248,18.9023,3.4248
		c3.8369,0,7.2706-0.7291,10.5801-2.6943V9.4057C49.4199,10.3454,46.5486,12.4267,40.4199,12.4267z M49,33.0913
		c-2.2412,1.1792-5.3291,1.8491-8.5801,1.8491c-7.3556,0-10.9975-3.4248-18.9023-3.4248c-2.126,0-4.2695,0.2783-6.5176,0.8486
		c0-9.8099,0-4.8755,0-20.4459c2.2666-0.6157,4.4053-0.916,6.5166-0.916c7.6304,0,11.0728,3.4258,18.9033,3.4243
		c3.1924,0,6.1738-0.5718,8.5801-1.6299V33.0913z"/>
</g>
</svg>
