<?xml version="1.0" encoding="utf-8"?>
<!-- Generator: Adobe Illustrator 18.1.1, SVG Export Plug-In . SVG Version: 6.00 Build 0)  -->
<svg version="1.2" baseProfile="tiny" xmlns="http://www.w3.org/2000/svg" xmlns:xlink="http://www.w3.org/1999/xlink" x="0px"
	 y="0px" width="128px" height="128px" viewBox="0 0 128 128" xml:space="preserve">
<g id="box">
	<rect fill="none" width="128" height="128"/>
</g>
<g id="Production">
	<g>
		<path fill="#ffffff" d="M66.988,42.6622c-1.2163,0-2.1836,1.0866-2.1836,2.1809l-0.0078,10.1812
			c0,1.1963,0.9771,2.1709,2.1836,2.1785c1.1987,0,2.1733-0.9744,2.1733-2.1785l0.0079-10.1812
			C69.1614,43.7552,68.197,42.6667,66.988,42.6622z"/>
		<path fill="#ffffff" d="M60.0735,42.6752c-0.0284,0-0.0491-0.013-0.075-0.013c-1.2065,0-2.1758,0.9744-2.1758,2.1809v10.1812
			c0,1.2041,0.9693,2.1785,2.1758,2.1785c1.2039,0,2.1736-0.9744,2.1736-2.1785V44.8431
			C62.1721,43.8009,61.2995,42.7247,60.0735,42.6752z"/>
		<path fill="#ffffff" d="M98.1135,98.4554L80.5642,60.8251c-1.8179-5.0762-0.666-12.0935,0.9643-17.2346
			c0,0-0.018-0.0105-0.0205-0.013c0.2332-1,0.9668-3.5915,0.9668-7.0847c0-0.4358-0.0156-0.856-0.0312-1.2607
			c-0.0386-0.9747-0.8452-1.7378-1.8096-1.7378c-1.2358,0-30.396-0.0464-29.4656-0.0464c-1.8254,0-3.2973-1.4746-3.2973-3.282
			V13.4596c0-1.3178-1.3221-2.1664-2.4956-1.6885c-10.7972,4.559-16.6907,14.5477-16.6831,24.8584
			c0,10.1502,5.771,19.7249,15.4506,24.2832c-0.0024,0.0156-0.0075,0.0567-0.0075,0.0567
			c4.7966,1.8505,11.3322,6.1635,13.8598,11.5835c0.0027,0.0078,0.0078,0.0078,0.0103,0.0129l17.0801,36.6277
			c2.9658,6.3602,10.5283,9.1062,16.8818,6.146C98.3274,112.3722,101.0808,104.8129,98.1135,98.4554z M72.0178,57.6256
			c0,1.1735-0.9592,2.1785-2.1758,2.1785L57.1369,59.817c-1.1447,0-2.1733-0.9283-2.1733-2.1836V42.2548
			c0-1.2066,0.9668-2.1812,2.1733-2.1812c3.3228-0.0032,0.804-0.0011,12.6973-0.0102c1.2305,0,2.1836,1.0274,2.1836,2.1838V57.6256z
			 M86.6975,109.0721c-2.8257,0-5.1201-2.2893-5.1172-5.1149c0-2.8257,2.2866-5.115,5.1172-5.1126
			c2.8232-0.0051,5.1152,2.2869,5.1152,5.1174C91.8127,106.7828,89.5232,109.0721,86.6975,109.0721z"/>
		<path fill="#ffffff" d="M61.5198,11.4694c-1.0254,0-1.815,0.8333-1.815,1.8151v15.6414
			c24.2549,0.0363,20.5374,0.0042,21.5479,0.0928C77.5483,19.7772,71.4311,11.5329,61.5198,11.4694z"/>
	</g>
</g>
</svg>
