<?xml version="1.0" encoding="utf-8"?>

<svg version="1.2" baseProfile="tiny" xmlns="http://www.w3.org/2000/svg" xmlns:xlink="http://www.w3.org/1999/xlink" x="0px"
	 y="0px" width="128px" height="128px" viewBox="0 0 128 128" xml:space="preserve">
<g id="_x31_28px_boxes">
	<rect fill="none" width="128" height="128"/>
</g>
<g id="Production">
	<g>
		<path fill="#ffffff" d="M79.7053,37.1064l-2.5583-2.5876c-0.2881,0.4541-0.491,0.9717-0.491,1.6284v3.1201h3.0493V37.1064z"/>
		<path fill="#ffffff" d="M80.4233,36.3157h1.6453c0.0049,0,0.0049,0,0.0124,0l2.5706-2.5537
			c-0.4685-0.3321-0.9788-0.4932-1.8042-0.4932h-3.2126c-0.806,0-1.3233,0.1611-1.7874,0.4883l2.5318,2.561
			C80.3965,36.3157,80.4038,36.3157,80.4233,36.3157z"/>
		<path fill="#ffffff" d="M79.7251,42.6194c-0.0073-0.0586-0.0146-0.1074-0.0198-0.1831v-2.1387H76.656v3.0078
			c0.0049,0.7593,0.2224,1.3284,0.552,1.7918L79.7251,42.6194z"/>
		<path fill="#ffffff" d="M82.7793,39.2673h3.0539v-3.1201c0-0.6518-0.2001-1.1667-0.4882-1.6235l-2.5657,2.5513V39.2673z"/>
		<path fill="#ffffff" d="M90.6306,105.2805c4.3579,0,7.8933-3.5378,7.8933-7.8955V30.6126c0-4.358-3.5354-7.8931-7.8933-7.8931
			H37.3668c-4.3581,0-7.8907,3.5351-7.8907,7.8931V97.385c0,4.3577,3.5326,7.8955,7.8907,7.8955H90.6306z M47.501,94.8337h-4.6778
			c-2.3755,0-4.2968-1.9213-4.2968-4.2968c0-2.3731,1.9213-4.2969,4.2968-4.3042h4.6778c2.3754,0.0073,4.2967,1.9311,4.3042,4.3042
			C51.7977,92.9124,49.8764,94.8337,47.501,94.8337z M47.501,81.6135h-4.6778c-2.3755-0.0049-4.2968-1.9262-4.2968-4.3017
			c0-2.3753,1.9213-4.2969,4.2968-4.3042h4.6778c2.3754,0.0073,4.2967,1.9289,4.3042,4.3042
			C51.7977,79.6873,49.8764,81.6086,47.501,81.6135z M47.501,68.3911h-4.6778c-2.3755-0.0076-4.2968-1.9289-4.2968-4.2971
			c0-2.3801,1.9213-4.2969,4.2968-4.3042h4.6778c2.3754,0.0073,4.2967,1.9241,4.3042,4.3042
			C51.7977,66.4622,49.8764,68.3835,47.501,68.3911z M65.8677,94.8362h-4.6825c-2.3781-0.0049-4.3019-1.9238-4.3019-4.2993
			c0-2.3755,1.9238-4.2969,4.3019-4.3067h4.6825c2.3703,0.0098,4.2871,1.9312,4.2942,4.3067
			C70.1548,92.9124,68.238,94.8313,65.8677,94.8362z M65.8677,81.6184h-4.6825c-2.3781-0.0073-4.3019-1.9311-4.3019-4.3066
			c0-2.3706,1.9238-4.2945,4.3019-4.3018h4.6825c2.3703,0.0073,4.2871,1.9312,4.2942,4.3018
			C70.1548,79.6873,68.238,81.6111,65.8677,81.6184z M65.8677,68.3884h-4.6825c-2.3781,0-4.3019-1.9214-4.3019-4.2968
			c0-2.3777,1.9238-4.2945,4.3019-4.3018h4.6825c2.3703,0.0073,4.2871,1.9241,4.2942,4.3018
			C70.1548,66.467,68.238,68.3884,65.8677,68.3884z M84.2051,94.8411h-4.678c-2.3728-0.0074-4.292-1.9287-4.2966-4.3042
			c0.0046-2.3704,1.9238-4.2969,4.2966-4.3042h4.678c2.3752,0.0073,4.2942,1.9338,4.3042,4.3042
			C88.4993,92.9124,86.5803,94.8337,84.2051,94.8411z M84.2051,81.6184h-4.678c-2.3728-0.0098-4.292-1.9311-4.2966-4.3042
			c0.0046-2.373,1.9238-4.2944,4.2966-4.2993h4.678c2.3752,0.0049,4.2942,1.9263,4.3042,4.2993
			C88.4993,79.6873,86.5803,81.6086,84.2051,81.6184z M84.2051,68.3958h-4.678c-2.3728-0.0074-4.292-1.9336-4.2966-4.3042
			c0.0046-2.3777,1.9238-4.2969,4.2966-4.3042h4.678c2.3752,0.0073,4.2942,1.9265,4.3042,4.3042
			C88.4993,66.4622,86.5803,68.3884,84.2051,68.3958z M38.497,34.7849c0-1.7922,1.4576-3.2495,3.252-3.2495h44.4214
			c1.792,0,3.2495,1.4573,3.2495,3.2495v10.0855c0,1.7944-1.4575,3.2473-3.2495,3.2473H41.749c-1.7944,0-3.252-1.4529-3.252-3.2473
			V34.7849z"/>
		<path fill="#ffffff" d="M82.7793,42.4363c-0.0076,0.0757-0.0122,0.1172-0.02,0.1784l2.5322,2.4729
			c0.3247-0.4614,0.5417-1.0302,0.5417-1.7822v-3.0078h-3.0539V42.4363z"/>
		<path fill="#ffffff" d="M80.6724,43.1345l-2.6856,2.6416c0.4514,0.2417,0.979,0.4077,1.648,0.4077h3.198
			c0.686,0,1.2185-0.1709,1.6799-0.415l-2.6931-2.6343H80.6724z"/>
	</g>
</g>
</svg>
