<?xml version="1.0" encoding="utf-8"?>
<!-- Generator: Adobe Illustrator 19.1.0, SVG Export Plug-In . SVG Version: 6.00 Build 0)  -->
<svg version="1.2" baseProfile="tiny" xmlns="http://www.w3.org/2000/svg" xmlns:xlink="http://www.w3.org/1999/xlink" x="0px"
	 y="0px" width="64px" height="64px" viewBox="0 0 64 64" xml:space="preserve">
<g id="box">
	<rect fill="none" width="64" height="64"/>
</g>
<g id="Production">
	<path fill="#ffffff" d="M48.7549,3.5176l-2.1216,2.1216c-2.7646,2.7643-3.3414,6.8913-1.75,10.2354L24.6731,36.0847l-5.657-5.657
		L7.9531,41.4912c-3.4724,3.4716-1.6228,10.7106,0.4092,15.1465c2.7844,1.2755,6.4502,2.3535,9.5386,2.3535
		c2.1104,0,4.1572-0.4927,5.6084-1.9438l11.063-11.0635l-5.6567-5.6567L49.126,20.1167c1.2219,0.5814,2.5449,0.8819,3.8716,0.8819
		c2.3047,0,4.6094-0.8774,6.3638-2.6318l2.1211-2.1211L48.7549,3.5176z M31.7441,45.9839l-9.6489,9.6494
		c-2.7397,2.7393-9.4429,0.6826-12.2202-0.5083c-1.1914-2.7778-3.2476-9.48-0.5078-12.2197l9.6489-9.6494l4.2429,4.2429
		l-3.2283,3.2284c-1.1699,1.1694-1.1699,3.0732,0,4.2427c1.1721,1.1722,3.0701,1.1721,4.2422,0l3.2285-3.2286L31.7441,45.9839z
		 M22.8589,43.5558c-0.3896,0.3896-1.0244,0.3896-1.4141,0c-0.3896-0.3901-0.3896-1.0244,0-1.4146l24.5231-24.5231
		c0.2067,0.2582,0.4261,0.5095,0.6654,0.7487c0.2394,0.2393,0.4907,0.4588,0.7491,0.6655L22.8589,43.5558z M57.9473,16.9527
		c-2.7295,2.7295-7.1704,2.7285-9.8999,0c-2.729-2.7295-2.729-7.1699,0-9.8994l0.7075-0.7075l9.8994,9.8999L57.9473,16.9527z"/>
</g>
</svg>

