<?xml version="1.0" encoding="utf-8"?>
<!-- Generator: Adobe Illustrator 17.1.0, SVG Export Plug-In . SVG Version: 6.00 Build 0)  -->
<!DOCTYPE svg [
	<!ENTITY ns_flows "http://ns.adobe.com/Flows/1.0/">
	<!ENTITY ns_extend "http://ns.adobe.com/Extensibility/1.0/">
	<!ENTITY ns_ai "http://ns.adobe.com/AdobeIllustrator/10.0/">
	<!ENTITY ns_graphs "http://ns.adobe.com/Graphs/1.0/">
]>
<svg version="1.2" baseProfile="tiny" xmlns:x="&ns_extend;" xmlns:i="&ns_ai;" xmlns:graph="&ns_graphs;"
	 xmlns="http://www.w3.org/2000/svg" xmlns:xlink="http://www.w3.org/1999/xlink" xmlns:a="http://ns.adobe.com/AdobeSVGViewerExtensions/3.0/"
	 x="0px" y="0px" width="128px" height="128px" viewBox="0 0 128 128" xml:space="preserve">
<g id="_x31_28px_boxes">
	<rect fill="none" width="128" height="128"/>
</g>
<g id="Production">
	<g>
		<path fill="#ffffff" d="M35.6933,91.0771v20.8767c0,3.0133,2.5979,5.3866,5.6112,5.3866h14.8888c0-10.3953,0,0.8893,0-22.75h23
			c0,9.9917,0,12.6663,0,22.75h15.0312c3.0133,0,5.4688-2.3733,5.4688-5.3866V91.0774
			c-14.1288-12.5905-5.8631-5.2332-31.8908-28.3858C43.1595,84.6133,49.6615,78.8752,35.6933,91.0771z"/>
		<path fill="#ffffff" d="M54.4087,45.0393c-0.0014,0.0409-0.0033,0.0813-0.005,0.1219c10.4746-5.5646,8.375-22.2952,4.2663-33.416
			c-0.3768-1.0195-1.6172-1.4086-2.5098-0.7861c-0.4097,0.2862-7.9528,5.6067-12.7103,12.2992
			C49.8564,28.6023,54.7183,36.7135,54.4087,45.0393z"/>
		<path fill="#ffffff" d="M43.1999,56.5266c-4.6424-0.4533-13.6487-8.5725-15.485-23.0653
			c12.963,6.0966,18.3754,17.057,17.5848,21.5022c9.9027-9.2583,5.2921-30.5704-29.3119-40.3231
			c-1.4382-0.4043-2.8731,0.6606-2.9007,2.1546c-0.0166,0.8889-0.3156,21.8966,7.6712,32.65
			C28.1578,59.4095,37.3282,59.996,43.1999,56.5266z"/>
		<path fill="#ffffff" d="M113.2505,81.7488L71.058,44.2309c-1.8744-1.6667-4.7032-1.6668-6.5776,0.0003L22.2956,81.7488
			c-2.0412,1.8151-2.2251,4.9415-0.4098,6.9824c1.7582,1.9767,4.8553,2.2801,6.9591,0.4087
			c0.0127-0.0114,38.9448-34.5832,38.9576-34.5945c42.194,37.4692,27.7559,24.5771,38.9204,34.5945
			c2.0409,1.8153,5.1363,1.6325,6.9518-0.4087C115.4898,86.6903,115.2915,83.5639,113.2505,81.7488z"/>
	</g>
</g>
</svg>

