<?xml version="1.0" encoding="utf-8"?>
<!-- Generator: Adobe Illustrator 18.1.1, SVG Export Plug-In . SVG Version: 6.00 Build 0)  -->
<svg version="1.2" baseProfile="tiny" xmlns="http://www.w3.org/2000/svg" xmlns:xlink="http://www.w3.org/1999/xlink" x="0px"
	 y="0px" width="128px" height="128px" viewBox="0 0 128 128" xml:space="preserve">
<g id="box">
	<rect fill="none" width="128" height="128"/>
</g>
<g id="Production">
	<g>
		<path fill="#ffffff" d="M96.963,18.2143H31.0367c-1.6689,0-3.0222,1.3534-3.0222,3.0227v85.5294
			c0,1.6693,1.3533,3.0193,3.0222,3.0193c0,0,36.7454,0,37.4319,0c2.1072,0,4.1446-0.7234,6.0664-1.8289
			c2.7151-1.5616,19.49-19.4762,21.45-21.7335c1.9568-2.2524,3.9907-5.4641,4-13.2667l0.0005-0.0006v-0.0526V21.237
			C99.9855,19.5677,98.632,18.2143,96.963,18.2143z M93.9401,74.5603c-0.002,0.0469-0.0047,0.0937-0.0074,0.1398
			c-0.1582,2.6147-1.0439,4.5598-3.6059,5.585c-1.7859,0.7142-3.5913,1.1374-5.8789,1.3812
			c-2.2215,0.2368-4.8975,0.3047-8.4553,0.3047c-2.5147,0-3.4466,1.7444-3.3667,3.1703c0.0854,1.5621,0.1467,3.3198,0.1389,5.1063
			c-0.0218,4.88-0.5642,9.9747-2.5667,11.8868c-1.3076,1.2475-2.1391,1.6028-3.5056,1.6028c-2.4746,0-32.6328,0.0067-32.6328,0.0067
			V24.2592h59.8804V74.5603z"/>
		<path fill="#ffffff" d="M41.6266,71.3073c0.6382-0.058,1.2768-0.1146,1.9148-0.1723c-0.421,1.0091-1.0152,2.4186-1.4666,3.319
			c-1.7282,3.4436,3.4402,6.4788,5.1741,3.0244c1.1299-2.2513,2.1199-4.5859,3.0688-6.9386
			c4.2305-0.3609,8.4627-0.6942,12.6988-0.9751c0.6643,2.2576,1.2922,4.5229,1.8891,6.7902c0.9839,3.734,6.7637,2.1479,5.7788-1.593
			c-0.4897-1.8581-1.0012-3.7123-1.5368-5.5611c0.8327-0.0434,1.6653-0.0881,2.498-0.1263c3.8479-0.1762,3.865-6.1693,0-5.9926
			c-1.4338,0.0653-2.8667,0.1414-4.2993,0.2228c-1.9973-6.2015-4.3044-12.3054-7.021-18.2165c-0.9978-2.1696-4.0608-1.7182-5.1748,0
			c-2.8635,4.4174-4.5154,8.8637-9.0383,19.8247c-1.4954,0.1324-2.9903,0.2662-4.4856,0.4018
			C37.0372,65.7309,38.3481,71.6045,41.6266,71.3073z M57.4281,53.3787c1.3792,3.3879,2.626,6.8352,3.7676,10.317
			c-2.8013,0.1956-5.6016,0.4108-8.4007,0.642C55.2089,58.4304,56.1766,56.0049,57.4281,53.3787z"/>
		<path fill="#ffffff" d="M70.4823,53.1043c1.4927-0.006,2.9795-0.0821,4.4646-0.1861c0,1.558,0,3.1154,0,4.6731
			c0,3.8642,5.9924,3.8642,5.9924,0c0-1.7169,0-3.4339,0-5.1505c1.6302-0.1203,3.2625-0.2102,4.9014-0.2168
			c3.8635-0.0157,3.865-6.0079,0-5.9923c-1.6389,0.0066-3.2712,0.0965-4.9014,0.2167c0-1.4945,0-2.9894,0-4.4839
			c0-3.8641-5.9924-3.8641-5.9924,0c0,1.6541,0,3.3077,0,4.9617c-1.4851,0.1037-2.9719,0.1797-4.4646,0.1859
			C66.619,47.1273,66.6173,53.12,70.4823,53.1043z"/>
	</g>
</g>
</svg>
