<?xml version="1.0" encoding="utf-8"?>
<!-- Generator: Adobe Illustrator 18.1.1, SVG Export Plug-In . SVG Version: 6.00 Build 0)  -->
<svg version="1.2" baseProfile="tiny" xmlns="http://www.w3.org/2000/svg" xmlns:xlink="http://www.w3.org/1999/xlink" x="0px"
	 y="0px" width="64px" height="64px" viewBox="0 0 64 64" xml:space="preserve">

<g id="Production">
	<g>
		<path fill="#ffffff" d="M29.7939,38.8716l-2.585-3.7085l-11.2163,2.582l1.8511,3.2163c-1.8428,0.8105-3.6343,1.7974-5.3286,2.751
			c-0.4375,0.2461-0.6484,0.2729-0.6943,0.2944c-3.3965-3.2993-7.8389-3.6611-8.0264-3.6748l-1.752-0.1289l3.6074,7.2354
			L1.624,54.5312h1.7173c0.1558,0,3.8604-0.0356,8.2671-3.1489c0.0845,0,0.2935,0.0405,0.7412,0.3101
			c1.2676,0.7632,2.6074,1.5522,3.9409,2.2461l-1.8433,3.603l7.0269,1.5127l4.2881-2.2349c0.873,0.0898,1.752,0.1479,2.6772,0.1763
			c0.2236,0.0068,0.4463,0.0103,0.667,0.0103c3.8022,0,7.5576-1.042,10.5742-2.9341c2.6958-1.6904,4.3706-3.7886,4.3706-5.4746
			C44.0513,45.4712,38.1987,39.4785,29.7939,38.8716z M38.6182,52.3774c-1.6333,1.0244-5.2148,2.7686-10.1167,2.6191
			c-0.9795-0.0303-1.9023-0.0947-2.8223-0.1973l-0.3027-0.0342l-4.1865,2.1816l-3.7759-0.8125l1.5806-3.0898l-0.9185-0.4458
			c-1.5591-0.7568-3.1782-1.7065-4.6953-2.6201c-0.4614-0.2773-1.0796-0.5962-1.7725-0.5962c-0.4414,0-0.8452,0.1284-1.2002,0.3809
			c-2.0181,1.4341-3.8716,2.1255-5.1738,2.4585L7.915,47.499L5.522,42.6997c1.3833,0.3916,3.2969,1.1792,4.9053,2.7417
			c0.7207,0.6992,1.7793,0.7407,3.0688,0.0142c1.959-1.103,4.0474-2.2495,6.1479-3.0791l1.0767-0.4258l-1.6475-2.8628l7.2676-1.6729
			l2.3716,3.4023l0.4927,0.0229c8.1489,0.376,12.8462,6.0298,12.8462,7.7568C42.0513,49.2266,41.1191,50.8091,38.6182,52.3774z"/>
		<path fill="#ffffff" d="M44.3369,8.5308L41.0903,3.874L28.0039,6.8867l2.2734,3.9512c-2.311,0.9849-4.5283,2.2036-6.7769,3.4692
			c-0.897,0.5044-1.0317,0.3647-1.0752,0.3223c-4.0317-3.916-9.3018-4.3457-9.5244-4.3618l-1.7524-0.1294l4.2271,8.4785
			l-4.7217,8.3193h1.7173c0.1846,0,4.5771-0.0425,9.7729-3.7354c0.1602-0.1138,0.5566-0.0132,1.1626,0.3516
			c1.5801,0.9507,3.252,1.9346,4.9062,2.7866l-2.188,4.2769l8.1196,1.748l5.146-2.6807c1.064,0.1104,2.1353,0.1816,3.2642,0.2168
			c0.2666,0.0083,0.5317,0.0122,0.7944,0.0122c0.0005,0,0.0005,0,0.0005,0c4.5342,0,9.0117-1.2417,12.6074-3.4966
			c3.1826-1.9961,5.1602-4.4531,5.1602-6.4116C61.1172,16.375,54.2236,9.3203,44.3369,8.5308z M54.894,24.7212
			c-1.9004,1.1919-5.9272,3.1914-11.5449,3.1909c-0.2422,0-0.4868-0.0034-0.7319-0.0112c-1.1836-0.0366-2.2988-0.1147-3.4097-0.2383
			l-0.3027-0.0337l-5.0444,2.6274l-4.8687-1.0479l1.9263-3.7656l-0.9189-0.4458c-1.8765-0.9111-3.8296-2.0566-5.6611-3.1587
			c-0.5322-0.3203-1.2437-0.6875-2.0269-0.6875c-0.4878,0-0.9341,0.1411-1.3257,0.4199c-2.6948,1.915-5.1504,2.7407-6.7441,3.0962
			l3.3999-5.9897l-3.0269-6.0703c1.71,0.4351,4.2925,1.3936,6.4175,3.457c0.8003,0.7769,1.98,0.811,3.4497-0.0137
			c2.5298-1.4238,5.0142-2.7852,7.5957-3.7866l1.0859-0.4209L31.084,8.2295l9.1382-2.1035l3.0259,4.3394l0.4844,0.0283
			c9.2534,0.5391,15.3848,7.0259,15.3848,9.5103C59.1172,21.0068,57.6372,23.001,54.894,24.7212z"/>
		<circle fill="#ffffff" cx="50" cy="17" r="2"/>
		<circle fill="#ffffff" cx="35" cy="46.9999" r="1.825"/>
	</g>
</g>
</svg>
