<?xml version="1.0" encoding="utf-8"?>
<!-- Generator: Adobe Illustrator 18.1.1, SVG Export Plug-In . SVG Version: 6.00 Build 0)  -->
<svg version="1.2" baseProfile="tiny" xmlns="http://www.w3.org/2000/svg" xmlns:xlink="http://www.w3.org/1999/xlink" x="0px"
	 y="0px" width="128px" height="128px" viewBox="0 0 128 128" xml:space="preserve">
<g id="_x31_28px_boxes">
	<rect fill="none" width="128" height="128"/>
</g>
<g id="Production">
	<g>
		<path fill="#ffffff" d="M107.0819,43.7747L84.225,20.918c-1.0774-1.0777-2.5388-1.6829-4.0625-1.6829h-32.325
			c-1.5236,0-2.9851,0.6052-4.0627,1.6829L20.9181,43.7747c-1.0776,1.0776-1.6829,2.539-1.6829,4.0627v32.3252
			c0,1.5237,0.6053,2.9851,1.6829,4.0627l22.8567,22.8568c1.0776,1.0776,2.5391,1.6828,4.0627,1.6828h32.325
			c1.5237,0,2.9851-0.6052,4.0625-1.6828l22.8569-22.8568c1.0777-1.0776,1.6829-2.539,1.6829-4.0627V47.8374
			C108.7648,46.3137,108.1596,44.8523,107.0819,43.7747z M45.2882,75.8831V50.4534c0.0019-3.4064,5.1541-3.3923,5.1529,0.0024
			L50.433,64.3911c0.8635-0.3076,1.9294-0.6077,3.1472-0.886l0.0127-21.5896c0.0012-3.8332,5.8811-3.9705,5.8765,0.0032
			l-0.0105,20.5828c0.4013-0.0494,2.5171-0.2676,3.1467-0.3167l0.0122-21.8208c0.0028-3.8498,5.8813-3.9411,5.8777,0.0029
			L68.484,62.0115c1.229,0.0371,2.2945,0.1296,3.1463,0.2729l0.0092-18.7666c0.0019-3.8861,5.8794-3.8816,5.8794,0.003
			L77.514,68.4141c0.3538,2.7768,2.2503,2.8059,3.1778,0.3213c0.4421-1.1834,1.6584-5.2701,1.6584-5.2701
			c1.8822-6.306,7.715-5.5679,7.1485-3.3457c-0.6258,2.459-4.012,14.023-4.8731,17.2246
			c-1.5935,5.9236-7.3711,12.253-18.8076,12.253C63.4015,89.4043,45.2882,91.2903,45.2882,75.8831z"/>
	</g>
</g>
</svg>
