<?xml version="1.0" encoding="utf-8"?>
<!-- Generator: Adobe Illustrator 18.1.1, SVG Export Plug-In . SVG Version: 6.00 Build 0)  -->
<svg version="1.2" baseProfile="tiny" xmlns="http://www.w3.org/2000/svg" xmlns:xlink="http://www.w3.org/1999/xlink" x="0px"
	 y="0px" width="128px" height="128px" viewBox="0 0 128 128" xml:space="preserve">
<g id="box">
	<rect fill="none" width="128" height="128"/>
</g>
<g id="Production">
	<g>
		<path fill="#ffffff" d="M27.2926,67.2913h12.5806c2.1443,0,3.873-1.7288,3.873-3.866c0-2.1443-1.7287-3.8804-3.873-3.8804H27.2926
			c-2.1448,0-3.8733,1.7361-3.8733,3.8804C23.4266,65.5625,25.153,67.2913,27.2926,67.2913z"/>
		<path fill="#ffffff" d="M101.7909,24.3557H35.6918c-1.5433,0-2.7925,1.2705-2.7925,2.7925v5.7412h6.9739
			c4.5383,0.0076,8.1694,3.6729,8.1767,8.1843c0,4.5115-3.6509,8.1692-8.1767,8.1768h-6.9739v5.991h6.9739
			c4.5258,0,8.1694,3.6726,8.1767,8.1838c0,4.5115-3.6653,8.1623-8.1767,8.1623h-6.9739v5.9932h6.9739
			c4.5258,0,8.1767,3.6775,8.1767,8.1841c0,4.5188-3.6582,8.1621-8.1767,8.1816h-6.9739v6.9053
			c0,1.4807,1.2095,2.7925,2.7925,2.7925h66.0991c1.5376,0,2.7898-1.2432,2.7898-2.7925V27.1482
			C104.5807,25.5954,103.3154,24.3557,101.7909,24.3557z M99.0009,98.062H55.4271V29.9309h43.5738V98.062z"/>
		<path fill="#ffffff" d="M27.2926,44.9543h12.5806c2.1443,0,3.873-1.7412,3.873-3.8806c0-2.1323-1.7287-3.8806-3.873-3.8806
			H27.2926c-2.1448,0.0073-3.8733,1.7483-3.8733,3.8806C23.4266,43.2131,25.153,44.947,27.2926,44.9543z"/>
		<path fill="#ffffff" d="M43.7462,85.7698c0-2.1446-1.7287-3.878-3.873-3.878H27.2926c-2.1448,0-3.8733,1.7334-3.8733,3.878
			c0.0073,2.1396,1.7337,3.8684,3.8733,3.873h12.5806C42.0175,89.6382,43.7462,87.9094,43.7462,85.7698z"/>
		<path fill="#ffffff" d="M75.6002,82.6155c3.8926,0,6.563-0.4231,9.8714-1.8145l-0.9561-3.416
			c-2.1372,1.0147-5.0691,1.5479-7.6316,1.5479c-7.9543,0-13.6172-4.8023-13.6172-13.7666c0-9.9324,7.1006-16.0699,15.001-16.0699
			c8.2725,0,12.6492,5.2842,12.6492,11.9009c0,6.1399-2.7754,8.7564-4.8538,8.6487c-1.3935-0.054-1.6553-1.3328-1.2861-4.0002
			l1.5014-9.9815c-1.2863-0.7458-4.2231-1.3914-6.624-1.3914c-7.7392,0-12.3801,5.8248-12.3801,12.2801
			c0,4.4306,2.5088,7.1006,6.0862,7.1006c2.6699,0,5.0151-1.3911,6.5627-3.8999h0.1077c0.4231,2.6162,2.186,3.8999,4.8537,3.8999
			c6.0862,0,10.4117-5.0174,10.4117-12.7027c0-9.0229-6.9395-15.4782-16.388-15.4782c-12.0644,0-20.1728,9.4458-20.1728,20.2807
			C58.7355,76.2678,66.7362,82.6155,75.6002,82.6155z M79.3387,63.8289c-0.4304,2.9931-2.1394,4.8535-3.6308,4.8535
			c-1.4942,0-2.24-1.0611-2.24-2.929c0-3.6338,2.2935-6.6709,5.2793-6.6709c0.4302,0,0.7996,0.054,1.2297,0.1616L79.3387,63.8289z"
			/>
	</g>
</g>
</svg>
