<?xml version="1.0" encoding="utf-8"?>

<svg version="1.2" baseProfile="tiny" xmlns="http://www.w3.org/2000/svg" xmlns:xlink="http://www.w3.org/1999/xlink" x="0px"
	 y="0px" width="128px" height="128px" viewBox="0 0 128 128" xml:space="preserve">
<g id="_x31_28px_boxes">
	<rect fill="none" width="128" height="128"/>
</g>
<g id="Production">
	<g>
		<path fill="#ffffff" d="M68.3315,49.442L48.4243,25.718c10.1938-3.0437,20.9536-3.0452,31.1509,0.0003L67.3945,40.2346
			l9.2056,10.9712l21.2095-25.2761l-6.5748-11.7639c-15.6574-6.209-37.9257-6.5611-54.4697,0l-6.5747,11.7639l21.2298,25.2998
			C56.8575,49.338,62.6633,48.7491,68.3315,49.442z"/>
		<path fill="#ffffff" d="M63.7246,54.3626c-17.7459,0-32.1533,14.3886-32.1533,32.1535c0,17.7576,14.397,32.1531,32.1533,32.1531
			c17.7581,0,32.1533-14.3955,32.1533-32.1531C95.8779,68.728,81.4458,54.3626,63.7246,54.3626z M63.7246,104.6074
			c-9.9907,0-18.0908-8.0993-18.0908-18.0913c0-9.9912,8.1001-18.0906,18.0908-18.0906c9.9917,0,18.0908,8.0994,18.0908,18.0906
			C81.8154,96.5081,73.7163,104.6074,63.7246,104.6074z"/>
		<path fill="#ffffff" d="M55.4629,79.1487v4.3716h5.8403v14.9658h6.294V74.1135h-4.9307
			C62.4219,77.9602,58.8901,79.219,55.4629,79.1487z"/>
	</g>
</g>
</svg>
