<?xml version="1.0" encoding="utf-8"?>
<!-- Generator: Adobe Illustrator 18.1.0, SVG Export Plug-In . SVG Version: 6.00 Build 0)  -->
<svg version="1.2" baseProfile="tiny" xmlns="http://www.w3.org/2000/svg" xmlns:xlink="http://www.w3.org/1999/xlink" x="0px"
	 y="0px" width="64px" height="64px" viewBox="0 0 64 64" xml:space="preserve">
<g id="_x36_4px_boxes">
	<rect fill="none" width="64" height="64"/>
</g>
<g id="Production">
	<g>
		<path fill="#ffffff" d="M52.4161,4H11.4149C8.9334,4,7,5.9982,7,8.4796v41.9995c0,2.3102,2,4.197,4,4.4494V61h5v-6h32v6h5v-6.0715
			c2-0.2524,4-2.1392,4-4.4494V8.4796C57,5.9982,54.8976,4,52.4161,4z M52,14H16v5h36v13H16v5h36v13H12V9h40V14z"/>
		<rect x="16" y="41" fill="#ffffff" width="7" height="5"/>
		<rect x="41" y="41" fill="#ffffff" width="7" height="5"/>
	</g>
</g>
</svg>

