<?xml version="1.0" encoding="utf-8"?>
<!-- Generator: Adobe Illustrator 18.1.1, SVG Export Plug-In . SVG Version: 6.00 Build 0)  -->
<svg version="1.2" baseProfile="tiny" xmlns="http://www.w3.org/2000/svg" xmlns:xlink="http://www.w3.org/1999/xlink" x="0px"
	 y="0px" width="128px" height="128px" viewBox="0 0 128 128" xml:space="preserve">
<g id="_x31_28px_boxes">
	<rect fill="none" width="128" height="128"/>
</g>
<g id="Production">
	<g>
		<path fill="#ffffff" d="M64.7398,62.1717c1.1175,10.2299,0.1153,17.4563,3.9595,23.4746l23.165-11.749
			c-4.3431-9.0081-2.9194-19.4421-4.3682-29.0607c-1.122-7.4514-3.7982-15.3381-10.0352-20.0497
			c-3.7909-2.8636-8.4394-4.9799-13.1327-5.7336c-2.2146-0.3557-4.4488-0.4331-6.6412,0.0742
			c-4.5107,1.0433-17.6718,4.9944-19.806,5.6446c0,0,7.6723,1.539,13.5589,6.5994C60.4656,39.1303,63.4939,50.7736,64.7398,62.1717z
			"/>
		<circle fill="#ffffff" cx="77.4615" cy="108.1908" r="5.3477"/>
		<circle fill="#ffffff" cx="91.6625" cy="100.8228" r="5.1101"/>
		<circle fill="#ffffff" cx="104.8535" cy="93.3953" r="4.9318"/>
		<circle fill="#ffffff" cx="117.2722" cy="86.1462" r="4.5753"/>
		<path fill="#ffffff" d="M111.5238,75.1582c-0.0011-0.001-0.0011-0.0011-0.0023-0.002c-0.2963-0.2588-0.1583-0.1382-0.0001-0.0001
			c-2.2329-1.9496-4.6796-3.5877-6.1293-6.252c-2.6716-4.9108-2.8613-10.8529-3.2583-16.308
			c-0.4458-6.1273-0.6621-12.3258-2.3967-18.2607c-1.7083-5.8446-4.7117-11.4933-9.5999-15.2793
			c-5.7021-4.4162-13.2827-5.6533-20.1826-3.692c8.2075,1.6478,14.54,6.3125,18.6372,13.6578
			c4.1199,7.3855,5.232,15.838,5.7334,24.1475c0.2166,3.5907,0.4202,7.1954,1.012,10.748c0.5422,3.2529,1.3892,6.7158,3.4265,9.3855
			l2.1675,3.006L67.3254,93.5193c0,0-3.5105-2.0254-6.4201-10.1468c-1.2183-3.3999-1.5276-7.0703-1.6861-10.6697
			c0-11.2424-1.6916-24.7296-8.9301-33.7738c-4.2434-5.3019-10.5459-8.854-17.3289-9.4949
			C18.0787,28.0286,5.6394,40.3681,6.169,55.6055C6.6301,68.8767,16.7585,78.8305,29.1277,80.47
			c6.887,0.9132,13.3977-1.4133,19.6675-4.029c0.5526-0.2306,1.104-0.4638,1.655-0.6978
			c0.9592,9.3159,4.4947,20.8406,12.5977,25.4994c1.6118,0.9266,4.3049,2.2458,6.1716,1.2406l41.7566-22.4779
			c1.793-0.965,2.0816-3.5078,0.5454-4.8491C111.5223,75.1569,111.523,75.1575,111.5238,75.1582z M31.5557,64.1119
			c-3.8357,1.2354-8.0535-1.2046-9.4207-5.4497c-1.3674-4.2452,0.6331-8.6882,4.469-9.9236
			c3.8355-1.2355,8.0535,1.2043,9.4207,5.4496C37.3924,58.4334,35.3914,62.8763,31.5557,64.1119z"/>
		<path fill="#ffffff" d="M111.5238,75.1582C111.9106,75.496,111.7056,75.3169,111.5238,75.1582L111.5238,75.1582z"/>
	</g>
</g>
</svg>
