<?xml version="1.0" encoding="utf-8"?>
<!-- Generator: Adobe Illustrator 18.1.1, SVG Export Plug-In . SVG Version: 6.00 Build 0)  -->
<svg version="1.2" baseProfile="tiny" xmlns="http://www.w3.org/2000/svg" xmlns:xlink="http://www.w3.org/1999/xlink" x="0px"
	 y="0px" width="128px" height="128px" viewBox="0 0 128 128" xml:space="preserve">
<g id="_x31_28px_boxes">
	<rect fill="none" width="128" height="128"/>
</g>
<g id="Production">
	<g>
		<path fill="#ffffff" d="M115.6106,99.0621c-1.8236-7.5669-6.6543-21.9083-26.3546-27.1735
			c-2.3419-5.5468-6.4425-7.9499-11.5239-8.7595v-3.6107c0-0.9622-0.7801-1.7422-1.7422-1.7422h-13.558
			c-0.9622,0-1.7422,0.78-1.7422,1.7422v3.2689c-4.4988,0-8.9459,0-11.3754,0c-5.2619,0-8.4976-7.3424-3.3512-13.207
			c3.9238-4.471,7.4326-5.307,25.6418-9.6201c8.3813-1.9853,9.2234,3.1025,14.0575,5.9796
			c4.1058,2.4436,9.5321,1.2651,11.8858-1.7736c5.0468-6.5156-5.9834-19.3987-18.2524-18.3125
			c-18.8246,1.6661-25.3886,7.6887-45.7083,7.6887c-3.0041,0-5.5427,2.2273-5.9334,5.206l-4.164,31.7442
			C19.4382,74.0835,9.912,82.6202,12.6117,91.8465c0.8571,2.929,3.4658,4.5933,6.5417,4.5933h3.5425l-0.3109,4.0066
			c0,0.9743,0.7702,1.7644,1.7201,1.7644h89.5012C115.2693,102.2108,116.3876,101.6131,115.6106,99.0621z M18.0166,89.9293
			c-0.8384-2.3635,0.9961-8.0935,7.5627-13.7289h52.8056c11.9842,0,22.8581,5.7975,27.9384,14.5045H19.1534
			C18.5092,90.7049,18.2223,90.5092,18.0166,89.9293z"/>
	</g>
</g>
</svg>
