<?xml version="1.0" encoding="utf-8"?>

<svg version="1.2" baseProfile="tiny" xmlns="http://www.w3.org/2000/svg" xmlns:xlink="http://www.w3.org/1999/xlink" x="0px"
	 y="0px" width="128px" height="128px" viewBox="0 0 128 128" xml:space="preserve">
<g id="_x31_28px_boxes">
	<rect fill="none" width="128" height="128"/>
</g>
<g id="Production">
	<g>
		<path fill="#ffffff" d="M57.6879,29.1429l0.5405,3.0624l2.7025,0.7208l0.18,5.7644c0,0,0,2.5217,3.2419,3.603v-1.621
			l4.6848-5.0445l-1.982-5.9452L57.6879,29.1429z M82.5487,43.375l-1.6215-0.7207c-1.769-1.7697-1.1116-1.1944-2.8819-2.5223
			l0.312,1.7893l1.6697,1.4537c0.8647,1.7545,0.5688,1.1484,1.2977,2.6583C82.3616,43.9239,82.0954,44.5089,82.5487,43.375z
			 M78.7655,42.834l-0.18,1.6217l0.5402,1.261l1.081-0.5407l-0.9012-1.801L78.7655,42.834z M70.1183,37.4295l-0.3602,0.901
			l1.2607,0.9005l2.5225-0.7202l-1.081-1.6218L70.1183,37.4295z M41.8531,66.6463c-0.2492-0.1792-2.9128-1.4625-2.9043-1.5917
			c-0.0208,0.3089,0.0855,0.5448,0.1835,0.839l1.0809,1.9812c1.0001,0.4702,2.006,0.9937,3.0258,1.3763
			C43.3021,68.0436,42.7959,67.3226,41.8531,66.6463z M43.6357,70.5776l1.6215,0.7205h2.3425l0.1795-0.7205l-3.4228-1.2613
			L43.6357,70.5776z M64.0005,16.9997C38.0422,17.0016,17.0018,38.0411,17,64c0.0018,25.9591,21.0422,46.9984,47.0005,47.0003
			C89.9589,110.9984,110.9981,89.9591,111,64C110.9981,38.0411,89.9589,17.0016,64.0005,16.9997z M99.1407,83.7037
			c-0.1041,0.4702-0.4811,1.5499-0.8379,2.7081c-1.5499,2.3665-3.3365,4.5658-5.3304,6.5608
			c-7.4238,7.4195-17.648,11.9991-28.9719,12.001c-11.3241-0.0019-21.5483-4.5815-28.9729-12.001
			C27.6082,85.5483,23.028,75.3241,23.0262,64c0.0013-8.2241,2.4192-15.8667,6.5839-22.2795l-2.1873,12.2834l1.0808,10.0879
			l2.8825,3.0628c2.4352,5.8121,1.9445,3.3714,4.8639,7.026c1.1273,1.8783,1.7512,2.7795,2.8823,3.0624l1.0809-0.1802
			c0,0,0.3558,2.1545,0.36,2.1798c-0.0245-0.1512-2.429,1.0815-2.5749,1.6556c-0.3688,1.4431,2.1231,5.2772,2.9591,6.3342
			c1.2706,1.6063,2.9366,2.7179,4.3405,4.1733c1.711,1.773,2.2736,4.3637,3.3442,6.5536c3.8729,7.9294,9.2475,0.8966,11.7107-0.9548
			c1.4783-1.111,2.8444-1.0189,4.577-1.3369c4.7955-0.8807,2.3393-6.3981,5.9092-8.6101
			c-3.7701-1.5206-7.5078-3.4755-11.5296-4.1435c0.2393-0.5402,0.4811-1.0807,0.7207-1.6215
			c-2.6809-1.1875-5.3368-2.5369-8.0768-3.5779c-2.0723-0.7882-5.1761-2.2339-7.3713-2.2648
			c-2.555-0.036-3.386,0.9431-5.8097-0.5485c0,0-1.195,0.1699-1.2586,0.1792c0.0325-0.0043-0.2293-3.0167-0.2503-3.2507
			c-0.1771-1.9527-0.4787-1.8569-2.2746-3.054c0.4803-1.2,0.9614-2.4029,1.441-3.6029c-1.6404-0.8316-2.4126-0.0466-3.9633,0.7196
			c-0.259-2.5928-1.647-8.1202,3.1618-7.846c1.3545,0.0772,3.1645,1.4825,4.4052,2.0819c-0.0604,1.2612-0.1203,2.5227-0.181,3.7832
			c0.6608,0.1797,1.3214,0.3602,1.9822,0.5405c0.0964-1.278-0.2803-3.8945,0.3233-4.9702c0.5341-0.9492,2.5851-1.5515,3.6402-2.0555
			c0.0219-1.135-0.196-1.7908,0.5626-2.5976c0.7093-0.7532,9.0777-4.0231,9.7064-3.3372c-0.8869-0.9679-2.0893-1.8806-2.4435-3.2044
			c1.2738-0.1161,2.702-0.1425,3.9752-0.003c-0.2476,0.5991-0.6613,1.1354-0.9103,1.7344c0.8382,0.4878,1.8167,0.9109,2.7419,1.2051
			c-0.0032-0.8898-3.3939-9.7734-3.1839-9.8304c-0.6603,0.1797-1.3214,0.3605-1.9812,0.5402
			c0.102-0.5317,0.0749-1.0898,0.1797-1.6212c-0.6001-0.3605-1.2013-0.7208-1.8017-1.0813c-1.2855,2.342-3.5601,4.3632-3.784,6.8457
			c-0.2458,0.0328-0.8555-0.0724-1.0789-0.1797c0.1102-0.8313,0.5266-2.0781,0.3605-2.8828
			c-0.1808-0.877-1.4189-1.6782-1.5698-2.5193c-0.3648-2.0358,1.9679-2.9591,3.366-3.7835
			c-0.4042,0.2381,3.7369,0.8986,3.9674,0.8986l1.9821,2.522c0.9007-0.7806,1.802-1.5602,2.7016-2.342
			c-0.5743-1.7245-2.5118-4.6704-1.2604-6.1252c-0.9103-0.7229-2.6008-2.7381-3.6586-3.0696
			c-1.4514-0.4537-3.386,0.5913-4.9889,0.1877c0.6444-1.1732,1.2903-2.346,1.9357-3.5191
			c5.7994-2.0032,12.1285-2.7132,18.5045-1.9195c4.8493,0.9468-0.2236,0.1733,10.1849,4.1771l0.7215,2.3419l-2.1623,0.3605
			l-0.5402,2.522l1.261,0.9008l1.2604,4.6839l1.2618,1.0808c1.5842-2.1117,0.8236-1.629,1.5004,0.5077
			c3.4086-2.0395-1.2205-4.9963-2.5811-6.633c1.4841-0.6869,2.1913,0.8513,3.0619,1.8015c0.1909-0.9486,0.0693-2.0304,1.2602-2.1614
			c-0.001,2.4011,0.209,2.6753,1.2586,4.6645c0.966,1.8329,0.0312,1.4178-0.9817,2.2539c-0.857,0.7077-0.7117-0.0061-0.7713,1.3099
			c-0.1172,2.5593,0.0836,3.5759-1.6665,5.823c0.7208,0.1803,1.4413,0.3606,2.162,0.5411c0.1203,0.66,0.241,1.3209,0.3602,1.9812
			c-0.7202,0.4199-1.442,0.8411-2.1617,1.2615c1.0469,1.1476,1.1164,2.8719,1.4412,4.3203c0.1141,0.5076,3.7149-2.546,4.1435-2.8793
			l-0.7207-1.4418c1.1539-2.3079,4.5806-5.0418,5.0445-0.5402c0.2899,0.1164,0.9513,0.2205,1.2607,0.1805
			c-0.3073-2.7014-2.4205-3.2361-4.6819-4.684c2.1298,0.0328,7.3466,3.4297,5.6425-0.82c0.5171,1.2881,3.1733,0.7583,4.1267,1.3834
			c0.835,0.5474,1.6969,2.8471,0.3171,3.4001c-2.2405,1.2219-1.8882,1.5821-1.4407,3.963c-2.5275-0.3147-3.8311-0.1675-5.4047-2.342
			c-1.462,0.9849-2.8793,1.8976-4.4339,2.702c-2.9965,1.5493-2.7459,5.3376-3.8528,8.1045
			c-1.134,2.8375-1.0639,5.6923-0.6374,8.6597c0.5421,3.7718,0.6902,5.2317,4.0599,7.3761c2.5361,1.6138,5.5077-2.3231,7.6224-3.214
			c1.3578-0.5719,2.2085-0.5591,3.7273-0.5684C99.583,77.9976,99.9437,80.0885,99.1407,83.7037z"/>
	</g>
</g>
</svg>
