<?xml version="1.0" encoding="utf-8"?>

<svg version="1.2" baseProfile="tiny" xmlns="http://www.w3.org/2000/svg" xmlns:xlink="http://www.w3.org/1999/xlink" x="0px"
	 y="0px" width="64px" height="64px" viewBox="0 0 64 64" xml:space="preserve">

<g id="Production">
	<g>
		<circle fill="#ffffff" cx="31.5" cy="17.5" r="2.5"/>
		<path fill="#ffffff" d="M40,29.5c0,4.687-3.813,8.5-8.5,8.5c-3.8171,0-7.0535-2.5295-8.1237-6h-5.1348
			c1.1769,6.2523,6.6696,11,13.2585,11C38.9438,43,45,36.9438,45,29.5V23H23v-8.0504C23.1616,14.9824,23.3287,15,23.5,15
			c1.3807,0,2.5-1.1193,2.5-2.5c0-1.1254-0.7485-2.0659-1.7712-2.3794c1.126-1.8622,2.9417-3.2558,5.0947-3.8276
			C29.1237,6.6523,29,7.0598,29,7.5c0,1.3807,1.1193,2.5,2.5,2.5c1.3807,0,2.5-1.1193,2.5-2.5c0-0.4402-0.1237-0.8477-0.3234-1.207
			c2.153,0.5718,3.9687,1.9654,5.0947,3.8276C37.7485,10.4341,37,11.3746,37,12.5c0,1.3807,1.1193,2.5,2.5,2.5
			c0.1713,0,0.3384-0.0176,0.5-0.0504V19h5v-4.5C45,7.0562,38.9438,1,31.5,1S18,7.0562,18,14.5V28h22V29.5z"/>
		<path fill="#ffffff" d="M54,28h-5c0,12.325-8.5414,19-17.5,19C22.6291,47,14,40.4327,14,28H9c0,14.1299,9.3452,22.6741,20,23.8578
			V58h-8v5h21v-5h-8v-6.1422C44.4717,50.6945,54,42.3262,54,28z"/>
	</g>
</g>
</svg>
