<?xml version="1.0" encoding="utf-8"?>
<!-- Generator: Adobe Illustrator 18.1.1, SVG Export Plug-In . SVG Version: 6.00 Build 0)  -->
<svg version="1.2" baseProfile="tiny" xmlns="http://www.w3.org/2000/svg" xmlns:xlink="http://www.w3.org/1999/xlink" x="0px"
	 y="0px" width="64px" height="64px" viewBox="0 0 64 64" xml:space="preserve">

<g id="Production">
	<g>
		<path fill="#ffffff" d="M34,11.092V6h-4v5.092C18.2348,12.1063,9.01,21.9719,9.01,34c0,12.7025,10.2875,23,22.99,23
			c12.7026,0,23-10.2975,23-23C55,21.9719,45.7653,12.1063,34,11.092z M32,55c-11.5794,0-20.99-9.4206-20.99-21
			c0-11.5795,9.4106-21,20.99-21c11.5795,0,21,9.4205,21,21C53,45.5794,43.5795,55,32,55z"/>
		<path fill="#ffffff" d="M33,31.1837V17h-2v14.1837c-1.1625,0.4133-2,1.512-2,2.8163s0.8375,2.403,2,2.8163V40h2v-3.1837
			c1.1625-0.4133,2-1.512,2-2.8163S34.1625,31.597,33,31.1837z"/>
		<polygon fill="#ffffff" points="48.793,15.793 48.707,15.8789 50.1211,17.293 50.207,17.207 51.0601,16.3539 52.4823,17.7762 
			54.7782,15.4803 50.5197,11.2218 48.2238,13.5177 49.6461,14.9399 		"/>
	</g>
</g>
</svg>
