<?xml version="1.0" encoding="utf-8"?>
<!-- Generator: Adobe Illustrator 19.1.0, SVG Export Plug-In . SVG Version: 6.00 Build 0)  -->
<svg version="1.2" baseProfile="tiny" xmlns="http://www.w3.org/2000/svg" xmlns:xlink="http://www.w3.org/1999/xlink" x="0px"
	 y="0px" width="64px" height="64px" viewBox="0 0 64 64" xml:space="preserve">
<g id="box">
	<rect fill="none" width="64" height="64"/>
</g>
<g id="Production">
	<g>
		<path fill="#ffffff" d="M42.3828,24.1973c0.7198,0.1079,1.4304,0.2513,2.1226,0.4542
			c-1.1354-6.1802-4.2041-11.6902-8.6938-15.3303c-0.4297-0.3472-1.0586-0.2817-1.4067,0.147
			c-0.3477,0.4292-0.2817,1.0591,0.147,1.4067C38.4766,14.0565,41.2241,18.8147,42.3828,24.1973z"/>
		<path fill="#ffffff" d="M7.3779,16.6074c0.4668,0.2879,1.0845,0.1453,1.3755-0.3276C12.3828,10.3823,17.9399,7,24,7
			c2.6387,0,5.1934,0.6436,7.5928,1.9126c0.4902,0.2588,1.0933,0.0718,1.3516-0.416c0.2583-0.4883,0.0718-1.0938-0.416-1.3516
			C29.8374,5.7217,26.9678,5,24,5C17.3296,5,10.9932,8.8247,7.0503,15.2319C6.7607,15.7021,6.9072,16.3179,7.3779,16.6074z"/>
		<path fill="#ffffff" d="M5.3081,34.1455C5.1035,32.7886,5,31.394,5,30c0-3.5635,0.6558-6.979,1.9487-10.1514
			c0.208-0.5117-0.0376-1.0952-0.5488-1.3037c-0.5127-0.21-1.0957,0.0376-1.3037,0.5488C3.7056,22.5073,3,26.1768,3,30
			c0,1.4932,0.1113,2.9883,0.3306,4.4434c0.0747,0.4956,0.501,0.8511,0.9873,0.8511c0.0498,0,0.1001-0.0034,0.1504-0.0112
			C5.0146,35.2012,5.3906,34.6914,5.3081,34.1455z"/>
		<path fill="#ffffff" d="M39.979,24c0.001,0,0.0015,0,0.0024,0c0.1373,0,0.2717,0.0165,0.4084,0.0199
			C38.4462,15.2725,31.9501,9,24,9c-1.7905,0-3.5503,0.3237-5.2305,0.9624c-0.5166,0.1958-0.7759,0.7734-0.5796,1.2896
			c0.1958,0.5166,0.7744,0.7764,1.2896,0.5796C20.9326,11.2798,22.4531,11,24,11c6.8754,0,12.5284,5.4323,14.3652,13.0811
			C38.8981,24.0281,39.4363,24,39.979,24z"/>
		<path fill="#ffffff" d="M9,29.5c0-6.7969,2.8154-12.8164,7.5308-16.1025c0.4531-0.3154,0.5645-0.939,0.2485-1.3921
			c-0.3154-0.4526-0.9385-0.564-1.3921-0.2485C10.1353,15.4165,7,22.0493,7,29.5v0.1353c0,4.4272,0.0005,6.2598-2.105,9.2769
			c-0.3159,0.4531-0.2046,1.0762,0.248,1.3926c0.451,0.3146,1.0746,0.2062,1.3926-0.248C9.0005,36.5234,9,34.2212,9,29.6348V29.5z"
			/>
		<path fill="#ffffff" d="M36.4086,24.4136c-0.5489-2.2342-1.4658-4.2867-2.727-6.0015c-0.3276-0.4443-0.9531-0.541-1.3984-0.2129
			c-0.4448,0.3276-0.54,0.9536-0.2129,1.3984c1.1236,1.527,1.9388,3.3692,2.4216,5.384
			C35.1176,24.7535,35.756,24.5618,36.4086,24.4136z"/>
		<path fill="#ffffff" d="M24,15.231c2.0259,0,3.9907,0.6699,5.6826,1.9365c0.4429,0.332,1.0693,0.2407,1.3999-0.2007
			c0.3311-0.4424,0.2412-1.0688-0.2007-1.3999C28.8408,14.0386,26.4614,13.231,24,13.231c-7.1665,0-12.7549,6.8965-12.9995,16.042
			c-0.2231,8.3325-1.207,10.1021-4.1919,13.4097c-0.3701,0.4102-0.3379,1.0425,0.0723,1.4121
			c0.4109,0.371,1.0429,0.3372,1.4121-0.0723c3.293-3.6484,4.4663-5.7251,4.7065-14.6958C13.2148,21.2905,17.9438,15.231,24,15.231z
			"/>
		<path fill="#ffffff" d="M25.4507,53.4805c-0.2441,0.4956-0.0405,1.0947,0.4546,1.3394c0.4957,0.2436,1.0948,0.0407,1.3394-0.4546
			c0.4442-0.9007,0.9081-1.9457,1.3715-3.1078c-0.5397-0.5449-1.0221-1.1296-1.4724-1.7342
			C26.5755,51.0329,25.9976,52.3716,25.4507,53.4805z"/>
		<path fill="#ffffff" d="M24,17.3076c-5.2148,0-9,5.1274-9,12.1924c0,3.7012-0.3696,6.5874-1.1641,9.0835
			c-0.1675,0.5264,0.1235,1.0889,0.6499,1.2563c0.5372,0.1687,1.0908-0.1312,1.2563-0.6499C16.6001,36.4922,17,33.4131,17,29.5
			c0-5.9058,2.9438-10.1924,7-10.1924c3.5356,0,6.1322,2.9427,6.816,7.5888c0.5898-0.4144,1.2012-0.7897,1.8365-1.118
			C31.6277,20.5693,28.3787,17.3076,24,17.3076z"/>
		<path fill="#ffffff" d="M13.7598,41.5312c-0.4824-0.2705-1.0918-0.0977-1.3604,0.3857c-0.832,1.4907-1.895,2.8926-3.25,4.2856
			c-0.3853,0.396-0.3765,1.0293,0.0195,1.4141c0.3961,0.3851,1.0292,0.3768,1.4141-0.0195c1.479-1.5205,2.6445-3.0596,3.5625-4.7056
			C14.415,42.4092,14.2422,41.8003,13.7598,41.5312z"/>
		<path fill="#ffffff" d="M24.5495,44.1896c-0.9825,3.1246-2.2343,6.1828-3.7463,9.1219c-0.2529,0.4912-0.0596,1.0942,0.4316,1.3467
			c0.494,0.2536,1.0959,0.0562,1.3467-0.4316c1.1868-2.3066,2.202-4.6893,3.0762-7.1142
			C25.1924,46.1773,24.8221,45.2003,24.5495,44.1896z"/>
		<path fill="#ffffff" d="M24,23.5312c0.6367,0,1.1851,0.23,1.6294,0.6841c1.4229,1.4522,1.4128,4.5391,1.3351,6.5027
			c0.8002-1.1174,1.3167-1.651,2.0066-2.3075c-0.1354-2.5465-0.7722-4.4305-1.913-5.5952
			c-0.8232-0.8398-1.8804-1.2842-3.0581-1.2842c-2.1279,0-4.7227,1.4448-4.999,8.3286c-0.2344,5.8345-1.6089,13.9521-6.8242,19.4897
			c-0.3784,0.4019-0.3599,1.0347,0.0425,1.4136c0.4012,0.3779,1.0342,0.3604,1.4136-0.0425
			c5.6392-5.9873,7.1182-14.6055,7.3662-20.7808C21.1167,27.0166,21.7329,23.5312,24,23.5312z"/>
		<path fill="#ffffff" d="M19.7998,47.3477c-0.4927-0.2495-1.0942-0.0508-1.3433,0.4419c-1.2891,2.5518-2.3848,4.0684-2.396,4.0835
			c-0.3242,0.4463-0.2261,1.0718,0.2202,1.3965c0.4452,0.3241,1.0694,0.2294,1.3965-0.2192
			c0.0483-0.0659,1.1958-1.6499,2.5645-4.3594C20.4907,48.1982,20.293,47.5967,19.7998,47.3477z"/>
		<path fill="#ffffff" d="M21.7852,45.3494c1.4072-3.4756,2.3311-6.9431,2.7461-10.4207C24.7402,33.183,25.7475,26,24.0016,26
			c0,0-0.0008,0-0.0016,0c-0.8049,0-1.0042,1.3441-1.0215,2.046c-0.0382,1.5496-0.1437,4.1027-0.4335,6.5277
			c-0.3936,3.3018-1.2725,6.6553-2.6133,9.9668c-0.207,0.5117,0.04,1.0947,0.5518,1.3018
			C20.9436,46.0285,21.5746,45.8706,21.7852,45.3494z"/>
		<path fill="#ffffff" d="M62.4326,59.5859L51.2104,48.3637c1.8017-2.4049,2.79-5.3049,2.7896-8.3632
			c0.0005-3.7397-1.4561-7.2559-4.1001-9.9004c-2.6445-2.644-6.1606-4.1006-9.9004-4.1001c-0.0005,0-0.001,0-0.002,0
			c-3.7383,0-7.2534,1.4561-9.8975,4.1001c-2.644,2.6445-4.1006,6.1602-4.1001,9.8994c0,3.7402,1.4561,7.2559,4.1006,9.9004
			C32.7446,52.5439,36.2593,54,39.998,54c0.001,0,0.002,0,0.0029,0c3.0668,0,5.9752-0.994,8.384-2.8055l11.2195,11.2195
			L62.4326,59.5859z M40.0005,52H40c-0.0005,0-0.0015,0-0.002,0c-3.2046,0-6.2173-1.248-8.4834-3.5142
			C29.248,46.2192,28,43.2056,28,39.9995c0-3.2051,1.248-6.2188,3.5146-8.4854C33.7808,29.248,36.793,28,39.9976,28
			c0.0005,0,0.0015,0,0.002,0c3.2061,0,6.2197,1.248,8.4858,3.5146C50.752,33.7808,52,36.7944,52,40.0005
			c0.0005,3.2051-1.2476,6.2183-3.5142,8.4849S43.2061,52,40.0005,52z"/>
	</g>
</g>
</svg>

