<?xml version="1.0" encoding="utf-8"?>
<!-- Generator: Adobe Illustrator 18.1.1, SVG Export Plug-In . SVG Version: 6.00 Build 0)  -->
<svg version="1.1" id="Capa_1" xmlns="http://www.w3.org/2000/svg" xmlns:xlink="http://www.w3.org/1999/xlink" x="0px" y="0px"
	 viewBox="-233 356.9 128 128" enable-background="new -233 356.9 128 128" xml:space="preserve">
<g id="Production" opacity="0.7">
	<g>
		<path fill="#FFFFFF" d="M-125.1,460.2c-2.9,2.1-7,4.4-10.7,4.4c-3.6,0-7.5-2.1-10.4-4.2c-2.7-1.9-3.8-3.1-6.2-5.5
			c-3,2.9-2.9,3-7.3,6.1h0c-2.8,1.8-6.2,3.5-9.3,3.5c-3,0-6.2-1.4-8.8-3.1c-3.8-2.4-5.5-4.2-7.7-6.5c-2.3,2.3-2.9,3-4.7,4.4
			c-3,2.3-7.7,5.3-11.9,5.3c-6.1,0-12.4-5.5-16.5-9.6c0,2.8,0,3.8,0,4.1c0,0.1,0,0.1,0,0.1c0,0.4,0,1.6,0,5
			c3.3,2.8,9.8,7.1,16.5,7.1c6.8,0,13.2-4.4,16.6-7.2c3.4,2.7,9.8,7.2,16.6,7.2c6.8,0,13.2-4.4,16.6-7.2c3.4,2.7,9.9,7.2,16.6,7.2
			c6.7,0,12.9-4.4,16.5-7.1V455C-121.7,457.4-122.7,458.5-125.1,460.2z"/>
		<path fill="#FFFFFF" d="M-208.8,438.9c0.2,0,0.2,0,0.3,0c0.1,0,0.1,0,0.1,0c0.2,0,1.3,0,5.3,0v21.1c5.9,1,13.6-7.6,17.5-11.5
			c0,0,6.1,6,6.3,6.2v-15.8h5.3h15.1v15.8c0.3-0.2,6.4-6.2,6.4-6.2c3.4,3.8,12.4,12.2,17.4,11.5v-21.1h5.1c1.7,0,3-1.3,3-3V427
			c0-1.4-1-2.6-2.3-2.9c-0.5-0.1-41.2-0.1-41.7-0.1V411c0-1.7-1.3-3-3-3h-5.5l0.9-4.4h19.8l1.4,6.8l-9.1,9.3h26.6l17.1-30.3
			c1.1-2,0.7-4.5-1-6.1c-2-1.9-5.3-1.9-7.2,0.2l-20.9,21.4l-6.6-31.8c-0.3-1.5-1.6-2.6-3.2-2.6h-14c-1.5,0-2.9,1.1-3.2,2.6l-7.3,35
			h-22.6c-1.7,0-3,1.3-3,3v24.9C-211.8,437.5-210.5,438.9-208.8,438.9z M-173,376.9h8.7l1.4,6.9h-11.6L-173,376.9z M-175.8,390.2
			c0.2,0,14.3,0,14.3,0l1.4,6.8h-17.1L-175.8,390.2z M-188.2,418.7c0-0.8,0.7-1.5,1.5-1.5h4.5c0.8,0,1.5,0.7,1.5,1.5v4.5
			c0,0.8-0.7,1.5-1.5,1.5h-4.5c-0.8,0-1.5-0.7-1.5-1.5V418.7z M-202.1,418.7c0-0.8,0.7-1.5,1.5-1.5h4.5c0.8,0,1.5,0.7,1.5,1.5v4.5
			c0,0.8-0.7,1.5-1.5,1.5h-4.5c-0.8,0-1.5-0.7-1.5-1.5V418.7z"/>
	</g>
</g>
</svg>
