<?xml version="1.0" encoding="utf-8"?>
<!-- Generator: Adobe Illustrator 18.1.1, SVG Export Plug-In . SVG Version: 6.00 Build 0)  -->
<svg version="1.2" baseProfile="tiny" xmlns="http://www.w3.org/2000/svg" xmlns:xlink="http://www.w3.org/1999/xlink" x="0px"
	 y="0px" width="128px" height="128px" viewBox="0 0 128 128" xml:space="preserve">
<g id="box">
	<rect fill="none" width="128" height="128"/>
</g>
<g id="Production">
	<g>
		<path fill="#ffffff" d="M44.892,44.8815c-6.8543,6.8548-6.8543,18.0086,0,24.863l2.3972,2.3972L72.151,47.2784l-2.3965-2.3967
			C62.8844,38.012,51.7633,38.0095,44.892,44.8815z M47.6744,62.1689c-2.0339-4.0487-1.3632-9.1194,2.0113-12.494
			c3.4094-3.409,8.4861-4.0373,12.4971-2.0148L47.6744,62.1689z"/>
		<path fill="#ffffff" d="M110.9367,39.9755L92.7536,21.7919c-1.3333-1.3334-3.4942-1.3199-4.8111,0.0173l-3.9861,4.0234
			c-7.436-6.312-16.7702-9.7519-26.633-9.7519c-35.4287,0-53.876,41.3025-31.4795,67.8647l-4.0249,3.9871
			c-1.3399,1.3215-1.3474,3.4807-0.0171,4.811l18.1841,18.1834c1.3227,1.3232,3.4692,1.3233,4.7929,0l66.1578-66.1577
			C112.2604,43.4452,112.2604,41.2992,110.9367,39.9755z M42.3822,103.7364L29.0099,90.3636l6.3762-6.2639
			c0,0-4.8281-5.0205-5.8518-6.416l5.9817-3.7808c1.1074-0.6999,1.4382-2.1652,0.7385-3.2732
			c-0.7007-1.1074-2.1662-1.4381-3.2739-0.738l-5.9805,3.7793c-1.7153-3.1843-2.8943-6.5831-3.5363-10.0635l7.0134-0.809
			c1.3017-0.1504,2.2351-1.3272,2.0854-2.6287c-0.1499-1.302-1.3266-2.2373-2.6298-2.0856l-7.0098,0.8085
			c-0.1616-3.5597,0.2231-7.1398,1.1562-10.6019l6.6765,2.3165c1.242,0.4294,2.5909-0.2279,3.0198-1.4644
			c0.4292-1.2378-0.2261-2.5892-1.4643-3.0189L25.63,43.806c1.3701-3.2269,3.2544-6.285,5.6521-9.0495l5.0147,4.988
			c0.9304,0.925,2.4299,0.9208,3.3557-0.0088c0.924-0.9292,0.9201-2.4315-0.0088-3.3555l-5.0147-4.9879
			c2.753-2.4129,5.7998-4.315,9.0186-5.7024l2.354,6.6709c0.4351,1.2348,1.7891,1.8842,3.0266,1.4485
			c1.2356-0.4364,1.8845-1.7915,1.4485-3.0272l-2.3516-6.6636c3.4578-0.9519,7.0352-1.3554,10.5952-1.2124l-0.7709,7.0137
			c-0.1436,1.3024,0.7968,2.4746,2.0988,2.6178c0.0879,0.0098,0.1761,0.0148,0.2627,0.0148c1.1936,0,2.2222-0.8996,2.3552-2.1138
			l0.772-7.0176c3.4849,0.6235,6.8916,1.7844,10.085,3.4835l-3.749,5.9993c-0.6939,1.1113-0.3565,2.5748,0.7553,3.2695
			c1.1096,0.6934,2.574,0.3578,3.2696-0.755l3.7485-5.9995c0.9741,0.7075,6.5623,5.9573,6.5623,5.9573l6.2639-6.3766
			l13.3725,13.3727L42.3822,103.7364z"/>
		<circle fill="#ffffff" cx="66.3057" cy="66.2442" r="4.854"/>
	</g>
</g>
</svg>
