<?xml version="1.0" encoding="utf-8"?>
<!-- Generator: Adobe Illustrator 18.1.1, SVG Export Plug-In . SVG Version: 6.00 Build 0)  -->
<svg version="1.2" baseProfile="tiny" xmlns="http://www.w3.org/2000/svg" xmlns:xlink="http://www.w3.org/1999/xlink" x="0px"
	 y="0px" width="64px" height="64px" viewBox="0 0 64 64" xml:space="preserve">

<g id="Production">
	<path fill="#ffffff" d="M63.8413,30.4917c-1.1474-5.4593-8.0638-7.3765-11.9214-3.3071c-0.7099,0.7491-1.8324,0.2471-1.7856-0.7041
		c0.2459-5.0525,0.7758-10.3051,2.4116-15.0981c-2.9315-0.8774-6.3748-1.7087-13.2891-2.1543
		c-2.9533-0.192-5.0841,3.1727-3.1631,5.9014c2.0479,2.9128,0.456,7.0271-2.9956,7.7544c-4.5803,0.9637-7.7696-4.1217-5.1787-7.7725
		c1.848-2.6034-0.0982-6.0764-3.1768-5.8833c-6.9223,0.4462-10.394,1.2879-13.2886,2.1543
		c1.6362,4.7943,2.1656,10.0431,2.4116,15.0981c0.0469,0.9531-1.0764,1.4515-1.7856,0.7046
		c-3.853-4.0656-10.7528-2.158-11.9014,3.3066c-1.4655,6.9699,7.078,11.4405,11.9165,6.3081
		c0.6796-0.7212,1.8174-0.2334,1.7705,0.7197c-0.2459,5.0525-0.7758,10.3051-2.4116,15.0981
		c2.9315,0.8774,6.3748,1.7087,13.2891,2.1543c2.9578,0.1843,5.082-3.1756,3.1631-5.9014C25.6286,45.631,27.8536,41,32,41
		c4.0586,0,6.4134,4.6015,4.0806,7.8887c-1.7848,2.5144-0.0325,5.8906,2.9409,5.8906c1,0,7.5409-0.3707,13.5244-2.1616
		c-1.6362-4.7943-2.1656-10.0431-2.4116-15.0981c-0.0455-0.9248,1.0797-1.4541,1.771-0.7192C53.2231,38.1982,55.0801,39,57,39
		C61.404,39,64.7821,34.9664,63.8413,30.4917z M57,37c-1.3916,0-2.6841-0.5581-3.6392-1.5713
		c-1.9479-2.0686-5.36-0.606-5.2246,2.1885c0.269,5.52,0.9409,10.4048,1.8667,13.6514c-3.4499,0.8787-8.843,1.4427-10.9814,1.5107
		c-1.2739,0-2.1961-1.4838-1.3101-2.7334C40.9821,45.4401,37.6797,39,32,39c-5.7269,0-8.952,6.4379-5.7295,11.0215
		c0.8957,1.2718,0.0354,2.8002-1.3989,2.7544c-4.3228-0.2783-8.1294-0.8081-10.8745-1.5073
		c0.9258-3.2466,1.5977-8.1313,1.8667-13.6514c0.1343-2.7723-3.263-4.2727-5.2241-2.189c-3.4608,3.6713-9.5758,0.4788-8.5239-4.5254
		c0.8232-3.9125,5.7804-5.2261,8.5132-2.3413c1.9899,2.0946,5.3694,0.5971,5.2349-2.1787c-0.269-5.52-0.9409-10.4048-1.8667-13.6514
		c3.4499-0.8787,8.843-1.4427,10.9814-1.5107c1.2739,0,2.1961,1.4839,1.3101,2.7334c-3.6483,5.1376,0.8733,12.2221,7.2217,10.8867
		c4.8267-1.016,7.1067-6.7554,4.2192-10.8623c-0.911-1.2934,0.0097-2.7578,1.292-2.7578c1,0.032,6.8061,0.4472,10.9814,1.5107
		c-0.9258,3.2466-1.5977,8.1313-1.8667,13.6514c-0.1338,2.7624,3.2405,4.2803,5.2349,2.1782
		c2.7527-2.9047,7.6965-1.5399,8.5132,2.3418C62.5644,34.1385,60.1301,37,57,37z"/>
</g>
</svg>
