<?xml version="1.0" encoding="utf-8"?>
<!-- Generator: Adobe Illustrator 18.1.1, SVG Export Plug-In . SVG Version: 6.00 Build 0)  -->
<svg version="1.2" baseProfile="tiny" xmlns="http://www.w3.org/2000/svg" xmlns:xlink="http://www.w3.org/1999/xlink" x="0px"
	 y="0px" width="128px" height="128px" viewBox="0 0 128 128" xml:space="preserve">
<g id="_x31_28px_boxes">
	<rect fill="none" width="128" height="128"/>
</g>
<g id="Production">
	<g>
		<path fill="#ffffff" d="M103.7959,62.4024h-6.3267v-18.733c0-2.0712-1.6789-3.75-3.75-3.75H72.9998v7.5h16.9694v14.983h-13.983
			v-2.9917c0-2.4882-2.1846-3.5775-3.5778-3.5775h-3.9086V9.4916c0-2.4853-2.0147-4.5-4.4999-4.5s-4.5,2.0147-4.5,4.5v46.3416
			h-3.9083c-1.128,0-3.5777,0.7863-3.5777,3.5775v2.9917H38.0306v-14.983h16.9693v-7.5H34.2806c-2.0711,0-3.75,1.6788-3.75,3.75
			v18.733h-6.3264c-3.6447,0-6.5993,2.9547-6.5993,6.5995v47.4072c0,3.6448,2.9546,6.5993,6.5993,6.5993h79.5917
			c3.6446,0,6.5992-2.9545,6.5992-6.5993V69.0019C110.3951,65.3571,107.4405,62.4024,103.7959,62.4024z M43.4863,76.4925
			c8.9539,0,16.2136,7.259,16.2136,16.2129c0,8.9542-7.2597,16.2129-16.2136,16.2129c-8.9536,0-16.2123-7.2587-16.2123-16.2129
			C27.274,83.7515,34.5327,76.4925,43.4863,76.4925z M84.5131,108.9183c-8.954,0-16.213-7.259-16.213-16.2131
			c0-8.9537,7.259-16.2127,16.213-16.2127c8.9538,0,16.213,7.259,16.213,16.2127
			C100.7261,101.6593,93.4669,108.9183,84.5131,108.9183z"/>
		<path fill="#ffffff" d="M43.4863,99.4474c-3.7229,0-6.7411-3.0188-6.7411-6.742c0-2.6451,1.5243-4.9332,3.7416-6.0373v-3.7824
			c0-3.9639,6-3.9689,6,0v3.7829c2.2171,1.1041,3.7417,3.3918,3.7417,6.0368C50.2285,96.4286,47.2092,99.4474,43.4863,99.4474z"/>
		<path fill="#ffffff" d="M46.4868,86.6686v-3.7829c0-3.9638-6-3.9691-6,0v3.7824c-2.2173,1.1041-3.7416,3.3922-3.7416,6.0373
			c0,3.7232,3.0182,6.742,6.7411,6.742s6.7422-3.0188,6.7422-6.742C50.2285,90.0604,48.7039,87.7727,46.4868,86.6686z"/>
		<path fill="#ffffff" d="M94.3331,89.7054h-3.7828c-1.104-2.2173-3.392-3.7413-6.0372-3.7413c-3.7228,0-6.7418,3.018-6.7418,6.7411
			c0,3.7229,3.019,6.7422,6.7418,6.7422c2.645,0,4.933-1.5247,6.037-3.742h3.783C98.2972,95.7054,98.3013,89.7054,94.3331,89.7054z"
			/>
	</g>
</g>
</svg>
