<?xml version="1.0" encoding="utf-8"?>
<!-- Generator: Adobe Illustrator 18.1.0, SVG Export Plug-In . SVG Version: 6.00 Build 0)  -->
<svg version="1.2" baseProfile="tiny" xmlns="http://www.w3.org/2000/svg" xmlns:xlink="http://www.w3.org/1999/xlink" x="0px"
	 y="0px" width="64px" height="64px" viewBox="0 0 64 64" xml:space="preserve">
<g id="_x36_4px_boxes">
	<rect fill="none" width="64" height="64"/>
</g>
<g id="Production">
	<g>
		<circle fill="#ffffff" cx="44.5" cy="19.5" r="2.5"/>
		<circle fill="#ffffff" cx="35.5" cy="28.5" r="2.5"/>
		<path fill="#ffffff" d="M55.4004,6H45.0352c-4.4072,0-8.5508,1.7168-11.667,4.833l-7.8066,7.8057l-3.1885-0.5215
			C21.9072,18.0391,21.4326,18,20.9609,18c-2.8604,0-5.5098,1.4238-7.0879,3.8096L6.6067,32.7805l3.8477,3.8477l15.3911-2.6284
			L21.5557,29.71l-7.7822,1.2969l4.2695-6.4385c0.7578-1.1445,2.1406-1.75,3.5-1.5205l5.7314,0.9502l9.6289-9.6299
			C39.0752,12.1963,41.9639,11,45.0352,11H53v7.9648c0,3.0713-1.1963,5.96-3.3682,8.1318l-9.6289,9.6289l0.9484,5.7314
			c0.2295,1.3633-0.3672,2.7363-1.5205,3.499l-6.4376,4.2695l1.2969-7.7812l-4.2898-4.2898l-2.6294,15.3901l3.8474,3.8474
			l10.9713-7.2661c2.8008-1.8525,4.25-5.1895,3.6924-8.5l-0.5216-3.1875l7.8066-7.8066C56.2832,27.5156,58,23.3721,58,18.9648
			V8.5996C58,7.166,56.834,6,55.4004,6z"/>
		<path fill="#ffffff" d="M20.6604,47.0566c-0.7748,2.6984-2.0886,4.5802-8.6758,4.9431C12.2753,46.6896,13.042,43.405,19,42.9631
			v-4.9668c-3.974,0.1938-7.3503,1.6018-9.4359,4.5354c-2.7487,3.8652-2.6898,9.8829-2.4478,14.3069
			c1.629,0.0887,9.7089,0.8552,14.3461-2.4231c2.8967-2.0479,4.351-5.4487,4.5476-9.4155h-4.9818
			C20.9865,45,20.8723,46.3182,20.6604,47.0566z"/>
	</g>
</g>
</svg>

