<?xml version="1.0" encoding="utf-8"?>
<!-- Generator: Adobe Illustrator 18.1.1, SVG Export Plug-In . SVG Version: 6.00 Build 0)  -->
<svg version="1.2" baseProfile="tiny" xmlns="http://www.w3.org/2000/svg" xmlns:xlink="http://www.w3.org/1999/xlink" x="0px"
	 y="0px" width="64px" height="64px" viewBox="0 0 64 64" xml:space="preserve">

<g id="Production">
	<g>
		<path fill="#ffffff" d="M55.2956,16.0952l-8.4445,8.5732l-5.9731-1.4937l-1.4932-5.9727l8.5728-8.5732
			c-6.1333-3.0679-11.6464-1.8392-15.7158,2.231c-5.7441,5.7441-4.1411,15.2207-3.6367,17.7686
			c-2.8413,2.2847-17.003,13.5273-19.4522,15.9771c-3.0332,3.0332-2.5742,7.7212,0,10.2944c2.6081,2.609,7.2941,3.0014,10.2944,0
			c2.4512-2.4512,13.4399-16.4663,15.6943-19.3486c6.1332,1.2237,13.4926,0.6902,17.9231-3.7402
			C57.093,27.7827,58.3627,22.2269,55.2956,16.0952z M51.7788,30.397c-4.1858,4.1858-11.8029,4.3139-17.4272,2.9165
			c-2.1433,2.746-13.8848,17.7384-16.3184,20.1724c-2.2535,2.2535-5.6776,1.7887-7.4663,0c-1.8175-1.8175-2.2277-5.2376,0-7.4663
			c2.4386-2.4386,17.5707-14.4512,20.2701-16.6182c-1.3853-5.6166-1.3117-12.9969,2.8188-17.1274
			c3.1262-3.1255,6.9777-4.0213,10.7935-2.9648l-7.2793,7.2798l2.0586,8.2354l8.2358,2.0591l7.1511-7.2798
			C55.2219,21.8125,55.8569,26.3188,51.7788,30.397z"/>
		<circle fill="#ffffff" cx="14.4933" cy="49.4867" r="2.0731"/>
	</g>
</g>
</svg>
