<?xml version="1.0" encoding="utf-8"?>
<!-- Generator: Adobe Illustrator 18.1.1, SVG Export Plug-In . SVG Version: 6.00 Build 0)  -->
<svg version="1.2" baseProfile="tiny" xmlns="http://www.w3.org/2000/svg" xmlns:xlink="http://www.w3.org/1999/xlink" x="0px"
	 y="0px" width="128px" height="128px" viewBox="0 0 128 128" xml:space="preserve">
<g id="box">
	<rect fill="none" width="128" height="128"/>
</g>
<g id="Production">
	<g>
		<path fill="#ffffff" d="M83.7487,50.5242l-5.2573,12.8833c-0.7667,2.048-1.8029,3.7067-2.9398,5.0588l8.1874,0.0321h0.0515
			c22.6434,0.0024,30.7645-14.3241,30.9043-14.6769l1.7466-3.2973C111.5649,50.5108,116.7692,50.6968,83.7487,50.5242z"/>
		<path fill="#ffffff" d="M47.6461,68.3539l4.9143-12.0826c-0.1201,0.0072-0.2182,0.0196-0.3455,0.0246l-4.6008-0.0343
			c0.1225-0.642,0.2817-1.2692,0.3039-1.9525V54.282c-0.3112-8.6673-8.9027-13.9294-18.1506-13.9516
			c-0.0931,0.0025-0.1616,0.0075-0.2157,0.01c-11.6453,0.1208-18.5947,8.0053-17.952,14.385
			c0.5202,8.6337,9.2369,13.6015,18.175,13.6015C33.3279,68.2835,21.79,68.2472,47.6461,68.3539z M29.7674,61.4822
			c0.0073,0-0.0613-0.005-0.0613-0.005c-6.1399,0.0267-11.2788-3.3456-11.2788-7.1142l-0.0026-0.005h0.0026
			c-0.0235-3.7549,5.0725-7.1778,11.3058-7.1778h0.0343c6.703-0.0145,13.0617,4.2064,10.8232,9.0299
			C38.9556,59.7328,33.994,61.4759,29.7674,61.4822z"/>
		<path fill="#ffffff" d="M89.496,16.2098c-0.3747-0.0074-16.7419,2.0553-25.3457,23.0282L44.0596,88.6091
			c-4.1978,9.3883-1.838,19.5492,5.6809,22.7341c6.8047,2.8396,15.7066-1.5417,19.8804-11.4162
			c1.2005-2.8833,1.7761-5.8403,1.7833-8.6624c0.0142-6.5451-3.2746-12.6445-9.6472-14.0525l1.6854-4.177
			c1.3545-2.9934,2.1385-2.9984,4.1941-3.9856c2.0625-0.8206,5.0467-2.5772,6.8326-7.1951l18.6674-46.0488L89.496,16.2098z
			 M63.3004,97.3081c-2.091,5.1592-7.1579,9.2893-10.936,7.7121c-1.9158-0.7399-3.5106-3.2607-3.5328-7.1611
			c0-2.7128,0.8222-5.7264,2.543-8.4907c0.0025-0.0025,0.0025-0.0049,0.0025-0.0049h0.0024
			c2.0455-3.2748,6.0864-6.6959,9.6571-5.2549C64.209,85.3374,65.8592,91.125,63.3004,97.3081z M65.6889,63.922h-0.0172
			c-3.2485,0-5.3992-3.3526-4.1769-6.2298c0.9898-2.3692,3.6872-3.3924,5.8917-2.4498c1.7492,0.7202,2.8025,2.4009,2.7953,4.177
			C70.1818,61.9334,68.1426,63.922,65.6889,63.922z"/>
	</g>
</g>
</svg>
