<?xml version="1.0" encoding="utf-8"?>
<!-- Generator: Adobe Illustrator 18.1.1, SVG Export Plug-In . SVG Version: 6.00 Build 0)  -->
<svg version="1.2" baseProfile="tiny" xmlns="http://www.w3.org/2000/svg" xmlns:xlink="http://www.w3.org/1999/xlink" x="0px"
	 y="0px" width="64px" height="64px" viewBox="0 0 64 64" xml:space="preserve">

<g id="Production">
	<g>
		<path fill="#ffffff" d="M33.9629,26c0-5.4937-4.4692-9.9629-9.9629-9.9629S14.0371,20.5063,14.0371,26S18.5063,35.9629,24,35.9629
			S33.9629,31.4937,33.9629,26z M16.0371,26c0-4.3906,3.5723-7.9629,7.9629-7.9629S31.9629,21.6094,31.9629,26
			S28.3906,33.9629,24,33.9629S16.0371,30.3906,16.0371,26z"/>
		<rect x="2" y="25" fill="#ffffff" width="8.1479" height="2"/>
		<rect x="37.8521" y="25" fill="#ffffff" width="8.1479" height="2"/>
		
			<rect x="10.3246" y="34.6017" transform="matrix(-0.7071 -0.7071 0.7071 -0.7071 -8.0157 74.0309)" fill="#ffffff" width="1.9998" height="8.1476"/>
		
			<rect x="35.6756" y="9.2507" transform="matrix(0.7071 0.7071 -0.7071 0.7071 20.1638 -22.0309)" fill="#ffffff" width="1.9998" height="8.1476"/>
		<rect x="23" y="39.8521" fill="#ffffff" width="2" height="8.1479"/>
		<rect x="23" y="4" fill="#ffffff" width="2" height="8.1479"/>
		
			<rect x="7.2507" y="12.3246" transform="matrix(0.7071 0.7071 -0.7071 0.7071 12.7387 -4.105)" fill="#ffffff" width="8.1476" height="1.9998"/>
		<path fill="#ffffff" d="M44.5884,47.4126c-2.2172,2.2626-2.1424,5.8621,0.1953,8.0308c2.2882,2.1239,5.9401,2.0912,8.1753-0.1895
			c2.1512-2.1954,1.8232-5.0621,2.1001-10.3599C49.6803,45.408,46.7248,45.232,44.5884,47.4126z M51.5303,53.854
			c-1.4641,1.4937-3.8795,1.5216-5.3862,0.1235c-1.5043-1.3954-1.5633-3.6999-0.127-5.1655
			c1.3725-1.4004,3.5465-1.4404,6.9341-1.7158C52.832,50.3761,52.8873,52.4692,51.5303,53.854z"/>
		<path fill="#ffffff" d="M45.0591,31.894c-5.3525,0.5115-8.3305,0.3342-10.4707,2.5186c-2.2172,2.2626-2.1424,5.8621,0.1953,8.0308
			c2.2882,2.1239,5.9401,2.0912,8.1753-0.1895C45.1168,40.0518,44.7848,37.1413,45.0591,31.894z M41.5303,40.854
			c-1.4641,1.4937-3.8795,1.5216-5.3862,0.1235c-1.5043-1.3954-1.5633-3.6999-0.127-5.1655
			c1.3725-1.4004,3.5465-1.4404,6.9341-1.7158C42.832,37.3761,42.8873,39.4692,41.5303,40.854z"/>
		<path fill="#ffffff" d="M27.6108,51.4121c-2.2264,2.272-2.134,5.8703,0.1953,8.0312c2.288,2.1238,5.939,2.0914,8.1753-0.1895
			c2.1391-2.183,1.8195-4.9899,2.1001-10.3604C32.7454,49.4057,29.7553,49.224,27.6108,51.4121z M34.5527,57.8535
			c-1.4632,1.4938-3.879,1.5225-5.3862,0.124c-1.5071-1.399-1.5608-3.7024-0.127-5.1655c1.3713-1.3992,3.5419-1.4405,6.9341-1.7158
			C35.8546,54.3833,35.9076,56.4714,34.5527,57.8535z"/>
		<path fill="#ffffff" d="M51.5884,30.4126c-2.2172,2.2626-2.1424,5.8621,0.1953,8.0308c2.2882,2.1239,5.9401,2.0912,8.1753-0.1895
			c1.7842-1.8208,1.8633-4.2241,1.9629-7.2661c0.0482-1.4659,0.0556-1.5332,0.1372-3.0938
			C56.6803,28.408,53.7248,28.232,51.5884,30.4126z M58.5303,36.854c-1.4641,1.4937-3.8795,1.5216-5.3862,0.1235
			c-1.5043-1.3954-1.5633-3.6999-0.127-5.1655c1.3725-1.4004,3.5465-1.4404,6.9341-1.7158
			C59.832,33.3761,59.8873,35.4692,58.5303,36.854z"/>
	</g>
</g>
</svg>
