<?xml version="1.0" encoding="utf-8"?>
<!-- Generator: Adobe Illustrator 18.1.1, SVG Export Plug-In . SVG Version: 6.00 Build 0)  -->
<svg version="1.2" baseProfile="tiny" xmlns="http://www.w3.org/2000/svg" xmlns:xlink="http://www.w3.org/1999/xlink" x="0px"
	 y="0px" width="128px" height="128px" viewBox="0 0 128 128" xml:space="preserve">
<g id="_x31_28px_boxes">
	<rect fill="none" width="128" height="128"/>
</g>
<g id="Production">
	<g>
		<path fill="#ffffff" d="M58.2497,97.3144c0,1.5875,1.459,3.9262,5.7494,3.9262c3.8615,0,6.0284-1.8449,6.0284-4.355
			c0-1.931-1.4159-2.9606-2.5743-3.3682v-0.043c1.137-0.5576,1.9522-1.6518,1.9522-3.0034c0-1.4588-1.18-3.69-5.2131-3.69h-0.0215
			c-3.1106,0-5.4492,1.6304-5.4492,4.0977c0,1.2873,0.7294,2.3814,2.0167,3.0463v0.043
			C59.1937,94.5899,58.2497,95.6411,58.2497,97.3144z M64.0635,89.4842h0.0215c1.0514,0,1.5446,0.708,1.5446,1.4588
			c0,0.6865-0.6436,1.2443-1.2228,1.3517c-0.9654-0.2792-1.8233-0.794-1.8233-1.5235
			C62.5835,90.0418,63.0982,89.4842,64.0635,89.4842z M63.9133,95.3409c1.1371,0.2577,1.9522,0.901,1.9522,1.8452
			c0,0.7724-0.7291,1.287-1.6518,1.287h-0.0214c-1.0084,0-1.7378-0.7724-1.7378-1.5448
			C62.4545,96.1133,62.9909,95.5125,63.9133,95.3409z"/>
		<path fill="#ffffff" d="M100.8874,16.6951H27.1128c-2.779,0-5.0319,2.2528-5.0319,5.0317v84.5462
			c0,2.7791,2.2529,5.0319,5.0319,5.0319h73.7746c2.7789,0,5.0317-2.2528,5.0317-5.0319V21.7268
			C105.9191,18.9479,103.6663,16.6951,100.8874,16.6951z M49.5133,103.8263H29.5595v-19.545h19.9538V103.8263z M49.5133,79.8931
			H29.5595V60.0775h19.9538V79.8931z M49.5133,55.6892H29.5595V36.1444h19.9538V55.6892z M74.0988,103.8263H53.9014v-19.545h20.1974
			V103.8263z M74.0988,79.8931H53.9014V60.0775h20.1974V79.8931z M74.0988,55.6892H53.9014V36.1444h20.1974V55.6892z
			 M98.4405,103.8263H78.4869v-19.545h19.9536V103.8263z M98.4405,79.8931H78.4869V60.0775h19.9536V79.8931z M98.4405,55.6892
			H78.4869V36.1444h19.9536V55.6892z"/>
		<path fill="#ffffff" d="M39.5652,50.6933c2.668,0,4.8386-2.1701,4.8386-4.838s-2.1706-4.8382-4.8386-4.8382
			c-2.6679,0-4.8384,2.1703-4.8384,4.8382S36.8973,50.6933,39.5652,50.6933z"/>
		<path fill="#ffffff" d="M64.0958,50.6933c2.6677,0,4.8381-2.1701,4.8381-4.838s-2.1704-4.8382-4.8381-4.8382
			c-2.6681,0-4.8383,2.1703-4.8383,4.8382S61.4277,50.6933,64.0958,50.6933z"/>
		<path fill="#ffffff" d="M64,74.8234c2.6679,0,4.8383-2.1705,4.8383-4.8382c0-2.6679-2.1704-4.8385-4.8383-4.8385
			s-4.8383,2.1706-4.8383,4.8385C59.1617,72.6529,61.3321,74.8234,64,74.8234z"/>
		<path fill="#ffffff" d="M88.2866,74.8234c2.6679,0,4.8384-2.1705,4.8384-4.8382c0-2.6679-2.1705-4.8385-4.8384-4.8385
			s-4.8383,2.1706-4.8383,4.8385C83.4483,72.6529,85.6187,74.8234,88.2866,74.8234z"/>
		<path fill="#ffffff" d="M39.5652,99.0277c2.668,0,4.8386-2.1705,4.8386-4.8385s-2.1706-4.8383-4.8386-4.8383
			c-2.6679,0-4.8384,2.1703-4.8384,4.8383S36.8973,99.0277,39.5652,99.0277z"/>
		<path fill="#ffffff" d="M88.2866,99.0277c2.6679,0,4.8384-2.1705,4.8384-4.838c0-2.668-2.1705-4.8383-4.8384-4.8383
			s-4.8383,2.1703-4.8383,4.8383C83.4483,96.8572,85.6187,99.0277,88.2866,99.0277z"/>
		<path fill="#ffffff" d="M87.7686,50.2161c-1.5445,0-3.1321-0.6648-3.7113-0.9439l-0.8367,2.982
			c2.85,1.8137,11.1772,1.8479,11.1772-3.1965c0-1.8021-1.459-3.0463-3.1968-3.261V45.754c1.888-0.6008,2.7247-1.7593,2.7247-3.2608
			c0-4.2889-7.3949-4.2171-10.3404-2.4244l0.8581,2.8745c0.5579-0.3001,2.0167-0.9007,3.3682-0.9007
			c2.7669,0,2.6587,2.3169-0.1715,2.3169h-1.7379v2.8531h1.8022C90.7338,47.2126,91.2279,50.2161,87.7686,50.2161z"/>
		<path fill="#ffffff" d="M39.9765,77.0863h3.8832v-3.1325h1.6091V71.015h-1.6091v-7.8734h-5.3846l-4.9558,8.2381v2.5741h6.4572
			V77.0863z M37.2951,71.015l0.0214-0.0429c2.8426-5.5801,1.4046-2.7993,2.66-5.3634h0.086
			c-0.1009,2.5286-0.086,2.1307-0.086,5.4063H37.2951z"/>
	</g>
</g>
</svg>
