<?xml version="1.0" encoding="utf-8"?>

<svg version="1.2" baseProfile="tiny" xmlns="http://www.w3.org/2000/svg" xmlns:xlink="http://www.w3.org/1999/xlink" x="0px"
	 y="0px" width="128px" height="128px" viewBox="0 0 128 128" xml:space="preserve">
<g id="_x31_28px_boxes">
	<rect fill="none" width="128" height="128"/>
</g>
<g id="Production">
	<g>
		<path fill="#ffffff" d="M99.6819,46.2769c-0.0069-0.8277-0.6792-1.4966-1.5083-1.4966c-0.1106,0-0.2183,0.0127-0.3221,0.0351
			L81.946,47.7622c-2.6052,0.4434-5.0237-0.3056-6.2566-2.1548c-1.4834-2.2256-1.0932-4.5679,1.1321-7.7299
			c1.6577-2.3551,3.207-6.1231,3.207-9.2764c0-7.8667-6.0727-14.2442-13.5637-14.2442c-7.4907,0-13.5635,6.3775-13.5635,14.2442
			c0,3.1533,1.5498,6.9213,3.2071,9.2764c2.2251,3.162,2.6152,5.5043,1.1318,7.7299c-1.2329,1.8492-3.5898,2.5378-6.2563,2.1548
			L32.0052,44.802c-0.0001,0.0015-0.1712-0.0198-0.2599-0.0198c-0.8018,0-1.4558,0.626-1.5041,1.416L28.407,65.5019
			c-0.3069,2.6592,0.2922,4.7999,2.0593,5.9781c2.1262,1.4174,4.3642,1.0444,7.3855-1.0816
			c2.2505-1.5834,5.8508-3.0644,8.8637-3.0644c7.5169,0,13.6106,5.8027,13.6106,12.9599c0,7.1578-6.0937,12.9605-13.6106,12.9605
			c-3.0126,0-6.6132-1.481-8.8637-3.0644c-3.0213-2.1265-5.2593-2.4991-7.3855-1.0816c-1.7669,1.1782-2.4063,3.0747-2.0593,5.978
			l1.8381,17.1704c0.0624,0.7757,0.7107,1.3863,1.5027,1.3863c0.0031,0,59.8388,0,59.8388,0c4.472,0,8.0972-3.6514,8.0972-8.1231
			L99.6819,46.2769z"/>
	</g>
</g>
</svg>
