<?xml version="1.0" encoding="utf-8"?>
<!-- Generator: Adobe Illustrator 19.1.0, SVG Export Plug-In . SVG Version: 6.00 Build 0)  -->
<svg version="1.2" baseProfile="tiny" xmlns="http://www.w3.org/2000/svg" xmlns:xlink="http://www.w3.org/1999/xlink" x="0px"
	 y="0px" width="64px" height="64px" viewBox="0 0 64 64" xml:space="preserve">
<g id="box">
	<rect fill="none" width="64" height="64"/>
</g>
<g id="Production">
	<path fill="#ffffff" d="M53.2668,36.3714c-2.9041-2.8583-8.1145-4.2941-11.2275-5.1519c-2.0071-0.5531-3.8047-0.7871-3.1309-3.7668
		c1.4524-1.8254,1.7104-3.1665,2.0066-4.7045c0.0122-0.064,0.0247-0.1288,0.0376-0.1949c1.8601-1.317,2.3862-4.3041,2.2322-6.2167
		c-0.0718-0.8891-0.3513-1.5775-0.7476-2.0804c0.2681-1.6213,0.5669-4.3029,0.0664-6.2999C41.4609,3.7955,37.675,1,33.0835,1
		c-3.9644,0-10.3845,2.2108-11.574,6.9562c-0.5007,1.9971-0.2017,4.6786,0.0664,6.3c-0.3962,0.503-0.6758,1.1912-0.7476,2.0801
		c-0.1548,1.919,0.375,4.9189,2.25,6.2295c0.4114,1.8409,0.8323,3.4665,2.0339,4.9205c0.6519,2.9693-1.1741,3.1923-3.1433,3.7342
		c-3.1165,0.8578-8.3328,2.2935-11.2358,5.1509C7,40.0461,7,44.9309,7,47.8495V54c0,4.4112,3.5889,8,8,8h31.5
		c3.584,0,6.5-2.916,6.5-6.5S50.084,49,46.5,49h-2.5359l-4.1819-16.358c0.0171,0.0059,0.0317,0.0137,0.0491,0.0195
		c2.1108,0.7076,8.896,2.0482,12.0325,5.1353C55,40.8839,55,48.0714,55,50.8495C55,52.9487,55,62,55,62h2V50.8495
		C57,45.8196,56.5757,39.6285,53.2668,36.3714z M24.8186,21.1779c-1.6545-0.3265-2.1113-3.2603-1.9968-4.6805
		c0.0991-1.2263,0.7549-1.3081,0.928-1.3081c0.0269,0,0.042,0.002,0.042,0.002s-0.97-4.2452-0.3423-6.7487
		C24.3247,4.9506,29.6035,3,33.0835,3c3.4797,0,6.605,1.9506,7.4802,5.4424c0.6274,2.5035-0.3423,6.7487-0.3423,6.7487
		s0.0151-0.002,0.042-0.002c0.1731,0,0.8289,0.0818,0.9277,1.3081c0.1145,1.4202-0.3423,4.354-1.9966,4.6805
		c-0.5134,2.2858-0.4065,3.3432-2.1016,5.3336c-0.2942,0.8542-0.4199,2.1399-0.1858,3.1769L31.99,36.3388l-4.8103-7.1099
		c0.1216-0.967-0.0151-2.0077-0.2598-2.7174C25.616,25.1431,25.332,23.4637,24.8186,21.1779z M26.4229,31.6797l4.3062,6.3645
		l-8.9805,12.1459L26.4229,31.6797z M14.5137,59.9754C11.428,59.7272,9,57.1495,9,54v-6.1505c0-2.722,0-6.9656,3.1362-10.0527
		c3.1035-3.0547,9.7847-4.3983,11.97-5.1117l-5.4509,21.5854l0.0645,0.0162L14.5137,59.9754z M46.5,51c2.4814,0,4.5,2.0186,4.5,4.5
		c0,2.3892-1.8765,4.3303-4.2305,4.4728L44.4756,51H46.5z M44.7124,60H16.9829l20.605-27.8677L44.7124,60z"/>
</g>
</svg>

