<?xml version="1.0" encoding="utf-8"?>
<!-- Generator: Adobe Illustrator 19.1.0, SVG Export Plug-In . SVG Version: 6.00 Build 0)  -->
<svg version="1.2" baseProfile="tiny" xmlns="http://www.w3.org/2000/svg" xmlns:xlink="http://www.w3.org/1999/xlink" x="0px"
	 y="0px" width="64px" height="64px" viewBox="0 0 64 64" xml:space="preserve">
<g id="box">
	<rect fill="none" width="64" height="64"/>
</g>
<g id="Production">
	<g>
		<path fill="#ffffff" d="M32,11H14C7.3833,11,2,16.3833,2,23v18c0,6.6167,5.3833,12,12,12h30V23C44,16.3833,38.6167,11,32,11z
			 M42,51H14C8.4858,51,4,46.5142,4,41V23c0-5.5142,4.4858-10,10-10h18c5.5142,0,10,4.4858,10,10V51z"/>
		<path fill="#ffffff" d="M23,18c-7.7197,0-14,6.2803-14,14s6.2803,14,14,14s14-6.2803,14-14S30.7197,18,23,18z M23,44
			c-6.6167,0-12-5.3833-12-12s5.3833-12,12-12s12,5.3833,12,12S29.6167,44,23,44z"/>
		<polygon fill="#ffffff" points="46,42 46,44 60,44 60,49 46,49 46,51 60,51 60,58 62,58 62,42 		"/>
		<path fill="#ffffff" d="M25.4072,29.749c-0.5576-0.2378-1.1899-0.3569-1.897-0.3569c-0.9155,0-1.9795,0.3442-2.6318,1.0811
			l-0.0405-0.041l0.7344-3.6309h5.6504v-2.0811h-7.3843l-1.5303,7.813h2.3257c0.3634-0.9597,1.228-1.3052,2.3052-1.3052
			c0.9376,0,1.6316,0.3617,2.0605,0.8975c0.4623,0.5786,0.6523,1.346,0.6523,2.0806c0,1.1636-0.278,1.8123-0.5811,2.2236
			c-0.4912,0.6652-1.2336,0.918-2.0708,0.918c-1.5049,0-2.4937-0.8336-2.6313-2.4072H18.043
			c0.0273,0.7212,0.1733,1.3501,0.4385,1.8872c0.5461,1.1042,1.4834,1.8264,2.6318,2.1826
			c1.2432,0.3859,2.9617,0.4135,4.1714-0.2041c1.2446-0.6354,2.0482-1.6588,2.4175-2.8765
			c0.3992-1.3151,0.3378-2.5992-0.0205-3.6616C27.2986,31.1329,26.5535,30.2379,25.4072,29.749z"/>
	</g>
</g>
</svg>

