<?xml version="1.0" encoding="utf-8"?>

<svg version="1.2" baseProfile="tiny" xmlns="http://www.w3.org/2000/svg" xmlns:xlink="http://www.w3.org/1999/xlink" x="0px"
	 y="0px" width="128px" height="128px" viewBox="0 0 128 128" xml:space="preserve">
<g id="_x31_28px_boxes">
	<rect fill="none" width="128" height="128"/>
</g>
<g id="Production">
	<g>
		<path fill="#ffffff" d="M44.688,42.1189l38.9878-9.366c2.3452-0.5634,3.7895-2.9214,3.2258-5.2661
			c-0.563-2.3454-2.9209-3.79-5.2663-3.2265l-38.9878,9.3662c-2.3448,0.5634-3.7891,2.9214-3.2259,5.2668
			C39.9854,41.2397,42.3464,42.6824,44.688,42.1189z"/>
		<path fill="#ffffff" d="M88.5786,53.5125c-0.5632-2.3455-2.9211-3.7898-5.2659-3.2264l-37.371,8.9766
			c-3.8179,0.916-4.574,6.0474-1.1729,8.0229l0.0002-0.0002c1.4373,0.8198,7.0215,4.8298,7.9812,9.6284h8.8121
			c-0.3836-4.2207-2.409-7.9919-5.2122-11.1689l29.0022-6.9663C87.697,58.2153,89.1418,55.8574,88.5786,53.5125z"/>
		<path fill="#ffffff" d="M44.688,55.3325l40.6645-9.7685c2.3448-0.5633,3.7896-2.9209,3.2259-5.2661
			c-0.5633-2.3453-2.9212-3.7898-5.2664-3.2266l-40.6645,9.7685c-2.3448,0.5635-3.7896,2.9209-3.2259,5.2664
			C39.9844,54.4492,42.3401,55.896,44.688,55.3325z"/>
		<path fill="#ffffff" d="M47.3169,28.2737l18.1352-4.3567c2.345-0.563,3.7898-2.9207,3.2264-5.2661
			c-0.5638-2.3447-2.9214-3.7898-5.2664-3.2261l-18.135,4.3565c-2.3455,0.5634-3.79,2.9213-3.2263,5.2661
			C42.6162,27.4026,44.9836,28.8359,47.3169,28.2737z"/>
		<path fill="#ffffff" d="M71.8552,66.1689c-3.2878,2.8291-5.8535,6.398-6.3366,10.7449h8.8964
			c1.0271-3.0466,4.9522-5.7251,7.7928-7.2368c2.279-1.2153,3.0471-4.1733,1.5168-6.3594L71.8552,66.1689z"/>
		<path fill="#ffffff" d="M79.7234,80.792H48.2676c-0.7041,0-1.2761,0.5749-1.2761,1.2761v8.3215
			c0.1096,3.3233,3.8356,6.4639,6.5666,8.336v7.3635c-0.0054,2.4199,2.9048,3.5261,5.2554,4.1548
			c0.1282,1.375,1.2856,2.4531,2.6953,2.4531h5.0139c1.4324,0,2.606-1.1184,2.6978-2.5295
			c2.2976-0.6223,5.2175-1.6887,5.2114-4.0784v-7.363c2.739-1.8826,6.4585-5.0142,6.5674-8.3365v-8.3215
			C80.9993,81.3665,80.428,80.792,79.7234,80.792z"/>
	</g>
</g>
</svg>
