<?xml version="1.0" encoding="utf-8"?>
<!-- Generator: Adobe Illustrator 18.1.1, SVG Export Plug-In . SVG Version: 6.00 Build 0)  -->
<svg version="1.2" baseProfile="tiny" xmlns="http://www.w3.org/2000/svg" xmlns:xlink="http://www.w3.org/1999/xlink" x="0px"
	 y="0px" width="128px" height="128px" viewBox="0 0 128 128" xml:space="preserve">
<g id="_x31_28px_boxes">
	<rect fill="none" width="128" height="128"/>
</g>
<g id="Production">
	<g>
		<path fill="#ffffff" d="M58.6868,79.2063c1.6984-3.5812-3.72-6.1578-5.4214-2.5713
			c-7.4941,15.8018-27.8125,21.3008-28.0168,21.3545c-3.7895,0.9904-2.374,6.8191,1.5142,5.8056
			C27.7066,103.5495,49.9774,97.5703,58.6868,79.2063z"/>
		<path fill="#ffffff" d="M68.6646,82.0376c4.4744-14.7538-7.2327-23.3598-16.7808-18.1372
			c-11.4562,6.2677-6.0007,16.83-30.9538,23.9936c-3.8089,1.0937-2.1612,6.8622,1.6557,5.7671
			c26.4338-7.5888,23.4861-19.742,32.1778-24.4968c5.0755-2.7775,10.9535,1.918,8.1594,11.1318
			c-3.6597,12.0668-19.4512,23.334-31.0452,26.7544c-3.761,1.11-2.1586,6.892,1.6978,5.7549
			C47.1429,108.8023,64.4017,96.0931,68.6646,82.0376z"/>
		<path fill="#ffffff" d="M63.3413,51.7337c-8.3449-1.9582-16.841,0.9019-23.3107,7.847
			c-8.2042,8.8067-8.3195,13.355-19.5594,16.9567c-3.7738,1.2092-1.9504,6.9243,1.8311,5.7138
			c13.2119-4.2338,14.3531-10.2447,22.1184-18.5807c4.9622-5.3268,11.3596-7.5483,17.5498-6.0955
			c5.5862,1.311,10.0549,5.4842,11.6626,10.8913c6.086,20.4702-12.9609,37.5039-31.1208,45.8708
			c-3.569,1.6438-1.127,7.1272,2.5107,5.4493C91.594,98.3303,87.2503,57.3445,63.3413,51.7337z"/>
		<path fill="#ffffff" d="M69.2913,42.0956c-24.896-8.3293-40.7457,12.3838-49.6738,23.41
			c-2.4986,3.0865,2.1705,6.8548,4.6636,3.7751c6.6623-8.2302,12.913-17.3514,24.9465-21.4838
			c10.7593-3.6951,25.8974-0.6494,32.7603,12.2719c10.4279,19.6353-1.8697,43.2916-19.783,54.8181
			c-3.3187,2.1361-0.0987,7.1975,3.2466,5.0459C100.757,97.2151,98.9571,52.021,69.2913,42.0956z"/>
		<path fill="#ffffff" d="M83.1431,36.1822C66.4579,24.61,41.7225,26.6207,26.4908,41.6808
			c-2.8186,2.7872,1.3959,7.0566,4.2187,4.2666c12.9422-12.7968,34.472-14.9208,49.0142-4.835
			c18.7969,13.037,23.0891,37.84,10.4382,60.3163c-1.9466,3.4582,3.2846,6.3976,5.2285,2.9429
			C108.6468,80.8203,105.7668,51.8731,83.1431,36.1822z"/>
		<path fill="#ffffff" d="M109.3687,50.7866c-2.8408-7.2687-7.7627-14.0261-14.2339-19.5416
			c-15.4804-13.1948-35.2972-16.4334-53.247-10.3558c-3.7541,1.2709-1.8356,6.9559,1.9242,5.683
			c27.0197-9.149,52.4106,7.0597,59.9683,26.3985C105.2152,56.6426,110.8188,54.4978,109.3687,50.7866z"/>
		<path fill="#ffffff" d="M59.7769,13.7622c0.1802-0.025,18.1943-2.375,33.3018,10.0869c3.0552,2.5216,6.872-2.1089,3.8178-4.6284
			C79.6827,5.021,59.7659,7.7014,58.9268,7.8227C55.0151,8.3867,55.8516,14.3117,59.7769,13.7622z"/>
	</g>
</g>
</svg>
