<?xml version="1.0" encoding="utf-8"?>
<!-- Generator: Adobe Illustrator 18.1.1, SVG Export Plug-In . SVG Version: 6.00 Build 0)  -->
<svg version="1.2" baseProfile="tiny" xmlns="http://www.w3.org/2000/svg" xmlns:xlink="http://www.w3.org/1999/xlink" x="0px"
	 y="0px" width="128px" height="128px" viewBox="0 0 128 128" xml:space="preserve">
<g id="_x31_28px_boxes">
	<rect fill="none" width="128" height="128"/>
</g>
<g id="Production">
	<g>
		<path fill="#ffffff" d="M113.3213,106.104H100.627c-1.0447-11.0171-4.7007-47.2021-6.7757-58.4053
			c-2.7622-14.916-16.8962-21.05-21.5408-23.0657c-4.6272-2.008-23.6521-8.7472-27.1823-9.9238
			C24.0041,7.668,14.9604,36.4204,35.7544,43.531c6.3726,2.1799,17.8757,6.3015,22.7935,8.167
			c4.7877,1.8156,6.6051,4.9112,4.3076,9.8477l3.084,2.0449l4.8686,2.7197c4.7786-8.5477,2.3379-18.9682-8.9795-23.2612
			c-5.0825-1.9277-16.5146-6.0242-23.0808-8.2703c-9.3635-3.2026-6.0329-14.4567,3.4553-11.2942
			c3.8482,1.2825,22.3848,7.8806,26.4248,9.6338c6.1226,2.6573,14.4558,7.2342,16.1282,16.2649
			c1.9297,10.4209,5.4446,44.8438,6.5781,56.7207h-6.5129c-1.2427,0-2.25,1.0073-2.25,2.25v3.75c0,1.2427,1.0073,2.2751,2.25,2.2751
			h28.5c1.2427,0,2.25-1.0324,2.25-2.2751v-3.75C115.5713,107.1113,114.564,106.104,113.3213,106.104z"/>
		<path fill="#ffffff" d="M65.9094,69.7471c-24.5085-17.012-57.8002-13.221-53.021,17.0666
			c2.1119-2.8664,7.6109-8.2859,16.3555-8.2859c11.199,0,20.3098,9.1111,20.3098,20.3101c0,4.8335-2.2329,9.4368-3.281,11.0479
			c0.8706,0.0349,2.5945,0.0456,4.8401,0.0456h0.0022c9.969,0,23.0505-1.3628,28.7608-7.9062
			C87.7382,93.0156,78.0017,78.1404,65.9094,69.7471z"/>
		<path fill="#ffffff" d="M29.2439,83.2578c-7.964,0-12.7743,6.2146-14.0227,8.7839c-4.6139,9.4984,1.1975,22.3504,14.0227,22.3504
			c9.6486,0,15.5798-7.7551,15.5798-15.5542C44.8237,90.2334,37.8481,83.2578,29.2439,83.2578z"/>
	</g>
</g>
</svg>
