<?xml version="1.0" encoding="utf-8"?>
<!-- Generator: Adobe Illustrator 18.1.1, SVG Export Plug-In . SVG Version: 6.00 Build 0)  -->
<svg version="1.2" baseProfile="tiny" xmlns="http://www.w3.org/2000/svg" xmlns:xlink="http://www.w3.org/1999/xlink" x="0px"
	 y="0px" width="128px" height="128px" viewBox="0 0 128 128" xml:space="preserve">
<g id="box">
	<rect fill="none" width="128" height="128"/>
</g>
<g id="Production">
	<g>
		<path fill="#ffffff" d="M118.1449,30.5311H96.9743v-0.9738c0-0.3045-0.0972-0.5853-0.273-0.824l-2.6931-3.5808
			c-0.2573-0.3387-0.6667-0.5486-1.092-0.5486h-9.7151c-0.7863,0-1.3731,0.6446-1.3731,1.373v15.6844
			c0,0.7384,0.6218,1.3728,1.3731,1.3728h9.7151c0.4253,0,0.8347-0.21,1.092-0.5567l2.6931-3.5803
			c0.1758-0.239,0.273-0.5276,0.273-0.8245v-0.9817h21.1706c0.7789,0,1.3728-0.6077,1.3728-1.3701v-3.8115
			C119.5177,31.1411,118.9007,30.5311,118.1449,30.5311z"/>
		<path fill="#ffffff" d="M76.3996,24.2365c-0.1049-0.0367-8.4498-5.3497-17.5508-5.3946c-5.1029,0-43.1077,0-45.1841,0.0081
			c-2.8375,0.0237-5.1502,2.281-5.1765,5.061c-0.0079,1.9634-0.0079,17.4116,0,19.8081c-0.0312,3.0543,2.297,5.0783,5.1765,5.0611
			h10.7154c2.4017,0,4.2708,0.9531,3.8613,3.4362c-1.5462,9.3474-3.5176,21.8714-4.0215,24.1184
			c-0.7308,3.236-2.61,3.5249-5.0321,4.5677c-1.52,0.643-2.5253,2.1445-2.5253,3.7983v0.7139H61.668
			c0-1.0003,0.0709-2.3477-1.2021-3.6248h-0.008c-0.4434-0.4465-0.9843-0.7773-1.5697-0.9822v-0.0051
			c-0.1916-0.0578-5.657-1.5173-10.3529-2.4123c-1.8036-0.3467-2.8824-1.6878-2.5411-3.4861
			c0.1207-0.6223,0.7876-4.6331,1.6091-9.6153h3.5359c0.6721,0,1.2443-0.4831,1.3572-1.1472L54.1816,53.92
			c0.1385-0.8375-0.5226-1.5961-1.3571-1.5961h-3.0896c0.2074-1.2574,0.4043-2.4544,0.5827-3.5437
			c4.1187,0.0078,7.2949,0.0078,8.5312,0.0078c9.2217-0.0315,17.4511-5.3575,17.5613-5.3943
			c0.3938-0.26,0.6354-0.6929,0.6354-1.1551V25.4044C77.0455,24.9296,76.8039,24.4803,76.3996,24.2365z M60.4423,28.069h-43.814
			c-1.1629,0-2.1026-0.9451-2.1026-2.1079c0-1.1551,0.9397-2.0999,2.1026-2.0999h43.814c1.1602,0,2.1027,0.9448,2.1027,2.0999
			C62.545,27.1239,61.6025,28.069,60.4423,28.069z"/>
		<path fill="#ffffff" d="M16.6625,105.0419c0,2.2509,1.8397,4.1162,4.1212,4.1162h36.7685c2.2496,0,4.1158-1.8241,4.1158-4.1162
			V89.8983H16.6625V105.0419z"/>
	</g>
</g>
</svg>
