<?xml version="1.0" encoding="utf-8"?>
<!-- Generator: Adobe Illustrator 19.1.0, SVG Export Plug-In . SVG Version: 6.00 Build 0)  -->
<svg version="1.2" baseProfile="tiny" xmlns="http://www.w3.org/2000/svg" xmlns:xlink="http://www.w3.org/1999/xlink" x="0px"
	 y="0px" width="64px" height="64px" viewBox="0 0 64 64" xml:space="preserve">
<g id="box">
	<rect fill="none" width="64" height="64"/>
</g>
<g id="Production">
	<g>
		<polygon fill="#ffffff" points="8,14 10,14 10,10 54,10 54,14 56,14 56,10 57,10 57,8 7,8 7,10 8,10 		"/>
		<rect x="12" y="33" fill="#ffffff" width="10" height="2"/>
		<rect x="42" y="33" fill="#ffffff" width="10" height="2"/>
		<rect x="12" y="47" fill="#ffffff" width="10" height="2"/>
		<rect x="42" y="47" fill="#ffffff" width="10" height="2"/>
		<path fill="#ffffff" d="M5,16v2h1v4h2v34h18V35c0-3.3086,2.6914-6,6-6s6,2.6914,6,6v21h18V22h2v-4h1v-2H5z M54,54H40V35
			c0-4.4111-3.5889-8-8-8s-8,3.5889-8,8v19H10V22h44V54z M56,20H8v-2h48V20z"/>
	</g>
</g>
</svg>

