<?xml version="1.0" encoding="utf-8"?>
<!-- Generator: Adobe Illustrator 18.1.1, SVG Export Plug-In . SVG Version: 6.00 Build 0)  -->
<svg version="1.2" baseProfile="tiny" xmlns="http://www.w3.org/2000/svg" xmlns:xlink="http://www.w3.org/1999/xlink" x="0px"
	 y="0px" width="128px" height="128px" viewBox="0 0 128 128" xml:space="preserve">
<g id="_x31_28px_boxes">
	<rect fill="none" width="128" height="128"/>
</g>
<g id="Production">
	<g>
		<path fill="#ffffff" d="M49.0656,86.5523c-3.2629-0.3226-6.4463-1.0022-9.5405-2.0331l-3.3338,4.0147
			c0,0,5.7376,12.953,5.752,12.9858c0.2517,0.5717,0.8225,0.9921,1.487,0.9921c0.0074,0,4.5794,0,4.5899,0
			c0.9809,0,1.73-0.887,1.6128-1.836L49.0656,86.5523z"/>
		<path fill="#ffffff" d="M122.08,59.6636c-1.6958-4.2509-5.2844-6.5872-8.824-7.8707c-3.143-1.0192-9.957-2.5801-16.5801,0.1785
			c-1.8295,0.7618-2.9863-2.0061-1.1538-2.7693c2.1136-0.8804,4.2246-1.3809,6.2478-1.6206
			c-22.7714-25.7456-66.823-19.9458-78.6142-4.062c-1.3474-0.953-2.9705-2.3358-3.9556-3.463
			c-3.018-3.4475-1.324-7.2149-0.0066-8.7254c0.4119-0.4726,1.1294-0.5215,1.6018-0.1091c0.4717,0.4111,0.5213,1.126,0.1123,1.5984
			c-0.2578,0.3022-2.4087,2.9878,0.001,5.7405c0.2146,0.2451,1.1775,1.2024,1.3723,1.3764
			c2.5681-2.1336,4.2105-5.3755,4.1438-8.2361c-0.0615-2.6316-1.4922-4.7129-3.9262-5.7097
			c-2.2749-0.9319-4.6841-0.5796-6.6097,0.9673c-2.6208,2.105-4.0651,6.2236-3.6862,10.2898
			c-2.2684-0.3474-3.5953-1.8579-4.125-3.7122c-0.232-0.812-1.0442-0.9282-1.5083,0.0772c-0.813,1.7612-2.0415,5.9131,2.5876,8.4819
			c1.5273,0.8477,3.427,0.9102,5.2842,0.7901c1.5383,2.0794,3.8269,4.0164,5.907,5.4355
			c-7.691,15.4943-3.7183,36.8884,2.1767,53.0828c0.2234,0.6175,0.8089,1.097,1.501,1.1079c0.0039,0.0111,5.4751,0.0109,5.4771,0
			c0.7873-0.012,1.4379-0.6196,1.573-1.3712l0.0039-0.0002l1.5046-14.1326l5.6296-6.9711
			c12.0591,4.9133,23.7032,2.906,32.0796-0.1531l9.7122,21.6753h0.0005c0.2558,0.5617,0.8208,0.9529,1.4782,0.9529
			c0.0205,0,5.1128,0,5.1331,0c0.8975,0,1.625-0.7276,1.625-1.625c0-0.0729-3.168-22.9486-3.168-22.9486
			c2.7273,4.9122,8.9597,11.724,22.3128,10.5216c5.4299-0.4893,9.4104-6.9448,9.7473-7.8211
			c1.1555-3.0051-1.4639-5.4323-4.4541-3.1486c-3.6694-1.596-5.9695-9.3643-3.3284-13.3023
			c1.585-2.3628,4.4898-2.0376,11.2307-1.8374C122.0453,62.3941,122.4557,60.6055,122.08,59.6636z M100.3444,69.7254
			c-1.2295,0-2.2263-0.9971-2.2263-2.2266c0-1.2297,0.9968-2.2265,2.2263-2.2265c1.2297,0,2.2263,0.9968,2.2263,2.2265
			C102.5707,68.7283,101.5741,69.7254,100.3444,69.7254z"/>
		<path fill="#ffffff" d="M65.4318,85.3028l-0.0044,15.6043c0.0108,0.8645,0.6963,1.5683,1.5545,1.6047c0,0,4.6731,0,4.6936,0
			c0.7285,0,1.3452-0.4796,1.5512-1.1403c0.0078-0.0243,1.0415-3.357,1.0415-3.357l-6.0105-13.4796
			C67.3427,84.8094,66.3998,85.0668,65.4318,85.3028z"/>
	</g>
</g>
</svg>

