<?xml version="1.0" encoding="utf-8"?>
<!-- Generator: Adobe Illustrator 18.1.1, SVG Export Plug-In . SVG Version: 6.00 Build 0)  -->
<svg version="1.2" baseProfile="tiny" xmlns="http://www.w3.org/2000/svg" xmlns:xlink="http://www.w3.org/1999/xlink" x="0px"
	 y="0px" width="128px" height="128px" viewBox="0 0 128 128" xml:space="preserve">
<g id="box">
	<rect fill="none" width="128" height="128"/>
</g>
<g id="Production">
	<g>
		<path fill="#ffffff" d="M99.9047,17.3938c-5.8124-4.0315-11.8678-2.2871-16.3461,3.4983H44.4419
			c-4.5901-5.9299-10.6638-7.4394-16.3462-3.4986c-5.0232,3.4834-7.2987,13.0733-5.5334,23.3206
			c2.7202,15.7931,13.9259,29.6268,33.0984,35.8289c0.1306,2.8289-2.7469,9.4384-9.0852,14.5986c7.3612,0,27.3847,0,34.6235,0
			c-6.2793-5.0933-9.1815-11.6787-9.0889-14.5247c19.2566-6.1502,30.5872-19.9944,33.3277-35.903
			C107.2029,30.4668,104.9276,20.8769,99.9047,17.3938z M29.64,39.4949c-2.2496-13.0591,3.4959-23.0936,9.9507-13.0196
			c-2.9519,9.916-3.1938,18.2984-0.7504,25.5135c1.7947,5.2993,4.8222,9.2734,7.7979,12.5278
			C34.0491,56.5005,30.586,44.9866,29.64,39.4949z M68.4114,60.0556h-6.5068V44.5835H55.867v-4.5188
			c3.5432,0.0722,7.1948-1.2288,7.447-5.2058h5.0974V60.0556z M98.36,39.4946c-0.9592,5.5684-4.5057,17.3289-17.5308,25.356
			c3.0734-3.3157,6.2489-7.3792,8.1058-12.8616c2.4244-7.1587,2.2044-15.4663-0.6817-25.2803
			C94.6878,16.3497,100.6685,26.0939,98.36,39.4946z"/>
		<path fill="#ffffff" d="M86.5474,95.6304H41.2278c-0.8263,0-1.4962,0.6699-1.4962,1.4963v14.1738
			c0,0.8264,0.6699,1.4964,1.4962,1.4964h45.3196c0.8263,0,1.4962-0.67,1.4962-1.4964V97.1267
			C88.0436,96.3003,87.3737,95.6304,86.5474,95.6304z"/>
	</g>
</g>
</svg>
