<?xml version="1.0" encoding="utf-8"?>

<svg version="1.2" baseProfile="tiny" xmlns="http://www.w3.org/2000/svg" xmlns:xlink="http://www.w3.org/1999/xlink" x="0px"
	 y="0px" width="64px" height="64px" viewBox="0 0 64 64" xml:space="preserve">

<g id="Production">
	<path fill="#ffffff" d="M51.8233,34h5.0537c1.5562-16-11.873-29.4234-27.8694-27.8788c0,9.4608,0,13.1735,0,24.3372
		L15.3475,44.0992c-8.6875-11.0593-4.3458-27.5368,9.651-32.0331V6.8366C6.0028,11.8324-0.4116,35.7057,13.4344,49.5259
		C18.258,54.341,24.6433,57,31.4637,57c0,0,0.001,0,0.002,0c6.8195,0,13.2317-2.6542,18.0542-7.4693
		C52.7674,46.2879,55.0274,42,56.1604,38h-5.2382c-0.994,3-2.6563,5.7122-4.9433,7.9953C42.1019,49.8663,36.9479,52,31.4656,52
		c-0.0005,0-0.0015,0-0.0015,0c-4.639,0-9.0336-1.5428-12.6282-4.3566L32.4998,34H51.8233z M33.9965,11.1663
		C42.9945,12.2961,50.6908,20,51.8234,29H33.9965V11.1663z"/>
</g>
</svg>
