<?xml version="1.0" encoding="utf-8"?>
<!-- Generator: Adobe Illustrator 18.1.1, SVG Export Plug-In . SVG Version: 6.00 Build 0)  -->
<svg version="1.2" baseProfile="tiny" xmlns="http://www.w3.org/2000/svg" xmlns:xlink="http://www.w3.org/1999/xlink" x="0px"
	 y="0px" width="128px" height="128px" viewBox="0 0 128 128" xml:space="preserve">
<g id="_x31_28px_boxes" display="none">
	<rect display="inline" fill="none" width="128" height="128"/>
</g>
<g id="Production">
	<g>
		<path fill="#ffffff" d="M56.7651,44.4533c0-2.8048-8.8228-27.2024-21.6148-27.2024c-11.0493,0-19.9204,20.231-19.9204,27.1958
			l-0.0004,0.0066c0,1.874,1.519,3.3933,3.393,3.3933c0.0025,0,0.0051-0.0002,0.0078-0.0002v0.0002h34.7632
			c-0.0002-0.0002-0.0002-0.0006-0.0002-0.0006C55.2573,47.8342,56.7651,46.3203,56.7651,44.4533z"/>
		<path fill="#ffffff" d="M82.883,37.0816c-9.1086,0-18.3674,6.2987-22.1828,9.2302c-1.3255,1.0178-1.8135,2.4926-1.8135,4.1233
			c0,4.2641,0,27.8781,0.001,36.7687c0,1.874,1.519,3.3933,3.3928,3.3933c0.0027,0,0.0051-0.0002,0.0075-0.0002
			c0.1102-0.0005,50.4825-0.0167,50.4825-0.0167V42.8826C100.625,39.9006,92.0285,37.0816,82.883,37.0816z M64.0698,51.2823
			c0.8654-1.0001,8.5359-6.196,14.7939-7.6863c0.0808-0.0215,0.1643-0.0367,0.252-0.0367c0.5451,0,0.9868,0.4419,0.9868,0.9869
			c0,0-0.001,0.0062-0.001,0.0097v8.0117c0,0,0.001,0.0063,0.001,0.0097c0,0.545-0.4417,0.9869-0.9868,0.9869
			c-0.0093,0-0.0176-0.0024-0.0266-0.0026c0,0-14.2122,0.0026-14.2215,0.0026C63.664,53.5642,63.1167,52.0444,64.0698,51.2823z"/>
		<circle fill="#ffffff" cx="84.3833" cy="102.9992" r="7.7499"/>
		<path fill="#ffffff" d="M53.852,86.2288c1.7024-2.2409,0.1148-5.0016-2.2886-5.0016H18.8679c-2.9026,0-4.1039,3.728-1.7561,5.4288
			c0.1186,0.1196,13.0022,9.332,13.0022,9.332s-12.8836,9.2127-13.0022,9.3323c-2.3474,1.7007-1.1477,5.4288,1.7561,5.4288h32.6955
			c2.9117,0,4.2425-3.8056,1.4966-5.7631l-12.6138-8.998C53.6919,86.5393,53.3176,86.9311,53.852,86.2288z M42.3955,104.7491
			h-14.231l7.1157-5.0758L42.3955,104.7491z M28.1645,87.2272h14.231l-7.1153,5.0757L28.1645,87.2272z"/>
		<path fill="#ffffff" d="M50.1281,76.8595c1.2427,0,2.25-1.0073,2.25-2.25V56.4592c0-1.2427-1.0073-2.25-2.25-2.25h-18
			c-1.2426,0-2.25,1.0073-2.25,2.25v5.4191h-10c-1.2426,0-2.25,1.0074-2.25,2.25v10.4812c0,1.2427,1.0074,2.25,2.25,2.25H50.1281z"
			/>
	</g>
</g>
</svg>
