<?xml version="1.0" encoding="utf-8"?>
<!-- Generator: Adobe Illustrator 18.1.1, SVG Export Plug-In . SVG Version: 6.00 Build 0)  -->
<svg version="1.2" baseProfile="tiny" xmlns="http://www.w3.org/2000/svg" xmlns:xlink="http://www.w3.org/1999/xlink" x="0px"
	 y="0px" width="128px" height="128px" viewBox="0 0 128 128" xml:space="preserve">
<g id="box">
	<rect fill="none" width="128" height="128"/>
</g>
<g id="Production">
	<g>
		<path fill="#ffffff" d="M116.7922,56.4897c0-16.2819-16.49-27.3314-31.4989-21.3001
			c-5.5677-6.9062-14.0957-11.3261-23.657-11.3261c-11.7278,0-21.9021,6.6482-26.9631,16.3809
			c-12.3621-1.9385-23.4654,6.9366-23.4654,18.4474c0,6.5639,3.6336,12.3346,9.127,15.6747
			c-1.3335,2.5194-2.0918,5.3901-2.0918,8.4394c0,9.979,8.0898,18.069,18.0691,18.069c3.4465,0,6.6672-0.9657,9.4079-2.6404
			c4.908,3.7045,11.0171,5.902,17.6399,5.902c7.3191,0,14.011-2.6826,19.1475-7.1183c2.6772,1.5026,5.7634,2.3634,9.0522,2.3634
			c13.1736,0,22.0593-13.3419,17.1863-25.4414C113.6701,69.7313,116.7922,63.4755,116.7922,56.4897z M44.3006,73.3564
			c3.1953,0,4.6577-1.7684,5.4514-4.7493h5.2468c-0.3825,2.3248-1.267,4.2816-2.6508,5.8734
			c-2.5384,2.9203-6.0504,3.8139-9.8763,3.3178c-6.3925-0.8284-9.5723-5.9843-9.6555-12.7209
			c-0.0774-7.7866,3.8583-13.6162,11.2759-13.6162c7.6816,0,10.7705,5.1697,10.9575,8.8983h-5.2807
			c-0.7573-2.7298-2.1252-4.3892-5.4756-4.3892c-3.0436,0-6.0703,2.2527-6.0806,8.866c0,0.0112-0.0005,0.0221-0.0005,0.0333
			C38.2122,69.5215,40.0601,73.3564,44.3006,73.3564z M82.5501,64.6683c-0.0402,7.7062-4.044,13.2493-12.103,13.2493
			c-7.9867,0-12.1221-5.444-12.1221-13.3741c0-8.0259,4.1319-13.3738,12.1221-13.3738c8.0345,0,12.1055,5.3871,12.1055,13.3738
			C82.5526,64.5858,82.5506,64.6262,82.5501,64.6683z M95.8587,80.6726H85.4676c0.0734-2.9176,1.5044-4.6179,3.7143-6.1946
			c1.375-0.9842,2.2642-1.6892,2.669-2.1147c1.6012-1.7075,1.0836-4.4166-1.1301-4.4166c-1.777,0-2.1175,1.2015-2.1878,2.8786
			h-2.8984c0.0486-1.2908,0.2827-2.3341,0.7021-3.1293c1.9292-3.6685,9.501-3.0557,9.501,2.5955
			c0,4.4238-5.1964,5.4042-6.603,7.7544h6.624V80.6726z"/>
		<path fill="#ffffff" d="M63.5716,64.5435c0,4.9299,2.129,8.899,6.8755,8.899c4.7562,0,6.8242-3.9759,6.8242-8.899
			c0-2.8345-0.6147-5.0265-1.843-6.5754C72.3288,54.0608,63.5716,54.2878,63.5716,64.5435z"/>
	</g>
</g>
</svg>
