<?xml version="1.0" encoding="utf-8"?>
<!-- Generator: Adobe Illustrator 18.1.1, SVG Export Plug-In . SVG Version: 6.00 Build 0)  -->
<svg version="1.2" baseProfile="tiny" xmlns="http://www.w3.org/2000/svg" xmlns:xlink="http://www.w3.org/1999/xlink" x="0px"
	 y="0px" width="128px" height="128px" viewBox="0 0 128 128" xml:space="preserve">
<g id="box">
	<rect fill="none" width="128" height="128"/>
</g>
<g id="Production">
	<g>
		<path fill="#ffffff" d="M98.8689,41.5486C95.49,50.8705,88.7878,55.1906,88.46,55.3969
			c-1.9735,1.2421-3.9116-1.4642-2.2638-2.9708c5.0672-4.6325,6.7959-12.5979,6.7959-17.0259
			c0-12.8323-10.4024-23.2346-23.2347-23.2346c-10.7114,0-19.728,7.2488-22.4165,17.1085
			c-13.715-3.5962-27.102,6.7651-27.102,20.9019c0,11.9336,9.6743,21.6069,21.6077,21.6069h0.0004c0,0,49.9307,0,49.9744,0
			c8.8035,0,15.9397-7.1364,15.9397-15.9402C107.7611,49.5707,104.136,44.1498,98.8689,41.5486z"/>
		<path fill="#ffffff" d="M55.1008,90.9199l3.5198,0.7951c0.9528,0.2154,3.0978-0.0981,3.5873-2.2651
			c0.3651-1.6162-0.6492-3.2224-2.2653-3.5874l-4.0681-0.919l1.7876-3.7675c0.7103-1.4969,0.0726-3.2862-1.4243-3.9964
			c-1.4967-0.7101-3.286-0.0724-3.9963,1.4243l-1.7876,3.7674l-3.2835-2.5692c-1.305-1.021-3.1905-0.7911-4.2114,0.514
			c-1.021,1.3047-0.7909,3.1902,0.5139,4.2114l2.84,2.2222l-3.0711,1.8906c-1.4109,0.8687-1.8506,2.7166-0.9819,4.1275
			c0.9774,1.5876,2.9053,1.7341,4.1274,0.9819l2.8074-1.7283l0.436,3.2686c0.2012,1.5078,1.4893,2.6035,2.9699,2.6035
			c1.3614,0,3.2728-1.1826,2.9774-3.397L55.1008,90.9199z"/>
		<path fill="#ffffff" d="M90.6251,85.8625l-4.0681-0.919l1.7876-3.7675c0.7103-1.4969,0.0726-3.2862-1.4243-3.9964
			c-1.4967-0.7101-3.286-0.0724-3.9963,1.4243l-1.7876,3.7674l-3.2835-2.5692c-1.305-1.021-3.1905-0.7911-4.2114,0.514
			c-1.021,1.3047-0.7909,3.1902,0.5139,4.2114l2.84,2.2222l-3.0711,1.8906c-1.4109,0.8687-1.8506,2.7166-0.9819,4.1275
			c0.9774,1.5876,2.9053,1.7341,4.1274,0.9819l2.8074-1.7283l0.436,3.2686c0.2012,1.5078,1.4893,2.6035,2.9699,2.6035
			c1.3614,0,3.2728-1.1826,2.9774-3.397l-0.4772-3.5766l3.5198,0.7951c0.9528,0.2154,3.0978-0.0981,3.5873-2.2651
			C93.2555,87.8337,92.2412,86.2275,90.6251,85.8625z"/>
		<path fill="#ffffff" d="M74.5338,103.8034l-4.0681-0.9189l1.7876-3.7676c0.7103-1.4968,0.0726-3.2862-1.4243-3.9964
			c-1.4967-0.7102-3.286-0.0725-3.9964,1.4244l-1.7876,3.7673l-3.2834-2.5693c-1.3051-1.021-3.1906-0.7911-4.2114,0.5141
			c-1.021,1.3047-0.7909,3.1902,0.5139,4.2114l2.84,2.2222l-3.0711,1.8906c-1.4109,0.8687-1.8506,2.7166-0.9819,4.1275
			c0.9774,1.5876,2.9052,1.7341,4.1274,0.9819l2.8074-1.7283l0.436,3.2686c0.2012,1.5078,1.4893,2.6035,2.9699,2.6035
			c1.3614,0,3.2728-1.1826,2.9774-3.397l-0.4772-3.5766l3.5198,0.7951c0.9528,0.2154,3.0978-0.0981,3.5873-2.2651
			C77.1642,105.7746,76.1499,104.1684,74.5338,103.8034z"/>
	</g>
</g>
</svg>
