<?xml version="1.0" encoding="utf-8"?>
<!-- Generator: Adobe Illustrator 18.1.1, SVG Export Plug-In . SVG Version: 6.00 Build 0)  -->
<svg version="1.2" baseProfile="tiny" xmlns="http://www.w3.org/2000/svg" xmlns:xlink="http://www.w3.org/1999/xlink" x="0px"
	 y="0px" width="128px" height="128px" viewBox="0 0 128 128" xml:space="preserve">
<g id="_x31_28px_boxes" display="none">
	<rect display="inline" fill="none" width="128" height="128"/>
</g>
<g id="Production">
	<g>
		<path fill="#ffffff" d="M109.514,98.6161c0.335-6.7345-5.0548-12.3462-11.7442-12.3462c-6.5187,0-11.7603,5.3165-11.7603,11.7605
			c0,6.4839,5.2756,11.7593,11.7603,11.7593C104.0597,109.7897,109.2073,104.8268,109.514,98.6161z M97.7698,102.5604
			c-2.5402,0-4.5306-2.0852-4.5306-4.53c0-2.4985,2.0323-4.5313,4.5306-4.5313c2.498,0,4.5307,2.0328,4.5307,4.5313
			C102.3005,100.4806,100.3045,102.5604,97.7698,102.5604z"/>
		<path fill="#ffffff" d="M55.0507,98.6161c0.3345-6.7214-5.0432-12.3462-11.7442-12.3462c-6.5126,0-11.7603,5.3094-11.7603,11.7605
			c0,6.4839,5.2757,11.7593,11.7603,11.7593C49.5919,109.7897,54.7423,104.8328,55.0507,98.6161z M43.3065,102.5604
			c-2.5405,0-4.5303-2.0846-4.5303-4.53c0-2.4985,2.0317-4.5313,4.5303-4.5313c2.498,0,4.5305,2.0328,4.5305,4.5313
			C47.837,100.4809,45.8411,102.5604,43.3065,102.5604z"/>
		<path fill="#ffffff" d="M122.961,40.3038c0-1.4326,0-18.2517,0-18.2517c0.0004-0.018,0.0025-0.0359,0.0026-0.0542
			c0.0001-0.0127,0.0019-0.0249,0.0019-0.0376c0-2.0713-1.6794-3.75-3.75-3.75c-0.0127,0-0.025-0.0002-0.0375,0
			c-0.1519,0.0015-40.8919,0-40.8919,0c-2.7566,0-5.4391,0.9283-7.6451,2.5813c0,0-62.3647,46.6905-63.7675,47.7783
			c-1.4028,1.0879-1.9742,1.9068-1.9742,3.3277c0,0.0835,0,24.0713,0,26.1892s1.5325,3.8296,3.7707,3.8296
			c2.2382,0,18.4386,0,18.4386,0C24.5904,91.4216,32.5929,81.37,43.3065,81.37c10.6892,0,18.734,10.013,16.1991,20.5464H81.572
			C79.0569,91.4384,87.0414,81.37,97.7698,81.37c10.7831,0,18.7107,10.1163,16.1992,20.5464h5.8508
			c1.812,0,3.2809-1.469,3.2809-3.281V76.5851c0-1.812-1.4689-3.281-3.2809-3.281h-2.8056l-7.3682-19.9199
			c-0.5445-1.4717-1.9478-2.449-3.517-2.449H85.9194c-2.071,0-3.75,1.6789-3.75,3.75v18.6189H43.0819l39.4508-29.5589
			c0,0,35.1263,0,37.0243,0C121.6737,43.7452,122.961,42.4391,122.961,40.3038z M109.0177,73.3041H92.7453V58.4352h10.7724
			L109.0177,73.3041z"/>
	</g>
</g>
</svg>
