<?xml version="1.0" encoding="utf-8"?>
<!-- Generator: Adobe Illustrator 18.1.1, SVG Export Plug-In . SVG Version: 6.00 Build 0)  -->
<svg version="1.2" baseProfile="tiny" xmlns="http://www.w3.org/2000/svg" xmlns:xlink="http://www.w3.org/1999/xlink" x="0px"
	 y="0px" width="128px" height="128px" viewBox="0 0 128 128" xml:space="preserve">
<g id="_x31_28px_boxes" display="none">
	<rect display="inline" fill="none" width="128" height="128"/>
</g>
<g id="Production">
	<g>
		<path fill="#ffffff" d="M91.1866,14.9917c0-7.1025-10.75-7.1099-10.75,0v17.9711c3.9311,0.6992,7.5364,1.5356,10.75,2.4056
			V14.9917z"/>
		<path fill="#ffffff" d="M80.4366,75.2434H40.291V14.9917c0-7.1025-10.75-7.1099-10.75,0v25.0601
			c-9.2115,2.8663-18.6439,7.3208-27.9161,13.9432c0,0,11.7583-3.6949,27.9161-5.7479v32.3713c0,2.9685,2.4065,5.375,5.375,5.375
			h19.2594v32.3445h13.5V85.9934h18.1362c2.9685,0,5.375-2.4065,5.375-5.375V60.7367c-3.2824-1.9034-6.866-3.52-10.75-4.8428
			V75.2434z"/>
		<path fill="#ffffff" d="M101.7642,43.6002c-8.8152-3.4918-31.0419-10.6912-57.0193-6.9703v10.3682
			c16.6552-0.5756,35.202,1.5667,49.92,10.5769C92.6222,50.7866,94.8232,46.179,101.7642,43.6002z"/>
		<path fill="#ffffff" d="M116.817,48.2163c-7.2145-3.4683-16.42-0.4073-17.9919,2.8627
			c-1.5462,3.2159,1.6499,12.3141,9.1785,15.9268c7.2138,3.4683,16.4196,0.408,17.9919-2.8636
			C127.54,60.9308,124.3496,51.832,116.817,48.2163z"/>
	</g>
</g>
</svg>
