<?xml version="1.0" encoding="utf-8"?>
<!-- Generator: Adobe Illustrator 18.1.1, SVG Export Plug-In . SVG Version: 6.00 Build 0)  -->
<svg version="1.2" baseProfile="tiny" xmlns="http://www.w3.org/2000/svg" xmlns:xlink="http://www.w3.org/1999/xlink" x="0px"
	 y="0px" width="64px" height="64px" viewBox="0 0 64 64" xml:space="preserve">

<g id="Production">
	<g>
		<path fill="#ffffff" d="M53.7407,47.0171C52.9121,46.0047,51,44.004,51,40.4302V18.521c0-1.2261-0.4482-2.4058-1.2627-3.3223
			l-6.9897-7.8633l-1.4951,1.3291L45,12.8802V21c0,1.103,0.897,2,2,2h2v17.4302c0,3.3963,1.3214,5.5425,3.2129,7.8535
			c0.8779,1.0732,1.0479,2.4619,0.4536,3.7148C52.0728,53.252,50.8906,54,49.5,54c-1.9297,0-3.5-1.5703-3.5-3.5V35
			c0-2.7568-2.2432-5-5-5h-2V14c0-3.3086-2.6914-6-6-6H18c-3.3086,0-6,2.6914-6,6v42h27V32h2c1.6543,0,3,1.3457,3,3v15.5
			c0,3.0327,2.4673,5.5,5.5039,5.5c2.1465,0,4.0308-1.2051,4.9502-3.145C55.3736,50.9155,55.1001,48.6782,53.7407,47.0171z M47,21
			v-5.87c1.2207,1.3732,2,1.993,2,3.391V21H47z M37,54H14V14c0-2.2056,1.7944-4,4-4h15c2.2056,0,4,1.7944,4,4V54z"/>
		<path fill="#ffffff" d="M17,27h17V15H17V27z M19,17h13v8H19V17z"/>
	</g>
</g>
</svg>
