<?xml version="1.0" encoding="utf-8"?>
<!-- Generator: Adobe Illustrator 18.1.1, SVG Export Plug-In . SVG Version: 6.00 Build 0)  -->
<svg version="1.2" baseProfile="tiny" xmlns="http://www.w3.org/2000/svg" xmlns:xlink="http://www.w3.org/1999/xlink" x="0px"
	 y="0px" width="128px" height="128px" viewBox="0 0 128 128" xml:space="preserve">
<g id="box">
	<rect fill="none" width="128" height="128"/>
</g>
<g id="Production">
	<g>
		<path fill="#ffffff" d="M103.1475,26.4723H24.8574c-1.7065,0-3.082,1.3745-3.082,3.0819v68.8965c0,1.708,1.3877,3.077,3.082,3.077
			h78.2901c1.6511,0,3.0771-1.3243,3.0771-3.077V29.5542C106.2246,27.8605,104.855,26.4723,103.1475,26.4723z M100.0635,95.369
			H27.9368V32.6311h72.1267V95.369z"/>
		<path fill="#ffffff" d="M49.7612,66.5901l1.6631-2.6494l4.1817,7.3104c0.6127,1.0725,1.8017,1.6755,3.0322,1.5345
			c1.2258-0.1481,2.2493-1.0131,2.6003-2.1969l4.8064-16.4543l7.6763,32.738c0.7224,3.0951,5.1128,3.1984,5.9705,0.1112
			l5.2517-19.2728h8.9441v-6.155l-11.2967-0.0047c-1.3867,0-2.605,0.929-2.9734,2.271l-2.6814,9.8114l-7.5522-32.2836
			c-0.7312-3.0751-5.084-3.1842-5.9585-0.1629L57.356,61.9069l-3.1316-5.4792c-1.1726-2.0435-4.0713-2.0449-5.281-0.1136
			l-3.4947,5.5557H34.0903v6.166h13.0659C48.2117,68.0358,49.1978,67.4846,49.7612,66.5901z"/>
	</g>
</g>
</svg>
