<?xml version="1.0" encoding="utf-8"?>
<!-- Generator: Adobe Illustrator 18.1.1, SVG Export Plug-In . SVG Version: 6.00 Build 0)  -->
<svg version="1.2" baseProfile="tiny" xmlns="http://www.w3.org/2000/svg" xmlns:xlink="http://www.w3.org/1999/xlink" x="0px"
	 y="0px" width="128px" height="128px" viewBox="0 0 128 128" xml:space="preserve">
<g id="box">
	<rect fill="none" width="128" height="128"/>
</g>
<g id="Production">
	<g>
		<path fill="#ffffff" d="M52.5066,30.5704l0.0293-0.031l23.0422,0.0073c0-0.0073,0.0293,0.0237,0.0293,0.0237l-0.0068,7.2119
			h7.5532l-0.0066-7.2119c-0.0076-4.1712-3.374-7.5705-7.5691-7.5705H52.5359c-4.1951,0-7.5618,3.3993-7.5725,7.5705v7.2119h7.5432
			V30.5704z"/>
		<path fill="#ffffff" d="M104.8369,42.4966H23.1663c-2.5118,0-4.5447,2.0328-4.5447,4.5414v23.3617
			c0.7925,5.708,5.7014,10.1184,11.6242,10.1184h7.7771V79.463c0-2.4476,1.9842-4.4317,4.4317-4.4317
			c2.4477,0,4.4319,1.9841,4.4319,4.4317v1.0551h34.227V79.463c0-2.4476,1.9839-4.4317,4.4319-4.4317
			c2.447,0,4.4314,1.9841,4.4314,4.4317v1.0551h7.7778c5.9224,0,10.8321-4.4104,11.6238-10.1184V47.038
			C109.3784,44.5294,107.3413,42.4966,104.8369,42.4966z"/>
		<path fill="#ffffff" d="M89.9768,85.2823v1.1516c0,2.4473-1.9844,4.4319-4.4314,4.4319c-2.448,0-4.4319-1.9846-4.4319-4.4319
			v-1.1516H66.7002v13.9036h-5.3997V85.2823h-14.414v1.1516c0,2.4473-1.9842,4.4319-4.4319,4.4319
			c-2.4475,0-4.4317-1.9846-4.4317-4.4319v-1.1516h-7.7771c-4.53,0-8.6394-1.8362-11.6242-4.8013v19.9705
			c0,2.5117,2.0329,4.5486,4.5447,4.5486h81.6706c2.5044,0,4.5415-2.0369,4.5415-4.5486V80.481
			c-2.9848,2.9651-7.0942,4.8013-11.6238,4.8013H89.9768z"/>
	</g>
</g>
</svg>
