<?xml version="1.0" encoding="utf-8"?>
<!-- Generator: Adobe Illustrator 17.1.0, SVG Export Plug-In . SVG Version: 6.00 Build 0)  -->
<!DOCTYPE svg [
	<!ENTITY ns_flows "http://ns.adobe.com/Flows/1.0/">
	<!ENTITY ns_extend "http://ns.adobe.com/Extensibility/1.0/">
	<!ENTITY ns_ai "http://ns.adobe.com/AdobeIllustrator/10.0/">
	<!ENTITY ns_graphs "http://ns.adobe.com/Graphs/1.0/">
]>
<svg version="1.2" baseProfile="tiny" xmlns:x="&ns_extend;" xmlns:i="&ns_ai;" xmlns:graph="&ns_graphs;"
	 xmlns="http://www.w3.org/2000/svg" xmlns:xlink="http://www.w3.org/1999/xlink" xmlns:a="http://ns.adobe.com/AdobeSVGViewerExtensions/3.0/"
	 x="0px" y="0px" width="128px" height="128px" viewBox="0 0 128 128" xml:space="preserve">
<g id="_x31_28px_boxes">
	<rect fill="none" width="128" height="128"/>
</g>
<g id="Production">
	<path fill="#ffffff" d="M86.4643,22.5863L67.8706,42.1957l27.1445,6.5085L64.1135,79.799
		c2.8777,2.0007,5.6565,3.3566,5.6989,3.3774c1.7473,0.8454,1.4262,3.4315-0.4687,3.8296l-24.7054,5.1909
		c-1.5279,0.3212-2.8462-1.1335-2.3565-2.6294l7.8567-24.0527c0.6401-1.9541,3.1952-1.941,3.8611-0.0395
		c0.0146,0.0419,0.9548,2.7227,2.4903,5.6333l15.9187-16.0025l-26.6081-6.3722L74.8124,18.141
		c-3.4726-0.8154-7.0927-1.2468-10.814-1.2468c-26.0147,0-47.1092,21.0834-47.1092,47.1079
		c0,26.0119,21.0945,47.1037,47.1092,47.1037c26.0152,0,47.1124-21.091,47.1124-47.103
		C111.1108,46.1156,101.144,30.5634,86.4643,22.5863z"/>
</g>
</svg>
