<?xml version="1.0" encoding="utf-8"?>
<!-- Generator: Adobe Illustrator 18.1.1, SVG Export Plug-In . SVG Version: 6.00 Build 0)  -->
<svg version="1.2" baseProfile="tiny" xmlns="http://www.w3.org/2000/svg" xmlns:xlink="http://www.w3.org/1999/xlink" x="0px"
	 y="0px" width="128px" height="128px" viewBox="0 0 128 128" xml:space="preserve">
<g id="_x31_28px_boxes">
	<rect fill="none" width="128" height="128"/>
</g>
<g id="Production">
	<g>
		<path fill="#ffffff" d="M45.6815,46.2953h4.5297c2.6531,0,4.3106,1.9577,4.3106,4.1817v3.3183h14V50.477
			c0-10.4227-8.3552-18.4317-18.3106-18.4317h-4.1049l-1.3633-4.25H30.0516l-1.3633,4.25H18.0218v14.25h11.0918
			c1.9599,2.5,4.9424,4.1205,8.2844,4.1205C40.7391,50.4158,43.721,48.7953,45.6815,46.2953z"/>
		<path fill="#ffffff" d="M21.9734,22.0132c2.8912,0,4.4302-2.0412,7.3245-2.0412c2.8948,0,3.0071,4.5733,3.0071,4.5733h10.1846
			c0,0-0.1358-4.5586,2.7587-4.5586c2.8946,0,4.7417,2.0318,7.5728,2.0318c2.6521,0,4.8022-2.1513,4.8022-4.8043
			c0-2.6523-2.1501-4.8026-4.8022-4.8026c-3.2007,0-4.7246,2.0364-7.6201,2.0364c-2.8941,0-4.8794-2.0375-7.803-2.0375
			c-3.0569,0-5.2385,2.0372-8.1492,2.0372c-2.9096,0-4.2187-2.0373-7.2754-2.0373c-2.6513,0-4.8017,2.1487-4.8017,4.8011
			C17.1717,19.8646,19.3221,22.0132,21.9734,22.0132z"/>
		<path fill="#ffffff" d="M101.0428,66.9048c-6.4812-5.0171-16.7935-11.5263-22.3506-14.6139
			c-0.7256-0.4031-1.8543-0.4031-2.4985,0.4026c-1.4092,1.7611-2.5059,6.5437,3.3042,10.4771
			c2.8349,1.9191,5.4028,3.5757,6.8415,4.581c1.1648,0.8136,1.7661,1.5227,1.3945,2.5165
			c-0.4592,1.2247-2.1052,0.8527-2.9211,0.6919L52.2642,60.0503c-2.2024-0.7376-4.5891,0.4496-5.3274,2.6529
			c-0.7383,2.2038,0.4497,4.5906,2.6533,5.3287l23.2669,7.7976c-0.5972,1.0084-1.1262,2.0444-1.6013,3.1027l-26.6875-8.945
			c-2.2041-0.7389-4.5899,0.448-5.3286,2.6527c-0.7383,2.2032,0.4492,4.5887,2.6533,5.3282l26.8667,9.0049
			c-0.2183,1.142-0.3872,2.2988-0.5166,3.4666l-25.5061-8.5481c-2.2039-0.7398-4.5891,0.448-5.3274,2.6513
			c-0.7388,2.2032,0.4487,4.5888,2.6533,5.3272l27.9321,9.3628c0.0547,1.2395,0.1402,2.4819,0.2564,3.7258L49.616,96.7123
			c-1.9531-0.6543-4.0674,0.3982-4.7209,2.3507c-0.656,1.953,0.3972,4.0678,2.3508,4.7225
			c34.7878,11.6608,31.5867,10.609,32.3691,10.8167c14.7486,3.9402,24.139-4.2381,28.9895-18.7126
			C113.4566,81.4153,110.116,73.9281,101.0428,66.9048z"/>
	</g>
</g>
</svg>
