<?xml version="1.0" encoding="utf-8"?>

<svg version="1.2" baseProfile="tiny" xmlns="http://www.w3.org/2000/svg" xmlns:xlink="http://www.w3.org/1999/xlink" x="0px"
	 y="0px" width="64px" height="64px" viewBox="0 0 64 64" xml:space="preserve">

<g id="Production">
	<g>
		<rect x="14" y="9" fill="#ffffff" width="19" height="5"/>
		<path fill="#ffffff" d="M32.3813,46h15.9204c3.5557,0,6.5867-1.4084,8.5173-3.9445C63.3362,33.4968,54,17.9938,42,17.0466V14h21V9
			H37c0,6,0,1.8895,0,7.9766C29,16.9766,27.8827,23,26.5884,27h5.2095c0.5898-2,0.9961-5,4.0835-5h4.7727
			c7.342,0,11.8977,6.5967,13.0443,10.7559C54.6741,36.2927,53.593,41,48.3018,41H32.3813c-2.2921,0-4.022-2.2189-3.3605-4.4854
			L30.6311,31c-11.6874,0-1.283,0-19.9095,0c-1.1017,0-2.088-0.7383-2.3986-1.7939L6.2036,22H0.9917l2.5343,8.6162
			c0.9327,3.1699,3.8917,5.3738,7.1956,5.3738h13.2958C23.0162,40.7332,26.7686,46,32.3813,46z"/>
		<path fill="#ffffff" d="M61.2334,46.7998l-4.4551,1.7324l-0.1094,0.0459C54.5459,49.5215,52.292,50,49.9678,50H22v5h27.9678
			c3.0078,0,5.9268-0.6152,8.6768-1.8281l4.4014-1.7119L61.2334,46.7998z"/>
	</g>
</g>
</svg>
