<?xml version="1.0" encoding="utf-8"?>

<svg version="1.2" baseProfile="tiny" xmlns="http://www.w3.org/2000/svg" xmlns:xlink="http://www.w3.org/1999/xlink" x="0px"
	 y="0px" width="128px" height="128px" viewBox="0 0 128 128" xml:space="preserve">
<g id="_x31_28px_boxes">
	<rect fill="none" width="128" height="128"/>
</g>
<g id="Production">
	<g>
		<path fill="#ffffff" d="M68.5982,91.249c0.234,7.4822-3.3206,15.5467-4.5982,16.9654c-1.2758-1.4176-4.8316-9.4715-4.5986-16.9654
			h-7.3802c-1.2957,3.0396-1.4278,8.0899-1.226,10.9058C51.5979,113.3545,61.8105,126.356,63.9999,128
			c2.1893-1.644,12.402-14.645,13.2047-25.8452c0.2022-2.8159,0.0696-7.8667-1.2263-10.9058H68.5982z"/>
		<path fill="#ffffff" d="M93.3509,68.9429l-9.5533-14.0186V28.9424c0-15.0606-10.2438-25.2818-18.5839-28.6978
			c-0.7928-0.3261-1.6822-0.3261-2.475,0c-8.5752,3.5123-18.5839,13.7996-18.5839,28.6978l0.0003,26.0395l-9.5066,13.962
			c-1.4668,2.1553,0.0793,5.0835,2.6886,5.0835h12.4686c-1.9829,2.9077-3.2111,6.7412-3.7015,11.5263
			c-0.0981,0.958,0.6546,1.792,1.6176,1.792h32.5561h0.0044c1.0135,0,1.7812-0.9186,1.6006-1.9155
			c-0.4986-4.728-1.723-8.52-3.6885-11.4028h12.4685C93.2707,74.0274,94.8199,71.1,93.3509,68.9429z M63.9757,6.8789
			c6.4648,3.5273,11.5764,9.6588,12.9325,17.4903h-25.864C52.4032,16.5205,57.5437,10.3883,63.9757,6.8789z M67.9029,67.522V57.5083
			c0-2.1557-1.7476-3.9028-3.903-3.9028c-2.1555,0-3.9031,1.7471-3.9031,3.9028V67.522H43.4866l6.6094-9.707
			c0.3675-0.5401,0.5641-1.1778,0.5641-1.8306l-0.0002-25.1099l26.6326-0.0005v25.0528c0,0.6538,0.1968,1.292,0.565,1.832
			l6.6533,9.7632H67.9029z"/>
	</g>
</g>
</svg>
