<?xml version="1.0" encoding="utf-8"?>
<!-- Generator: Adobe Illustrator 18.1.1, SVG Export Plug-In . SVG Version: 6.00 Build 0)  -->
<svg version="1.2" baseProfile="tiny" xmlns="http://www.w3.org/2000/svg" xmlns:xlink="http://www.w3.org/1999/xlink" x="0px"
	 y="0px" width="128px" height="128px" viewBox="0 0 128 128" xml:space="preserve">
<g id="_x31_28px_boxes">
	<rect fill="none" width="128" height="128"/>
</g>
<g id="Production">
	<g>
		<path fill="#ffffff" d="M94.592,108.1754H81.9863l3.864,5.8169c1.6929,2.5483,5.0013,2.9808,7.2781,1.4681
			c2.4151-1.6043,3.0725-4.8628,1.468-7.2782L94.592,108.1754z"/>
		<path fill="#ffffff" d="M33.4041,108.1822c-1.6045,2.4154-0.9471,5.6739,1.468,7.2782c2.4155,1.6044,5.6738,0.9472,7.278-1.4681
			l3.8641-5.8169H33.4084L33.4041,108.1822z"/>
		<path fill="#ffffff" d="M116.3025,108.1822l-8.4111-12.6618c-0.9729-1.4646-2.6148-2.345-4.3731-2.345H70.0002V86.214h36.3018
			c1.9316,0,3.7075-1.0608,4.6228-2.7616c0.9155-1.7013,0.823-3.7677-0.241-5.38L68.3821,13.9668
			c-0.9715-1.4724-2.6177-2.3584-4.3819-2.3584c-1.7641,0-3.4104,0.886-4.3818,2.3584L17.3167,78.0724
			c-1.064,1.6123-1.1565,3.6787-0.241,5.38c0.9153,1.7008,2.6911,2.7616,4.6228,2.7616h36.3017v6.9614H24.4817
			c-1.7583,0-3.4002,0.8804-4.3731,2.345l-8.4111,12.6618c-1.6045,2.4154-0.947,5.6739,1.468,7.2782
			c2.4156,1.6044,5.6739,0.9472,7.2781-1.4681l6.8533-10.3169h73.4062l6.8533,10.3169c1.8874,2.8409,5.0847,2.9253,7.2781,1.4681
			C117.2495,113.8561,117.907,110.5976,116.3025,108.1822z M31.4529,75.714l32.5473-49.3236L96.5476,75.714H31.4529z"/>
		<path fill="#ffffff" d="M63.5442,37.3733c-2.6973,0.2517-4.6797,2.6427-4.428,5.3399l1.4124,15.1255
			c0.1518,1.6376,1.4502,2.9887,3.1474,3.1474c1.917,0.179,3.6167-1.2303,3.7954-3.1474l1.4126-15.1255
			C69.0498,40.7856,67.584,36.9961,63.5442,37.3733z"/>
		<path fill="#ffffff" d="M64.0002,63.0503c-2.6442,0-4.7954,2.151-4.7954,4.7951c0,2.6441,2.1512,4.7953,4.7954,4.7953
			c2.6441,0,4.795-2.1512,4.795-4.7953C68.7952,65.2013,66.6443,63.0503,64.0002,63.0503z"/>
	</g>
</g>
</svg>
