<?xml version="1.0" encoding="utf-8"?>
<!-- Generator: Adobe Illustrator 18.1.1, SVG Export Plug-In . SVG Version: 6.00 Build 0)  -->
<svg version="1.2" baseProfile="tiny" xmlns="http://www.w3.org/2000/svg" xmlns:xlink="http://www.w3.org/1999/xlink" x="0px"
	 y="0px" width="128px" height="128px" viewBox="0 0 128 128" xml:space="preserve">
<g id="_x31_28px_boxes">
	<rect fill="none" width="128" height="128"/>
</g>
<g id="Production">
	<g>
		<path fill="#ffffff" d="M100.563,54.0941c0.0116-0.4661-3.4073-28.1119-3.4642-28.5746c-0.1456-1.1863-0.8712-2.2225-1.9362-2.765
			c-0.5122-0.261-12.774-6.3916-32.5774-6.3916c-19.9346,0-30.5794,6.2459-31.0227,6.5118
			c-0.9632,0.5776-1.6011,1.5722-1.7244,2.6885c-0.0576,0.5226-3.1962,28.6689-3.1624,29.1916
			c-3.794,3.6407-4.1311,9.5788-3.3164,14.7971c1.0186,6.5264,4.4578,9.9886,7.3174,11.5079
			c5.4759,19.0797,22.2044,30.4822,33.346,30.4822c10.0246,0,27.6974-9.8232,33.3315-30.4981
			c2.8537-1.5276,6.273-4.9881,7.2876-11.4919C105.5154,63.9564,105.0435,57.5998,100.563,54.0941z M36.7695,28.2952
			c3.3391-1.5061,12.1111-4.7431,25.8157-4.7431c13.9499,0,23.8523,3.3522,27.6272,4.8736l2.6164,21.3117H79.4209
			c2.2524-10.3968-5.6997-20.208-16.2957-20.208c-10.572,0-18.5532,9.7864-16.2954,20.208H34.4035L36.7695,28.2952z
			 M72.6115,46.2051c0,5.2186-4.2545,9.4864-9.4863,9.4864c-5.2637,0-9.4861-4.2989-9.4861-9.4864
			c0-5.2309,4.2554-9.4865,9.4861-9.4865C68.3559,36.7186,72.6115,40.9742,72.6115,46.2051z M64.0227,104.353
			c-5.7718,0-16.5828-5.6279-22.9124-16.8337h45.9373C80.644,99.1716,69.593,104.353,64.0227,104.353z M97.5387,68.4433
			c-0.8031,5.1469-3.5111,6.28-4.0378,6.4533l-2.1403,0.3216c-0.5691,2.4599-0.8877,4.0242-1.6961,6.3758H38.4026
			c-1.2337-3.4315-1.3173-4.6539-1.577-6.3402l-2.3247-0.3568c-0.5241-0.1724-3.2348-1.3038-4.0385-6.4538
			c-0.5984-3.8347-0.2356-6.859,0.9958-8.2976c0.4114-0.4803,1.1748-1.1151,3.0408-1.1346v6.5593
			c0,1.6362,1.3264,2.9625,2.9626,2.9625c1.6363,0,2.9627-1.3263,2.9627-2.9625v-8.6437h9.9424
			c3.0615,3.6373,7.6435,5.9541,12.7585,5.9541s9.6973-2.3168,12.7588-5.9541h11.7375v8.644c0,1.6362,1.3265,2.9625,2.9627,2.9625
			s2.9626-1.3263,2.9626-2.9625V59.012c1.8335,0.0293,2.5887,0.6573,2.9966,1.1337C97.7746,61.5841,98.1374,64.6084,97.5387,68.4433
			z"/>
		<path fill="#ffffff" d="M51.893,67.3459c-2.9922,0-5.4157,2.4246-5.4157,5.4175c0,2.9888,2.4235,5.4134,5.4157,5.4134
			c2.9866,0,5.4143-2.4246,5.4143-5.4134C57.3073,69.7705,54.8796,67.3459,51.893,67.3459z"/>
		<path fill="#ffffff" d="M76.184,67.3459c-2.9914,0-5.4169,2.4246-5.4169,5.4175c0,2.9888,2.4255,5.4134,5.4169,5.4134
			c2.9869,0,5.4109-2.4246,5.4109-5.4134C81.5949,69.7705,79.1709,67.3459,76.184,67.3459z"/>
		<path fill="#ffffff" d="M58.656,46.2051c0,2.4806,2.0296,4.4692,4.4692,4.4692c2.4392,0,4.4695-1.9878,4.4695-4.4692
			c0-2.4683-2.001-4.4692-4.4695-4.4692C60.6572,41.7359,58.656,43.7368,58.656,46.2051z"/>
	</g>
</g>
</svg>
