<?xml version="1.0" encoding="utf-8"?>
<!-- Generator: Adobe Illustrator 18.1.1, SVG Export Plug-In . SVG Version: 6.00 Build 0)  -->
<svg version="1.2" baseProfile="tiny" xmlns="http://www.w3.org/2000/svg" xmlns:xlink="http://www.w3.org/1999/xlink" x="0px"
	 y="0px" width="128px" height="128px" viewBox="0 0 128 128" xml:space="preserve">
<g id="_x31_28px_boxes">
	<rect fill="none" width="128" height="128"/>
</g>
<g id="Production">
	<g>
		<path fill="#ffffff" d="M27.7541,60.2386c4.9917,1.6924,9.9355,1.9673,13.8828,1.4265
			c-5.2242-7.5444-6.4329-14.5952-6.5835-18.9028c-11.1856-4.3179-22.8677-0.1938-23.2393,2.0813
			C11.4447,47.1058,17.2736,56.6854,27.7541,60.2386z"/>
		<path fill="#ffffff" d="M95.7321,73.6253c-4.7088,0.5918-9.1348,2.313-12.4639,4.3152c0.5376,2.825,1.0049,6.9128,0.7732,12.0737
			c3.6145,1.5533,8.449,2.5555,13.9846,1.8597c10.6709-1.3414,18.3037-9.5386,18.1748-11.5528
			C116.0719,78.3072,106.403,72.284,95.7321,73.6253z"/>
		<path fill="#ffffff" d="M90.6879,42.0477c-0.7068-1.8223-11.1419-3.4468-19.7712,1.4018
			c-4.5777,2.5725-8.2139,6.0818-10.2559,9.2776c-3.0291-2.9428-5.4736-5.5916-7.0601-8.6643
			c-2.7585-5.3424-2.229-10.3792-2.4345-11.879c2.7146,0.0028,6.0949-0.7927,9.477-2.4457
			c6.6885-3.2678,9.9356-10.3672,9.3162-11.6362c-0.6194-1.2691-8.2163-3.0694-14.9055,0.199
			c-2.6563,1.2979-4.9114,2.9289-6.5716,4.6107c-1.1311-2.7569-3.0945-5.7936-5.6299-8.6127
			c-5.9111-6.5725-15.3791-8.1916-16.3225-6.8484c-0.9433,1.3433-0.8291,10.3831,5.0821,16.9561
			c3.216,3.5759,6.6836,6.0603,9.7651,7.1633c-0.2454,1.0008-1.5657,9.2621,1.0972,17.6389
			c1.6604,5.2616,4.5283,9.9485,7.6941,14.4248c5.3222,7.4167,8.5586,11.7047,9.091,18.6751
			c-3.9902-3.1226-12.7688-7.3621-22.5918-6.4263c-13.1338,1.2515-22.946,11.6262-22.7114,13.4958
			c0.2344,1.8697,11.7178,10.2154,24.8518,8.9639c9.0798-0.8652,16.6733-5.9267,20.3484-9.7004
			c-0.8193,7.9177-6.4114,14.4508-9.8013,21.4768c-1.6694,3.4602-3.0522,7.0969-3.8293,10.8669c0,0,25.7854-0.0674,25.7917-0.0202
			c-0.8564-6.4707,2.5857-14.5603,3.52-17.2893c1.2828-3.7474,4.8516-13.0138,2.1861-25.3094
			c-1.4453-6.6645-4.0781-11.9656-7.8084-16.6703c3.0723-0.4362,6.5384-1.5477,9.9934-3.4893
			C87.838,53.3575,91.3947,43.8707,90.6879,42.0477z"/>
	</g>
</g>
</svg>

