<?xml version="1.0" encoding="utf-8"?>
<!-- Generator: Adobe Illustrator 18.1.1, SVG Export Plug-In . SVG Version: 6.00 Build 0)  -->
<svg version="1.2" baseProfile="tiny" xmlns="http://www.w3.org/2000/svg" xmlns:xlink="http://www.w3.org/1999/xlink" x="0px"
	 y="0px" width="128px" height="128px" viewBox="0 0 128 128" xml:space="preserve">
<g id="_x31_28px_boxes">
	<rect fill="none" width="128" height="128"/>
</g>
<g id="Production">
	<g>
		<path fill="#ffffff" d="M82.0307,94.5919v8.7194H31.9164V48.9345h50.1143v11.7764l6.75-3.1317v-9.6016
			c14.3497-6.1103,10.494-30.0389-5.0396-30.0389H27.3149c-7.7315,0-14.0215,6.9698-14.0215,15.5368v45.6381
			c0,1.854,1.4952,3.3574,3.3454,3.3736l0.0003,0.0014h8.5273v24.1977c0,1.8641,1.511,3.375,3.375,3.375h56.8643
			c1.864,0,3.375-1.5109,3.375-3.375V91.46L82.0307,94.5919z M83.7411,24.6887c8.9857,0,9.9154,16.032,0.9834,17.4938
			l-52.4166-0.0016c7.6498-1.3571,8.107-15.2537,0.6317-17.4899L83.7411,24.6887z"/>
		<rect x="40.0731" y="58.1643" fill="#ffffff" width="33.8013" height="4.9362"/>
		<path fill="#ffffff" d="M66.1981,68.4361h-26.125v4.9363H61.903C61.903,73.3724,65.8993,68.6998,66.1981,68.4361z"/>
		<path fill="#ffffff" d="M57.3869,78.7081H40.0731v4.936h13.3765C53.9004,82.6349,55.298,81.1761,57.3869,78.7081z"/>
		<path fill="#ffffff" d="M108.3683,57.5858c-0.8718-1.8787-3.1015-2.6947-4.98-1.8234c0,0-34.0227,15.8597-34.3183,16.1414
			l5.1721,4.2002l-0.438,5.7396l3.5503,4.5193H66.5412l-3.4478-7.4314l-5.2341,6.1838c-2.065,2.4395-0.3274,6.1726,2.8623,6.1726
			c0,0,15.7544,0.011,16.54,0.011c0.7857,0,1.6231-0.1963,2.3279-0.5337c0.0042,0,0.0083-0.0002,0.0124-0.0002l32.9342-15.2874
			c1.935-0.8979,2.6689-3.1578,1.8232-4.9801L108.3683,57.5858z"/>
	</g>
</g>
</svg>
