<?xml version="1.0" encoding="utf-8"?>

<svg version="1.2" baseProfile="tiny" xmlns="http://www.w3.org/2000/svg" xmlns:xlink="http://www.w3.org/1999/xlink" x="0px"
	 y="0px" width="64px" height="64px" viewBox="0 0 64 64" xml:space="preserve">

<g id="Production">
	<path fill="#ffffff" d="M50.125,33.9141c0.2118-1.0001,0.4972-1.2757,0.7627-2.8887C51.4207,27.803,49.359,25,46.0361,25H31.0918
		c-0.9922,0-1.1055-1.1357-1.1182-1.3652c-0.1094-2.0269,0.584-5.0457,1.1953-7.7136c0.3428-1.4971,0.667-2.9086,0.8213-4.0272
		c0.3713-2.6874-1.6834-4.8609-4.1875-4.8609c-1.7041,0-3.3096,0.9759-4.5186,2.7469
		c-8.5967,12.5947-14.4834,32.2736-9.1855,40.3747c2.8652,4.3794,8.5625,6.7911,16.0439,6.7911
		c4.5205,0,8.4785-0.874,10.6738-1.6919c2.7344-1.0181,4.2031-2.6421,4.6035-5.041c0.0693-0.1338,0.4453-0.4521,0.7197-0.6846
		c1.2979-1.1001,3.7031-3.1387,2.5293-7.4399C49.2367,41.0808,52.5376,38.6678,50.125,33.9141z M47.6279,40.1562
		c-0.5811,0.7056-1.1816,1.4355-0.918,2.3521c0.9033,3.1494-0.5664,4.395-1.8643,5.4946c-0.6709,0.5688-1.251,1.0605-1.3779,1.8052
		c-0.2959,1.7393-1.2969,2.8076-3.3486,3.5718c-2.0332,0.7568-5.7217,1.5659-9.9766,1.5659c-3.9287,0-11.0205-0.7646-14.3701-5.8857
		c-4.7266-7.2275,0.9395-26.1035,9.1641-38.1519c0.8252-1.209,1.8428-1.8745,2.8662-1.8745c1.3129,0,2.4076,1.1255,2.207,2.5894
		c-0.1426,1.0312-0.457,2.4033-0.79,3.856c-0.6416,2.7969-1.3682,5.9561-1.2422,8.2642C28.082,25.667,29.3623,27,31.0918,27h14.9443
		c2.099,0,3.2059,1.7106,2.8789,3.6941c-0.1221,0.7373-0.3262,1.3844-0.4902,1.9025c-0.2617,0.8306-0.4697,1.4876-0.1514,2.0892
		C49.7822,37.5397,48.6377,38.9307,47.6279,40.1562z"/>
</g>
</svg>
