<?xml version="1.0" encoding="utf-8"?>
<!-- Generator: Adobe Illustrator 18.1.1, SVG Export Plug-In . SVG Version: 6.00 Build 0)  -->
<svg version="1.2" baseProfile="tiny" xmlns="http://www.w3.org/2000/svg" xmlns:xlink="http://www.w3.org/1999/xlink" x="0px"
	 y="0px" width="128px" height="128px" viewBox="0 0 128 128" xml:space="preserve">
<g id="box">
	<rect fill="none" width="128" height="128"/>
</g>
<g id="Production">
	<g>
		
			<ellipse transform="matrix(0.014 -0.9999 0.9999 0.014 4.5951 87.5796)" fill="#ffffff" cx="46.7029" cy="41.46" rx="2.6149" ry="4.4915"/>
		<path fill="#ffffff" d="M82.616,62.571c-1.9053-0.0266-3.6001,0.4923-4.6519,1.3113c-0.6933,0.5396-1.1084,1.2094-1.1182,1.9404
			c-0.0263,1.8411,2.5152,3.3682,5.6763,3.4126c3.1607,0.0448,5.7451-1.4108,5.7713-3.2522
			c0.0083-0.6074-0.2647-1.1805-0.7461-1.6779C86.571,63.2964,84.7332,62.6005,82.616,62.571z"/>
		<path fill="#ffffff" d="M38.8977,50.1553c-2.6772-0.0377-4.9336,1.0155-5.5371,2.4634c-1.0376,2.4873,2.657,4.0768,5.4448,4.1159
			c3.3718,0.0473,6.0598-1.6333,5.6553-3.6285C44.1272,51.4595,41.7339,50.1953,38.8977,50.1553z"/>
		
			<ellipse transform="matrix(0.9999 0.014 -0.014 0.9999 0.7462 -1.0206)" fill="#ffffff" cx="73.1812" cy="52.7239" rx="4.6407" ry="2.7018"/>
		<path fill="#ffffff" d="M58.511,54.9592c-1.4109-0.0201-2.6441,0.4218-3.2798,1.0888c-1.3455,1.4118,0.4114,3.1877,3.2197,3.2267
			c2.0352,0.0285,3.719-0.9107,3.7364-2.1053C62.2039,55.9609,60.5129,54.9873,58.511,54.9592z"/>
		
			<ellipse transform="matrix(0.0139 -0.9999 0.9999 0.0139 40.3301 149.7426)" fill="#ffffff" cx="96.0823" cy="54.4246" rx="2.3248" ry="3.993"/>
		<path fill="#ffffff" d="M110.3735,46.7263c-6.3628-11.5534-25.1323-5.9386-38.4541-9.4134
			C59.6108,34.1028,55.48,27.688,43.9661,27.688c-10.4886,0-20.3445,6.6821-25.1226,14.7455
			c-2.1416,3.6138-3.1506,7.2942-3.0044,10.765c0,20.4924-0.4058,21.3726,1.3972,25.1888c4.2534,9.005,15.1721,9.2002,25.0562,9.427
			c12.3042,0.2822,15.6865,0.8045,24.9861,6.4613c5.4016,3.2859,10.9704,6.6665,21.0683,5.9355
			c8.3257-0.6024,15.9976-5.9354,20.5225-14.2657c2.5889-4.7661,3.3071-9.8827,3.1963-14.178
			c0.0031-0.8138,0.0444-9.1677,0.0603-15.2671C112.134,53.332,112.4009,50.4083,110.3735,46.7263z M29.9844,73.0434
			c-0.6629,0.9398-2.5086,0.779-4.1223-0.3588c-1.6141-1.1375-2.3858-2.8214-1.7229-3.7613c0.6618-0.94,2.507-0.7793,4.1213,0.3584
			C29.8748,70.4196,30.6462,72.1037,29.9844,73.0434z M43.7065,81.9085c-0.3669,1.3416-2.4668,1.3363-4.3068,0.0385
			c-0.0706-0.0497-0.1372-0.1017-0.2046-0.1534c-1.4722-1.1311-2.1524-2.7089-1.5183-3.6079
			c0.6618-0.9399,2.507-0.7793,4.1213,0.3587C43.2046,79.5357,43.9705,80.9415,43.7065,81.9085z M51.4797,74.3984
			c-0.8579,1.2165-3.247,1.0085-5.3359-0.4641c-2.0886-1.4728-3.0876-3.6523-2.2297-4.8688
			c0.9104-1.2919,3.4072-0.8949,5.3347,0.464C51.3381,71.0024,52.3362,73.1821,51.4797,74.3984z M71.3132,81.4316
			c-0.6618,0.9397-2.507,0.7793-4.1213-0.3587c-1.6143-1.1377-2.3855-2.8217-1.7239-3.7617
			c0.6631-0.9399,2.5088-0.779,4.1226,0.3589C71.2046,78.8078,71.9763,80.4916,71.3132,81.4316z M83.6509,94.3008
			c-0.0344,0.068-0.0711,0.1352-0.1155,0.1982c-0.842,1.1948-3.189,0.9907-5.2417-0.4561
			c-0.5771-0.4067-1.0657-0.8691-1.4565-1.3492c-1-1.2278-1.3406-2.5755-0.7354-3.4347c0.8428-1.1953,3.1899-0.9908,5.2424,0.456
			C83.2886,91.0858,84.2688,93.0782,83.6509,94.3008z M103.5786,63.7673c-1.6924-0.0749-3.6858,0.2942-4.9878,1.3308
			c-1.6443,1.3092-1.4153,3.1714,0.6804,4.3609c-4.3269,4.1932-8.7519,5.4473-13.8125,5.4473
			c-11.9326,0-14.8903-7.2342-27.9221-11.062c-9.6863-2.845-22.8296-0.5488-30.1516-3.3121
			c-5.8799-2.2185-6.8584-8.0553-4.2095-13.6162c4.6612,1.1583,7.8301-3.4477,4.135-5.7819
			c4.1958-4.2838,10.1668-7.5086,16.6556-7.5086c9.6418,0,13.3855,6.0241,26.4548,9.4328c3.7769,0.9851,7.738,1.331,11.6868,1.4901
			c0.1423,1.354,2.0573,2.4496,4.4199,2.4828c2.2974,0.032,4.2014-0.9512,4.4704-2.2457
			c6.6375,0.2386,12.0628,0.9707,14.1744,4.8049C107.4189,53.6702,105.8359,59.6801,103.5786,63.7673z"/>
	</g>
</g>
</svg>
