<?xml version="1.0" encoding="utf-8"?>

<svg version="1.2" baseProfile="tiny" xmlns="http://www.w3.org/2000/svg" xmlns:xlink="http://www.w3.org/1999/xlink" x="0px"
	 y="0px" width="128px" height="128px" viewBox="0 0 128 128" xml:space="preserve">
<g id="_x31_28px_boxes">
	<rect fill="none" width="128" height="128"/>
</g>
<g id="Production">
	<g>
		<path fill="#ffffff" d="M76.7847,37.5287l10.3354-10.3602l11.7631,11.766L88.5288,49.2836l4.4247,4.4303l10.3517-10.3658
			l3.3806,3.3723c1.635,1.6518,4.2976,1.6544,5.9437,0.0056c1.6463-1.6489,1.6574-4.3224,0.0111-5.9741L85.4409,13.5493
			c-1.6407-1.6405-4.3309-1.635-5.977,0.0085c-1.6406,1.6571-1.6295,4.3196,0.0056,5.963l3.2372,3.2424L72.3602,33.1039
			L76.7847,37.5287z"/>
		<path fill="#ffffff" d="M16.1653,115.0873c1.3977-1.3977,20.9829-21.0022,20.9829-21.0022s9.4955,4.27,11.6304,5.1124
			c2.1156,0.8315,4.2672,0.6243,5.5709-0.6739c1.301-1.3063,32.2678-32.2982,32.2678-32.2982l8.1339,8.1174
			c1.6409,1.6405,4.2924,1.6405,5.9357-0.0056c1.6544-1.6405,1.646-4.303,0.0054-5.9436L57.8129,25.5114
			c-1.6599-1.646-4.3225-1.646-5.963-0.0082c-1.6515,1.646-1.6515,4.3059,0.0111,5.9492l7.9876,7.9873
			c0,0-31.2876,31.3734-32.2707,32.3565c-1.4114,1.406-1.7014,3.4885-0.8561,5.372c0.8423,1.892,4.7311,11.4953,4.7311,11.4953
			l-14.8041,14.8236c0-0.0028-2.2619,9.2883-2.4829,10.4567C13.9448,115.115,14.7678,116.4847,16.1653,115.0873z M48.309,65.9297
			l8.3604,8.3606l6.4989-6.4823l-8.3631-8.3741l4.1982-4.2068l8.3687,8.3662l8.3078-8.3137l6.5182,6.5156L52.2256,91.8178
			l-6.5154-6.5182l6.7583-6.8138l-8.3577-8.3577L48.309,65.9297z"/>
	</g>
</g>
</svg>
