<?xml version="1.0" encoding="utf-8"?>
<!-- Generator: Adobe Illustrator 18.1.1, SVG Export Plug-In . SVG Version: 6.00 Build 0)  -->
<svg version="1.2" baseProfile="tiny" xmlns="http://www.w3.org/2000/svg" xmlns:xlink="http://www.w3.org/1999/xlink" x="0px"
	 y="0px" width="64px" height="64px" viewBox="0 0 64 64" xml:space="preserve">

<g id="Production">
	<path fill="#ffffff" d="M54,12c-2.4514,0-3.8863,2.8008-2.3936,4.7913L40.7479,33.1055c-0.7332-0.1893-1.4407-0.1284-2.1721,0.2695
		l-10.7973-9.2533C28.5812,22.136,27.111,20,25,20c-2.4255,0-3.8502,2.7391-2.4484,4.7249L10.7389,42.1027
		C8.7768,41.6028,7,43.0977,7,45c0,1.6569,1.3431,3,3,3c2.4476,0,3.8825-2.7926,2.4001-4.7835L24.188,25.8746
		c0.7583,0.2142,1.494,0.1624,2.2578-0.2613l10.783,9.2414C36.4107,36.832,37.8688,39,40,39c1.6569,0,3-1.3431,3-3
		c0-0.6676-0.2253-1.2781-0.5941-1.7765l10.865-16.3231C55.2295,18.3921,57,16.8986,57,15C57,13.3431,55.6569,12,54,12z"/>
</g>
</svg>
