<?xml version="1.0" encoding="utf-8"?>
<!-- Generator: Adobe Illustrator 18.1.1, SVG Export Plug-In . SVG Version: 6.00 Build 0)  -->
<svg version="1.2" baseProfile="tiny" xmlns="http://www.w3.org/2000/svg" xmlns:xlink="http://www.w3.org/1999/xlink" x="0px"
	 y="0px" width="128px" height="128px" viewBox="0 0 128 128" xml:space="preserve">
<g id="_x31_28px_boxes" display="none">
	<rect display="inline" fill="none" width="128" height="128"/>
</g>
<g id="Production">
	<g>
		<path fill="#ffffff" d="M119.2912,45.503v-6.2605H96.521c-16.4065-21.4938-48.6619-21.4589-65.0418,0H8.7088v6.2605h18.8375
			c-1.3315,2.6229-2.3618,5.3588-3.0908,8.1577H8.7088v6.2602h14.6256c-0.2704,2.7122-0.2704,5.4461,0,8.1582H8.7088v6.2603h15.7467
			c0.729,2.7987,1.7593,5.5347,3.0907,8.1575H8.7088v6.2607h22.7704c16.4082,21.496,48.6635,21.4564,65.0415,0h22.7705v-6.2607
			h-18.8374c1.3313-2.6228,2.3618-5.3588,3.0906-8.1575h15.7468v-6.2603h-14.6257c0.2705-2.7121,0.2705-5.446,0.0002-8.1582h14.6255
			v-6.2602h-15.7466c-0.729-2.7989-1.7592-5.5348-3.0908-8.1577H119.2912z M81.155,53.8025l-8.2666,8.2671l1.8979,8.9419
			c3.0276-1.3728,5.7178,2.5003,3.3633,4.8552l-1.9243,1.9243c1.946,9.1687,2.4151,6.9961-1.7124,11.1236
			c-0.4597,0.4597-1.2314,0.3251-1.5137-0.2517l-8.78-17.9241l-7.8088,7.8088c1.1989,8.1341,1.7613,6.0527-1.6534,9.4651
			c-0.4784,0.4774-1.2861,0.3102-1.5398-0.3103l-3.7048-9.0664L40.29,74.7788c-0.6164-0.258-0.7773-1.0633-0.3026-1.5376
			c3.4594-3.4583,1.3701-2.8609,9.4131-1.6001l7.8595-7.8593l-17.9229-8.7803c-0.5787-0.2835-0.7091-1.0563-0.2517-1.5139
			c4.1255-4.1251,1.9554-3.6571,11.1237-1.7127l1.9246-1.9243c2.3507-2.352,6.2301,0.3309,4.8554,3.3623l8.9423,1.8972
			l8.2656-8.2656C83.1657,37.8752,90.1652,44.7923,81.155,53.8025z"/>
	</g>
</g>
</svg>
