<?xml version="1.0" encoding="utf-8"?>

<svg version="1.2" baseProfile="tiny" xmlns="http://www.w3.org/2000/svg" xmlns:xlink="http://www.w3.org/1999/xlink" x="0px"
	 y="0px" width="128px" height="128px" viewBox="0 0 128 128" xml:space="preserve">
<g id="_x31_28px_boxes">
	<rect fill="none" width="128" height="128"/>
</g>
<g id="Production">
	<g>
		<path fill="#ffffff" d="M104.886,62.0361h-8.0046c-2.1038,2.0553-3.8683,4.5015-5.4471,7.6748h9.6129v37.7431H35.4158
			c-4.665,0-8.4629-3.7971-8.4629-8.4629c0-4.6667,3.7978-8.4658,8.4629-8.4658c4.5466,0,7.9459,2.9608,10.4697,6.4537
			c1.9522,2.7012,5.2414,1.5807,5.2621-1.3071c0,0,0-33.6359,0-33.6478c-1.656-7.2851-8.2362-12.554-15.7318-12.554
			c-8.8993,0-16.1388,7.2399-16.1388,16.141c0,0,0,33.2236,0,33.38c0,8.8922,7.2292,16.1256,16.1388,16.1373h69.4702
			c2.1183,0,3.837-1.7167,3.837-3.8378V65.8737C108.723,63.7537,107.0043,62.0361,104.886,62.0361z"/>
		<path fill="#ffffff" d="M68.4167,62.0361H57.6653v7.6748H72.627c1.6777,4.4469,2.2757,9.0532,2.7794,14.2858
			c0.1984,2.0623,1.7407,3.464,3.499,3.464s3.3006-1.4017,3.4991-3.464c0.8994-9.3478,2.0979-16.6973,9.2227-24.7087
			c4.9153-5.5279,11.567-10.9298,11.567-22.1331c0-13.3895-10.8474-24.2834-24.285-24.2834
			c-13.4375,0-24.2927,10.8939-24.2927,24.2834C54.6165,50.0235,63.0161,54.7275,68.4167,62.0361z M78.8704,26.6407
			c5.8176,0,10.5337,4.716,10.5337,10.5334c0,5.8176-4.7161,10.5337-10.5337,10.5337c-5.8174,0-10.5334-4.7161-10.5334-10.5337
			C68.3369,31.3567,73.053,26.6407,78.8704,26.6407z"/>
	</g>
</g>
</svg>
