<?xml version="1.0" encoding="utf-8"?>
<!-- Generator: Adobe Illustrator 18.1.1, SVG Export Plug-In . SVG Version: 6.00 Build 0)  -->
<svg version="1.2" baseProfile="tiny" xmlns="http://www.w3.org/2000/svg" xmlns:xlink="http://www.w3.org/1999/xlink" x="0px"
	 y="0px" width="128px" height="128px" viewBox="0 0 128 128" xml:space="preserve">
<g id="_x31_28px_boxes">
	<rect fill="none" width="128" height="128"/>
</g>
<g id="Production">
	<g>
		<path fill="#ffffff" d="M39.5093,86.0269h-17.25c-2.6233,0-4.75,2.1267-4.75,4.75c0,2.6232,2.1267,4.75,4.75,4.75h17.25
			c2.6233,0,4.75-2.1268,4.75-4.75C44.2593,88.1536,42.1326,86.0269,39.5093,86.0269z"/>
		<path fill="#ffffff" d="M72.6362,86.0269h-17.25c-2.6232,0-4.75,2.1267-4.75,4.75c0,2.6232,2.1268,4.75,4.75,4.75h17.25
			c2.6233,0,4.75-2.1268,4.75-4.75C77.3862,88.1536,75.2595,86.0269,72.6362,86.0269z"/>
		<path fill="#ffffff" d="M105.7407,86.0269h-17.25c-2.6233,0-4.75,2.1267-4.75,4.75c0,2.6232,2.1267,4.75,4.75,4.75h17.25
			c2.6233,0,4.75-2.1268,4.75-4.75C110.4907,88.1536,108.364,86.0269,105.7407,86.0269z"/>
		<path fill="#ffffff" d="M39.5093,72.6293h-17.25c-2.6233,0-4.75,2.1269-4.75,4.75c0,2.6233,2.1267,4.75,4.75,4.75h17.25
			c2.6233,0,4.75-2.1267,4.75-4.75C44.2593,74.7562,42.1326,72.6293,39.5093,72.6293z"/>
		<path fill="#ffffff" d="M72.6362,72.6293h-17.25c-2.6232,0-4.75,2.1269-4.75,4.75c0,2.6233,2.1268,4.75,4.75,4.75h17.25
			c2.6233,0,4.75-2.1267,4.75-4.75C77.3862,74.7562,75.2595,72.6293,72.6362,72.6293z"/>
		<path fill="#ffffff" d="M105.7407,72.6293h-17.25c-2.6233,0-4.75,2.1269-4.75,4.75c0,2.6233,2.1267,4.75,4.75,4.75h17.25
			c2.6233,0,4.75-2.1267,4.75-4.75C110.4907,74.7562,108.364,72.6293,105.7407,72.6293z"/>
		<path fill="#ffffff" d="M39.5093,59.2499h-17.25c-2.6233,0-4.75,2.1269-4.75,4.75c0,2.6233,2.1267,4.75,4.75,4.75h17.25
			c2.6233,0,4.75-2.1267,4.75-4.75C44.2593,61.3768,42.1326,59.2499,39.5093,59.2499z"/>
		<path fill="#ffffff" d="M72.6362,59.2499h-17.25c-2.6232,0-4.75,2.1269-4.75,4.75c0,2.6233,2.1268,4.75,4.75,4.75h17.25
			c2.6233,0,4.75-2.1267,4.75-4.75C77.3862,61.3768,75.2595,59.2499,72.6362,59.2499z"/>
		<path fill="#ffffff" d="M105.7407,59.2499h-17.25c-2.6233,0-4.75,2.1269-4.75,4.75c0,2.6233,2.1267,4.75,4.75,4.75h17.25
			c2.6233,0,4.75-2.1267,4.75-4.75C110.4907,61.3768,108.364,59.2499,105.7407,59.2499z"/>
		<path fill="#ffffff" d="M39.5093,45.8525h-17.25c-2.6233,0-4.75,2.1267-4.75,4.75c0,2.6233,2.1267,4.75,4.75,4.75h17.25
			c2.6233,0,4.75-2.1267,4.75-4.75C44.2593,47.9792,42.1326,45.8525,39.5093,45.8525z"/>
		<path fill="#ffffff" d="M88.4907,55.3525h17.25c2.6233,0,4.75-2.1267,4.75-4.75c0-2.6233-2.1267-4.75-4.75-4.75h-17.25
			c-2.6233,0-4.75,2.1267-4.75,4.75C83.7407,53.2258,85.8674,55.3525,88.4907,55.3525z"/>
		<path fill="#ffffff" d="M39.5093,32.4731h-17.25c-2.6233,0-4.75,2.1268-4.75,4.75c0,2.6233,2.1267,4.75,4.75,4.75h17.25
			c2.6233,0,4.75-2.1267,4.75-4.75C44.2593,34.5999,42.1326,32.4731,39.5093,32.4731z"/>
	</g>
</g>
</svg>
