<?xml version="1.0" encoding="utf-8"?>
<!-- Generator: Adobe Illustrator 18.1.1, SVG Export Plug-In . SVG Version: 6.00 Build 0)  -->
<svg version="1.2" baseProfile="tiny" xmlns="http://www.w3.org/2000/svg" xmlns:xlink="http://www.w3.org/1999/xlink" x="0px"
	 y="0px" width="128px" height="128px" viewBox="0 0 128 128" xml:space="preserve">
<g id="box">
	<rect fill="none" width="128" height="128"/>
</g>
<g id="Production">
	<g>
		<path fill="#ffffff" d="M63.7704,21.621c-35.4209,0-42.9337,39.312-43.0219,51.2713c-0.0096,8.5252,2.4633,15.431,6.4984,22.3859
			c5.8615,2.532,11.6901,3.5962,18.8709,2.3687c5.7074,5.2922,12.0322,8.6313,17.8641,8.7321
			c5.7744-0.0959,12.0188-3.3751,17.6771-8.5663c7.3638,1.3418,12.9546,0.2134,19.1276-2.5705
			c4.0709-6.9693,6.4772-13.9796,6.4649-22.3499C107.1633,60.8007,99.1912,21.621,63.7704,21.621z M95.8418,67.3123
			c-2.1403,0.1916-4.1662,0.2929-6.138,0.3504v0.01c-0.5557,18.4458-17.8956,32.4918-25.7219,32.2415
			c-6.7391,0.2281-21.5587-10.7446-25.0166-26.5236c0-0.0052-0.0053-0.008-0.0053-0.008c-2.1814,1.0768-4.6149,1.9279-7.4324,2.2986
			h0.0079c-0.0935,0.0106-0.1816,0.0157-0.2751,0.0157c-1.1468,0-2.1298-0.8561-2.2701-2.016
			c-0.1479-1.2504,0.7421-2.3916,2.0029-2.5421c10.8811-1.2893,16.3563-10.7467,19.3194-21.3871
			C61.4465,62.167,78.8219,64.2299,95.4424,62.7695c1.253-0.1089,2.3608,0.8123,2.4723,2.073
			C98.0161,66.0929,97.095,67.2035,95.8418,67.3123z"/>
		<path fill="#ffffff" d="M83.5338,73.8679c-0.0012,0-4.6588,0.0012-4.66,0.0012c0.6944-0.8524,1.112-1.9398,1.112-3.1248
			c0-2.7369-2.218-4.955-4.9499-4.955c-2.737,0-4.9552,2.2181-4.9552,4.955c0,1.1861,0.4183,2.2739,1.1142,3.1269
			c-2.0001-0.0013-5.0576-0.006-14.5411,0.0003c0.6962-0.8531,1.1147-1.9411,1.1147-3.1272c0-2.7369-2.2205-4.955-4.9525-4.955
			c-2.7369,0-4.9548,2.2181-4.9548,4.955c0,1.1884,0.4196,2.2784,1.1178,3.1323l-4.5045,0.0024l-0.0005,0.0005
			c-0.8692,0-1.61,0.7016-1.6166,1.6087c0,0.0039-0.001,0.0069-0.001,0.0069c0,2.6742,2.4862,10.112,10.3125,10.112
			c5.875,0,8.9422-4.9922,10.0525-8.4952l1.5956-0.0004c1.1104,3.5025,4.1776,8.4948,10.0529,8.4956c0,0,0.0005,0,0.0008,0
			c6.2121,0,9.8831-4.9618,10.3058-9.9727C85.2582,74.6647,84.4786,73.8679,83.5338,73.8679z M46.4652,77.1168l13.2932-0.0039
			C56.6954,84.5197,48.5179,83.7184,46.4652,77.1168z M68.2681,77.1105c-0.0003-0.001-0.0008-0.0021-0.0008-0.0021
			c4.1219,0.0014,1.4215-0.0001,13.3183,0.0077C79.5206,83.8854,71.2301,84.3658,68.2681,77.1105z"/>
	</g>
</g>
</svg>
