<?xml version="1.0" encoding="utf-8"?>
<!-- Generator: Adobe Illustrator 18.1.1, SVG Export Plug-In . SVG Version: 6.00 Build 0)  -->
<svg version="1.2" baseProfile="tiny" xmlns="http://www.w3.org/2000/svg" xmlns:xlink="http://www.w3.org/1999/xlink" x="0px"
	 y="0px" width="128px" height="128px" viewBox="0 0 128 128" xml:space="preserve">
<g id="_x31_28px_boxes" display="none">
	<rect display="inline" fill="none" width="128" height="128"/>
</g>
<g id="Production">
	<g>
		<path fill="#ffffff" d="M118.3423,94.1284c0-0.3303,0.0192-19.3019-0.0342-19.6279c5.375-1.1133,4.5638-9.0939-0.9365-9.0939
			H87.4158V42.6407c1.9819-0.4454,3.464-2.2127,3.464-4.3289c0-2.4523-1.9879-4.4402-4.4401-4.4402H41.3471
			c-2.4523,0-4.4401,1.9879-4.4401,4.4402c0,2.1358,1.5085,3.9182,3.5181,4.3428v12.9866H10.4739
			c-5.2628,0-6.1161,7.6217-0.9707,8.7704v29.7168H118.3423z M61.6045,80.6194v-19.198h-7.4919v-5.6079
			c4.3965,0.0903,8.9271-1.5246,9.2408-6.4587h6.3253v31.2646H61.6045z"/>
	</g>
</g>
</svg>
