<?xml version="1.0" encoding="utf-8"?>
<!-- Generator: Adobe Illustrator 18.1.1, SVG Export Plug-In . SVG Version: 6.00 Build 0)  -->
<svg version="1.2" baseProfile="tiny" xmlns="http://www.w3.org/2000/svg" xmlns:xlink="http://www.w3.org/1999/xlink" x="0px"
	 y="0px" width="128px" height="128px" viewBox="0 0 128 128" xml:space="preserve">
<g id="_x31_28px_boxes">
	<rect fill="none" width="128" height="128"/>
</g>
<g id="Production">
	<g>
		<path fill="#ffffff" d="M46.1085,52.29l-0.0587,12.8197H81.593l-0.0581-12.7906c0-9.7976,7.3005-17.8867,16.7623-19.2426
			c-9.4326-5.4087-21.5141-8.5-34.4565-8.5c-12.9217,0-25.0075,3.0966-34.4477,8.5075
			C38.8311,34.4619,46.1085,42.5363,46.1085,52.29z"/>
		<path fill="#ffffff" d="M101.2549,37.526c-8.2117,0-14.8898,6.6229-14.8898,14.7723l0.0785,17.4839h-44.891V52.29
			c0-8.1411-6.6402-14.764-14.8502-14.764c-8.2276,0-14.9183,6.7086-14.9183,14.9537c0,7.7463,5.57,13.9416,12.9872,14.8398
			c0,0,0.0077,21.3791,0.0077,21.4095c0,3.9735,3.2236,7.1986,7.1987,7.1986c0,0,0.0588,0,0.0838,0v5.6271
			c0,1.0328,0.8356,1.8688,1.8692,1.8688h11.2139c1.0304,0,1.869-0.836,1.869-1.8688v-5.6271
			c10.2557,0,23.7773-0.0015,34.0133-0.0015v5.6286c0,1.0328,0.8374,1.8688,1.8691,1.8688h11.2136
			c1.0333,0,1.869-0.836,1.869-1.8688v-5.6304c3.9714-0.0058,7.1854-3.1799,7.2894-7.1255V67.3195
			c7.3958-0.9018,12.9479-7.0955,12.9479-14.8398C116.2159,44.2346,109.5049,37.526,101.2549,37.526z"/>
	</g>
</g>
</svg>

