<?xml version="1.0" encoding="utf-8"?>

<svg version="1.2" baseProfile="tiny" xmlns="http://www.w3.org/2000/svg" xmlns:xlink="http://www.w3.org/1999/xlink" x="0px"
	 y="0px" width="64px" height="64px" viewBox="0 0 64 64" xml:space="preserve">

<g id="Production">
	<g>
		<path fill="#ffffff" d="M55.1646,11.123L52.708,8.6665c-0.5176-0.5166-1.2056-0.8013-1.9395-0.8013
			c-0.7324,0.0015-1.4204,0.2886-1.937,0.8086l-3.1287,3.1497l6.3262,6.3262l3.1418-3.1629
			C56.231,13.9194,56.228,12.186,55.1646,11.123z M48.5289,11.816l1.7211-1.7325c0.2792-0.2812,0.7657-0.2808,1.0441-0.0026
			l-0.0002,0.0002l2.4561,2.4561l0.0002-0.0002l0.0002,0.0002c0.2861,0.2861,0.2866,0.7529,0.0015,1.0405l-1.7249,1.7365
			C48.8371,12.1242,51.7186,15.0057,48.5289,11.816z"/>
		<path fill="#ffffff" d="M49.2057,18.1544l-34.59,34.8217l-2.3937,0.598l-1.6774-1.6774l0.5784-2.4245l34.5845-34.8159
			c-2.0771-2.0771,0.6631,0.6631-1.4141-1.4141L9.3086,48.4614l-2.0059,8.4028l8.3384-2.0825l34.9786-35.2133
			C48.5426,17.4913,51.2828,20.2316,49.2057,18.1544z"/>
	</g>
</g>
</svg>
