<?xml version="1.0" encoding="utf-8"?>
<!-- Generator: Adobe Illustrator 18.1.1, SVG Export Plug-In . SVG Version: 6.00 Build 0)  -->
<svg version="1.2" baseProfile="tiny" xmlns="http://www.w3.org/2000/svg" xmlns:xlink="http://www.w3.org/1999/xlink" x="0px"
	 y="0px" width="64px" height="64px" viewBox="0 0 64 64" xml:space="preserve">

<g id="Production">
	<g>
		<path fill="#ffffff" d="M45,21.4854c0-1.8696-0.728-3.6274-2.0503-4.9497L37,10.5859V9h1V0H26v9h1v1.5859l-5.9497,5.9497
			C19.728,17.8579,19,19.6157,19,21.4854v3.7495l0.8818,1.7642L19,28.7637v4.4712l0.8818,1.7646L19,36.7627v4.4722l0.8818,1.7646
			L19,44.7637v4.4717l0.8818,1.7642L19,52.7642V57c0,3.8599,3.1401,7,7,7h12c3.8599,0,7-3.1401,7-7v-4.2358l-0.8818-1.7646
			L45,49.2368v-4.4727L44.1182,43L45,41.2368v-4.4727L44.1182,35L45,33.2358v-4.4722l-0.8818-1.7632L45,25.2358V21.4854z M28,2h8
			c0,6.1293,0-0.5985,0,5c-10.2158,0-2.3325,0-8,0C28,0.9139,28,8.239,28,2z M43,24.7642l-1.1182,2.2363L43,29.2363v3.5278
			L41.8818,35L43,37.2358v3.5283L41.8818,43L43,45.2358v3.5283l-1.1182,2.2354L43,53.2358V57c0,2.7568-2.2432,5-5,5H26
			c-2.7568,0-5-2.2432-5-5v-3.7642l1.1182-2.2363L21,48.7637v-3.5283l1.1182-2.2358L21,40.7632v-3.5278l1.1182-2.2358L21,32.7632
			v-3.5278l1.1182-2.2363L21,24.7632v-3.2778c0-1.3354,0.52-2.5913,1.4644-3.5356L29,11.4141V9h6v2.4141l6.5356,6.5356
			C42.48,18.894,43,20.1499,43,21.4854V24.7642z"/>
		<path fill="#ffffff" d="M32.041,27.4673C28.3702,31.7318,26,33.7254,26,36.959C26,40.29,28.71,43,32.041,43
			c3.3306,0,6.0405-2.71,6.0405-6.041C38.0815,33.7425,35.7603,31.7881,32.041,27.4673z M32.041,41C29.813,41,28,39.187,28,36.959
			c0-2.1143,1.6326-3.7265,4.041-6.4399c2.383,2.69,4.0405,4.3132,4.0405,6.4399C36.0815,39.187,34.269,41,32.041,41z"/>
	</g>
</g>
</svg>
