<?xml version="1.0" encoding="utf-8"?>
<!-- Generator: Adobe Illustrator 18.1.1, SVG Export Plug-In . SVG Version: 6.00 Build 0)  -->
<svg version="1.2" baseProfile="tiny" xmlns="http://www.w3.org/2000/svg" xmlns:xlink="http://www.w3.org/1999/xlink" x="0px"
	 y="0px" width="64px" height="64px" viewBox="0 0 64 64" xml:space="preserve">

<g id="Production">
	<g>
		<path fill="#ffffff" d="M61.6982,29.1719L34.8281,2.3018c-1.5107-1.5117-4.1455-1.5117-5.6562,0L2.3018,29.1719
			C1.5459,29.9272,1.1299,30.9316,1.1299,32s0.416,2.0728,1.1719,2.8281l26.8701,26.8701c0.7554,0.7559,1.7598,1.1719,2.8281,1.1719
			s2.0728-0.416,2.8281-1.1719l26.8701-26.8701c0.7559-0.7554,1.1719-1.7598,1.1719-2.8281S62.4541,29.9272,61.6982,29.1719z
			 M60.2842,33.4141L33.4141,60.2842c-0.7559,0.7559-2.0723,0.7559-2.8281,0L3.7158,33.4141
			C3.3379,33.0361,3.1299,32.5342,3.1299,32s0.208-1.0361,0.5859-1.4141L30.5859,3.7158C30.9639,3.3379,31.4658,3.1299,32,3.1299
			s1.0361,0.208,1.4141,0.5859l26.8701,26.8701c0.3779,0.3779,0.5859,0.8799,0.5859,1.4141S60.6621,33.0361,60.2842,33.4141z"/>
		<path fill="#ffffff" d="M26,21h15.5859l-6.9707,6.9707C29.7046,32.8813,27,39.4106,27,46.3555V51h2v-4.6445
			c0-6.4106,2.4966-12.4375,7.0293-16.9707L43,22.4141V38h2V19H26V21z"/>
	</g>
</g>
</svg>
