<?xml version="1.0" encoding="utf-8"?>
<!-- Generator: Adobe Illustrator 18.1.1, SVG Export Plug-In . SVG Version: 6.00 Build 0)  -->
<svg version="1.2" baseProfile="tiny" xmlns="http://www.w3.org/2000/svg" xmlns:xlink="http://www.w3.org/1999/xlink" x="0px"
	 y="0px" width="64px" height="64px" viewBox="0 0 64 64" xml:space="preserve">

<g id="Production">
	<g>
		<path fill="#ffffff" d="M32,6c-9.4491,0-17.0027,7.226-17.9053,16.1265c-0.6001,5.9238,1.7412,11.7505,6.2637,15.5859
			C22.6729,39.6748,24,42.4307,24,45.2725c0,0.1663,0,0.2936,0,0.3949c0,0.2256,0,0.3088,0,0.3136c0,0.7108,0,2.8521,0,8.5854
			L29.7231,58h4.5537L40,54.5664c0-10.5024,0-5.1956,0-9.2949c0-2.8501,1.3164-5.5957,3.6113-7.5337
			C47.6714,34.3091,50,29.3022,50,24C50,14.0747,41.9253,6,32,6z M38,53.4336L33.7231,56h-3.4463L26,53.4336V47h12V53.4336z
			 M42.3213,36.2095c-2.6733,2.2574-4.2249,5.4489-4.3059,8.7905h-12.031c-0.0818-3.3326-1.6428-6.5321-4.332-8.813
			c-4.0205-3.4097-6.1016-8.5903-5.5674-13.8589C16.8817,14.4687,23.5469,8,32,8c8.8223,0,16,7.1777,16,16
			C48,28.7119,45.9302,33.1621,42.3213,36.2095z"/>
		<path fill="#ffffff" d="M35.8784,24.25l-1.5449,0.6616L32.7886,24.25c-0.5005-0.2148-1.0752-0.2144-1.5767-0.0005l-1.5454,0.6621
			L28.1216,24.25c-0.5005-0.2148-1.0747-0.2148-1.5762,0l-2.9575,1.2671L29,35.2593V43h2v-8.2593l-4.5879-8.2578l0.9214-0.3945
			l1.5449,0.6616c0.5005,0.2148,1.0747,0.2148,1.5762,0L32,26.0879l1.5449,0.6621c0.502,0.2148,1.0757,0.2148,1.5767,0
			l1.5444-0.6621l0.9214,0.395L33,34.7407V43h2v-7.7407l5.4116-9.7422l-2.957-1.2671C36.9541,24.0352,36.3799,24.0352,35.8784,24.25
			z"/>
	</g>
</g>
</svg>
