<?xml version="1.0" encoding="utf-8"?>
<!-- Generator: Adobe Illustrator 18.1.1, SVG Export Plug-In . SVG Version: 6.00 Build 0)  -->
<svg version="1.2" baseProfile="tiny" xmlns="http://www.w3.org/2000/svg" xmlns:xlink="http://www.w3.org/1999/xlink" x="0px"
	 y="0px" width="128px" height="128px" viewBox="0 0 128 128" xml:space="preserve">
<g id="box">
	<rect fill="none" width="128" height="128"/>
</g>
<g id="Production">
	<g>
		<path fill="#ffffff" d="M72.9209,90.7577H30.7605V28.5226h42.1604v6.7532l7.6628-2.8035v-5.9906
			c0-6.2048-5.0261-11.2316-11.2265-11.2316h-35.034c-6.2045,0-11.2312,5.0268-11.2312,11.2316v75.0423
			c0,6.1985,5.0267,11.2259,11.2312,11.2259h35.034c6.2004,0,11.2265-5.0274,11.2265-11.2259V78.121l-7.6628,2.8032V90.7577z
			 M51.8418,107.5582c-3.1753,0-5.7537-2.5783-5.7537-5.7536c0-3.1848,2.5784-5.7588,5.7537-5.7588
			c3.1797,0,5.7588,2.574,5.7588,5.7588C57.6006,104.9799,55.0215,107.5582,51.8418,107.5582z"/>
		<path fill="#ffffff" d="M63.8445,79.1298c3.039-1.1117,36.268-13.2673,41.0635-15.0215
			c-1.5074-4.1212-9.6819-26.464-11.4285-31.2382c-16.0408,5.8678-8.9363,3.2687-41.061,15.0216L63.8445,79.1298z M97.9253,60.866
			c-30.2859,11.0791-22.6865,8.2995-30.8394,11.2811l-5.4521-14.9089c13.4719,3.8391,9.5049,2.7087,17.6142,5.0192
			c1.1084,0.3163,2.3382-0.1088,3.0049-1.1002l10.2176-15.2014L97.9253,60.866z M78.8376,56.4796
			c-7.2634-2.0697-5.3391-1.5215-19.1403-5.454c16.6645-6.0971,10.311-3.7727,30.2444-11.0648
			C87.6267,43.4045,81.1587,53.026,78.8376,56.4796z"/>
		<path fill="#ffffff" d="M36.0181,69.9567c4.6836,4.1045,12.6325,6.6325,21.2539,5.593l-2.7488-7.5532
			c-7.4658,2.677-13.7874,2.115-17.301,0.2241C36.1147,67.6297,35.0774,69.1274,36.0181,69.9567z"/>
		<path fill="#ffffff" d="M52.6936,62.9701l-2.9988-8.2385c-3.8095,4.1322-7.831,6.2392-13.146,7.4238
			c-1.0298,0.2324-1.1257,1.6648-0.1423,2.0344C42.0354,66.3172,47.4055,65.7987,52.6936,62.9701z"/>
	</g>
</g>
</svg>
