<?xml version="1.0" encoding="utf-8"?>
<!-- Generator: Adobe Illustrator 18.1.1, SVG Export Plug-In . SVG Version: 6.00 Build 0)  -->
<svg version="1.2" baseProfile="tiny" xmlns="http://www.w3.org/2000/svg" xmlns:xlink="http://www.w3.org/1999/xlink" x="0px"
	 y="0px" width="128px" height="128px" viewBox="0 0 128 128" xml:space="preserve">
<g id="_x31_28px_boxes">
	<rect fill="none" width="128" height="128"/>
</g>
<g id="Production">
	<g>
		<path fill="#ffffff" d="M45.6689,20.9402v29.3059h-7.6238v-5.7258c0-8.0975-12.2582-8.1098-12.2582,0v5.7258h-2.1865
			c-3.5336,0-6.3978,2.8644-6.3978,6.3977v50.3621c0,3.5334,2.8642,6.3977,6.3978,6.3977h28.4663
			c3.5333,0,6.3977-2.8643,6.3977-6.3977c0-9.6322,0-75.1359,0-86.0657C58.4644,12.4862,45.6689,12.4775,45.6689,20.9402z
			 M31.2409,95.482c0-3.6409,2.9517-6.5921,6.5928-6.5921c3.6407,0,6.5923,2.9512,6.5923,6.5921
			c0,3.6408-2.9516,6.5925-6.5923,6.5925C34.1926,102.0745,31.2409,99.1228,31.2409,95.482z M49.8801,78.0913H25.7869V73.293
			h24.0932V78.0913z M49.8801,68.2246H25.7869v-4.7983h24.0932V68.2246z"/>
		<path fill="#ffffff" d="M98.0019,20.9402v29.3059h-7.6242v-5.7258c0-8.0977-12.2579-8.1095-12.2579,0v5.7258h-2.187
			c-3.5333,0-6.3977,2.8644-6.3977,6.3977v50.3621c0,3.5334,2.8644,6.3977,6.3977,6.3977h28.4668
			c3.5334,0,6.3978-2.8643,6.3978-6.3977c0-9.6322,0-75.1359,0-86.0657C110.7974,12.4862,98.0019,12.4775,98.0019,20.9402z
			 M83.5739,95.482c0-3.6409,2.9517-6.5921,6.5929-6.5921c3.6405,0,6.5918,2.9512,6.5918,6.5921
			c0,3.6408-2.9513,6.5925-6.5918,6.5925C86.5256,102.0745,83.5739,99.1228,83.5739,95.482z M102.2131,78.0913H78.1198V73.293
			h24.0933V78.0913z M102.2131,68.2246H78.1198v-4.7983h24.0933V68.2246z"/>
	</g>
</g>
</svg>
