<?xml version="1.0" encoding="utf-8"?>
<!-- Generator: Adobe Illustrator 18.1.1, SVG Export Plug-In . SVG Version: 6.00 Build 0)  -->
<svg version="1.2" baseProfile="tiny" xmlns="http://www.w3.org/2000/svg" xmlns:xlink="http://www.w3.org/1999/xlink" x="0px"
	 y="0px" width="128px" height="128px" viewBox="0 0 128 128" xml:space="preserve">
<g id="box">
	<rect fill="none" width="128" height="128"/>
</g>
<g id="Production">
	<g>
		<path fill="#ffffff" d="M117.5881,52.0914c-1.4309-0.9557-25.3924-17.2239-25.3924-17.2239L74.2084,17.1282
			c-1.168-1.158-3.0761-1.1629-4.2507,0.0265L57.5869,29.7304c-1.1709,1.1758-1.147,3.0723,0.0288,4.2408
			c2.4735,2.4419,12.63,12.4264,17.7759,17.4985c1.2937,10.8861,0.5981,5.0382,2.7998,23.5416
			c0.1711,1.476,1.4411,2.7137,3.1806,2.6457c14.2888-1.0239,28.0694-10.4962,36.8596-21.1898
			C119.3691,55.0778,119.0192,53.0471,117.5881,52.0914z M83.801,71.344l-1.1206-9.4552
			c7.7284-2.8966,14.6157-6.7158,19.9321-12.7034l8.8169,5.9782C104.1691,63.0525,93.767,69.7487,83.801,71.344z"/>
		<path fill="#ffffff" d="M51.517,42.065c-1.1323,1.511-1.1274,3.3108-1.3132,5.2192c-0.1106,1.8721-0.2048,3.8264-0.5154,4.7253
			c-0.6191,2.1156-5.865,11.9176-11.0193,16.6839c-6.467,6.1011-15.4743,9.8336-20.5827,15.4983
			c-4.8238,5.3881-7.5396,10.4916-8.961,17.236c-0.1377,0.6192,0.1492,1.2625,0.7058,1.5879l14.7928,8.5251
			c0.8541,0.4945,1.9738,0.024,2.1899-0.9735c1.1062-5.5034,1.5376-10.942,5.1543-15.2262
			c3.388-4.1735,12.4263-7.7252,21.6958-16.4646c7.1641-6.8119,14.1348-19.1636,17.5132-25.6044L55.5388,37.8748
			C53.9941,39.4194,52.2592,41.1879,51.517,42.065z"/>
	</g>
</g>
</svg>
