<?xml version="1.0" encoding="utf-8"?>
<!-- Generator: Adobe Illustrator 18.1.1, SVG Export Plug-In . SVG Version: 6.00 Build 0)  -->
<svg version="1.2" baseProfile="tiny" xmlns="http://www.w3.org/2000/svg" xmlns:xlink="http://www.w3.org/1999/xlink" x="0px"
	 y="0px" width="64px" height="64px" viewBox="0 0 64 64" xml:space="preserve">

<g id="Production">
	<g>
		<path fill="#ffffff" d="M32,7C18.2148,7,7,18.2148,7,32s11.2148,25,25,25s25-11.2148,25-25S45.7852,7,32,7z M32,55
			C19.3179,55,9,44.6821,9,32S19.3179,9,32,9s23,10.3179,23,23S44.6821,55,32,55z"/>
		<rect x="30.6202" y="42.5386" fill="#ffffff" width="3.4443" height="4.3457"/>
		<path fill="#ffffff" d="M32.5832,16.9956c-4.8704,0-8.5752,2.7029-9.2045,8.0044h2.5712
			c0.5037-3.7053,2.9585-5.8315,6.5103-5.8315c3.1279,0,5.8623,2.2183,5.8623,5.5352c0,5.3015-6.0281,6.1286-7.1048,11.6846
			c-0.1641,0.8477-0.2324,1.9004-0.2051,3.1572h2.583c0.0273-1.2568,0.082-2.2207,0.1641-2.8906
			c0.5436-4.4391,7.1458-5.5854,7.1458-12.0742C40.9054,19.8739,37.1961,16.9956,32.5832,16.9956z"/>
	</g>
</g>
</svg>
