<?xml version="1.0" encoding="utf-8"?>
<!-- Generator: Adobe Illustrator 18.1.1, SVG Export Plug-In . SVG Version: 6.00 Build 0)  -->
<svg version="1.2" baseProfile="tiny" xmlns="http://www.w3.org/2000/svg" xmlns:xlink="http://www.w3.org/1999/xlink" x="0px"
	 y="0px" width="128px" height="128px" viewBox="0 0 128 128" xml:space="preserve">
<g id="_x31_28px_boxes">
	<rect fill="none" width="128" height="128"/>
</g>
<g id="Production">
	<g>
		<path fill="#ffffff" d="M84.393,46.9695L73.3288,19.7366c-0.2365-0.5821-0.802-0.9627-1.4302-0.9627H57.5988l0.8999,9.4084
			h-7.5516l0.9879-9.4084H36.7759c-0.6296,0-1.1961,0.3825-1.4316,0.9666l-24.814,61.5444
			c-0.4086,1.0126,0.3382,2.1209,1.4317,2.1209h33.1864l1.9814-18.8697h14.8461l0.6234,6.5183
			C56.4298,74.5723,52.258,81.208,52.258,88.8037c0,11.1843,9.0984,20.4224,20.4213,20.4224
			c11.7297,0,21.2193-9.9589,20.3629-21.8923c13.1049,1.6108,24.5403-8.6107,24.5409-21.6846
			C117.5831,48.5713,98.8503,38.1728,84.393,46.9695z M87.8225,88.8044c0,8.3498-6.7933,15.1429-15.1432,15.1429
			c-8.3498,0-15.1427-6.7932-15.1427-15.1436c0-8.3496,6.7929-15.1426,15.1427-15.1426
			C81.0292,73.6611,87.8225,80.4544,87.8225,88.8044z M48.3513,52.9034l1.8081-17.2191h9.0569l1.6469,17.2191H48.3513z
			 M87.9531,75.9453l1.0084-4.3157c2.9497,1.3378,9.0425,1.7013,9.0425-1.5793c0-1.8635-1.7481-2.9057-6.0844-2.9057
			c-1.1765,0-1.9833,0.0632-2.9245,0.1894l1.4454-11.1815h12.7065v4.6748h-8.5382l-0.3025,2.211
			c2.1453-0.2885,9.9164-0.1146,9.9164,6.6963C104.2227,76.4656,94.7858,78.5732,87.9531,75.9453z"/>
		<path fill="#ffffff" d="M73.1723,93.8898c2.1154-1.5531,6.4489-4.3544,6.4489-8.484c0-7.0076-9.5913-7.0315-13.9477-4.0027
			l1.4698,3.6362c3.6518-2.4787,7.0788-1.675,7.0788,0.789c-0.0385,2.3845-3.3792,4.8296-8.6986,9.2174v3.0721h14.4276v-4.1715
			h-6.7788V93.8898z"/>
	</g>
</g>
</svg>
