<?xml version="1.0" encoding="utf-8"?>
<!-- Generator: Adobe Illustrator 18.1.1, SVG Export Plug-In . SVG Version: 6.00 Build 0)  -->
<svg version="1.2" baseProfile="tiny" xmlns="http://www.w3.org/2000/svg" xmlns:xlink="http://www.w3.org/1999/xlink" x="0px"
	 y="0px" width="128px" height="128px" viewBox="0 0 128 128" xml:space="preserve">
<g id="box">
	<rect fill="none" width="128" height="128"/>
</g>
<g id="Production">
	<g>
		<path fill="#ffffff" d="M111.1896,57.7075h-0.0015c-1.2756-6.0442-6.3791-10.2898-12.2424-10.7409
			c-7.8353-1.1232-13.3104-0.0358-17.2984-4.3548c-0.6239-0.6798-1.7526-0.3865-1.9682,0.5069
			c-1.6192,7.063-0.9781,20.0945,8.3569,27.5893c3.8371,2.649,8.0596,4.0631,12.6597,3.0979
			C108.0402,72.252,112.7325,65.0529,111.1896,57.7075z M99.8519,69.8152c-5.906,1.2486-12.8533-3.1374-15.4902-11.4951
			c3.1582,5.6741,8.7493,8.828,13.887,7.7395c4.9263-1.0425,8.357-5.8763,7.385-11.0552
			C109.636,60.5967,106.4914,68.4102,99.8519,69.8152z"/>
		<path fill="#ffffff" d="M74.8455,67.5776c-1.7974-3.829-3.4278-8.5531-3.4286-14.3003c0-3.3132,0.54-6.9709,1.9267-11.0151
			c0.3325-0.9779-0.7006-1.8704-1.6176-1.3953c-0.0354,0.0184-7.7847,4.0149-16.169,10.3528
			c-9.9723,7.5723-20.6138,17.9515-20.6138,30.2032c0.0015,12.2216,9.9073,22.1289,22.1289,22.1301
			c12.2225-0.0012,22.1282-9.9085,22.1282-22.1301h0.0012C79.2008,74.9264,76.8645,71.8788,74.8455,67.5776z M57.0721,99.4746
			c-11.9818-0.0015-20.4158-11.48-17.5488-22.5478c0.7988-3.0552,2.447-6.2261,4.9292-9.4939
			c-1.5397,2.9436-2.3738,5.699-2.3738,9.2348c0.0013,9.9517,8.0984,18.0508,18.0506,18.0518
			c6.7988-0.0007,11.9062-3.5379,14.4619-8.9509C72.6395,93.6277,65.5262,99.4736,57.0721,99.4746z"/>
		<path fill="#ffffff" d="M60.1425,39.3828c3.8688-1.8794,7.0948-3.0951,8.2771-3.4575c1.0362-0.3183,1.0945-1.7703,0.0856-2.1692
			c-16.9121-6.7051-26.8969-9.3008-33.9387-9.3091c-11.3065-0.0133-19.2986,8.04-17.8947,17.7647
			c0.521,3.6027,2.2967,6.7143,4.8214,8.9555c5.0462,4.4795,12.3106,5.3316,19.2787,0.3981
			C44.6544,48.8164,49.5267,44.542,60.1425,39.3828z M20.7089,41.6282c-0.6263-4.3146,1.4051-8.474,4.9975-10.6797
			C19.5208,39.751,28.079,51.5558,38.3822,48.281C30.5216,54.0405,21.7858,49.0785,20.7089,41.6282z"/>
	</g>
</g>
</svg>

