<?xml version="1.0" encoding="utf-8"?>
<!-- Generator: Adobe Illustrator 17.1.0, SVG Export Plug-In . SVG Version: 6.00 Build 0)  -->
<!DOCTYPE svg [
	<!ENTITY ns_flows "http://ns.adobe.com/Flows/1.0/">
	<!ENTITY ns_extend "http://ns.adobe.com/Extensibility/1.0/">
	<!ENTITY ns_ai "http://ns.adobe.com/AdobeIllustrator/10.0/">
	<!ENTITY ns_graphs "http://ns.adobe.com/Graphs/1.0/">
]>
<svg version="1.2" baseProfile="tiny" xmlns:x="&ns_extend;" xmlns:i="&ns_ai;" xmlns:graph="&ns_graphs;"
	 xmlns="http://www.w3.org/2000/svg" xmlns:xlink="http://www.w3.org/1999/xlink" xmlns:a="http://ns.adobe.com/AdobeSVGViewerExtensions/3.0/"
	 x="0px" y="0px" width="128px" height="128px" viewBox="0 0 128 128" xml:space="preserve">
<g id="_x31_28px_boxes">
	<rect fill="none" width="128" height="128"/>
</g>
<g id="Production">
	<g>
		<path fill="#ffffff" d="M34.4897,37.4678c-2.438,16.0348,8.0769,24.7688,23.9375,24.7688h0.0003
			c21.8117,0,45.5407-17.0115,48.1252-32.0368c0.2368-1.3738-1.2643-2.3881-2.4514-1.6543
			c-0.0542,0.0337-5.5054,3.3528-12.9585,3.3528c-8.5127,0-13.2498-3.8669-17.7832-7.6172
			c-4.3875-3.63-8.9246-7.3833-16.9063-7.3833c-6.1193,0-11.4141,1.9942-15.696,6.7677
			c5.739,12.2015,23.342,18.4427,35.2837,19.6715c0.4637,0.048,0.4921,0.7168,0.0339,0.8036
			c-7.2962,1.3799-18.5713,0.3788-27.5644-4.7069C36.8769,32.8549,32.505,24.9526,30.9741,16.3818
			c-0.3328-1.8634-2.1123-3.1041-3.9775-2.7719c-1.8638,0.3327-3.105,2.1136-2.772,3.9776
			C24.9575,21.6909,27.3281,30.7573,34.4897,37.4678z"/>
		<path fill="#ffffff" d="M121.6333,74.0093c-2.0764-3.2332-6.3804-4.1709-9.6128-2.0946c-0.5713,0.3669-1.7315,1.112-3.3132,2.1278
			c-1.2566-4.3532-6.2533-6.3457-10.1519-4.1049l-5.165,2.9691c-1.4717-4.1279-6.2891-5.8489-10.0223-3.7036l-15.4367,8.8744
			l13.8637,0.4907c5.1907,0.1838,9.2498,4.5404,9.0662,9.7312c-0.1628,4.6001-3.6277,8.7839-9.3389,9.0815
			c-28.3728,1.4379-21.9863,2.1603-32.8733-2.1828c-2.7343-1.0909-4.6731-3.3216-5.4899-5.9275
			c14.8252,5.9145,14.2152,5.859,15.9277,5.7719c0.3701-0.0188,22.5588-1.1444,22.9289-1.1633
			c3.273-0.1661,5.7913-2.9537,5.6253-6.2264c-0.166-3.2732-2.9534-5.799-6.2266-5.6251l-0.0044,0.0001l-19.009-0.6728
			c-3.2893-2.2709-11.5579-7.9743-17.4124-11.9699c-7.4404-5.0781-15.8391-5.3426-24.9609-0.7852
			c-7.0915,3.5423-14.3789,7.5759-14.6855,7.7459C5.3149,76.361,5.29,76.3792,5.2629,76.3945l12.9505,29.0204
			c3.4733-1.5586,6.8772-3.084,8.0598-3.6078c1.2585-0.5578,3.4174-0.7563,5.1098-0.0586
			c2.4258,1.0005,21.4102,8.6402,30.0169,11.7464c4.6627,1.6827,10.2431,1.075,13.9104-1.4051
			c1.4048-0.95,27.2195-17.5451,44.2282-28.4677C122.7715,81.546,123.7092,77.2423,121.6333,74.0093z"/>
	</g>
</g>
</svg>
