<?xml version="1.0" encoding="utf-8"?>
<!-- Generator: Adobe Illustrator 18.1.1, SVG Export Plug-In . SVG Version: 6.00 Build 0)  -->
<svg version="1.2" baseProfile="tiny" xmlns="http://www.w3.org/2000/svg" xmlns:xlink="http://www.w3.org/1999/xlink" x="0px"
	 y="0px" width="128px" height="128px" viewBox="0 0 128 128" xml:space="preserve">
<g id="_x31_28px_boxes">
	<rect fill="none" width="128" height="128"/>
</g>
<g id="Production">
	<g>
		<path fill="#ffffff" d="M74.6694,16.4251l0.9165,7.5168c16.8852-2.8269,31.2805,11.6373,28.5056,28.4299l7.5186,0.9082
			C114.9825,31.5838,96.4877,12.9963,74.6694,16.4251z"/>
		<path fill="#ffffff" d="M76.3796,30.4566l0.92,7.5617c7.9752-1.8434,14.415,5.1504,12.7087,12.6431l7.562,0.917
			C99.9741,39.48,89.3491,28.855,76.3796,30.4566z"/>
		<path fill="#ffffff" d="M81.844,54.9812c3.1579-6.4587-2.3626-11.9961-8.833-8.833l-7.8308-7.8308
			c-1.6555-1.6557-4.3431-1.6569-5.9995,0L24.2222,73.2759c-9.9623,9.9609-11.7107,20.0452-0.6307,31.125
			c10.7075,10.707,20.7994,9.6951,31.1248-0.6309l34.9586-34.9585c1.6566-1.6567,1.6566-4.3427-0.0001-5.9995L81.844,54.9812z
			 M74.5452,72.1614c-1.8406,1.8408-4.8252,1.8408-6.6661,0c-1.8408-1.8408-1.8405-4.8252,0-6.666
			c1.8409-1.8409,4.8252-1.8409,6.6663,0C76.386,67.3362,76.386,70.3208,74.5452,72.1614z M55.8306,53.447
			c1.8408-1.8408,4.8254-1.8408,6.6665,0c1.8405,1.8408,1.8405,4.8252-0.0005,6.666c-1.8406,1.8409-4.8252,1.8409-6.666,0
			C53.99,58.2722,53.99,55.2878,55.8306,53.447z M51.4739,64.4702c1.8403,1.8406,1.8403,4.8255,0,6.666
			c-1.8409,1.8406-4.8257,1.8409-6.6663,0.0003c-1.8411-1.8408-1.8406-4.8257,0-6.6663
			C46.6482,62.6296,49.633,62.6294,51.4739,64.4702z M40.4504,75.4934c1.8409,1.8406,1.8409,4.8252,0,6.666
			c-1.8405,1.8409-4.8252,1.8409-6.666,0c-1.8406-1.8408-1.8406-4.8252,0-6.666C35.6252,73.6526,38.6099,73.6526,40.4504,75.4934z
			 M45.8328,94.2078c-1.8411-1.8408-1.8404-4.8252,0.0002-6.666c1.8406-1.8409,4.825-1.8409,6.666,0
			c1.8406,1.8408,1.8406,4.8252,0,6.666C50.6584,96.0486,47.6736,96.0486,45.8328,94.2078z M56.8559,83.1848
			c-1.841-1.8408-1.8405-4.8254,0.0003-6.666c1.8406-1.8408,4.8252-1.8411,6.666-0.0002c1.8406,1.8408,1.8406,4.8254,0,6.6662
			C61.6814,85.0254,58.6968,85.0256,56.8559,83.1848z"/>
	</g>
</g>
</svg>
