<?xml version="1.0" encoding="utf-8"?>
<!-- Generator: Adobe Illustrator 18.1.1, SVG Export Plug-In . SVG Version: 6.00 Build 0)  -->
<svg version="1.2" baseProfile="tiny" xmlns="http://www.w3.org/2000/svg" xmlns:xlink="http://www.w3.org/1999/xlink" x="0px"
	 y="0px" width="128px" height="128px" viewBox="0 0 128 128" xml:space="preserve">
<g id="box">
	<rect fill="none" width="128" height="128"/>
</g>
<g id="Production">
	<g>
		<path fill="#ffffff" d="M105.6978,71.5991c-4.0839-0.7011-8.4401,0.1031-12.1289,2.5655
			c4.3709,2.7509,11.9861,7.5009,12.9863,8.1264c3.2681,2.0386,4.2644,6.3404,2.2256,9.6084
			c-2.0387,3.2682-6.3406,4.2643-9.6084,2.2261c-1-0.6251-8.6232-5.381-12.9153-8.082
			c-1.0987,8.8171,4.9136,17.0267,13.7796,18.5478c9.1246,1.5642,17.7565-4.5151,19.3271-13.6665
			C120.9232,81.8291,114.7925,73.1597,105.6978,71.5991z"/>
		<path fill="#ffffff" d="M105.876,90.0864c1.0381-1.6635,0.5308-3.853-1.1328-4.8911c-0.0522-0.0322-12.8154-8.0171-13.9336-8.7231
			c-1.3684-0.8642-2.1873-1.4582-3.8261-2.0327c0.6516-0.3672,28.4252-27.5852,28.9692-28.1164
			c2.3301-2.2746,0.5989-6.2768-2.4805-6.2768H47.5528c-2.0228,0-3.9818,2.0667-3.4922,4.4143l3.6069,17.3877v0.0088
			L25.6602,41.0998c-0.6582-0.6176-1.5102-1.0535-2.4128-1.0535h-11.303c-1.9609,0-3.5505,1.664-3.5505,3.625
			c0,1.9609,1.5896,3.625,3.5505,3.625h9.8979l23.2188,21.8039c0.8789,3.8476,3.8574,16.8705,4.8516,20.9076
			c1.1712,4.7584,5.3587,7.9502,9.956,7.9502c2.9468,0,5.834-1.3144,8.0498-3.7446c1.917-2.1021,9.4776-10.3457,10.9431-11.9814
			c1.7117-1.9107,4.9612-1.8218,6.9226-0.5674c2.9778,1.9056,14.2004,8.9305,15.2007,9.5542
			C102.6483,92.2569,104.8384,91.7505,105.876,90.0864z M73.5728,77.5513c-1.1416,1.2744-8.9658,9.7558-10.9014,11.8794
			c-2.4064,2.6392-5.2883,1.228-5.8637-1.1113c-0.9282-3.7701-3.7129-15.9231-4.7075-20.272
			c23.3571,4.8828,19.1727,4.0082,28.0483,5.8633C77.5694,74.3941,75.2715,75.6558,73.5728,77.5513z"/>
		<path fill="#ffffff" d="M100.855,29.5294c-3.8217-0.5361-4.8342-1.8839-7.1757-3.936c-1.9395-1.7002-4.8489-2.953-7.7564-2.2124
			c-2.5635,0.653-4.6211,2.6157-7.0308,3.6542c-2.4091,1.0382-5.4296-1.7003-8.0483-1.7003c-4.7515,0-5.3052,4.2048-9.5029,4.2048
			c-5.8184,0-7.6475,6.7566-7.6475,6.7566h52.3467C106.0401,36.2963,106.2576,30.2873,100.855,29.5294z"/>
	</g>
</g>
</svg>
