<?xml version="1.0" encoding="utf-8"?>
<!-- Generator: Adobe Illustrator 18.1.1, SVG Export Plug-In . SVG Version: 6.00 Build 0)  -->
<svg version="1.2" baseProfile="tiny" xmlns="http://www.w3.org/2000/svg" xmlns:xlink="http://www.w3.org/1999/xlink" x="0px"
	 y="0px" width="128px" height="128px" viewBox="0 0 128 128" xml:space="preserve">
<g id="_x31_28px_boxes">
	<rect fill="none" width="128" height="128"/>
</g>
<g id="Production">
	<g>
		<path fill="#ffffff" d="M105.5024,91.0916h-7.2575c5.4077-14.7638,4.1421-11.3082,6.2197-16.9816
			c0.342,0.0441,0.6841,0.066,1.0239,0.066c3.2979,0,6.3951-2.0366,7.5884-5.3154c1.5254-4.1905-0.6352-8.8243-4.8262-10.3496
			L38.5186,33.1303l3.0966-8.5081c2.1082-5.7929-2.4707-12.2355-8.7849-12.2355c-15.185,0-17.4387,26.3058-18.0288,31.6703
			c-1.9934,18.1154,4.513,28.1908,4.812,28.7636c0.9468,1.8124,3.9024,1.528,4.6577-0.5462l8.7237-23.9685L97.9473,71.947
			c-1.7805,4.8614-0.4048,1.1049-7.0115,19.1446h-8.2397l-6.6456-22.2255L56.5271,61.76l-16.1025,53.8533h14.749l10.053-33.6204
			l10.0525,33.6204h38.2983v-16.447C113.5774,94.7065,109.9622,91.0916,105.5024,91.0916z M65.5828,55.4938
			c-2.2298,0-4.0376-1.8074-4.0376-4.0371c0-2.2299,1.8078-4.0373,4.0376-4.0373c2.23,0,4.0376,1.8074,4.0376,4.0373
			C69.6204,53.6864,67.8128,55.4938,65.5828,55.4938z"/>
		<path fill="#ffffff" d="M21.8333,76.7744c-1.0035,0-1.8169,0.8135-1.8169,1.8169v37.022h3.6338v-37.022
			C23.6502,77.5879,22.8367,76.7744,21.8333,76.7744z"/>
	</g>
</g>
</svg>
