<?xml version="1.0" encoding="utf-8"?>
<!-- Generator: Adobe Illustrator 18.1.1, SVG Export Plug-In . SVG Version: 6.00 Build 0)  -->
<svg version="1.2" baseProfile="tiny" xmlns="http://www.w3.org/2000/svg" xmlns:xlink="http://www.w3.org/1999/xlink" x="0px"
	 y="0px" width="64px" height="64px" viewBox="0 0 64 64" xml:space="preserve">

<g id="Production">
	<g>
		<path fill="#ffffff" d="M32.5709,35.0576C30.6847,34.6938,29,36.1438,29,38c0,1.6569,1.3431,3,3,3s2.99-1.3431,2.99-3
			c0-0.7339-0.2639-1.3973-0.7014-1.9186l8.5732-14.5745l-1.7236-1.0137L32.5709,35.0576z"/>
		<path fill="#ffffff" d="M32,9C18.2148,9,7.01,20.2148,7.01,34c0,7.7908,3.2536,14.8734,10.6829,20.5239L22.5015,48h18.9971
			l4.8086,6.5239C53.7138,48.8906,56.99,41.8194,56.99,34C56.99,20.2148,45.7852,9,32,9z M46.6997,51.686L42.5093,46H21.4907
			l-4.1904,5.686C12.0122,47.2974,9.01,40.9072,9.01,34c0-12.6821,10.3079-23,22.99-23s22.99,10.3179,22.99,23
			C54.99,40.9072,51.9878,47.2974,46.6997,51.686z"/>
	</g>
</g>
</svg>
