<?xml version="1.0" encoding="utf-8"?>
<!-- Generator: Adobe Illustrator 17.1.0, SVG Export Plug-In . SVG Version: 6.00 Build 0)  -->
<!DOCTYPE svg [
	<!ENTITY ns_flows "http://ns.adobe.com/Flows/1.0/">
	<!ENTITY ns_extend "http://ns.adobe.com/Extensibility/1.0/">
	<!ENTITY ns_ai "http://ns.adobe.com/AdobeIllustrator/10.0/">
	<!ENTITY ns_graphs "http://ns.adobe.com/Graphs/1.0/">
]>
<svg version="1.2" baseProfile="tiny" xmlns:x="&ns_extend;" xmlns:i="&ns_ai;" xmlns:graph="&ns_graphs;"
	 xmlns="http://www.w3.org/2000/svg" xmlns:xlink="http://www.w3.org/1999/xlink" xmlns:a="http://ns.adobe.com/AdobeSVGViewerExtensions/3.0/"
	 x="0px" y="0px" width="128px" height="128px" viewBox="0 0 128 128" xml:space="preserve">
<g id="_x31_28px_boxes">
	<rect fill="none" width="128" height="128"/>
</g>
<g id="Production">
	<g>
		<path fill="#ffffff" d="M52.2244,19.6255c-3.274,0-5.9297,0.7868-5.9297,1.7587c0,0.1744,0.0888,0.3465,0.2483,0.5118
			c0.7285,0.7544,2.9956,1.3623,5.6814,1.3623c2.687,0,4.9536-0.6079,5.6823-1.3623c0.1595-0.1653,0.2483-0.3374,0.2483-0.5118
			C58.155,20.4123,55.4998,19.6255,52.2244,19.6255z"/>
		<path fill="#ffffff" d="M97.9514,48.6504c0-1.4559-0.7373-2.8506-2.082-4.1409V25.895c1.3462-1.1848,2.082-2.4646,2.082-3.801
			c0-6.0749-15.2004-10.012-33.9512-10.012c-18.75,0-33.9516,3.9371-33.9516,10.012c0,1.3364,0.7361,2.6162,2.0825,3.801v18.6145
			c-1.3459,1.2903-2.0825,2.685-2.0825,4.1409c0,1.4561,0.7361,2.8516,2.0825,4.1426v18.7592
			c-1.3459,1.3635-2.0825,2.8364-2.0825,4.3743c0,1.5386,0.7361,3.013,2.0825,4.3772v17.5857
			c-1.3418,1.4417-2.0825,2.9973-2.0825,4.623c0,7.4036,15.2016,13.4056,33.9516,13.4056c18.7508,0,33.9512-6.002,33.9512-13.4056
			c0-1.6257-0.7405-3.1818-2.082-4.623V80.3037c1.3462-1.3642,2.082-2.8382,2.082-4.3772c0-1.5379-0.7373-3.0108-2.082-4.3743
			v-18.759C97.2156,51.502,97.9514,50.1067,97.9514,48.6504z M64.0083,90.3899H64.002
			c-9.3143-0.0022-16.0889-8.0268-15.3265-16.9588c0.7842-9.295,7.4168-12.9217,14.115-27.0126l0.0027-0.0062
			c0.4485-0.9477,1.8919-0.9731,2.3914-0.0613l0.0302,0.0588c7.4568,15.1063,13.3614,18.0409,14.1189,27.0219
			C80.0925,82.326,73.3572,90.3877,64.0083,90.3899z M88.9546,21.896c-1.5156,2.4653-12.1096,4.6196-24.9544,4.6196
			c-12.8452,0-23.4394-2.1543-24.955-4.6196c-0.1231-0.1997-0.1873-0.4014-0.1873-0.6043c0-2.7063,11.2571-4.8999,25.1423-4.8999
			c13.8858,0,25.1416,2.1936,25.1416,4.8999C89.1418,21.4946,89.0771,21.6963,88.9546,21.896z"/>
	</g>
</g>
</svg>
