<?xml version="1.0" encoding="utf-8"?>
<!-- Generator: Adobe Illustrator 19.1.0, SVG Export Plug-In . SVG Version: 6.00 Build 0)  -->
<svg version="1.2" baseProfile="tiny" xmlns="http://www.w3.org/2000/svg" xmlns:xlink="http://www.w3.org/1999/xlink" x="0px"
	 y="0px" width="64px" height="64px" viewBox="0 0 64 64" xml:space="preserve">
<g id="box">
	<rect fill="none" width="64" height="64"/>
</g>
<g id="Production">
	<g>
		<path fill="#ffffff" d="M62.751,39.3931l-4.1694-12.5068c-1.3018-3.9067-4.6187-6.8345-8.6567-7.6411l-24.833-4.9614
			c-5.3244-1.0631-10.7172,0.9727-14.0575,5.0494c-0.5193-0.262-0.975-0.4907-1.2892-0.6461
			c-1.1479-0.5664-2.3247-0.5396-3.2305,0.0762c-0.9365,0.6372-1.4067,1.8047-1.2905,3.2041
			c0.0986,1.1821-0.0815,2.2783-0.5078,3.0874c-0.1909,0.3628-0.7739,1.5542-1.4453,2.9277
			c-0.5488,1.1226-1.1577,2.3677-1.6577,3.375c-0.6825,1.3733-0.1898,3.0283,1.0776,3.8425
			c-1.0445,2.0879-0.8608,4.2307,0.2047,5.9549C3.9966,42.9365,5.9048,44,7.999,44h3.751l2.9683,3.562l2.5-3l2.5,3l2.5-3l2.5,3
			l2.5-3l2.5,3l2.5-3l2.5,3l2.5-3l2.5,3l2.5-3l2.5,3l2.5-3l2.5,3l2.5-3l2.5,3L57.6865,44l1.8024-0.0037
			C61.884,43.9555,63.4896,41.609,62.751,39.3931z M59.4307,42.0005C59.3578,42.0005,56.75,42,56.75,42l-2.0317,2.438l-2.5-3l-2.5,3
			l-2.5-3l-2.5,3l-2.5-3l-2.5,3l-2.5-3l-2.5,3l-2.5-3l-2.5,3l-2.5-3l-2.5,3l-2.5-3l-2.5,3l-1.755-2.106l-0.745-0.894l-2.5,3
			L12.6865,42H7.999c-1.3965,0-2.668-0.709-3.4023-1.8965c-0.7339-1.188-0.7998-2.6431-0.1753-3.8926l0.9322-1.8644l-1.5059-0.7684
			c-0.4371-0.2233-0.697-0.8199-0.4434-1.3306c0.502-1.0112,1.1128-2.2607,1.6636-3.3862c0.6592-1.3491,1.231-2.519,1.4185-2.8755
			c0.7705-1.4629,0.8228-3.083,0.731-4.1846C7.105,20.4589,7.8193,19.9651,8.8584,20.48c0.6914,0.3418,2.1078,1.0595,2.7928,1.407
			c0.354-0.5668,0.7485-1.1027,1.2112-1.6283c2.8963-3.2903,7.397-4.9026,11.8378-4.0136l24.833,4.9614
			c3.3354,0.666,6.0757,3.085,7.1509,6.312l4.1694,12.5068C61.1779,40.9979,60.4513,42.0005,59.4307,42.0005z"/>
		<path fill="#ffffff" d="M48.9453,24.1479l-24.833-4.9614c-3.1121-0.6232-6.2638,0.3713-8.462,2.4912
			c-0.7216,0.6959-1.4062,1.5967-1.8959,2.5767L7.1319,37.4988C6.7366,38.2902,7.3058,39,7.999,39h49.3505l-3.5112-10.5327
			C53.1025,26.2588,51.2275,24.604,48.9453,24.1479z M9.6172,37l5.9258-11.8516c1.5083-3.0161,4.8696-4.6626,8.1777-4.0005
			l24.833,4.9614c1.5801,0.3154,2.8774,1.4614,3.3872,2.9902L54.5746,37H9.6172z"/>
	</g>
</g>
</svg>

