<?xml version="1.0" encoding="utf-8"?>
<!-- Generator: Adobe Illustrator 17.1.0, SVG Export Plug-In . SVG Version: 6.00 Build 0)  -->
<!DOCTYPE svg [
	<!ENTITY ns_flows "http://ns.adobe.com/Flows/1.0/">
	<!ENTITY ns_extend "http://ns.adobe.com/Extensibility/1.0/">
	<!ENTITY ns_ai "http://ns.adobe.com/AdobeIllustrator/10.0/">
	<!ENTITY ns_graphs "http://ns.adobe.com/Graphs/1.0/">
]>
<svg version="1.2" baseProfile="tiny" xmlns:x="&ns_extend;" xmlns:i="&ns_ai;" xmlns:graph="&ns_graphs;"
	 xmlns="http://www.w3.org/2000/svg" xmlns:xlink="http://www.w3.org/1999/xlink" xmlns:a="http://ns.adobe.com/AdobeSVGViewerExtensions/3.0/"
	 x="0px" y="0px" width="128px" height="128px" viewBox="0 0 128 128" xml:space="preserve">
<g id="_x31_28px_boxes">
	<rect fill="none" width="128" height="128"/>
</g>
<g id="Production">
	<g>
		<path fill="#ffffff" d="M50.6507,64.0452c-1.8398,0.4566-2.1853,2.0727-1.7965,4.0718c2.2246,1.5127,7.801,5.2119,12.9735,7.8994
			C57.269,68.8695,55.2509,62.9036,50.6507,64.0452z"/>
		<path fill="#ffffff" d="M64.0388,99.5521h23.3523c0.0014,0,0.0036-0.0288,0.0058-0.0366
			c1.6772-6.2764,6.1905-23.6443,7.5973-28.7098c1.287-4.6328-1.1258-8.7268-6.7533-4.5055
			c-5.2751,3.956-8.4666,16.5124-14.6811,16.4484c-2.5698-0.0268-5.4138-0.7894-8.3632-1.9841
			c-0.0033-0.0039-0.0061-0.0081-0.0094-0.0119c-0.0431-0.0127-0.0866-0.0213-0.1293-0.0384
			c-6.3607-2.5224-15.0397-8.2888-17.9143-10.2517c-4.6555-3.0156-8.5778-5.4986-10.8718-5.874
			c-4.6908-0.7676-6.7684,2.4089-5.0475,4.8186c1.968,2.7553,13.1848,10.9038,21.2798,18.5717
			C58.5573,93.7132,61.7644,97.3021,64.0388,99.5521z"/>
		<path fill="#ffffff" d="M66.5006,78.2367c0.0948,0.0761,0.1773,0.1635,0.2491,0.2592c0.9087,0.3828,4.5952,1.7862,8.3023,1.0811
			c0,0-0.584-15.2681-5.566-15.5318C63.6923,63.7391,66.1676,76.6204,66.5006,78.2367z"/>
		<polygon fill="#ffffff" points="53.5003,104.8021 57.228,120.8021 99.7468,120.8021 96.0185,104.8021 		"/>
		<path fill="#ffffff" d="M44.9765,53.9208c8.5116,4.0034,17.3625,6.1191,25.5963,6.1191c9.8733,0,18.0613-3.0763,23.0553-8.6621
			c3.9328-4.3999,5.0588-11.8224,3.1816-19.1592c6.5957-7.5465,8.086-17.0025,8.4148-21.2481
			c0.1492-1.9282-1.2928-3.6122-3.2209-3.7616c-1.9276-0.1519-3.6125,1.2929-3.7618,3.2206
			c-0.2128,2.7486-1.0094,8.1826-3.9481,13.3032c-0.1801,1.0001-10.9948,19.5611-36.8993,19.5611
			c-1.3599,0-2.1411-0.0669-2.1737-0.0698c-0.4749-0.0419-0.514-0.7244-0.047-0.8204c0.0694-0.0141,7.0335-1.4633,14.6695-5.1171
			c8.1615-3.9053,16.1791-9.9351,19.1952-18.4614c-3.732-3.4063-8.3905-5.4073-13.781-5.4205
			c-10.0337,0-14.7411,4.7578-19.2936,9.3588c-3.7285,3.7687-7.2501,7.3277-13.7889,8.944
			c-6.8656,1.6957-13.8341,0.0664-17.0239-1.4878c-1.2827-0.6255-2.7032,0.5587-2.3236,1.9306
			C22.9751,32.6829,26.6533,45.3045,44.9765,53.9208z"/>
	</g>
</g>
</svg>
