<?xml version="1.0" encoding="utf-8"?>
<!-- Generator: Adobe Illustrator 18.1.1, SVG Export Plug-In . SVG Version: 6.00 Build 0)  -->
<svg version="1.2" baseProfile="tiny" xmlns="http://www.w3.org/2000/svg" xmlns:xlink="http://www.w3.org/1999/xlink" x="0px"
	 y="0px" width="128px" height="128px" viewBox="0 0 128 128" xml:space="preserve">
<g id="box">
	<rect fill="none" width="128" height="128"/>
</g>
<g id="Production">
	<g>
		<path fill="#ffffff" d="M108.5295,79.7921c-1.1794,1.7844-2.861,3.2035-4.8806,4.0387L52.655,104.9757h49.576
			c3.4934,0,6.3273-2.8563,6.3266-6.3478C108.5576,98.152,108.5659,80.237,108.5295,79.7921z"/>
		<path fill="#ffffff" d="M101.9282,79.6471c3.2278-1.335,4.7622-5.0361,3.4256-8.2617c-0.2143-0.5167-7.028-17.0133-7.2952-17.5047
			c-0.3884,2.1529-1.4177,4.1346-2.9976,5.7127L55.9575,98.6705L101.9282,79.6471z"/>
		<path fill="#ffffff" d="M56.9756,91.2911l34.9045-34.8808c2.4715-2.4685,2.4727-6.4754,0.0032-8.9436
			c-0.2192-0.2191-12.9752-12.9775-13.2058-13.1826c0.4018,2.0656,0.1914,4.2038-0.6331,6.1914L56.9756,91.2911z"/>
		<path fill="#ffffff" d="M44.0813,23.0243L25.791,23.0294c-3.4917,0.0005-6.3257,2.8313-6.3264,6.3228l-0.0222,69.1097
			c-0.002,3.4932,2.8296,6.5138,6.3222,6.5138h18.2896c3.4917,0,6.3259-3.0214,6.3257-6.5138l0.0234-69.098
			C50.4053,25.8707,47.573,23.0236,44.0813,23.0243z M38.5354,97.7142c-2.583,0.0052-4.6785-2.0849-4.6824-4.6674
			c-0.0039-2.5813,2.0847-4.6773,4.668-4.6827c2.583-0.0034,4.6777,2.0884,4.6807,4.6692
			C43.2058,95.6166,41.1172,97.7101,38.5354,97.7142z"/>
		<path fill="#ffffff" d="M54.8845,84.5851l19.003-45.8333c1.3386-3.2265-0.1937-6.9287-3.4197-8.2641
			c-0.4348-0.18-16.9571-7.0348-17.4016-7.1768c1.1955,1.772,1.8383,3.8577,1.8371,6.0415L54.8845,84.5851z"/>
	</g>
</g>
</svg>
