<?xml version="1.0" encoding="utf-8"?>
<!-- Generator: Adobe Illustrator 18.1.1, SVG Export Plug-In . SVG Version: 6.00 Build 0)  -->
<svg version="1.2" baseProfile="tiny" xmlns="http://www.w3.org/2000/svg" xmlns:xlink="http://www.w3.org/1999/xlink" x="0px"
	 y="0px" width="64px" height="64px" viewBox="0 0 64 64" xml:space="preserve">

<g id="Production">
	<g>
		<path fill="#ffffff" d="M42,2H22c-4.4111,0-8,3.5889-8,8v44c0,4.4111,3.5889,8,8,8h20c4.4111,0,8-3.5889,8-8V10
			C50,5.5889,46.4111,2,42,2z M48,54c0,3.3086-2.6914,6-6,6H22c-3.3086,0-6-2.6914-6-6V10c0-3.3086,2.6914-6,6-6h20
			c3.3086,0,6,2.6914,6,6V54z"/>
		<path fill="#ffffff" d="M32,8c-3.8599,0-7,3.1401-7,7s3.1401,7,7,7s6.99-3.1401,6.99-7S35.8599,8,32,8z M32,20
			c-2.7568,0-5-2.2432-5-5s2.2432-5,5-5s4.99,2.2432,4.99,5S34.7568,20,32,20z"/>
		<path fill="#ffffff" d="M32,25c-3.8599,0-7,3.1401-7,7s3.1401,7,7,7s6.99-3.1401,6.99-7S35.8599,25,32,25z M32,37
			c-2.7568,0-5-2.2432-5-5s2.2432-5,5-5s4.99,2.2432,4.99,5S34.7568,37,32,37z"/>
		<path fill="#ffffff" d="M32,42c-3.8599,0-7,3.1401-7,7s3.1401,7,7,7s6.99-3.1401,6.99-7S35.8599,42,32,42z M32,54
			c-2.7568,0-5-2.2432-5-5s2.2432-5,5-5s4.99,2.2432,4.99,5S34.7568,54,32,54z"/>
	</g>
</g>
</svg>
