<?xml version="1.0" encoding="utf-8"?>

<svg version="1.2" baseProfile="tiny" xmlns="http://www.w3.org/2000/svg" xmlns:xlink="http://www.w3.org/1999/xlink" x="0px"
	 y="0px" width="128px" height="128px" viewBox="0 0 128 128" xml:space="preserve">
<g id="_x31_28px_boxes">
	<rect fill="none" width="128" height="128"/>
</g>
<g id="Production">
	<g>
		<path fill="#ffffff" d="M28.248,49.834c2.5173,0.4777,4.9343-0.1001,6.8759-1.4494l19.9083,9.3686
			c0.0266,0.3328,0.0707,0.6664,0.1338,0.9992c1.3982,7.3721,10.9077,9.8532,15.7681,3.9854
			c1.7168-2.0728,2.4092-4.8027,1.8999-7.4902c-0.0193-0.1017-0.0576-0.1962-0.0803-0.2967l21.6565-20.344
			c6.5632,1.94,12.6876-3.6899,11.4238-10.3593c-0.6753-3.5606-3.521-6.4063-7.082-7.0816
			c-6.272-1.1897-11.7935,4.2141-10.586,10.5864c0.0193,0.1017,0.0576,0.1962,0.0803,0.2966L66.5898,48.3931
			c-2.779-0.8214-5.5631-0.2729-7.7209,1.219l-19.9011-9.3654c-0.333-4.1649-3.4377-7.3642-7.2158-8.0807
			c-6.3034-1.1973-11.7874,4.2464-10.586,10.5864C21.8413,46.313,24.687,49.1587,28.248,49.834z"/>
		<path fill="#ffffff" d="M108.5,106H19.5056C17.5702,106,16,107.5643,16,109.5c0,1.9354,1.5702,3.5,3.5056,3.5H108.5
			c1.9299,0,3.5-1.5646,3.5-3.5C112,107.5643,110.4299,106,108.5,106z"/>
		<path fill="#ffffff" d="M103,55H85c-1.6569,0-3,1.3431-3,3v44h24V58C106,56.3431,104.6569,55,103,55z"/>
		<path fill="#ffffff" d="M55,79c-1.6569,0-3,1.3431-3,3v20h24V82c0-1.6569-1.3431-3-3-3H55z"/>
		<path fill="#ffffff" d="M25,67c-1.6569,0-3,1.3431-3,3v32h24V70c0-1.6569-1.3431-3-3-3H25z"/>
	</g>
</g>
</svg>
