<?xml version="1.0" encoding="utf-8"?>
<!-- Generator: Adobe Illustrator 18.1.1, SVG Export Plug-In . SVG Version: 6.00 Build 0)  -->
<svg version="1.2" baseProfile="tiny" xmlns="http://www.w3.org/2000/svg" xmlns:xlink="http://www.w3.org/1999/xlink" x="0px"
	 y="0px" width="128px" height="128px" viewBox="0 0 128 128" xml:space="preserve">
<g id="box">
	<rect fill="none" width="128" height="128"/>
</g>
<g id="Production">
	<g>
		<path fill="#ffffff" d="M52.1066,30.5702l6.0061,10.3955c2.1235-1.0523,4.2486-1.9748,6.457-2.7156l3.446-7.6799
			c1.0001,0,1.8414-0.0698,2.6248,0.6182c0.4063,0.3642,0.5693,0.7397,0.5725,1.133h4.5686
			c0.0064-3.4431-3.0321-6.3172-6.9106-6.3198H51.736c-3.8642,0.0026-6.9153,2.8635-6.9107,6.3198h4.5694
			C49.4013,31.5044,50.1621,30.5702,52.1066,30.5702z M63.0082,30.5702l-2.459,5.4797l-3.1658-5.4797H63.0082z"/>
		<path fill="#ffffff" d="M91.4489,42.1156l0.0002,0.0001c0.0066,0.0016,0.0127,0.0029,0.0193,0.0045L91.4489,42.1156z"/>
		<rect x="7.5267" y="96.2218" fill="#ffffff" width="112.9466" height="5.7766"/>
		<path fill="#ffffff" d="M112.3373,80.4056h-0.0005l0.0012-0.038v-0.0499c-0.055-8.1588-0.0027-9.5867-0.0027-16.1577
			c-0.0023-4.4681-0.8568-8.7498-4.3344-11.5398c-3.348-2.7091-7.7044-2.9444-9.8538-3.2263
			c-5.4689-6.841-5.4673-6.9551-6.698-7.2782c-5.3159-1.3271-9.8589-1.9049-13.8774-1.9049
			c-10.0563-0.0103-16.3993,3.6297-22.9195,7.1643c-9.4629,5.1436-17.2961,10.3716-28.6487,15.4214
			C18.726,66.0353,12.516,68.5966,7.5267,70.556v6.0674c13.9923-3.9262,24.2613-8.4457,34.6084-12.2212v12.9583
			c-11.3539,1.9012-22.3867,3.962-34.6084,5.6023v8.0656H103.09C108.6976,91.0284,112.3299,86.0699,112.3373,80.4056z
			 M69.6969,51.0101c0.7179-1.4896,2.0257-3.9638,2.7678-5.3415c0,0,9.034-1.9251,18.1538,0.8476
			c-0.0522,0.0572,2.1629,2.6643,2.1629,2.6643C86.546,48.8464,76.9493,49.3584,69.6969,51.0101z M96.3307,59.0929
			c0.2453-1.9565,1.9119-3.4683,3.9338-3.4683c2.1895,0,3.9671,1.773,3.9678,3.9651c-0.0012,2.1981-1.7886,3.9703-3.9678,3.971
			C97.8928,63.5596,96.0263,61.4812,96.3307,59.0929z M100.2648,73.1415c-1.2659,0-2.292-1.0266-2.292-2.2952
			c0-1.2619,1.0261-2.2883,2.292-2.2883c1.284,0,2.2912,1.0516,2.2912,2.2883C102.556,72.0963,101.542,73.1415,100.2648,73.1415z"/>
	</g>
</g>
</svg>
