<?xml version="1.0" encoding="utf-8"?>

<svg version="1.2" baseProfile="tiny" xmlns="http://www.w3.org/2000/svg" xmlns:xlink="http://www.w3.org/1999/xlink" x="0px"
	 y="0px" width="64px" height="64px" viewBox="0 0 64 64" xml:space="preserve">

<g id="Production">
	<g>
		<path fill="#ffffff" d="M1.407,45.393L1.0647,50h4.6414c0.3232-4-0.5167-9.2066,8.5378-9.0463
			c0.3589-1.7988,1.0361-3.3975,1.9834-4.8081C8.8091,35.3465,2.0583,37.9818,1.407,45.393z"/>
		<path fill="#ffffff" d="M62.563,45.3575c-0.655-7.4412-7.5115-10.0001-14.8055-9.2155c0.9489,1.4131,1.6241,3.0139,1.9757,4.8113
			C58.8708,40.7894,57.9547,46,58.2666,50h4.6411L62.563,45.3575z"/>
		<path fill="#ffffff" d="M31.9836,33.0126c-8.5188,0-13.752,3.5919-14.3628,9.8838L17.0388,50h4.674l0.5469-6.7431
			c0.3429-3.5361,3.8136-5.3322,9.724-5.3322c5.9108,0,9.3821,1.798,9.7214,5.296L42.2549,50h4.6744l-0.5854-7.1425
			C45.7363,36.6031,40.5029,33.0126,31.9836,33.0126z"/>
		<path fill="#ffffff" d="M21.0005,25.1304c0-10.8406-16.0005-10.8406-16.0005,0C5,36.9565,21.0005,36.9565,21.0005,25.1304z
			 M16.1498,25.1304c0,5.913-6.3,5.913-6.3,0C9.8497,21.1884,16.1498,21.1884,16.1498,25.1304z"/>
		<path fill="#ffffff" d="M58.0005,25.1304c0-10.8406-16.0005-10.8406-16.0005,0C42,36.9565,58.0005,36.9565,58.0005,25.1304z
			 M49.9709,22.1437c1.5234,0,3.1504,0.0303,3.1504,2.9868c0,5.913-6.3009,5.913-6.3009,0
			C46.8204,23.1594,48.4485,22.1437,49.9709,22.1437z"/>
		<path fill="#ffffff" d="M40.0005,21.2958c0-3.9812-3.7336-8.2958-8.5002-8.2958C26.7334,13,23,17.3146,23,21.2958
			C23,34.2347,40.0005,34.2347,40.0005,21.2958z M35.175,21.2958c0,6.9671-7.3499,6.9671-7.3499,0
			C27.8252,17.3146,35.175,17.3146,35.175,21.2958z"/>
	</g>
</g>
</svg>
