<?xml version="1.0" encoding="utf-8"?>
<!-- Generator: Adobe Illustrator 18.1.1, SVG Export Plug-In . SVG Version: 6.00 Build 0)  -->
<svg version="1.2" baseProfile="tiny" xmlns="http://www.w3.org/2000/svg" xmlns:xlink="http://www.w3.org/1999/xlink" x="0px"
	 y="0px" width="128px" height="128px" viewBox="0 0 128 128" xml:space="preserve">
<g id="_x31_28px_boxes">
	<rect fill="none" width="128" height="128"/>
</g>
<g id="Production">
	<g>
		<path fill="#ffffff" d="M48.5054,43.449c1.6098,0.0873,5.4447,0.5193,9.2221,2.594
			C43.4021,47.2468,37.356,58.4964,36.2616,64.4772h4.9012c1.7661-7.4117,10.1839-15.3848,22.302-13.4598
			c0.806,1.0625,1.4614,2.2112,1.9792,3.6227c-7.9962-1.2695-16.1307,3.3898-17.3111,9.8371h4.9513
			c1.2297-3.362,7.4369-6.623,13.5063-4.647c0.1615,1.3531,0.2722,2.884,0.333,4.647h4.7949
			c-0.3801-11.4204-3.911-20.8335-16.5052-24.6673c10.2253-2.6673,22.2771,4.5669,23.4171,24.6673h4.814
			c-0.2497-4.9982-1.4678-11.7066-4.1862-16.9622c6.7454,3.8949,9.6759,11.1783,10.9464,16.9622h4.9154
			c-0.8413-4.3277-2.9292-11.6033-8.2852-17.0831c0,0,18.9886-16.7573,19.2025-17.0198c5.2371-6.4219-4.4784-14.3552-9.7206-7.926
			l-16.3373,20.036c-0.4913-0.2335-3.1892-1.2871-3.9968-1.5393c0,0,9.8596-24.9796,9.9308-25.3104
			c1.7454-8.1008-10.5143-10.751-12.2613-2.6414l-5.1009,23.6783c-4.2692-2.1148-14.4497-4.3577-22.5131,2.5399
			c-0.0004,0.0002-0.0007,0.0006-0.0007,0.0006c-14.5135,4.9751-20.5768,16.4503-21.5054,25.2652h4.8295
			C30.3217,57.0043,36.4245,47.179,48.5054,43.449z"/>
		<path fill="#ffffff" d="M75.6285,95.6131c-0.3909,0.3551-0.9002,0.5519-1.4282,0.5519h-29.031
			c-0.528,0-1.0372-0.1968-1.4282-0.5519L22.1283,75.9807l12.1499,42.6414c0.2196,0.7707,0.9236,1.302,1.7249,1.302h47.3637
			c0.8012,0,1.5052-0.5314,1.7248-1.302l12.1496-42.6414L75.6285,95.6131z"/>
		<polygon fill="#ffffff" points="98.9101,68.7255 20.4594,68.7255 45.99,91.9167 73.3796,91.9167 		"/>
	</g>
</g>
</svg>

