<?xml version="1.0" encoding="utf-8"?>
<!-- Generator: Adobe Illustrator 18.1.1, SVG Export Plug-In . SVG Version: 6.00 Build 0)  -->
<svg version="1.2" baseProfile="tiny" xmlns="http://www.w3.org/2000/svg" xmlns:xlink="http://www.w3.org/1999/xlink" x="0px"
	 y="0px" width="64px" height="64px" viewBox="0 0 64 64" xml:space="preserve">

<g id="Production">
	<g>
		<path fill="#ffffff" d="M48.7168,23H37v2h10.6592l6.8154,10H38v1c0,3.3867-2.6133,5.9409-6,5.9409S26,39.3867,26,36v-1H9.5238
			l6.8024-10H27v-2H15.2676L7,35.1543V57h50V35.1538L48.7168,23z M55,55H9V37h15.1108c0.4775,3.9644,3.7676,6.9409,7.8813,6.9409
			S39.396,40.9644,39.8735,37H55V55z"/>
		<polygon fill="#ffffff" points="31,10.4141 31,35 33,35 33,10.4141 39.3062,16.7202 40.7202,15.3062 32,6.5859 23.2798,15.3062 
			24.6938,16.7202 		"/>
	</g>
</g>
</svg>
