<?xml version="1.0" encoding="utf-8"?>
<!-- Generator: Adobe Illustrator 19.1.0, SVG Export Plug-In . SVG Version: 6.00 Build 0)  -->
<svg version="1.2" baseProfile="tiny" xmlns="http://www.w3.org/2000/svg" xmlns:xlink="http://www.w3.org/1999/xlink" x="0px"
	 y="0px" width="64px" height="64px" viewBox="0 0 64 64" xml:space="preserve">
<g id="box">
	<rect fill="none" width="64" height="64"/>
</g>
<g id="Production">
	<g>
		<path fill="#ffffff" d="M50.6426,52.2031c-5.3457-2.6724-11.6982-1.8506-16.186,2.0923
			c-4.5151,3.9658-10.9727,4.9365-16.4546,2.4688l-5.0168-2.2576l-3.1345,0.7829l7.3311,3.299
			c2.2764,1.0244,4.7017,1.5239,7.1133,1.5239c4.1479,0,8.2544-1.48,11.4814-4.314c3.874-3.4043,9.3584-4.1138,13.9717-1.8062
			l5.8047,2.9023l0.8945-1.7891L50.6426,52.2031z"/>
		<polygon fill="#ffffff" points="50.6196,16.5685 49.2056,15.1544 14.6157,49.9761 12.2219,50.574 10.5447,48.8967 11.123,46.4722 
			45.7075,11.6563 44.2935,10.2422 9.3086,45.4614 7.3027,53.8643 15.6411,51.7817 		"/>
		<path fill="#ffffff" d="M52.0291,15.1497l3.1418-3.1629c1.0601-1.0674,1.0571-2.8008-0.0063-3.8638L52.708,5.6665
			c-0.5176-0.5166-1.2046-0.8013-1.9365-0.8013c-0.001,0-0.002,0-0.0029,0c-0.7324,0.0015-1.4204,0.2886-1.937,0.8086
			l-3.1287,3.1497L52.0291,15.1497z M50.25,7.0835c0.2963-0.2973,0.7635-0.2834,1.0444-0.0024l2.4561,2.4561
			c0.2861,0.2861,0.2866,0.7529,0.0015,1.0405l-1.7249,1.7365L48.5288,8.816L50.25,7.0835z"/>
	</g>
</g>
</svg>

