<?xml version="1.0" encoding="utf-8"?>
<!-- Generator: Adobe Illustrator 19.1.0, SVG Export Plug-In . SVG Version: 6.00 Build 0)  -->
<svg version="1.2" baseProfile="tiny" xmlns="http://www.w3.org/2000/svg" xmlns:xlink="http://www.w3.org/1999/xlink" x="0px"
	 y="0px" width="64px" height="64px" viewBox="0 0 64 64" xml:space="preserve">
<g id="_x36_4px_boxes">
	<rect fill="none" width="64" height="64"/>
</g>
<g id="Production">
	<path fill="#ffffff" d="M56.7913,52.8141c-0.029-0.3109-0.3849-3.1409-3.8959-6.6892c-2.9533-2.9849-6.4495-4.0458-9.2587-4.8982
		c-3.5393-1.0741-4.6987-1.5848-4.8792-3.5304c-0.0608-0.6549,0.0569-1.5405,0.1577-2.1045c1.3615-1.817,1.641-3.4503,1.912-5.0337
		c0.0255-0.1493,0.0513-0.3002,0.0784-0.4528c1.8311-1.3401,2.3508-4.3468,2.1995-6.2736
		c-0.0706-0.8986-0.3498-1.5939-0.7461-2.1014c0.2661-1.639,0.5697-4.3807,0.0731-6.415c-1.0316-4.226-4.7924-7.0653-9.3583-7.0653
		c-3.9394,0-10.3165,2.2455-11.4931,7.0653c-0.4966,2.0343-0.1931,4.776,0.0731,6.415c-0.3964,0.5076-0.6756,1.2029-0.7462,2.1014
		c-0.1517,1.9325,0.3715,4.9517,2.2162,6.2855c0.0062,0.0303,0.0124,0.0605,0.0186,0.0907c0.3907,1.908,0.7936,3.8748,1.96,5.4106
		c0.0995,0.5637,0.2128,1.4326,0.153,2.0776c-0.1805,1.9452-1.3206,2.4453-4.8002,3.4863c-2.823,0.8446-6.3363,1.8958-9.3508,4.9423
		c-3.5109,3.5483-3.8668,6.3783-3.8959,6.6892L7.0046,55h49.9907L56.7913,52.8141z M34.7567,53l-1.3127-6.6511l1.7075-1.8555
		l-3.2885-4.0449l-3.2885,4.0449l1.8906,2.0544L29.0219,53H9.2c0,0,0.2172-2.3262,3.3262-5.4684
		c5.8714-5.9341,14.1357-3.3467,14.7207-9.6505c0.128-1.3793-0.2828-3.1517-0.2828-3.1517
		c-1.2926-1.3928-1.5742-3.6503-2.0832-5.9769c-1.64-0.3324-2.0928-3.3185-1.9793-4.764c0.098-1.2484,0.7484-1.3315,0.9199-1.3315
		c0.0264,0,0.0414,0.002,0.0414,0.002s-0.9614-4.3209-0.3393-6.8691c0.8677-3.5543,6.1005-5.5397,9.5502-5.5397
		c3.4497,0,6.5477,1.9854,7.4153,5.5397c0.6221,2.5482-0.3393,6.8691-0.3393,6.8691s0.015-0.002,0.0414-0.002
		c0.1716,0,0.8219,0.0833,0.9199,1.3315c0.1135,1.4456-0.3394,4.4316-1.9793,4.764c-0.509,2.3267-0.4028,3.951-2.0832,5.9769
		c0,0-0.4108,1.7725-0.2828,3.1517c0.5818,6.2694,8.9373,3.8185,14.7077,9.6505C54.5829,50.6738,54.8,53,54.8,53H34.7567z"/>
</g>
</svg>

