<?xml version="1.0" encoding="utf-8"?>
<!-- Generator: Adobe Illustrator 18.1.1, SVG Export Plug-In . SVG Version: 6.00 Build 0)  -->
<svg version="1.2" baseProfile="tiny" xmlns="http://www.w3.org/2000/svg" xmlns:xlink="http://www.w3.org/1999/xlink" x="0px"
	 y="0px" width="128px" height="128px" viewBox="0 0 128 128" xml:space="preserve">
<g id="box">
	<rect fill="none" width="128" height="128"/>
</g>
<g id="Production">
	<g>
		<path fill="#ffffff" d="M101.0664,10.9191H44.1633c-2.0581,0-3.7292,1.7091-3.739,3.7674
			c-0.0073,1.562-0.008,3.1087-0.0034,4.5968c-8.2167-0.2338-14.8538,4.2902-15.9114,13.0717
			c-0.0317,0.2649-1.2939,22.5746-1.3088,22.841c-0.1194,2.2377,1.5146,4.2162,3.7724,4.4914
			c2.3565,0.2874,4.4998-1.39,4.7872-3.7464c0.4096-3.3568,2.07-17.9782,2.624-22.1745c0.3772-2.8561,3.7063-3.8231,6.1963-3.2598
			c1.0056,38.3027,6.3723,46.905,7.5549,48.3366c0.7104,0.8599,1.7676,1.3759,2.8828,1.3759h32.886
			c1.3457,0,2.5876-0.7412,3.2519-1.9114c7.1043-12.5156,8.0606-27.5538,8.0523-41.0894c0-9.5332,8.6345-19.9813,8.7187-20.082
			C106.0122,14.6589,104.155,10.9191,101.0664,10.9191z M87.7305,37.2122c0.0112,11.3928-0.615,24.4015-6.0723,35.3888H53.3169
			c-4.7642-11.2165-5.3988-41.9557-5.4202-54.0638h45.9998C91.0059,23.2064,87.7305,30.1995,87.7305,37.2122z"/>
		<rect x="58.1934" y="29.35" fill="#ffffff" width="14.9904" height="5.4064"/>
		<rect x="58.1934" y="39.9171" fill="#ffffff" width="14.9904" height="5.4063"/>
		<rect x="58.1934" y="50.2383" fill="#ffffff" width="14.9904" height="5.4064"/>
		<path fill="#ffffff" d="M96.6484,105.5557c-1.3606-8.0316-3.052-16.0655-7.8842-18.8442c-1.2937-0.7438-2.5977-1.086-4.108-1.086
			H51.5691c-1.5103,0-2.8145,0.3422-4.1079,1.086c-4.8323,2.7787-6.5237,10.8126-7.8845,18.8442
			c-0.3821,2.2555-0.7535,4.2913-1.0747,7.063c-0.3343,2.8872,1.7534,4.4622,3.6748,4.4622h51.8718
			c1.9226,0,4.0093-1.5762,3.6745-4.4622C97.4021,109.847,97.0305,107.8112,96.6484,105.5557z M68.1123,106.6281
			c-2.7554,0-4.9893-2.2341-4.9893-4.9896c0-0.0184,0.0025-0.0359,0.0025-0.0542c0.0293-2.7307,2.2495-4.9356,4.9868-4.9356
			c2.7378,0,4.9578,2.2049,4.9871,4.9356c0.0002,0.0183,0.0027,0.0358,0.0027,0.0542
			C73.1021,104.394,70.8684,106.6281,68.1123,106.6281z"/>
	</g>
</g>
</svg>

