<?xml version="1.0" encoding="utf-8"?>
<!-- Generator: Adobe Illustrator 18.1.1, SVG Export Plug-In . SVG Version: 6.00 Build 0)  -->
<svg version="1.2" baseProfile="tiny" xmlns="http://www.w3.org/2000/svg" xmlns:xlink="http://www.w3.org/1999/xlink" x="0px"
	 y="0px" width="128px" height="128px" viewBox="0 0 128 128" xml:space="preserve">
<g id="_x31_28px_boxes" display="none">
	<rect display="inline" fill="none" width="128" height="128"/>
</g>
<g id="Production">
	<g>
		<path fill="#ffffff" d="M108.1394,41.3119c-1.8569-1.7058-10.7656-9.4643-28.8196-15.3464l0.0003,0.0003h-0.0008l0.0003-0.0003
			c-18.0542-5.8818-29.8235-4.8596-32.3291-4.5752c-12.9075,1.465-17.6244,18.2841-13.593,22.7083
			c0.5449,0.5986,1.3017,0.9572,2.1062,1.0039c0.0556,0.0034,17.0061,0.0576,17.0061,0.0576
			c0.6753,0.0019,1.3325-0.2171,1.8713-0.6235c2.5874-1.957,2.7729-7.736,2.8914-10.7989c0,0,7.5185,0.2793,18.2817,3.7857h0.0003
			c10.7629,3.5066,17.0026,7.7094,17.0026,7.7094c-1.9057,2.8389-2.3013,3.5387-2.7912,4.5391
			c-0.3855-0.4546-0.9461-0.7302-1.5606-0.7302h-6.9941c-1.1074,0-2.2085,0.6623-2.2085,1.927v2.8357H62.4065v-2.8357
			c0-1.2647-1.1013-1.927-2.2085-1.927h-6.9944c-1.1318,0-2.0862,0.9306-2.0862,2.2055v10.5062c0,0-6.7512,9.9951-9.8928,14.6445
			c-3.1416,4.6494-4.1479,7.6025-4.1479,12.5664c0,4.9639,0,5.969,0,10.2417c0,4.2725,4.3364,7.6533,8.6716,7.6533
			c4.3355,0,45.5772,0,49.9124,0c4.3354,0,8.6718-3.3808,8.6718-7.6533c0-4.2727,0-5.2778,0-10.2417
			c0-4.9639-1.0063-7.917-4.1479-12.5664c-3.1416-4.6494-9.8928-14.6445-9.8928-14.6445v-4.0396
			c2.6667,1.9307,13.1213,9.5,13.1623,9.5264c0.6773,0.436,1.5003,0.5918,2.2935,0.4294
			C111.63,66.4649,117.6954,50.0877,108.1394,41.3119z M70.7022,96.4938c-9.2569,0-16.7876-7.531-16.7876-16.7878
			s7.5307-16.7876,16.7876-16.7876c9.2568,0,16.7878,7.5308,16.7878,16.7876S79.959,96.4938,70.7022,96.4938z"/>
		<path fill="#ffffff" d="M70.7022,68.2646c-6.3089,0-11.4414,5.1326-11.4414,11.4414s5.1325,11.4416,11.4414,11.4416
			c6.3088,0,11.4416-5.1328,11.4416-11.4416S77.011,68.2646,70.7022,68.2646z"/>
		<path fill="#ffffff" d="M38.3875,59.4438c0.0161,0.0007,0.0337,0.0005,0.049,0.0012c0.9502-0.0004,1.1035-1.3756,0.1765-1.5845
			c-13.422-4.0108-21.1917-15.7364-14.4819-31.9548c0.3398-0.8217-0.7198-1.5035-1.3271-0.854
			c-6.0043,6.4342-10.6542,17.3641-6.1116,26.2402C22.7204,63.0708,37.092,59.5065,38.3875,59.4438z"/>
	</g>
</g>
</svg>
