<?xml version="1.0" encoding="utf-8"?>

<svg version="1.2" baseProfile="tiny" xmlns="http://www.w3.org/2000/svg" xmlns:xlink="http://www.w3.org/1999/xlink" x="0px"
	 y="0px" width="64px" height="64px" viewBox="0 0 64 64" xml:space="preserve">

<g id="Production">
	<g>
		<path fill="#ffffff" d="M24.9481,29.0977c-6.9761-1.1458-13.9185,4.275-13.9185,11.8661c0,6.6169,5.3541,11.9808,11.9712,11.9808
			c7.5116,0,13.0602-6.8651,11.8843-13.9427c-6.879,6.8052-8.1851,9.0446-11.9084,9.0446c-5.5228,0-9.938-6.6086-4.6672-12.2482
			C19.6849,34.3267,24.9481,29.0977,24.9481,29.0977z"/>
		<path fill="#ffffff" d="M38.8721,35.0322c4.579,12-4.6042,23.1586-15.9016,23.1586c-9.4777,0-17.1499-7.7078-17.1499-17.1754
			c0-11.1951,11.1525-20.4904,23.1794-15.8912v-5.2789C14.9686,15.8678,1,26.4275,1,41.01c0,12.1501,9.7721,21.9997,21.95,21.9997
			c12.1779,0,22.05-9.8385,22.05-21.9886c0-2.0809-0.2959-3.9888-0.837-5.9888H38.8721z"/>
		<path fill="#ffffff" d="M48.0191,16v-0.0342l-5,4.9999V21h8.6902l-3.9904,4H39v-8.6691l4.0191-4.0141v0.0261l4.9809-5V0.228
			L34,14.377v12.049L21.3616,38.9778c-0.9766,0.976-0.9593,2.2914,0.0173,3.2675c0.968,0.968,2.5775,0.9911,3.5494,0.0192
			L37.3431,30h12.4589l13.9174-14H48.0191z"/>
	</g>
</g>
</svg>
