<?xml version="1.0" encoding="utf-8"?>

<svg version="1.2" baseProfile="tiny" xmlns="http://www.w3.org/2000/svg" xmlns:xlink="http://www.w3.org/1999/xlink" x="0px"
	 y="0px" width="128px" height="128px" viewBox="0 0 128 128" xml:space="preserve">
<g id="_x31_28px_boxes">
	<rect fill="none" width="128" height="128"/>
</g>
<g id="Production">
	<g>
		<path fill="#ffffff" d="M63.9999,16.9997C38.0841,16.9997,17,38.0841,17,64.0001s21.0841,47.0002,46.9999,47.0002
			c25.916,0,47.0001-21.0842,47.0001-47.0002S89.9159,16.9997,63.9999,16.9997z M71.801,64.0001
			c0,4.3085-3.4925,7.8009-7.8011,7.8009c-4.3083,0-7.8009-3.4924-7.8009-7.8009c0-4.3082,3.4926-7.8011,7.8009-7.8011
			C68.3085,56.199,71.801,59.6919,71.801,64.0001z M63.9999,28.5851c21.9458,0,32.7374,18.4489,33.9041,25.4753
			c0.1964,1.1834-0.9726,2.172-2.1723,2.172c-3.9639,0-9.7964-2.2329-16.025-5.6494c-7.4549-4.089-11.3298-4.9479-15.7069-4.9479
			c-4.8088,0-8.5359,1.0151-15.706,4.9479c-6.7019,3.676-12.622,5.6494-16.0253,5.6494c-1.1997,0-2.1721-0.9725-2.1721-2.172
			C30.0964,48.3735,41.7369,28.5851,63.9999,28.5851z M30.0331,73.7399c0-1.7289,1.6301-2.2103,2.3011-2.1909
			c16.8527,1.3926,23.1557,7.7752,24.2458,24.0556c0.1341,1.469-1.262,2.8524-2.9088,2.2723
			C36.823,92.7299,30.0331,76.7848,30.0331,73.7399z M73.5994,98.0018c-1.6622-0.1301-2.2269-1.4158-2.1778-2.4
			c1.0903-16.2774,7.3909-22.6596,24.235-24.0527c1.3037-0.1277,2.714,1.2491,2.1961,2.8568c0,0,0.0007,0,0.0011-0.0001
			C93.3981,88.8727,81.8059,95.9359,73.5994,98.0018z"/>
	</g>
</g>
</svg>
