<?xml version="1.0" encoding="utf-8"?>
<!-- Generator: Adobe Illustrator 18.1.1, SVG Export Plug-In . SVG Version: 6.00 Build 0)  -->
<svg version="1.2" baseProfile="tiny" xmlns="http://www.w3.org/2000/svg" xmlns:xlink="http://www.w3.org/1999/xlink" x="0px"
	 y="0px" width="128px" height="128px" viewBox="0 0 128 128" xml:space="preserve">
<g id="_x31_28px_boxes">
	<rect fill="none" width="128" height="128"/>
</g>
<g id="Production">
	<g>
		<path fill="#ffffff" d="M41.8706,31.8488h44.2586c0.7636,0,1.4868,0.3424,1.9707,0.9331l9.9157,12.1054V26.7636
			c0-2.6924-2.1828-4.875-4.875-4.875h-58.281c-2.6924,0-4.875,2.1826-4.875,4.875v18.1235l9.9153-12.1052
			C40.3838,32.1913,41.1072,31.8488,41.8706,31.8488z"/>
		<path fill="#ffffff" d="M83.9917,35.8498H44.0083c-1.2427,0-2.25,1.0073-2.25,2.25v1.9809h44.4834v-1.9809
			C86.2417,36.8571,85.2344,35.8498,83.9917,35.8498z"/>
		<path fill="#ffffff" d="M35.6714,46.0682v2.3111h56.6572v-2.3111c0-1.4497-1.1753-2.625-2.625-2.625H38.2964
			C36.8467,43.4432,35.6714,44.6185,35.6714,46.0682z"/>
		<path fill="#ffffff" d="M103.3286,52.7258H24.6714c-2.2151,0-4.011,1.7957-4.011,4.0108v45.3639
			c0,2.2152,1.7959,4.0109,4.011,4.0109h78.6572c2.2151,0,4.011-1.7957,4.011-4.0109V56.7366
			C107.3396,54.5215,105.5437,52.7258,103.3286,52.7258z M53.8762,67.3358H74.124v11.8226H53.8762V67.3358z M82.7463,96.1642
			H45.2537c-1.5713,0-2.6597-1.5736-2.1055-3.0437l1.3025-3.4548c0.4385-1.1627,1.7361-1.7499,2.8992-1.3116
			c1.1626,0.4383,1.75,1.7363,1.3115,2.899l-0.1551,0.4111h30.9876l-0.1553-0.4111c-0.4382-1.1628,0.1489-2.4607,1.3118-2.899
			c1.1626-0.4386,2.4607,0.1489,2.8992,1.3116l1.3022,3.4548C85.4063,94.5906,84.3176,96.1642,82.7463,96.1642z"/>
	</g>
</g>
</svg>
