<?xml version="1.0" encoding="utf-8"?>
<!-- Generator: Adobe Illustrator 18.1.1, SVG Export Plug-In . SVG Version: 6.00 Build 0)  -->
<svg version="1.2" baseProfile="tiny" xmlns="http://www.w3.org/2000/svg" xmlns:xlink="http://www.w3.org/1999/xlink" x="0px"
	 y="0px" width="128px" height="128px" viewBox="0 0 128 128" xml:space="preserve">
<g id="_x31_28px_boxes">
	<rect fill="none" width="128" height="128"/>
</g>
<g id="Production">
	<g>
		<path fill="#ffffff" d="M85.5821,57.5114c-0.6561,0-1.0032,0.0386-1.1768,0.0772v3.0481h0.9065
			c1.312,0,2.0642-0.6367,2.0642-1.6013C87.376,58.0707,86.7395,57.5114,85.5821,57.5114z"/>
		<path fill="#ffffff" d="M97.0488,45.784H49.5427c-3.3054,0-5.9851,2.6796-5.9851,5.985v40.3082
			c0,3.3054,2.6797,5.985,5.9851,5.985h47.5061c3.3055,0,5.9852-2.6796,5.9852-5.985V51.769
			C103.034,48.4636,100.3543,45.784,97.0488,45.784z M55.2998,55.0229h8.3531v2.8551h-4.8614v2.3921h4.572v2.8163h-4.572v4.9384
			h-3.4917V55.0229z M56.2698,87.8876c-0.1931-0.3857-0.5403-1.3886-0.9067-3.0091c-0.3475-1.5434-0.8296-1.8712-1.91-1.8712
			h-0.5593v4.8803h-3.4531v-12.809c0.9839-0.1542,2.4692-0.2892,4.2053-0.2892c1.9871,0,3.4146,0.2699,4.3985,1.0221
			c0.8295,0.6367,1.2731,1.5627,1.2731,2.8166c0,1.6205-1.2153,2.7586-2.2185,3.1443v0.0581
			c0.8489,0.3858,1.3311,1.2153,1.6592,2.334c0.3858,1.3311,0.8101,3.2217,1.0608,3.7231H56.2698z M70.853,87.8876h-8.7194V74.8857
			h8.4494v2.855h-4.9577v2.0835h4.6684v2.8165h-4.6684v2.3921h5.2277V87.8876z M71.8435,68.2373
			c-4.032,0-6.2502-3.0288-6.2502-6.6362c0-3.781,2.4692-6.7904,6.4624-6.7904c4.186,0,6.3081,3.1057,6.3081,6.5782
			c0,4.1862-2.5078,6.8484-6.501,6.8484H71.8435z M84.8172,87.8876h-3.6653l-2.2185-4.321
			c-0.7137-1.3696-1.5625-3.1251-2.1797-4.6876h-0.0774c0.0967,1.7553,0.1352,3.7037,0.1352,5.8066v3.202h-3.1831V74.8857h4.1089
			l2.0642,3.9933c0.7139,1.2923,1.4661,3.0288,2.045,4.5526h0.0578c-0.1929-1.7167-0.2702-3.5302-0.2702-5.4595v-3.0864h3.1831
			V87.8876z M84.9646,63.1445h-0.5593v4.8803h-3.4531v-12.809c0.9839-0.1543,2.4692-0.2892,4.2053-0.2892
			c1.9871,0,3.4145,0.2699,4.3984,1.0221c0.8296,0.6367,1.2732,1.5627,1.2732,2.8166c0,1.6204-1.2153,2.7586-2.2185,3.1443v0.0581
			c0.8489,0.3858,1.3311,1.2154,1.6592,2.334c0.3857,1.3311,0.8101,3.2217,1.0608,3.7231H87.781
			c-0.1928-0.3857-0.54-1.3886-0.9065-3.0091C86.5271,63.4725,86.0449,63.1445,84.9646,63.1445z M97.1128,77.8178h-3.376v10.0698
			h-3.4917V77.8178H86.927v-2.9321h10.1858V77.8178z"/>
		<path fill="#ffffff" d="M54.0706,77.3742c-0.656,0-1.0032,0.0386-1.1768,0.0772v3.0481h0.9068
			c1.3117,0,2.0639-0.6367,2.0639-1.6014C55.8645,77.9335,55.228,77.3742,54.0706,77.3742z"/>
		<path fill="#ffffff" d="M71.9785,57.5693c-1.6784,0-2.7006,1.6977-2.7006,3.9546c-0.0193,2.3343,1.0222,3.9546,2.7006,3.9546
			h0.0386c1.6782,0,2.6621-1.6203,2.6621-3.9739C74.6792,59.267,73.676,57.5693,71.9785,57.5693z"/>
		<path fill="#ffffff" d="M105.0796,30.6258H39.2461v-4.3134c0-1.2395-1.0049-2.2442-2.2444-2.2442h-6.7524
			c-1.2395,0-2.2444,1.0047-2.2444,2.2442v4.3134h-5.0845c-1.2395,0-2.2444,1.0049-2.2444,2.2443v6.753
			c0,1.2394,1.0049,2.2443,2.2444,2.2443h5.0845v59.8201c0,1.2395,1.0049,2.2443,2.2444,2.2443h6.7524
			c1.2395,0,2.2444-1.0048,2.2444-2.2443V41.8674h65.8335c1.2395,0,2.2444-1.0049,2.2444-2.2443v-6.753
			C107.324,31.6307,106.3191,30.6258,105.0796,30.6258z"/>
	</g>
</g>
</svg>
