<?xml version="1.0" encoding="utf-8"?>

<svg version="1.2" baseProfile="tiny" xmlns="http://www.w3.org/2000/svg" xmlns:xlink="http://www.w3.org/1999/xlink" x="0px"
	 y="0px" width="128px" height="128px" viewBox="0 0 128 128" xml:space="preserve">
<g id="_x31_28px_boxes">
	<rect fill="none" width="128" height="128"/>
</g>
<g id="Production">
	<g>
		<path fill="#ffffff" d="M92.4054,46.3157c-1.677-1.6741-3.3623-2.8134-4.6929-3.5555v-6.0689h-7.4897v8.4508
			c0,1.6258,1.0491,3.0659,2.5964,3.5644c0.0899,0.029,8.9878,3.0436,8.9878,15.8308v36.8743
			c-0.0998,2.1405-1.373,2.877-3.2747,2.877H39.4677c-1.8728,0-3.1736-0.7082-3.2747-2.877V96.116h33.8853V58.3132H37.028
			c2.1386-7.3074,7.6909-9.4408,8.1687-9.6114c1.5764-0.479,2.5805-1.9103,2.5805-3.5597v-8.4508h-7.4897v6.0689
			c-1.3306,0.7421-3.0159,1.8814-4.6929,3.5555c-3.1438,3.1381-6.8913,8.8469-6.8913,18.2216v36.9178
			c0,4.1496,2.8667,10.3232,10.7644,10.3232h49.0646c7.8978,0,10.7644-6.1736,10.7644-10.3232V64.5373
			C99.2967,55.1626,95.5492,49.4538,92.4054,46.3157z"/>
		<path fill="#ffffff" d="M87.7125,32.4781V19.9666c0-2.0683-1.6765-3.7449-3.7448-3.7449H44.0323
			c-2.0683,0-3.7448,1.6766-3.7448,3.7449v12.5115H87.7125z"/>
	</g>
</g>
</svg>
