<?xml version="1.0" encoding="utf-8"?>
<!-- Generator: Adobe Illustrator 18.1.1, SVG Export Plug-In . SVG Version: 6.00 Build 0)  -->
<svg version="1.2" baseProfile="tiny" xmlns="http://www.w3.org/2000/svg" xmlns:xlink="http://www.w3.org/1999/xlink" x="0px"
	 y="0px" width="128px" height="128px" viewBox="0 0 128 128" xml:space="preserve">
<g id="_x31_28px_boxes">
	<rect fill="none" width="128" height="128"/>
</g>
<g id="Production">
	<g>
		<path fill="#ffffff" d="M108.6293,63.75v5.3269l-11.5752-5.6323v-6.0493c0-9.4799-3.7116-13.5191-3.8695-13.6863
			c-0.6789-0.7192-1.8264-0.7192-2.5055-0.0001c-3.1826,3.3679-3.8701,10.1183-3.8701,14.7505l-9.1739-4.464
			c0.235-13.6239-2.2159-35.6859-12.54-43.3063c-0.6216-0.4585-1.4694-0.4586-2.0907,0.0001
			c-10.403,7.6765-12.7724,29.731-12.5395,43.3062l-9.1739,4.464c0-4.6357-0.6884-11.3837-3.8701-14.7505
			c-0.6792-0.719-1.8266-0.7191-2.5055,0.0001c-0.158,0.1672-3.8695,4.2064-3.8695,13.6863v6.0493l-11.4752,5.5837v-5.6506
			c0-4.7032-7.1187-4.7081-7.1187,0V89.887c0,4.7025,7.1187,4.7095,7.1187,0v-3.8416h33.4701
			c0.4781,3.6595,0.9846,7.1377,1.4857,10.347l-13.8541,5.6738c-0.6473,0.2651-1.0701,0.8952-1.0701,1.5947v5.1392
			c0,0.9516,0.7715,1.7231,1.7231,1.7231h15.6453c0.678,3.5562,1.1319,5.6612,1.1504,5.7459
			c0.1763,0.8088,0.8923,1.3857,1.7202,1.3857h8.4171c0.8279,0,1.544-0.5769,1.7204-1.3857
			c0.0183-0.0847,0.4723-2.1897,1.1502-5.7459h15.6455c0.9517,0,1.7233-0.7715,1.7233-1.7231v-5.1392
			c0-0.6995-0.4229-1.3296-1.0702-1.5947l-13.8542-5.6738c0.5011-3.2093,1.0075-6.6875,1.4857-10.347h33.5702v3.4693
			c0,4.5709,6.9187,4.5756,6.9187,0V63.75C115.548,59.1788,108.6293,59.1741,108.6293,63.75z M64.05,59.1297
			c-2.9665,0-5.1745-5.0747-5.1745-11.3347c0-6.2601,2.6223-11.3348,5.1745-11.3348c2.5522,0,5.1745,5.0747,5.1745,11.3348
			C69.2245,54.055,67.0165,59.1297,64.05,59.1297z"/>
	</g>
</g>
</svg>
