<?xml version="1.0" encoding="utf-8"?>

<svg version="1.2" baseProfile="tiny" xmlns="http://www.w3.org/2000/svg" xmlns:xlink="http://www.w3.org/1999/xlink" x="0px"
	 y="0px" width="128px" height="128px" viewBox="0 0 128 128" xml:space="preserve">
<g id="_x31_28px_boxes">
	<rect fill="none" width="128" height="128"/>
</g>
<g id="Production">
	<g>
		<path fill="#ffffff" d="M82.4109,105.3206c-4.1521-1.9563-6.8737-3.4219-6.8737-5.8706v-2.6553
			c-3.6896,0.9492-7.5553,1.4546-11.537,1.4546c-3.9818,0-7.8477-0.5054-11.5374-1.4546V99.45c0,2.4487-2.7216,3.9143-6.8737,5.8706
			c-3.8911,1.8335-8.3014,3.9116-8.3014,8.2299v2.6565c0,0.9602,0.7785,1.7386,1.7387,1.7386h49.9472
			c0.9602,0,1.7387-0.7784,1.7387-1.7386v-2.6565C90.7123,109.2322,86.302,107.1541,82.4109,105.3206z"/>
		<path fill="#ffffff" d="M48.191,40.5625c3.1318,2.3806,6.2821,2.5376,8.7672,3.8113c1.8214-1.6553,4.2386-2.6653,6.8874-2.6653
			c2.1558,0,4.1571,0.6707,5.8097,1.812c0.4712-4.9348,0.0466-10.9201-3.573-15.0264c-7.19-8.1531-14.484-5.7629-18.7754-1.2087
			C43.6754,31.1416,42.8503,36.5054,48.191,40.5625z"/>
		<path fill="#ffffff" d="M53.5946,51.9617c0-0.2059,0.0079-0.4097,0.0199-0.6126c-4.4965,2.0601-9.4392,5.4143-11.1784,10.5828
			C38.9696,72.2373,44.6883,77.3591,50.7775,78.8c5.1525,1.2163,10.2115-0.75,11.0575-7.4033
			c0.5039-3.9829-1.0038-6.8237-1.0929-9.6674C56.6023,60.4114,53.5946,56.5317,53.5946,51.9617z"/>
		<path fill="#ffffff" d="M93.4192,50.1277c-1.5192-5.0723-5.7549-8.4734-11.9401-5.8738
			c-3.5811,1.5032-5.2954,4.1033-7.5951,5.6274c0.1392,0.6722,0.2126,1.3677,0.2126,2.0804c0,4.1411-2.4707,7.7138-6.0146,9.3291
			c4.0484,2.9048,9.4899,5.5852,14.9013,4.4929C93.6416,63.6311,95.2187,56.1228,93.4192,50.1277z"/>
		<path fill="#ffffff" d="M64.0002,10.0544c-23.0875,0-41.8706,18.7847-41.8706,41.8741c0,23.0864,18.7831,41.8684,41.8706,41.8684
			c23.0873,0,41.8702-18.782,41.8702-41.8684C105.8704,28.8391,87.0875,10.0544,64.0002,10.0544z M64.0002,85.4516
			c-18.4858,0-33.5251-15.0385-33.5251-33.5231c0-18.4878,15.0393-33.5289,33.5251-33.5289
			c18.4856,0,33.5247,15.0411,33.5247,33.5289C97.5249,70.4131,82.4858,85.4516,64.0002,85.4516z"/>
		<path fill="#ffffff" d="M69.924,51.9617c0-3.3528-2.7269-6.0804-6.0784-6.0804c-3.3516,0-6.0784,2.7276-6.0784,6.0804
			c0,3.3503,2.7268,6.0762,6.0784,6.0762C67.1971,58.0379,69.924,55.312,69.924,51.9617z"/>
	</g>
</g>
</svg>
