<?xml version="1.0" encoding="utf-8"?>
<!-- Generator: Adobe Illustrator 19.1.0, SVG Export Plug-In . SVG Version: 6.00 Build 0)  -->
<svg version="1.2" baseProfile="tiny" xmlns="http://www.w3.org/2000/svg" xmlns:xlink="http://www.w3.org/1999/xlink" x="0px"
	 y="0px" width="64px" height="64px" viewBox="0 0 64 64" xml:space="preserve">
<g id="box">
	<rect fill="none" width="64" height="64"/>
</g>
<g id="Production">
	<g>
		<path fill="#ffffff" d="M30.9407,30.0059c-0.8259,0.2864-3.4861,0.829-4.7134,2.0786C25,33.3339,25,35,25,35h18
			c0,0,0-1.6661-1.2273-2.9156c-1.2273-1.2496-3.8823-1.7922-4.7083-2.0786c-0.7205-0.2498-1.1162-0.727-1.1831-1.4539
			c-0.0505-0.5485,0.1116-1.0354,0.1116-1.0354c0.6633-0.8056,0.6215-1.2336,0.8223-2.1588
			c0.6475-0.1322,0.8262-1.3196,0.7814-1.8945c-0.0446-0.5728-0.3795-0.5287-0.3795-0.5287s0.3795-1.7183,0.134-2.7316
			C37.0085,18.7895,35.7856,18,34.424,18s-3.4274,0.7895-3.7699,2.2029c-0.2455,1.0134,0.134,2.7316,0.134,2.7316
			s-0.335-0.0441-0.3795,0.5287c-0.0448,0.5749,0.1339,1.7623,0.7814,1.8945c0.2008,0.9252,0.312,1.6049,0.8223,2.1588
			c0,0,0.1621,0.4869,0.1116,1.0354C32.0569,29.2789,31.6611,29.756,30.9407,30.0059z"/>
		<rect x="8" y="46" fill="#ffffff" width="11" height="2"/>
		<rect x="8" y="16" fill="#ffffff" width="11" height="2"/>
		<rect x="14" y="35" fill="#ffffff" width="2" height="9"/>
		<rect x="14" y="20" fill="#ffffff" width="2" height="9"/>
		<polygon fill="#ffffff" points="14,7 14,14 16,14 16,9 51,9 51,55 16,55 16,50 14,50 14,57 53,57 53,7 		"/>
		<rect x="8" y="31" fill="#ffffff" width="11" height="2"/>
	</g>
</g>
</svg>

