<?xml version="1.0" encoding="utf-8"?>
<!-- Generator: Adobe Illustrator 19.1.0, SVG Export Plug-In . SVG Version: 6.00 Build 0)  -->
<svg version="1.2" baseProfile="tiny" xmlns="http://www.w3.org/2000/svg" xmlns:xlink="http://www.w3.org/1999/xlink" x="0px"
	 y="0px" width="64px" height="64px" viewBox="0 0 64 64" xml:space="preserve">
<g id="box">
	<rect fill="none" width="64" height="64"/>
</g>
<g id="Production">
	<g>
		<path fill="#ffffff" d="M36.9961,27.9995C37.0288,28,37.061,28,37.0933,28c4.9237,0,8.9999-3.8315,8.917-8.6323
			C45.9409,15.3452,43.291,12.4824,39.624,8.52c-1.3931-1.5057-1.506-1.6344-2.6196-2.8667
			c-1.098,1.2151-1.2137,1.3466-2.6187,2.8652c-3.667,3.9619-6.3164,6.8242-6.3848,10.8467
			C27.9185,24.2109,32.067,27.9481,36.9961,27.9995z M35.8535,9.877c0.3726-0.4023,0.7563-0.8174,1.1509-1.2471
			c0.3945,0.4302,0.7793,0.8457,1.1519,1.2485c3.4912,3.7725,5.7979,6.2646,5.854,9.5239C44.0746,23.1108,40.8643,26,37.0938,26
			c-0.0254,0-0.0508,0-0.0767-0.0005c-3.8562-0.0405-7.0788-2.9033-7.0161-6.6001C30.0562,16.1406,32.3628,13.6489,35.8535,9.877z"
			/>
		<path fill="#ffffff" d="M49.0879,32.9194c-1.6756-1.8223-1.9565-2.1392-3.0933-3.4058c-1.2106,1.3489-1.4023,1.5658-3.0903,3.4028
			c-4.5415,4.9404-7.8223,8.5098-7.9062,13.4683c-0.1013,5.9852,5.0064,10.5341,10.9893,10.5977
			c5.9368,0.0733,11.1111-4.5607,11.0083-10.5947C56.9102,41.4302,53.6289,37.8604,49.0879,32.9194z M46.0088,54.9824
			c-4.9207-0.0518-9.0931-3.7383-9.0107-8.5635c0.0708-4.1987,2.978-7.3613,7.3784-12.1489c0.522-0.5679,1.062-1.1553,1.6182-1.7676
			c0.5571,0.6133,1.0981,1.2021,1.6206,1.7705c4.4009,4.7881,7.3086,7.9512,7.3804,12.1489
			C55.0784,51.276,50.8626,55.0631,46.0088,54.9824z"/>
		<path fill="#ffffff" d="M19.4971,18.8018c-1.2394,1.3809-1.5347,1.7139-3.4438,3.79C10.8525,28.25,7.0952,32.3379,7,37.9834
			c-0.1138,6.7587,5.6489,11.9622,12.4897,12.0347c6.8378,0.0735,12.6244-5.2501,12.5088-12.0317
			c-0.0972-5.645-3.855-9.7339-9.0566-15.3926C21.0271,20.5103,20.7315,20.1771,19.4971,18.8018z M19.5112,48.0181
			C13.7491,47.9575,8.9049,43.6326,9,38.0171c0.082-4.8857,3.4414-8.54,8.5259-14.0718c0.6348-0.6899,1.293-1.4062,1.9712-2.1538
			c0.6787,0.748,1.3374,1.4648,1.9722,2.1553c5.0859,5.5332,8.4458,9.1885,8.5293,14.0737
			C30.0969,43.7267,25.1099,48.1311,19.5112,48.0181z"/>
	</g>
</g>
</svg>

