<?xml version="1.0" encoding="utf-8"?>
<!-- Generator: Adobe Illustrator 18.1.1, SVG Export Plug-In . SVG Version: 6.00 Build 0)  -->
<svg version="1.2" baseProfile="tiny" xmlns="http://www.w3.org/2000/svg" xmlns:xlink="http://www.w3.org/1999/xlink" x="0px"
	 y="0px" width="128px" height="128px" viewBox="0 0 128 128" xml:space="preserve">
<g id="box">
	<rect fill="none" width="128" height="128"/>
</g>
<g id="Production">
	<g>
		<path fill="#ffffff" d="M52.9175,94.2374l-40.7377-0.0076c-3.6673,0.005-6.6389,2.974-6.649,6.6493v4.1726
			c0.0103,0.8698,0.7163,1.561,1.5608,1.5508l50.9116,0.0102c0.8901,0,1.5532-0.7058,1.5532-1.5483v-4.1777
			C59.5564,97.2189,56.585,94.2451,52.9175,94.2374z"/>
		<path fill="#ffffff" d="M118.0687,83.6118c-2.1095-1.2218-4.5069-1.4666-6.6851-0.8799l-49.927-28.8364
			c1.1402-2.6424,1.8593-4.9865,1.8975-6.7157c-0.0177-0.862-0.1349-1.9538-1.2728-2.6856L41.3226,32.504
			c-0.3673-0.2322-0.8543-0.324-1.1784-0.3163c-2.0072,0.1785-3.173,1.5151-4.9074,3.3412c-1.65,1.8695-3.4559,4.4303-5.1775,7.3942
			c-2.7596,4.7976-4.6037,9.3909-4.6573,12.319c0.0181,0.8467,0.1149,1.9333,1.2601,2.6626
			C48.8001,70.7017,47.5789,70.196,48.579,70.196c2.0072-0.1786,3.1882-1.5074,4.9379-3.3413
			c0.5661-0.6452,1.1552-1.395,1.7471-2.1882l49.9015,28.8211c0.5813,2.1808,1.9944,4.142,4.1038,5.3588
			c4.2085,2.4332,9.5874,0.9922,12.0181-3.2162C123.7183,91.4165,122.2797,86.0426,118.0687,83.6118z M43.0391,41.043
			c-1.4053,1.6249-3.048,3.9534-4.6166,6.6393c-1.5098,2.609-2.7238,5.2388-3.4431,7.3304l0.0101,0.005
			c-0.8371,2.4397-4.5066,1.1796-3.6804-1.2625c0.8341-2.4026,2.1324-5.2135,3.7646-8.019c1.6708-2.867,3.4052-5.3588,5.0297-7.2256
			C41.7655,36.573,44.7153,39.0987,43.0391,41.043z"/>
		<path fill="#ffffff" d="M21.3518,69.8133l18.3945,10.6205c2.1496,1.2053,4.639,0.3599,5.7337-1.5353
			c1.2035-2.1538,0.3744-4.6445-1.5303-5.749L25.5628,62.5316c-1.9263-1.1466-4.5485-0.5268-5.7465,1.5429
			C18.6895,65.9252,19.2503,68.6074,21.3518,69.8133z"/>
		<path fill="#ffffff" d="M44.7964,29.2418l18.3845,10.6129c1.9766,1.1438,4.5642,0.4922,5.7462-1.5304
			c1.2137-2.2285,0.3337-4.6622-1.5455-5.7438l-18.3817-10.618c-1.9513-1.1646-4.5521-0.5149-5.744,1.5328
			C42.1328,25.3324,42.6788,28.0162,44.7964,29.2418z"/>
	</g>
</g>
</svg>
