<?xml version="1.0" encoding="utf-8"?>

<svg version="1.2" baseProfile="tiny" xmlns="http://www.w3.org/2000/svg" xmlns:xlink="http://www.w3.org/1999/xlink" x="0px"
	 y="0px" width="64px" height="64px" viewBox="0 0 64 64" xml:space="preserve">

<g id="Production">
	<g>
		<path fill="#ffffff" d="M32,7C18.2148,7,7,18.2148,7,32s11.2148,25,25,25s25-11.2148,25-25S45.7852,7,32,7z M32,55
			C19.3174,55,9,44.6821,9,32S19.3174,9,32,9s23,10.3179,23,23S44.6826,55,32,55z"/>
		<path fill="#ffffff" d="M32,14c-9.9248,0-18,8.0747-18,18s8.0752,18,18,18s18-8.0747,18-18S41.9248,14,32,14z M32,48
			c-8.8223,0-16-7.1777-16-16s7.1777-16,16-16s16,7.1777,16,16S40.8223,48,32,48z"/>
		<path fill="#ffffff" d="M32,21c-6.0654,0-11,4.9346-11,11s4.9346,11,11,11s11-4.9346,11-11S38.0654,21,32,21z M32,41
			c-4.9629,0-9-4.0376-9-9s4.0371-9,9-9s9,4.0376,9,9S36.9629,41,32,41z"/>
		<path fill="#ffffff" d="M32,28c-2.2061,0-4,1.7944-4,4s1.7939,4,4,4s4-1.7944,4-4S34.2061,28,32,28z"/>
	</g>
</g>
</svg>
