<?xml version="1.0" encoding="utf-8"?>
<!-- Generator: Adobe Illustrator 18.1.1, SVG Export Plug-In . SVG Version: 6.00 Build 0)  -->
<svg version="1.2" baseProfile="tiny" xmlns="http://www.w3.org/2000/svg" xmlns:xlink="http://www.w3.org/1999/xlink" x="0px"
	 y="0px" width="64px" height="64px" viewBox="0 0 64 64" xml:space="preserve">

<g id="Production">
	<g>
		<path fill="#ffffff" d="M47.4292,8.4372C46.0674,10.6789,41.1792,18,35.4546,18H15c-1.5398,0-3,1.166-3,3.1633
			c-1.1641,0.4126-2,1.5168-2,2.8205v8c0,1.3037,0.8359,2.416,2,2.8286v0.1714C12,36.6381,13.3457,38,15,38h2.5114l4.9252,16.1774
			c0.7991,2.6264,3.5408,4.0422,6.1177,3.2557c2.5905-0.7881,4.0504-3.5169,3.2612-6.1077L27.7588,38h7.6997
			c5.7202,0,10.6089,7.3049,11.9707,9.5466C49.0062,50.1396,53,49.0067,53,45.9838v-36C53,6.9631,49.0028,5.8498,47.4292,8.4372z
			 M29.9023,51.9055c0.4644,1.5293-0.39,3.1453-1.9341,3.6161c-1.529,0.4647-3.1464-0.373-3.6187-1.9241L19.6018,38h6.0665
			L29.9023,51.9055z M51,45.9838c0,1.0053-1.332,1.3932-1.8618,0.5242C47.2168,43.3459,42.0381,36,35.4585,36H31V22h-2v14H15
			c-0.5513,0-1-0.4649-1-1.0162V33h-1c-0.5513,0-1-0.4649-1-1.0162v-8C12,23.4325,12.4487,23,13,23h1v-2.0162
			c0-0.5513,0.4487-1.02,1-1.02l20.4585,0.0195c6.5801,0,11.7588-7.3535,13.6797-10.5151C49.6652,8.6024,51,8.9753,51,9.9838
			V45.9838z"/>
		
			<rect x="29.0581" y="41.868" transform="matrix(-0.2918 -0.9565 0.9565 -0.2918 0.4415 86.0631)" fill="#ffffff" width="6.0494" height="2.0002"/>
	</g>
</g>
</svg>
