<?xml version="1.0" encoding="utf-8"?>

<svg version="1.2" baseProfile="tiny" xmlns="http://www.w3.org/2000/svg" xmlns:xlink="http://www.w3.org/1999/xlink" x="0px"
	 y="0px" width="64px" height="64px" viewBox="0 0 64 64" xml:space="preserve">

<g id="Production">
	<path fill="#ffffff" d="M50.125,30.0654c1.9951-3.9331,0.0811-6.2573-0.9531-7.5137c-0.1787-0.2168-0.4141-0.5029-0.5029-0.6606
		c1.1738-4.3003-1.2314-6.3394-2.5293-7.4399c-0.2744-0.2324-0.6504-0.5508-0.7002-0.6147
		c-0.4189-2.4683-1.8887-4.0918-4.623-5.1108c-2.1953-0.8179-6.1523-1.6919-10.6729-1.6919c-7.4814,0-13.1797,2.4121-16.0449,6.7915
		c-5.2988,8.1011,0.5889,27.7798,9.1855,40.374c1.209,1.771,2.8135,2.7466,4.5186,2.7466c2.4989,0,4.5597-2.1691,4.1875-4.8628
		c-0.1543-1.1187-0.4785-2.5322-0.8213-4.0288c-0.6113-2.668-1.3047-5.6719-1.1953-7.6992C29.9863,40.1255,30.0996,39,31.0918,39
		h14.9443c3.2825,0,5.3897-2.7819,4.8516-6.0352C50.6192,31.3327,50.3368,31.0656,50.125,30.0654z M48.4248,31.3799
		c0.1641,0.5186,0.3682,1.1631,0.4902,1.9009C49.2482,35.3016,48.1033,37,46.0361,37H31.0918c-1.7295,0-3.0098,1.3228-3.1143,3.2466
		c-0.126,2.3086,0.6006,5.4683,1.2422,8.2651c0.333,1.4521,0.6475,2.8186,0.79,3.8499c0.1984,1.448-0.8795,2.5855-2.207,2.5855
		c-1.0234,0-2.041-0.6662-2.8662-1.8752c-8.2246-12.0479-13.8916-30.9241-9.1641-38.1517
		c3.3506-5.1216,10.4424-5.8864,14.3711-5.8864c4.2549,0,7.9424,0.809,9.9746,1.5658c2.0527,0.7646,3.0547,1.833,3.3496,3.5717
		c0.127,0.7446,0.707,1.2363,1.3779,1.8052c1.2979,1.0996,2.7676,2.3457,1.8643,5.4941c-0.2637,0.9175,0.3369,1.647,0.918,2.3525
		c1.0098,1.2261,2.1543,2.6152,0.6445,5.4697C47.9561,29.894,48.1631,30.5498,48.4248,31.3799z"/>
</g>
</svg>
