<?xml version="1.0" encoding="utf-8"?>
<!-- Generator: Adobe Illustrator 18.1.1, SVG Export Plug-In . SVG Version: 6.00 Build 0)  -->
<svg version="1.2" baseProfile="tiny" xmlns="http://www.w3.org/2000/svg" xmlns:xlink="http://www.w3.org/1999/xlink" x="0px"
	 y="0px" width="128px" height="128px" viewBox="0 0 128 128" xml:space="preserve">
<g id="box">
	<rect fill="none" width="128" height="128"/>
</g>
<g id="Production">
	<g>
		<path fill="#ffffff" d="M85.6511,57.5689c0.7109,2.254,4.1798,15.2253,10.622,22.7404c2.2539,2.6177,6.1891-0.8014,3.9507-3.3891
			v-0.0071c-0.0058,0-0.6526-0.7398-1.6985-2.3372c-0.6758-1.032-1.294-2.0715-1.8593-3.104
			c-2.3531-4.2979-3.9212-8.6279-3.9212-8.6279l0.021-0.0069c-0.6142-1.7877-7.2458-23.3223-7.7781-25.0485
			c3.9821-0.587,7.5496-2.5618,8.5945-6.4767c0.3667-1.3895-0.4592-2.8184-1.8418-3.1897c-1.3872-0.371-2.8091,0.4524-3.1826,1.842
			c-0.2993,1.0832-1.074,1.7003-2.4915,2.2339c-1.972,0.7075-4.375,0.5822-4.375,0.5822c-1.7802-0.1216-3.1882,1.5919-2.6584,3.3589
			c0,0.0025,0.5962,1.9417,1.4707,4.781c0.3806,1.2249,0.8049,2.6028,1.2644,4.0897c-5.698-0.0031,0.1433-0.0012-33.4528-0.0092
			l-1.3408-2.9948c1.5163-0.467,3.8976-1.2197,5.3887-1.7375c2.6515-0.9256,2.3824-4.0827,0-4.0827H36.7908
			c-4.4934,0-0.2946,8.9936,3.9922,7.7061c1.4514-0.4381,0.449-0.1389,0.335-0.1049c0.0525-0.0157,0.2772-0.0829,0.8435-0.2523
			l1.7397,3.8878c-14.1004,26.0166-2.098,3.8638-16.2335,29.9478c-0.9348,1.7264,0.3067,3.8343,2.285,3.8391h30.379
			c1.0556,0,1.5877-0.1392,2.4837-1.019l19.7581-19.4016L85.6511,57.5689z M34.1277,76.0062
			c9.4612-17.4542,2.002-3.6916,12.2505-22.5965c4.6601,10.4052,5.2555,11.745,10.1142,22.5965H34.1277z M61.3569,74.1342
			c-4.3748-9.7761-6.2862-14.0386-10.7127-23.9304h32.7244c0.0139,0.0394,0.0254,0.0765,0.0371,0.1183
			c0.1738,0.5521,0.3433,1.1019,0.5103,1.6517C78.8415,56.9582,66.0107,69.5626,61.3569,74.1342z"/>
		<path fill="#ffffff" d="M41.4836,71.0048c0.1902,0.2924,0.3318,0.6124,0.4988,0.9186h8.0448
			c-0.9859-2.9971-2.6237-5.6925-4.737-7.9381L41.4836,71.0048z"/>
		<path fill="#ffffff" d="M95.3476,57.4738c1.0384,3.3237,1.3492,4.4558,2.5146,7.1703
			c7.8301-0.2851,14.3775,6.0636,14.3916,13.9672c-0.0139,7.7363-6.2702,13.995-14.0087,14.0064
			c-7.7342-0.0114-13.9927-6.2701-14.0066-14.0064c0.0046-2.6307,0.7771-5.0594,2.039-7.1611
			c-1.9939-4.3235-2.5759-6.4535-3.0691-8.0007c-1.9323,1.9184-3.5005,4.2057-4.593,6.7481
			c-1.1089,2.5819-1.7258,5.4259-1.7258,8.4137c0,11.7982,9.5571,21.3554,21.3555,21.3554c11.8002,0,21.3576-9.5572,21.3576-21.3554
			C119.6027,65.8686,108.4182,55.6891,95.3476,57.4738z"/>
		<path fill="#ffffff" d="M29.7551,92.6177c-7.7364-0.0114-13.9927-6.2701-14.0089-14.0064
			c0.0162-7.7294,6.2656-13.9834,13.9926-14.0043l3.7928-6.9985C20.1754,55.2344,8.3973,65.5142,8.3973,78.6113
			c0,11.7982,9.5595,21.3554,21.3578,21.3554c9.4621,0,17.4698-6.1543,20.2744-14.6747H41.987
			C39.6069,89.6323,35.0556,92.6109,29.7551,92.6177z"/>
	</g>
</g>
</svg>
