<?xml version="1.0" encoding="utf-8"?>
<!-- Generator: Adobe Illustrator 18.1.1, SVG Export Plug-In . SVG Version: 6.00 Build 0)  -->
<svg version="1.2" baseProfile="tiny" xmlns="http://www.w3.org/2000/svg" xmlns:xlink="http://www.w3.org/1999/xlink" x="0px"
	 y="0px" width="64px" height="64px" viewBox="0 0 64 64" xml:space="preserve">

<g id="Production">
	<g>
		<path fill="#ffffff" d="M35.2577,19.1722c-0.2174,0.7213-0.4818,1.4199-0.7828,2.108c2.2458,0.7941,4.2104,3.3376,5.5718,6.937
			C38.0596,28.672,36.0349,28.928,34,28.9924v-6.696c-0.5704,1.1454-1.2444,2.2787-2,3.4498v3.2434
			c-0.6965-0.023-1.3916-0.0711-2.0854-0.1349c-0.0139,0.0203-0.0271,0.0397-0.041,0.06c-0.3921,0.5726-0.7971,1.1643-1.2141,1.7811
			c1.1296,0.1506,2.2463,0.2452,3.3406,0.2847V39H14.0643c0.1478-2.669,0.711-5.1852,1.8503-7.4491
			c-0.4358-0.6533-0.8594-1.2777-1.2703-1.8794c-1.7493,3.0662-2.6175,6.605-2.6175,10.3822c0,11.6143,9.3052,21.063,20.9195,21.063
			c0.0117,0,0.0232-0.0018,0.0349-0.0018c0.0063,0,0.0125,0.0018,0.0188,0.0018c0.0203,0,0.0398-0.0056,0.0601-0.0057
			c11.5615-0.0622,20.9297-9.4814,20.9297-21.0573C53.9898,29.2256,45.7819,20.3318,35.2577,19.1722z M14.07,41h7.879
			c0.0844,3.4699,0.578,6.6854,1.4114,9.4722c-1.6804,0.5005-3.3215,1.1448-4.9238,1.9145C15.7957,49.2846,14.2848,45.3304,14.07,41
			z M19.8923,53.9081c1.3422-0.6111,2.7136-1.1261,4.113-1.539c0.9243,2.4337,2.1113,4.454,3.4766,5.9402
			C24.6062,57.4468,22.0234,55.9171,19.8923,53.9081z M32,58.9867c-2.4194-0.595-4.5591-3.3047-6.0286-7.1249
			c1.9644-0.442,3.9771-0.6898,6.0286-0.7491V58.9867z M32,49.1127c-2.2715,0.0618-4.4995,0.3375-6.6708,0.8404
			c-0.8063-2.6817-1.2898-5.7577-1.3783-8.9531H32V49.1127z M51.9418,39H43.995c-0.0897-3.4288-0.5868-6.6255-1.423-9.4059
			c1.6855-0.4943,3.3293-1.1226,4.8934-1.8638C50.0796,30.8052,51.7051,34.716,51.9418,39z M38.4998,21.8206
			c2.8453,0.8683,5.3997,2.3943,7.5109,4.3874c-1.3276,0.602-2.6891,1.1069-4.0753,1.5161
			C41.0205,25.3165,39.8489,23.3055,38.4998,21.8206z M34,30.9902c2.1628-0.0721,4.4236-0.3658,6.6694-0.8928
			c0.774,2.6331,1.2378,5.6772,1.3259,8.9025H34V30.9902z M34,40.97h7.9993c-0.08,3.2526-0.5435,6.3529-1.3208,9.0081
			C38.5056,49.4667,36.2747,49.1848,34,49.116V40.97z M34,58.9916V51.116c2.0583,0.0662,4.0774,0.3212,6.0471,0.7728
			C38.5898,55.7421,36.4456,58.4128,34,58.9916z M38.4998,58.2864c1.3489-1.4849,2.5206-3.4957,3.4355-5.9033
			c1.3833,0.4105,2.7395,0.9193,4.0667,1.5238C43.8923,55.896,41.3412,57.4192,38.4998,58.2864z M47.4561,52.3871
			c-1.5867-0.7625-3.2117-1.4022-4.8755-1.9005c0.8401-2.8032,1.3369-6.0576,1.4182-9.5166h7.9478
			C51.7317,45.3006,50.0972,49.285,47.4561,52.3871z"/>
		<path fill="#ffffff" d="M22,2c-6.6167,0-12,5.3833-12,12c0,7.7199,4.6378,10.9147,12,23.624
			C29.3506,24.9348,33.99,21.7155,33.99,14C33.99,7.3833,28.6167,2,22,2z M12,14c0-5.5142,4.4858-10,10-10s9.99,4.4858,9.99,10
			c0,6.6752-4.2914,10.2089-9.99,19.6636C16.3014,24.209,12,20.6752,12,14z"/>
		<path fill="#ffffff" d="M27,14c0-2.7568-2.2432-5-5-5s-4.98,2.2432-4.98,5s2.2232,5,4.98,5S27,16.7568,27,14z M19.02,14
			c0-1.6543,1.3257-3,2.98-3s3,1.3457,3,3s-1.3457,3-3,3S19.02,15.6543,19.02,14z"/>
	</g>
</g>
</svg>
