<?xml version="1.0" encoding="utf-8"?>
<!-- Generator: Adobe Illustrator 18.1.1, SVG Export Plug-In . SVG Version: 6.00 Build 0)  -->
<svg version="1.2" baseProfile="tiny" xmlns="http://www.w3.org/2000/svg" xmlns:xlink="http://www.w3.org/1999/xlink" x="0px"
	 y="0px" width="128px" height="128px" viewBox="0 0 128 128" xml:space="preserve">
<g id="_x31_28px_boxes">
	<rect fill="none" width="128" height="128"/>
</g>
<g id="Production">
	<g>
		<path fill="#ffffff" d="M42.0687,91.1687c-0.5078,0.8862-0.3892,2.1406,1.5203,1.355c3.8576-1.5884,12.2531-6.4155,26.8755-6.4155
			c14.7785,0,23.0178,4.8271,26.8757,6.4155c1.9092,0.7856,2.0281-0.4688,1.52-1.355c-1.4762-2.5757-11.6985-9.354-28.3955-9.354
			C53.7697,81.8147,43.5448,88.5933,42.0687,91.1687z"/>
		<path fill="#ffffff" d="M51.5963,55.8333c10.5156-7.3624,14.9531-18.6194,10.2798-25.8411
			c-0.2298-0.4201-16.6891-18.756-17.1106-19.0857C33.9627-2.037,3.4426,19.6316,11.6593,33.9924
			c0.1736,0.5095,11.1547,21.3267,11.8908,22.3345c2.427,3.321,6.4676,5.2676,11.5132,5.2676
			C40.3419,61.5945,46.3678,59.4946,51.5963,55.8333z M29.8397,52.1833c-2.2127-3.1601,0.6096-10.3837,8.1975-15.6967
			c7.4071-5.1874,15.307-5.5429,17.5537-2.3345c2.2127,3.1602-0.6099,10.3838-8.1975,15.6968
			C39.9876,55.0345,32.0873,55.393,29.8397,52.1833z"/>
		<path fill="#ffffff" d="M112.7914,85.1496c-4.0875-4.6069-41.3948-42.5632-44.6509-45.875
			c-0.3714,2.8209-1.3124,5.4982-2.6389,8.0154c9.3308,9.5,38.2658,38.9898,41.6799,42.8374
			c2.8855,3.2517,3.6819,6.5015,2.3672,9.659c-8.4925,20.3953-73.7513,17.2569-75.5755-6.0667
			c-0.4514-5.7727-0.2653-20.7512-0.152-27.5151c-2.743-0.1538-5.2596-0.7715-7.4698-1.8181
			c-0.1059,5.6445-0.3813,23.1914,0.1448,29.918c0.6267,8.0146,6.3755,15.1022,16.187,19.9572
			c24.1394,11.9456,65.7908,7.616,73.7893-11.5925C118.9161,96.8005,117.6088,90.5786,112.7914,85.1496z"/>
	</g>
</g>
</svg>
