<?xml version="1.0" encoding="utf-8"?>
<!-- Generator: Adobe Illustrator 18.1.1, SVG Export Plug-In . SVG Version: 6.00 Build 0)  -->
<svg version="1.2" baseProfile="tiny" xmlns="http://www.w3.org/2000/svg" xmlns:xlink="http://www.w3.org/1999/xlink" x="0px"
	 y="0px" width="128px" height="128px" viewBox="0 0 128 128" xml:space="preserve">
<g id="_x31_28px_boxes">
	<rect fill="none" width="128" height="128"/>
</g>
<g id="Production">
	<g>
		<path fill="#ffffff" d="M42.8335,71.236c0.7389-0.5516,1.0891-0.7198,5.654-3.4346c5.3246-3.167,8.8701-0.6346,7.4953,5.4449
			c-1.2863,5.688-1.3206,6.0998-1.8476,7.2829c8.0774,5.9541,16.7181,10.9271,24.879,13.8539
			c8.2127-3.7694,14.962-10.176,19.166-18.1361c6.0602,8.9052,3.336,17.4001-2.6924,20.8769
			c17.7558-1.4647,20.8526-21.9897,7.4096-40.008c-0.0044-2.6714-0.2627-5.2795-0.7559-7.8074c0.0019,0.0019-0.0019-0.0019,0,0
			c-3.6596-18.8591-20.2571-33.0958-40.186-33.0958c-22.6116,0-40.9426,18.3306-40.9426,40.9425
			c0,6.0554,1.3159,11.803,3.6753,16.9745l8.9373-12.1607C35.8693,64.3797,38.4541,67.2304,42.8335,71.236z M61.9556,62.8095
			c-3.1228,0-5.6544-2.5317-5.6544-5.6544c0-3.1227,2.5316-5.6544,5.6544-5.6544c3.1229,0,5.6542,2.5317,5.6542,5.6544
			C67.6098,60.2778,65.0785,62.8095,61.9556,62.8095z M76.2624,47.6263c3.9436-3.4596,6.835-6.8049,11.0664-5.641
			c4.7267,1.2985,7.1325,8.6727,4.0651,12.5111c-2.8197,3.5284-7.4474,2.3843-12.2683,1.9408
			C72.9325,55.8677,71.5927,51.7227,76.2624,47.6263z M75.4296,67.8924c4.5161,2.6858,8.5837,4.4005,8.7842,8.7815
			c0.227,4.9076-6.0525,9.4599-10.6419,7.7321c-4.2272-1.5911-4.5694-6.3458-5.6369-11.0679
			C66.5636,67.2832,70.0822,64.7113,75.4296,67.8924z M55.3798,28.3153c2.7016-4.101,10.4562-4.0973,13.1555,0
			c2.4845,3.7719-0.0342,7.8201-1.946,12.268c-2.4451,5.6914-6.8022,5.7269-9.2642,0
			C55.2515,35.7581,52.9666,31.9797,55.3798,28.3153z M32.528,54.4927c-3.0609-3.828-0.6724-11.2093,4.0652-12.5112
			c4.3549-1.1978,7.4268,2.4483,11.0661,5.6412c4.657,4.0847,3.3449,8.2395-2.8627,8.8111
			C39.5726,56.9143,35.267,57.9215,32.528,54.4927z"/>
		<path fill="#ffffff" d="M63.5562,92.0579C53.2138,86.1636,42.823,78.0308,34.0507,68.9893l-17.2734,23.503
			c21.005,23.8059,58.3294,24.4158,84.0522,8.2236C89.0218,104.1388,74.2786,98.1688,63.5562,92.0579z"/>
	</g>
</g>
</svg>
