<?xml version="1.0" encoding="utf-8"?>
<!-- Generator: Adobe Illustrator 18.1.1, SVG Export Plug-In . SVG Version: 6.00 Build 0)  -->
<svg version="1.2" baseProfile="tiny" xmlns="http://www.w3.org/2000/svg" xmlns:xlink="http://www.w3.org/1999/xlink" x="0px"
	 y="0px" width="128px" height="128px" viewBox="0 0 128 128" xml:space="preserve">
<g id="box">
	<rect fill="none" width="128" height="128"/>
</g>
<g id="Production">
	<g>
		<path fill="#ffffff" d="M51.8572,73.7231c-2.9922,0-5.416,2.4246-5.416,5.4175c0,2.9888,2.4238,5.4134,5.416,5.4134
			c2.9865,0,5.4135-2.4246,5.4135-5.4134C57.2707,76.1477,54.8437,73.7231,51.8572,73.7231z"/>
		<path fill="#ffffff" d="M76.1482,73.7231c-2.9922,0-5.417,2.4246-5.417,5.4175c0,2.9888,2.4248,5.4134,5.417,5.4134
			c2.9873,0,5.4101-2.4246,5.4101-5.4134C81.5583,76.1477,79.1355,73.7231,76.1482,73.7231z"/>
		<path fill="#ffffff" d="M108.5706,48.2959c0-4.8752-3.7544-6.261-5.5577-6.927c-1.9316-0.7134-2.0565-0.8871-2.375-2.1025
			c-0.8232-3.1211-2.5376-9.6158-7.8691-15.274c-4.0679-4.3166-9.395-7.2973-15.9126-8.9199l-0.0034-1.4053
			c-0.0044-1.9824-1.6128-3.5866-3.5952-3.5864l-18.5244,0.0005c-1.9825,0-3.5904,1.6047-3.5953,3.5869l-0.0019,1.4063
			c-6.5147,1.623-11.8384,4.6035-15.9048,8.9187c-4.485,4.7595-6.4469,9.9141-7.9292,15.5024
			c-0.2769,1.0452-0.603,1.2415-2.3145,1.8733c-1.8042,0.666-5.5571,2.0518-5.5571,6.927c0,2.4312-0.0478,8.3323-0.0488,8.3914
			c-0.0132,1.7006,1.166,3.1782,2.8271,3.541c1.4788,0.3227,2.8619,0.7246,4.187,1.1821c-3.541,3.6755-3.8272,9.455-3.0375,14.5186
			c1.019,6.5263,4.458,9.9887,7.3173,11.508c5.7555,20.0541,23.0912,30.4822,33.3467,30.4822
			c10.0081,0,27.6922-9.8056,33.3316-30.4981c2.854-1.5273,6.2729-4.9882,7.2876-11.4917
			c0.7954-5.0953,0.504-10.9769-3.1563-14.6416c1.3213-0.424,2.6939-0.7773,4.1509-1.0293
			c1.7348-0.2998,2.9966-1.8112,2.9824-3.5712C108.6184,56.6277,108.5706,50.7271,108.5706,48.2959z M97.5383,74.8206
			c-0.8032,5.1464-3.5107,6.2797-4.0376,6.4531l-2.1406,0.3218c-5.0342,21.7484-20.371,29.1347-27.3379,29.1347
			c-5.9815,0-21.8823-6.6706-27.3808-28.9853l-2.1875-0.4781c-0.0313-0.0065-3.1299-0.9228-3.9917-6.4462
			c-0.5987-3.835-0.2356-6.8594,0.9956-8.2979c0.4004-0.4675,1.1347-1.081,2.893-1.1313v5.7226
			c0,1.6362,1.3272,2.9624,2.9634,2.9624c1.6357,0,2.9624-1.3262,2.9624-2.9624v-3.3293
			c5.9048,2.6731,13.0464,5.0188,23.7232,5.0188c10.5063,0,17.5888-2.3951,23.4746-5.1065v3.417
			c0,1.6362,1.3261,2.9624,2.9624,2.9624c1.6362,0,2.9624-1.3262,2.9624-2.9624v-5.7275h0.0156
			c1.9311,0,2.7109,0.6487,3.1284,1.1367C97.7742,67.9617,98.137,70.9856,97.5383,74.8206z M63.9998,65.614
			c-18.8276,0-24.3655-7.8962-37.4083-11.685c0.0137-1.8267,0.0269-4.1131,0.0279-5.4832c1.688-0.7325,6.19-1.6631,7.6328-7.1106
			l0.061-0.2339c1.2627-4.7832,3.8614-14.6211,16.8072-18.5803l-0.0586,28.2473c-0.0039,1.9851,1.602,3.5977,3.5864,3.6021
			c0.0034,0,0.0054,0,0.0088,0c1.9809,0,3.5893-1.6045,3.5937-3.5874v-0.0074c0.0711-33.9922,0.0598-28.5116,0.0689-33.2837
			l0.001-0.2216c7.75,0,3.6063-0.0003,11.3505-0.0003c0.0033,0.9983,0.0387,16.7801,0.0767,33.5056v0.0083
			c0.0054,1.9825,1.6138,3.5865,3.5955,3.5865c0.0026,0,0.0051,0,0.0075,0c1.9854-0.0047,3.5913-1.6177,3.5869-3.6031
			l-0.0649-28.2485c12.9512,3.958,15.5518,13.7983,16.814,18.582l0.062,0.2344c1.4404,5.4427,5.9372,6.3756,7.6325,7.1106
			c0.0003,1.3586,0.0142,3.5752,0.0267,5.3772C88.6296,57.1378,82.6507,65.614,63.9998,65.614z"/>
	</g>
</g>
</svg>
