<?xml version="1.0" encoding="utf-8"?>
<!-- Generator: Adobe Illustrator 18.1.0, SVG Export Plug-In . SVG Version: 6.00 Build 0)  -->
<svg version="1.2" baseProfile="tiny" xmlns="http://www.w3.org/2000/svg" xmlns:xlink="http://www.w3.org/1999/xlink" x="0px"
	 y="0px" width="64px" height="64px" viewBox="0 0 64 64" xml:space="preserve">
<g id="_x36_4px_boxes">
	<rect fill="none" width="64" height="64"/>
</g>
<g id="Production">
	<g>
		<path fill="#ffffff" d="M13.7202,59c-2.6045,0-5.0479-1.0088-6.8794-2.8408c-3.793-3.793-3.793-9.9658-0.0005-13.7588
			l16.5063-16.5068c-2.0171-6.2949-0.7744-12.79,3.3452-16.9092C29.8589,5.8164,34.2056,4,38.6172,4
			c2.9585,0,5.8394,0.8408,8.3301,2.4307l2.623,1.6748l-9.9126,9.9121l5.3242,5.3252l9.9126-9.9121l1.6743,2.6221
			c4.5293,7.0928,2.144,15.5586-2.5532,20.2549c-2.7617,2.7627-6.6631,4.2842-10.9849,4.2842c0,0,0,0-0.0005,0
			c-1.9595,0-3.979-0.3232-5.9229-0.9404L20.5991,56.1592C18.7676,57.9912,16.3247,59,13.7202,59z M38.6172,9
			c-3.0498,0-6.186,1.3154-8.3896,3.5195c-2.9893,2.9893-3.6626,8.2393-1.6748,13.0635l0.6348,1.541L10.376,45.9355
			c-1.8433,1.8438-1.8433,4.8447,0.0005,6.6885C11.2637,53.5117,12.4512,54,13.7202,54c1.2686,0,2.4561-0.4883,3.3433-1.376
			l18.812-18.8115l1.541,0.6348c1.8174,0.748,3.7583,1.1445,5.6143,1.1445c2.9858,0,5.6318-1.002,7.4492-2.8193
			c2.6338-2.6338,4.248-6.9297,3.1831-11.04l-8.6812,8.6807L32.5864,18.0176l8.6841-8.6836C40.4165,9.1113,39.5303,9,38.6172,9z"/>
	</g>
</g>
</svg>

