<?xml version="1.0" encoding="utf-8"?>
<!-- Generator: Adobe Illustrator 18.1.1, SVG Export Plug-In . SVG Version: 6.00 Build 0)  -->
<svg version="1.2" baseProfile="tiny" xmlns="http://www.w3.org/2000/svg" xmlns:xlink="http://www.w3.org/1999/xlink" x="0px"
	 y="0px" width="128px" height="128px" viewBox="0 0 128 128" xml:space="preserve">
<g id="box">
	<rect fill="none" width="128" height="128"/>
</g>
<g id="Production">
	<g>
		<path fill="#ffffff" d="M40.0194,62.463c-1.1105,1.0999-1.854,3.7008,0.0079,5.5507l3.9934,3.993
			c1.8217,1.8227,4.4492,1.0953,5.5586,0c1.2168-1.2314,1.7548-3.7969-0.0081-5.5664l-3.98-3.9773
			C43.7848,60.6686,41.2265,61.2656,40.0194,62.463z"/>
		<path fill="#ffffff" d="M51.0356,76.6657c-3.6636,2.0728-7.7727,1.1942-10.3186-1.3637l-3.9876-3.985
			c-2.6091-2.5965-3.4053-6.6939-1.3667-10.3239c-2.3279-2.3245-1.1904-1.1872-5.2109-5.211
			c-8.2891,9.9232-8.169,24.6066,4.6325,37.4135l4.6778,4.678c4.2685-4.2721,1.0166-1.0188,16.3889-16.3945L51.0356,76.6657z"/>
		<path fill="#ffffff" d="M59.152,78.181c15.3679-15.3739,12.1214-12.1263,16.3943-16.4l-4.6726-4.6697
			c-12.9556-12.9558-27.7683-12.8127-37.4185-4.6327l5.24,5.2429c3.5266-1.9398,7.597-1.1617,10.1941,1.4356l3.9851,3.9877h0.0105
			c2.533,2.561,3.3833,6.5955,1.4199,10.1885L59.152,78.181z"/>
		<path fill="#ffffff" d="M103.7187,35.5697c-2.6692-2.6719-8.1453-8.1403-15.1263-15.1187c-1.4592-1.4592-3.8259-1.4592-5.2824,0
			c-1.4593,1.4596-1.4593,3.8237,0,5.2827c6.9856,6.9863,12.4592,12.4468,15.126,15.1159c2.8488,2.811,4.1857,7.0961,1.1594,10.191
			c-3.3824,3.2888-7.7881,1.2923-10.1963-1.1514c-4.147-4.155-22.6323-22.7037-29.6924-29.7697
			c-8.814-8.7345-23.7749-9.8145-33.5347,0c-9.6411,9.5772-8.8718,24.411-0.1565,33.3515c1.7124-2.162,3.1453-3.574,5.3118-5.2612
			c-5.7678-5.9213-6.6455-16.0084,0.1274-22.8023c6.9603-6.9437,17.2134-5.7682,22.972,0
			C61.476,32.46,79.9533,51.009,84.1169,55.1717c6.0153,5.9841,14.9199,7.0458,20.7531,1.1595
			C110.8417,50.4368,109.6227,41.5205,103.7187,35.5697z"/>
		<path fill="#ffffff" d="M78.8527,65.0816l-36.0928,36.095l3.4016,3.4016c13.4602,13.4519,29.0457,12.8867,39.0137,2.9187
			c9.9656-9.9658,10.5359-25.5481-2.9187-39.0137L78.8527,65.0816z"/>
	</g>
</g>
</svg>
