<?xml version="1.0" encoding="utf-8"?>
<!-- Generator: Adobe Illustrator 18.1.1, SVG Export Plug-In . SVG Version: 6.00 Build 0)  -->
<svg version="1.2" baseProfile="tiny" xmlns="http://www.w3.org/2000/svg" xmlns:xlink="http://www.w3.org/1999/xlink" x="0px"
	 y="0px" width="128px" height="128px" viewBox="0 0 128 128" xml:space="preserve">
<g id="_x31_28px_boxes">
	<rect fill="none" width="128" height="128"/>
</g>
<g id="Production">
	<g>
		<path fill="#ffffff" d="M117.6714,94.7214L101.835,78.8849c-2.87,5.5484-7.4177,10.0604-12.8646,12.8931l15.8235,15.8293
			c3.5186,3.5236,9.2726,3.5724,12.8711,0.0088C121.2774,103.9859,121.174,98.2131,117.6714,94.7214z"/>
		<path fill="#ffffff" d="M92.6899,47.4298c-9.729-9.7291-25.5034-9.7291-35.2329,0c-9.7297,9.7297-9.7297,25.5037,0,35.2333
			c9.7295,9.7294,25.5034,9.7294,35.2329,0C102.4192,72.9335,102.4192,57.1595,92.6899,47.4298z M87.0718,77.0446
			c-6.6265,6.6269-17.3701,6.6269-23.9969,0c-6.6262-6.6263-6.6264-17.3701,0-23.9965c6.6268-6.6267,17.3704-6.6267,23.9969,0
			C93.6982,59.6745,93.6982,70.4183,87.0718,77.0446z"/>
		<rect x="66.6636" y="17.7306" fill="#ffffff" width="5" height="5"/>
		<path fill="#ffffff" d="M76.6636,34.9471c1,0.0599,3,0.2538,4,0.5824V17.7306h-4v5h-5v4h5V34.9471z"/>
		<rect x="56.6636" y="17.7306" fill="#ffffff" width="5" height="5"/>
		<path fill="#ffffff" d="M41.6636,56.7306v10h3.3213c-0.1521-4,0.2375-7,1.1667-10H41.6636z"/>
		<path fill="#ffffff" d="M51.6636,41.7306h4.1552c4.5313-4,9.8448-5.8616,15.8448-6.5635v-8.4365h-5v5h-10v-5h-5v-9h-5v19h5
			V41.7306z"/>
		<polygon fill="#ffffff" points="36.6636,80.7306 31.6636,80.7306 31.6636,90.7306 41.6636,90.7306 41.6636,85.7306 
			36.6636,85.7306 		"/>
		<path fill="#ffffff" d="M45.6162,71.7306h-8.9526v4h5v10h5v5h13.0918c-2.1343-1-4.1465-2.4888-5.981-4.3235
			C49.5049,82.1378,46.7866,76.7306,45.6162,71.7306z"/>
		<rect x="7.6636" y="56.7306" fill="#ffffff" width="5" height="5"/>
		<polygon fill="#ffffff" points="17.6636,71.7306 21.6636,71.7306 21.6636,75.7306 31.6636,75.7306 31.6636,66.7306 
			36.6636,66.7306 36.6636,61.7306 31.6636,61.7306 31.6636,56.7306 26.6636,56.7306 26.6636,66.7306 7.6636,66.7306 
			7.6636,71.7306 12.6636,71.7306 12.6636,75.7306 7.6636,75.7306 7.6636,80.7306 12.6636,80.7306 12.6636,85.7306 7.6636,85.7306 
			7.6636,90.7306 17.6636,90.7306 17.6636,85.7306 26.6636,85.7306 26.6636,80.7306 17.6636,80.7306 		"/>
		<path fill="#ffffff" d="M41.6636,17.7306h-34v34h34V17.7306z M36.6636,46.7306h-24v-24h24V46.7306z"/>
		<rect x="17.6636" y="26.7306" fill="#ffffff" width="14" height="15"/>
	</g>
</g>
</svg>
