<?xml version="1.0" encoding="utf-8"?>
<!-- Generator: Adobe Illustrator 18.1.1, SVG Export Plug-In . SVG Version: 6.00 Build 0)  -->
<svg version="1.2" baseProfile="tiny" xmlns="http://www.w3.org/2000/svg" xmlns:xlink="http://www.w3.org/1999/xlink" x="0px"
	 y="0px" width="128px" height="128px" viewBox="0 0 128 128" xml:space="preserve">
<g id="_x31_28px_boxes">
	<rect fill="none" width="128" height="128"/>
</g>
<g id="Production">
	<g>
		<path fill="#ffffff" d="M86.3311,77.4012c33.8979-36.5746,28.9912-55.9143,28.2516-65.378
			c-13.9521,3.3384-36.0864,17.8485-49.9358,31.6977c-4.3474,4.3475-43.3643,43.3645-48.2665,48.2667
			c-5.3958,5.3952-4.2496,13.2735-0.0003,17.5225c5.1223,5.1222,12.9751,4.5471,17.5225-0.0003l21.6003-21.6002l9.812,9.8116
			c0,0,6.7124-6.0685,8.6443-7.8898c-0.1345,7.6484-7.6842,25.2285,4.6951,26.1454c4.405-0.073,6.1118-2.9326,6.6348-6.305
			C86.8132,99.8342,78.0037,87.7771,86.3311,77.4012z M42.4306,88.4548c-1.3793,1.3794-3.6159,1.3793-4.9951-0.0002
			c-1.3794-1.379-1.3794-3.6155,0-4.9949c1.3792-1.3792,3.6155-1.3792,4.9949,0C43.8098,84.8391,43.8098,87.0756,42.4306,88.4548z
			 M22.6887,98.2067c1.3794-1.3795,3.6155-1.3795,4.9949,0c1.3794,1.3793,1.3796,3.6156,0.0002,4.9951
			c-1.3794,1.3793-3.6157,1.3791-4.9951-0.0002C21.3093,101.8222,21.3093,99.586,22.6887,98.2067z M48.5872,70.3872l21.363-21.363
			c2.6406-2.6406,5.4272-5.195,8.3027-7.6302c26.9939,25.628-13.5652,17.1652-15.25,43.4086L48.5872,70.3872z M96.0391,28.5906
			c2.7146,7.1974,6.7712,22.0697-12.462,8.5083C87.6714,33.9574,91.8733,31.09,96.0391,28.5906z"/>
	</g>
</g>
</svg>

