<?xml version="1.0" encoding="utf-8"?>
<!-- Generator: Adobe Illustrator 17.1.0, SVG Export Plug-In . SVG Version: 6.00 Build 0)  -->
<!DOCTYPE svg [
	<!ENTITY ns_flows "http://ns.adobe.com/Flows/1.0/">
	<!ENTITY ns_extend "http://ns.adobe.com/Extensibility/1.0/">
	<!ENTITY ns_ai "http://ns.adobe.com/AdobeIllustrator/10.0/">
	<!ENTITY ns_graphs "http://ns.adobe.com/Graphs/1.0/">
]>
<svg version="1.2" baseProfile="tiny" xmlns:x="&ns_extend;" xmlns:i="&ns_ai;" xmlns:graph="&ns_graphs;"
	 xmlns="http://www.w3.org/2000/svg" xmlns:xlink="http://www.w3.org/1999/xlink" xmlns:a="http://ns.adobe.com/AdobeSVGViewerExtensions/3.0/"
	 x="0px" y="0px" width="128px" height="128px" viewBox="0 0 128 128" xml:space="preserve">
<g id="_x31_28px_boxes">
	<rect fill="none" width="128" height="128"/>
</g>
<g id="Production">
	<g>
		<path fill="#ffffff" d="M94.9235,23.125h-7.1831v-5.5571c0-3.104-2.5557-5.6929-5.6595-5.6929H71.1823
			c-3.1038,0-5.6919,2.5889-5.6919,5.6929v5.5571h-7.1517c-5.8295,0-10.5983,4.7774-10.5983,10.6072v6.5421
			c2.8335-0.2233,5.7238-0.0371,8.5,0.5339v-7.076c0-1.143,0.9555-2.1072,2.0983-2.1072h36.5848
			c1.143,0,2.0669,0.9642,2.0669,2.1072v24.0454l-16.5015,7.4847c2.4172,12.5541-3.1555,25.8388-14.811,32.6298
			c-5.8486,3.4087-12.3565,4.5732-17.9375,4.1186v3.7168c0,5.8296,4.7688,10.3975,10.5983,10.3975h36.5848
			c5.83,0,10.5669-4.5679,10.5669-10.3975V33.7322C105.4904,27.9024,100.7535,23.125,94.9235,23.125z"/>
		<path fill="#ffffff" d="M75.837,67.381l0.0105-0.0048C73.8844,53.8478,61.464,44.084,47.9235,45.2198l-0.0027,9.4095
			c10.1646-1.3357,19.0527,6.8043,18.8196,16.8724l-0.011,0.005c-0.2127,9.0789-7.6177,16.2936-16.679,16.2936
			c-5.7456,0-11.2965-3.012-14.3623-8.272c-3.062-5.2534-3.0085-10.9932-0.5102-15.9059l3.77,2.2511
			c1.046,0.6409,3.2114,0.0777,3.2114-1.7956c0-0.0523-0.002-0.0646-0.0056-0.1159l-0.0718-17.0484
			c-0.0062-1.5517-1.6514-2.5725-3.0542-1.8644l-15.3618,7.7483c-1.4724,0.7425-1.5554,2.8172-0.1521,3.6771l3.6636,2.2452
			c-4.209,7.7346-4.3894,17.2672,0.3589,25.414l0.0605,0.1133c4.6594,7.9906,13.3269,12.915,22.4536,12.915
			C65.9462,97.1621,78.1078,83.0501,75.837,67.381z"/>
	</g>
</g>
</svg>
