<?xml version="1.0" encoding="utf-8"?>
<!-- Generator: Adobe Illustrator 18.1.0, SVG Export Plug-In . SVG Version: 6.00 Build 0)  -->
<svg version="1.2" baseProfile="tiny" xmlns="http://www.w3.org/2000/svg" xmlns:xlink="http://www.w3.org/1999/xlink" x="0px"
	 y="0px" width="64px" height="64px" viewBox="0 0 64 64" xml:space="preserve">
<g id="_x36_4px_boxes">
	<rect fill="none" width="64" height="64"/>
</g>
<g id="Production">
	<g>
		<path fill="#ffffff" d="M45.2297,19.7062L31.5659,33.4086l3.5316,3.5351l10.185-10.196
			c9.0204,11.5316,0.6572,28.2444-13.7751,28.2444c-4.5624,0-8.985-1.7331-12.3635-5.1154
			c-13.3166-13.3299,1.2153-35.7145,18.8804-28.614l3.7622-3.7659c-8.4681-4.3714-19.0784-3.0071-26.1752,4.0951
			C1.3994,35.818,11.6705,59.9921,31.5054,59.9921C52.5726,59.9921,62.3715,33.0032,45.2297,19.7062z"/>
		<rect x="29" y="2" fill="#ffffff" width="5" height="8"/>
		
			<rect x="51.2407" y="11.2196" transform="matrix(0.7071 0.7071 -0.7071 0.7071 26.5008 -33.5418)" fill="#ffffff" width="4.9995" height="7.9999"/>
		
			<rect x="5.1915" y="12.7189" transform="matrix(0.7071 0.7071 -0.7071 0.7071 13.453 -2.0423)" fill="#ffffff" width="8.0006" height="4.9995"/>
	</g>
</g>
</svg>

