<?xml version="1.0" encoding="utf-8"?>

<svg version="1.2" baseProfile="tiny" xmlns="http://www.w3.org/2000/svg" xmlns:xlink="http://www.w3.org/1999/xlink" x="0px"
	 y="0px" width="128px" height="128px" viewBox="0 0 128 128" xml:space="preserve">
<g id="_x31_28px_boxes">
	<rect fill="none" width="128" height="128"/>
</g>
<g id="Production">
	<path fill="#ffffff" d="M108.1442,63.6964L70.2807,84.6446l-13.189-2.9629v7.803l12.9312,2.9055
		c0.9441,0.2097,1.8872,0.0541,2.6777-0.3833c4.5479-2.5162,36.0119-19.924,39.1299-21.6487
		c1.8393-1.0178,2.5059-3.3342,1.4878-5.1738C112.301,63.3453,109.9848,62.6796,108.1442,63.6964z M113.0668,35.0228
		L65.6142,24.5836c-0.8049-0.1775-1.6467-0.0884-2.3975,0.2544L18.83,45.078c-0.6493,0.2947-1.054,0.6651-1.4714,1.1807
		c-8.3125,11.0701-5.7216,25.006-0.9736,32.8796c0.5486,0.9071,1.4611,1.5293,2.4236,1.7447l9.5708,2.1501v18.9109
		c0,1.8744,2.0179,3.0642,3.6587,2.1533l7.5781-4.2085l8.7261,8.8804c1.5276,1.5545,4.22,0.495,4.22-1.7268V75.0809
		c0-2.5324,1.5232-3.5876,1.7922-3.7542c0.9387-0.4636,1.4387-1.4492,1.3086-2.49c-0.1309-1.0483-0.9604-1.8738-1.9951-2.0854
		L34.4052,62.806c-0.4229-0.0872-0.8615-0.0615-1.271,0.0752c-1.7661,0.5877-4.7549,2.7114-4.7549,6.947v5.4019l-6.1816-1.3892
		c-1.6003-3.3833-4.9968-12.5249-0.0452-21.0503l49.6172,10.2017c0.8315,0.172,1.7239,0.0617,2.5144-0.3467l39.7122-20.5232
		C117.1547,40.4893,116.5373,35.7858,113.0668,35.0228z"/>
</g>
</svg>
