<?xml version="1.0" encoding="utf-8"?>
<!-- Generator: Adobe Illustrator 18.1.1, SVG Export Plug-In . SVG Version: 6.00 Build 0)  -->
<svg version="1.2" baseProfile="tiny" xmlns="http://www.w3.org/2000/svg" xmlns:xlink="http://www.w3.org/1999/xlink" x="0px"
	 y="0px" width="128px" height="128px" viewBox="0 0 128 128" xml:space="preserve">
<g id="_x31_28px_boxes">
	<rect fill="none" width="128" height="128"/>
</g>
<g id="Production">
	<g>
		<path fill="#ffffff" d="M127.7516,79.4713c-0.5727-1.5085-2.0336-2.487-3.6489-2.4494l-28.56,0.7243l2.851-21.5207
			c0.1973-1.49-0.5019-2.9566-1.7841-3.7412c-1.2823-0.7842-2.9063-0.7395-4.1431,0.114L77.257,63.0978L72.069,18.319
			c-0.2009-1.7322-1.5544-3.1055-3.2837-3.3313c-1.7285-0.2263-3.3899,0.7539-4.0285,2.3765L48.0392,59.8239L23.645,43.5458
			c-1.3016-0.8689-3.0022-0.8513-4.2854,0.0449c-1.2828,0.8958-1.886,2.4861-1.5193,4.0071l7.7683,32.2349l-22.824,6.3354
			c-1.3772,0.3821-2.4236,1.5054-2.7082,2.9058c-0.2847,1.4003,0.2402,2.8432,1.3588,3.7331l15.4495,12.2881l-11.7729,7.9495
			c16.0117,0,10.6701,0,15.217,0c6.7419-4.5507,4.2913-2.8964,10.9502-7.3916c-7.698-6.1216-4.9395-3.9279-17.2944-13.7532
			c20.4858-5.6861,16.1211-4.4748,21.8349-6.0603c-2.2744-9.4363-4.5556-18.9027-6.8718-28.5139
			c19.5742,13.0618,15.6072,10.4147,23.1492,15.4473c2.8559-7.2541,10.8264-27.4977,13.6794-34.7442
			c1.4004,12.0858,3.2539,28.0829,4.6502,40.1365c11.0612-7.6357,5.2617-3.6323,18.1247-12.512
			c-1.7031,12.8573-1.7012,12.8431-2.7639,20.8621c6.9592-0.1763,1.9016-0.048,25.106-0.6367
			c-7.0884,5.9837-12.5527,10.5965-20.5833,17.3754c5.7195,4.4204,2.6716,2.0646,12.667,9.7906c1.959,0,3.5206,0,4.7624,0
			c3.25,0,4.2714,0,4.2037,0c1.2844,0,2.9099,0,4.9648,0L103.863,102.962l22.7876-19.2363
			C127.8835,82.6852,128.3251,80.9794,127.7516,79.4713z"/>
		<polygon fill="#ffffff" points="85.7807,95.8278 76.8981,96.0529 78.6052,83.1637 64.528,92.8815 61.8019,69.3583 
			55.4247,85.5563 41.3356,76.1544 45.3322,92.737 33.7534,95.7687 46.5349,106.4638 38.8105,113.0446 88.0583,113.0446 
			76.5749,103.5983 		"/>
	</g>
</g>
</svg>
