<?xml version="1.0" encoding="utf-8"?>
<!-- Generator: Adobe Illustrator 18.1.1, SVG Export Plug-In . SVG Version: 6.00 Build 0)  -->
<svg version="1.2" baseProfile="tiny" xmlns="http://www.w3.org/2000/svg" xmlns:xlink="http://www.w3.org/1999/xlink" x="0px"
	 y="0px" width="128px" height="128px" viewBox="0 0 128 128" xml:space="preserve">
<g id="_x31_28px_boxes">
	<rect fill="none" width="128" height="128"/>
</g>
<g id="Production">
	<g>
		<path fill="#ffffff" d="M87.1847,88.9285c2.6531-0.8509,4.5794-3.376,4.5794-6.3076c0-3.6314-2.9544-6.6209-6.5855-6.6209H42.4887
			c-3.6311,0-6.5855,2.9895-6.5855,6.6209c0,2.9319,1.9265,5.4392,4.5796,6.2899c-3.2947,3.2308-6.6477,7.3658-8.3201,12.5269
			C31.2475,104.264,33.3595,107,36.3249,107h55.0175h0.0049c3.0816,0,5.1897-2.9307,4.0786-5.7914
			C93.7292,96.1532,90.4286,92.1096,87.1847,88.9285z"/>
		<path fill="#ffffff" d="M98.4564,24.0752C98.0443,22.7772,96.8393,22,95.4774,22H84.1132c-1.7322,0-3.134,1.135-3.1255,2.867
			L81.037,34H73v-9.0077C73,23.2662,71.5307,22,69.8046,22H58.4403C56.7143,22,55,23.2662,55,24.9923V34h-7.9654l-0.0222-9.1568
			C47.0082,23.12,45.61,22,43.8869,22H32.5224c-1.3618,0-2.5669,0.7774-2.979,2.0753c-0.1131,0.3566-2.7146,8.7806,2.2707,17.4371
			c4.3848,7.613,11.5254,10.0132,13.3623,10.5858L44.0968,69h40.0513l-1.0845-17.0049c2.1543-0.7115,8.9107-3.2787,13.1221-10.5917
			C101.1715,32.7468,98.5695,24.4318,98.4564,24.0752z"/>
	</g>
</g>
</svg>
