<?xml version="1.0" encoding="utf-8"?>
<!-- Generator: Adobe Illustrator 18.1.1, SVG Export Plug-In . SVG Version: 6.00 Build 0)  -->
<svg version="1.2" baseProfile="tiny" xmlns="http://www.w3.org/2000/svg" xmlns:xlink="http://www.w3.org/1999/xlink" x="0px"
	 y="0px" width="128px" height="128px" viewBox="0 0 128 128" xml:space="preserve">
<g id="_x31_28px_boxes">
	<rect fill="none" width="128" height="128"/>
</g>
<g id="Production">
	<g>
		<path fill="#ffffff" d="M61.5341,76.7001l-2.3763,10.1255c-0.8391,3.6406,2.4023,6.84,5.9794,6.0351
			c2.7007-0.6075,4.3974-3.2892,3.7901-5.9899l-2.2827-10.147C66.0317,74.0231,62.1683,73.9977,61.5341,76.7001z"/>
		<path fill="#ffffff" d="M77.8238,42.6188l7.874-6.7946c2.8187-2.4526,2.0772-6.9455-1.29-8.3973
			c-2.542-1.0958-5.4912,0.0763-6.5869,2.6183l-4.1177,9.5507C72.6115,42.1409,75.7223,44.4324,77.8238,42.6188z"/>
		<path fill="#ffffff" d="M94.034,61.6959l-10.3552-0.9648c-2.7628-0.2519-3.973,3.4165-1.6021,4.8531l8.8953,5.3891
			c3.2033,1.923,7.2474-0.1711,7.5875-3.8219C98.8164,64.395,96.7901,61.9525,94.034,61.6959z"/>
		<path fill="#ffffff" d="M34.2515,61.4745c-3.7218,0.3273-5.7628,4.3987-3.8916,7.5522c1.4123,2.3806,4.4872,3.1656,6.8682,1.753
			l8.9437-5.3064c2.3789-1.4171,1.2098-5.0997-1.5565-4.8678L34.2515,61.4745z"/>
		<path fill="#ffffff" d="M42.7368,35.6608l7.8108,6.8668c2.0837,1.8245,5.2235-0.4259,4.1485-2.9848l-4.029-9.588
			c-1.4622-3.4384-5.9641-4.1215-8.3853-1.3676C40.4542,30.6661,40.6578,33.8331,42.7368,35.6608z"/>
		<path fill="#ffffff" d="M109.0501,49.2537c4.3421-0.904,6.5603-5.5274,4.7788-9.4004c-1.5517-3.3737-5.5444-4.8506-8.918-3.2987
			L72.9293,51.2654c0.9345,1.475,1.4897,3.1786,1.5907,4.9543L109.0501,49.2537z"/>
		<path fill="#ffffff" d="M72.153,63.4492c-1.13,1.3703-2.5836,2.4154-4.2085,3.052l17.302,30.6994
			c2.2085,3.863,7.295,4.521,10.417,1.6399c2.729-2.5182,2.8999-6.772,0.3814-9.5008L72.153,63.4492z"/>
		<path fill="#ffffff" d="M19.2559,49.2639l34.532,6.8994c0.1167-1.7493,0.6773-3.4607,1.6212-4.9417L23.3715,36.5571
			c-4.0563-1.8268-8.5589,0.6292-9.3916,4.7962C13.2525,44.9948,15.6146,48.5364,19.2559,49.2639z"/>
		<path fill="#ffffff" d="M61.5861,46.761c1.6576-0.4215,3.4389-0.4381,5.1996,0.0267l4.0479-35.0119
			c0.4837-4.4244-3.2453-7.9456-7.4639-7.4499c-3.688,0.4334-6.3265,3.7743-5.8931,7.4622L61.5861,46.761z"/>
		<path fill="#ffffff" d="M56.2525,63.5762c-15.2106,13.6281-29.158,35.3879-35.7959,60.1446h14.5923
			c2.8952-21.8225,12.3394-43.1018,24.3989-57.6374C58.1998,65.4529,57.1231,64.5941,56.2525,63.5762z"/>
		<path fill="#ffffff" d="M92.4323,25.6608c3.7232,0,6.7521-3.0291,6.7521-6.7524c0-3.723-3.0289-6.752-6.7521-6.752
			c-3.7233,0-6.7523,3.029-6.7523,6.752C85.68,22.6317,88.709,25.6608,92.4323,25.6608z"/>
		<path fill="#ffffff" d="M115.5618,70.0635c-0.9072-2.7921-3.4873-4.6681-6.4204-4.6681c-4.6148,0-7.8317,4.5066-6.4229,8.8412
			c1.1604,3.5727,4.9707,5.4847,8.5081,4.3355C114.7675,77.4213,116.7125,73.6044,115.5618,70.0635z"/>
		<path fill="#ffffff" d="M63.6455,97.7153c-3.248,0-6.1319,2.3492-6.6618,5.6966c-0.6529,4.1213,2.5432,7.809,6.6765,7.8094h0.0005
			c5.4687,0,8.7007-6.2544,5.4547-10.7223C67.8488,98.756,65.804,97.7153,63.6455,97.7153z"/>
		<path fill="#ffffff" d="M25.5302,70.1448c-0.5314-3.3548-3.4207-5.6963-6.6618-5.6963c-4.1321,0-7.3294,3.6889-6.6764,7.8093
			c0.531,3.3558,3.4207,5.6964,6.6618,5.6964C22.979,77.9545,26.1839,74.274,25.5302,70.1448z"/>
		<path fill="#ffffff" d="M36.6612,25.0781c2.9332,0.0001,5.5139-1.8758,6.4209-4.6681c1.415-4.3565-1.8455-8.841-6.4243-8.841
			c-2.9329,0-5.5125,1.8756-6.4196,4.6676C28.8253,20.5857,32.0767,25.0774,36.6612,25.0781z"/>
	</g>
</g>
</svg>

