<?xml version="1.0" encoding="utf-8"?>
<!-- Generator: Adobe Illustrator 18.1.1, SVG Export Plug-In . SVG Version: 6.00 Build 0)  -->
<svg version="1.2" baseProfile="tiny" xmlns="http://www.w3.org/2000/svg" xmlns:xlink="http://www.w3.org/1999/xlink" x="0px"
	 y="0px" width="128px" height="128px" viewBox="0 0 128 128" xml:space="preserve">
<g id="_x31_28px_boxes">
	<rect fill="none" width="128" height="128"/>
</g>
<g id="Production">
	<g>
		<path fill="#ffffff" d="M66.6098,28.4784c3.9,5.2604,11.1833,6.1712,16.2498,2.4125c5.2126-3.8557,6.2209-11.1205,2.4365-16.2367
			c-3.7273-5.0663-10.996-6.3125-16.2488-2.4329C63.9108,16.0335,62.8164,23.327,66.6098,28.4784z"/>
		<path fill="#ffffff" d="M85.2961,14.6542c3.7816,5.1124,2.7794,12.3786-2.4365,16.2367
			c-5.0647,3.7573-12.3483,2.85-16.2498-2.4125c-3.7934-5.1514-2.699-12.4449,2.4375-16.2571
			C74.2598,8.3714,81.536,9.5433,85.2961,14.6542z"/>
		<path fill="#ffffff" d="M104.9521,47.6207l-0.0164,0.0103c-4.1562,2.2904-8.8203,4.9672-13.4047,4.0659
			c-5.9915-1.1778-13.6238-11.1821-20.1595-14.7952c-6.3137-3.4903-12.7517-5.5861-17.7553-5.5861l-32.5086,0.0005
			c-5.5636,0.218-5.5386,8.2637-0.1443,8.6793l29.9759,1.5144L27.9875,82.1001c-3.6863,6.5189,5.79,12.2898,9.9539,6.2183
			l7.5861-13.4163c1.2196-2.1568,4.4856-0.3136,3.2642,1.8457l-18.3774,32.5088c-3.8215,6.7573,6.4031,12.5481,10.228,5.7835
			l34.4199-60.8724c16.9282,15.0553,31.356,2.2386,34.4194,0.0131C113.4681,51.1011,109.2202,44.9785,104.9521,47.6207z"/>
		<path fill="#ffffff" d="M86.8654,97.302L82.851,86.0928c-0.2668-0.7456-0.9734-1.2429-1.7651-1.2429h-6.042
			c-0.7917,0-1.4983,0.4973-1.7651,1.2426L69.2639,97.302H86.8654z"/>
		<path fill="#ffffff" d="M93.4763,110.3806h-1.9268l-2.2876-6.3872H66.8674l-2.2876,6.3872H62.653c-4.9551,0-4.9603,7.5,0,7.5
			h30.8233C98.4315,117.8806,98.4366,110.3806,93.4763,110.3806z"/>
	</g>
</g>
</svg>
