<?xml version="1.0" encoding="utf-8"?>
<!-- Generator: Adobe Illustrator 18.1.1, SVG Export Plug-In . SVG Version: 6.00 Build 0)  -->
<svg version="1.2" baseProfile="tiny" xmlns="http://www.w3.org/2000/svg" xmlns:xlink="http://www.w3.org/1999/xlink" x="0px"
	 y="0px" width="128px" height="128px" viewBox="0 0 128 128" xml:space="preserve">
<g id="_x31_28px_boxes">
	<rect fill="none" width="128" height="128"/>
</g>
<g id="Production">
	<g>
		<path fill="#ffffff" d="M112.054,58.0899c-0.0625-1.0251-0.9656-1.8094-2.0171-1.6968l-7.6601,0.8569
			c-0.9507,0.1062-1.6558,0.931-1.6143,1.8868l0.311,7.0759C74.7564,52.1336,41.6347,52.8378,15.3299,70.44
			c-0.8345,0.5586-1.0581,1.6877-0.5,2.5224l5.9326,8.8655c0.5593,0.836,1.6895,1.0573,2.522,0.5
			c20.9387-14.011,48.3541-15.6372,71.0395-3.5044l-7.0312,3.2959c-0.875,0.4102-1.2764,1.4331-0.9136,2.3289l2.8926,7.1433
			c0.3927,0.9713,1.5069,1.394,2.4336,0.9746l20.7026-9.3567c0.6875-0.3108,1.1118-1.0141,1.0659-1.7673L112.054,58.0899z"/>
		<path fill="#ffffff" d="M44.2767,43.4265l6.0166,6.0513c0.693,0.6962,1.8148,0.6945,2.5054,0.0071l8.9023-8.8528l8.853,8.9019
			c0.6905,0.6944,1.8101,0.6973,2.5049,0.0071l6.0508-6.0171c0.6919-0.6884,0.6982-1.8101,0.0073-2.5052l-8.853-8.9023
			l8.9028-8.8533c0.6947-0.6912,0.6949-1.8128,0.0069-2.5051l-6.0177-6.0505c-0.6899-0.6939-1.811-0.6968-2.5048-0.0071
			l-8.9029,8.8527l-8.8525-8.901c-0.6904-0.6939-1.8115-0.6966-2.5049-0.0071l-6.0522,6.017
			c-0.6935,0.6901-0.6967,1.8119-0.0064,2.5052l8.853,8.9026l-8.9013,8.8515C43.5901,41.6114,43.5872,42.7327,44.2767,43.4265z"/>
		<path fill="#ffffff" d="M61.7259,80.5079h-0.0347c-9.1972,0.0188-16.665,7.5173-16.6474,16.7158
			c0.02,9.1789,7.5034,16.6464,16.6816,16.6464h0.0342c9.1982-0.0192,16.666-7.5178,16.6469-16.715
			C78.388,87.9756,70.9056,80.5079,61.7259,80.5079z"/>
	</g>
</g>
</svg>
