<?xml version="1.0" encoding="utf-8"?>
<!-- Generator: Adobe Illustrator 19.1.0, SVG Export Plug-In . SVG Version: 6.00 Build 0)  -->
<svg version="1.2" baseProfile="tiny" xmlns="http://www.w3.org/2000/svg" xmlns:xlink="http://www.w3.org/1999/xlink" x="0px"
	 y="0px" width="64px" height="64px" viewBox="0 0 64 64" xml:space="preserve">
<g id="box">
	<rect fill="none" width="64" height="64"/>
</g>
<g id="Production">
	<path fill="#ffffff" d="M53,10.5859l-5,5V17h-4v-1.4141l-5-5l-5,5V17h-4v-1.4141l-5-5l-5,5V17h-4v-1.4141l-5-5l-5,5V53h10v-6h4v6
		h10v-6h4v6h10v-6h4v6h10V15.5859L53,10.5859z M48,19v4h-4v-4H48z M48,25v14h-4V25H48z M34,19v4h-4v-4H34z M34,25v14h-4V25H34z
		 M20,19v4h-4v-4H20z M20,25v14h-4V25H20z M14,51H8V16.4141l3-3l3,3V51z M16,45v-4h4v4H16z M28,51h-6V16.4141l3-3l3,3V51z M30,45v-4
		h4v4H30z M42,51h-6V16.4141l3-3l3,3V51z M44,45v-4h4v4H44z M56,51h-6V16.4141l3-3l3,3V51z"/>
</g>
</svg>

