<?xml version="1.0" encoding="utf-8"?>

<svg version="1.2" baseProfile="tiny" xmlns="http://www.w3.org/2000/svg" xmlns:xlink="http://www.w3.org/1999/xlink" x="0px"
	 y="0px" width="128px" height="128px" viewBox="0 0 128 128" xml:space="preserve">
<g id="_x31_28px_boxes">
	<rect fill="none" width="128" height="128"/>
</g>
<g id="Production">
	<g>
		<path fill="#ffffff" d="M99,45.2979V34c0-1.6567-1.3431-3-3-3H81.3158L65.8862,18.5249c-1.1002-0.8894-2.6722-0.8894-3.7724,0
			L46.6842,31H32c-1.6569,0-3,1.3433-3,3v11.2979L17,55v0.1318c12.6563,8.5879,10.6177,7.2046,18,12.2141
			C35,46.4506,35,58.2914,35,37c12.2299,0,45.8691,0,58,0c0,21.275,0,9.443,0,30.3459c7.3825-5.0096,5.3391-3.623,18-12.2141V55
			L99,45.2979z"/>
		<path fill="#ffffff" d="M17,61.1738V106c0,1.6567,1.3431,3,3,3h88c1.6569,0,3-1.3433,3-3V61.1738L64,93.0674L17,61.1738z"/>
		<path fill="#ffffff" d="M56.5167,72.5261c4.162,4.1615,3.7304,3.8067,4.6604,4.5215c1.6629,1.2698,3.9833,1.2698,5.6453,0
			c0.9617-0.7364,0.5816-0.444,4.6603-4.5212c-2.0321-2.0785-4.7356-3.1512-7.4785-3.1502
			C61.0764,69.3752,58.366,70.6008,56.5167,72.5261z"/>
		<path fill="#ffffff" d="M75.6204,68.3887l4.5062-4.5064c-0.0271-0.0268-0.0528-0.0549-0.0805-0.082
			c-8.8786-8.8834-23.2577-8.8407-32.0938,0.0007c-0.0267,0.0264-0.0525,0.0545-0.0792,0.0811l4.5062,4.5066
			c0.0271-0.0271,0.0519-0.0554,0.0783-0.0825c6.3292-6.3248,16.654-6.4254,23.0835-0.0003
			C75.5688,68.333,75.5933,68.3616,75.6204,68.3887z"/>
		<path fill="#ffffff" d="M84.2398,59.7693l4.505-4.5051c-0.0086-0.0083-0.0159-0.0166-0.0245-0.0245
			c-13.7609-13.7668-35.9128-13.5339-49.4419,0.0005c-0.0079,0.0081-0.0152,0.0161-0.0232,0.024l4.5053,4.5053
			c0.008-0.008,0.0156-0.0158,0.0236-0.0239c10.9662-10.9637,29.0592-11.3673,40.4318-0.0005
			C84.2239,59.7529,84.2312,59.7612,84.2398,59.7693z"/>
	</g>
</g>
</svg>
