<?xml version="1.0" encoding="utf-8"?>
<!-- Generator: Adobe Illustrator 17.1.0, SVG Export Plug-In . SVG Version: 6.00 Build 0)  -->
<!DOCTYPE svg [
	<!ENTITY ns_flows "http://ns.adobe.com/Flows/1.0/">
	<!ENTITY ns_extend "http://ns.adobe.com/Extensibility/1.0/">
	<!ENTITY ns_ai "http://ns.adobe.com/AdobeIllustrator/10.0/">
	<!ENTITY ns_graphs "http://ns.adobe.com/Graphs/1.0/">
]>
<svg version="1.2" baseProfile="tiny" xmlns:x="&ns_extend;" xmlns:i="&ns_ai;" xmlns:graph="&ns_graphs;"
	 xmlns="http://www.w3.org/2000/svg" xmlns:xlink="http://www.w3.org/1999/xlink" xmlns:a="http://ns.adobe.com/AdobeSVGViewerExtensions/3.0/"
	 x="0px" y="0px" width="128px" height="128px" viewBox="0 0 128 128" xml:space="preserve">
<g id="_x31_28px_boxes">
	<rect fill="none" width="128" height="128"/>
</g>
<g id="Production">
	<g>
		<path fill="#ffffff" d="M30.7488,74.8764c2.0105-11.0613,4.6555-18.4151,7.8645-21.8734l12.6189,12.6184l9.6943-9.6941
			L48.7979,43.7992c-1.4124-1.4125-1.9798-3.1062-1.9536-5.0134c0.0739-5.3623,5.5324-11.6871,7.6296-13.6716
			c2.1017-1.9886,0.2881-5.5054-2.5488-4.9482c-14.7115,2.8828-20.626,8.7983-28.812,16.9855
			C15.3672,44.8962,1.739,51.754,1.6021,51.8223c-1.5548,0.7778-2.0833,2.746-1.1158,4.1988
			c5.7051,8.5621,17.0591,17.6144,26.4104,21.0564C28.5747,77.6966,30.4253,76.6561,30.7488,74.8764z M7.2214,55.4019
			c2.1731-1.1955,5.2911-2.9951,8.6214-5.189c0.9836,1.0997,2.6125,2.7562,5.0762,4.799c2.8718,2.3814,5.7128,4.2182,7.448,5.265
			c-0.9649,2.8769-1.836,6.1954-2.627,9.9971C19.1729,67.0478,11.8977,61.2103,7.2214,55.4019z"/>
		<path fill="#ffffff" d="M76.7678,71.7685l-9.6943,9.694l25.6184,25.6177c1.0836,1.083,2.8435,1.0847,3.9275-0.0003l5.7664-5.767
			c1.0844-1.0845,1.0844-2.8425,0-3.9273L76.7678,71.7685z"/>
		<path fill="#ffffff" d="M126.3982,51.8223c-0.137-0.0683-13.7654-6.9261-21.511-14.6708
			c-8.1863-8.1872-14.1006-14.1027-28.812-16.9855c-2.8391-0.5576-4.6496,2.9607-2.5488,4.9482
			c2.0969,1.9845,7.5556,8.3093,7.6294,13.6716c0.0263,1.9072-0.541,3.6009-1.9536,5.0134L25.6143,97.3856
			c-1.0843,1.0848-1.0843,2.8428,0,3.9273l5.7666,5.767c1.083,1.0839,2.8427,1.0846,3.9272,0.0003L89.387,53.003
			c3.209,3.4583,5.854,10.8121,7.8645,21.8734c0.3237,1.7814,2.1765,2.8192,3.852,2.2011
			c9.3513-3.442,20.7054-12.4943,26.4104-21.0564C128.4793,54.5716,127.9561,52.6016,126.3982,51.8223z M102.2603,70.274
			c-0.791-3.8017-1.6621-7.1202-2.627-9.9971c1.7351-1.0468,4.5762-2.8836,7.4478-5.265c2.4638-2.0428,4.0927-3.6993,5.0764-4.799
			c3.3303,2.1939,6.4482,3.9935,8.6213,5.189C116.1026,61.2103,108.8274,67.0478,102.2603,70.274z"/>
	</g>
</g>
</svg>

