<?xml version="1.0" encoding="utf-8"?>
<!-- Generator: Adobe Illustrator 18.1.1, SVG Export Plug-In . SVG Version: 6.00 Build 0)  -->
<svg version="1.2" baseProfile="tiny" xmlns="http://www.w3.org/2000/svg" xmlns:xlink="http://www.w3.org/1999/xlink" x="0px"
	 y="0px" width="64px" height="64px" viewBox="0 0 64 64" xml:space="preserve">

<g id="Production">
	<path fill="#ffffff" d="M32,7C18.2148,7,7.01,18.2148,7.01,32S18.2148,57,32,57s24.99-11.2148,24.99-25S45.7852,7,32,7z
		 M54.9746,31h-22.397l-11.196-19.392C24.5605,9.9458,28.1709,9,32,9C44.3467,9,54.4487,18.7804,54.9746,31z M9,32
		c0-8.1394,4.2539-15.2995,10.6511-19.3885L30.8452,32L19.6511,51.3885C13.2539,47.2995,9,40.1394,9,32z M32,55
		c-3.8291,0-7.4395-0.9458-10.6184-2.608l11.196-19.402h22.397C54.4487,45.2096,44.3467,55,32,55z"/>
</g>
</svg>
