<?xml version="1.0" encoding="utf-8"?>
<!-- Generator: Adobe Illustrator 18.1.1, SVG Export Plug-In . SVG Version: 6.00 Build 0)  -->
<svg version="1.2" baseProfile="tiny" xmlns="http://www.w3.org/2000/svg" xmlns:xlink="http://www.w3.org/1999/xlink" x="0px"
	 y="0px" width="64px" height="64px" viewBox="0 0 64 64" xml:space="preserve">

<g id="Production">
	<g>
		<path fill="#ffffff" d="M37,7c0-2.7568-2.2432-5-5-5s-5,2.2432-5,5H11v53h42V7H37z M29,9V7c0-1.6543,1.3457-3,3-3s3,1.3457,3,3v2
			h2c1.6543,0,3,1.3457,3,3v2H24v-2c0-1.6543,1.3457-3,3-3H29z M42,14h4v39H18V14h4v2h20V14z M51,58H13V8.98h10.0256
			C22.391,9.8183,22,10.8701,22,12h-6v43h32V12h-6c0-1.1299-0.391-2.1617-1.0256-3H51V58z"/>
		<polygon fill="#ffffff" points="42.4761,27.6309 40.9243,26.3691 31.126,38.4204 24.7725,30.6982 23.2275,31.9688 
			31.1348,41.5796 		"/>
	</g>
</g>
</svg>
