<?xml version="1.0" encoding="utf-8"?>
<!-- Generator: Adobe Illustrator 17.1.0, SVG Export Plug-In . SVG Version: 6.00 Build 0)  -->
<!DOCTYPE svg [
	<!ENTITY ns_flows "http://ns.adobe.com/Flows/1.0/">
	<!ENTITY ns_extend "http://ns.adobe.com/Extensibility/1.0/">
	<!ENTITY ns_ai "http://ns.adobe.com/AdobeIllustrator/10.0/">
	<!ENTITY ns_graphs "http://ns.adobe.com/Graphs/1.0/">
]>
<svg version="1.2" baseProfile="tiny" xmlns:x="&ns_extend;" xmlns:i="&ns_ai;" xmlns:graph="&ns_graphs;"
	 xmlns="http://www.w3.org/2000/svg" xmlns:xlink="http://www.w3.org/1999/xlink" xmlns:a="http://ns.adobe.com/AdobeSVGViewerExtensions/3.0/"
	 x="0px" y="0px" width="128px" height="128px" viewBox="0 0 128 128" xml:space="preserve">
<g id="_x31_28px_boxes">
	<rect fill="none" width="128" height="128"/>
</g>
<g id="Production">
	<g>
		<path fill="#ffffff" d="M53.4695,32.7565c0-5.5468,4.5776-10.0595,10.1247-10.0595c5.5469,0,10.1253,4.5127,10.1253,10.0595
			v7.1925l5.75-0.0182v-7.1743c0-8.8249-7.1758-16.0049-16.0009-16.0049c-8.8248,0-15.9991,7.18-15.9991,16.0049v7.2732l6-0.0182
			V32.7565z"/>
		<path fill="#ffffff" d="M104.356,99.6149C90.1312,88.0207,79.0566,85.0847,70.832,85.0847c-4.7212,0-8.5317,1.014-10.1035,1.7197
			c-0.3708,0.1665-0.2126,0.7245,0.1846,0.6789c7.2967-0.8354,18.1671,1.4568,25.5925,7.3219
			c-7.7067,11.0873-25.363,7.1071-34.3784-2.8717c-8.4144-9.3114-8.2466-18.1762-8.2352-18.549
			c0.0339-1.1144,1.4118-1.6241,2.1623-0.7981c0.0311,0.034,3.4208,3.6584,8.5951,3.7536
			c7.905,0.1544,11.0607-7.5926,19.4839-7.5926c8.115,0,15.3374,6.1792,15.5264,15.5752c4.624,1.9629,9.1245,4.5916,13.851,8.0714
			l-5.4875-46.8596c-0.1109-0.9439-0.9102-1.7394-1.8604-1.7398c-40.9372-0.0314-36.3886,0.1165-65.0084,0h-0.0013
			c-0.9583,0-1.7625,0.7194-1.8639,1.6724l-6.7667,63.6636c-0.1226,1.1496,0.7993,2.1178,1.8635,2.1178h79.2231h0.0005
			c0.0015,0,0.0029,0,0.0049,0c1.0352,0,1.874-0.8478,1.874-1.8829C105.4885,109.2404,104.3706,99.7397,104.356,99.6149z
			 M76.22,51.0671c1.9753,0,3.6428,1.6051,3.6428,3.6413c0,2.0111-1.6309,3.6411-3.6428,3.6411c-2.0108,0-3.6411-1.63-3.6411-3.6411
			C72.5789,52.6644,74.2535,51.0671,76.22,51.0671z M50.5165,51.0671c1.9763,0,3.6415,1.6051,3.6415,3.6413
			c0,2.0111-1.6302,3.6411-3.6415,3.6411c-2.0106,0-3.6409-1.63-3.6409-3.6411C46.8756,52.6735,48.5406,51.0671,50.5165,51.0671z"/>
	</g>
</g>
</svg>
