<?xml version="1.0" encoding="utf-8"?>
<svg version="1.2" baseProfile="tiny" xmlns="http://www.w3.org/2000/svg" xmlns:xlink="http://www.w3.org/1999/xlink" x="0px"
	 y="0px" width="128px" height="128px" viewBox="0 0 128 128" xml:space="preserve">
<g id="_x31_28px_boxes">
	<rect fill="none" width="128" height="128"/>
</g>
<g id="Production">
	<g>
		<path fill="#ffffff" d="M107.8882,103.3566c-2.9444,2.1375-7.0347,4.4142-10.7498,4.4142c-3.5583,0-7.4914-2.1185-10.415-4.1867
			c-2.7456-1.9424-3.8081-3.1352-6.1807-5.495c-2.9687,2.8915-2.9382,3.0356-7.2732,6.0901h-0.0012
			c-2.7656,1.8026-6.1833,3.4911-9.3154,3.4911c-2.9556,0-6.1651-1.4371-8.8408-3.1164c-3.8252-2.4001-5.4761-4.2441-7.7461-6.4958
			c-2.2705,2.2804-2.8951,2.9923-4.6697,4.3997c-2.9519,2.3408-7.6729,5.3083-11.9138,5.3083c-6.1133,0-12.3697-5.5055-16.48-9.5556
			c0,2.7582,0,3.7644,0,4.0922c0,0.0894,0,0.1335,0,0.1427c0,0.3626,0,1.5569,0,5.0324c3.3474,2.7504,9.8003,7.0549,16.4651,7.0549
			c6.7512,0,13.2258-4.4179,16.5915-7.1624c3.3667,2.7442,9.8389,7.1624,16.5896,7.1624c6.7503,0,13.2195-4.4182,16.5857-7.1629
			c3.3665,2.7445,9.8667,7.1629,16.6153,7.1629c6.7077,0,12.9428-4.3618,16.5478-7.1096v-9.2779
			C111.324,100.4884,110.3335,101.5814,107.8882,103.3566z"/>
		<path fill="#ffffff" d="M24.1843,81.9928c0.1543,0,0.2442,0,0.2967,0c0.0517,0,0.0671,0,0.0629,0c0.242,0,1.3086,0,5.3064,0
			v21.0559c5.9019,0.9693,13.5621-7.5891,17.4954-11.5393c0,0,6.0603,5.9986,6.342,6.2455V81.9928h5.3189h15.1343v15.7848
			c0.3042-0.2463,6.436-6.1916,6.436-6.1916c3.3989,3.7749,12.3723,12.2281,17.4009,11.4818v-21.075h5.0762c1.6567,0,3-1.3432,3-3
			v-8.8363c0-1.4231-0.9917-2.6119-2.3211-2.92c-0.5371-0.1246-41.1728-0.08-41.7263-0.08V54.0752c0-1.657-1.3433-3-3-3h-5.542
			l0.927-4.4366h19.8242l1.408,6.7839l-9.1099,9.314h26.572L110.1794,32.39c1.0623-1.9741,0.7269-4.4926-0.9758-6.1118
			c-2.0408-1.9403-5.2678-1.8592-7.208,0.1814L81.1003,47.8233l-6.5922-31.7664c-0.3133-1.5083-1.6419-2.5896-3.1824-2.5896H57.3215
			c-1.5385,0-2.8667,1.0792-3.1811,2.5853l-7.3157,35.0226H24.1843c-1.657,0-3,1.343-3,3v24.9176
			C21.1843,80.6496,22.5273,81.9928,24.1843,81.9928z M59.9629,19.9673h8.718l1.4268,6.8748H58.5269L59.9629,19.9673z
			 M57.1775,33.3421c0.1589,0.0238,14.279,0,14.279,0l1.4104,6.7965H55.7493L57.1775,33.3421z M44.7717,61.7937
			c0-0.8285,0.6719-1.5,1.5-1.5h4.5078c0.8287,0,1.5,0.6715,1.5,1.5v4.5078c0,0.8284-0.6713,1.5-1.5,1.5h-4.5078
			c-0.8281,0-1.5-0.6716-1.5-1.5V61.7937z M30.9109,61.7937c0-0.8285,0.6719-1.5,1.5-1.5h4.5078c0.8286,0,1.5,0.6715,1.5,1.5v4.5078
			c0,0.8284-0.6714,1.5-1.5,1.5h-4.5078c-0.8281,0-1.5-0.6716-1.5-1.5V61.7937z"/>
	</g>
</g>
</svg>