<?xml version="1.0" encoding="utf-8"?>
<!-- Generator: Adobe Illustrator 18.1.1, SVG Export Plug-In . SVG Version: 6.00 Build 0)  -->
<svg version="1.2" baseProfile="tiny" xmlns="http://www.w3.org/2000/svg" xmlns:xlink="http://www.w3.org/1999/xlink" x="0px"
	 y="0px" width="128px" height="128px" viewBox="0 0 128 128" xml:space="preserve">
<g id="box">
	<rect fill="none" width="128" height="128"/>
</g>
<g id="Production">
	<g>
		<path fill="#ffffff" d="M38.4528,71.8736c-5.9231,0-10.7242,4.8013-10.7242,10.7236c0,5.9226,4.8011,10.7241,10.7242,10.7241
			c5.9228,0,10.7238-4.8015,10.7238-10.7241C49.1766,76.6749,44.3756,71.8736,38.4528,71.8736z M38.4528,87.0372
			c-2.4517,0-4.439-1.9876-4.439-4.44c0-2.4516,1.9873-4.4392,4.439-4.4392c2.4521,0,4.4399,1.9876,4.4399,4.4392
			C42.8927,85.0496,40.9049,87.0372,38.4528,87.0372z"/>
		<path fill="#ffffff" d="M97.1,56.2344C85.9698,40.8272,75.7328,34.4288,59.142,34.6861c-12.7842,0-27.2543,2.8755-36.7376,6.7129
			c0,0-5.0857,8.5847-6.6316,16.4236c-1.5459,7.8388-1.2287,17.5454-1.2287,19.9431c0,2.0941,1.6971,3.8721,3.8813,3.8721h5.5979
			c0.5054-7.564,6.7202-13.5484,14.4024-13.5484c7.6872,0,13.8955,5.9934,14.3964,13.5484h23.6485
			c0.3161-4.7237,2.8591-8.8368,6.5984-11.2564c-0.8041-2.1151-2.575-4.1413-4.3042-5.6487
			c-0.5581-1.0006-7.9684-6.3356-20.2998-9.0841c-3.5455-0.7901-5.9786-1.0514-5.9864-1.0543
			c-0.2965-0.0314-0.3851,0.3945-0.1006,0.4838c1.0001,0.4166,11.8861,3.7407,18.9651,9.7999
			c-4.9074,3.855-17.0516,3.7722-25.7151-3.8038c-7.1297-6.2314-8.4897-13.1999-8.2468-14.7264
			c0.1071-0.7,0.9547-1.0039,1.4832-0.528c0,0,0.0041,0.0041,0.0271,0.0235c1.9294,1.6654,5.4219,3.2916,9.0862,3.2916
			c7.8397-0.0103,10.3372-7.2486,19.5048-4.5549c6.2812,1.8208,9.4201,7.4781,8.2566,13.2178
			c0.4744,0.255,0.9475,0.5253,1.4175,0.8136c4.4614,2.7558,6.9995,5.614,8.4038,7.8586c0.5296,0.8448,0.898,1.5996,1.1531,2.2254
			c1.3113-0.3941,2.7029-0.606,4.1467-0.606c7.6851,0,13.8994,5.9844,14.3987,13.5484h4.3489c2.1552,0,3.875-1.7557,3.875-3.8721
			V73.065C113.3365,64.3645,105.2023,59.1398,97.1,56.2344z"/>
		<path fill="#ffffff" d="M90.8766,71.8736c-5.9224,0-10.7241,4.8013-10.7241,10.7236c0,5.9226,4.8017,10.7241,10.7241,10.7241
			c5.9223,0,10.7239-4.8015,10.7239-10.7241C101.6005,76.6749,96.7989,71.8736,90.8766,71.8736z M90.8766,87.0372
			c-2.4522,0-4.4395-1.9876-4.4395-4.44c0-2.4516,1.9873-4.4392,4.4395-4.4392c2.4514,0,4.4387,1.9876,4.4387,4.4392
			C95.3153,85.0496,93.328,87.0372,90.8766,87.0372z"/>
	</g>
</g>
</svg>
