<?xml version="1.0" encoding="utf-8"?>
<!-- Generator: Adobe Illustrator 18.1.1, SVG Export Plug-In . SVG Version: 6.00 Build 0)  -->
<svg version="1.2" baseProfile="tiny" xmlns="http://www.w3.org/2000/svg" xmlns:xlink="http://www.w3.org/1999/xlink" x="0px"
	 y="0px" width="128px" height="128px" viewBox="0 0 128 128" xml:space="preserve">
<g id="box">
	<rect fill="none" width="128" height="128"/>
</g>
<g id="Production">
	<g>
		<path fill="#ffffff" d="M46.8694,109.5757c5.3349,2.0132,11.1113,3.1182,17.1418,3.1182
			c24.0686,0,44.1111-17.5542,48.0059-40.5309c-13.032,8.5348-45.5098,29.8-48.3521,31.6105
			C60.575,105.7422,54.3059,108.7979,46.8694,109.5757z"/>
		<path fill="#ffffff" d="M61.8601,93.3047c0.0144-0.0693,0.0322-0.1357,0.0515-0.2006c1.0271-4.8013,2.8306-9.3697,5.3071-13.3145
			c3.5936-5.723,9.003-10.5073,15.6434-13.8354c6.1421-3.0785,13.1804-4.774,19.8178-4.774c3.5232,0,6.9092,0.4771,10.0028,1.3918
			c-0.7586-26.1919-22.2994-47.2659-48.6715-47.2659c-26.8498,0-48.6938,21.844-48.6938,48.6938
			c0,14.9733,6.7951,28.3879,17.4617,37.3273c6.2238,4.3848,16.1792,3.4136,23.6279,0.065
			C59.8525,99.8453,61.2317,96.3345,61.8601,93.3047z M48.7717,86.9083v-2.4336c0-0.3443,0.2564-0.6392,0.5967-0.6963
			c3.4883-0.5835,7.6533-2.0762,7.6533-5.8745V47.0172c0-1.1492-0.9033-1.9518-2.2016-1.9518c-4.852,0-9.1057,3.6838-12.291,10.6518
			c-0.0635,0.1389-0.167,0.2538-0.3013,0.3268c-0.0611,0.0332-0.617,0.3236-1.4175,0.3236c-0.8542,0-1.6782-0.3336-2.3843-0.9628
			c-0.1802-0.1608-0.2651-0.4027-0.2265-0.6407l2.279-14.0707c0.0554-0.342,0.3511-0.646,0.6973-0.646h45.6709
			c0.3464,0,0.6418,0.304,0.6968,0.6463c0.0192,0.1172,1.904,11.7868,2.2785,14.0435c0.0381,0.2289-0.0388,0.4742-0.2048,0.6354
			c-0.6184,0.6002-1.4414,0.9231-2.3797,0.9231c-0.7336,0-1.2885-0.1892-1.3496-0.2106c-0.1787-0.0651-0.3239-0.197-0.403-0.3695
			c-3.1851-6.968-7.4344-10.6511-12.2864-10.6511c-1.2979,0-2.2041,0.8031-2.2041,1.9523l0.0019,19.9816
			c-3.3637,2.81-6.2827,6.0603-8.591,9.7365c-2.1499,3.4243-3.7637,7.0625-4.8086,10.8125h-8.0989
			C49.1077,87.5474,48.7717,87.2984,48.7717,86.9083z"/>
	</g>
</g>
</svg>
