<?xml version="1.0" encoding="utf-8"?>
<!-- Generator: Adobe Illustrator 18.1.1, SVG Export Plug-In . SVG Version: 6.00 Build 0)  -->
<svg version="1.2" baseProfile="tiny" xmlns="http://www.w3.org/2000/svg" xmlns:xlink="http://www.w3.org/1999/xlink" x="0px"
	 y="0px" width="128px" height="128px" viewBox="0 0 128 128" xml:space="preserve">
<g id="_x31_28px_boxes">
	<rect fill="none" width="128" height="128"/>
</g>
<g id="Production">
	<g>
		<path fill="#ffffff" d="M106.683,24.6739c-2.4212,0-4.3838,1.9629-4.3838,4.3841v1.2612L29.0721,51.2884l-8.4001-2.5993
			c-1.854-0.5743-3.739,0.8142-3.739,2.7568v19.3337c0,1.9367,1.8799,3.3321,3.7388,2.7569l8.3981-2.5986l73.2293,20.9687v0.3738
			c0,2.421,1.9626,4.3838,4.3838,4.3838c2.4214,0,4.384-1.9628,4.384-4.3838V29.058
			C111.067,26.6368,109.1044,24.6739,106.683,24.6739z M102.2992,52.5607c-68.2966,8.61-66.8027,8.4064-66.8027,8.4064
			c-2.0545-0.0077-2.459-2.9367-0.4832-3.5021c0.7979-0.2288,66.386-19.0103,67.2859-19.2679
			C102.2992,44.83,102.2992,46.0022,102.2992,52.5607z"/>
		<path fill="#ffffff" d="M68.2745,90.62c-0.9375,3.2708-4.3435,5.1584-7.6147,4.2207L49.297,91.5826
			c-3.2708-0.9381-5.1587-4.3437-4.221-7.6145l1.1358-3.9614l-7.9224-2.2717l-1.1357,3.9611
			c-2.1934,7.6491,2.2214,15.6151,9.8718,17.8089l11.3626,3.2581c7.676,2.2001,15.622-2.2462,17.809-9.8711l1.1358-3.9612
			l-7.9224-2.272L68.2745,90.62z"/>
	</g>
</g>
</svg>
