<?xml version="1.0" encoding="utf-8"?>
<!-- Generator: Adobe Illustrator 18.1.1, SVG Export Plug-In . SVG Version: 6.00 Build 0)  -->
<svg version="1.2" baseProfile="tiny" xmlns="http://www.w3.org/2000/svg" xmlns:xlink="http://www.w3.org/1999/xlink" x="0px"
	 y="0px" width="128px" height="128px" viewBox="0 0 128 128" xml:space="preserve">
<g id="_x31_28px_boxes">
	<rect fill="none" width="128" height="128"/>
</g>
<g id="Production">
	<g>
		<path fill="#ffffff" d="M89.3405,46.5501h-4.2369c-2.7768,0-5.0348-2.1681-5.1403-4.9358l-0.1636-4.2802h-4.759
			c-0.8006,0-1.5103,0.5148-1.7591,1.2757c-2.7348,8.3673-8.0265,10.1324-9.2794,10.4387
			c-1.278-0.3131-6.5541-2.0874-9.2837-10.4387c-0.2487-0.7609-0.9585-1.2757-1.759-1.2757h-4.7592l-0.1634,4.2815
			c-0.1068,2.767-2.3649,4.9345-5.1409,4.9345h-4.2369c-2.7775,0-5.0353-2.1686-5.1402-4.9358l-0.144-3.7708
			c-7.252,2.4977-18.4475,15.6448-22.4174,20.8932c-0.518,0.6843-0.4977,1.635,0.0495,2.2964l12.6445,15.2876
			c0.6359,0.7683,1.7663,0.8955,2.556,0.2859l10.047-7.7468v40.4633c0,1.022,0.8285,1.8506,1.8506,1.8506h51.7898
			c1.022,0,1.8506-0.8286,1.8506-1.8506V68.8598l10.0469,7.7468c0.7895,0.6089,1.9202,0.4826,2.5561-0.2859l12.6445-15.2876
			c0.5472-0.6614,0.5677-1.6121,0.0496-2.2964c-3.051-4.0305-14.5271-18.1753-22.4175-20.8932l-0.144,3.7727
			C94.3739,44.3828,92.1159,46.5501,89.3405,46.5501z"/>
		<path fill="#ffffff" d="M91.6918,22.9464l0.1689-4.4274c0.0318-0.8243-0.4636-1.6927-1.6433-1.6927H84.227
			c-0.9717,0-1.6822,0.6659-1.6431,1.6927l0.1933,5.0616c-12.7595,0.7082-24.6826,0.7146-37.5541,0l0.1933-5.0616
			c0.0272-0.7161-0.4095-1.6927-1.6433-1.6927h-5.9908c-0.9442,0-1.6733,0.8978-1.643,1.6927l0.1692,4.4274
			c-5.9694-0.5249-11.1208-0.9803-19.3141-2.6582v8.5373c7.9535,1.5046,13.6517,2.0515,19.6362,2.5567l0.3858,10.0985
			c0.0332,0.8763,0.7589,1.5694,1.6427,1.5694h4.2369c0.8839,0,1.6096-0.6931,1.6435-1.5694l0.3636-9.5221
			c11.739,0.6536,26.5533,0.6481,38.194,0l0.3635,9.5221c0.0334,0.8763,0.7593,1.5694,1.643,1.5694h4.2369
			c0.8837,0,1.6093-0.6931,1.6433-1.5694l0.3857-10.0985c5.5486-0.4685,12.6751-1.2398,19.6363-2.5567v-8.5373
			C103.1991,21.887,98.049,22.3872,91.6918,22.9464z"/>
	</g>
</g>
</svg>
