<?xml version="1.0" encoding="utf-8"?>

<svg version="1.2" baseProfile="tiny" xmlns="http://www.w3.org/2000/svg" xmlns:xlink="http://www.w3.org/1999/xlink" x="0px"
	 y="0px" width="32px" height="32px" viewBox="0 0 32 32" xml:space="preserve">
<g id="_x33_2px_boxes">
	<rect fill="none" width="32" height="32"/>
</g>
<g id="Production">
	<g>
		<path fill="#ffffff" d="M23.292,2.3213C23.2578,2.3584,19.8389,6,15.0098,6C8.0303,6,2,6,2,13.5
			c0,4.6641,2.333,6.4258,5.7744,7.0928c0,0,3.2921,7.9414,3.4952,8.3818C12.0421,30.6484,13.3302,31,14.2745,31
			c1.8055,0,3.0837-1.7127,2.6025-3.5967c-0.0576-0.2226-1.5411-6.3877-1.5411-6.3877c4.626,0.1602,7.92,3.625,7.9551,3.6641
			C23.9009,25.3358,25,24.9583,25,24.1147V2.8851C25,2.0833,23.9119,1.6519,23.292,2.3213z"/>
		<path fill="#ffffff" d="M27,8v11c2-0.8965,4-3.0176,4-5.5C31,11.0166,29,8.8965,27,8z"/>
	</g>
</g>
</svg>
