<?xml version="1.0" encoding="utf-8"?>
<!-- Generator: Adobe Illustrator 17.1.0, SVG Export Plug-In . SVG Version: 6.00 Build 0)  -->
<!DOCTYPE svg [
	<!ENTITY ns_flows "http://ns.adobe.com/Flows/1.0/">
	<!ENTITY ns_extend "http://ns.adobe.com/Extensibility/1.0/">
	<!ENTITY ns_ai "http://ns.adobe.com/AdobeIllustrator/10.0/">
	<!ENTITY ns_graphs "http://ns.adobe.com/Graphs/1.0/">
]>
<svg version="1.2" baseProfile="tiny" xmlns:x="&ns_extend;" xmlns:i="&ns_ai;" xmlns:graph="&ns_graphs;"
	 xmlns="http://www.w3.org/2000/svg" xmlns:xlink="http://www.w3.org/1999/xlink" xmlns:a="http://ns.adobe.com/AdobeSVGViewerExtensions/3.0/"
	 x="0px" y="0px" width="128px" height="128px" viewBox="0 0 128 128" xml:space="preserve">
<g id="_x31_28px_boxes">
	<rect fill="none" width="128" height="128"/>
</g>
<g id="Production">
	<g>
		<path fill="#ffffff" d="M117.6888,12.632c-0.8232-0.9424-2.2546-1.0386-3.1968-0.2152
			c-0.1467,0.1281-47.5068,41.5102-47.645,41.6474c-1.6558,1.6382-1.6697,4.3081-0.0317,5.9636
			c1.6381,1.6557,4.3083,1.6697,5.9638,0.0317l44.7974-44.326C118.4173,14.8982,118.4798,13.5369,117.6888,12.632z"/>
		<path fill="#ffffff" d="M31.647,71.4652c-7.1984,6.8925-7.3017,16.9786-1.0373,23.5202
			c6.3133,6.5938,16.3994,6.8253,23.5434-0.0157c7.242-6.9341,8.0857-17.8475,1.8809-24.3279
			C49.6668,63.9918,38.7169,64.6957,31.647,71.4652z"/>
		<path fill="#ffffff" d="M113.0638,29.7654c-4.1394,2.8097-8.1035,6.1128-11.7822,9.8171
			C84.4632,56.5129,75.5748,79.2101,65.6153,92.6387c-12.7722,17.2244-29.489,17.5324-39.6116,6.984
			c-11.1215-11.5871-7.5282-26.811,4.8431-36.6982C43.7537,52.762,59.1915,51.3909,74.0618,40.699
			c5.1427-3.6982,9.7481-8.2927,13.3904-13.1871c1.3884-1.861-1.1793-4.1782-2.8843-2.5644
			c-1.0002,0.9455-2.9521,3.1415-7.0183,6.3374c-3.9985,3.1427-8.4765,5.8511-13.31,8.0499
			c-10.1831,4.6331-20.4571,6.6959-30.44,11.7893c-35.7246,18.2273-27.5205,55.1233-2.1914,63.4373
			c9.2151,3.0249,20.7053,1.7393,29.0745-4.1037c20.061-14.0062,23.7871-41.3459,42.4509-64.5217
			c6.0135-7.4679,9.0997-9.402,12.5332-13.1774C117.2122,31.0605,115.1207,28.3671,113.0638,29.7654z"/>
	</g>
</g>
</svg>
