<?xml version="1.0" encoding="utf-8"?>
<!-- Generator: Adobe Illustrator 18.1.1, SVG Export Plug-In . SVG Version: 6.00 Build 0)  -->
<svg version="1.2" baseProfile="tiny" xmlns="http://www.w3.org/2000/svg" xmlns:xlink="http://www.w3.org/1999/xlink" x="0px"
	 y="0px" width="128px" height="128px" viewBox="0 0 128 128" xml:space="preserve">
<g id="_x31_28px_boxes">
	<rect fill="none" width="128" height="128"/>
</g>
<g id="Production">
	<g>
		<path fill="#ffffff" d="M99.4838,108.0741V94.6454c0-1.0596-0.8582-1.9177-1.9172-1.9177H30.4323
			c-1.0601,0-1.9173,0.8581-1.9173,1.9177v13.4287c-3.177,0-5.7544,2.5747-5.7544,5.7537c0,3.1782,2.5774,5.7533,5.7544,5.7533
			h70.9688c3.1794,0,5.7556-2.5751,5.7556-5.7533C105.2394,110.6488,102.6632,108.0741,99.4838,108.0741z"/>
		<path fill="#ffffff" d="M46.507,86.974h25.146c4.3759,0,7.924-3.9746,7.924-8.3484c0-4.3775-3.5481-8.1401-7.924-8.1401
			c-4.0694,0-7.3838,2.9812-7.8324,6.9321c-27.2301,0-24.9469-27.2598,3.536-22.8823c10.1417,1.5509,12.2476,6.6676,14.0337,11.8657
			c0.5527,1.6179,1.1294,2.6721,2.9319,2.4558c11.3023-1.3446,17.0676-14.2184,10.7575-23.5373
			c4.5326-8.2156,1.1556-18.6151-7.4924-22.5479c-0.582-10.866-12.1205-17.6089-21.8542-12.7495
			c-0.834,0.5012-1.6417,1.4675-1.596,2.6203c0.2184,5.269,4.1466,16.363-15.4409,28.6763c-10.2105,6.418-19.2539,14-18.3074,26.094
			C31.5578,82.4173,46.507,86.974,46.507,86.974z"/>
	</g>
</g>
</svg>

