<?xml version="1.0" encoding="utf-8"?>
<!-- Generator: Adobe Illustrator 18.1.1, SVG Export Plug-In . SVG Version: 6.00 Build 0)  -->
<svg version="1.2" baseProfile="tiny" xmlns="http://www.w3.org/2000/svg" xmlns:xlink="http://www.w3.org/1999/xlink" x="0px"
	 y="0px" width="64px" height="64px" viewBox="0 0 64 64" xml:space="preserve">

<g id="Production">
	<g>
		<path fill="#ffffff" d="M36.377,30.8193h-2.5537c0.0448,2.5232,2.0538,3.9756,4.6768,3.9756
			c2.6285,0.0525,4.6777-2.0085,4.6777-4.5146c0-2.4849-1.5377-4.2822-3.8857-4.2822c-1.0914,0-1.8272,0.334-2.4648,0.9717
			l-0.0361-0.0361l0.5039-2.8604h5.1992v-2.1045H35.46l-1.2412,6.9619h2.3027c1.3306-1.836,4.1016-1.112,4.1016,1.3496
			C40.623,33.2665,36.6663,33.5724,36.377,30.8193z"/>
		<path fill="#ffffff" d="M56.7041,41.0415l-19.1379,5.0558l-12.0067-5.3947c-1.5845-0.7119-3.3892-0.8887-5.0815-0.4966L8,43.0923
			v2.0526l12.9292-2.9907c1.2686-0.2944,2.6216-0.1616,3.811,0.3726c0.2782,0.125,12.3008,5.5029,12.5484,5.6768l0.0087,0.0331
			l0.0233-0.0062c1.6393,1.2073,0.4901,3.8191-1.5189,3.4075l-13.5991-2.8149l-0.4053,1.958l13.5991,2.8149
			c3.3958,0.7038,5.9397-3.0264,4.0794-5.9349l17.739-4.6862c2.6465-0.6944,4.0133,3.071,1.5322,4.229L36.5908,57.5527
			c-1.0444,0.4888-2.2002,0.6636-3.3452,0.5098l-11.9072-1.6147c-0.7998-0.1094-1.6089-0.0952-2.4033,0.0381L8,58.3265v2.0286
			l11.2671-1.8965c0.5972-0.1011,1.2036-0.1094,1.8027-0.0293l11.9072,1.6147c1.5215,0.207,3.0659-0.0278,4.4604-0.6787
			l22.1562-10.3486C64.2829,46.8244,61.6772,39.7284,56.7041,41.0415z"/>
		<path fill="#ffffff" d="M22,18c4.9624,0,9-4.0376,9-9s-4.0376-9-9-9s-9,4.0376-9,9S17.0376,18,22,18z M22,2c3.8599,0,7,3.1401,7,7
			s-3.1401,7-7,7s-7-3.1401-7-7S18.1401,2,22,2z"/>
		<path fill="#ffffff" d="M26,28.5C26,35.3926,31.6074,41,38.5,41S51,35.3926,51,28.5S45.3926,16,38.5,16S26,21.6074,26,28.5z
			 M38.5,18C44.2896,18,49,22.7104,49,28.5S44.2896,39,38.5,39S28,34.2896,28,28.5S32.7104,18,38.5,18z"/>
		<polygon fill="#ffffff" points="21,13 23,13 23,5 20,5 20,7 21,7 		"/>
	</g>
</g>
</svg>
