<?xml version="1.0" encoding="utf-8"?>

<svg version="1.2" baseProfile="tiny" xmlns="http://www.w3.org/2000/svg" xmlns:xlink="http://www.w3.org/1999/xlink" x="0px"
	 y="0px" width="64px" height="64px" viewBox="0 0 64 64" xml:space="preserve">

<g id="Production">
	<g>
		<path fill="#ffffff" d="M45,47c-7,0-28,0-35,0V17h31v-5H5v40c15,0,30,0,45,0V40h-5V47z"/>
		<path fill="#ffffff" d="M28.3606,22c-9.67,0-17.246,9.99-11.1879,20.99h6.0986c-1.6661-2-3.2762-4.6544-3.2762-7.6343
			c0-4.6122,3.7531-8.3657,8.3655-8.3657h22.5966l-5.4506,5.4415l3.5353,3.5303c1.975-1.9751,0.3685-0.3709,11.4896-11.4925
			c-11.1219-11.1225-9.5126-9.5154-11.4944-11.4974l-3.5353,3.5447L50.9651,22C50.9651,22,34.488,22,28.3606,22z"/>
	</g>
</g>
</svg>
