<?xml version="1.0" encoding="utf-8"?>
<!-- Generator: Adobe Illustrator 18.1.1, SVG Export Plug-In . SVG Version: 6.00 Build 0)  -->
<svg version="1.2" baseProfile="tiny" xmlns="http://www.w3.org/2000/svg" xmlns:xlink="http://www.w3.org/1999/xlink" x="0px"
	 y="0px" width="128px" height="128px" viewBox="0 0 128 128" xml:space="preserve">
<g id="_x31_28px_boxes">
	<rect fill="none" width="128" height="128"/>
</g>
<g id="Production">
	<g>
		<path fill="#ffffff" d="M68.7055,28.9335v-7.5053h3.9853c2.0711,0,3.75-1.679,3.75-3.75c0-2.0711-1.6789-3.75-3.75-3.75h-20.76
			c-2.071,0-3.75,1.6789-3.75,3.75c0,2.071,1.679,3.75,3.75,3.75h3.9856v7.5053H68.7055z"/>
		<path fill="#ffffff" d="M112.1618,49.3412c-8.9077,2.7027-18.7466,10.7912-16.8474,22.3924
			c1.7893,10.7481,15.4267,26.3802-2.5845,29.3397c-1.2246-13.3757-8.9097-22.9774-22.9541-24.6811v12.0851h-4.5l0.0351-18.0366
			l7.8939-4.4925c0.5857-0.3335,0.9474-0.9556,0.9474-1.6297V44.4394l7.5518-2.7924c0.7359-0.2722,1.2246-0.9739,1.2246-1.7587
			v-4.6274c0-1.0355-0.8393-1.875-1.875-1.875H43.5685c-1.0356,0-1.875,0.8395-1.875,1.875v4.6274
			c0,0.7876,0.4922,1.4914,1.2322,1.7614l7.5439,2.7532v19.9156c0,0.6778,0.3658,1.3028,0.9568,1.6348l7.8845,4.4291v6.1804
			c-7.0019,1.0884-13.9533,3.9741-19.5134,6.8447c-1.842-4.2854-4.9489-6.7624-7.8718-5.9922
			c-4.7617,1.2557-2.7481,9.1182-4.5586,13.5442c-0.0134,0.0327-0.0164,0.0664-0.0254,0.1001
			c-7.8774,5.6953-14.9622,12.6263-14.9622,16.9754c0,6.3081,8.1551,6.0351,10.835,6.0351h61.6773
			c13.0774-0.5247,24.6217-4.828,26.9565-17.7573c1.1155-6.915-2.0352-12.1543-6.9861-20.9515
			c-1.7584-3.5532-7.9521-13.1585,9.1868-21.1282C117.0868,52.9043,115.3172,48.2854,112.1618,49.3412z M35.0602,100.8606
			c0,1.8641-1.5107,3.375-3.375,3.375c-1.8642,0-3.375-1.5109-3.375-3.375c0-1.8642,1.5108-3.375,3.375-3.375
			C33.5495,97.4856,35.0602,98.9964,35.0602,100.8606z"/>
	</g>
</g>
</svg>
