<?xml version="1.0" encoding="utf-8"?>
<!-- Generator: Adobe Illustrator 19.1.0, SVG Export Plug-In . SVG Version: 6.00 Build 0)  -->
<svg version="1.2" baseProfile="tiny" xmlns="http://www.w3.org/2000/svg" xmlns:xlink="http://www.w3.org/1999/xlink" x="0px"
	 y="0px" width="64px" height="64px" viewBox="0 0 64 64" xml:space="preserve">
<g id="box">
	<rect fill="none" width="64" height="64"/>
</g>
<g id="Production">
	<g>
		<path fill="#ffffff" d="M2.2,44c0,0,0.1981-2.1221,3.0344-4.9887c5.3564-5.4135,12.8957-3.0531,13.4294-8.804
			c0.1168-1.2582-0.258-2.8752-0.258-2.8752c-1.1792-1.2706-1.4361-3.3301-1.9005-5.4526
			c-1.4962-0.3032-1.9092-3.0274-1.8057-4.3462c0.0894-1.1389,0.6826-1.2147,0.8392-1.2147c0.0241,0,0.0378,0.0018,0.0378,0.0018
			s-0.877-3.942-0.3095-6.2667C16.0588,6.8112,20.8326,5,23.9797,5c3.147,0,5.9733,1.8112,6.7648,5.0537
			c0.5675,2.3247-0.3096,6.2667-0.3096,6.2667s0.0138-0.0018,0.0379-0.0018c0.1566,0,0.7498,0.076,0.8392,1.2147
			c0.1036,1.3188-0.3096,4.043-1.8057,4.3462c-0.4644,2.1226-0.3675,3.6044-1.9005,5.4526c0,0-0.3734,1.6125-0.2582,2.87
			c0.4094-0.5258,0.8411-1.0374,1.3198-1.5161c0.3891-0.3892,0.7958-0.7538,1.2164-1.0973c0.8967-1.4377,1.1229-2.7529,1.342-4.0325
			c0.0194-0.1133,0.039-0.2281,0.0594-0.3448c1.6803-1.2868,2.1606-4.0538,2.0207-5.8348c-0.0647-0.8243-0.3137-1.4709-0.67-1.953
			c0.2416-1.5176,0.5037-3.9926,0.0516-5.8443C31.7268,5.644,28.2274,3,23.9797,3C20.3303,3,14.42,5.0911,13.3243,9.5794
			c-0.452,1.8517-0.1899,4.3267,0.0516,5.8443c-0.3563,0.4821-0.6053,1.1287-0.6701,1.9529
			c-0.1403,1.7872,0.3436,4.5671,2.0381,5.8481c0.0012,0.006,0.0024,0.0119,0.0037,0.0178c0.3578,1.747,0.7266,3.5474,1.7949,4.9735
			c0.0939,0.5471,0.1777,1.2905,0.1299,1.8065c-0.1511,1.6284-0.9948,2.0533-4.2548,3.0286
			c-2.5944,0.7762-5.8234,1.7422-8.6049,4.5534C-0.0635,41.5222,0.182,44.0996,0.0046,46h25.1414
			c-0.2624-0.6491-0.4692-1.3192-0.6439-2H2.2z"/>
		<path fill="#ffffff" d="M62.4141,59.5859L51.2025,48.3743c1.8068-2.407,2.798-5.311,2.7975-8.3738
			c0.0005-3.7397-1.4561-7.2559-4.1001-9.9004c-2.6445-2.644-6.1606-4.1006-9.9004-4.1001c-0.0005,0-0.001,0-0.002,0
			c-3.7383,0-7.2534,1.4561-9.8975,4.1001c-2.644,2.6445-4.1006,6.1602-4.1001,9.8994c0,3.7402,1.4561,7.2559,4.1006,9.9004
			C32.7446,52.5439,36.2593,54,39.998,54c0.001,0,0.002,0,0.0029,0c3.0623,0,5.9666-0.9912,8.3733-2.7976l11.2117,11.2117
			L62.4141,59.5859z M40.0005,52H40c-0.0005,0-0.0015,0-0.002,0c-3.2046,0-6.2173-1.248-8.4834-3.5142
			C29.248,46.2192,28,43.2056,28,39.9995c0-3.2051,1.248-6.2188,3.5146-8.4854C33.7808,29.248,36.793,28,39.9976,28
			c0.0005,0,0.0015,0,0.002,0c3.2061,0,6.2197,1.248,8.4858,3.5146C50.752,33.7808,52,36.7944,52,40.0005
			c0.0005,3.2051-1.2476,6.2183-3.5142,8.4849S43.2061,52,40.0005,52z"/>
	</g>
</g>
</svg>

