<?xml version="1.0" encoding="utf-8"?>
<!-- Generator: Adobe Illustrator 18.1.1, SVG Export Plug-In . SVG Version: 6.00 Build 0)  -->
<svg version="1.2" baseProfile="tiny" xmlns="http://www.w3.org/2000/svg" xmlns:xlink="http://www.w3.org/1999/xlink" x="0px"
	 y="0px" width="64px" height="64px" viewBox="0 0 64 64" xml:space="preserve">

<g id="Production">
	<g>
		<rect x="16" y="6" fill="#ffffff" width="2" height="14"/>
		<rect x="20" y="6" fill="#ffffff" width="4" height="14"/>
		<rect x="29" y="6" fill="#ffffff" width="2" height="14"/>
		<rect x="35" y="6" fill="#ffffff" width="2" height="14"/>
		<rect x="40" y="6" fill="#ffffff" width="4" height="14"/>
		<rect x="46" y="6" fill="#ffffff" width="2" height="14"/>
		<path fill="#ffffff" d="M44.7998,33h-0.0206l12.3501-13h-2.7582L42.021,33H21.979L9.6289,20H6.8707l12.3501,13h-0.0206
			c-1.986,0-3.4819,1.7517-3.1558,3.6587l1.0068,5.873C17.5859,45.6489,20.3413,48,23.4614,48h1.9165
			c0.2339,1.8066,0.7607,5.897,0.9033,7.1465C26.5283,57.3076,28.4048,59,30.5542,59h2.8916c2.1494,0,4.0259-1.6924,4.2729-3.8535
			c0.1426-1.2495,0.6694-5.3398,0.9033-7.1465h1.9165c3.1201,0,5.8755-2.3511,6.4102-5.4683l1.0068-5.873
			C48.282,34.7501,46.7843,33,44.7998,33z M44.9771,42.1938C44.6055,44.3638,42.6973,46,40.5386,46h-3.6738
			c-0.2047,1.5738-0.9547,7.3577-1.1333,8.9199C35.6006,56.0669,34.5752,57,33.4458,57h-2.8916
			c-1.1294,0-2.1548-0.9331-2.2856-2.0801C28.09,53.3583,27.3405,47.5782,27.1353,46h-3.6738c-2.1587,0-4.0669-1.6362-4.4385-3.8062
			l-1.0068-5.873C17.8948,35.6146,18.4772,35,19.2002,35h25.5996c0.723,0,1.3054,0.6146,1.1841,1.3208L44.9771,42.1938z"/>
		<circle fill="#ffffff" cx="32" cy="40" r="2"/>
	</g>
</g>
</svg>
