<?xml version="1.0" encoding="utf-8"?>
<!-- Generator: Adobe Illustrator 18.1.1, SVG Export Plug-In . SVG Version: 6.00 Build 0)  -->
<svg version="1.2" baseProfile="tiny" xmlns="http://www.w3.org/2000/svg" xmlns:xlink="http://www.w3.org/1999/xlink" x="0px"
	 y="0px" width="64px" height="64px" viewBox="0 0 64 64" xml:space="preserve">

<g id="Production">
	<g>
		<path fill="#ffffff" d="M7,33V21h40v3h2v-9c0-2.7568-2.2432-5-5-5H10c-2.7568,0-5,2.2432-5,5v18c0,2.7568,2.2432,5,5,5h3v-2h-3
			C8.3457,36,7,34.6543,7,33z M7,15c0-1.6543,1.3457-3,3-3h34c1.6543,0,3,1.3457,3,3v2H7V15z"/>
		<path fill="#ffffff" d="M54,26H20c-2.7568,0-5,2.2432-5,5v18c0,2.7568,2.2432,5,5,5h34c2.7568,0,5-2.2432,5-5V31
			C59,28.2432,56.7568,26,54,26z M57,49c0,1.6543-1.3457,3-3,3H20c-1.6543,0-3-1.3457-3-3V31c0-1.6543,1.3457-3,3-3h34
			c1.6543,0,3,1.3457,3,3V49z"/>
		<path fill="#ffffff" d="M24,39h3c1.1045,0,2-0.8954,2-2v-2c0-1.1046-0.8955-2-2-2h-3c-1.1045,0-2,0.8954-2,2v2
			C22,38.1046,22.8955,39,24,39z"/>
		<rect x="22" y="48" fill="#ffffff" width="14" height="2"/>
		<rect x="22" y="41" fill="#ffffff" width="6" height="2"/>
		<rect x="30" y="41" fill="#ffffff" width="6" height="2"/>
		<rect x="38" y="41" fill="#ffffff" width="6" height="2"/>
		<rect x="46" y="41" fill="#ffffff" width="6" height="2"/>
	</g>
</g>
</svg>
