<?xml version="1.0" encoding="utf-8"?>
<!-- Generator: Adobe Illustrator 18.1.1, SVG Export Plug-In . SVG Version: 6.00 Build 0)  -->
<svg version="1.2" baseProfile="tiny" xmlns="http://www.w3.org/2000/svg" xmlns:xlink="http://www.w3.org/1999/xlink" x="0px"
	 y="0px" width="128px" height="128px" viewBox="0 0 128 128" xml:space="preserve">
<g id="_x31_28px_boxes">
	<rect fill="none" width="128" height="128"/>
</g>
<g id="Production">
	<g>
		<path fill="#ffffff" d="M40.6075,83.3529l-13.0711,22.5523c-0.6453,1.1138,0.1588,2.5136,1.4485,2.5136h0.0004l15.4224-0.0048
			l11.5103,10.8217c1.0106,0.9508,2.6854,0.322,2.8137-1.0654l2.6757-28.904C53.9501,92.6425,45.1736,90.1495,40.6075,83.3529z"/>
		<path fill="#ffffff" d="M87.3929,83.3534c-4.5993,6.8452-13.4035,9.2628-20.8003,5.9148l2.6755,28.9021
			c0.1291,1.3942,1.8067,2.0127,2.8137,1.0654l11.5107-10.8217l15.4222,0.0048h0.0005c1.2896,0,2.0939-1.3999,1.4485-2.5136
			L87.3929,83.3534z"/>
		<path fill="#ffffff" d="M85.3293,73.3292c11.4013,2.7065,19.3915-11.1403,11.3483-19.6572
			c10.4745-5.2522,7.6964-20.9992-3.9409-22.3535c4.6484-10.7579-7.6035-21.0334-17.3879-14.5901
			c-3.3542-11.2258-19.3437-11.2244-22.6976,0c-9.7866-6.4452-22.0348,3.8357-17.3878,14.5901
			c-11.6409,1.354-14.4128,17.1016-3.9414,22.3535c-8.0463,8.5194-0.0489,22.3647,11.3493,19.657
			c-0.687,11.6963,14.3387,17.1635,21.329,7.7629C70.9934,90.4947,86.0158,85.023,85.3293,73.3292z M64.0001,72.9914
			c-14.292,0-25.9195-11.6272-25.9195-25.9192s11.6275-25.9195,25.9195-25.9195s25.9194,11.6275,25.9194,25.9195
			S78.2921,72.9914,64.0001,72.9914z"/>
		<path fill="#ffffff" d="M64.0001,26.0502c-11.5916,0-21.022,9.4304-21.022,21.022c0,11.5913,9.4304,21.0217,21.022,21.0217
			c11.5915,0,21.0219-9.4304,21.0219-21.0217C85.022,35.4806,75.5916,26.0502,64.0001,26.0502z M75.2783,44.9494l-5.1812,3.7641
			l1.979,6.0913c0.5627,1.7311-1.4309,3.1669-2.895,2.1033l-5.181-3.7644l-5.1808,3.7644c-1.4698,1.068-3.4567-0.3755-2.895-2.1033
			l1.979-6.091l-5.1813-3.7644c-1.4701-1.0679-0.711-3.4034,1.1057-3.4034h6.4042l1.979-6.0903
			c0.5615-1.7286,3.0171-1.7276,3.5783,0l1.979,6.0903h6.4042C75.9893,41.546,76.748,43.8816,75.2783,44.9494z"/>
	</g>
</g>
</svg>
