<?xml version="1.0" encoding="utf-8"?>
<!-- Generator: Adobe Illustrator 18.1.1, SVG Export Plug-In . SVG Version: 6.00 Build 0)  -->
<svg version="1.2" baseProfile="tiny" xmlns="http://www.w3.org/2000/svg" xmlns:xlink="http://www.w3.org/1999/xlink" x="0px"
	 y="0px" width="128px" height="128px" viewBox="0 0 128 128" xml:space="preserve">
<g id="_x31_28px_boxes">
	<rect fill="none" width="128" height="128"/>
</g>
<g id="Production">
	<g>
		<path fill="#ffffff" d="M102.6654,68.8286H25.2765c-1.0819,0-1.9591,0.8771-1.9591,1.9591v34.1125
			c0,1.0819,0.8772,1.9591,1.9591,1.9591h77.3889c1.0819,0,1.9591-0.8772,1.9591-1.9591V70.7877
			C104.6245,69.7057,103.7473,68.8286,102.6654,68.8286z M34.0498,100.8045c0,0.8085-0.6555,1.464-1.464,1.464
			c-0.8085,0-1.464-0.6555-1.464-1.464v-25.918c0-0.8084,0.6555-1.464,1.464-1.464c0.8085,0,1.464,0.6556,1.464,1.464V100.8045z
			 M44.5198,100.8045c0,0.8085-0.6555,1.464-1.464,1.464c-0.8085,0-1.464-0.6555-1.464-1.464V74.8867
			c0-0.8085,0.6555-1.464,1.464-1.464c0.8085,0,1.464,0.6555,1.464,1.464V100.8045z M54.9895,100.8045
			c0,0.8085-0.6555,1.464-1.464,1.464c-0.8085,0-1.464-0.6555-1.464-1.464v-25.918c0-0.8084,0.6555-1.464,1.464-1.464
			c0.8085,0,1.464,0.6556,1.464,1.464V100.8045z M65.4595,100.8045c0,0.8085-0.6555,1.464-1.464,1.464
			c-0.8085,0-1.464-0.6555-1.464-1.464v-25.918c0-0.8084,0.6555-1.464,1.464-1.464c0.8085,0,1.464,0.6556,1.464,1.464V100.8045z
			 M75.9294,100.8045c0,0.8085-0.6555,1.464-1.4639,1.464c-0.8085,0-1.464-0.6555-1.464-1.464v-25.918
			c0-0.8084,0.6555-1.464,1.464-1.464c0.8084,0,1.4639,0.6556,1.4639,1.464V100.8045z M86.3992,100.8045
			c0,0.8085-0.6555,1.464-1.464,1.464c-0.8085,0-1.464-0.6555-1.464-1.464v-25.918c0-0.8084,0.6555-1.464,1.464-1.464
			c0.8085,0,1.464,0.6556,1.464,1.464V100.8045z M96.8691,100.8045c0,0.8085-0.6555,1.464-1.4639,1.464
			c-0.8085,0-1.464-0.6555-1.464-1.464v-25.918c0-0.8084,0.6555-1.464,1.464-1.464c0.8084,0,1.4639,0.6556,1.4639,1.464V100.8045z"
			/>
		<path fill="#ffffff" d="M101.5546,47.9898c-1.7354,0-3.1421,1.4067-3.1421,3.1421v5.0978H77.0438l-2.9902-8.7969h5.2454v1.5369
			c0,1.9317,2.9238,1.9337,2.9238,0v-27.829c-0.5391,0-0.9221,0-1.1895,0c-0.4099,0-0.5464,0-0.5449,0c-0.2673,0-0.6504,0-1.1894,0
			v19.399h-7.5884l-0.6947-2.0435c-0.2084-0.6131-0.7841-1.0254-1.4315-1.0254h-3.3357V21.1407c-0.5391,0-0.9222,0-1.1895,0
			c-0.4099,0-0.5464,0-0.5449,0c-0.2674,0-0.6504,0-1.1895,0v16.3301h-3.8864c-0.6475,0-1.2231,0.4122-1.4314,1.0251l-0.6951,2.0438
			h-7.0371v-19.399c-0.5391,0-0.9221,0-1.1895,0c-0.4099,0-0.5464,0-0.5449,0c-0.2673,0-0.6504,0-1.1894,0v27.829
			c0,1.9317,2.9238,1.9337,2.9238,0v-1.5369h4.6931l-2.9916,8.7969H29.5875v-5.0978c0-1.7354-1.4067-3.1421-3.1421-3.1421
			c-1.7353,0-3.1421,1.4067-3.1421,3.1421c0,7.2856,0.0141,8.7675,0.0141,12.8579c0,1.0819,0.8772,1.9591,1.9591,1.9591h77.3889
			c1.0819,0,1.9591-0.8772,1.9591-1.9591c0-10.2817,0.0722,1.3677,0.0722-12.8579
			C104.6967,49.3965,103.2899,47.9898,101.5546,47.9898z M60.5807,56.2374l0.0019-0.0077l2.2527-8.7157h3.3491l2.252,8.7157
			l0.002,0.0077H60.5807z"/>
	</g>
</g>
</svg>
