<?xml version="1.0" encoding="utf-8"?>
<!-- Generator: Adobe Illustrator 18.1.1, SVG Export Plug-In . SVG Version: 6.00 Build 0)  -->
<svg version="1.2" baseProfile="tiny" xmlns="http://www.w3.org/2000/svg" xmlns:xlink="http://www.w3.org/1999/xlink" x="0px"
	 y="0px" width="128px" height="128px" viewBox="0 0 128 128" xml:space="preserve">
<g id="_x31_28px_boxes">
	<rect fill="none" width="128" height="128"/>
</g>
<g id="Production">
	<g>
		<path fill="#ffffff" d="M110.8105,106.0782L95.5006,94.812c-0.7026-0.5173-1.687-0.3623-2.1998,0.3348l-5.4088,7.3504
			c-0.7909-1.6238-1.5182-3.0287-1.8907-3.7229c-10.5176-19.6015-23.4869-5.6514-35.5671-16.3677
			c-5.5905-4.9593-5.7762-12.4067-11.7998-13.6728c-0.299-1.0913-0.8999-3.5705-0.9344-3.7224l9.68,1.399
			c0.7056,7.9656,6.324,15.9799,13.1519,15.9799c6.8276,0,12.4459-8.0143,13.1516-15.9799l11.7396-1.6965
			c2.2058-0.3187,2.1984-3.5156,0.0003-3.8346l-12.7448-1.8418c-0.2893-0.6837-0.6336-1.3201-1.025-1.911l6.8297-9.137
			c1.3244-1.7743-0.9254-4.0466-2.7117-2.7109l-9.8512,7.3631c-0.5113-0.1921-1.0389-0.3559-1.5821-0.4892l-1.89-13.0791
			c-0.3231-2.2264-3.5184-2.1909-3.8345,0.0005L56.7235,52.153c-0.5423,0.133-1.0693,0.2967-1.5799,0.4885l-9.8516-7.3639
			c-1.7878-1.3334-4.0363,0.9408-2.7107,2.7121l6.829,9.1363c-0.3916,0.5911-0.7359,1.2275-1.0254,1.9115l-11.5603,1.6706
			c-2.2747-12.4983-2.5497-25.1887-2.6142-26.1888h2.3132c0.8389,0,1.5189-0.68,1.5189-1.5189v-5.8903
			c0-0.8388-0.68-1.5189-1.5189-1.5189h-5.0979v-1.6289c5.699-3.7863,4.8988-13.4331-4.7858-18.2779
			c-1.0139-0.5094-2.0998,0.4418-1.7828,1.4804c1.1562,4.306-5.7861,5.6225-5.4452,10.9103
			c0.1891,2.9338,2.7393,5.1072,3.7534,5.8605v1.6556h-5.0979c-0.8389,0-1.5189,0.6801-1.5189,1.5189v5.8903
			c0,0.8389,0.68,1.5189,1.5189,1.5189h2.9352c-3.6473,4.4363-2.2616,12.0281,2.5941,14.1337
			c1.254,13.0347,3.1139,20.7979,5.3056,27.7092c-1.8356,4.3076-3.1819,9.7405-3.3189,14.4675
			c-0.3307,11.4068,3.3699,17.3227,12.6244,21.5163l-0.8889,10.1112h63.3932l10.4332-14.1794
			C111.6603,107.5779,111.5104,106.5931,110.8105,106.0782z"/>
	</g>
</g>
</svg>

