<?xml version="1.0" encoding="utf-8"?>

<svg version="1.2" baseProfile="tiny" xmlns="http://www.w3.org/2000/svg" xmlns:xlink="http://www.w3.org/1999/xlink" x="0px"
	 y="0px" width="128px" height="128px" viewBox="0 0 128 128" xml:space="preserve">
<g id="_x31_28px_boxes">
	<rect fill="none" width="128" height="128"/>
</g>
<g id="Production">
	<g>
		<path fill="#ffffff" d="M94.8643,21.9116C94.3818,20.1855,92.8071,19,91.0149,19H36.9856c-1.7922,0-3.3669,1.1855-3.8494,2.9116
			C31.2642,28.6099,27,46.1289,27,66.7358V92.5c0,1.9331,1.567,3.5,3.5,3.5h67.0005c1.933,0,3.5-1.5669,3.5-3.5V66.7358
			C101.0005,46.1289,96.7363,28.6099,94.8643,21.9116z M48,83.5c0,1.9331-1.567,3.5-3.5,3.5h-6c-1.933,0-3.5-1.5669-3.5-3.5v-3
			c0-1.9331,1.567-3.5,3.5-3.5h6c1.933,0,3.5,1.5669,3.5,3.5V83.5z M93,83.5c0,1.9331-1.567,3.5-3.5,3.5h-6
			c-1.933,0-3.5-1.5669-3.5-3.5v-3c0-1.9331,1.567-3.5,3.5-3.5h6c1.933,0,3.5,1.5669,3.5,3.5V83.5z M93.7297,60.751
			C93.6882,62.5056,92.4951,64,90.74,64H37.2604c-1.7552,0-2.9481-1.4944-2.9896-3.249c-0.2298-9.7261,2.565-25.4126,3.2951-28
			C38.151,30.6775,39.4253,30,40.9856,30h46.0293c1.5603,0,2.8346,0.6775,3.4197,2.751
			C91.1646,35.3384,93.9595,51.0249,93.7297,60.751z"/>
		<path fill="#ffffff" d="M33,109c0,1.1045,0.8955,2,2,2h9c1.1045,0,2-0.8955,2-2v-9H33V109z"/>
		<path fill="#ffffff" d="M82,109c0,1.1045,0.8955,2,2,2h9c1.1045,0,2-0.8955,2-2v-9H82V109z"/>
	</g>
</g>
</svg>
