<?xml version="1.0" encoding="utf-8"?>
<!-- Generator: Adobe Illustrator 18.1.1, SVG Export Plug-In . SVG Version: 6.00 Build 0)  -->
<svg version="1.2" baseProfile="tiny" xmlns="http://www.w3.org/2000/svg" xmlns:xlink="http://www.w3.org/1999/xlink" x="0px"
	 y="0px" width="128px" height="128px" viewBox="0 0 128 128" xml:space="preserve">
<g id="_x31_28px_boxes">
	<rect fill="none" width="128" height="128"/>
</g>
<g id="Production">
	<g>
		<path fill="#ffffff" d="M74.538,66.3405c0-1.619-1.3125-2.9314-2.9314-2.9314H56.4955c-1.6191,0-2.9314,1.3124-2.9314,2.9314
			v14.8572l-19.8762,34.5969h10.6909l9.1853-15.9883v15.9883H74.538v-15.7341l9.0864,15.7341H94.329l-19.791-34.27V66.3405z"/>
		<path fill="#ffffff" d="M51.4135,38.0023c8.4009,5.2644,9.7251,15.0006,9.9045,18.9421c0.127,2.7932,4.2291,3.3583,5.0594,0.6379
			c1.6833-5.5149,3.3476-11.02,4.561-16.6626c0.6504-3.0241,1.3552-8.7109,0.8936-11.9194
			c-1.8472-14.7988-9.7268-16.7949-17.1924-16.7949c-7.9688,0-14.4517,5.2956-14.4517,11.805
			C40.1879,30.064,47.2211,35.3752,51.4135,38.0023z"/>
		<path fill="#ffffff" d="M54.0512,57.1149c2.0869,1.3176,4.6523-0.9394,3.5317-3.1916c-0.1635-0.3284-1.7102-3.3057-5.665-6.7089
			c-0.0325-0.0278-0.0654-0.0548-0.0994-0.0809c-6.6501-5.1476-15.3259-9.2206-23.6599-9.2206c-7.645,0-12.322,3.6744-12.5112,9.829
			c-0.0005,0.0253-0.001,0.0506-0.001,0.0759c0,5.7378,3.7056,9.1636,9.9129,9.1636c2.7194,0,6.6621-1.4501,10.821-2.2608
			C42.1005,53.6058,48.9523,53.9501,54.0512,57.1149z"/>
		<path fill="#ffffff" d="M99.5995,32.0313l-0.0808,0.0001c-7.5766,0.0269-14.9162,3.7627-21.2256,10.8037
			c-1.9697,2.198-3.6272,4.3726-5.2995,6.7966c-0.9985,1.4471-3.3037,4.6628-1.3047,6.2271
			c0.6973,0.5457,1.7129,0.6845,2.5349,0.0125c2.7507-2.2488,5.5088-4.5965,9.0552-5.4319
			c5.4548-1.2851,12.187,1.3063,17.9224,1.3063c4.3911,0,8.0004-1.8882,9.9011-5.1804
			C114.5705,40.5588,110.8578,32.0313,99.5995,32.0313z"/>
	</g>
</g>
</svg>
