<?xml version="1.0" encoding="utf-8"?>

<svg version="1.2" baseProfile="tiny" xmlns="http://www.w3.org/2000/svg" xmlns:xlink="http://www.w3.org/1999/xlink" x="0px"
	 y="0px" width="128px" height="128px" viewBox="0 0 128 128" xml:space="preserve">
<g id="_x31_28px_boxes">
	<rect fill="none" width="128" height="128"/>
</g>
<g id="Production">
	<g>
		<path fill="#ffffff" d="M104.5,51H103v-6.4343c-5.3413,0-9.083-1.0303-12.2214-2.2713c-0.7399,0.7515,0.117-0.1027-5.3714,5.323
			c3.407,1.5403,6.6587,2.7293,10.5332,3.3826c0.0205,0.0034,0.0391,0.0081,0.0596,0.0115c0,11.0295,0,37.6079,0,48.0644
			c-7.3757-2.1682-16.2792-10.7375-29-4.5573V63.8601c-2.3162,0.7293-4.6746,0.738-7,0.0259v30.6323
			c-12.8066-6.2209-21.942,2.4827-29,4.5576c0-10.5642,0-37.1194,0-48.0644c0.0205-0.0034,0.0391-0.0081,0.0596-0.0115
			c3.8271-0.6455,7.081-1.824,10.4724-3.355l-5.3823-5.3222C33.0259,43.551,29.3007,44.5657,24,44.5657V51h-1.5
			c-1.9331,0-3.5,1.5674-3.5,3.5v52c0,1.9326,1.5669,3.5,3.5,3.5h31.8862c2.7398,5.3196,16.4932,5.3093,19.2276,0H104.5
			c1.9331,0,3.5-1.5674,3.5-3.5v-52C108,52.5674,106.4331,51,104.5,51z"/>
		<path fill="#ffffff" d="M86.7869,39.2224c-6.4722-6.4319-14.8869-9.6289-23.315-9.6243
			c-8.3789-0.0053-16.7568,3.116-23.3476,9.6238c0.95,0.9392,5.5888,5.5252,6.5195,6.4456
			c4.74-4.6807,10.7466-6.9509,16.8281-6.9568c6.0382,0.0059,11.9981,2.2339,16.7957,6.9568
			C81.6672,44.2837,84.2468,41.7339,86.7869,39.2224z"/>
		<path fill="#ffffff" d="M52.6295,51.5852c5.5917,5.5276,6.452,6.6704,8.5199,7.4148c1.4895,0.5361,3.1237,0.5361,4.6128,0
			c2.0671-0.7446,2.9148-1.8772,8.5192-7.4143c-2.7688-2.8125-6.7472-4.5071-10.8195-4.5056
			C59.2532,47.0786,55.2798,48.8765,52.6295,51.5852z"/>
		<path fill="#ffffff" d="M34.2085,33.3057c8.1113-8.0171,18.7139-11.9722,29.3694-11.9776
			c10.5455,0.0049,21.0588,4.0061,29.1252,11.9766c0.0115,0.0115,0.0222,0.0234,0.0346,0.0347l6.5175-6.4434
			c-0.0123-0.0117-0.023-0.0237-0.0355-0.0352c-9.8248-9.717-22.7412-14.6496-35.6418-14.6455
			c-12.9563-0.0058-25.9846,4.8521-35.8877,14.6465c-0.0116,0.0115-0.0222,0.023-0.0337,0.0342l6.5181,6.4438
			C34.186,33.3284,34.197,33.3171,34.2085,33.3057z"/>
	</g>
</g>
</svg>
