<?xml version="1.0" encoding="utf-8"?>
<!-- Generator: Adobe Illustrator 18.1.1, SVG Export Plug-In . SVG Version: 6.00 Build 0)  -->
<svg version="1.2" baseProfile="tiny" xmlns="http://www.w3.org/2000/svg" xmlns:xlink="http://www.w3.org/1999/xlink" x="0px"
	 y="0px" width="128px" height="128px" viewBox="0 0 128 128" xml:space="preserve">
<g id="_x31_28px_boxes">
	<rect fill="none" width="128" height="128"/>
</g>
<g id="Production">
	<g>
		<path fill="#ffffff" d="M101.1836,74.6007c0-1.6289-0.906-3.1859-2.5547-4.6159V54.3963
			c1.6487-1.4303,2.5547-2.9873,2.5547-4.6164c0-1.6289-0.906-3.1856-2.5547-4.6156V31.3772
			c1.9097-2.385,2.3775-4.7132,2.3775-6.4182C101.0064,11.9236,77.689,8.4267,64,8.4267c-13.5688,0-37.0071,3.4836-37.0071,16.5323
			c0,1.705,0.468,4.033,2.3777,6.4177v13.7879c-1.6484,1.4299-2.5542,2.9867-2.5542,4.6153c0,1.6291,0.9058,3.1858,2.5542,4.6158
			v15.5896c-1.6484,1.43-2.5542,2.9865-2.5542,4.6154c0,1.6291,0.9058,3.1858,2.5542,4.6158v15.4439
			c-1.6484,2.0634-2.5542,4.3097-2.5542,6.6599c0,10.0807,16.6475,18.253,37.1836,18.253c20.5364,0,37.1836-8.1723,37.1836-18.253
			c0-2.3504-0.906-4.5969-2.5547-6.6604V79.2171C100.2776,77.7868,101.1836,76.2299,101.1836,74.6007z M67.1108,89.0409v5.7965
			h-5.7959v-5.471c-3.9731-0.195-8.1408-1.3672-10.5505-2.9303l2.0186-6.5125c2.1491,1.3029,6.383,2.5397,9.5737,2.5397
			c2.9961,0,5.0149-0.846,5.0149-2.6049c0-1.4326-0.9771-2.3437-5.471-3.8421c-7.4887-2.2796-10.3545-5.0146-10.3545-9.638
			c0-4.4939,3.9073-7.88,10.1597-8.9223v-6.0572h5.7954v5.7317c3.6472,0.1953,6.9031,1.1073,8.7271,2.1485l-1.9541,6.3175
			c-1.628-0.9118-4.8196-2.0188-8.01-2.0188c-2.8006,0-4.7544,0.8463-4.7544,2.3446c0,1.4973,0.9121,2.2141,5.9914,3.7768
			c7.5547,2.3446,10.2244,5.3402,10.2244,9.7036C77.7256,83.7658,74.144,87.8692,67.1108,89.0409z M63.9995,35.4428
			c-14.2322,0-28.6396-3.6814-28.6396-10.7172c0-7.0353,14.4074-10.7167,28.6396-10.7167c14.2324,0,28.6404,3.6814,28.6404,10.7167
			C92.6399,31.7614,78.2319,35.4428,63.9995,35.4428z"/>
		<ellipse fill="#ffffff" cx="50.0508" cy="24.9507" rx="6.6221" ry="3.4302"/>
	</g>
</g>
</svg>
