<?xml version="1.0" encoding="utf-8"?>
<!-- Generator: Adobe Illustrator 18.1.1, SVG Export Plug-In . SVG Version: 6.00 Build 0)  -->
<svg version="1.2" baseProfile="tiny" xmlns="http://www.w3.org/2000/svg" xmlns:xlink="http://www.w3.org/1999/xlink" x="0px"
	 y="0px" width="128px" height="128px" viewBox="0 0 128 128" xml:space="preserve">
<g id="_x31_28px_boxes">
	<rect fill="none" width="128" height="128"/>
</g>
<g id="Production">
	<g>
		<path fill="#ffffff" d="M99.6104,67.1725c-1.9428-4.5209-4.0661-8.9837-6.3674-13.3806
			c-7.0444,1.4657-14.4216,3.6228-21.3242,6.3506c-10.0584-0.8591-19.811-0.0711-29.408,1.9773
			c13.1382-9.1403,30.1988-14.5161,45.8565-17.0972c-1.7949-3.0463-3.6782-6.0571-5.6458-9.0308
			c-12.2009,1.9888-25.3562,5.7997-36.2492,11.6524c3.1186-5.209,6.4997-10.313,10.1428-15.2952
			c6.6452-1.9467,13.4673-3.3612,20.5642-4.3245c-2.7249-3.7304-5.5884-7.3952-8.5879-10.9892
			c1.9414-1.4483,3.1985-3.7625,3.1985-6.3706c0-4.3867-3.5562-7.9429-7.9429-7.9429s-7.9429,3.5562-7.9429,7.9429
			c0,2.6079,1.2571,4.9223,3.1983,6.3703C45.9886,32.7498,35.5611,49.6988,27.9683,67.4401
			c-4.9279,3.3551-5.5344,9.9523-4.614,15.8479c1.0186,6.5263,4.4576,9.9887,7.3169,11.508
			c5.7154,19.9142,22.958,30.4822,33.346,30.4822c10.0732,0,27.7104-9.8703,33.3318-30.498
			c2.8537-1.5276,6.2727-4.9883,7.2876-11.492C106.0665,74.1291,103.1258,69.322,99.6104,67.1725z M97.5335,82.1796
			c-0.8032,5.1468-3.5112,6.28-4.0378,6.4533l-2.1404,0.3216c-0.6445,2.7851-1.1467,5.2913-2.6047,8.7655
			c-5.938,14.1468-18.628,20.3692-24.7334,20.3692c-2.9771,0-8.4903-1.6858-14.2295-6.4367
			c-7.647-6.3301-10.9507-13.6196-13.1509-22.5486l-2.1875-0.4778c-0.031-0.0068-3.1299-0.9234-3.9919-6.4468
			c-0.5987-3.8347-0.2359-6.859,0.9956-8.2976c0.4096-0.4783,1.1689-1.1098,3.0185-1.134v7.1206
			c0,1.6362,1.3264,2.9626,2.9627,2.9626c1.6362,0,2.9626-1.3264,2.9626-2.9626v-4.085c0.8172,0.0398,1.7134-0.0771,2.6946-0.4043
			c5.3249-1.7749,8.8264-4.3989,11.1291-7.0498c4.5721,5.2744,14.1663,10.8198,33.3736,4.8867v6.6526
			c0,1.6362,1.3264,2.9627,2.9626,2.9627c1.6363,0,2.9627-1.3265,2.9627-2.9627v-7.1208c1.8498,0.0244,2.6091,0.6557,3.0188,1.1342
			C97.7694,75.3204,98.1322,78.3446,97.5335,82.1796z"/>
		<path fill="#ffffff" d="M51.7559,80.9313c-2.9917,0-5.4155,2.4248-5.4155,5.4175c0,2.9887,2.4238,5.4133,5.4155,5.4133
			c2.9869,0,5.4151-2.4246,5.4151-5.4133C57.171,83.3561,54.7428,80.9313,51.7559,80.9313z"/>
		<path fill="#ffffff" d="M76.0484,80.9313c-2.9922,0-5.417,2.4248-5.417,5.4175c0,2.9887,2.4248,5.4133,5.417,5.4133
			c2.9859,0,5.4107-2.4246,5.4107-5.4133C81.4591,83.3561,79.0343,80.9313,76.0484,80.9313z"/>
	</g>
</g>
</svg>
