<?xml version="1.0" encoding="utf-8"?>

<svg version="1.2" baseProfile="tiny" xmlns="http://www.w3.org/2000/svg" xmlns:xlink="http://www.w3.org/1999/xlink" x="0px"
	 y="0px" width="128px" height="128px" viewBox="0 0 128 128" xml:space="preserve">
<g id="_x31_28px_boxes">
	<rect fill="none" width="128" height="128"/>
</g>
<g id="Production">
	<g>
		<path fill="#ffffff" d="M35.1943,52.2026c-3.2671,2.5088-3.2816,2.5201-4.0398,3.1023l-1.8198,11.8465
			c0.1394,0.1489,3.0971,3.3178,3.2532,3.4853h13.9687c0.9176-0.8032,3.1697-2.7742,4.0872-3.5771L51.3,55.2239l-3.3034-3.0213
			H35.1943z"/>
		<path fill="#ffffff" d="M70.8445,91.4326v-7.5952H57.157v7.5952c-5.2424,0.6831-9.2908,5.1631-9.2908,10.5899h32.2691
			C80.1353,96.5962,76.0867,92.1167,70.8445,91.4326z"/>
		<path fill="#ffffff" d="M70.3623,49.9238c0.7345-0.6435,2.5736-2.2549,3.3052-2.8955l-0.481-9.7844
			c-2.5746-1.9783-1.758-1.3508-3.3115-2.5442H58.1255c-1.5744,1.2095-0.8533,0.6553-3.312,2.5442l-0.48,9.7839
			c0.7281,0.6382,2.5706,2.2525,3.3047,2.896H70.3623z"/>
		<path fill="#ffffff" d="M37.5537,34.6995c-2.8996,2.0617-1.8191,1.2932-3.6301,2.581l-1.5042,9.7932
			c0.584,0.563-0.3039-0.2932,2.9561,2.8506h12.7202l3.6611-2.938l0.5423-9.7837c-2.4688-2.0615-1.5758-1.3159-2.9976-2.5031
			H37.5537z"/>
		<path fill="#ffffff" d="M70.4021,52.2026h-12.804c-0.7133,0.5957-2.9819,2.4903-3.6689,3.064L53.3479,67.103
			c1.2369,1.1924,2.4437,2.3557,3.6663,3.5342h13.9724c0.8249-0.7954,2.841-2.7385,3.666-3.5337l-0.5813-11.8369
			C71.1499,52.8269,71.0759,52.7654,70.4021,52.2026z"/>
		<path fill="#ffffff" d="M102.8025,34.4507c-0.8515-4.9656-5.3092-8.4661-10.2256-8.4732H35.4275
			c-4.9175,0.0071-9.3743,3.5081-10.2261,8.4737L19.47,67.7197c-1.1852,6.8472,3.4853,12.7256,10.5688,12.7256h67.888
			c6.2658,0.0173,10.7971-4.7265,10.7863-10.6572C108.7131,68.3242,109.0398,70.6499,102.8025,34.4507z M103.5586,69.7881
			c-0.0089,3.105-2.1718,5.4868-5.6318,5.5029H30.0776c-3.9975-0.0207-6.1594-3.0366-5.528-6.6951l5.7319-33.2705
			c0.4333-2.5004,2.7622-4.1999,5.146-4.1931h57.1494c2.3798-0.0068,4.7107,1.689,5.1462,4.1931
			C103.8425,70.8452,103.5586,68.8218,103.5586,69.7881z"/>
		<path fill="#ffffff" d="M92.6252,49.9238c0.657-0.6333,2.2853-2.2031,2.9559-2.8496l-1.5054-9.7939
			c-2.0684-1.4705-0.5687-0.4043-3.6306-2.5806H78.6985c-1.4481,1.209-0.7927,0.6616-2.9981,2.5034l0.543,9.7827l3.6611,2.938
			H92.6252z"/>
		<path fill="#ffffff" d="M92.8047,52.2031H80.0032l-3.3028,3.0208l0.656,11.8359c0.9176,0.803,3.1701,2.7742,4.0877,3.5769h13.968
			c0.1168-0.125,2.9389-3.1484,3.2534-3.4853l-1.8198-11.8465C96.3284,54.908,93.2988,52.5823,92.8047,52.2031z"/>
	</g>
</g>
</svg>
