<?xml version="1.0" encoding="utf-8"?>
<!-- Generator: Adobe Illustrator 18.1.1, SVG Export Plug-In . SVG Version: 6.00 Build 0)  -->
<svg version="1.2" baseProfile="tiny" xmlns="http://www.w3.org/2000/svg" xmlns:xlink="http://www.w3.org/1999/xlink" x="0px"
	 y="0px" width="128px" height="128px" viewBox="0 0 128 128" xml:space="preserve">
<g id="_x31_28px_boxes" display="none">
	<rect display="inline" fill="none" width="128" height="128"/>
</g>
<g id="Production">
	<g>
		<path fill="#ffffff" d="M102.885,80.6241c-6.4893,0-11.75,5.2608-11.75,11.75c0,6.4893,5.2607,11.75,11.75,11.75
			c6.4892,0,11.75-5.2607,11.75-11.75C114.635,85.8849,109.3742,80.6241,102.885,80.6241z M102.885,96.921
			c-2.5112,0-4.5469-2.0356-4.5469-4.5469c0-2.5112,2.0357-4.5468,4.5469-4.5468s4.5469,2.0356,4.5469,4.5468
			C107.4319,94.8854,105.3962,96.921,102.885,96.921z"/>
		<path fill="#ffffff" d="M126.2751,58.4716l-5.5449-19.7822c-0.4893-1.7451-2.0801-2.9515-3.8926-2.9515H95.5617
			c-2.2326,0-4.0424,1.8098-4.0424,4.0426c0,0,0.0073,36.3243,0.0183,36.4447c0,0,11.7832-0.0077,11.8586,0
			c9.1998,0.2609,16.3675,8.1784,15.6592,17.3869h3.3271c2.2327,0,4.0425-1.8098,4.0425-4.0424
			C126.425,57.5473,126.52,59.347,126.2751,58.4716z M99.6042,58.942V43.8229h14.1682l4.2378,15.1191H99.6042z"/>
		<path fill="#ffffff" d="M84.0066,23.8759H4.6194c-1.6915,0-3.0625,1.371-3.0625,3.0625L1.5865,90.545
			c0,1.6915,1.3711,3.0625,3.0625,3.0625s3.0625-1.371,3.0625-3.0625V76.2132h79.3517V26.8224
			C87.0017,25.1851,85.6589,23.8759,84.0066,23.8759z M17.2325,66.2208c0,2.7072-4.0984,2.7115-4.0984,0V33.879
			c0-2.7071,4.0984-2.7114,4.0984,0V66.2208z M31.7973,66.2208c0,2.7073-4.0984,2.7114-4.0984,0V33.879
			c0-2.7071,4.0984-2.7114,4.0984,0V66.2208z M46.3622,66.2208c0,2.7072-4.0984,2.7115-4.0984,0V33.879
			c0-2.7072,4.0984-2.7113,4.0984,0V66.2208z M60.9269,66.2208c0,2.7072-4.0984,2.7115-4.0984,0V33.879
			c0-2.7072,4.0984-2.7113,4.0984,0V66.2208z M75.4914,66.2208c0,2.7073-4.0981,2.7115-4.0981,0V33.879
			c0-2.7072,4.0981-2.7114,4.0981,0V66.2208z"/>
		<path fill="#ffffff" d="M83.4582,80.6417H70.6838c-2.0295,0-3.675,1.6455-3.675,3.6751v4.9002
			c0,2.0294,1.6455,3.6749,3.675,3.6749h12.7744c1.5498,0,3.605-0.9154,3.605-3.6749c0-2.7596,0-2.6451,0-4.9002
			C87.0632,82.0616,85.2446,80.6417,83.4582,80.6417z"/>
		<path fill="#ffffff" d="M23.6975,80.6241c-6.4894,0-11.75,5.2608-11.75,11.75c0,6.4893,5.2606,11.75,11.75,11.75
			s11.75-5.2607,11.75-11.75C35.4475,85.8849,30.1869,80.6241,23.6975,80.6241z M23.6975,96.921
			c-2.5112,0-4.5469-2.0356-4.5469-4.5469c0-2.5112,2.0357-4.5468,4.5469-4.5468s4.5469,2.0356,4.5469,4.5468
			C28.2444,94.8854,26.2087,96.921,23.6975,96.921z"/>
		<path fill="#ffffff" d="M50.885,80.6241c-6.4894,0-11.75,5.2608-11.75,11.75c0,6.4893,5.2606,11.75,11.75,11.75
			s11.75-5.2607,11.75-11.75C62.635,85.8849,57.3744,80.6241,50.885,80.6241z M50.885,96.921c-2.5112,0-4.5469-2.0356-4.5469-4.5469
			c0-2.5112,2.0357-4.5468,4.5469-4.5468s4.5469,2.0356,4.5469,4.5468C55.4319,94.8854,53.3962,96.921,50.885,96.921z"/>
	</g>
</g>
</svg>
