<?xml version="1.0" encoding="utf-8"?>
<!-- Generator: Adobe Illustrator 19.1.0, SVG Export Plug-In . SVG Version: 6.00 Build 0)  -->
<svg version="1.2" baseProfile="tiny" xmlns="http://www.w3.org/2000/svg" xmlns:xlink="http://www.w3.org/1999/xlink" x="0px"
	 y="0px" width="64px" height="64px" viewBox="0 0 64 64" xml:space="preserve">
<g id="box">
	<rect fill="none" width="64" height="64"/>
</g>
<g id="Production">
	<g>
		<path fill="#ffffff" d="M3,46v6h58v-6H3z M59,50H5v-2h54V50z"/>
		<polygon fill="#ffffff" points="10,14 54,14 54,44 56,44 56,12 8,12 8,44 10,44 		"/>
		<rect x="14" y="43" fill="#ffffff" width="10" height="2"/>
		<path fill="#ffffff" d="M25.3135,36.9985c0.6875,0,1.4082-0.291,2.0645-0.856c0.4351-0.3746,0.8625-0.8519,1.2726-1.3787
			c0.4352,1.1508,1.255,1.8292,2.1175,2.0897c0.3213,0.0972,0.6509,0.144,0.9834,0.144c1.8271-0.0005,3.7373-1.4097,4.7285-3.6182
			c1.5166-3.3804-0.3545-5.7886-1.5562-6.5898l-1.1094,1.6641c0.0845,0.0562,2.0518,1.4082,0.8403,4.1074
			c-0.835,1.8623-2.3369,2.6719-3.3081,2.3784c-0.8237-0.2492-1.1785-1.372-0.9454-2.9377c0.2921-0.561,0.5495-1.1133,0.7554-1.6223
			c0.8521-2.1074,1.5225-4.0493,2.1709-5.9272c0.4414-1.2783,0.8677-2.5142,1.3267-3.7246l-1.8701-0.709
			c-0.4658,1.229-0.8989,2.4834-1.3472,3.7808c-0.6401,1.854-1.3018,3.771-2.1348,5.8301c-0.8096,2.0024-2.1377,4.0576-3.229,4.9976
			c-0.1807,0.1553-0.6323,0.5015-0.937,0.3237c-0.3215-0.1841-0.5642-0.8618-0.431-1.7621
			c1.6342-2.5142,2.7274-5.5049,3.0574-6.4732l-1.8926-0.6455c-0.0942,0.2759-0.1929,0.5518-0.2954,0.8276
			c-0.8931-0.4463-2.667-1.0264-4.6133,0.0303c-2.5488,1.3843-4.9473,5.5054-4.0088,8.1646
			c0.3774,1.0688,1.1567,1.7432,2.1943,1.8984c0.1685,0.0249,0.3354,0.0371,0.5005,0.0371c1.2227,0,2.3445-0.681,3.3462-1.6828
			c0.2525,0.5763,0.6365,1.0477,1.1479,1.341C24.5068,36.8955,24.9043,36.9985,25.3135,36.9985z M19.4424,35.0122
			c-0.2178-0.0322-0.4414-0.126-0.604-0.5859c-0.5405-1.5322,1.1562-4.6978,3.0771-5.7407
			c0.4761-0.2583,0.9375-0.3496,1.3521-0.3496c0.7046,0,1.2739,0.2637,1.5488,0.4194
			C23.2388,32.2974,21.1128,35.2642,19.4424,35.0122z"/>
		<path fill="#ffffff" d="M43.6206,28.3374c0.7505,0.0532,1.2036,0.8491,1.3633,1.189l1.8096-0.8516
			c-0.6553-1.3921-1.7598-2.2422-3.0312-2.332c-1.127-0.0771-2.8726,0.4111-4.7148,3.2129
			c-1.8906,2.8774-1.6284,4.6958-1.0752,5.7148c0.5967,1.0986,1.7861,1.7275,3.2666,1.7275c0.0093,0,0.0181,0,0.0269,0
			c1.8115-0.0093,3.3511-0.8462,5.4907-2.9863l-1.4141-1.4141c-2.207,2.207-3.2666,2.3965-4.0864,2.4004
			c-0.3652-0.0015-1.189-0.061-1.5259-0.6816c-0.4014-0.7397-0.0317-2.1089,0.9888-3.6621
			C41.7256,29.1226,42.7769,28.2852,43.6206,28.3374z"/>
	</g>
</g>
</svg>

