<?xml version="1.0" encoding="utf-8"?>

<svg version="1.2" baseProfile="tiny" xmlns="http://www.w3.org/2000/svg" xmlns:xlink="http://www.w3.org/1999/xlink" x="0px"
	 y="0px" width="64px" height="64px" viewBox="0 0 64 64" xml:space="preserve">

<g id="Production">
	<path fill="#ffffff" d="M52.485,4C38.2223,5.603,29.0043,8.952,18.0043,19.7478v4.4941l-5.2908-1.6699
		c-0.3384,4.1155-1.3394,6.4213-2.0979,9.6794c-1.3225,5.6746-0.481,10.8982,2.2075,14.8757
		c0.991-1.8376,1.9766-3.572,2.9316-5.2014c-1.8663-5.1748,0.182-9.884,0.9449-12.889l6.2946,1.9824v-9.2264
		c7-6.8545,14.9336-10.6943,25.2973-12.246c1.2734,9.4745,0.7263,17.9207-1.7483,26.2858l-11.8838,2.0596l4.1801,6.792
		c-5.7086,1.97-10.876,5.7809-16.4625,3.7958c6.2134-10.9471,11.592-17.4076,11.6661-17.4958l-3.8256-3.2043
		C26.9864,31.6194,18.3021,43,10.9288,60c1.2614,0,0.272,0,5.4929,0c1.1704-3,2.3596-4.8438,3.5405-7.0862
		c1.8083,0.751,3.6908,1.1313,5.6282,1.1313l0.001-0.0034c4.0674,0,7.7796-1.6738,11.0862-3.0779
		c3.4475-1.4639,5.1116-2.0435,10.2542-2.6736l-4.1367-6.7297l7.601-1.3206C54.7328,26.7914,54.6611,17.2992,52.485,4z"/>
</g>
</svg>
