<?xml version="1.0" encoding="utf-8"?>
<!-- Generator: Adobe Illustrator 18.1.1, SVG Export Plug-In . SVG Version: 6.00 Build 0)  -->
<svg version="1.2" baseProfile="tiny" xmlns="http://www.w3.org/2000/svg" xmlns:xlink="http://www.w3.org/1999/xlink" x="0px"
	 y="0px" width="64px" height="64px" viewBox="0 0 64 64" xml:space="preserve">

<g id="Production">
	<g>
		<path fill="#ffffff" d="M21.248,26.3105l23.0947-5.2471c1.917-0.4355,2.9821-2.3496,2.5465-4.2666
			c-0.4442-1.9564-2.2217-3.1182-4.1266-2.6865L19.668,19.3579c-1.9165,0.4355-2.9935,2.3496-2.558,4.2661
			C17.5536,25.5804,19.3433,26.7421,21.248,26.3105z M20.1113,21.3081l23.0947-5.2476c0.8552-0.1957,1.6859,0.3566,1.873,1.1797
			c0.1914,0.8413-0.3379,1.6816-1.1797,1.873l-23.0947,5.2471c-0.8325,0.1909-1.6865-0.3594-1.8726-1.1792
			C18.7407,22.3398,19.27,21.4995,20.1113,21.3081z"/>
		<path fill="#ffffff" d="M21.4785,16.9707l21.4106-4.8652c0.9287-0.2104,1.7197-0.7705,2.2271-1.5762
			c0.2947-0.4679,0.4585-0.9877,0.5153-1.5217c0.1605-0.5173,0.1427-1.0635-0.0612-1.6048
			c-0.4448-1.1816-1.771-2.2695-3.5464-2.9097c-2.5127-0.9087-5.6465-1.4092-8.8232-1.4092c-4.2505,0-9.3408,0.9272-10.8799,3.5298
			c-0.3638,0.6143-0.6626,1.5557-0.2324,2.7344c-0.0118,0.0562,0.0003,0.1149-0.0024,0.1723l-2.188,0.4971
			c-1.917,0.4355-3.1216,2.3496-2.686,4.2666C17.6562,16.2406,19.5737,17.4023,21.4785,16.9707z M24.042,7.6318
			c0.749-1.2661,4.1353-2.5479,9.1587-2.5479c1.9884,0,3.9343,0.2242,5.7066,0.6146L24.1519,9.0511
			C23.8776,8.5511,23.7542,8.1187,24.042,7.6318z M20.3413,11.9678L41.7529,7.103c0.8552-0.1957,1.6859,0.3566,1.873,1.1797
			c0.1916,0.842-0.3342,1.6802-1.1797,1.8726l-21.4111,4.8652c-0.8306,0.1904-1.6865-0.3594-1.873-1.1797
			C18.9707,12.9995,19.5,12.1592,20.3413,11.9678z"/>
		<path fill="#ffffff" d="M42.7627,23.4102L19.668,28.6577c-1.917,0.4355-2.9935,2.3496-2.558,4.2661
			c0.4432,1.9549,2.2325,3.1196,4.1381,2.687l10.6193-2.4129L29.4137,37H20v8.6094l4,3.8187v8.1384L29.7231,61h4.5537L40,57.5664
			V49.428l4-3.8187V37h-6.0996l3.8159-5.9131c0.0298-0.0461,0.046-0.0966,0.0733-0.1435l2.5532-0.5801
			c0.9287-0.2109,1.5792-0.771,2.0865-1.5767c0.5078-0.8062,0.6709-1.7612,0.46-2.6899
			C46.4449,24.1423,44.668,22.9776,42.7627,23.4102z M38,56.4336L33.7231,59h-3.4463L26,56.4336V50h12V56.4336z M42,39v5.7539
			L38.5991,48H25.4009L22,44.7539V39H42z M35.52,37h-3.7256l2.8629-4.436l4.3658-0.992L35.52,37z M43.8994,28.4131l-23.0947,5.2476
			c-0.8276,0.1899-1.686-0.3589-1.8726-1.1797c-0.1914-0.8413,0.3379-1.6816,1.1792-1.873l23.0947-5.2476
			c0.8552-0.1957,1.6859,0.3566,1.873,1.1797C45.2707,27.382,44.7449,28.2207,43.8994,28.4131z"/>
	</g>
</g>
</svg>
