<?xml version="1.0" encoding="utf-8"?>
<!-- Generator: Adobe Illustrator 18.1.1, SVG Export Plug-In . SVG Version: 6.00 Build 0)  -->
<svg version="1.2" baseProfile="tiny" xmlns="http://www.w3.org/2000/svg" xmlns:xlink="http://www.w3.org/1999/xlink" x="0px"
	 y="0px" width="128px" height="128px" viewBox="0 0 128 128" xml:space="preserve">
<g id="box">
	<rect fill="none" width="128" height="128"/>
</g>
<g id="Production">
	<path fill="#ffffff" d="M104.9607,28.0023l-53.584-8.5229c-3.2681-1.0021-7.3061-0.4403-10.9382,3.2513L11.7996,50.1662
		l0.0192,0.0187c-1.1943,1.0619-1.9606,2.5933-2.0112,4.305c-0.0014,0.0598-0.0044,54.4703-0.0044,54.4703h12V59.7495
		l18.6448,17.861c3.4097,3.4602,7.4853,4.4246,11.2361,3.1439l53.2766-8.4741c5.5872-1.2486,13.2361-7.4361,13.2361-22.1143
		C118.1968,35.0942,109.6729,28.8442,104.9607,28.0023z M33.3335,62.4864L20.4729,50.1662l12.8606-12.3201
		C31.4995,46.3837,31.8162,55.4225,33.3335,62.4864z M48.3772,73.7839c-2.1624,0-8.8032-6.7209-8.8032-23.6179
		c0-14.2889,5.3928-23.6173,8.7954-23.6173s8.9983,9.3164,8.9983,23.6173C57.3677,67.0735,50.5396,73.7839,48.3772,73.7839z
		 M78.8213,68.8435l-11.2966,1.7969c6.2304-9.7788,6.581-30.7032-0.0359-41.0039l11.2883,1.7955
		C85.8647,40.1981,85.5103,60.4767,78.8213,68.8435z M101.022,65.3124l-8.7671,1.3944c5.5161-7.6358,5.6345-25.3722-0.0418-33.1377
		l8.751,1.3919C107.3835,41.1289,106.6892,59.7368,101.022,65.3124z"/>
</g>
</svg>
