<?xml version="1.0" encoding="utf-8"?>
<!-- Generator: Adobe Illustrator 17.1.0, SVG Export Plug-In . SVG Version: 6.00 Build 0)  -->
<!DOCTYPE svg [
	<!ENTITY ns_flows "http://ns.adobe.com/Flows/1.0/">
	<!ENTITY ns_extend "http://ns.adobe.com/Extensibility/1.0/">
	<!ENTITY ns_ai "http://ns.adobe.com/AdobeIllustrator/10.0/">
	<!ENTITY ns_graphs "http://ns.adobe.com/Graphs/1.0/">
]>
<svg version="1.2" baseProfile="tiny" xmlns:x="&ns_extend;" xmlns:i="&ns_ai;" xmlns:graph="&ns_graphs;"
	 xmlns="http://www.w3.org/2000/svg" xmlns:xlink="http://www.w3.org/1999/xlink" xmlns:a="http://ns.adobe.com/AdobeSVGViewerExtensions/3.0/"
	 x="0px" y="0px" width="128px" height="128px" viewBox="0 0 128 128" xml:space="preserve">
<g id="_x31_28px_boxes">
	<rect fill="none" width="128" height="128"/>
</g>
<g id="Production">
	<g>
		<path fill="#ffffff" d="M63.9998,60.5201c-7.5437,0-13.6811,6.1372-13.6811,13.6807c0,7.5439,6.1374,13.6814,13.6811,13.6814
			S77.681,81.7447,77.681,74.2008C77.681,66.6573,71.5435,60.5201,63.9998,60.5201z M63.9998,80.0751
			c-3.2441,0-5.8739-2.6299-5.8739-5.8743c0-3.2439,2.6298-5.8737,5.8739-5.8737c3.2442,0,5.8742,2.6298,5.8742,5.8737
			C69.874,77.4452,67.244,80.0751,63.9998,80.0751z"/>
		<path fill="#ffffff" d="M23.0778,64.6932v3.0432h-1.3421c-1.9889,0-3.6015,1.6124-3.6015,3.6014v5.7265
			c0,1.989,1.6126,3.6016,3.6015,3.6016h1.3421v3.0431c0,1.9888,1.6126,3.6015,3.6015,3.6015h5.9389V61.0916h-5.9389
			C24.6904,61.0916,23.0778,62.7043,23.0778,64.6932z"/>
		<path fill="#ffffff" d="M88.6605,109.6546h-4.1894l0.0204-14.3015c0.039-0.2119,0.0609-0.4284,0.0609-0.6484
			c0-5.1682,3.7736-6.7454,6.5075-7.2095V60.9067c-2.7339-0.464-6.5075-2.0412-6.5075-7.2096c0-0.0116-0.0009-0.0232-0.0013-0.035
			l0.0118-8.1993H43.423v8.9171c-0.3189,4.6253-3.874,6.0829-6.4829,6.5263v26.5897c2.6089,0.4434,6.164,1.9009,6.4829,6.5262
			v15.6325h-4.0838c-2.6521,0-4.802,2.1501-4.802,4.802c0,2.6523,2.1499,4.8022,4.802,4.8022h49.3213
			c2.6521,0,4.802-2.1499,4.802-4.8022C93.4625,111.8047,91.3126,109.6546,88.6605,109.6546z M63.9998,92.204
			c-9.9267,0-18.0029-8.0762-18.0029-18.0032c0-9.9266,8.0762-18.0023,18.0029-18.0023c9.9268,0,18.0031,8.0757,18.0031,18.0023
			C82.0029,84.1278,73.9266,92.204,63.9998,92.204z"/>
		<path fill="#ffffff" d="M106.2642,67.7364h-1.3421v-3.0432c0-1.9889-1.6127-3.6016-3.6017-3.6016h-5.9387v26.2189h5.9387
			c1.989,0,3.6017-1.6127,3.6017-3.6015v-3.0431h1.3421c1.9892,0,3.6016-1.6126,3.6016-3.6016v-5.7265
			C109.8658,69.3488,108.2534,67.7364,106.2642,67.7364z"/>
		<path fill="#ffffff" d="M88.6605,31.1266h-4.6037c-1.6054-7.1051-6.8227-12.833-13.5924-15.1023v-3.6817
			c0-1.989-1.6125-3.6014-3.6015-3.6014h-5.7261c-1.989,0-3.6016,1.6124-3.6016,3.6014v3.6817
			c-6.7695,2.2693-11.9867,7.9972-13.5921,15.1023h-4.6039c-2.6521,0-4.802,2.1499-4.802,4.802s2.1499,4.802,4.802,4.802h49.3213
			c2.6521,0,4.802-2.1499,4.802-4.802S91.3126,31.1266,88.6605,31.1266z"/>
	</g>
</g>
</svg>
