<?xml version="1.0" encoding="utf-8"?>
<!-- Generator: Adobe Illustrator 18.1.1, SVG Export Plug-In . SVG Version: 6.00 Build 0)  -->
<svg version="1.2" baseProfile="tiny" xmlns="http://www.w3.org/2000/svg" xmlns:xlink="http://www.w3.org/1999/xlink" x="0px"
	 y="0px" width="128px" height="128px" viewBox="0 0 128 128" xml:space="preserve">
<g id="_x31_28px_boxes">
	<rect fill="none" width="128" height="128"/>
</g>
<g id="Production">
	<g>
		<path fill="#ffffff" d="M81.8691,95.262H46.0654c-0.7812,0-1.4143,0.6332-1.4143,1.4146v8.5375
			c0,0.7812,0.6331,1.4146,1.4143,1.4146h35.8037c0.7813,0,1.4146-0.6334,1.4146-1.4146v-8.5375
			C83.2837,95.8952,82.6504,95.262,81.8691,95.262z"/>
		<path fill="#ffffff" d="M98.1492,35.0269l-0.0209,0.0164c-8.9014-8.4676-20.9347-13.672-34.161-13.672
			c-27.3491,0-49.5991,22.25-49.5991,49.599c0,9.2101,2.5263,17.84,6.9179,25.2387l0.0552-0.0268
			c1.1206,1.4867,2.6426,1.875,4.3557,0.8755l10.8491-6.3319c3.4114-1.9914,1.0132-8.3414-3.3742-5.7817l-0.0108,0.0061
			l-4.3357,2.5306c-3.9257-8.322-3.8913-15.8404-3.5427-19.8768l5.0049,0.8835c3.5791,0.6302,6.0654-5.0593,1.1636-6.5923
			l-5.0188-0.886c1.7827-6.7114,5.3198-12.7158,10.0915-17.4867l3.2837,3.9151c2.5134,2.9977,8.166-0.6815,5.1289-4.3019
			l-3.2903-3.9228c5.4605-3.8496,11.9534-6.3262,18.9739-6.9286v5.1433c0,4.4843,6.6943,4.4843,6.6943,0v-5.1433
			c8.4632,0.7259,16.1587,4.1783,22.2037,9.4715L66.5788,59.6399c2.5269,0.4472,4.8813,1.6193,6.7757,3.3904l24.0015,2.5884
			c8.2644,0.8899,8.2487,13.0212-0.0283,13.8794l-23.4351,2.4267c-0.2576,0.2619-0.5261,0.5124-0.8047,0.7507
			c-0.802,0.6878-1.6822,1.2665-2.6159,1.7341l32.4933,12.9915c1.3145,0.4155,2.9542,0.051,3.8643-1.4092
			c0.001,0.0142,0.0015,0.0275,0.0025,0.0419c4.3188-7.3541,6.7997-15.9115,6.7997-25.0386
			C113.6318,56.8507,107.6794,44.0711,98.1492,35.0269z"/>
		<path fill="#ffffff" d="M96.8743,70.0928l-25.6709-2.7683c-3.0208-3.8692-8.6985-4.5676-12.4385-1.3609
			c-3.5935,3.0779-3.9556,8.5509-0.8086,12.223c3.7179,4.3385,10.461,4.0936,13.6638-0.5506l25.2439-2.614
			C99.806,74.7172,99.8108,70.4089,96.8743,70.0928z"/>
	</g>
</g>
</svg>
