<?xml version="1.0" encoding="utf-8"?>
<!-- Generator: Adobe Illustrator 18.1.1, SVG Export Plug-In . SVG Version: 6.00 Build 0)  -->
<svg version="1.2" baseProfile="tiny" xmlns="http://www.w3.org/2000/svg" xmlns:xlink="http://www.w3.org/1999/xlink" x="0px"
	 y="0px" width="128px" height="128px" viewBox="0 0 128 128" xml:space="preserve">
<g id="box">
	<rect fill="none" width="128" height="128"/>
</g>
<g id="Production">
	<g>
		<path fill="#ffffff" d="M104.8589,51.0796c-0.4653-1.6386-2.1719-2.5936-3.813-2.1306l-9.0674,2.562
			c-2.3999-4.1618-8.5102-12.8029-20.2807-18.4237c-0.0991-1.3696-0.887-2.6446-2.2105-3.2675l-5.9189-2.7994
			c-1.9134-0.9274-4.2992-0.1246-5.2381,1.8832c-0.9004,1.808-0.1768,4.2501,1.8689,5.2307l5.9312,2.7995
			c1.0886,0.4999,2.0801,0.4527,3.071,0.0801c6.2317,2.8771,10.74,6.685,13.8716,10.1389c1.9488,2.1501,3.3377,4.1327,4.2854,5.6623
			l-31.532,8.9077c-3.4376,0.9696-2.7218,6.062,0.8362,6.062c0.7026,0,0.308,0.0343,12.6431-3.4515v52.3093h10.2407V61.4392
			l23.1768-6.5517C104.3692,54.4244,105.3218,52.7206,104.8589,51.0796z"/>
		<path fill="#ffffff" d="M38.5781,31.4244c5.5677,0,10.076-4.5157,10.076-10.076c0-5.5651-4.5083-10.0711-10.076-10.0711
			c-5.5581,0-10.0783,4.506-10.0783,10.0711C28.4998,26.9087,33.02,31.4244,38.5781,31.4244z"/>
		<path fill="#ffffff" d="M53.8242,52.1898c7.148,1.9317,23.3785,2.8043,23.3785-1.5199c0-4.2539-10.5538-3.3158-20.8262-6.7942
			c-8.0267-2.7161-11.3579-7.1638-17.1536-9.5403c-14.2021-4.0368-16.1987,18.0992-16.1987,32.955
			c0,9.2665,5.6477,49.4323,12.883,49.4323c7.24,0,12.8973-37.0972,12.8973-49.4323c0-7.1674-0.3562-12.8369-1.0061-17.3137
			C49.5874,50.7815,51.6936,51.6152,53.8242,52.1898z"/>
	</g>
</g>
</svg>
