<?xml version="1.0" encoding="utf-8"?>

<svg version="1.2" baseProfile="tiny" xmlns="http://www.w3.org/2000/svg" xmlns:xlink="http://www.w3.org/1999/xlink" x="0px"
	 y="0px" width="64px" height="64px" viewBox="0 0 64 64" xml:space="preserve">

<g id="Production">
	<path fill="#ffffff" d="M45.9839,3.4785l-3.9678,3.043L49,15.6305V23c0,1.1046,0.8954,2,2,2h2v27c0,1.1025-0.897,2-2,2
		s-2-0.8975-2-2V39.5c0-4.1357-3.3643-7.5-7.5-7.5H40V14.5C40,8.71,35.2896,4,29.5,4h-14C9.7104,4,5,8.71,5,14.5V59h35V37h1.5
		c1.3784,0,2.5,1.1211,2.5,2.5V52c0,3.8594,3.1401,7,7,7s7-3.1406,7-7V19.1523L45.9839,3.4785z M10,54V14.5
		c0-3.0322,2.4673-5.5,5.5-5.5h14c3.0327,0,5.5,2.4678,5.5,5.5V23H14v5h21v26H10z"/>
</g>
</svg>
