<?xml version="1.0" encoding="utf-8"?>

<svg version="1.2" baseProfile="tiny" xmlns="http://www.w3.org/2000/svg" xmlns:xlink="http://www.w3.org/1999/xlink" x="0px"
	 y="0px" width="64px" height="64px" viewBox="0 0 64 64" xml:space="preserve">

<g id="Production">
	<g>
		<polygon fill="#ffffff" points="15,15 28,15 28,30 33,30 33,25 41,25 41,20 33,20 33,10 6,10 6,15 10,15 10,31 0,31 0,46 5,46 
			5,36 15,36 		"/>
		<path fill="#ffffff" d="M33.6931,44.5435l-7.7775,2.2874C25.3396,42.4197,21.5662,39,17.0002,39C12.0372,39,8,43.0371,8,47.9999
			s4.0372,8.9999,9.0002,8.9999c3.3861,0,6.3386-1.8809,7.8748-4.6514c6.762-1.9886,6.4319-1.8916,13.1737-3.8744
			c-0.0514-0.4305-0.1027-0.6639,0.0664-1.387C38.5591,45.1936,40.2942,44,42.001,44c2.2092,0,4.0001,1.7906,4.0001,3.9999
			c0,2.2091-1.7909,3.9999-4.0001,3.9999c-0.3978,0-0.7744-0.0757-1.137-0.1838l-5.9272,1.7432
			c5.2742,6.687,16.0645,2.9594,16.0645-5.5592C51.0012,38.2063,37.4684,35.5033,33.6931,44.5435z M17.0002,51.9998
			c-2.2061,0-4.0001-1.7938-4.0001-3.9999S14.7942,44,17.0002,44s4.0001,1.7938,4.0001,3.9999S19.2063,51.9998,17.0002,51.9998z"/>
		<path fill="#ffffff" d="M59.3129,42.5327c1.3615-2.0022,2.6581-5.0785,2.6581-9.5503c0-3.5068-0.7823-6.5479-2.3263-9.0566
			C58.1514,21.499,55.4033,20,52.4725,20H50v-8h3V7H42v5h3v13h7.4725c1.2072,0,2.3234,0.584,2.9142,1.5439
			c1.0508,1.7079,1.584,3.87,1.584,6.4382c0,6.1992-3.1611,8.2734-3.2549,8.335l0.0142,0.0232l-0.0806,0.0383L58.5593,56h5.2754
			L59.3129,42.5327z"/>
	</g>
</g>
</svg>
