<?xml version="1.0" encoding="utf-8"?>
<!-- Generator: Adobe Illustrator 19.1.0, SVG Export Plug-In . SVG Version: 6.00 Build 0)  -->
<svg version="1.2" baseProfile="tiny" xmlns="http://www.w3.org/2000/svg" xmlns:xlink="http://www.w3.org/1999/xlink" x="0px"
	 y="0px" width="64px" height="64px" viewBox="0 0 64 64" xml:space="preserve">
<g id="box">
	<rect fill="none" width="64" height="64"/>
</g>
<g id="Production">
	<path fill="#ffffff" d="M55.623,23.9727c-1.3711,0.3467-2.5596,0.277-3.4385-0.936c-0.843-1.1643-0.1248-2.4254,0.5015-3.4258
		L42.5977,9.5225C37.0947,4.0195,28.1899,3.5,20.9424,8.2578c-0.4116,0.2695-0.5947,0.7866-0.4448,1.2578
		c0.1514,0.4761,0.6196,0.8105,1.1001,0.7764c7.0864-0.2671,10.1509,0.5068,13.667,3.4531c0.8755,0.7334,0.9976,2.0703,0.272,2.9805
		l-5.0002,6.2728L1.5859,51.9487l8.4854,8.4854L39.02,31.4854l3.6924-2.9155c0.8887-0.7012,2.0991-0.7925,3.0146-0.2266
		c0.2349,0.145,0.4575,0.3223,0.6611,0.5254c1.0173,1.0176,1.0806,2.2606,0.7651,3.5942l6.0513,6.0508l8.4849-8.4849L55.623,23.9727
		z M10.0713,57.606l-5.6572-5.6572l26.8701-26.8701l5.6572,5.6572L10.0713,57.606z M49.3135,31.7939
		c0.0801-0.9375,0.0093-2.8184-1.5117-4.3398c-0.313-0.3125-0.6572-0.5854-1.0229-0.812c-1.6274-1.0073-3.7598-0.8638-5.3057,0.3584
		l-3.0396,2.3994l-5.8105-5.8105l4.4771-5.6167c1.3965-1.752,1.1494-4.3359-0.5513-5.7607
		c-3.228-2.7046-6.1753-3.8042-11.3389-3.9507c5.7051-2.3203,11.917-1.3813,15.9736,2.6753l9.0239,9.0244
		c-0.3813,0.9531-0.7827,2.6748,0.3574,4.249c1.417,1.9556,3.4199,2.043,4.4155,1.9375l3.8809,3.8813l-5.6567,5.6567
		L49.3135,31.7939z"/>
</g>
</svg>

