<?xml version="1.0" encoding="utf-8"?>
<!-- Generator: Adobe Illustrator 18.1.1, SVG Export Plug-In . SVG Version: 6.00 Build 0)  -->
<svg version="1.2" baseProfile="tiny" xmlns="http://www.w3.org/2000/svg" xmlns:xlink="http://www.w3.org/1999/xlink" x="0px"
	 y="0px" width="128px" height="128px" viewBox="0 0 128 128" xml:space="preserve">
<g id="_x31_28px_boxes" display="none">
	<rect display="inline" fill="none" width="128" height="128"/>
</g>
<g id="Production">
	<g>
		<path fill="#ffffff" d="M33.3451,46.8177c5.6871,1.2737,11.3091-2.302,12.5767-7.9717
			c1.2786-5.6809-2.2812-11.3025-7.9514-12.5793c-5.6655-1.2908-11.3013,2.2834-12.5852,7.9587
			C24.1186,39.8917,27.6825,45.5296,33.3451,46.8177z"/>
		<path fill="#ffffff" d="M108.3075,97.3206L85.6401,70.5699c-1.7649-2.083-4.7849-2.7822-7.3389-1.5122l-18.8188,9.3577
			L49.4562,55.463c-1.9279-4.3745-6.9172-6.69-11.5515-5.1629c-4.9287,1.6243-7.6074,6.9364-5.9831,11.865
			c0,0,9.156,27.7324,9.2888,28.0366c2.2155,5.0715,7.6844,7.1626,11.7959,6.2811l25.3987-5.0794l9.2226,26.2114
			c2.2793,6.4173,11.9956,3.4641,10.2583-3.1469l-4.4377-16.888l6.9533,6.9973C105.2249,109.404,112.7293,102.5385,108.3075,97.3206
			z"/>
		<path fill="#ffffff" d="M72.7453,97.6798c-0.0899,0.0171-9.0994,1.7143-19.6887,3.802
			c-8.7617,1.727-15.5938-4.6072-17.813-11.7578c-2.7476-8.8533-9.781-30.5505-9.8518-30.7686
			c-1.4678-4.5265-8.3027-2.2987-6.8384,2.2173c0.0706,0.2176,7.0901,21.8716,9.8245,30.6821
			c3.244,10.4535,13.3401,19.1881,26.0693,16.6802c10.5576-2.0815,19.5388-3.7734,19.6282-3.7903
			C78.7419,103.8659,77.4196,96.8021,72.7453,97.6798z"/>
		<path fill="#ffffff" d="M87.2912,47.0592c11.0957,0,20.1225-9.027,20.1225-20.1226c0-11.0957-9.0268-20.1228-20.1225-20.1228
			s-20.1228,9.0271-20.1228,20.1228C67.1684,38.0322,76.1955,47.0592,87.2912,47.0592z M87.2912,12.8138
			c7.7871,0,14.1225,6.3355,14.1225,14.1228c0,7.7872-6.3354,14.1226-14.1225,14.1226c-7.7874,0-14.1228-6.3354-14.1228-14.1226
			C73.1684,19.1493,79.5038,12.8138,87.2912,12.8138z"/>
		<path fill="#ffffff" d="M78.8869,22.5285l6.533,5.304v8.2103c0.0101,2.4239,3.7572,2.5517,3.7463-0.0156v-9.0984
			c-0.0025-0.5621-0.2568-1.0935-0.6931-1.4479l-7.2224-5.8638C79.3264,18.0558,76.9612,20.9652,78.8869,22.5285z"/>
	</g>
</g>
</svg>
