<?xml version="1.0" encoding="utf-8"?>
<!-- Generator: Adobe Illustrator 18.1.1, SVG Export Plug-In . SVG Version: 6.00 Build 0)  -->
<svg version="1.2" baseProfile="tiny" xmlns="http://www.w3.org/2000/svg" xmlns:xlink="http://www.w3.org/1999/xlink" x="0px"
	 y="0px" width="128px" height="128px" viewBox="0 0 128 128" xml:space="preserve">
<g id="_x31_28px_boxes">
	<rect fill="none" width="128" height="128"/>
</g>
<g id="Production">
	<g>
		<path fill="#ffffff" d="M105.2869,101.3098H92.2137l7.7755-14.2577c0.7491-1.373,0.2407-3.0942-1.1334-3.8413l-10.2969-5.5943
			l5.3346-18.7715c0.8341-2.9341-0.538-6.752-3.0491-8.4842l-35.378-24.4046l-21.943,22.0522l21.4038,15.406
			c0.3475,0.2495,0.6116,0.5984,0.7572,1.0009c0.2495,0.6892,7.5235,20.8417,7.9837,22.1071
			c2.2712,6.2458,14.0994,4.4912,11.5773-3.9556L68.3045,59.36c-0.6093-2.0781,2.7657-3.2031,3.5157-0.9219l6.615,20.1187
			l15.2284,8.2739l-11.8447,21.719h-39.215L57.357,81.4974l-5.4397-15.019l-6.5991-4.7401L45.1618,61.85l-5.0879,3.6296
			c-4.0486,2.8883-3.4032,9.0682,1.0856,11.0933l-4.2305,3.0182c-5.088,3.6296-2.486,11.666,3.7398,11.666
			c2.5149,0,3.6808-1.1616,6.7453-3.3479l-7.3083,13.4006H27.8944c-3.8977,0-7.0577,3.1597-7.0577,7.0575
			c0,3.8974,3.16,7.057,7.0577,7.057h77.3925c3.8975,0,7.0572-3.1596,7.0572-7.057
			C112.3441,104.4694,109.1844,101.3098,105.2869,101.3098z"/>
		
			<rect x="13.8263" y="25.405" transform="matrix(0.7056 -0.7086 0.7086 0.7056 -12.1018 33.6192)" fill="#ffffff" width="41.1717" height="11.9399"/>
	</g>
</g>
</svg>
