<?xml version="1.0" encoding="utf-8"?>
<!-- Generator: Adobe Illustrator 18.1.1, SVG Export Plug-In . SVG Version: 6.00 Build 0)  -->
<svg version="1.2" baseProfile="tiny" xmlns="http://www.w3.org/2000/svg" xmlns:xlink="http://www.w3.org/1999/xlink" x="0px"
	 y="0px" width="128px" height="128px" viewBox="0 0 128 128" xml:space="preserve">
<g id="_x31_28px_boxes">
	<rect fill="none" width="128" height="128"/>
</g>
<g id="Production">
	<g>
		<path fill="#ffffff" d="M64.0001,39.4853c1.9963-1.9577,4.3559-3.7141,7.0552-5.249l4.4709-13.3617
			c0.2422-0.7236,0.0217-1.5217-0.5576-2.0183c-8.5165-7.3012-13.6498-7.3418-21.96,0.0199
			c-0.5598,0.496-0.7712,1.2772-0.5381,1.9878l4.3667,13.312C59.5811,35.7252,61.9771,37.5018,64.0001,39.4853z"/>
		<path fill="#ffffff" d="M66.9432,42.8707c2.5253,3.4425,4.1226,7.5545,4.865,11.7312c5.3836-3.1881,11.3028-5.0866,17.4839-5.8757
			c3.456-7.3053,4.6523-13.7471,4.7287-14.1732c0.2185-1.2158-0.7799-2.307-2.0095-2.1993
			C91.2154,32.4237,75.8726,33.8877,66.9432,42.8707z"/>
		<path fill="#ffffff" d="M63.9998,60.5718c1.149-1.1154,2.3543-2.1579,3.6136-3.128
			c-1.0853-15.9486-17.3448-23.8357-31.6248-25.0901c-1.2274-0.1078-2.2282,0.982-2.0095,2.1993
			c0.0764,0.4261,1.2729,6.8679,4.7287,14.1732C48.3212,49.9534,57.0746,53.8493,63.9998,60.5718z"/>
		<path fill="#ffffff" d="M67.0626,63.8739c0.9267,1.1083,1.8091,2.2721,2.646,3.492c3.9409,0.5754,7.3896,1.7449,9.9946,3.3699
			c4.7199-1.3477,9.7777-1.9344,15.054-1.7264c5.4641-6.9164,8.6323-12.4734,8.8816-12.9157
			c0.6262-1.1109-0.0173-2.5132-1.2703-2.7602C96.837,52.2364,79.6849,51.5527,67.0626,63.8739z"/>
		<path fill="#ffffff" d="M48.2933,70.7378c3.7573-2.3449,9.2722-3.741,15.4836-3.7738
			c-10.2268-12.3873-26.854-15.8699-38.1457-13.6305c-1.251,0.2466-1.8975,1.6476-1.2703,2.7602
			c0.2493,0.4423,3.4177,5.9997,8.8823,12.9165C38.4054,68.8058,43.4713,69.3585,48.2933,70.7378z"/>
		<path fill="#ffffff" d="M109.18,76.2744c-5.293-2.0913-15.6587-3.9834-25.5911-1.8705c0.0618,0.0968,0.1246,0.1934,0.1817,0.2916
			c2.3978,4.1186,0.4279,7.6177-2.3203,11.2935c5.594,0.4609,10.3745,2.3364,13.5161,3.9149
			c9.0933-5.477,14.3799-10.1367,14.7722-10.4866C110.7818,78.4869,110.4727,76.7855,109.18,76.2744z"/>
		<path fill="#ffffff" d="M46.9124,86.4669c-2.9621-3.8359-5.1632-7.5121-2.6828-11.7715c0.0569-0.0978,0.1191-0.1937,0.1806-0.29
			c-9.3214-1.987-19.6725-0.4673-25.5922,1.8802c-1.2756,0.5061-1.5913,2.1687-0.5943,3.1078
			c0.3897,0.3672,5.5899,5.203,14.5198,10.7185C35.8907,88.5742,40.8722,86.7195,46.9124,86.4669z"/>
		<path fill="#ffffff" d="M48.1182,76.9598c-0.6323,1.0861-0.604,2.161,0.0896,3.3831c1.3123,2.3124,3.0555,4.4924,4.9246,6.4581
			c3.6511,0.5579,7.1643,1.7527,10.51,3.5789c3.6355-2.3785,7.616-3.8174,11.8985-4.3077c1.613-1.7723,3.0996-3.7006,4.2509-5.7293
			c0.6936-1.2221,0.7222-2.297,0.0899-3.3831C75.6205,69.642,52.3727,69.6534,48.1182,76.9598z"/>
		<path fill="#ffffff" d="M74.2139,106.6346c15.4595-2.5921,21.8355-7.5267,22.1478-7.7749
			c0.9801-0.7795,0.9337-2.2833-0.0892-3.0018c-9.1904-6.4562-22.5951-8.084-32.3923-0.0761
			c-10.4962-7.012-23.5726-5.9136-32.1484,0.0728c-1.0273,0.7172-1.0754,2.2245-0.0938,3.0051
			c0.3123,0.2482,6.6887,5.1828,22.1477,7.7748v5.9437c0,1.1345,0.9197,2.0542,2.0542,2.0542h16.3199
			c1.1345,0,2.0541-0.9197,2.0541-2.0542V106.6346z"/>
	</g>
</g>
</svg>

