<?xml version="1.0" encoding="utf-8"?>
<!-- Generator: Adobe Illustrator 18.1.1, SVG Export Plug-In . SVG Version: 6.00 Build 0)  -->
<svg version="1.2" baseProfile="tiny" xmlns="http://www.w3.org/2000/svg" xmlns:xlink="http://www.w3.org/1999/xlink" x="0px"
	 y="0px" width="128px" height="128px" viewBox="0 0 128 128" xml:space="preserve">
<g id="_x31_28px_boxes">
	<rect fill="none" width="128" height="128"/>
</g>
<g id="Production">
	<g>
		<path fill="#ffffff" d="M113.0529,77.602V41.3503c0-1.9204-1.5624-3.4717-3.4725-3.4717H57.9939
			c-1.9199,0-3.4724,1.5624-3.4724,3.4717v10.488h18.1118c4.4751,0,8.1379,3.6388,8.1379,8.1375v33.6386h20.6623h0.0052
			c0.4874,0,0.8825-0.3955,0.8825-0.8823c0-0.0344-0.0019-0.0681-0.0059-0.1015c-0.0541-3.7767-3.1434-6.8321-6.932-6.8321H91.226
			v-4.7256h18.3544C111.5054,81.0729,113.0529,79.5082,113.0529,77.602z"/>
		<path fill="#ffffff" d="M30.5439,56.3383H18.5845c-2.0037,0-3.6374,1.6295-3.6374,3.6375v37.9814
			c0,1.9918,1.6165,3.6367,3.6374,3.6367h19.231v4.951h-4.3602c-4.0056,0-7.2644,3.2588-7.2644,7.2644
			c0,0.5107,0.414,0.9245,0.9247,0.9245h36.9823c0.0021,0,0.004,0,0.0051,0c0.5108,0,0.9247-0.4138,0.9247-0.9245
			c0-0.0362-0.0018-0.0716-0.0057-0.1062c-0.0573-3.9576-3.2938-7.1582-7.2639-7.1582H53.403v-4.951h19.2303
			c2.0201,0,3.6379-1.6442,3.6379-3.6367V59.9758c0-2.0115-1.6372-3.6375-3.6379-3.6375H39.5426
			c-0.047-12.4484,1.892-24.268,12.4205-30.733c6.1509-3.7767,15.0623-4.882,22.9441-0.151l-4.2671,4.267
			c-1.1788,1.179-0.3403,3.201,1.3261,3.2008l15.3482-0.0018c1.0356-0.0001,1.8748-0.8394,1.875-1.8748l0.0009-15.3479
			c0-1.6703-2.025-2.5019-3.2007-1.326l-4.5841,4.5842c-10.2135-7.1155-23.3186-7.6716-34.1517-1.0201
			C33.7609,26.2209,30.4953,40.3781,30.5439,56.3383z M68.1632,64.3869v29.0947H23.0549V64.3869H68.1632z"/>
	</g>
</g>
</svg>
