<?xml version="1.0" encoding="utf-8"?>
<!-- Generator: Adobe Illustrator 18.1.1, SVG Export Plug-In . SVG Version: 6.00 Build 0)  -->
<svg version="1.2" baseProfile="tiny" xmlns="http://www.w3.org/2000/svg" xmlns:xlink="http://www.w3.org/1999/xlink" x="0px"
	 y="0px" width="128px" height="128px" viewBox="0 0 128 128" xml:space="preserve">
<g id="_x31_28px_boxes">
	<rect fill="none" width="128" height="128"/>
</g>
<g id="Production">
	<g>
		<path fill="#ffffff" d="M97.5736,102.3777c-15.3779,7.9548-40.0439,6.6526-52.5693,0.511
			c-3.5576-1.7441-5.7837-3.7629-6.1096-5.5388c-0.5896-3.2093,1.7307-4.7971,7.1704-7.6516c3.8157-2.003,7.7595-4.075,9.605-7.8628
			c2.0993-4.3162,1.0007-7.5503-0.291-9.5034c-4.8467-7.3272-20.9422-9.2022-34.3782-8.5157
			c-1.5032,0.0762-2.6592,1.3555-2.5833,2.8596c0.0784,1.5047,1.3499,2.6629,2.8621,2.5833
			c11.0806-0.5637,33.9258,1.0651,29.4902,10.1919c-1.0612,2.1804-4.2006,3.8267-7.238,5.4216
			c-5.0669,2.6612-11.3745,5.9715-9.9988,13.4617c0.6594,3.5942,3.7964,6.8603,9.073,9.4468
			c7.177,3.52,17.6336,5.6045,28.4241,5.6045c10.2241,0,20.7466-1.8716,29.0449-6.1651c1.3374-0.6916,1.8609-2.3379,1.1704-3.6721
			C100.5536,102.211,98.9071,101.6895,97.5736,102.3777z"/>
		<path fill="#ffffff" d="M74.2045,40.0117c1.2105,1.3793,3.2839,1.4877,4.6387,0.3089c1.3652-1.1958,1.5036-3.2715,0.3083-4.6375
			l-17.4536-19.946c-1.1955-1.367-3.2712-1.5047-4.6374-0.3096c-1.2901,1.1335-1.545,3.2235-0.3084,4.6365L74.2045,40.0117z"/>
		<path fill="#ffffff" d="M60.5534,62.5852l15.9265-13.9797c0,0-22.929-26.2213-23.1096-26.4277v0.0009
			c-0.0034-0.0034-0.0066-0.0088-0.0103-0.0124c-3.6479-4.1666-10.4236-4.9926-14.9951-0.9871
			c-4.4114,3.8682-4.8538,10.5813-0.9878,14.9934C45.4211,45.2693,59.6674,61.5713,60.5534,62.5852z"/>
		<path fill="#ffffff" d="M108.9306,97.6695l-3.5757-4.0523c2.42-5.1927-1.0303-13.2264-5.574-18.3989
			c-1.0075-1.151-18.6186-21.2675-19.5293-22.3054L64.3217,66.8926c0.9145,1.0453,18.5498,21.2178,19.561,22.3745
			c4.4361,4.9052,11.9707,9.6635,17.5855,7.7954l3.5683,4.0449c0.9556,1.0861,2.6055,1.1739,3.6678,0.229
			C109.7851,100.3872,109.8859,98.7498,108.9306,97.6695z"/>
	</g>
</g>
</svg>
