<?xml version="1.0" encoding="utf-8"?>
<!-- Generator: Adobe Illustrator 18.1.1, SVG Export Plug-In . SVG Version: 6.00 Build 0)  -->
<svg version="1.2" baseProfile="tiny" xmlns="http://www.w3.org/2000/svg" xmlns:xlink="http://www.w3.org/1999/xlink" x="0px"
	 y="0px" width="128px" height="128px" viewBox="0 0 128 128" xml:space="preserve">
<g id="box">
	<rect fill="none" width="128" height="128"/>
</g>
<g id="Production">
	<g>
		<path fill="#ffffff" d="M75.9224,102.7561c7.3081-0.6616,14.3956-2.9194,20.7219-6.6377l-4.5697-7.7744
			c-6.2365,3.666-13.3813,5.6038-20.661,5.6038c-22.5193,0-40.8398-18.3201-40.8398-40.8396
			c0-14.6746,7.9384-28.2955,20.717-35.5472l-4.4506-7.843c-15.5957,8.8504-25.2841,25.4766-25.2841,43.3902
			c0,25.9711,19.9621,47.3642,45.3484,49.6511v7.4714H42.2893v8.0513h58.2479v-8.0513H75.9224V102.7561z"/>
		<path fill="#ffffff" d="M69.7808,69.0969l15.9853-9.2292c-0.6252-3.3599-1.696-7.033-3.4849-10.6306L62.3579,60.7395
			C64.5887,64.1199,67.2124,66.8865,69.7808,69.0969z"/>
		<path fill="#ffffff" d="M80.197,45.6062c-2.2246-3.3857-4.8862-6.1792-7.5017-8.4219L56.6717,46.436
			c0.6407,3.3555,1.7415,7.0381,3.5843,10.6831L80.197,45.6062z"/>
		<path fill="#ffffff" d="M41.1504,70.603c6.233,10.7952,17.8567,17.502,30.3351,17.502c6.1097,0,12.15-1.6233,17.4686-4.6934
			c16.7103-9.6479,22.4562-31.0928,12.8082-47.8027c-6.2329-10.7962-17.8568-17.5032-30.3348-17.5032
			c-6.1096,0-12.1504,1.6231-17.4693,4.6934C37.2486,32.448,31.503,53.8931,41.1504,70.603z M51.6648,36.2842
			c1.2921-1.5235,2.7754-2.9141,4.4407-4.1323c0,0-0.4783,5.2259-0.0606,9.8115l13.0834-7.554
			c-3.6303-2.5615-8.5075-4.9116-8.5075-4.9116c1.7939-0.824,3.6719-1.4402,5.5951-1.8379c1.8477,0.9929,4.2853,2.4578,6.8974,4.449
			l6.3911-3.6902c1.6505,0.541,3.2395,1.2437,4.7441,2.095l-7.7102,4.4521c2.5559,2.335,5.1061,5.1677,7.2904,8.5432l8.9823-5.186
			c0.882,1.2717,1.4777,2.3292,2.0954,3.625l-8.991,5.1912c1.8019,3.5559,2.9618,7.154,3.6956,10.5087l7.8095-4.5095
			c-0.005,1.731-0.1815,3.4522-0.5251,5.1377l-6.5281,3.7696c0.4315,3.3957,0.4631,6.3386,0.3844,8.4467
			c-1.2697,1.4112-2.7105,2.6988-4.3136,3.8294c-0.0038-0.0105,0.2632-6.392-0.0583-9.9741l-13.033,7.5246
			c3.08,2.1666,8.631,4.978,8.6337,4.981c-1.8177,0.8059-3.7181,1.4004-5.6615,1.7719c-1.8553-0.9755-4.3155-2.435-6.9598-4.4504
			l-6.1522,3.5523c-1.6362-0.5513-3.2119-1.2613-4.7027-2.1197l7.4359-4.2927c-2.5135-2.3066-5.0291-5.1118-7.2158-8.4773
			l-8.6589,4.9993c-0.8737-1.2667-1.4701-2.33-2.0864-3.6294l8.6456-4.9917c-1.8501-3.5999-3.0406-7.2085-3.7916-10.563
			l-7.341,4.238c0.0177-1.7395,0.2061-3.468,0.565-5.1606l6.0027-3.4654C51.6507,41.1135,51.5986,38.3584,51.6648,36.2842z"/>
	</g>
</g>
</svg>
