<?xml version="1.0" encoding="utf-8"?>
<!-- Generator: Adobe Illustrator 17.1.0, SVG Export Plug-In . SVG Version: 6.00 Build 0)  -->
<!DOCTYPE svg [
	<!ENTITY ns_flows "http://ns.adobe.com/Flows/1.0/">
	<!ENTITY ns_extend "http://ns.adobe.com/Extensibility/1.0/">
	<!ENTITY ns_ai "http://ns.adobe.com/AdobeIllustrator/10.0/">
	<!ENTITY ns_graphs "http://ns.adobe.com/Graphs/1.0/">
]>
<svg version="1.2" baseProfile="tiny" xmlns:x="&ns_extend;" xmlns:i="&ns_ai;" xmlns:graph="&ns_graphs;"
	 xmlns="http://www.w3.org/2000/svg" xmlns:xlink="http://www.w3.org/1999/xlink" xmlns:a="http://ns.adobe.com/AdobeSVGViewerExtensions/3.0/"
	 x="0px" y="0px" width="128px" height="128px" viewBox="0 0 128 128" xml:space="preserve">
<g id="_x31_28px_boxes">
	<rect fill="none" width="128" height="128"/>
</g>
<g id="Production">
	<path fill="#ffffff" d="M101.3571,76.2032c-1.1118-11.8996-7.1882-19.7343-14.0974-28.7186
		c-8.9524-11.6411-16.3435-23.3268-20.9565-31.7753c-0.0052-0.0096-0.01-0.0185-0.0149-0.0268l0.0002-0.0003
		c-0.8921-1.639-3.6999-1.6487-4.5844,0.0144l-0.0015,0.003c-0.001,0.0018-0.0022,0.0037-0.0029,0.0056l-0.0042,0.0077
		c-3.946,7.4744-11.1572,18.9972-20.7478,31.4332c-7.1116,9.2212-13.1853,17.0668-14.3047,29.0561
		c-1.905,20.1513,15.1331,37.3467,37.3504,37.3467h0.0151C86.2319,113.5489,103.2607,96.3451,101.3571,76.2032z M48.4436,69.8623
		c-1.9681-1.1366-1.3484-0.7789-2.7889-1.6101c-1.104-0.6373-1.1008-2.2327,0-2.8659c2.0884-1.2065,9.4004-5.4273,10.7889-6.2308
		c1.0664-0.6158,2.4431,0.1038,2.4431,1.4332v12.4616c0,0.9504-0.7447,1.6549-1.6133,1.6549c-0.6873,0-1.0444-0.3478-3.3452-1.6759
		c-0.7915,3.059-0.315,6.5041,1.688,9.3601l-5.3628,3.11C47.1337,80.752,46.5932,74.9167,48.4436,69.8623z M67.6367,93.2238V96.55
		c0,1.1213-1.3911,2.1109-2.5659,1.4331c-1.813-1.0478-10.3587-5.981-10.7908-6.2301c-1.1126-0.6434-1.0874-2.2399,0.0005-2.8666
		c9.4375-5.4487,7.3322-4.2353,10.8112-6.2307c1.1587-0.669,2.545,0.2492,2.545,1.4331v2.8362
		c3.1782-0.7825,6.0305-2.9612,7.5537-6.1217l5.3674,3.0858C78.0327,88.8015,73.1367,92.3681,67.6367,93.2238z M81.1523,78.5459
		c-4.6001-2.6561-4.7378-2.7357-10.791-6.23c-1.1009-0.6354-1.1023-2.2307,0-2.8665l2.6396-1.5246
		c-0.0205-0.0208-0.0393-0.0429-0.06-0.0634c-2.3909-2.3838-5.6646-3.5832-9.0552-3.2751l-0.0122-6.2008
		c5.7324-0.3371,11.084,2.1016,14.5991,6.3816l2.6802-1.5476c1.1257-0.652,2.4834,0.1943,2.4834,1.4323
		c0.0005,6.2528,0.0005,3.3539,0.0005,12.461C83.6367,78.3878,82.2473,79.1771,81.1523,78.5459z"/>
</g>
</svg>
