<?xml version="1.0" encoding="utf-8"?>
<!-- Generator: Adobe Illustrator 18.1.1, SVG Export Plug-In . SVG Version: 6.00 Build 0)  -->
<svg version="1.2" baseProfile="tiny" xmlns="http://www.w3.org/2000/svg" xmlns:xlink="http://www.w3.org/1999/xlink" x="0px"
	 y="0px" width="128px" height="128px" viewBox="0 0 128 128" xml:space="preserve">
<g id="_x31_28px_boxes">
	<rect fill="none" width="128" height="128"/>
</g>
<g id="Production">
	<g>
		<path fill="#ffffff" d="M124.8083,34.787c-7.4214-1.9672-27.351-1.3768-32.221,5.2854c-0.835,1.1427-1.9336,2.9254-3.2238,6.4433
			c0,0-50.7269,0-50.7279,0c0,0-1.7394-5.123-4.2841-7.749c-4.7152-4.8885-23.9462-6.1446-31.5607-3.8529
			c-3.514,1.0577-4.9474,11.7401,3.2795,18.2891c0.9276,7.1136,3.3739,13.8049,10.1458,16.0833
			c-1.0003,0.1968,5.9498,19.3675,18.633,12.2378v10.1137c0,1.4155,1.1477,2.5631,2.5635,2.5631h53.0396
			c1.4158,0,2.5639-1.1476,2.5639-2.5631c0,0,0-10.1281,0-10.191c6.7851,3.6162,12.1179,1.0711,16.0959-5.5472
			c1.7285-2.8752,2.6647-6.6112,2.6715-6.6133c6.7713-2.2791,9.22-8.9762,10.1453-16.0844
			C128.6495,48.6956,130.0568,36.1777,124.8083,34.787z M108.0346,53.0644c-0.8811-0.0595-1.6253,0.6645-1.6634,1.6165
			c-0.1283,3.2146,8.697,2.2356,10.5321,1.2796c-1.7192,9.032-7.0455,11.5054-16.2385,9.7078
			c-1.9288-0.3772-2.9784,2.7957-0.3404,3.5789c1.7052,0.5065,4.4835,0.7972,6.3056,0.8032
			c-4.5507,11.2797-11.3631,8.0854-13.6139,4.4969V56.1537L75.967,70.2336l11.1842,14.0249
			c1.8409,2.3082-1.663,5.0411-3.4749,2.7702L72.5395,73.0639c-1.9164,1.916-4.8477,3.6563-8.6063,3.6563
			c-5.3235,0-8.6074-3.6569-8.6074-3.6569L44.1886,87.0287c-1.8288,2.2955-5.3083-0.4715-3.475-2.7702l11.1851-14.0253
			l-17.0496-14.08v18.6026c-1.9026,2.9212-8.7386,7.0423-13.48-4.7054c2.2222-0.0073,4.3926-0.3447,6.4955-0.8557l0.0674-0.0166
			c2.0972-0.5153,1.5193-3.9239-0.5972-3.5098c-9.1708,1.7896-14.5154-0.6395-16.2385-9.7078
			c0.1172,0.6176,5.0693,0.9361,6.1689,0.8901c6.6184-0.2759,4.2664-3.892,2.6998-3.7862
			C8.6692,53.8292,3.2852,44.5146,4.8079,39.5774c9.9019-2.0407,22.631,0.8131,24.918,2.1368
			c2.9999,1.7358,4.8595,8.3912,4.8595,8.3912h-0.0806l25.1325,20.7549c2.3286,1.9232,6.2631,1.9231,8.5917,0.0001l25.2047-20.8151
			c0.9713-3.0319,2.4227-6.9599,4.819-8.2489c5.6805-3.0562,21.7252-3.5227,24.9391-2.219
			C124.7339,43.1521,120.3677,53.8975,108.0346,53.0644z"/>
	</g>
</g>
</svg>
