<?xml version="1.0" encoding="utf-8"?>
<!-- Generator: Adobe Illustrator 18.1.1, SVG Export Plug-In . SVG Version: 6.00 Build 0)  -->
<svg version="1.2" baseProfile="tiny" xmlns="http://www.w3.org/2000/svg" xmlns:xlink="http://www.w3.org/1999/xlink" x="0px"
	 y="0px" width="128px" height="128px" viewBox="0 0 128 128" xml:space="preserve">
<g id="_x31_28px_boxes">
	<rect fill="none" width="128" height="128"/>
</g>
<g id="Production">
	<g>
		<path fill="#ffffff" d="M109.4912,29.7359l-4.7778-10.8639c-0.2993-0.6806-0.9726-1.1201-1.7163-1.1201H25.0029
			c-0.7436,0-1.4169,0.4395-1.7163,1.1201l-4.7778,10.8639c-0.2091,0.4753-0.2117,1.0158-0.0072,1.4931l10.9198,25.4917h5.7235
			c3.0801-2.7083,8.4731-3.4855,12.4721-2.2971c2.6693-4.4574,11.5228-5.4023,16.3831-2.1277
			c4.8705-3.2813,13.7188-2.3212,16.383,2.1277c3.9994-1.1884,9.3923-0.4115,12.4723,2.2971h5.7235l10.9195-25.4917
			C109.7029,30.7517,109.7003,30.2112,109.4912,29.7359z M44.9453,42.786l-2.0219,5.4645l-2.0223-5.4645l-5.4643-2.0221
			l5.4643-2.0222l2.0223-5.4643l2.0219,5.4643l5.4644,2.0222L44.9453,42.786z M66.4805,38.3125l-2.6145,7.0659l-2.6147-7.0659
			l-7.066-2.6148l7.066-2.6142l2.6147-7.0658l2.6145,7.0658l7.0659,2.6142L66.4805,38.3125z M87.0986,42.786l-2.0219,5.4645
			l-2.0225-5.4645l-5.4641-2.0221l5.4641-2.0222l2.0225-5.4643l2.0219,5.4643l5.4647,2.0222L87.0986,42.786z"/>
		<path fill="#ffffff" d="M106.5479,61.4326H21.4522c-1.0356,0-1.875,0.8395-1.875,1.875v45.0655c0,1.0356,0.8394,1.875,1.875,1.875
			h85.0957c1.0355,0,1.875-0.8394,1.875-1.875V63.3076C108.4229,62.2721,107.5834,61.4326,106.5479,61.4326z M75.2843,95.649
			c0,1.0355-0.8395,1.875-1.875,1.875H54.5907c-1.0355,0-1.875-0.8395-1.875-1.875V72.0424c0-1.0355,0.8395-1.875,1.875-1.875
			h18.8186c1.0355,0,1.875,0.8395,1.875,1.875V95.649z"/>
		<path fill="#ffffff" d="M68.5095,80.6075c0-2.4908-2.019-4.5099-4.5095-4.5099c-2.4905,0-4.5095,2.0191-4.5095,4.5099
			c0,1.5537,0.7864,2.9238,1.9825,3.7349l-2.0182,5.8609c-0.2391,0.6943,0.2775,1.4186,1.0118,1.4186h7.062h0.005
			c0.5909,0,1.0701-0.479,1.0701-1.0702c0-0.2682-1.9933-5.9528-2.0806-6.2065C67.7216,83.5346,68.5095,82.1631,68.5095,80.6075z"/>
	</g>
</g>
</svg>
