<?xml version="1.0" encoding="utf-8"?>

<svg version="1.2" baseProfile="tiny" xmlns="http://www.w3.org/2000/svg" xmlns:xlink="http://www.w3.org/1999/xlink" x="0px"
	 y="0px" width="64px" height="64px" viewBox="0 0 64 64" xml:space="preserve">

<g id="Production">
	<path fill="#ffffff" d="M34.4097,26.6021l-1.4117-1.4119L19.3606,38.8296c-2.1585,2.1583-2.1585,5.6711,0,7.8304
		c1.0456,1.0458,2.4359,1.6216,3.9149,1.6216c1.4785,0,2.8687-0.5758,3.9144-1.6216l22.4615-22.4649
		c7.39-7.3899-4.4818-19.203-11.8406-11.8419l-22.461,22.4649c-4.3808,4.3805-4.381,11.4717,0,15.8534
		c4.3798,4.3815,11.47,4.3817,15.851,0L44.8381,37.032l-1.4117-1.4119L29.789,49.2596c-3.6009,3.6005-9.4268,3.6013-13.0276,0
		c-3.5999-3.6015-3.6007-9.4283,0-13.0295l22.461-22.4649c5.4992-5.4977,14.5114,3.5218,9.0172,9.0181L25.7781,45.2481
		c-1.3805,1.3797-3.6253,1.3797-5.0058,0c-1.3795-1.3807-1.38-3.6263,0-5.0066L34.4097,26.6021z"/>
</g>
</svg>
