<?xml version="1.0" encoding="utf-8"?>
<!-- Generator: Adobe Illustrator 18.1.1, SVG Export Plug-In . SVG Version: 6.00 Build 0)  -->
<svg version="1.2" baseProfile="tiny" xmlns="http://www.w3.org/2000/svg" xmlns:xlink="http://www.w3.org/1999/xlink" x="0px"
	 y="0px" width="128px" height="128px" viewBox="0 0 128 128" xml:space="preserve">
<g id="box">
	<rect fill="none" width="128" height="128"/>
</g>
<g id="Production">
	<g>
		<polygon fill="#ffffff" points="45.749,64.0663 42.9539,73.0514 48.5347,73.0514 		"/>
		<polygon fill="#ffffff" points="72.2585,68.5986 69.4707,59.6207 66.6804,68.5986 		"/>
		<path fill="#ffffff" d="M98.0208,23.4541h-50.573c-4.9852,0.0073-9.4476,1.1542-12.8787,3.036
			c-5.0816,2.7951-7.6431,7.0358-7.6431,13.0209c0,4.2015-0.0022,61.9678-0.0022,61.9678c0,1.6811,1.3767,3.0527,3.0576,3.0527
			h54.9852c0.0141,0,0.0307,0.0144,0.0478,0.0144c1.6841,0,3.0552-1.3782,3.0552-3.0671h-0.0069V39.516
			c0-1.5833-1.2895-3.0553-3.0483-3.0553H39.4871c-2.7376,0-5.0096-0.3903-5.0096-1.5758c0-0.4579,0.7976-1.841,3.0408-3.0481
			c2.3467-1.3059,5.9104-2.2866,9.9295-2.272H94.968v61.9605c0,0,1.3662,0,3.0528,0c1.6918,0,3.0554-1.3665,3.0554-3.0555V26.5095
			C101.0762,24.8016,99.6851,23.4541,98.0208,23.4541z M40.4216,73.0514h0.4292l3.937-12.6763
			c0.012-0.0386,0.0362-0.0724,0.0555-0.1133c-1.6194-0.323-2.448-1.6624-2.1636-2.3108c0.4094-0.9349,2.3418-0.2338,3.5779-0.8361
			c7.3022-3.5386,14.8955-5.0866,23.2661-4.366c1.3735,0.1132,2.9201-1.2456,3.6362-0.5228
			c0.6599,0.6554-0.0149,3.1347-2.8408,3.5106c0.0383,0.0676,0.0889,0.1206,0.1106,0.1929l3.9372,12.669h0.4312
			c1.4482,0,1.1846,5.0356-5.3274,5.0551c-3.1462-0.0094-6.0725-1.2451-6.0383-4.3395c0-0.3997,0.3279-0.7156,0.7109-0.7156h0.429
			l3.937-12.669c0.0095-0.034,0.0334-0.0603,0.0456-0.0917c-2.7299,0-5.5417,0.1445-8.6045,0.6144v21.7605
			c1.0704,0.549,2.2845,1.1732,2.6412,1.3659c0.7614,0.3976,1.3784,1.0675,1.3784,1.9396c0,0.5106,0.0398,0.988-0.5113,0.988
			H52.3584c-0.5466,0-0.5107-0.4773-0.5107-0.988c0.0095-0.8867,0.6457-1.542,1.3757-1.9396
			c0.3494-0.1927,1.5686-0.8289,2.6433-1.3855V57.2404c-4.1797,0.9935-9.178,2.9315-9.2551,2.9492
			c0.0388,0.0603,0.0771,0.1205,0.0964,0.1855l3.9373,12.6763c0.3618,0,0.685-0.0493,0.9299,0.2048
			c0.1301,0.1325,0.2097,0.3181,0.2097,0.5036c0.0249,3.1175-2.9211,4.3348-6.0359,4.3348c-3.1213,0-6.0779-1.2321-6.0381-4.3348
			C39.7109,73.3793,40.0144,73.0514,40.4216,73.0514z"/>
	</g>
</g>
</svg>
