<?xml version="1.0" encoding="utf-8"?>
<!-- Generator: Adobe Illustrator 17.1.0, SVG Export Plug-In . SVG Version: 6.00 Build 0)  -->
<!DOCTYPE svg [
	<!ENTITY ns_flows "http://ns.adobe.com/Flows/1.0/">
	<!ENTITY ns_extend "http://ns.adobe.com/Extensibility/1.0/">
	<!ENTITY ns_ai "http://ns.adobe.com/AdobeIllustrator/10.0/">
	<!ENTITY ns_graphs "http://ns.adobe.com/Graphs/1.0/">
]>
<svg version="1.2" baseProfile="tiny" xmlns:x="&ns_extend;" xmlns:i="&ns_ai;" xmlns:graph="&ns_graphs;"
	 xmlns="http://www.w3.org/2000/svg" xmlns:xlink="http://www.w3.org/1999/xlink" xmlns:a="http://ns.adobe.com/AdobeSVGViewerExtensions/3.0/"
	 x="0px" y="0px" width="128px" height="128px" viewBox="0 0 128 128" xml:space="preserve">
<g id="_x31_28px_boxes">
	<rect fill="none" width="128" height="128"/>
</g>
<g id="Production">
	<g>
		<path fill="#ffffff" d="M104.3817,79.2687l-21.8243,21.8232c-3.0221,3.0231-7.573,3.6653-11.2358-0.0024
			c-3.6028-3.5987-3.0994-8.1483-0.0127-11.2348c5.2422-5.2301,28.0889-28.0307,34.6997-34.6403
			c8.6909-8.6917,9.9646-23.7727-0.0024-33.7411c-9.8454-9.8312-24.9017-8.8206-33.733,0.0031
			c-4.6943,4.6955-6.2216,6.223-6.7158,6.7169l7.0195,7.0095c0.5015-0.502,2.0372-2.0377,6.7095-6.711
			c4.7378-4.7337,13.6206-6.0795,19.7075-0.0018c6.087,6.0875,4.7393,14.9707,0.0005,19.7096
			c-6.6079,6.6067-29.4507,29.4031-34.6963,34.637c-6.788,6.788-7.6428,17.6219,0.0088,25.2676
			c7.4725,7.4787,18.2961,6.9743,25.2656,0.0014l21.8233-21.8223c1.937-1.9369,1.937-5.0771,0-7.0141
			C109.4593,77.3317,106.3187,77.3322,104.3817,79.2687z"/>
		<path fill="#ffffff" d="M77.9602,55.061c1.5469-1.5484,1.5466-4.0621-0.0039-5.6099L51.2332,22.7653
			c-1.5503-1.548-4.0615-1.5466-5.6099,0.0038l-17.707,17.7302c-1.547,1.5485-1.5465,4.0621,0.0039,5.61l1.6064,1.6042
			c-4.7959,4.8022-2.7734,2.777-13.3056,13.3235c-1.646,1.6485-1.6441,4.3193,0.0044,5.9655
			c1.6469,1.6455,4.3186,1.6451,5.9653-0.004c10.5328-10.5472,8.5105-8.5221,13.3057-13.3236l11.4033,11.3876
			c-5.5195,5.5274-2.2878,2.2911-13.3057,13.3239c-1.646,1.6484-1.644,4.3193,0.0044,5.9653
			c1.6472,1.6452,4.3182,1.6451,5.9654-0.0039c11.0166-11.0314,7.7853-7.7957,13.3056-13.3238l1.7744,1.7718
			c1.5502,1.548,4.0616,1.5463,5.6099-0.0038L77.9602,55.061z"/>
	</g>
</g>
</svg>
