<?xml version="1.0" encoding="utf-8"?>
<!-- Generator: Adobe Illustrator 18.1.1, SVG Export Plug-In . SVG Version: 6.00 Build 0)  -->
<svg version="1.2" baseProfile="tiny" xmlns="http://www.w3.org/2000/svg" xmlns:xlink="http://www.w3.org/1999/xlink" x="0px"
	 y="0px" width="128px" height="128px" viewBox="0 0 128 128" xml:space="preserve">
<g id="box">
	<rect fill="none" width="128" height="128"/>
</g>
<g id="Production">
	<g>
		<path fill="#ffffff" d="M101.7883,24.3606H35.6895c-1.5205,0-2.7901,1.2345-2.7901,2.79v5.7393h6.9714
			c4.5403,0.0071,8.1741,3.6846,8.1741,8.1914c-0.0073,4.5039-3.6504,8.179-8.1741,8.179h-6.9714v5.9787h6.9714
			c4.5281,0.0047,8.1741,3.6873,8.1741,8.1865c-0.0073,4.5039-3.6504,8.1768-8.1741,8.1768h-6.9714v5.9834h6.9714
			c4.5281,0,8.1741,3.6802,8.1741,8.1819c0,4.5066-3.646,8.1716-8.1741,8.1792h-6.9714v6.9123c0,1.5204,1.2418,2.7803,2.7901,2.7803
			h66.0988c1.5494,0,2.7925-1.2469,2.7925-2.7803V27.1506C104.5808,25.6169,103.3442,24.3606,101.7883,24.3606z M77.2017,45.9275
			c3.7534,0.0076,7.04,3.582,7.0544,8.292c-0.0218,4.781-3.4948,8.2912-7.0544,8.2912c-3.5599,0-7.0433-3.5315-7.0547-8.2912
			C70.1572,49.5095,73.448,45.9351,77.2017,45.9275z M91.0781,80.0212H63.2786c-0.7015-2.1933-1.1197-4.4526-1.1197-6.5629
			c0.1392-5.0445,2.0584-9.2774,9.0352-10.8375c3.5511,3.2389,8.4499,3.2524,11.9963,0.0101
			c6.9417,1.5673,8.8562,5.7976,8.9959,10.8274C92.1863,75.5686,91.7681,77.8279,91.0781,80.0212z"/>
		<path fill="#ffffff" d="M27.29,67.3015h12.5808c2.1465,0,3.8731-1.739,3.8731-3.876c0-2.1394-1.7266-3.8806-3.8731-3.8806H27.29
			c-2.1447,0.0073-3.8708,1.7412-3.8708,3.8806C23.4192,65.5625,25.1453,67.3015,27.29,67.3015z"/>
		<path fill="#ffffff" d="M43.7439,85.7698c0-2.1367-1.7266-3.8806-3.8731-3.8806H27.29c-2.1447,0.0075-3.8708,1.7439-3.8708,3.8806
			c0,2.1325,1.7261,3.8708,3.8708,3.8808h12.5808C42.0173,89.6506,43.7439,87.9023,43.7439,85.7698z"/>
		<path fill="#ffffff" d="M27.29,44.9568h12.5808c2.1465,0,3.8731-1.7385,3.8731-3.8755c0-2.1396-1.7266-3.8857-3.8731-3.8857H27.29
			c-2.1447,0.0122-3.8708,1.7461-3.8708,3.8857C23.4192,43.2183,25.1453,44.9568,27.29,44.9568z"/>
	</g>
</g>
</svg>
