<?xml version="1.0" encoding="utf-8"?>

<svg version="1.2" baseProfile="tiny" xmlns="http://www.w3.org/2000/svg" xmlns:xlink="http://www.w3.org/1999/xlink" x="0px"
	 y="0px" width="64px" height="64px" viewBox="0 0 64 64" xml:space="preserve">

<g id="Production">
	<g>
		<path fill="#ffffff" d="M56.4198,7H16.4187C12.8346,7,10,9.8927,10,13.4766v7.6842l-9,4.6953v5.6398l9-4.6953v8.1708
			l-3.0945,2.1982c0,0,1.0429,1.476,2.9016,4.0566c1.0005-0.7175,12.9683-9.3653,16.3121-11.6784
			c2.2981-1.5962,4.951,0.9525,3.0704,3.5849C27.3455,35.7141,19.179,45.4794,17.8959,46.994C15.0887,50.3074,11.985,52,8.6709,52H1
			c0,5,0-1,0,5h7.6709c4.8517,0,9.239-2.2754,13.0404-6.7617C23.1922,48.4896,25.5247,46,27.7387,43h3.8719l-6.7453,11.0163
			c2.7159,1.6613,1.5505,0.9544,4.2657,2.6153L37.4722,43h4.4672l-6.7453,11.0163c2.7166,1.6617,1.5499,0.9539,4.2657,2.6153
			L47.8011,43h8.6187C60.0039,43,63,40.0603,63,36.4763V13.4766C63,9.8927,60.0039,7,56.4198,7z M58,36.4763
			C58,37.3035,57.247,38,56.4198,38H31.7905c0.6885-1,1.1487-1.5036,1.4669-1.9492c2.2818-3.1943,2.0894-7.1181-0.479-9.7548
			c-2.6285-2.6992-6.3199-3.0371-9.4669-0.8565C22.3497,26.1046,19,28.7191,15,31.377V13.4766C15,12.6495,15.5915,12,16.4187,12
			h40.0011C57.247,12,58,12.6495,58,13.4766V17H19v5h39V36.4763z"/>
	</g>
</g>
</svg>
