<?xml version="1.0" encoding="utf-8"?>
<!-- Generator: Adobe Illustrator 19.1.0, SVG Export Plug-In . SVG Version: 6.00 Build 0)  -->
<svg version="1.2" baseProfile="tiny" xmlns="http://www.w3.org/2000/svg" xmlns:xlink="http://www.w3.org/1999/xlink" x="0px"
	 y="0px" width="64px" height="64px" viewBox="0 0 64 64" xml:space="preserve">
<g id="box">
	<rect fill="none" width="64" height="64"/>
</g>
<g id="Production">
	<path fill="#ffffff" d="M32,5C18.2148,5,7,16.2148,7,30c0,4.7065,1.3402,9.2351,3.7856,13.1604l0.2208,1.2521
		c0.4175,2.3672,1.7319,4.4307,3.7012,5.8096c1.9108,1.3381,4.2909,1.9207,6.7246,1.4907c2.1779-0.384,3.6291-2.4563,3.2451-4.6338
		l-2.605-14.7724c-0.1855-1.0518-0.7695-1.9688-1.645-2.5815c-0.8745-0.6128-1.936-0.8491-2.9888-0.6626
		c-2.3672,0.4175-4.4307,1.7319-5.8096,3.7012c-0.8658,1.2365-1.3957,2.6382-1.5675,4.0963C9.3706,34.6615,9,32.3552,9,30
		c0-5.4413,1.9034-10.4442,5.074-14.3868l2.718,0.8594c0.5151,0.1626,1.0425,0.2427,1.562,0.2427
		c1.0918,0,2.1523-0.3525,3.0088-1.0278C24.4233,13.2754,28.1021,12,32,12s7.5767,1.2754,10.6372,3.6875
		c1.2637,0.9971,2.9727,1.2905,4.5708,0.7852l2.718-0.8594C53.0966,19.5559,55,24.5587,55,30c0,2.3899-0.3664,4.7122-1.0574,6.9168
		c-0.1646-1.4783-0.6945-2.9008-1.5715-4.1532c-1.3789-1.9692-3.4424-3.2837-5.8096-3.7012
		c-1.0527-0.187-2.1143,0.0498-2.9888,0.6626c-0.8755,0.6128-1.4595,1.5298-1.645,2.5815l-2.605,14.7724
		c-0.384,2.178,1.0676,4.2498,3.2451,4.6338h-0.0005c0.3077,0.0543,0.6154,0.0878,0.9227,0.1103
		c-1.0505,1.2841-2.773,2.9723-5.2409,4.2106C37.6993,55.4052,36.9007,55,36,55c-1.6569,0-3,1.3431-3,3s1.3431,3,3,3s3-1.3431,3-3
		c0-0.0324-0.0085-0.0624-0.0095-0.0945c4.0106-1.9485,6.2746-4.9427,7.1448-6.3036c1.1168-0.2559,2.1905-0.7029,3.1572-1.3798
		c1.9692-1.3789,3.2837-3.4424,3.7012-5.8096l0.2202-1.2488C55.6463,39.2371,57,34.679,57,30C57,16.2148,45.7852,5,32,5z
		 M13.2671,33.9106c1.0728-1.5317,2.6772-2.5537,4.519-2.8784c1.0827-0.1932,2.124,0.5306,2.3164,1.6221l2.605,14.7724
		c0.1921,1.0889-0.5338,2.1244-1.6221,2.3164H21.085c-1.8408,0.3267-3.6987-0.0869-5.2305-1.1592
		c-1.5317-1.0728-2.5537-2.6772-2.8784-4.519l-0.8682-4.9238C11.7832,37.2997,12.1948,35.4423,13.2671,33.9106z M46.6055,14.5654
		c-0.9663,0.3052-1.9868,0.1377-2.73-0.4482C40.458,11.4238,36.3516,10,32,10s-8.458,1.4238-11.8755,4.1172
		c-0.7432,0.5864-1.7627,0.7554-2.73,0.4482l-1.8697-0.5912c0.2891-0.2971,0.3993-0.4333,1.0921-1.0577
		C20.6949,9.2406,26.0906,7,32,7c6.1378,0,11.7206,2.4178,15.8491,6.3496c0.4366,0.4158,0.4025,0.3949,0.626,0.6246L46.6055,14.5654
		z M51.8921,39.1411l-0.8682,4.9238c-0.3247,1.8418-1.3467,3.4463-2.8784,4.519c-1.5312,1.0728-3.3862,1.4844-5.2305,1.1592h-0.0005
		c-1.0889-0.1921-1.814-1.2282-1.6221-2.3164l2.605-14.7724c0.1937-1.0988,1.2416-1.8146,2.3164-1.6221
		c1.8418,0.3247,3.4463,1.3467,4.519,2.8784C51.8052,35.4423,52.2168,37.2997,51.8921,39.1411z"/>
</g>
</svg>

