<?xml version="1.0" encoding="utf-8"?>

<svg version="1.2" baseProfile="tiny" xmlns="http://www.w3.org/2000/svg" xmlns:xlink="http://www.w3.org/1999/xlink" x="0px"
	 y="0px" width="128px" height="128px" viewBox="0 0 128 128" xml:space="preserve">
<g id="_x31_28px_boxes">
	<rect fill="none" width="128" height="128"/>
</g>
<g id="Production">
	<g>
		<g>
			<path fill="#ffffff" d="M80.6356,32.9223c0-10.0893-8.1789-18.2682-18.2684-18.2682c-10.0891,0-18.2682,8.1789-18.2682,18.2682
				c0,3.7988,1.1604,7.3263,3.1448,10.2489c2.6154-0.9259,5.3457-1.6133,8.1526-2.0536l0.853-3.5935
				c1.435,0.7015,3.412,1.4031,5.5803,1.4031c1.6263,0,2.7422-0.4464,2.7422-1.4668c0-0.9886-0.9247-1.5944-3.3161-2.3278
				c-3.4439-1.1161-5.8992-2.7423-5.8992-5.9629c0-2.9017,2.0089-5.1976,5.644-5.931v-2.9336h3.6352v2.6786
				c2.2003,0.0956,3.6988,0.542,4.815,1.0204l-1.0205,4.2409c-0.8608-0.3508-2.3916-1.0842-4.8149-1.0842
				c-1.8814,0-2.4553,0.6697-2.4553,1.3712c0,0.7971,1.0842,1.403,3.7627,2.3596c4.0178,1.3074,5.4846,3.1249,5.4846,6.0267
				c0,1.526-0.5613,2.9144-1.6238,3.9964c3.0535,0.3837,6.0254,1.0582,8.8677,2.01C79.536,40.0507,80.6356,36.6158,80.6356,32.9223z
				"/>
		</g>
		<path fill="#ffffff" d="M109.9398,70.2416c-5.1437,0-10.1331-5.554-13.0178-9.8271l1.4571-1.9607
			c7.763-10.4462,8.122-10.363,7.5393-11.7284c-0.4915-1.1525-1.473-1.3619-5.0945-1.292c-4.0247,0.0773-8.5318,0.96-11.2634,3.8983
			c-2.2889,2.4591-5.0302,8.4274-0.2686,13.532c0,0-0.0049,0.0005-0.0073,0.0005c-0.3252,0-0.6538-0.0832-0.9531-0.2565
			c-0.1509-0.0873-3.7073-2.1852-4.6819-6.1779c-0.0486-0.1988-0.0874-0.3985-0.1219-0.5987
			c-0.2785-1.6255-0.0879-3.2944,0.5677-4.9885c-15.1947-9.2971-38.0508-8.0755-51.4673,7.8053
			c-1.5807-1.1035-3.179-2.4117-4.4589-3.8738c-3.2639-3.7285-1.4317-7.803-0.0069-9.4365
			c1.0645-1.2212,2.9138,0.3856,1.8538,1.6106c-0.279,0.327-2.6051,3.2313,0.001,6.2085c0.4613,0.5267,0.9694,1.0277,1.4843,1.4886
			c5.3997-4.4873,6.4255-12.547,0.2353-15.0825c-6.5505-2.6832-11.8573,4.4243-11.1351,12.1745
			c-2.4534-0.3756-3.8882-2.0092-4.4612-4.0146c-0.251-0.8784-1.1294-1.004-1.6315,0.0835
			c-0.8791,1.9043-2.2074,6.3951,2.7987,9.1732c1.6519,0.9166,3.7062,0.9843,5.7148,0.8541
			c1.6836,2.2764,4.0603,4.2907,6.3884,5.8786c-4.5764,9.2229-3.5079,20.0607,3.4822,28.6745
			c-1.711,7.4609-1.0685,4.659-2.7716,12.0872c-0.6619,3.7537,1.8255,7.3188,6.4466,7.9954l6.2421,0.8029
			c3.7415,0.2868,7.3361-1.7742,7.9952-5.5134l0.7854-3.5764c7.0048,1.9153,14.5826,1.9805,21.6043,0.217
			c0.1215,0.5536,0.8207,3.856,1.0044,4.3819c1.0967,3.1367,4.4568,4.9629,7.7285,4.4909l6.2422-0.8029
			c4.8554-0.7942,7.1084-4.2417,6.4465-7.9954c-1.7023-7.4235-1.2482-5.4431-1.9729-8.6047
			c4.253-3.6101,8.2753-7.5899,15.709-8.4063c2.9136-0.4385,4.5854-1.6543,5.1758-5.1763l0.7905-8.0272
			C114.5338,70.9903,112.5612,70.2416,109.9398,70.2416z M96.4122,76.9903c-4.6044,0-4.6083-6.9738,0-6.9738
			c1.8887,0,3.4869,1.5373,3.4869,3.4867C99.8991,75.4251,98.3281,76.9903,96.4122,76.9903z"/>
	</g>
</g>
</svg>
