<?xml version="1.0" encoding="utf-8"?>
<!-- Generator: Adobe Illustrator 17.1.0, SVG Export Plug-In . SVG Version: 6.00 Build 0)  -->
<!DOCTYPE svg [
	<!ENTITY ns_flows "http://ns.adobe.com/Flows/1.0/">
	<!ENTITY ns_extend "http://ns.adobe.com/Extensibility/1.0/">
	<!ENTITY ns_ai "http://ns.adobe.com/AdobeIllustrator/10.0/">
	<!ENTITY ns_graphs "http://ns.adobe.com/Graphs/1.0/">
]>
<svg version="1.2" baseProfile="tiny" xmlns:x="&ns_extend;" xmlns:i="&ns_ai;" xmlns:graph="&ns_graphs;"
	 xmlns="http://www.w3.org/2000/svg" xmlns:xlink="http://www.w3.org/1999/xlink" xmlns:a="http://ns.adobe.com/AdobeSVGViewerExtensions/3.0/"
	 x="0px" y="0px" width="128px" height="128px" viewBox="0 0 128 128" xml:space="preserve">
<g id="_x31_28px_boxes">
	<rect fill="none" width="128" height="128"/>
</g>
<g id="Production">
	<g>
		<path fill="#ffffff" d="M95.541,86.9961l-4.6817,14.9504c-0.353,1.1264,0.4903,2.273,1.67,2.273h4.625
			c0.7617,0,1.436-0.4928,1.6674-1.2187l3.8619-12.1183C99.5942,92.2607,96.0576,90.316,95.541,86.9961z"/>
		<path fill="#ffffff" d="M74.2653,40.6086c-1,0.8798-1.0551,3.9392-1.0551,8.3698c0,4.4499,0.0551,7.4918,1.0551,8.37
			c0.5994,0.5287,1.794,0.5299,2.3968,0c1-0.8812,1.0549-3.9463,1.0549-8.37c0-4.4517-0.0544-7.4867-1.0549-8.3698
			C76.0593,40.0801,74.8672,40.0791,74.2653,40.6086z"/>
		<path fill="#ffffff" d="M127.0527,62.4181c-0.7502-2.2025-2.2678-3.6772-4.0547-4.1071
			c-0.0005-6.1072-0.0012-16.9767,0.0005-23.0937c0.002-7.7857-5.0874-11.8889-11.1697-11.6676H55.5566
			c-15.4126,0-23.6133,4.5474-27.4202,15.2055c-3.4797,9.7439-10.1098,21.1348-15.53,27.9378l-4.7563-3.3928
			c-2.1787-1.5484-4.8868,1.1416-3.3272,3.3275l2.5757,3.6103c-1.5603,0.5628-3.7754,1.9083-4.6167,5.0968
			c-1.3555,5.138-3.252,5.0159-0.9395,6.2426c1.5694,0.8324,2.6456-0.2561,4.6834-1.5626c0.0129,0.054,0.0232,0.1077,0.0373,0.1619
			c1.4053,5.4208,1.0301,13.82,1.4849,16.8919c0.3311,2.2322,2.1914,3.732,4.6299,3.732c2.1008,0,4.2285-1.0772,5.553-2.8115
			c2.0166-2.6413,10.1711-17.617,11.2331-19.5718c0.9207-1.4694,2.2337-2.184,4.0122-2.1837c2.4895,0,5.7188,1.4035,8.7984,3.732
			c-0.0115,0.7896-0.0518,1.5864-0.1319,2.383c-0.5842,5.8126-1.9309,20.0523-1.9443,20.1956
			c-0.0972,1.0266,0.7114,1.9146,1.7422,1.9146h4.8975c0.7817,0,1.458-0.5172,1.6757-1.2512l0.8914-5.0796
			c0.604-3.4953,4.2966-24.487,4.2966-24.487c0.3709-2.1145,3.5725-1.5559,3.2012,0.5619l-3.4121,19.4464l1.9306,9.2409
			c0.1695,0.811,0.8843,1.3921,1.7129,1.3921h5.4327c1.0481,0,1.8623-0.9168,1.7375-1.9583l-3.1589-26.336l21.4167,0.0783
			c0.8533,2.2248,2.7539,4.1419,5.302,5.4557v4.8999c0,1.3808,1.1194,2.5,2.5,2.5s2.5-1.1192,2.5-2.5v-3.2801
			c1.8462,0.302,3.6851,0.3307,5.5342,0.0948v3.1853c0,1.3808,1.1194,2.5,2.5,2.5s2.5-1.1192,2.5-2.5v-4.584
			c0.9424-0.4304,1.8076-0.9403,2.5781-1.5157l2.5701,3.5992l-2.2275,18.5246c-0.1253,1.041,0.6884,1.9588,1.7375,1.9588h4.5933
			c0.8496,0,1.5766-0.6103,1.7236-1.4471c0.0295-0.1682,2.9687-16.8815,3.9622-21.1038c0.3835-1.6285-0.4053-3.2228-1.4971-5.4295
			c-1.5921-3.2178-3.7683-7.6202-3.7893-14.5904V29.7452c2.9782,0.3784,3.9997,2.4683,3.999,5.4704
			c-0.0024,8.8336,0,27.5813,0,27.5813s0.0012,0.2454,0.0012,0.3753c0,5.5667,5.9153,11.7483,8.1863,10.8259
			C127.4384,72.9822,128.1294,65.5785,127.0527,62.4181z M61.9463,57.7779c-1.4063,3.3731-4.0572,4.3637-7.7259,4.3637
			c-7.3281,0-9.1211-3.2237-9.1211-13.1632c0-8.7652,1.5523-13.2702,9.1211-13.2702c1.5022,0,2.7776,0.1913,3.8272,0.5722
			c4.7434,1.7268,4.4353,6.4206,4.4353,9.1211h-6.4385c0-2.5995,0.2187-5.1861-1.824-5.1861c-1.9973,0-2.2536,1.8122-2.2536,8.763
			c0,6.9507,0.2583,8.7635,2.2536,8.7635c1.7063,0,2.003-1.6828,2.003-6.2596h6.4382
			C62.6616,53.6199,62.7641,55.8141,61.9463,57.7779z M75.4636,62.1416c-7.5003,0-9.1211-4.5393-9.1211-13.1632
			c0-8.165,1.4434-13.2702,9.1211-13.2702c7.8105,0,9.1208,5.3644,9.1208,13.2702C84.5844,57.2117,83.2006,62.1416,75.4636,62.1416z
			 M98.2805,62.0337v3.1877H87.6696c0-7.0045,6.3758-7.8064,6.3758-11.6811c0-0.6831-0.0991-1.1537-0.2962-1.4117
			c-0.3886-0.507-1.2021-0.5378-1.6052,0c-0.4336,0.5774-0.3757,1.7083-0.3757,2.4363h-3.9622
			c0.0681-3.6759,1.1611-5.4646,5.2827-5.4646c3.8843,0,5.1917,1.6299,5.1917,4.3949c0,3.661-1.9924,4.5994-5.1121,7.8327
			c-0.2202,0.2274-0.3681,0.463-0.4438,0.7058H98.2805z"/>
	</g>
</g>
</svg>
