<?xml version="1.0" encoding="utf-8"?>
<!-- Generator: Adobe Illustrator 18.1.1, SVG Export Plug-In . SVG Version: 6.00 Build 0)  -->
<svg version="1.2" baseProfile="tiny" xmlns="http://www.w3.org/2000/svg" xmlns:xlink="http://www.w3.org/1999/xlink" x="0px"
	 y="0px" width="64px" height="64px" viewBox="0 0 64 64" xml:space="preserve">
<g id="_x36_4px_boxes">
	<rect fill="none" width="64" height="64"/>
</g>
<g id="Production">
	<g>
		<circle fill="#ffffff" cx="31.9961" cy="33.0914" r="1.9086"/>
		<path fill="#ffffff" d="M24.7585,27.9697l1.8962,1.8962c3.0366-2.7626,7.6711-2.7762,10.7236-0.0408l1.8972-1.8972
			C35.176,24.1498,28.8418,24.1642,24.7585,27.9697z"/>
		<path fill="#ffffff" d="M20.4399,23.6512l1.8894,1.8893c5.4268-5.1451,13.9321-5.1592,19.3755-0.0419l1.8894-1.8894
			C37.1062,17.4496,26.9111,17.4636,20.4399,23.6512z"/>
		<path fill="#ffffff" d="M51,19.0974V12h-8.7603l-5.2036-4.2158C35.6162,6.6333,33.8276,6,32,6s-3.6162,0.6333-5.0361,1.7842
			L21.7604,12H13v7.0975l-6,4.861V58h50V23.9585L51,19.0974z M28.2227,9.3379c2.1309-1.7256,5.4238-1.7256,7.5547,0L39.063,12
			H24.937L28.2227,9.3379z M9,27.606l15.2625,13.3762L9,53.3474V27.606z M55,56H9v-0.079L26.1826,42h11.6348L55,55.921V56z
			 M55,53.3474L39.7375,40.9821L55,27.606V53.3474z M55,24.9467L37.8242,40H26.1758L9,24.9467v-0.0341l4-3.2409v4.1216
			c2.9023,2.5436-0.9023-0.7908,2,1.7528V14h34v13.5455c1.2083-1.059,0.7416-0.65,1.9751-1.7311L51,25.8429v-4.1712l4,3.2409
			V24.9467z"/>
	</g>
</g>
</svg>

