<?xml version="1.0" encoding="utf-8"?>

<svg version="1.2" baseProfile="tiny" xmlns="http://www.w3.org/2000/svg" xmlns:xlink="http://www.w3.org/1999/xlink" x="0px"
	 y="0px" width="128px" height="128px" viewBox="0 0 128 128" xml:space="preserve">
<g id="_x31_28px_boxes">
	<rect fill="none" width="128" height="128"/>
</g>
<g id="Production">
	<g>
		<path fill="#ffffff" d="M94.7835,23.7445c0,0-34.0362,16.3389-37.8151,18.0613c-3.2398,1.4767-6.1935,1.7785-8.2623,1.6725
			c-4.0864-0.2096-7.2419-1.3197-9.8902-2.8455c-2.2682-1.3068-1.9009-3.2662-0.0045-4.176
			c1.2025-0.5769,15.9668-7.3272,15.9668-7.3272l18.8469-8.745l3.6318,1.4798v-5.5469c0-2.8359-2.9422-4.7187-5.5166-3.5382
			c0,0-36.2923,16.6224-37.0283,16.9922c-5.2539,2.6395-6.9164,4.0723-7.0655,10.7607v60.3517c0,4.4669,2.1142,8.5476,6.246,11.0231
			c7.4358,4.4548,18.1727,4.8251,26.059,1.2585L97.6803,93.233c1.2644-0.6679,2.0605-1.9751,2.0742-3.4049l0.5989-62.5332
			C100.3806,24.4179,97.3779,22.5064,94.7835,23.7445z M33.4626,94.8126v-8.6638c2.2418,6.5943,12.8201,7.3566,19.8366,6.0314
			c0.1735-0.0327,0.3474-0.065,0.519-0.1005v8.6641c-0.1716,0.0355-0.3455,0.0677-0.519,0.1004
			C45.3629,102.3429,35.5621,100.9883,33.4626,94.8126z M33.4626,53.0223c2.2979,6.7594,13.3327,7.3849,20.3556,5.9312v8.6643
			c-7.8917,1.6335-18.1914,0.4353-20.3556-5.9314V53.0223z"/>
	</g>
</g>
</svg>
