<?xml version="1.0" encoding="utf-8"?>
<!-- Generator: Adobe Illustrator 19.1.0, SVG Export Plug-In . SVG Version: 6.00 Build 0)  -->
<svg version="1.2" baseProfile="tiny" xmlns="http://www.w3.org/2000/svg" xmlns:xlink="http://www.w3.org/1999/xlink" x="0px"
	 y="0px" width="64px" height="64px" viewBox="0 0 64 64" xml:space="preserve">
<g id="box">
	<rect fill="none" width="64" height="64"/>
</g>
<g id="Production">
	<g>
		<path fill="#ffffff" d="M32,14c3.0326,0,5.5-2.4672,5.5-5.4998C37.5,5.4672,35.0326,3,32,3c-3.0325,0-5.5,2.4672-5.5,5.5002
			C26.5,11.5328,28.9675,14,32,14z M32,4.9963c1.9335,0,3.5062,1.5718,3.5062,3.5039c0,1.9315-1.5728,3.5034-3.5062,3.5034
			c-1.9334,0-3.5062-1.5718-3.5062-3.5034C28.4938,6.5682,30.0666,4.9963,32,4.9963z"/>
		<path fill="#ffffff" d="M43.543,21.8193C42.7241,17.3599,40.0273,16,32,16s-10.7241,1.3599-11.543,5.8193
			C20.0352,24.1162,20,27.04,20,29.6001V37c0,0.5522,0.4478,1,1,1s1-0.4478,1-1v-7.3999c0-2.4722,0.0327-5.2881,0.4238-7.4194
			C22.9575,19.2739,24.0249,18,32,18s9.0425,1.2739,9.5762,4.1807C41.9673,24.312,42,27.1279,42,29.6001V37c0,0.5522,0.4478,1,1,1
			s1-0.4478,1-1v-7.3999C44,27.04,43.9648,24.1162,43.543,21.8193z"/>
		<path fill="#ffffff" d="M39.5479,24.1323c0.0361-0.5508-0.3813-1.0269-0.9326-1.0635c-0.5562-0.0366-1.0269,0.3818-1.0635,0.9326
			l-0.6953,10.5859c-0.0029,0.0508-0.0024,0.1021,0.002,0.1528L38.9883,59c-1.7783,0-3.3076-1.3281-3.5571-3.0889l-2.4409-17.2354
			C32.9204,38.1826,32.498,37.8159,32,37.8159s-0.9204,0.3667-0.9902,0.8599l-2.4409,17.2354C28.3193,57.6719,26.79,59,25.0117,59
			l2.1299-24.2598c0.0044-0.0508,0.0049-0.1021,0.002-0.1528l-0.6953-10.5859c-0.0366-0.5513-0.521-0.978-1.0635-0.9326
			c-0.5513,0.0366-0.9688,0.5127-0.9326,1.0635l0.6904,10.5093l-2.123,24.1836c-0.0488,0.5571,0.1396,1.1133,0.5176,1.5259
			S24.4521,61,25.0117,61c2.7686,0,5.1494-2.0674,5.5376-4.8086L32,45.9473l1.4507,10.2441C33.8389,58.9326,36.2197,61,38.9883,61
			c0.5596,0,1.0967-0.2363,1.4746-0.6489s0.5664-0.9688,0.5176-1.5259l-2.123-24.1836L39.5479,24.1323z"/>
	</g>
</g>
</svg>

