<?xml version="1.0" encoding="utf-8"?>
<svg version="1.2" baseProfile="tiny" xmlns="http://www.w3.org/2000/svg" xmlns:xlink="http://www.w3.org/1999/xlink" x="0px"
	 y="0px" width="32px" height="32px" viewBox="0 0 32 32" xml:space="preserve">
<g id="_x33_2px_boxes">
	<rect fill="none" width="32" height="32"/>
</g>
<g id="Production">
	<path fill="#ffffff" d="M28.8828,11.9844c-0.4805-0.4297-0.7539-0.6641-1.2129-1.0781l2.1045-2.1348
		c0.4873-0.4883,0.4873-1.2793,0-1.7676l-3.4209-3.623c-0.2344-0.2344-0.5527-0.3672-0.8847-0.3672
		c-0.3321,0-0.6495,0.1328-0.8838,0.3672l-2.292,2.3203c-0.5977-0.5801-1.3067-1.2383-1.8565-1.7891
		c-0.6045-0.6055-1.4306-0.8125-2.25-0.7773c-0.1699,0.0019-10.3232,0-10.3467,0c-3.2021,0-5.9472,2.0351-6.4824,4.9433
		c-0.29,1.0176-0.3398,3.2969-0.3398,9.5703c0,8.7246,0.5566,9.5254,0.8183,10.0567c0.4561,0.9277,1.3946,1.5937,2.42,1.7031
		c5.8505,0.6157,15.8701,0.854,21.7168,0.2031c1.8935-0.2109,3.4277-1.4111,3.6269-3.1445
		c0.4834-4.209,0.3399-8.1406,0.2442-12.3125C29.8242,13.3242,29.502,12.5391,28.8828,11.9844z M15.5195,8
		c1.3809,0,2.5,1.1191,2.5,2.5s-1.1191,2.5-2.5,2.5h-6.039c-1.3809,0-2.5-1.1191-2.5-2.5S8.0996,8,9.4805,8H15.5195z"/>
</g>
</svg>