<?xml version="1.0" encoding="utf-8"?>

<svg version="1.2" baseProfile="tiny" xmlns="http://www.w3.org/2000/svg" xmlns:xlink="http://www.w3.org/1999/xlink" x="0px"
	 y="0px" width="64px" height="64px" viewBox="0 0 64 64" xml:space="preserve">

<g id="Production">
	<g>
		<path fill="#ffffff" d="M51.4248,37h-5.2793c-0.8071,1.1663-1.6404,2.282-2.4639,3.3506C43.3351,40.8,42.8921,41.3708,42.4026,42
			h5.6316l4.7793,12h-42.627l4.7793-12h5.6311c-0.4897-0.6296-0.933-1.2007-1.2795-1.6504
			C18.4941,39.2814,17.6613,38.166,16.8545,37h-5.2793L2.8135,59h57.373L51.4248,37z"/>
		<path fill="#ffffff" d="M29.5332,46.9326L31.5,49.4375l1.9668-2.5054c0,0,5.0586-6.4443,7.0469-9.0234
			C44.3018,32.9937,48,27.5957,48,20.4297C48,11.3711,40.5986,4.0005,31.5,4C22.4014,4.0005,15,11.3711,15,20.4297
			c0,7.166,3.6982,12.564,7.4863,17.4785C24.4736,40.4873,29.5332,46.9326,29.5332,46.9326z M31.5,9
			C37.8408,9.0005,43,14.1279,43,20.4297c0,5.0703-2.3643,9.1289-6.4473,14.4263c-1.1719,1.521-3.417,4.3916-5.0527,6.481
			c-1.6367-2.0894-3.8809-4.9595-5.0527-6.481C22.3643,29.5586,20,25.5,20,20.4297C20,14.1279,25.1592,9.0005,31.5,9z"/>
		<circle fill="#ffffff" cx="31.5" cy="20.5" r="4.5"/>
	</g>
</g>
</svg>
