<?xml version="1.0" encoding="utf-8"?>

<svg version="1.2" baseProfile="tiny" xmlns="http://www.w3.org/2000/svg" xmlns:xlink="http://www.w3.org/1999/xlink" x="0px"
	 y="0px" width="128px" height="128px" viewBox="0 0 128 128" xml:space="preserve">
<g id="_x31_28px_boxes">
	<rect fill="none" width="128" height="128"/>
</g>
<g id="Production">
	<g>
		<path fill="#ffffff" d="M91.575,65.993c8.0925-4.2202,8.1293-10.9399,8.1272-11.2238c-0.0118-1.3726-1.1275-2.479-2.5-2.479
			H85.1558V42.485c0.3816-1.5418,1.7458-3.1687,6.4192-5.606c8.0971-4.2226,8.1296-10.9416,8.1272-11.2256
			c-0.0127-1.3718-1.1282-2.4773-2.5-2.4773H85.0903c-1.0642-5.0505-10.1025-8.9953-21.0932-8.9953
			c-10.9927,0-20.0293,3.9448-21.0933,8.9953H30.7979c-1.3719,0-2.4876,1.1055-2.5,2.4773
			c-0.0025,0.284,0.0302,7.003,8.1274,11.2259c4.6489,2.4243,6.0229,4.0468,6.4128,5.5815v9.8294H30.7979
			c-1.3726,0-2.4886,1.1066-2.5,2.479c-0.0022,0.2841,0.0349,7.0036,8.1274,11.2241c4.6489,2.4241,6.0229,4.0466,6.4128,5.5813
			v9.8293H30.7979c-1.3719,0-2.4876,1.1055-2.5,2.4773c-0.0025,0.284,0.0302,7.003,8.1274,11.2259
			c4.6489,2.424,6.0229,4.0466,6.4128,5.5812v9.3809c0,2.0711,1.679,3.75,3.75,3.75h34.8177c2.071,0,3.75-1.6789,3.75-3.75v-9.3567
			c0.3816-1.5415,1.7458-3.1684,6.4192-5.6057c8.0971-4.2226,8.1296-10.9416,8.1272-11.2256
			c-0.0127-1.3718-1.1282-2.4773-2.5-2.4773H85.1558v-9.8051C85.5374,70.0572,86.9016,68.4303,91.575,65.993z M63.9971,104.4166
			c-6.2715,0-11.3555-5.0837-11.3555-11.355c0-6.2717,5.084-11.3554,11.3555-11.3554c6.271,0,11.3554,5.0837,11.3554,11.3554
			C75.3525,99.3329,70.2681,104.4166,63.9971,104.4166z M63.9971,75.3029c-6.2715,0-11.3555-5.0838-11.3555-11.355
			c0-6.2718,5.084-11.3555,11.3555-11.3555c6.271,0,11.3554,5.0837,11.3554,11.3555
			C75.3525,70.2191,70.2681,75.3029,63.9971,75.3029z M63.9971,46.1891c-6.2715,0-11.3555-5.084-11.3555-11.3552
			c0-6.2713,5.084-11.3555,11.3555-11.3555c6.271,0,11.3554,5.0842,11.3554,11.3555
			C75.3525,41.1051,70.2681,46.1891,63.9971,46.1891z"/>
	</g>
</g>
</svg>
