<?xml version="1.0" encoding="utf-8"?>
<!-- Generator: Adobe Illustrator 17.1.0, SVG Export Plug-In . SVG Version: 6.00 Build 0)  -->
<!DOCTYPE svg [
	<!ENTITY ns_flows "http://ns.adobe.com/Flows/1.0/">
	<!ENTITY ns_extend "http://ns.adobe.com/Extensibility/1.0/">
	<!ENTITY ns_ai "http://ns.adobe.com/AdobeIllustrator/10.0/">
	<!ENTITY ns_graphs "http://ns.adobe.com/Graphs/1.0/">
]>
<svg version="1.2" baseProfile="tiny" xmlns:x="&ns_extend;" xmlns:i="&ns_ai;" xmlns:graph="&ns_graphs;"
	 xmlns="http://www.w3.org/2000/svg" xmlns:xlink="http://www.w3.org/1999/xlink" xmlns:a="http://ns.adobe.com/AdobeSVGViewerExtensions/3.0/"
	 x="0px" y="0px" width="128px" height="128px" viewBox="0 0 128 128" xml:space="preserve">
<g id="_x31_28px_boxes">
	<rect fill="none" width="128" height="128"/>
</g>
<g id="Production">
	<g>
		<path fill="#ffffff" d="M109.9993,59.9341h-4.677V26.7444c0-2.2461-1.8208-4.0666-4.0669-4.0666H68.0659V18.001
			c0-1.336-1.0827-2.4187-2.4184-2.4187h-3.295c-1.3357,0-2.4184,1.0827-2.4184,2.4187v4.6768H26.7444
			c-2.2459,0-4.0664,1.8205-4.0664,4.0666v33.1897h-4.677c-1.336,0-2.4187,1.0828-2.4187,2.4187v3.2944
			c0,1.3357,1.0827,2.4185,2.4187,2.4185h4.677v33.1899c0,2.2459,1.8205,4.0667,4.0664,4.0667h33.1897v4.677
			c0,1.3357,1.0827,2.4184,2.4184,2.4184h3.295c1.3357,0,2.4184-1.0827,2.4184-2.4184v-4.677h33.1895
			c2.2461,0,4.0669-1.8208,4.0669-4.0667V68.0657h4.677c1.3357,0,2.4184-1.0828,2.4184-2.4185v-3.2944
			C112.4177,61.0169,111.335,59.9341,109.9993,59.9341z M97.1887,59.9341h-4.55c-1.3357,0-2.4187,1.0828-2.4187,2.4187v3.2944
			c0,1.3357,1.083,2.4185,2.4187,2.4185h4.55v29.123H68.0659v-4.5503c0-1.3356-1.0827-2.4184-2.4184-2.4184h-3.295
			c-1.3357,0-2.4184,1.0828-2.4184,2.4184v4.5503H30.8113v-29.123h4.55c1.3357,0,2.4187-1.0828,2.4187-2.4185v-3.2944
			c0-1.3359-1.083-2.4187-2.4187-2.4187h-4.55v-29.123h29.1228v4.55c0,1.3357,1.0827,2.4187,2.4184,2.4187h3.295
			c1.3357,0,2.4184-1.083,2.4184-2.4187v-4.55h29.1228V59.9341z"/>
		<circle fill="#ffffff" cx="64" cy="64" r="20.3655"/>
	</g>
</g>
</svg>

