<?xml version="1.0" encoding="utf-8"?>
<!-- Generator: Adobe Illustrator 18.1.1, SVG Export Plug-In . SVG Version: 6.00 Build 0)  -->
<svg version="1.2" baseProfile="tiny" xmlns="http://www.w3.org/2000/svg" xmlns:xlink="http://www.w3.org/1999/xlink" x="0px"
	 y="0px" width="128px" height="128px" viewBox="0 0 128 128" xml:space="preserve">
<g id="_x31_28px_boxes">
	<rect fill="none" width="128" height="128"/>
</g>
<g id="Production">
	<g>
		<path fill="#ffffff" d="M93.3732,45.247l-5.7049,5.7048l7.1288,16.4945H33.2035l7.1645-16.5775l-5.7048-5.7048
			c-10.1079,23.3872-9.583,21.8665-9.583,22.9486v43.7254c0,2.0711,1.6789,3.75,3.75,3.75h70.3401c2.071,0,3.75-1.6789,3.75-3.75
			V68.1126C102.9203,67.0215,103.4228,68.4999,93.3732,45.247z M69.4783,98.8594c0.5803,1.4724-0.5067,3.0749-2.094,3.0749
			c-0.0017-0.0001-0.0036-0.0001-0.005,0h-6.758c-1.5207,0-2.6031-1.4799-2.1453-2.9282l2.0802-6.5796
			c-2.3869-1.2446-4.0175-3.7405-4.0175-6.6186c0-4.1209,3.3407-7.4616,7.4615-7.4616c4.121,0,7.4617,3.3407,7.4617,7.4616
			c0,2.8781-1.6305,5.374-4.0174,6.6186L69.4783,98.8594z"/>
		<path fill="#ffffff" d="M50.4584,54.595h-4.7601c-3.9613,0-3.9693,6,0,6h36.2978c3.9636,0,3.9695-6,0-6h-4.3348l15.1356-15.1356
			c1.1705-1.1707,1.1715-3.0712,0-4.2427L70.8707,13.2905c-1.1717-1.1713-3.0711-1.1713-4.2426,0L40.0122,39.9063
			c-1.171,1.1709-1.1714,3.0712,0,4.2426L50.4584,54.595z M68.7494,19.6546L86.4329,37.338l-17.257,17.257H58.9437L46.3762,42.0276
			L68.7494,19.6546z"/>
	</g>
</g>
</svg>
