<?xml version="1.0" encoding="utf-8"?>
<!-- Generator: Adobe Illustrator 18.1.1, SVG Export Plug-In . SVG Version: 6.00 Build 0)  -->
<svg version="1.2" baseProfile="tiny" xmlns="http://www.w3.org/2000/svg" xmlns:xlink="http://www.w3.org/1999/xlink" x="0px"
	 y="0px" width="64px" height="64px" viewBox="0 0 64 64" xml:space="preserve">

<g id="Production">
	<g>
		<path fill="#ffffff" d="M56,9H8c-1.6543,0-3,1.3457-3,3v32c0,1.6543,1.3457,3,3,3h17.8471l-0.7142,5H22v2h2.8472h14.3057H42v-2
			h-3.1329l-0.7142-5H56c1.6543,0,3-1.3457,3-3V12C59,10.3457,57.6543,9,56,9z M8,11h48c0.5513,0,1,0.4487,1,1v27H7V12
			C7,11.4487,7.4487,11,8,11z M36.8472,52h-9.6943l0.7144-5h8.2656L36.8472,52z M56,45H37.8672H26.1328H8c-0.5513,0-1-0.4487-1-1v-3
			h50v3C57,44.5513,56.5513,45,56,45z"/>
		<polygon fill="#ffffff" points="31,34 33,34 33,19 39,19 39,17 25,17 25,19 31,19 		"/>
	</g>
</g>
</svg>
