<?xml version="1.0" encoding="utf-8"?>

<svg version="1.2" baseProfile="tiny" xmlns="http://www.w3.org/2000/svg" xmlns:xlink="http://www.w3.org/1999/xlink" x="0px"
	 y="0px" width="128px" height="128px" viewBox="0 0 128 128" xml:space="preserve">
<g id="_x31_28px_boxes">
	<rect fill="none" width="128" height="128"/>
</g>
<g id="Production">
	<g>
		<rect x="76.7433" y="98.4481" fill="#ffffff" width="20.79" height="8.3377"/>
		<rect x="30.4476" y="98.4481" fill="#ffffff" width="20.7925" height="8.3377"/>
		<path fill="#ffffff" d="M77.7511,53.1534l-3.6433,0.4432c-0.0071,0-0.0071,0.0144-0.019,0.0144
			c-1.532-0.9795-3.5528-1.0821-5.2088-0.062c-2.3137,1.4248-3.0334,4.4509-1.6179,6.7624
			c1.4202,2.3064,4.4487,3.0356,6.7744,1.6155c1.5464-0.958,2.3589-2.6472,2.3064-4.3582v-0.0024l2.1565-3.1882
			c0.1692-0.2574,0.1763-0.5909,0.019-0.8531C78.3612,53.2582,78.0538,53.1129,77.7511,53.1534z"/>
		<path fill="#ffffff" d="M71.4606,38.4276C60.807,38.4347,52.1693,47.0724,52.1693,57.733
			c0,10.6536,8.6377,19.2913,19.2913,19.2913c10.656,0,19.2864-8.6377,19.2912-19.2913
			C90.747,47.0724,82.1166,38.4347,71.4606,38.4276z M83.8512,63.4996l-2.8499-1.6489c-0.3193,0.7339-0.7387,1.4058-1.2058,2.042
			l2.8904,1.668c-0.9172,1.313-2.0564,2.4519-3.374,3.3764l-1.6655-2.8879c-0.6338,0.4717-1.3035,0.8911-2.0374,1.2104
			l1.6443,2.8499c-1.1914,0.5623-2.4712,0.9387-3.8198,1.1343v-5.5164c-1.4135,0.3493-2.5335,0.349-3.9458,0v5.5164
			c-1.3487-0.2002-2.6331-0.5767-3.8269-1.1343l1.6465-2.8547c-0.7339-0.3194-1.3963-0.7386-2.0325-1.2056l-1.6704,2.8879
			c-1.3106-0.9245-2.4566-2.0634-3.374-3.3813l2.8903-1.6702c-0.467-0.6362-0.8864-1.3105-1.2009-2.0444l-2.8569,1.6511
			c-0.5552-1.189-0.9221-2.4709-1.1128-3.8149h5.5161c-0.3293-1.3794-0.3527-2.47,0.0071-3.9363h-5.5232
			c0.2024-1.3462,0.5766-2.626,1.1343-3.8149l2.8544,1.6513c0.3218-0.7339,0.7339-1.4011,1.2059-2.0349l-2.8882-1.668
			c0.9175-1.3105,2.0564-2.4519,3.3669-3.374l1.6704,2.8975c0.6292-0.4695,1.3059-0.8865,2.0325-1.2058l-1.6511-2.857
			c1.1914-0.5576,2.4709-0.927,3.8125-1.1269v5.5305c1.4339-0.3549,2.5066-0.3562,3.9458,0v-5.5305
			c1.344,0.1999,2.6211,0.5693,3.8078,1.1269l-1.6513,2.857c0.7339,0.3169,1.4011,0.7339,2.0373,1.2058l1.6704-2.8928
			c1.3106,0.9174,2.4446,2.0539,3.3621,3.3645l-2.8904,1.6679c0.4719,0.6316,0.8911,1.3035,1.2129,2.0349l2.8499-1.6464
			c0.5647,1.1889,0.9387,2.4687,1.1342,3.8149h-5.5185c0.3479,1.4183,0.3639,2.4715,0.0141,3.9363h5.5115
			C84.7758,61.0284,84.4088,62.3058,83.8512,63.4996z"/>
		<path fill="#ffffff" d="M96.0416,21.2142h-64.081c-4.0103,0.0142-7.2461,3.243-7.2603,7.2603v58.4434
			c0.0142,4.0102,3.25,7.2485,7.2603,7.2604h64.081c4.0078-0.0119,7.2461-3.2502,7.2581-7.2604V28.4745
			C103.2877,24.4572,100.0494,21.2284,96.0416,21.2142z M38.0941,71.277c-6.3169,0-3.467-13.7608-1.6894-19.6773
			c-1.4226-0.6792-2.4187-2.0969-2.4187-3.7744c0-2.3257,1.8872-4.2126,4.2129-4.2126c2.3281,0,4.208,1.8869,4.208,4.2126
			c0,1.6824-1.0032,3.1121-2.4329,3.7864C41.7374,57.5353,44.5228,71.277,38.0941,71.277z M71.4606,80.5223
			c-12.5813,0-22.7844-10.2055-22.7844-22.7939c0-12.5837,10.2031-22.7939,22.7844-22.7939
			c12.5884,0,22.7844,10.2102,22.7844,22.7939C94.245,70.3168,84.049,80.5223,71.4606,80.5223z"/>
	</g>
</g>
</svg>
