<?xml version="1.0" encoding="utf-8"?>

<svg version="1.2" baseProfile="tiny" xmlns="http://www.w3.org/2000/svg" xmlns:xlink="http://www.w3.org/1999/xlink" x="0px"
	 y="0px" width="128px" height="128px" viewBox="0 0 128 128" xml:space="preserve">
<g id="_x31_28px_boxes">
	<rect fill="none" width="128" height="128"/>
</g>
<g id="Production">
	<g>
		<path fill="#ffffff" d="M21.25,57.35v46.55c0,1.574,1.276,2.85,2.85,2.85H45c1.574,0,2.85-1.276,2.85-2.85V57.35
			c0-1.574-1.276-2.85-2.85-2.85H24.1C22.526,54.5,21.25,55.776,21.25,57.35z"/>
		<path fill="#ffffff" d="M57.35,106.75h46.55c1.574,0,2.85-1.276,2.85-2.85V86.8c0-1.574-1.276-2.85-2.85-2.85H57.35
			c-1.574,0-2.85,1.276-2.85,2.85v17.1C54.5,105.474,55.776,106.75,57.35,106.75z"/>
		<path fill="#ffffff" d="M103.9,21.25H24.1c-1.574,0-2.85,1.276-2.85,2.85V45c0,1.574,1.276,2.85,2.85,2.85h79.8
			c1.574,0,2.85-1.276,2.85-2.85V24.1C106.75,22.526,105.474,21.25,103.9,21.25z"/>
		<path fill="#ffffff" d="M57.35,77.3h46.55c1.574,0,2.85-1.276,2.85-2.85v-17.1c0-1.574-1.276-2.85-2.85-2.85H57.35
			c-1.574,0-2.85,1.276-2.85,2.85v17.1C54.5,76.024,55.776,77.3,57.35,77.3z"/>
	</g>
</g>
</svg>
