<?xml version="1.0" encoding="utf-8"?>

<svg version="1.2" baseProfile="tiny" xmlns="http://www.w3.org/2000/svg" xmlns:xlink="http://www.w3.org/1999/xlink" x="0px"
	 y="0px" width="128px" height="128px" viewBox="0 0 128 128" xml:space="preserve">
<g id="_x31_28px_boxes">
	<rect fill="none" width="128" height="128"/>
</g>
<g id="Production">
	<g>
		<path fill="#ffffff" d="M61.2267,62.448l-5.7618,8.862c-4.0881,6.3298-6.4053,13.5403-6.4202,19.7527
			c0,3.1523,0.6407,6.1995,2.2369,8.6143l-4.3884,6.7629c-1.6945,2.6101,0.2185,5.9871,3.2476,5.9871
			c1.2658,0,2.5091-0.618,3.2523-1.7691l4.3758-6.7502c0.6129,0.105,1.2258,0.1731,1.8391,0.1731h0.0425
			c7.9158-0.1731,16.5076-6.7554,22.3523-15.5352l5.7544-8.8618l-14.8987-9.6829l-5.9096,9.0823
			c-6.3999,8.8218-7.646,15.5523-7.646,15.5723c-0.1348,0.7025-1.0645,1.0322-1.6168,0.2949c-0.6288-1-1.0866-3.1059-1.0804-5.2288
			c-0.0049-3.3225,0.978-8.1462,4.7412-14.2961l0.0077-0.03l5.8821-9.0472L61.2267,62.448z"/>
		<path fill="#ffffff" d="M106.6923,21.488c-3.2098-2.0764-6.8231-3.082-10.378-3.082c-3.6003,0-7.1457,1.0454-10.2182,2.987
			c-2.0088,1.2713-3.8001,2.9373-5.2591,4.9666c-0.1799,0.2549-0.3803,0.4829-0.5476,0.7378L62.3601,54.7067
			c-0.8206,1.2535-0.4554,2.9248,0.7955,3.7354l0.4705,0.3103l26.5327,17.2361l0.4634,0.3027
			c0.448,0.2901,0.958,0.4404,1.4763,0.4404c0.1902,0,0.3801-0.0156,0.5676-0.0551c0.7056-0.1504,1.3108-0.5703,1.7063-1.1761
			l17.927-27.6115c2.0816-3.1997,3.0796-6.8179,3.0796-10.3831C115.379,31.2656,112.3065,25.1413,106.6923,21.488z
			 M103.8075,28.7487c-2.7113,0-5.2642,0.3795-7.5938,1.7818c-3.3646,2.0231-5.1881,5.4782-7.4028,8.8615l-11.99,18.3294
			c-0.1721,0.2602-0.4548,0.3979-0.7429,0.3979c-0.1621,0-0.3301-0.0398-0.4756-0.1425l-4.1399-2.6846
			c-0.1977-0.1226-0.3357-0.3228-0.3855-0.5579c-0.0503-0.2253-0.0076-0.468,0.1299-0.6604l11.9915-18.322
			c2.9645-4.5322,6.0602-10.8235,14.5246-10.8235c2.2415,0,4.5261,0.5579,6.6053,1.7063c0.3373,0.1802,0.6274,0.5657,0.6274,1.0183
			C104.9557,28.2737,104.3466,28.7487,103.8075,28.7487z"/>
		<path fill="#ffffff" d="M76.586,24.7082c1.5264-2.3591,3.4278-4.3262,5.5496-5.9294l-3.966-2.6219
			c-1.6855-1.1036-3.8796-0.576-4.8983,1.0254L57.1161,42.0542c-1.0656,1.6313-0.5979,3.8129,1.0279,4.8791
			c0.5932,0.385,1.2564,0.5627,1.9168,0.5627c0.8233,0,1.624-0.2951,2.2643-0.8332L76.586,24.7082z"/>
		<path fill="#ffffff" d="M12.621,109.2895c0,1.7263,1.3962,3.1248,3.1201,3.1248l19.9705-0.0074c1.7238,0,3.115-1.3984,3.115-3.125
			c0-1.7187-1.3987-3.1098-3.115-3.1098H15.7308C14.0172,106.1721,12.621,107.5632,12.621,109.2895z"/>
	</g>
</g>
</svg>
