<?xml version="1.0" encoding="utf-8"?>
<!-- Generator: Adobe Illustrator 18.1.1, SVG Export Plug-In . SVG Version: 6.00 Build 0)  -->
<svg version="1.2" baseProfile="tiny" xmlns="http://www.w3.org/2000/svg" xmlns:xlink="http://www.w3.org/1999/xlink" x="0px"
	 y="0px" width="128px" height="128px" viewBox="0 0 128 128" xml:space="preserve">
<g id="box">
	<rect fill="none" width="128" height="128"/>
</g>
<g id="Production">
	<g>
		<path fill="#ffffff" d="M60.3024,80.7052c-6.191,15.6258-16.3594,21.9251-34.1162,21.9251v16.5
			c20.2761,0,30.5869-7.3386,35.0442-11.1494c2.5198,0.5691,7.1257,2.0698,10.0869,5.7812
			c0.4807,0.6026,3.0068,1.2282,3.3206-0.8954c0.8862-6.0006-3.9637-11.4563-5.8094-13.2878
			c2.8465-4.0344,5.2747-8.7271,7.3084-14.1201C72.6801,85.0302,66.1134,83.7986,60.3024,80.7052z"/>
		<path fill="#ffffff" d="M49.2028,88.623c2.8497-5.1968,1.0729-12.1006-5.5454-18.4231
			c-8.0645-7.7065-24.5728-11.19-27.1069-11.6394c-1.3398-0.2395-2.516,0.891-2.2068,2.2832
			c0.1643,0.7392,4.1233,18.2024,12.7746,26.4687C35.5277,95.3473,44.9003,95.6439,49.2028,88.623z"/>
		<path fill="#ffffff" d="M77.0841,61.4172C52.174,56.331,54.1332,28.4253,54.1332,28.4253
			c-8.1277,18.4792-11.6037,47.766,22.0813,52.5097c16.0657,2.2613,35.1375-11.6466,37.4917-43.6317
			C110.3456,52.6289,94.9079,65.0565,77.0841,61.4172z"/>
		<path fill="#ffffff" d="M69.2336,51.5189c10.0422,7.9556,25.9511,4.129,26.3437-4.2623c0.3753-8.018-8.0107-11.7696-15.6243-7.687
			c0,0,4.7447,4.4137,1.6551,6.6206c-5.0398,3.5999-16.0384-6.2527-10.6792-19.8421c3.6518-9.2598,13.3027-10.6944,13.3027-10.6944
			c-1.9561-5.9993-12.8945-10.5279-20.6899-2.3382C56.4953,20.7179,55.9375,40.9858,69.2336,51.5189z"/>
		<path fill="#ffffff" d="M76.537,35.0861c16.3889-9.0096,27.4722,1.5737,25.9256,12.8696
			c11.9633-11.1292,9.2219-23.1308,5.3833-26.8461C98.0666,11.6452,72.6481,20.1791,76.537,35.0861z"/>
	</g>
</g>
</svg>

