<?xml version="1.0" encoding="utf-8"?>

<svg version="1.2" baseProfile="tiny" xmlns="http://www.w3.org/2000/svg" xmlns:xlink="http://www.w3.org/1999/xlink" x="0px"
	 y="0px" width="128px" height="128px" viewBox="0 0 128 128" xml:space="preserve">
<g id="_x31_28px_boxes">
	<rect fill="none" width="128" height="128"/>
</g>
<g id="Production">
	<g>
		<path fill="#ffffff" d="M119.5793,51.9986L60.9403,26.3788c-1.4521-0.6345-3.1477-0.247-4.1797,0.9545L19.4191,70.7972
			c-0.164,0.1911-0.7812,1.0878-0.9133,1.3605L6.5846,96.7824c-1.1111,2.375,0.6702,5.9688,4.4561,4.9693l77.2002-27.4832
			c1.4226-0.5068,2.3791-1.8469,2.3962-3.3572l0.0766-6.842l28.0806-5.2205c1.5574-0.2894,2.7436-1.5613,2.9243-3.1351
			C121.8983,54.1398,121.0307,52.6326,119.5793,51.9986z M83.4528,68.3163L16.911,92.0051l7.3933-15.2712l2.8733-0.8521
			l56.3081-10.4684L83.4528,68.3163z M77.6876,41.5668L38.0954,60.1269L60.495,34.0551L77.6876,41.5668z M43.6706,65.4789
			l42.8125-20.0691l19.4438,8.4949L43.6706,65.4789z"/>
	</g>
</g>
</svg>
