<?xml version="1.0" encoding="utf-8"?>
<!-- Generator: Adobe Illustrator 18.1.0, SVG Export Plug-In . SVG Version: 6.00 Build 0)  -->
<svg version="1.2" baseProfile="tiny" xmlns="http://www.w3.org/2000/svg" xmlns:xlink="http://www.w3.org/1999/xlink" x="0px"
	 y="0px" width="64px" height="64px" viewBox="0 0 64 64" xml:space="preserve">
<g id="_x36_4px_boxes">
	<rect fill="none" width="64" height="64"/>
</g>
<g id="Production">
	<g>
		<path fill="#ffffff" d="M40.2827,36l11.6668-17.5C49.4565,14.7606,42.7742,5,40.2827,1C14.4266,1,27.8495,1,22.6064,1
			L10.9396,18.5L22.6064,36H29v5.1632c0,2.7871,1.6871,5.2431,4.2409,6.1103c2.2623,0.7676,4.2187,3.1904,3.6073,6.3378
			c-0.7856,4.0454-5.6209,5.7416-8.8024,3.1191c-1.8259-1.506-2.4622-3.9653-1.6803-6.123l-4.703-1.7031
			c-2.473,6.8287,2.4836,14.077,9.7976,14.077c11.9365,0,14.4878-16.677,3.3892-20.4422C34.3331,42.3644,34,41.798,34,41.1632V36
			H40.2827z M22.4295,26.721L33.5451,10h-6.004l-8.118,12.2036l-2.4746-3.7078C20.0495,13.8447,22.0446,11,25.2823,6
			c6.5416,0,4.6121,0,12.3246,0c6.2366,9,3.3454,5.0179,8.3337,12.5c-3.7164,5.5743-4.6321,6.5-8.3337,12.5h-6.2984l9.0658-13.6461
			l-3.0064-4.5053L25.3045,31h-0.0222L22.4295,26.721z"/>
	</g>
</g>
</svg>

