<?xml version="1.0" encoding="utf-8"?>
<!-- Generator: Adobe Illustrator 18.1.1, SVG Export Plug-In . SVG Version: 6.00 Build 0)  -->
<svg version="1.2" baseProfile="tiny" xmlns="http://www.w3.org/2000/svg" xmlns:xlink="http://www.w3.org/1999/xlink" x="0px"
	 y="0px" width="128px" height="128px" viewBox="0 0 128 128" xml:space="preserve">
<g id="box">
	<rect fill="none" width="128" height="128"/>
</g>
<g id="Production">
	<g>
		<path fill="#ffffff" d="M78.6924,85.451c-5.8128-2.4852-23.7549-2.4083-29.3875,0c-3.3369,1.5332-4.9697,3.4562-5.0774,8.0123
			c0.003,3.5852,1.3064,6.9509,3.513,9.7551c3.5351,4.4829,9.4131,7.5066,16.2583,7.5122
			c6.8923-0.0056,12.823-3.0711,16.3471-7.6206c2.1592-2.7764,3.4156-6.1087,3.4268-9.6467
			C83.6521,88.7662,81.8757,86.9137,78.6924,85.451z"/>
		<path fill="#ffffff" d="M110.5305,53.6249c-0.0163-16.5588-6.9416-32.593-19.0234-32.7953
			c-6.5366,0.1166-11.1612,4.8103-14.1406,10.4881c-0.5669-0.1752-1.1893-0.289-1.7815-0.4337
			c0.508-8.4185-5.0423-13.6436-11.5835-13.6145c-6.5979-0.0293-12.1565,5.3031-11.595,13.6145
			c-0.6028,0.1472-1.228,0.2669-1.8064,0.4447C47.635,25.6484,43.0103,20.9434,36.479,20.835
			c-13.0105,0.2346-18.9753,18.0238-19.0095,32.7873c0.0198,8.5406,1.7988,18.1547,6.6758,25.2592
			c-0.834,1.4919-1.3008,3.3318-1.2312,5.3801c0.0451,8.985,7.3239,27.2192,20.6853,21.5942
			c-2.6485-3.5322-4.2215-7.8208-4.2603-12.5202c0.1328-6.4475,2.9976-10.0831,8.0401-12.3811
			c4.6411-1.9202,10.0688-2.1675,16.1081-2.2068c0.1585-0.0081,0.3389-0.0081,0.2695,0c4.219-0.1898,11.9239,0.1662,16.8533,2.2068
			l0.1304,0.0471c4.9184,2.284,7.7514,5.7631,7.9177,12.4673c-0.0471,4.6108-1.6033,8.8296-4.2048,12.32
			c13.5278,5.864,20.8044-12.6254,20.8496-21.5273c0.0696-2.1289-0.4307-4.0244-1.3286-5.5498
			C108.7498,71.6687,110.5222,62.1038,110.5305,53.6249z M64.0015,24.1923c2.6513,0.1582,4.5022,1.4476,4.7275,5.594
			c-2.9587-0.2258-6.3335-0.2355-9.4661,0.0029C59.4854,25.6399,61.3335,24.3505,64.0015,24.1923z M95.7703,74.4567
			c-0.6504-0.0584-1.3118-0.0835-1.9759-0.1001c0.9246-8.5685-0.2097-17.2253-2.5124-24.4139
			c-0.9375,9.6562-12.7964,13.303-22.5254,14.0733v0.564c0,2.5456-2.0649,4.6103-4.6108,4.6103c-2.2881,0-4.605-1.623-4.605-5.1604
			c-9.7969-0.724-21.8926-4.3302-22.8282-14.0897c-2.301,7.2073-3.448,15.8252-2.5097,24.4276
			c-0.6612,0.0193-1.3201,0.0471-1.9646,0.1113c-4.1116-5.1933-5.6326-14.1065-5.617-20.8568
			c-0.0337-14.5228,6.0796-23.9775,9.8577-23.6387c1.323-0.1196,3.877,1.3562,6.1311,5.7695
			c0.0137,0.0303,0.0278,0.0749,0.0415,0.1054c-2.1123,2.2492-3.0986,5.1067-3.0986,7.8313c0,0.0224,0,0.0418,0,0.0641
			c0.1445,9.3014,9.0686,14.3453,19.9878,15.4152v-0.6834c0-2.543,2.0649-4.6079,4.605-4.6079c2.5459,0,4.6108,2.0649,4.6108,4.6079
			v0.6585c10.7834-1.1309,19.5488-6.1748,19.688-15.3903c0-0.0223,0-0.0417,0-0.0641c0-2.7351-0.9966-5.6025-3.1184-7.848
			c0.0139-0.0277,0.0222-0.0609,0.0361-0.0862c2.2622-4.4101,4.8106-5.886,6.1448-5.7665
			c3.7312-0.3329,9.8916,8.9517,9.8745,23.6358C101.3894,60.3583,99.8718,69.2653,95.7703,74.4567z"/>
	</g>
</g>
</svg>
