<?xml version="1.0" encoding="utf-8"?>
<!-- Generator: Adobe Illustrator 19.1.0, SVG Export Plug-In . SVG Version: 6.00 Build 0)  -->
<svg version="1.2" baseProfile="tiny" xmlns="http://www.w3.org/2000/svg" xmlns:xlink="http://www.w3.org/1999/xlink" x="0px"
	 y="0px" width="64px" height="64px" viewBox="0 0 64 64" xml:space="preserve">
<g id="box">
	<rect fill="none" width="64" height="64"/>
</g>
<g id="Production">
	<g>
		<path fill="#ffffff" d="M49,41v10.5c0,5.2383-4.2617,9.5-9.5,9.5S30,56.7383,30,51.5V51h5v-7h3c3.3086,0,6-2.6914,6-6V13
			c0-3.3086-2.6914-6-6-6h-3.0903C34.4314,4.1669,31.9673,2,29,2s-5.4314,2.1669-5.9097,5H20c-3.3086,0-6,2.6914-6,6v25
			c0,3.3086,2.6914,6,6,6h3v7h5v0.5C28,57.8413,33.1587,63,39.5,63S51,57.8413,51,51.5V41c0-4.4111,3.5889-8,8-8v-2
			C53.4858,31,49,35.4858,49,41z M29,4c1.8583,0,3.4106,1.2797,3.8579,3h-7.7158C25.5894,5.2797,27.1417,4,29,4z M16,38V13
			c0-2.2056,1.7944-4,4-4h18c2.2056,0,4,1.7944,4,4v9h-4v2h4v14c0,2.2056-1.7944,4-4,4H20C17.7944,42,16,40.2056,16,38z M25,44h8v5
			h-8V44z"/>
		<rect x="29" y="37" fill="#ffffff" width="6" height="2"/>
		<rect x="29" y="32" fill="#ffffff" width="6" height="2"/>
		<rect x="29" y="27" fill="#ffffff" width="6" height="2"/>
		<rect x="29" y="22" fill="#ffffff" width="6" height="2"/>
		<rect x="18" y="22" fill="#ffffff" width="8" height="2"/>
		<rect x="29" y="17" fill="#ffffff" width="6" height="2"/>
		<rect x="29" y="12" fill="#ffffff" width="6" height="2"/>
	</g>
</g>
</svg>

