<?xml version="1.0" encoding="utf-8"?>
<!-- Generator: Adobe Illustrator 18.1.1, SVG Export Plug-In . SVG Version: 6.00 Build 0)  -->
<svg version="1.2" baseProfile="tiny" xmlns="http://www.w3.org/2000/svg" xmlns:xlink="http://www.w3.org/1999/xlink" x="0px"
	 y="0px" width="128px" height="128px" viewBox="0 0 128 128" xml:space="preserve">
<g id="_x31_28px_boxes">
	<rect fill="none" width="128" height="128"/>
</g>
<g id="Production">
	<g>
		<path fill="#ffffff" d="M86.2136,43.7019c0,0,10.7122-13.5159,3.5071-24.8747C83.354,8.7855,72.7893,9.0305,63.728,9.0305
			c-9.0603,0-19.6264-0.245-25.9939,9.7967c-7.2028,11.3588,3.5066,24.8747,3.5066,24.8747
			c-19.5989-8.5583-26.4902,5.7241-20.7026,9.4868c5.519,3.5878,9.6833-2.6828,16.4243-2.071
			c6.2778,0.5694,11.1628,8.1203,26.7656,8.1203c15.6038,0,20.4851-7.5509,26.7669-8.1203
			c6.7407-0.6118,10.9004,5.6588,16.4253,2.071C112.7048,49.426,105.813,35.1436,86.2136,43.7019z"/>
		<path fill="#ffffff" d="M63.728,63.3013c-17.7246,0-36.3659-8.9627-36.3659,3.3186c0,9.4656,25.1076,13.0478,36.3659,13.0478
			c11.2603,0,36.3643-3.5822,36.3643-13.0478C100.0923,54.3386,81.4526,63.3013,63.728,63.3013z"/>
		<path fill="#ffffff" d="M71,92.5034v-9.4933c-4,0.3777-6.8911,0.4313-6.998,0.4313c-0.107,0-3.002-0.0536-7.002-0.4313v9.4933
			c-15,2.9853-27.3993,12.0201-27.3993,19.2631c0,4.2418,3.3204,7.6765,7.5601,7.6765c4.2398,0,7.6176-3.4347,7.6176-7.6765
			c0-2.132-0.9014-4.0575-2.3033-5.4506c3.1661-2.248,7.9219-4.7412,14.8069-6.2817l1.8252,5.6443
			c-1.8408,1.402-3.0515,3.5948-3.0515,6.088c0,4.2418,3.433,7.6765,7.6742,7.6765c4.2385,0,7.6714-3.4347,7.6714-7.6765
			c0-2.4912-1.2055-4.6823-3.0424-6.0844l1.8298-5.6495c6.8804,1.5385,11.6452,4.0316,14.819,6.2871
			c-1.4048,1.3893-2.2747,3.3167-2.2747,5.4468c0,4.2418,3.4374,7.6765,7.6772,7.6765c4.2397,0,7.7127-3.4347,7.7127-7.6765
			C98.1229,104.7005,85,95.5572,71,92.5034z"/>
	</g>
</g>
</svg>
