<?xml version="1.0" encoding="utf-8"?>
<!-- Generator: Adobe Illustrator 18.1.1, SVG Export Plug-In . SVG Version: 6.00 Build 0)  -->
<svg version="1.2" baseProfile="tiny" xmlns="http://www.w3.org/2000/svg" xmlns:xlink="http://www.w3.org/1999/xlink" x="0px"
	 y="0px" width="128px" height="128px" viewBox="0 0 128 128" xml:space="preserve">
<g id="_x31_28px_boxes">
	<rect fill="none" width="128" height="128"/>
</g>
<g id="Production">
	<g>
		<path fill="#ffffff" d="M76.6711,86.3084l2.8681,2.8677c2.0018,2.003,5.0362-1.0266,3.0308-3.0313l-5.8989-5.8982v-2.5439h2.5434
			l5.899,5.8989c1.9995,1.9995,5.0325-1.0301,3.0312-3.0312l-2.8677-2.8677h4.6424c2.8317,0,2.836-4.2866,0-4.2866h-4.6421
			l2.8674-2.867c2.0023-2.0023-1.0253-5.0361-3.0312-3.0312l-5.899,5.8982h-2.5434v-2.5718l5.884-5.8838
			c2.003-2.003-1.0266-5.0358-3.0313-3.0313l-2.8527,2.8526v-4.6136c0-2.8317-4.2867-2.8361-4.2867,0v4.6421l-2.8669-2.8667
			c-2.0031-2.0019-5.0369,1.0257-3.0313,3.0313l5.8982,5.8977v2.5435h-2.5427l-5.8987-5.8982
			c-2.0031-2.0019-5.0368,1.0256-3.0312,3.0312l2.8672,2.867h-4.6423c-2.8321,0-2.8356,4.2866,0,4.2866h4.6137l-2.853,2.8533
			c-2.003,2.0028,1.0343,5.0281,3.0312,3.0312l5.8843-5.8845h2.5715v2.5439l-5.8982,5.8982
			c-2.0059,2.0066,1.0295,5.033,3.0313,3.0313l2.8669-2.867v4.6419c0,2.8317,4.2867,2.8359,4.2867,0V86.3084z"/>
		<path fill="#ffffff" d="M124.7968,101.303L78.863,21.7415c-1.5013-2.6013-6.1851-3.8618-8.4151-0.0005L58.4028,42.6036
			l-8.2496-20.3052c-0.197-0.4849-0.6679-0.802-1.1914-0.802H38.165l0.7163,7.4878h-5.7495l0.7861-7.4878H22.4718
			c-0.5246,0-0.9965,0.3186-1.1926,0.8052L2.5641,68.7195c-0.4487,1.1126,0.6153,1.7671,1.1927,1.7671h25.017l1.5184-14.4604
			h11.1755l1.3057,13.6486l-18.3616,31.803c-2.1465,3.7217,1.1196,7.2271,4.2078,7.2271h92.0713h0.0044
			C124.7189,108.7049,126.7409,104.3531,124.7968,101.303z M37.0341,99.0569l37.6216-65.1626l37.6204,65.1626H37.0341z
			 M31.3098,46.3348l1.1657-11.1006h7.0035l1.062,11.1006H31.3098z"/>
	</g>
</g>
</svg>
