<?xml version="1.0" encoding="utf-8"?>
<!-- Generator: Adobe Illustrator 18.1.1, SVG Export Plug-In . SVG Version: 6.00 Build 0)  -->
<svg version="1.2" baseProfile="tiny" xmlns="http://www.w3.org/2000/svg" xmlns:xlink="http://www.w3.org/1999/xlink" x="0px"
	 y="0px" width="128px" height="128px" viewBox="0 0 128 128" xml:space="preserve">
<g id="_x31_28px_boxes">
	<rect fill="none" width="128" height="128"/>
</g>
<g id="Production">
	<g>
		<path fill="#ffffff" d="M97.0493,45.7838H49.543c-3.3055,0-5.9851,2.6796-5.9851,5.985v40.3083
			c0,3.3055,2.6796,5.985,5.9851,5.985h47.5063c3.3054,0,5.9851-2.6795,5.9851-5.985V51.7688
			C103.0344,48.4634,100.3547,45.7838,97.0493,45.7838z M98.3093,72.1003c-5.1584,1.8777-38.8501,14.1404-44.0532,16.0341
			c-1.1611,0.423-2.4517-0.1745-2.8765-1.3414c-1.601-4.3985-1.4287-3.9253-1.3999-3.846c-0.0351-0.097-0.4272-1.1734-2.9106-7.9966
			c-0.4238-1.1646,0.1767-2.4526,1.3415-2.8765c4.409-1.6048-4.9841,1.814,44.053-16.0343
			c1.1651-0.4244,2.4527,0.1765,2.8765,1.3414c3.6633,10.0645,0.6494,1.784,4.3105,11.8428
			C100.0745,70.3881,99.4739,71.6764,98.3093,72.1003z"/>
		<path fill="#ffffff" d="M49.9797,82.947C49.9844,82.9595,49.9834,82.9569,49.9797,82.947L49.9797,82.947z"/>
		<path fill="#ffffff" d="M105.0793,30.6259H39.2466v-4.3135c0-1.2395-1.0049-2.2444-2.2444-2.2444h-6.7527
			c-1.2395,0-2.2444,1.0049-2.2444,2.2444v4.3135h-5.0844c-1.2395,0-2.2444,1.0048-2.2444,2.2443v6.753
			c0,1.2395,1.0049,2.2444,2.2444,2.2444h5.0844v59.82c0,1.2395,1.0049,2.2444,2.2444,2.2444h6.7527
			c1.2395,0,2.2444-1.0049,2.2444-2.2444v-59.82h65.8327c1.2395,0,2.2444-1.0049,2.2444-2.2444v-6.753
			C107.3237,31.6307,106.3188,30.6259,105.0793,30.6259z"/>
		<path fill="#ffffff" d="M58.4216,76.282c-1.4992-0.0167-2.1313-0.015-2.3232-0.5424c-0.1694-0.4656,0.1831-0.9453,1.0364-1.2558
			c1.0393-0.3785,1.9226-0.366,2.4458-0.3282c-0.1541-1.6551-0.0994-1.0698-0.2293-2.4638c-2.22-0.1304-5.4743,1.0403-6.1142,3.4022
			c-0.4847,1.7879,0.4323,3.9927,4.1796,3.9781c1.326-0.0258,1.8931,0.0841,2.0794,0.5961c0.48,1.3178-2.4824,1.905-4.0689,1.7094
			c0.2518,2.0064,0.0874,0.6981,0.314,2.5036c1.7395,0.2373,5.8982-0.7663,6.6377-3.48c0.1768-0.6485,0.137-1.3184-0.0959-1.958
			C61.7522,76.9847,60.553,76.2968,58.4216,76.282z"/>
		<path fill="#ffffff" d="M66.1589,68.5991c-3.1914,1.1616-4.3235,4.2929-3.2094,7.3527c1.0766,2.958,3.7778,4.6689,6.9692,3.5073
			l0.0156-0.0057c3.2422-1.18,4.4346-4.0826,3.2237-7.4106C72.0937,69.1199,69.4087,67.4163,66.1589,68.5991z M69.2507,77.1895
			l-0.031,0.0113c-1.3498,0.4912-2.6618-0.5068-3.3296-2.3899c-0.6606-1.8152-0.3352-3.4797,1.0144-3.9709
			c1.3653-0.497,2.669,0.5747,3.324,2.3745C70.9172,75.1073,70.6006,76.6981,69.2507,77.1895z"/>
		<path fill="#ffffff" d="M79.0034,73.3063c-3.0383-8.3474-2.3235-6.3831-2.9534-8.114l-2.8078,1.0221
			c1.3591,3.7337,2.3252,6.3885,3.8059,10.4565l6.8262-2.4846c-0.626-1.7197-0.4429-1.2166-0.8526-2.3426L79.0034,73.3063z"/>
		<path fill="#ffffff" d="M81.71,63.3079c0.6931,1.904,2.9782,8.182,3.7268,10.2392c2.1015-0.3801,6.2444-1.7332,7.5112-4.2723
			C94.5134,66.1434,92.5077,57.1288,81.71,63.3079z M87.5107,70.5082l-2.2756-6.2522
			C90.0911,61.1624,92.6886,69.8295,87.5107,70.5082z"/>
	</g>
</g>
</svg>
