<?xml version="1.0" encoding="utf-8"?>
<!-- Generator: Adobe Illustrator 18.1.1, SVG Export Plug-In . SVG Version: 6.00 Build 0)  -->
<svg version="1.2" baseProfile="tiny" xmlns="http://www.w3.org/2000/svg" xmlns:xlink="http://www.w3.org/1999/xlink" x="0px"
	 y="0px" width="128px" height="128px" viewBox="0 0 128 128" xml:space="preserve">
<g id="_x31_28px_boxes">
	<rect fill="none" width="128" height="128"/>
</g>
<g id="Production">
	<g>
		<path fill="#ffffff" d="M121.7993,58.8286h-11.468l-3.5435-10.9062c-0.6134-1.888-3.2953-1.8871-3.9087,0l-3.5439,10.9062H87.8674
			c-1.9852,0-2.813,2.5512-1.2078,3.7173l9.2776,6.741l-3.5439,10.9067c-0.6131,1.8862,1.5584,3.4629,3.1621,2.2974l9.2781-6.7408
			l9.2778,6.7408c1.6053,1.1667,3.7755-0.4103,3.1621-2.2974l-3.5442-10.9067l9.2779-6.741
			C124.6131,61.3792,123.7833,58.8286,121.7993,58.8286z"/>
		<path fill="#ffffff" d="M35.6067,58.8396l-3.5442-10.9067l9.2778-6.741c1.6061-1.1668,0.7763-3.7173-1.2078-3.7173h-11.468
			l-3.5434-10.9062c-0.6136-1.8878-3.2955-1.8872-3.9087,0l-3.544,10.9062H6.2007c-1.9853,0-2.813,2.5511-1.2078,3.7173
			l9.2776,6.741l-3.544,10.9067c-0.6152,1.8936,1.5665,3.457,3.1621,2.2974l9.2781-6.7408l9.2779,6.7408
			C34.0499,62.3037,36.2198,60.7268,35.6067,58.8396z"/>
		<path fill="#ffffff" d="M94.4111,93.7097c-10.972-3.7158-24.2038-11.1308-25.6753-22.2893
			c-0.0229-0.1736,1.6983-1.6638,1.906-1.9238c3.0005-3.7588,3.5559-9.1053,1.4075-13.4082L95.605,21.1101
			c4.4277-6.5753-5.5183-13.2877-9.9534-6.7031L62.2048,49.2236c-7.6344-1.2475-15.4324,6.2345-13.6724,14.9458
			c0,0-19.6394,13.9186-18.2053,39.5371c0.2158,3.8565,0.3721,11.4075,6.4097,10.0127c6.2605-1.446,2.6706-9.7987,2.3745-12.3381
			c-1.5291-13.1034,4.9573-24.8165,14.8037-33.8726l0.1699-0.155c2.6099-2.3815-2.2456-5.7007,2.0005-10.1719
			c2.69-2.8325,7.438-2.6299,9.8662,0.4395c2.429,3.0703,1.5599,7.729-1.8122,9.709c-4.1178,2.419-1.5309,18.7504,17.0227,30.2063
			c1.8167,1.1217,9.3685,5.583,11.9463,5.4895C98.2266,102.8398,99.4856,95.4284,94.4111,93.7097z"/>
		<path fill="#ffffff" d="M50.6362,86.0669c-0.1636-1.2861-2.1172-1.3027-2.2983-0.0112
			c-1.3614,9.7044,1.3178,26.1297,4.2275,28.9006c1.5757,1.5007,3.967,1.7927,5.8145,0.6028
			C65.3629,111.0612,53.0715,105.2277,50.6362,86.0669z"/>
		<path fill="#ffffff" d="M80.467,106.4092c-10.8274-6.5191-15.8267-12.2567-20.2781-20.3377
			c-0.698-1.2673-2.7356-0.4665-2.32,0.9629c4.5066,15.5025,16.2996,27.5939,19.6882,28.0064
			C82.3402,115.6235,84.8229,109.0316,80.467,106.4092z"/>
	</g>
</g>
</svg>
