<?xml version="1.0" encoding="utf-8"?>
<!-- Generator: Adobe Illustrator 18.1.1, SVG Export Plug-In . SVG Version: 6.00 Build 0)  -->
<svg version="1.2" baseProfile="tiny" xmlns="http://www.w3.org/2000/svg" xmlns:xlink="http://www.w3.org/1999/xlink" x="0px"
	 y="0px" width="128px" height="128px" viewBox="0 0 128 128" xml:space="preserve">
<g id="_x31_28px_boxes">
	<rect fill="none" width="128" height="128"/>
</g>
<g id="Production">
	<g>
		<path fill="#ffffff" d="M78.3758,73.9781H67.3599c-2.0105,0-3.6404,1.6297-3.6404,3.6402v3.6155
			c0,2.0105,1.6299,3.6404,3.6404,3.6404c0,0,10.998,0,11.0159,0c1.9648,0,3.6404-1.6565,3.6404-3.6404c0,0,0-3.6118,0-3.6155
			C82.0162,75.7572,80.4305,73.9781,78.3758,73.9781z"/>
		<path fill="#ffffff" d="M79.179,65.7952c-1.72,0-3.4404,0-5.1604,0c6.2246-3.9037,9.1128-13.726,6.0981-22.3678
			c-2.0119-5.7679-6.3955-9.769-11.4831-9.769H12.6599C5.6685,33.6584,0,41.2108,0,50.528c0,6.7497,2.9766,12.5708,7.2747,15.2672
			H5.8072c-1.5667,0-2.8367,1.2701-2.8367,2.837c0,4.5211,0,9.0418,0,13.5628c0,1.5669,1.27,2.8366,2.8367,2.8366
			c1.5666,0,2.8366-1.2697,2.8366-2.8366V71.4688h70.5354c1.5616,0,2.837-1.2744,2.837-2.8368
			C82.0162,67.0697,80.7412,65.7952,79.179,65.7952z"/>
		<path fill="#ffffff" d="M127.9495,81.6574l-2.3276-12.3451c-0.1846-0.9789-0.8584-1.7945-1.7847-2.1604l-12.0552-4.7638
			l-5.2168-13.2936c-0.436-1.1107-1.5075-1.8414-2.7009-1.8414H89.1778c-1.6023,0-2.9012,1.2991-2.9012,2.9013V82.195
			c0,1.6023,1.2989,2.9013,2.9012,2.9013h7.553c-0.001-0.0741-0.0054-0.1474-0.0054-0.2215c0-1.4975,0.2554-2.9701,0.7588-4.3775
			c1.8498-5.168,6.7758-8.6402,12.2583-8.6402c7.2031,0,13.0175,5.8596,13.0175,13.0177c0,0.0724-0.0043,0.1478-0.0053,0.2215
			c1.5918,0,3.4284,0.3363,4.5776-1.0498C127.8836,83.382,128.1099,82.5063,127.9495,81.6574z M92.0789,63.1713V53.0554h9.8076
			l3.9697,10.1159H92.0789z"/>
		<path fill="#ffffff" d="M109.7425,75.4071c-5.2473,0-9.4671,4.2806-9.4671,9.4677c0,5.2198,4.2466,9.4668,9.4671,9.4668
			c5.2291,0,9.4673-4.2591,9.4673-9.4668C119.2098,79.6559,114.9635,75.4071,109.7425,75.4071z M109.7425,88.5211
			c-2.0462,0-3.6468-1.6791-3.6468-3.6463c0-2.0111,1.6353-3.6476,3.6468-3.6476c2.0112,0,3.6465,1.6365,3.6465,3.6476
			C113.389,86.8456,111.7862,88.5211,109.7425,88.5211z"/>
		<path fill="#ffffff" d="M44.8816,75.4071c-5.2473,0-9.4673,4.2797-9.4673,9.4677c0,5.2198,4.2466,9.4668,9.4673,9.4668
			c5.2293,0,9.4671-4.259,9.4671-9.4668C54.3487,79.6572,50.1031,75.4071,44.8816,75.4071z M44.8816,88.5211
			c-2.0459,0-3.6469-1.6771-3.6469-3.6463c0-2.0111,1.6355-3.6476,3.6469-3.6476c2.0108,0,3.6465,1.6365,3.6465,3.6476
			C48.5281,86.8443,46.9261,88.5211,44.8816,88.5211z"/>
		<path fill="#ffffff" d="M22.1297,75.4071c-5.2466,0-9.4671,4.2787-9.4671,9.4677c0,5.2198,4.2466,9.4668,9.4671,9.4668
			c5.0947,0,9.2243-4.043,9.4551-8.9953C31.8553,79.9366,27.5227,75.4071,22.1297,75.4071z M22.1297,88.5211
			c-2.0432,0-3.6468-1.6751-3.6468-3.6463c0-2.0111,1.6353-3.6476,3.6468-3.6476c2.0112,0,3.6465,1.6365,3.6465,3.6476
			C25.7762,86.8748,24.146,88.5211,22.1297,88.5211z"/>
	</g>
</g>
</svg>
