<?xml version="1.0" encoding="utf-8"?>

<svg version="1.2" baseProfile="tiny" xmlns="http://www.w3.org/2000/svg" xmlns:xlink="http://www.w3.org/1999/xlink" x="0px"
	 y="0px" width="64px" height="64px" viewBox="0 0 64 64" xml:space="preserve">

<g id="Production">
	<polygon fill="#ffffff" points="47.5933,22.2798 46.1792,23.6938 53.4854,31 33,31 33,10.5146 40.3062,17.8208 41.7202,16.4067 
		32,6.6865 22.2798,16.4067 23.6938,17.8208 31,10.5146 31,31 10.5146,31 17.8208,23.6938 16.4067,22.2798 6.6865,32 
		16.4067,41.7202 17.8208,40.3062 10.5146,33 31,33 31,53.4854 23.6938,46.1792 22.2798,47.5933 32,57.3135 41.7202,47.5933 
		40.3062,46.1792 33,53.4854 33,33 53.4854,33 46.1792,40.3062 47.5933,41.7202 57.3135,32 	"/>
</g>
</svg>
