<?xml version="1.0" encoding="utf-8"?>
<!-- Generator: Adobe Illustrator 18.1.1, SVG Export Plug-In . SVG Version: 6.00 Build 0)  -->
<svg version="1.2" baseProfile="tiny" xmlns="http://www.w3.org/2000/svg" xmlns:xlink="http://www.w3.org/1999/xlink" x="0px"
	 y="0px" width="128px" height="128px" viewBox="0 0 128 128" xml:space="preserve">
<g id="_x31_28px_boxes">
	<rect fill="none" width="128" height="128"/>
</g>
<g id="Production">
	<g>
		<polygon fill="#ffffff" points="26.8746,39.4573 21.9588,39.4573 21.9588,45.5403 26.8746,45.4794 		"/>
		<polygon fill="#ffffff" points="29.7266,39.4573 29.7266,45.444 34.6424,45.383 34.6424,39.4573 		"/>
		<polygon fill="#ffffff" points="37.4945,39.4573 37.4945,45.3476 42.4105,45.2864 42.4105,39.4573 		"/>
		<path fill="#ffffff" d="M5.5467,56.9515l3.7173,1.3304v17.572l5.9267-0.9355V56.1949c0-1.2517-0.7866-2.3682-1.965-2.7901
			l-3.7171-1.3302v-6.2212l8.4312-0.1051v-2.9266v-6.8356h28.1814v6.2496v3.1627l13.9665-0.0508c0,0,0.0122-2.8976,0.0105-2.9377
			c0.002-0.0495,0.0064-0.0986,0.0056-0.1489c-0.0202-1.6363-1.3598-2.9523-3-2.9262l-5.0559,0.0437v-6.3556
			c0-1.6366-1.3269-2.9635-2.9634-2.9635H14.9764c-1.6367,0-2.9634,1.3269-2.9634,2.9635v6.8722l-5.5049,0.0683
			c-1.5901,0.0199-2.9262,1.3767-2.9262,2.9633v11.2347C3.5819,55.4131,4.3682,56.5298,5.5467,56.9515z"/>
		<path fill="#ffffff" d="M34.9754,53.8621c-9.0854,1.7321-14.8979,9.8032-14.7305,20.2584l10.5386-1.6637
			c0.3352-4.5003,2.5855-7.5993,6.1585-8.2805c2.1438-0.4087,4.4309-0.8575,6.7102-1.308l0.0092,7.5557l10.4981-1.6572l-0.01-7.9599
			c3.4668-0.6651,6.6819-1.2529,9.2268-1.6444c2.4316-0.3738,4.6819,0.3607,5.3677,2.7832
			c4.4331-1.5434,16.5178-5.5376,29.2627-7.9112c-0.6787-0.7868-1.4419-1.5009-2.2889-2.1239
			c-3.2734-2.4079-7.4887-3.3371-11.8667-2.6175c-2.5554,0.4202-6.4404,1.0705-10.7309,1.8072
			c-3.3255-2.2351-7.376-2.9259-11.3406-2.3158c-4.7219,0.7265-11.4289,2.0544-17.9155,3.3385
			C40.8785,52.714,37.7913,53.3252,34.9754,53.8621z"/>
		<path fill="#ffffff" d="M115.4241,56.6736c-19.4043-0.0004-46.8789,10.107-46.8789,10.107l-4.5332,4.9751L2.6004,81.4501
			c0,0,0.4859,5.519,1.4048,8.5429c1.3545,4.459,5.1792,7.89,9.8545,7.89l109.4756,0.0576
			c-0.2691-6.1616-2.7246-10.9382-8.5366-10.9382c-0.7598,0-1.1949,0.0618-5.0816,0.4018
			c2.3911-9.9304,14.1741-19.5005,15.4566-24.6299C126.5645,57.2106,121.3153,56.6736,115.4241,56.6736z M92.1107,81.3008
			l-10.3203,1.8356c-0.8709,0.1425-1.7195-0.3413-2.0132-1.1734l-1.7642-4.934c-0.8127-2.2946,2.3428-3.078,3.064-1.0506
			l1.3369,3.6555l7.0698-1.5416l-1.1245-3.7879h0.0049c-0.6934-2.2877,2.7578-3.3263,3.4531-1.0286l1.7012,5.7302
			C93.827,80.0336,93.1746,81.0992,92.1107,81.3008z"/>
	</g>
</g>
</svg>
