<?xml version="1.0" encoding="utf-8"?>
<!-- Generator: Adobe Illustrator 18.1.1, SVG Export Plug-In . SVG Version: 6.00 Build 0)  -->
<svg version="1.2" baseProfile="tiny" xmlns="http://www.w3.org/2000/svg" xmlns:xlink="http://www.w3.org/1999/xlink" x="0px"
	 y="0px" width="128px" height="128px" viewBox="0 0 128 128" xml:space="preserve">
<g id="box">
	<rect fill="none" width="128" height="128"/>
</g>
<g id="Production">
	<g>
		<path fill="#ffffff" d="M51.8478,15.1082c-3.2898,0-5.8559,0.9274-4.8726,1.9475c0.6256,0.6469,2.5696,1.1679,4.8726,1.1679
			c2.3044,0,4.248-0.521,4.8735-1.1679c0.1372-0.1421,0.2133-0.2896,0.2133-0.4395C56.9346,15.7825,54.6573,15.1082,51.8478,15.1082
			z"/>
		<path fill="#ffffff" d="M89.2858,73.1531h-0.0054v-6.0037c2.3711-2.4022,2.3935-5.0779,0-7.5049V43.5542
			c2.3712-2.273,2.3931-4.8067,0-7.1035V20.4851c1.1548-1.0161,1.7859-2.114,1.7859-3.26c0-5.2102-13.0369-8.5869-29.1187-8.5869
			c-16.0813,0-29.119,3.3767-29.119,8.5869c0,1.1457,0.631,2.2437,1.7857,3.2595v15.9661c-2.3795,2.2815-2.3846,4.8168,0,7.1033
			v16.0903c-2.3848,2.4162-2.3797,5.0935,0,7.5051v9.9798C17.3262,77.1697,3.339,83.3828,3.339,91.0408
			c0,7.1672,12.2646,12.9294,27.9956,13.8296c12.2555,0.7003,6.8786,4.6611,16.4841,9.6259
			c4.3336,2.2405,10.2606,3.8589,16.9967,4.5264c7.7176,0.764,16.4635,0.2809,24.0397-1.9087
			c8.5889-2.4822,14.2647-6.779,14.3296-11.6645c0.0371-2.7662,2.7082-4.6057,6.2546-5.8936c0,0,15.2217-4.2253,15.2217-10.751
			C124.661,80.1604,108.8231,73.1531,89.2858,73.1531z M38.2532,87.6345c0.9978-1.5945,3.0404-2.2536,4.806-1.4641
			c1.3838,0.6238,3.0216,1.189,4.854,1.6699v-14.924c5.5615,1.1436,11.5813,1.5018,17.1339,1.2822v15.2258
			c5.1623-0.259,9.8239-1.1401,13.3974-2.3867c1.9101-0.6643,3.986,0.2747,4.7727,2.1042
			C71.2548,95.4388,47.8142,94.7235,38.2532,87.6345z M38.1083,64.2144c0.9322-1.7759,3.0942-2.5467,4.9514-1.7166
			c1.3835,0.6238,3.0211,1.1885,4.8535,1.6697V49.0122c5.5357,1.0773,11.5446,1.4227,17.1339,1.2136V65.752
			c5.1625-0.2596,9.8236-1.1402,13.3969-2.3865c1.9787-0.6883,4.136,0.3425,4.853,2.3027
			C71.1859,71.6409,47.6271,70.8749,38.1083,64.2144z M38.0493,40.7366c0.8971-1.8587,3.1131-2.6802,5.0099-1.8325
			c1.3837,0.624,3.0215,1.1889,4.854,1.6704V25.4927c5.4888,0.9802,11.4887,1.307,17.1339,1.1135v15.5527
			c5.1625-0.2595,9.8239-1.1403,13.3971-2.3874c1.9988-0.6946,4.1821,0.3623,4.8772,2.3613c0.001,0.0025,0.0015,0.0047,0.002,0.0071
			C71.0898,47.8689,47.4786,47.0463,38.0493,40.7366z M61.9476,21.0176c-11.927,0-21.5637-2.1663-21.5637-4.4805
			c0-2.3213,9.6547-4.2024,21.5637-4.2024c11.909,0,21.5628,1.8811,21.5628,4.2024C83.5104,19.8848,68.0151,21.0176,61.9476,21.0176
			z"/>
	</g>
</g>
</svg>
