<?xml version="1.0" encoding="utf-8"?>
<!-- Generator: Adobe Illustrator 18.1.1, SVG Export Plug-In . SVG Version: 6.00 Build 0)  -->
<svg version="1.2" baseProfile="tiny" xmlns="http://www.w3.org/2000/svg" xmlns:xlink="http://www.w3.org/1999/xlink" x="0px"
	 y="0px" width="128px" height="128px" viewBox="0 0 128 128" xml:space="preserve">
<g id="_x31_28px_boxes">
	<rect fill="none" width="128" height="128"/>
</g>
<g id="Production">
	<g>
		<path fill="#ffffff" d="M88.2883,103.4624L68.4998,95.23V83.4556h-9V95.23l-19.7881,8.2324
			c-5.4893,2.2834-2.0404,10.5973,3.457,8.3096l20.8316-8.6663l20.831,8.6663C90.3749,114.0751,93.7328,105.727,88.2883,103.4624z"
			/>
		<path fill="#ffffff" d="M102.2761,71.4556V29.3301H25.7239v42.1255c-5.3307,0-5.0999,7.5-0.2114,7.5h76.9751
			C107.3699,78.9556,107.6119,71.4556,102.2761,71.4556z M53.2063,64.6602V37.8987l23.1755,13.3855L53.2063,64.6602z"/>
		<path fill="#ffffff" d="M104.9011,15.8301H23.0989c-5.9455,0-5.9541,9,0,9h81.8022
			C110.8466,24.8301,110.8552,15.8301,104.9011,15.8301z"/>
	</g>
</g>
</svg>
