<?xml version="1.0" encoding="utf-8"?>
<!-- Generator: Adobe Illustrator 18.1.1, SVG Export Plug-In . SVG Version: 6.00 Build 0)  -->
<svg version="1.2" baseProfile="tiny" xmlns="http://www.w3.org/2000/svg" xmlns:xlink="http://www.w3.org/1999/xlink" x="0px"
	 y="0px" width="128px" height="128px" viewBox="0 0 128 128" xml:space="preserve">
<g id="_x31_28px_boxes">
	<rect fill="none" width="128" height="128"/>
</g>
<g id="Production">
	<g>
		<path fill="#ffffff" d="M53.5866,32.3927l0.0267-0.0279l20.6499,0.0069c0-0.0069,0.0261,0.021,0.0261,0.021l-0.0059,6.4635h6.7693
			l-0.0061-6.4635c-0.0066-3.7378-3.0237-6.7846-6.7834-6.7846H53.6133c-3.7596,0-6.7767,3.0468-6.7867,6.7846v6.4635h6.76V32.3927z
			"/>
		<path fill="#ffffff" d="M108.2967,55.6203v-5.107c0-6.0374-4.9129-10.9489-10.9516-10.9489h-6.0707
			c-3.1707,0-6.0291,1.3559-8.0305,3.5169H44.7561c-2.0012-2.161-4.8599-3.5169-8.0303-3.5169h-6.071
			c-6.0386,0-10.9515,4.9115-10.9515,10.9489v5.107c0,3.1715,1.3558,6.0312,3.5164,8.0334v14.6491
			c-2.1606,2.0025-3.5164,4.8621-3.5164,8.0337v5.107c0,6.0371,4.9129,10.9484,10.9515,10.9484h6.071
			c3.0613,0,5.8315-1.2644,7.8206-3.2965h38.9074c1.9888,2.0321,4.7591,3.2965,7.8206,3.2965h6.0707
			c6.0387,0,10.9516-4.9113,10.9516-10.9484v-5.107c0-3.2804-1.451-6.2265-3.7422-8.2358V63.8559
			C106.8457,61.8465,108.2967,58.9005,108.2967,55.6203z M36.7258,97.1737h-6.071c-3.1614,0-5.7332-2.5706-5.7332-5.7302v-5.107
			c0-2.841,2.075-5.2065,4.7881-5.6587l12.6509,11.8103C41.8684,95.1507,39.5288,97.1737,36.7258,97.1737z M29.7097,61.2784
			c-2.7131-0.4521-4.7881-2.8174-4.7881-5.6581v-5.107c0-3.1599,2.5718-5.7307,5.7332-5.7307h6.071
			c2.803,0,5.1426,2.0232,5.6348,4.6861L29.7097,61.2784z M103.0783,91.4435c0,3.1596-2.5717,5.7302-5.7332,5.7302h-6.0707
			c-2.8032,0-5.1426-2.023-5.635-4.6856l12.6509-11.8103c2.7133,0.4522,4.788,2.8177,4.788,5.6587V91.4435z M103.0783,55.6203
			c0,2.8407-2.0747,5.206-4.788,5.6581L85.6394,49.4687c0.4924-2.6629,2.8318-4.6861,5.635-4.6861h6.0707
			c3.1615,0,5.7332,2.5708,5.7332,5.7307V55.6203z"/>
	</g>
</g>
</svg>
