<?xml version="1.0" encoding="utf-8"?>
<!-- Generator: Adobe Illustrator 19.1.0, SVG Export Plug-In . SVG Version: 6.00 Build 0)  -->
<svg version="1.2" baseProfile="tiny" xmlns="http://www.w3.org/2000/svg" xmlns:xlink="http://www.w3.org/1999/xlink" x="0px"
	 y="0px" width="64px" height="64px" viewBox="0 0 64 64" xml:space="preserve">
<g id="box">
	<rect fill="none" width="64" height="64"/>
</g>
<g id="Production">
	<path fill="#ffffff" d="M38,7c-12.7693,0-23.3261,9.6251-24.8137,22h2.0157c0.5959-4.5516,2.5433-8.6744,5.402-11.9899
		c1.9933,0.9662,4.0389,1.7633,6.1347,2.3785c-0.8583,2.8766-1.4381,6.1165-1.6466,9.6114h2.0091
		c0.2151-3.2812,0.7831-6.3591,1.6079-9.0811c2.6945,0.6406,5.4646,0.984,8.2908,1.0521V29h2v-8.0301
		c2.7947-0.0704,5.5757-0.4223,8.2862-1.067c0.8274,2.7258,1.397,5.8095,1.6125,9.097h2.0091
		c-0.2089-3.5009-0.7902-6.746-1.6511-9.6262c2.1168-0.6183,4.1758-1.4147,6.1572-2.3733C58.687,20.795,60.745,25.6631,60.9747,31
		H4.9287l6.7783-6.7783l-1.4141-1.4141L1.1006,32l9.1924,9.1924l1.4141-1.4141L4.9287,32.99h56.046
		c-0.2297,5.3369-2.2877,10.2149-5.5607,14.0095c-1.981-0.9587-4.0399-1.7554-6.1569-2.3739c0.8607-2.88,1.442-6.1249,1.6508-9.6255
		h-2.0091c-0.2155,3.2872-0.785,6.3706-1.6123,9.0963C44.5759,43.4516,41.7946,43.1003,39,43.03V35h-2v8.0288
		c-2.8257,0.0681-5.5963,0.4101-8.2913,1.0508c-0.8245-2.7217-1.3924-5.799-1.6075-9.0796h-2.0091
		c0.2084,3.4944,0.788,6.7339,1.6462,9.6101c-2.0958,0.6152-4.1415,1.4129-6.1349,2.379C17.745,43.6738,15.7979,39.5512,15.202,35
		h-2.0157C14.6739,47.3749,25.2307,57,38,57c13.7852,0,25-11.2148,25-25S51.7852,7,38,7z M27.3679,17.4875
		c-1.8138-0.5287-3.589-1.1981-5.3224-2.0034c2.7341-2.644,6.1082-4.6243,9.8788-5.6593
		C30.0966,11.6469,28.5413,14.278,27.3679,17.4875z M37,18.971c-2.6071-0.066-5.1626-0.3821-7.6516-0.9611
		C31.1832,13.0999,33.9296,9.7113,37,9.1008V18.971z M39,18.9709V9.1008c3.0703,0.6105,5.8167,3.9988,7.6514,8.9086
		C44.1625,18.5884,41.6071,18.9049,39,18.9709z M48.632,17.4871c-1.1747-3.2126-2.7318-5.8459-4.5618-7.6682
		c3.7764,1.0348,7.166,3.0091,9.9039,5.6566C52.2344,16.2848,50.4525,16.9564,48.632,17.4871z M22.0461,48.5165
		c1.7334-0.8052,3.5077-1.4768,5.3212-2.0054c1.1735,3.2101,2.7289,5.8417,4.5569,7.6641
		C28.1539,53.1403,24.7801,51.1603,22.0461,48.5165z M37,54.8992c-3.0706-0.6105-5.8173-3.9996-7.652-8.9105
		c2.4893-0.5791,5.0453-0.8939,7.652-0.9599V54.8992z M39,54.8992V45.029c2.607,0.066,5.1626,0.3818,7.6516,0.9609
		C44.8168,50.9001,42.0704,54.2887,39,54.8992z M44.0701,54.181c1.8302-1.8223,3.3874-4.4559,4.5621-7.6688
		c1.8205,0.5306,3.6017,1.2035,5.3412,2.0128C51.2357,51.1722,47.8463,53.1463,44.0701,54.181z"/>
</g>
</svg>

