<?xml version="1.0" encoding="utf-8"?>
<!-- Generator: Adobe Illustrator 17.1.0, SVG Export Plug-In . SVG Version: 6.00 Build 0)  -->
<!DOCTYPE svg [
	<!ENTITY ns_flows "http://ns.adobe.com/Flows/1.0/">
	<!ENTITY ns_extend "http://ns.adobe.com/Extensibility/1.0/">
	<!ENTITY ns_ai "http://ns.adobe.com/AdobeIllustrator/10.0/">
	<!ENTITY ns_graphs "http://ns.adobe.com/Graphs/1.0/">
]>
<svg version="1.2" baseProfile="tiny" xmlns:x="&ns_extend;" xmlns:i="&ns_ai;" xmlns:graph="&ns_graphs;"
	 xmlns="http://www.w3.org/2000/svg" xmlns:xlink="http://www.w3.org/1999/xlink" xmlns:a="http://ns.adobe.com/AdobeSVGViewerExtensions/3.0/"
	 x="0px" y="0px" width="128px" height="128px" viewBox="0 0 128 128" xml:space="preserve">
<g id="_x31_28px_boxes">
	<rect fill="none" width="128" height="128"/>
</g>
<g id="Production">
	<g>
		<path fill="#ffffff" d="M36.7349,64.0073c0,15.0347,12.2313,27.2664,27.2661,27.2664c15.0346,0,27.2661-12.2317,27.2661-27.2664
			c0-15.0345-12.2315-27.2659-27.2661-27.2659C48.9662,36.7414,36.7349,48.9728,36.7349,64.0073z M50.7722,69.3049
			c-0.1517,0.0864-0.3213,0.1304-0.4917,0.1304c-0.1155,0-0.2314-0.0201-0.3423-0.0611c-3.3332-1.227-6.2386-3.5083-8.1806-6.4233
			c-0.1565-0.2349-0.2051-0.5251-0.1346-0.7981c0.0708-0.2729,0.2547-0.5029,0.5052-0.6323
			c0.0354-0.0183,3.5627-1.854,6.2817-4.5726c0.6192-0.6193,1.1658-1.2426,1.6945-1.8457c1.9293-2.2001,3.7516-4.2783,8.4796-5.6862
			c1.0232-0.307,1.7429,1.0196,0.9192,1.7094c-0.7918,0.6661-2.8657,2.7874-2.9427,4.5725
			c-0.0244,0.5682,0.1565,1.042,0.5618,1.4825l4.6167,4.6167l-3.6758,3.676l-3.3938-3.3938c-1.69,1.7395-2.9934,4.23-3.4138,6.5422
			C51.2031,68.9096,51.0261,69.1596,50.7722,69.3049z M75.3876,76.8466l-2.2743,2.2749c-0.3874,0.387-1.0164,0.3859-1.4016,0
			l-5.7682-5.7683l3.6759-3.6758l5.7681,5.7679C75.7744,75.8322,75.7747,76.4597,75.3876,76.8466z M69.0984,49.416
			c4.7283,1.4077,6.5505,3.4861,8.48,5.6862c0.5288,0.6031,1.0753,1.2264,1.6945,1.8457c2.7186,2.7186,6.2458,4.5543,6.2812,4.5726
			c0.2506,0.1294,0.4344,0.3594,0.5052,0.6323c0.0706,0.273,0.0219,0.5632-0.1346,0.7981c-1.9427,2.916-4.848,5.1973-8.1809,6.4236
			c-0.1107,0.0407-0.2267,0.0608-0.3422,0.0608c-0.1705,0-0.3401-0.044-0.4917-0.1307c-0.2541-0.145-0.431-0.395-0.4834-0.6831
			c-0.4205-2.3125-1.7236-4.8029-3.4136-6.5422L55.9706,79.1215c-0.386,0.3867-1.015,0.3865-1.4013,0l-2.2741-2.2744
			c-0.3872-0.3869-0.3871-1.0144,0-1.4013l18.2671-18.2674c0.4043-0.4406,0.5847-0.9145,0.5595-1.4829
			c-0.0793-1.7939-2.1509-3.9072-2.9424-4.5701C67.3553,50.4355,68.0758,49.1087,69.0984,49.416z"/>
		<path fill="#ffffff" d="M84.4019,88.2832c-5.5196,4.6459-12.6385,7.4499-20.4009,7.4499c-7.7625,0-14.8816-2.804-20.4011-7.4502
			l-9.8365,14.3494c-1.4065,2.0516,0.0666,4.8479,2.5545,4.8479c9.2428,0,10.6346-0.4048,16.9121,3.0158
			c2.7751,1.512,5.9209,3.2259,10.771,3.2259c4.8501,0,7.9956-1.7139,10.771-3.2259c6.2737-3.4185,7.6576-3.0158,16.9118-3.0158
			c2.4875,0,3.9612-2.796,2.5545-4.8479L84.4019,88.2832z"/>
		<path fill="#ffffff" d="M43.6052,39.7272C49.1243,35.084,56.241,32.282,64.001,32.282c7.7589,0,14.8747,2.8012,20.3933,7.4433
			l9.842-14.3577c1.4065-2.0515-0.0665-4.8479-2.5544-4.8479c-9.2639,0-10.6461,0.3983-16.9119-3.0158
			c-2.7751-1.512-5.9206-3.2258-10.7707-3.2258c-4.8504,0-7.9959,1.7138-10.7713,3.2258
			c-6.2737,3.4185-7.6575,3.0158-16.9118,3.0158c-2.4875,0-3.9613,2.7959-2.5545,4.8479L43.6052,39.7272z"/>
		<path fill="#ffffff" d="M113.7222,63.999c0-4.8503-1.714-7.9959-3.2262-10.771c-3.4196-6.276-3.0158-7.6627-3.0158-16.9121
			c0-2.4876-2.7959-3.9612-4.8479-2.5545L88.2744,43.604c4.6472,5.5198,7.4522,12.6396,7.4522,20.4033
			c0,7.7588-2.8011,14.8745-7.4432,20.393l14.3489,9.8362c2.041,1.3995,4.8479-0.0519,4.8479-2.5544
			c0-9.2618-0.3997-10.6427,3.0158-16.9121C112.0082,71.9946,113.7222,68.8491,113.7222,63.999z"/>
		<path fill="#ffffff" d="M32.2754,64.0073c0-7.7627,2.8039-14.8816,7.4505-20.4011l-14.3585-9.8428
			c-2.0515-1.4066-4.8478,0.0665-4.8478,2.5544c0,9.2574,0.4009,10.6413-3.0159,16.9119
			c-1.5121,2.7754-3.2259,5.9209-3.2259,10.7712c0,4.8501,1.7138,7.9956,3.2259,10.771c3.4207,6.2781,3.0159,7.6653,3.0159,16.9116
			c0,2.5077,2.8134,3.9494,4.8478,2.5545l14.351-9.8377C35.0767,78.8821,32.2754,71.7661,32.2754,64.0073z"/>
	</g>
</g>
</svg>
