<?xml version="1.0" encoding="utf-8"?>
<!-- Generator: Adobe Illustrator 18.1.1, SVG Export Plug-In . SVG Version: 6.00 Build 0)  -->
<svg version="1.2" baseProfile="tiny" xmlns="http://www.w3.org/2000/svg" xmlns:xlink="http://www.w3.org/1999/xlink" x="0px"
	 y="0px" width="128px" height="128px" viewBox="0 0 128 128" xml:space="preserve">
<g id="_x31_28px_boxes">
	<rect fill="none" width="128" height="128"/>
</g>
<g id="Production">
	<g>
		<path fill="#ffffff" d="M120.9348,42.005c-0.2024-1.8452-2.4494-2.6707-3.7991-1.3732c-0.0629,0.0605-6.3642,6.041-13.5395,6.041
			c-6.4944,0-12.6968-5.3684-14.3701-11.1268c-0.5536-1.9681-3.2381-2.2282-4.1673-0.4191
			c-0.2216,0.4314-5.382,10.6601-1.1897,18.7698c1.8245,3.5295,5.0611,6.0397,9.649,7.4977
			c-1.074,7.2857-3.2134,15.3448-7.4436,15.9715c-7.8369,1.1611-19.7864-19.3467-34.3482-26.0916
			c-18.1518-8.4074-35.9089,0.7796-42.2456,15.2913c-7.0171,16.0703,1.0659,37.0669,20.1865,43.1191
			c23.7408,7.5147,60.4085,5.2676,69.6978-21.7236c3.2307-9.3872,4.5872-18.3045,5.1123-25.1824
			c5.0654-0.2805,9.0835-2.0347,11.9521-5.2353C121.8999,51.4391,120.9768,42.3874,120.9348,42.005z M36.281,93.1256
			c-2.4043,0-4.3538-1.9492-4.3538-4.3539c0-2.4043,1.9495-4.3541,4.3538-4.3541c2.4048,0,4.354,1.9498,4.354,4.3541
			C40.635,91.1764,38.6858,93.1256,36.281,93.1256z"/>
		<path fill="#ffffff" d="M26.1587,38.1169c1,0.2941,6.6233,1.0019,10.0139,4.3991c1.1011,1.1031,3.0049,0.4568,3.1892-1.1047
			c0.0684-0.5799,1.6007-14.2727-4.9416-20.6038c-0.0511-0.0495-0.1051-0.0932-0.1577-0.1399
			c-6.4526-6.18-17.1941-1.5807-17.1941,7.3389C17.0684,33.2492,21.0569,37.5771,26.1587,38.1169z"/>
		<path fill="#ffffff" d="M45.4041,33.2228c3.8603-2.728,6.9072-3.0993,8.3278-3.9534c2.982-1.0053,5.136-3.8264,5.136-7.143
			c0-6.6229-7.9743-10.0141-12.748-5.4388c-0.036,0.0323-0.0735,0.0618-0.1085,0.0958c-4.5923,4.4436-3.6728,14.0361-3.5529,15.1152
			C42.6172,33.3243,44.2466,34.0404,45.4041,33.2228z"/>
	</g>
</g>
</svg>

