<?xml version="1.0" encoding="utf-8"?>
<!-- Generator: Adobe Illustrator 18.1.1, SVG Export Plug-In . SVG Version: 6.00 Build 0)  -->
<svg version="1.2" baseProfile="tiny" xmlns="http://www.w3.org/2000/svg" xmlns:xlink="http://www.w3.org/1999/xlink" x="0px"
	 y="0px" width="128px" height="128px" viewBox="0 0 128 128" xml:space="preserve">
<g id="_x31_28px_boxes" display="none">
	<rect display="inline" fill="none" width="128" height="128"/>
</g>
<g id="Production">
	<g>
		<path fill="#ffffff" d="M61.4222,65.4966v-13.968c0.2317-4.1204-2.2698-7.6206-5.7943-8.375l-17.3408,22.343h-5.6962
			l17.459-22.4953H32.5794c-4.2543,0-7.5659,3.8686-7.3049,8.5273v13.968h-9.3617c-3.9642,0-3.9683,6,0,6h59.6769l-0.3372-6H61.4222
			z"/>
		<path fill="#ffffff" d="M63.9734,89.9058l-9.6199-0.0005l-0.0037-5.8147c-0.0046-2.5576-2.0848-4.6377-4.6373-4.6377
			l-11.2314,0.0003c-2.5516,0.0002-4.6333,2.0796-4.6407,4.6386l0.0003,5.814l-9.6742-0.0005
			c-1.225,0.0003-2.2157,0.9907-2.2161,2.2144l0.0004,23.3498c-0.0004,1.2234,0.9913,2.2168,2.2159,2.2171h39.8067
			c1.2194-0.0003,2.2131-0.9942,2.2131-2.2171V92.1197C66.1865,90.8955,65.1928,89.9058,63.9734,89.9058z M48.7738,89.9056
			l-9.3584-0.0003l0.0002-4.8786l9.3599,0.0041L48.7738,89.9056z"/>
		<path fill="#ffffff" d="M108.7296,27.2764c0-6.4707-5.2451-11.7153-11.7158-11.7153c-6.4702,0-11.7163,5.2446-11.7163,11.7153
			c0,6.4949,5.2764,11.7163,11.7163,11.7163C103.4565,38.9927,108.7296,33.7688,108.7296,27.2764z"/>
		<path fill="#ffffff" d="M109.1954,84.5087c2.4214-1.0788,4.2007-3.4903,4.3609-6.3368l1.4907-26.5498
			c0.2622-4.6587-2.9688-8.5273-7.2232-8.5273H86.2042c-4.2544,0-7.4853,3.8686-7.2246,8.5273l1.4922,26.5498
			c0.1596,2.8465,1.9394,5.2581,4.3608,6.3369v33.1778h10.6045V85.1148h3.1538v32.5718h10.6045V84.5087z"/>
		<path fill="#ffffff" d="M32.0171,24.3641c-1.8338,7.4172,3.7904,14.5351,11.3719,14.5351c6.4632,0,11.7034-5.2342,11.7151-11.6948
			c0.9414,0.0752,1.9262,0.1171,2.9544,0.1171l0.0816-0.0002c1.14-0.0024,1.6813-1.4127,0.8357-2.1771l-3.6041-3.2589
			L32.0171,24.3641z"/>
		<path fill="#ffffff" d="M55.4243,19.2215l2.4893-6.8974c0.4082-1.131-0.6207-2.2665-1.792-1.9599l-25.4928,6.6963
			c-0.8454,0.2221-1.3225,1.1163-1.0362,1.9422l0.9903,2.8555L55.4243,19.2215z"/>
	</g>
</g>
</svg>
