<?xml version="1.0" encoding="utf-8"?>
<!-- Generator: Adobe Illustrator 18.1.1, SVG Export Plug-In . SVG Version: 6.00 Build 0)  -->
<svg version="1.2" baseProfile="tiny" xmlns="http://www.w3.org/2000/svg" xmlns:xlink="http://www.w3.org/1999/xlink" x="0px"
	 y="0px" width="64px" height="64px" viewBox="0 0 64 64" xml:space="preserve">

<g id="Production">
	<g>
		<path fill="#ffffff" d="M56.8345,33.144L33,19.9454v-2.4649c0-0.8389,0.5459-1.5977,1.3579-1.8882
			c6.6633-2.3834,5.923-12.0223-0.8628-13.4365C29.0353,1.2256,25,4.5924,25,9h2c0-3.1481,2.8768-5.5538,6.0869-4.8862
			c4.8536,1.0118,5.3295,7.9033,0.5972,9.5957C32.0786,14.2837,31,15.7993,31,17.4805v2.4649L7.1955,33.144
			C3.411,35.2398,4.9059,41,9.2253,41H13v-2H9.1953c-2.2655,0-3.0438-3.0084-1.061-4.106L32,21.6777L55.8657,34.894
			C57.8479,35.9913,57.0708,39,54.8047,39H51v2h3.8047C59.1315,41,60.6118,35.2358,56.8345,33.144z"/>
		<path fill="#ffffff" d="M45,35H19c-2.2056,0-4,1.7944-4,4v22h34V39C49,36.7944,47.2056,35,45,35z M47,59H17V39
			c0-1.103,0.897-2,2-2h26c1.103,0,2,0.897,2,2V59z"/>
	</g>
</g>
</svg>
