<?xml version="1.0" encoding="utf-8"?>
<!-- Generator: Adobe Illustrator 18.1.1, SVG Export Plug-In . SVG Version: 6.00 Build 0)  -->
<svg version="1.2" baseProfile="tiny" xmlns="http://www.w3.org/2000/svg" xmlns:xlink="http://www.w3.org/1999/xlink" x="0px"
	 y="0px" width="128px" height="128px" viewBox="0 0 128 128" xml:space="preserve">
<g id="_x31_28px_boxes">
	<rect fill="none" width="128" height="128"/>
</g>
<g id="Production">
	<g>
		<path fill="#ffffff" d="M119.2526,59.6353c-4.4239-9.7642-20.3652-19.8669-36.6945-12.1054
			c3.2924-18.757-12.3122-20.1781-17.2603-32.572c-0.5236-1.3125-2.3893-1.3127-2.9131-0.0001
			c-4.9486,12.395-20.4475,13.7288-17.2876,32.412c-15.8497-7.306-31.7935,2.2016-36.351,12.2655
			c-0.4601,1.0147,0.2506,2.1958,1.385,2.2437c11.7045,0.4978,12.1807,12.4354,24.0883,17.689
			c-10.8397,8.1258-13.8543,23.8813-9.5219,33.522c0.4553,1.0158,1.8039,1.2607,2.5886,0.4507
			c9.5141-9.8108,26.3194,1.2081,36.7131-19.5181c10.4454,20.8214,27.1605,9.6547,36.7132,19.5181
			c0.7798,0.8096,2.1301,0.5723,2.5888-0.4507c4.2551-9.4684,1.4708-25.2821-9.5219-33.5217
			c11.9849-5.2885,12.3246-17.1925,24.0832-17.689C118.9911,61.8386,119.719,60.6639,119.2526,59.6353z M71.0268,77.6864
			c1.5784,11.2606-14.9151,11.2794-13.3335,0.0003c-10.4253-0.7589-14.6632-6.32-13.9324-14.698
			c0.3909-4.4772,7.1691-3.8926,6.7779,0.5913c-0.4013,4.5981,1.0362,6.9482,8.1015,7.3509l1.7905-12.7708
			c-1.7739-1.241-2.9347-3.2976-2.9347-5.6268c0-3.7909,3.073-6.864,6.8639-6.864c3.7908,0,6.8641,3.0731,6.8641,6.864
			c0,2.329-1.1612,4.3858-2.9348,5.6268l1.7905,12.7708c7.0635-0.4026,8.503-2.7509,8.1015-7.3509
			c-0.3906-4.4775,6.3865-5.0752,6.7779-0.5913C85.6897,71.3623,81.4571,76.9274,71.0268,77.6864z"/>
	</g>
</g>
</svg>

