<?xml version="1.0" encoding="utf-8"?>
<!-- Generator: Adobe Illustrator 18.1.1, SVG Export Plug-In . SVG Version: 6.00 Build 0)  -->
<svg version="1.2" baseProfile="tiny" xmlns="http://www.w3.org/2000/svg" xmlns:xlink="http://www.w3.org/1999/xlink" x="0px"
	 y="0px" width="128px" height="128px" viewBox="0 0 128 128" xml:space="preserve">
<g id="_x31_28px_boxes">
	<rect fill="none" width="128" height="128"/>
</g>
<g id="Production">
	<g>
		<path fill="#ffffff" d="M102.6031,78.3746V41.0304c0-11.1368-9.0606-20.1973-20.1973-20.1973
			c-11.1634,0-20.197,9.0335-20.1968,20.1973l-0.0002,45.895c0.0005,12.7477-19.228,12.6807-19.2283-0.0003l0.0001-22.122
			c3.2211-5.0393,10.5877-17.7288,10.0508-27.617c-1.1474-21.1165-29.4676-21.1144-30.614,0
			c-0.5329,9.8167,6.7235,22.3936,9.9802,27.5059l-0.0001,22.2331c0.0001,11.137,9.0607,20.1973,20.1973,20.1973
			c11.1626,0,20.1974-9.0331,20.197-20.1973l0.0002-45.895c0-12.7148,19.228-12.7039,19.228,0.0003v37.3503
			C92.8178,78.2783,101.9074,78.2892,102.6031,78.3746z M31.9035,37.7013c0.5013-9.2378,11.1405-9.2388,11.6418,0
			c0.265,4.8808-2.8541,11.927-5.8126,17.3154C34.793,49.6402,31.6408,42.5391,31.9035,37.7013z"/>
		<path fill="#ffffff" d="M103.1309,93.0028l1.7812-6.5376c0.5729-2.102-1.0123-4.1765-3.1909-4.1765h-8.7766
			c-2.1798,0-3.7638,2.0756-3.1907,4.177l1.782,6.5366c-1.6347,1.6058-2.4805,3.7496-2.4805,5.9009
			c0,10.9861,16.555,11.0505,16.555,0C105.6104,96.7523,104.765,94.6089,103.1309,93.0028z M97.333,101.8895
			c-1.6465-0.0003-2.9861-1.3399-2.9861-2.9863c0-1.6465,1.3396-2.9859,2.9861-2.9859s2.9859,1.3394,2.9859,2.9859
			C100.3189,100.5496,98.9795,101.8892,97.333,101.8895z"/>
	</g>
</g>
</svg>
