<?xml version="1.0" encoding="utf-8"?>
<!DOCTYPE svg [
	<!ENTITY ns_flows "http://ns.adobe.com/Flows/1.0/">
	<!ENTITY ns_extend "http://ns.adobe.com/Extensibility/1.0/">
	<!ENTITY ns_ai "http://ns.adobe.com/AdobeIllustrator/10.0/">
	<!ENTITY ns_graphs "http://ns.adobe.com/Graphs/1.0/">
]>
<svg version="1.2" baseProfile="tiny" xmlns:x="&ns_extend;" xmlns:i="&ns_ai;" xmlns:graph="&ns_graphs;"
	 xmlns="http://www.w3.org/2000/svg" xmlns:xlink="http://www.w3.org/1999/xlink" xmlns:a="http://ns.adobe.com/AdobeSVGViewerExtensions/3.0/"
	 x="0px" y="0px" width="128px" height="128px" viewBox="0 0 128 128" xml:space="preserve">
<g id="_x31_28px_boxes">
	<rect fill="none" width="128" height="128"/>
</g>
<g id="Production">
	<g>
		<path fill="#ffffff" d="M82.4085,120.3171c0,0.6433,0.2561,1.2734,0.7091,1.7225c0.4563,0.4597,1.0838,0.7163,1.7268,0.7163
			h7.5954c0.6355,0,1.2637-0.2566,1.7188-0.7163c0.454-0.4491,0.7097-1.0792,0.7097-1.7225v-9.4851H82.4085V120.3171z"/>
		<path fill="#ffffff" d="M33.1336,120.3247c0,0.6357,0.2611,1.2658,0.7099,1.7185c0.4555,0.4489,1.0838,0.7127,1.7239,0.7127
			h7.5972c0.6435,0,1.2695-0.2638,1.7249-0.7127c0.448-0.4527,0.7096-1.0828,0.7096-1.7185v-9.4927H33.1336V120.3247z"/>
		<path fill="#ffffff" d="M102.0272,84.853c-0.3889-1.2415-0.8664-2.3919-1.6799-3.4566c-0.7587-1.0176-2.1799-2.0786-3.9614-2.094
			c-0.2211-0.9167-1.7108-5.6246-1.8294-5.9922c4.9525-4.2771,6.591-11.0822,4.7422-16.8208
			C96.7335,48.52,84.1511,36.7551,88.9644,18.9503c-7.3236,4.2486-9.8434,10.5122-10.7195,15.8839
			c4.7828,8.3761,8.3805,15.4107,4.0449,24.0876c-0.2858,0.5719-1.6449,3.4447-2.2849,3.4447h0.8545
			c1.4847-0.0937,3.6677,1.483,3.9827,2.9414l4.3753,13.9873H38.7899l1.9275-6.1477c2.2852,0.9068,4.8611,1.6134,7.7217,2.0756
			c-5.0754-3.7442-9.0067-14.4973,0.7781-20.7684c-0.8029,5.2639,0.4261,9.8609,5.0078,9.3031
			c5.3652-0.6531,9.6321-11.2776,9.3082-17.1521c5.208,10.343,4.303,17.0173-1.732,23.219
			c4.8058-1.1313,7.7706-3.011,11.8303-6.3802c6.0698-5.0412,7.5248-13.7712,4.7342-20.4494
			c-3.3806-8.096-13.7105-17.7754-8.2362-37.751c-7.5199,2.5884-12.9077,10.2687-12.6822,22.0915
			c0.2751,14.4402-8.4918,16.5879-9.5401,8.1524c-1.5307-12.3234-7.6544-14.8684-7.6544-14.8684
			c-0.0012,0,2.1222,12.6739-7.2719,23.5757c-7.638,8.8635-6.7708,19.1563,1.59,25.5382c-3.4448,11.0045-2.7112,8.6158-2.9718,9.616
			c-3.4436,0.4014-4.7863,3.1976-5.5506,5.4003c-1.5564,4.7296-1.5517,12.0582,0,16.7882c0.7938,2.2835,2.178,5.2348,5.9181,5.4593
			h64.4022c1.7544,0.0069,3.1979-1.0426,3.9785-2.0525C103.7912,100.2454,103.6145,90.0704,102.0272,84.853z M48.2888,95.4714
			c0,1.988-1.6114,3.5923-3.5922,3.5923h-6.4775c-1.9908,0-3.5869-1.6114-3.5944-3.5923v-3.3306
			c0.0075-1.988,1.6036-3.5923,3.5944-3.5923h6.4775c1.9808,0,3.5922,1.6043,3.5922,3.5923V95.4714z M93.1704,95.4714
			c0,1.988-1.6069,3.5848-3.5918,3.5848H83.108c-1.9853,0-3.5996-1.5968-3.5996-3.5848v-3.3306c0-1.988,1.6143-3.5923,3.5996-3.5923
			h6.4706c1.9849,0,3.5918,1.6043,3.5918,3.5923V95.4714z"/>
	</g>
</g>
</svg>
