<?xml version="1.0" encoding="utf-8"?>

<svg version="1.2" baseProfile="tiny" xmlns="http://www.w3.org/2000/svg" xmlns:xlink="http://www.w3.org/1999/xlink" x="0px"
	 y="0px" width="128px" height="128px" viewBox="0 0 128 128" xml:space="preserve">
<g id="_x31_28px_boxes">
	<rect fill="none" width="128" height="128"/>
</g>
<g id="Production">
	<g>
		<polygon fill="#ffffff" points="41.8889,39.5746 21.4373,39.5746 21.4373,44.748 32.7881,44.748 41.8889,41.6265 		"/>
		<path fill="#ffffff" d="M20.6157,54.1443c-1.0696,1.1429-0.8012,0.3643-0.8012,20.0872
			c15.4787-2.6282,24.2952-4.1253,39.8181-6.7611c1.9508-2.2874,4.6911-5.5004,6.6545-7.8024
			c1.3904-0.4707,2.4815-0.8464,5.0418-1.6318v-14.898l36.8701,1.5964v5.591c2.0146-0.1645,3.9992-0.263,5.9267-0.2816v-8.1473
			c0-1.5868-1.25-2.892-2.8352-2.9606l-41.1399-1.781l-0.4829,0.1655l-3.8896,1.3341
			C36.4697,48.7067,50.2576,43.9778,20.6157,54.1443z"/>
		<path fill="#ffffff" d="M8.6174,56.1491v19.9837l5.9268-1.0065V54.0622c0-1.2517-0.7864-2.3683-1.9649-2.79l-3.7172-1.3304
			v-4.5415c10.6064,0,1.5326,0,8.299,0c0.1362-8.0546,0.0824-4.8742,0.1648-9.7533l28.3269,0.2727l0.0293,4.4059l5.9136-2.0282
			l-0.0356-5.3326c-0.011-1.6178-1.3172-2.9279-2.9349-2.9435c-0.1273-0.0012-34.2131-0.3292-34.2131-0.3292
			c-0.011,0-0.2457,0.0104-0.2849,0.0143c-0.0362,0.0033-0.2205,0.0279-0.2993,0.0437c-0.9284,0.1856-1.7345,0.8153-2.1299,1.7154
			c-0.0759,0.1718-0.1477,0.4049-0.1787,0.548c-0.0453,0.2037-0.0664,0.4037-0.0696,0.5919l-0.1162,6.8682H5.8987
			c-1.6367,0-2.9634,1.3268-2.9634,2.9634C2.9353,55.3792,1.7894,53.7055,8.6174,56.1491z"/>
		<path fill="#ffffff" d="M109.0706,87.7713c2.3911-9.9303,16.9755-22.0253,16.9755-27.3126c0-5.6401-6.4921-6.0423-12.5625-5.9154
			v-0.0004c-13.4308,0.2616-32.4028,4.8996-44.5847,8.98c-0.3576,0.4193-5.0185,5.8842-6.9084,8.1001
			c-19.3326,3.2827-36.553,6.2067-60.0366,10.1942c0,0,0.4858,5.519,1.4047,8.543c1.3574,4.468,5.1873,7.8901,9.8545,7.8901
			l109.4756,0.0576C122.1105,85.2811,113.5181,87.3823,109.0706,87.7713z M91.4641,81.6683
			c-0.3179,0.0565-10.338,1.8574-10.6323,1.8574c-1.6483,0-1.7143-1.2321-3.4653-6.1295c-0.4006-1.1307,0.3144-2.3727,1.6298-2.1997
			c0.174,0.0224,0.3376,0.0669,0.5088,0.1439c0.0078,0.0037,0.0161,0.0065,0.024,0.0101c1.0002,0.4703,1.0799,1.483,2.2382,4.6508
			l7.0699-1.5416l-1.1243-3.7881h0.0046c-0.3893-1.2854,0.7307-2.5242,2.0396-2.2879c1.4821,0.2655,1.3735,1.1245,3.115,6.9895
			C93.1802,80.4014,92.528,81.466,91.4641,81.6683z"/>
	</g>
</g>
</svg>
