<?xml version="1.0" encoding="utf-8"?>
<!-- Generator: Adobe Illustrator 18.1.1, SVG Export Plug-In . SVG Version: 6.00 Build 0)  -->
<svg version="1.2" baseProfile="tiny" xmlns="http://www.w3.org/2000/svg" xmlns:xlink="http://www.w3.org/1999/xlink" x="0px"
	 y="0px" width="128px" height="128px" viewBox="0 0 128 128" xml:space="preserve">
<g id="_x31_28px_boxes" display="none">
	<rect display="inline" fill="none" width="128" height="128"/>
</g>
<g id="Production">
	<g>
		<path fill="#ffffff" d="M112.4558,63.9999c0-26.7174-21.7373-48.4558-48.4561-48.4558c-26.7185,0-48.4555,21.7372-48.4555,48.4558
			c0,26.7188,21.737,48.456,48.4555,48.456C90.699,112.4559,112.4558,90.7257,112.4558,63.9999z M23.0442,63.9999
			c0-22.5831,18.3725-40.9558,40.9555-40.9558c22.5743,0,40.9561,18.3738,40.9561,40.9558c0,10.6376-4.0776,20.34-10.7505,27.6291
			L66.1101,61.9988c-2.6452-2.7901-6.8862,1.1912-4.2207,4.0021l7.4917,7.901c-1.6001,0.8732-3.4336,1.3701-5.3814,1.3701
			c-6.2153,0-11.2717-5.0566-11.2717-11.2721c0-6.2153,5.0564-11.2719,11.2717-11.2719c2.0821,0,4.0328,0.5697,5.7083,1.5581
			l3.1848-3.3032c-2.5337-1.7364-5.5962-2.7549-8.8931-2.7549c-8.6965,0-15.7717,7.0753-15.7717,15.7719
			c0,8.6967,7.0752,15.7721,15.7717,15.7721c3.1499,0,6.0843-0.9318,8.5496-2.5288l7.2712,7.6685
			C62.6104,97.964,37.7666,85.5589,37.7666,63.9999c0-7.8572,3.4729-14.9177,8.9636-19.7297
			c0.74,0.3763,1.5762,0.5898,2.4617,0.5898c2.978,0,5.405-2.4,5.4512-5.3671c8.4081-3.2211,18.154-1.9487,25.5698,3.8974
			l3.134-3.2508c-8.7096-7.0755-20.3856-8.7311-30.5017-4.777c-0.9675-0.8749-2.2493-1.4086-3.6533-1.4086
			c-3.0066,0-5.4529,2.4464-5.4529,5.4532c0,0.4672,0.0591,0.9207,0.1704,1.3536c-6.5149,5.6399-10.6428,13.9665-10.6428,23.2392
			c0,9.8359,4.645,18.6064,11.8557,24.2356c-0.8594,0.964-1.3833,2.2338-1.3833,3.6242c0,3.0067,2.4463,5.4529,5.4529,5.4529
			c2.5373,0,4.6755-1.742,5.2815-4.0925c9.5178,3.1107,20.2227,1.4326,28.459-5.0266l7.0537,7.4391
			c-7.0752,5.8226-16.1294,9.3233-25.9864,9.3233C41.4167,104.9559,23.0442,86.5832,23.0442,63.9999z"/>
		<path fill="#ffffff" d="M88.8271,51.5763c-3.0066,0-5.4528,2.4462-5.4528,5.4531c0,3.0067,2.4462,5.453,5.4528,5.453
			c3.0069,0,5.4532-2.4463,5.4532-5.453C94.2803,54.0225,91.834,51.5763,88.8271,51.5763z"/>
	</g>
</g>
</svg>
