<?xml version="1.0" encoding="utf-8"?>
<!-- Generator: Adobe Illustrator 17.1.0, SVG Export Plug-In . SVG Version: 6.00 Build 0)  -->
<!DOCTYPE svg [
	<!ENTITY ns_flows "http://ns.adobe.com/Flows/1.0/">
	<!ENTITY ns_extend "http://ns.adobe.com/Extensibility/1.0/">
	<!ENTITY ns_ai "http://ns.adobe.com/AdobeIllustrator/10.0/">
	<!ENTITY ns_graphs "http://ns.adobe.com/Graphs/1.0/">
]>
<svg version="1.2" baseProfile="tiny" xmlns:x="&ns_extend;" xmlns:i="&ns_ai;" xmlns:graph="&ns_graphs;"
	 xmlns="http://www.w3.org/2000/svg" xmlns:xlink="http://www.w3.org/1999/xlink" xmlns:a="http://ns.adobe.com/AdobeSVGViewerExtensions/3.0/"
	 x="0px" y="0px" width="128px" height="128px" viewBox="0 0 128 128" xml:space="preserve">
<g id="_x31_28px_boxes">
	<rect fill="none" width="128" height="128"/>
</g>
<g id="Production">
	<g>
		<path fill="#ffffff" d="M40.3496,44.083l4.2467,4.7616c1.7556,1.9685,5.0033,1.2527,5.7571-1.2868
			c0.4888-1.6466-1.0818,3.6446,8.0215-27.0246c0.7002-2.3607-1.3194-4.7268-3.8229-4.2864
			c-11.0093,1.9395-12.0099,2.1158-27.7622,4.8905c-2.6036,0.4586-3.6905,3.6039-1.9342,5.573l4.1024,4.5998
			C17.0745,42.9964,12.6284,60.6928,18.4138,76.9339l16.7908-3.9628C30.9,63.0848,32.9893,51.7753,40.3496,44.083z"/>
		<path fill="#ffffff" d="M51.8213,87.6898l2.1011-6.3643c0.8289-2.5101-1.4267-4.9566-3.9929-4.3423
			c-2.7747,0.6645-24.6243,5.8977-27.4146,6.566c-2.4107,0.5769-3.4256,3.5159-1.8005,5.4536
			c14.8778,17.7365,3.3094,3.946,18.1162,21.5971c1.6948,2.0206,4.963,1.4045,5.7934-1.1114l1.8481-5.5976
			c16.7211,5.2228,34.9854-0.1314,46.1939-13.4888L80.8172,77.8192C74.1443,87.0988,62.4161,90.835,51.8213,87.6898z"/>
		<path fill="#ffffff" d="M108.0393,51.729l-6.165,1.2799c-3.8211-17.2724-17.7128-30.6451-35.4639-33.5725l-4.9842,16.5907
			c11.4418,0.8559,21.1053,9.0142,23.7157,20.4558l-6.1416,1.2752c-2.589,0.5372-3.5792,3.7143-1.7642,5.6291
			c0.3366,0.3551,19.3984,20.509,19.7861,20.8075c0.0142,0.0108,0.0279,0.0219,0.0423,0.0327
			c1.8335,1.3672,4.423,0.5538,5.1887-1.5489c7.5025-20.6029,3.1415-8.6262,9.6455-26.4881
			C112.8027,53.7072,110.6233,51.1912,108.0393,51.729z"/>
	</g>
</g>
</svg>
