<?xml version="1.0" encoding="utf-8"?>
<!-- Generator: Adobe Illustrator 18.1.1, SVG Export Plug-In . SVG Version: 6.00 Build 0)  -->
<svg version="1.2" baseProfile="tiny" xmlns="http://www.w3.org/2000/svg" xmlns:xlink="http://www.w3.org/1999/xlink" x="0px"
	 y="0px" width="128px" height="128px" viewBox="0 0 128 128" xml:space="preserve">
<g id="box">
	<rect fill="none" width="128" height="128"/>
</g>
<g id="Production">
	<g>
		<path fill="#ffffff" d="M116.8311,53.0319c-0.2864-1.2271-8.4529-34.9953-8.8003-36.4322
			c-0.1006-0.415-0.4275-0.7373-0.844-0.8314c-0.2639-0.0597-6.5733-1.4618-16.0271-1.4618c-8.0169,0-19.3267,1.0602-30.898,5.599
			c-0.1889-0.4366-0.3926-0.8869-0.6086-1.3347c-1.3316-2.7587-4.002-3.4345-6.1197-2.5708l-6.436,2.359
			c-3.3762,1.2377-4.2222,4.0686-3.4123,6.0931l1.4663,3.617c-19.0921,13.6124-27.2505,35.9316-27.0823,36.934h81.2634
			c0.1885-0.5628,1.3772-3.7577,4.3054-4.6325c4.7664-1.4228,9.9435-2.9633,11.1365-3.3616
			C116.4827,56.4386,117.2708,54.9146,116.8311,53.0319z M93.3345,41.9791c-4.2827,5.6465-14.3172,6.3706-22.5808,6.3706
			c-0.0019,0-13.8074-0.0237-13.8074-0.0237c-2.7285-0.0373-4.0823-2.8877-2.0056-5.7414
			c8.3037-11.4111,30.0805-12.298,36.5571-12.298c1.5128,0,2.8079-0.185,3.1646,1.0885
			C95.8635,35.6659,95.417,39.2335,93.3345,41.9791z M102.9678,51.6138c-2.0244,0-3.666-1.6411-3.666-3.6657
			c0-2.0245,1.6416-3.6658,3.666-3.6658c2.0241,0,3.6655,1.6413,3.6655,3.6658C106.6333,49.9727,104.9919,51.6138,102.9678,51.6138z
			"/>
		<path fill="#ffffff" d="M17.2739,74.5195h81c1.5879,0,2.875-1.2872,2.875-2.875c0-1.5919-1.302-2.875-2.875-2.875h-81
			c-1.5693,0-2.875,1.2795-2.875,2.875C14.3989,73.2323,15.686,74.5195,17.2739,74.5195z"/>
		<path fill="#ffffff" d="M57.2258,83.7905l-1.2663,11.4428c-0.1615,1.5505,1.1391,2.7874,2.6233,2.6233
			c1.3044-0.1444,2.2448-1.3189,2.1003-2.6233l-1.2664-11.4428C59.2732,82.4913,57.3696,82.4899,57.2258,83.7905z"/>
		<path fill="#ffffff" d="M31.8645,80.3407c-0.2141,0.392-5.4093,9.8171-5.5293,10.2474c-0.842,3.026,3.7366,4.3056,4.5806,1.2753
			l2.9785-10.6982C34.2435,79.9119,32.4907,79.1946,31.8645,80.3407z"/>
		<path fill="#ffffff" d="M82.7478,81.1652l2.9785,10.6982c0.4304,1.5093,2.1148,2.1676,3.4302,1.4486
			c1.1523-0.6296,1.5759-2.074,0.9463-3.2262l-5.3252-9.7451C84.1542,79.1989,82.3977,79.907,82.7478,81.1652z"/>
		<path fill="#ffffff" d="M103.2375,88.9309c-1.6523,10.287-15.0427,15.0678-25.2844,9.1931l-0.0005-0.0005
			c-0.0554-0.052-0.1213-0.1031-0.1892-0.1439c-0.5197-0.3116-1.1325-0.2218-1.6103,0.5761
			c-2.75,4.5857-7.5681,7.6684-12.6179,8.7592c-8.694,1.9986-18.3392-1.1318-23.0015-9.0604
			c-0.4085-0.6814-1.3369-0.8071-1.9109-0.2672l-0.0002,0.0004c-5.9974,3.324-12.4207,3.2025-17.106,1.1246
			c-4.3533-1.9185-7.5605-5.454-8.2974-10.1882c-0.1457-0.9311-1.5131-1.1569-1.8374,0.0136
			c-1.572,5.6783,2.2632,13.1449,10.2517,16.0721c5.5616,2.0413,12.1742,1.4387,17.0186-2.25
			c3.8794,7.3681,12.6248,11.462,21.3372,10.8751c7.2833-0.4844,14.572-4.2948,18.0339-10.8687
			c9.7296,7.4379,25.3446,2.3325,27.6006-8.7154c0.3323-1.7312,0.344-3.5055-0.1494-5.1199
			C105.0427,87.5088,103.4148,87.8301,103.2375,88.9309z"/>
	</g>
</g>
</svg>
