<?xml version="1.0" encoding="utf-8"?>
<!-- Generator: Adobe Illustrator 18.1.1, SVG Export Plug-In . SVG Version: 6.00 Build 0)  -->
<svg version="1.2" baseProfile="tiny" xmlns="http://www.w3.org/2000/svg" xmlns:xlink="http://www.w3.org/1999/xlink" x="0px"
	 y="0px" width="128px" height="128px" viewBox="0 0 128 128" xml:space="preserve">
<g id="box">
	<rect fill="none" width="128" height="128"/>
</g>
<g id="Production">
	<g>
		<path fill="#ffffff" d="M65.2705,68.59l26.1591-8.1157c2.4077-0.7471,3.7539-3.3042,3.0068-5.7124
			c-0.7471-2.4077-3.3042-3.7544-5.7119-3.0073l-26.1592,8.1157c-2.4082,0.7471-3.7544,3.3047-3.0078,5.7129
			C60.3046,67.9909,62.8623,69.3371,65.2705,68.59z"/>
		<path fill="#ffffff" d="M111.0268,75.2814c4.3179-1.3017,6.7534-5.8437,5.4546-10.1543
			c-1.2866-4.3125-5.8452-6.7524-10.1616-5.4565c-4.3037,1.3042-6.7476,5.8559-5.4605,10.165
			C102.1665,74.1564,106.7202,76.5866,111.0268,75.2814z"/>
		<path fill="#ffffff" d="M38.7656,51.6584c-0.0989,3.0916,0.8666,11.945,4.5678,18.4907c4.4693,1.708,7.2837,2.5005,13.8697,1.1987
			c-7.0851-2.4812-10.3674-13.8869-8.9234-21.6054c0.0825-0.7348-0.5618-0.7719-1.2573-0.9346
			c-3.1421-0.7227-16.2466-4.3359-22.6518-13.1416c-0.47-0.6419-1.4884-0.1442-1.2642,0.6226
			C23.1269,36.4108,25.8715,45.5265,38.7656,51.6584z"/>
		<path fill="#ffffff" d="M125.3139,87.2199c-0.5439-1.7544-2.3711-2.6001-4.1626-2.1914
			c-4.3642,0.9956-10.4438,1.0342-14.4526-1.7056c-4.3003-2.939-7.8486-12.3215-8.7661-16.7256v0.0005
			c-0.4214-2.2573-2.479-3.8232-4.7368-3.4028c-1.3132,0.2453-26.6345,7.8809-27.6348,8.1963
			c-9.9961,3.2583-14.5659,4.1055-20.961,1.6382C37.1367,70.1501,23.7475,61.34,23.7475,61.34
			c-0.4305-0.2643-0.9987-0.0575-1.1523,0.4307c0,0-0.0132,0.0425-0.0469,0.1426c-0.5171,1.5161-5.3037,14.2724-19.4868,19.188
			c-0.7732,0.2669-0.6574,1.4021,0.1572,1.5073c5.3143,0.5404,13.5032-2.5155,20.0322-11.0508
			c1.0002,0.6354,10.7489,6.5776,17.8247,9.6372c10.4349,4.5117,20.3975,5.8047,31.4468,3.0674
			c6.1514-1.208,14.7427-3.3276,20.4775-6.5259c2.989,6.3378,5.8017,9.1121,8.4624,10.9336
			c8.0411,5.5049,17.8604,4.0796,21.6601,2.7129C124.851,90.7614,125.8579,88.9753,125.3139,87.2199z"/>
	</g>
</g>
</svg>
