<?xml version="1.0" encoding="utf-8"?>
<!-- Generator: Adobe Illustrator 18.1.1, SVG Export Plug-In . SVG Version: 6.00 Build 0)  -->
<svg version="1.2" baseProfile="tiny" xmlns="http://www.w3.org/2000/svg" xmlns:xlink="http://www.w3.org/1999/xlink" x="0px"
	 y="0px" width="128px" height="128px" viewBox="0 0 128 128" xml:space="preserve">
<g id="_x31_28px_boxes">
	<rect fill="none" width="128" height="128"/>
</g>
<g id="Production">
	<g>
		<path fill="#ffffff" d="M74.513,35.478l-9.8371,9.8375l27.2368,10.7449l-8.2188,8.2186L56.4576,53.5339l-4.5334,4.5333
			c-1.1802,1.1803-1.1807,3.0958,0,4.2768l3.9543,3.9541c-8.8262,9.1403-19.0698,6.9316-19.509,6.8313
			c-1.6228-0.3916-3.2569,0.6086-3.6475,2.2324c-0.3908,1.6238,0.6087,3.2568,2.2324,3.6474
			c6.7439,1.6327,17.2956-0.2804,25.2005-8.4348l8.6221,8.6216l-27.5125,27.5125c-1.5745,1.5747-1.5745,4.1274,0,5.7021
			c1.5742,1.5743,4.1273,1.5748,5.7022,0l58.0754-58.0756l-11.252-11.2523L74.513,35.478z"/>
		<path fill="#ffffff" d="M44.8648,91.0368c3.1067,0.1719,3.9624-4.5225,0.2937-5.1489c-5.4604-0.7517-10.4156,1.394-13.9209,5.5681
			c-2.8894-3.8892-7.1191-6.2961-12.1589-6.2961c1.1524-4.661,0.6637-9.524-1.709-14.0576
			c4.2511-0.7886,7.8872-3.1553,10.4624-7.3934c5.0033,3.6018,10.3765,4.2023,14.9551,2.5181
			c1.3005-0.4814,2.023-1.9023,1.6138-3.2463c-0.4248-1.3946-1.8994-2.1807-3.294-1.7561l-0.125,0.0381
			c-4.5365,1.3812-8.9054-0.9243-11.9536-4.5049c-1.2814-1.4948-3.8928-1.5343-5.0271,1.0024l-0.0002,0.0003
			c-2.1653,5.6153-5.8513,8.0922-12.0869,7.3242l-0.0301-0.0037c-2.832-0.3346-4.565,3.0565-2.6189,5.1521
			c4.6331,4.989,5.6643,11.1244,2.4253,17.3589l-0.0134,0.0256c-1.2388,2.4057,1.0855,5.1352,3.6692,4.2547
			c6.0671-2.0677,10.9101,0.914,12.9287,6.6196c0.9356,2.5533,4.5586,2.6272,5.5752,0.0811
			C35.7057,93.929,39.7848,90.7638,44.8648,91.0368z"/>
		<path fill="#ffffff" d="M116.6234,14.4237L81.733,18.1402c-2.2168,0.2363-3.1753,2.9448-1.5976,4.5219l31.1733,31.174
			c1.5745,1.5752,4.2852,0.6258,4.5217-1.5976l3.7171-34.8906C119.7269,15.6669,118.3075,14.2449,116.6234,14.4237z"/>
	</g>
</g>
</svg>
