<?xml version="1.0" encoding="utf-8"?>
<!-- Generator: Adobe Illustrator 18.1.1, SVG Export Plug-In . SVG Version: 6.00 Build 0)  -->
<svg version="1.2" baseProfile="tiny" xmlns="http://www.w3.org/2000/svg" xmlns:xlink="http://www.w3.org/1999/xlink" x="0px"
	 y="0px" width="128px" height="128px" viewBox="0 0 128 128" xml:space="preserve">
<g id="_x31_28px_boxes">
	<rect fill="none" width="128" height="128"/>
</g>
<g id="Production">
	<g>
		<path fill="#ffffff" d="M25.385,80.1018c-1.7656-0.0066-3.1965-1.3684-3.3108-3.0747l-0.0073-23.3474h42.0758
			c1.4178-5.2869,4.5963-9.8599,8.8668-13.0474H22.0669v-4.7744c0-1.8474,1.49-3.3406,3.3181-3.3308h70.8857
			c1.8374,0,3.3211,1.4834,3.3208,3.321l0.0003,3.3924c2.8927,1.7221,5.396,4.0332,7.3408,6.7685V35.8486
			c-0.0068-5.8877-4.7678-10.6557-10.6619-10.6557H25.385c-5.8902,0-10.6553,4.768-10.6619,10.6452l-0.0002,0.0105
			c0,0-0.0454,40.9717,0,41.0706c0.0041,0.029,0.0041,0.0522,0.0041,0.0752c0.1114,5.8047,4.8533,10.4448,10.658,10.4448h31.5085
			v-7.3374H25.385z"/>
		<path fill="#ffffff" d="M109.5473,67.4997h-2.6811v-7.5988c-0.0005-10.7867-8.7388-19.5269-19.5254-19.5271
			c-10.7817,0-19.5161,8.7404-19.5161,19.5271v7.5988h-2.6812c-2.071,0-3.75,1.679-3.75,3.75v27.8074c0,2.0711,1.679,3.75,3.75,3.75
			h44.4034c2.071,0,3.75-1.6789,3.75-3.75l0.0004-27.8074C113.2973,69.1801,111.6181,67.4997,109.5473,67.4997z M84.0102,87.3183
			c-4.9422-3.4019-2.5482-11.1821,3.4639-11.1821c5.9913,0,8.4151,7.7723,3.4612,11.1824V93.81h-6.9251V87.3183z M76.6804,59.9006
			c0.0251-14.089,21.3007-14.1206,21.3323,0.0003l-0.0004,7.5988H76.6804V59.9006z"/>
	</g>
</g>
</svg>
