<?xml version="1.0" encoding="utf-8"?>
<!-- Generator: Adobe Illustrator 18.1.1, SVG Export Plug-In . SVG Version: 6.00 Build 0)  -->
<svg version="1.2" baseProfile="tiny" xmlns="http://www.w3.org/2000/svg" xmlns:xlink="http://www.w3.org/1999/xlink" x="0px"
	 y="0px" width="128px" height="128px" viewBox="0 0 128 128" xml:space="preserve">
<g id="_x31_28px_boxes">
	<rect fill="none" width="128" height="128"/>
</g>
<g id="Production">
	<g>
		<path fill="#ffffff" d="M43.8979,47.4694c0-0.8822-0.3588-1.7263-0.9941-2.3385l-6.2629-6.0351l1.8789-1.8792
			c0.716-0.7163,0.716-1.8775-0.0003-2.5938L16.6753,12.7785c-0.7651-0.7651-1.8242-0.7701-2.5938,0l-8.85,8.8502
			c-0.7163,0.7163-0.7163,1.8777,0,2.594l21.8444,21.8449c0.8143,0.8143,1.6917,0.9022,2.594-0.0001l2.3777-2.378l5.3552,5.1604
			v5.1604h6.4951V47.4694z"/>
		<path fill="#ffffff" d="M56.1563,51.3028c0.4177,0.2803,1.0256-0.2181,0.8769-0.6686l-0.0078-0.0223
			c-2.0471-6.1612-1.7317-10.5775,1.7974-14.8312c6.0092-7.271,3.2837-15.8221-1.7813-19.3473
			c-0.3672-0.2522-1.394-0.0462-1.0999,0.8259l0.012,0.0359c2.1758,6.4665,1.6748,10.6017-1.6902,14.7453
			C48.9841,38.5091,50.4409,47.4126,56.1563,51.3028z"/>
		<path fill="#ffffff" d="M71.4702,51.3028c0.4177,0.2803,1.0257-0.2181,0.877-0.6686l-0.0078-0.0223
			c-2.0472-6.1612-1.7317-10.5775,1.7973-14.8312c6.0093-7.271,3.2837-15.8221-1.7812-19.3473
			c-0.3672-0.2522-1.3941-0.0462-1.0999,0.8259l0.012,0.0359c2.1758,6.4665,1.6748,10.6017-1.6902,14.7453
			C64.2981,38.5091,65.7549,47.4126,71.4702,51.3028z"/>
		<path fill="#ffffff" d="M86.7212,51.3028c0.4177,0.2803,1.0256-0.2181,0.877-0.6686l-0.0079-0.0223
			c-2.0471-6.1612-1.7316-10.5775,1.7974-14.8312c6.0093-7.271,3.2837-15.8221-1.7812-19.3473
			c-0.3672-0.2522-1.3941-0.0462-1.0999,0.8259l0.0119,0.0359c2.1759,6.4665,1.6749,10.6017-1.6901,14.7453
			C79.5491,38.5091,81.0059,47.4126,86.7212,51.3028z"/>
		<path fill="#ffffff" d="M78.0952,72.5059H59.4573c-2.8035,0-5.0762,2.2727-5.0762,5.0762s2.2727,5.0762,5.0762,5.0762h18.6379
			c2.8035,0,5.0762-2.2727,5.0762-5.0762S80.8987,72.5059,78.0952,72.5059z"/>
		<path fill="#ffffff" d="M115.8408,42.2957h-5.7563c-1.1861,0-2.3237,0.4703-3.1631,1.3081l-14.791,14.7575H31.2241
			c-1.0874,0-1.9677,0.881-1.9677,1.968v53.4996c0,1.0874,0.8803,1.9683,1.9677,1.9683h75.1045
			c1.0872,0,1.9683-0.8809,1.9683-1.9683V95.5567h7.5439c4.1226,0,7.4649-3.342,7.4649-7.4646v-38.332
			C123.3057,45.6377,119.9634,42.2957,115.8408,42.2957z M35.0576,64.1626h67.438v45.8333h-67.438V64.1626z"/>
	</g>
</g>
</svg>
