<?xml version="1.0" encoding="utf-8"?>
<!-- Generator: Adobe Illustrator 18.1.1, SVG Export Plug-In . SVG Version: 6.00 Build 0)  -->
<svg version="1.2" baseProfile="tiny" xmlns="http://www.w3.org/2000/svg" xmlns:xlink="http://www.w3.org/1999/xlink" x="0px"
	 y="0px" width="128px" height="128px" viewBox="0 0 128 128" xml:space="preserve">
<g id="_x31_28px_boxes" display="none">
	<rect display="inline" fill="none" width="128" height="128"/>
</g>
<g id="Production">
	<g>
		<path fill="#ffffff" d="M112.3399,49.0228L96.5135,14.9573c-0.3355-0.7221-1.2322-0.9348-1.8567-0.4929
			c-27.2256,16.4855-41.1199-3.264-60.2626,2.6004C20.561,21.3013,16.0682,33.3326,16.072,33.4874
			c-0.5639,0.9504-0.7065,2.1387-0.2815,3.2514l29.4101,77.0264h44.6859c-0.1318-11.1377-9.1965-20.1267-20.3659-20.1267
			c-2.7178,0-5.3091,0.5366-7.6802,1.5029l0.0102-0.0254l-13.4396,6.0313L37.0381,71.3616
			c0.0179-0.0341,4.3528-10.3757,17.2251-14.9223c13.0137-4.5967,23.8406,3.3445,36.2728,3.3445
			c8.675,0,17.8693-3.7188,21.7138-9.5462C112.4886,49.8758,112.5228,49.4158,112.3399,49.0228z"/>
		<path fill="#ffffff" d="M105.2413,77.8651c0-5.2871-4.2881-9.5733-9.5767-9.5733c-5.2856,0-9.5737,4.2862-9.5737,9.5733
			c0,5.29,4.2881,9.5737,9.5737,9.5737C100.9532,87.4388,105.2413,83.1551,105.2413,77.8651z"/>
		<circle fill="#ffffff" cx="69.5215" cy="76.6932" r="12.3741"/>
		<path fill="#ffffff" d="M95.6646,90.9749c-4.2268,0-8.061,1.6692-10.8913,4.3782c2.8938,2.3591,6.0922,6.0173,7.7458,11.3855
			h18.9082h0.0015C111.4288,98.0355,104.3707,90.9749,95.6646,90.9749z"/>
	</g>
</g>
</svg>
