<?xml version="1.0" encoding="utf-8"?>
<!-- Generator: Adobe Illustrator 17.1.0, SVG Export Plug-In . SVG Version: 6.00 Build 0)  -->
<!DOCTYPE svg [
	<!ENTITY ns_flows "http://ns.adobe.com/Flows/1.0/">
	<!ENTITY ns_extend "http://ns.adobe.com/Extensibility/1.0/">
	<!ENTITY ns_ai "http://ns.adobe.com/AdobeIllustrator/10.0/">
	<!ENTITY ns_graphs "http://ns.adobe.com/Graphs/1.0/">
]>
<svg version="1.2" baseProfile="tiny" xmlns:x="&ns_extend;" xmlns:i="&ns_ai;" xmlns:graph="&ns_graphs;"
	 xmlns="http://www.w3.org/2000/svg" xmlns:xlink="http://www.w3.org/1999/xlink" xmlns:a="http://ns.adobe.com/AdobeSVGViewerExtensions/3.0/"
	 x="0px" y="0px" width="128px" height="128px" viewBox="0 0 128 128" xml:space="preserve">
<g id="_x31_28px_boxes">
	<rect fill="none" width="128" height="128"/>
</g>
<g id="Production">
	<g>
		<path fill="#ffffff" d="M63.9942,23.9478c0.8041,0.2945,3.5685,3.1615,5.8926,12.0347c2.9093-1.1984,5.7461-2.2359,8.4742-3.1006
			c-2.4607-8.9219-6.8159-17.9443-14.3675-17.9453c-2.9502,0-7.2361,1.5018-10.9004,8.6553
			c-1.3029,2.5444-2.4702,5.6883-3.4638,9.2919c2.7339,0.8682,5.5722,1.9086,8.4756,3.1049
			C60.4415,27.0836,63.2103,24.2387,63.9942,23.9478z"/>
		<path fill="#ffffff" d="M36.7916,55.0888c-5.0784-5.024-7.7211-9.5169-7.4827-11.1128c0.2643-0.2035,1.3347-0.6576,3.6561-0.6576
			c2.9035,0,6.5735,0.6572,10.7085,1.8589c2.9785-1.5796,6.4107-1.9228,9.6145-1.0152c1.8417-1.0532,3.6808-2.0586,5.5097-3.0087
			c-9.9804-4.3736-19.1111-6.835-25.8327-6.835c-7.0145,0-10.104,2.8013-11.4607,5.1509
			c-3.4453,5.9663,0.862,13.7987,8.3584,21.4082C31.9816,58.9434,34.3038,57.0049,36.7916,55.0888z"/>
		<path fill="#ffffff" d="M48.7692,81.1552c-6.2191,2.255-11.7534,3.5279-15.8042,3.5279c-2.3255,0-3.3939-0.4546-3.6561-0.6581
			c-0.1117-0.7105,0.6693-4.1281,6.6671-10.293c2.9237-3.0054,6.541-6.1061,10.6388-9.148
			c5.4913,2.1745,11.4816-1.7872,11.6322-7.6889c20.728-12.2733,37.4368-15.2224,40.4325-12.9195
			c0.4064,2.6203-5.1669,8.8107-7.4835,11.1113c2.5024,1.9258,4.823,3.8642,6.9369,5.794
			c3.0687-3.1119,6.3641-7.0286,8.1562-10.9951c2.2528-4.9864,1.3494-8.417,0.1945-10.417
			c-1.3566-2.3496-4.4464-5.151-11.4605-5.151c-12.7605,0-30.3232,8.3125-41.3391,14.8169
			c-1.1781-0.6161-2.5171-0.9673-3.9388-0.9673c-4.9359,0-8.8711,4.2021-8.4777,9.1759
			c-4.9214,3.6529-9.2246,7.4043-12.6346,11.0478c-3.26,3.484-5.5933,6.7554-6.9347,9.7237
			c-2.2521,4.9862-1.3485,8.417-0.1942,10.4165c1.357,2.3506,4.4465,5.1518,11.461,5.1518c6.7227,0,15.854-2.4615,25.8349-6.836
			C55.3805,85.0712,52.0649,83.1892,48.7692,81.1552z"/>
		<path fill="#ffffff" d="M69.6727,92.8116c-2.2835,8.2675-4.9091,10.957-5.6785,11.2407
			c-0.8027-0.2935-3.568-3.1593-5.8923-12.0337c-2.9096,1.1983-5.7465,2.2358-8.4743,3.1001
			c2.4599,8.9175,6.8151,17.9447,14.3666,17.9447c6.536,0,10.6748-6.7987,13.255-14.3461
			C74.0379,97.7802,71.3375,95.6377,69.6727,92.8116z"/>
		<path fill="#ffffff" d="M101.634,71.0219c-4.0638-4.9209-10.2134-10.3388-17.4634-15.4618c0-0.1632-5.3252-3.6277-5.4657-3.7174
			c-3.0978,1.2002-6.4503,2.6808-9.9852,4.4547c8.6315,5.0031,18.9086,12.2277,25.3701,19.6929
			c4.5676,5.2777,4.6093,7.6801,4.5832,8.0405c-0.509,0.4018-3.1997,1.245-9.5777-0.0269c-0.979-3.6176-4.2832-6.2788-8.2102-6.2788
			c-2.0735,0-3.9743,0.7426-5.4506,1.976c-7.0509-2.8737-14.3752-6.7223-20.9695-10.9101c-2.1249,0.8313-4.4761,1.1096-6.875,0.7085
			c-1.3054,1.0093-2.552,2.021-3.7279,3.0279c8.8849,6.2723,19.173,11.9023,28.7653,15.75
			c0.9166,3.7094,4.2651,6.4609,8.2577,6.4609c2.1368,0,4.0881-0.7895,5.5821-2.0908c7.0833,1.5278,16.3775,2.186,20.0158-4.1148
			C109.1185,83.9698,107.4596,78.0782,101.634,71.0219z"/>
	</g>
</g>
</svg>
