<?xml version="1.0" encoding="utf-8"?>
<!-- Generator: Adobe Illustrator 17.1.0, SVG Export Plug-In . SVG Version: 6.00 Build 0)  -->
<!DOCTYPE svg [
	<!ENTITY ns_flows "http://ns.adobe.com/Flows/1.0/">
	<!ENTITY ns_extend "http://ns.adobe.com/Extensibility/1.0/">
	<!ENTITY ns_ai "http://ns.adobe.com/AdobeIllustrator/10.0/">
	<!ENTITY ns_graphs "http://ns.adobe.com/Graphs/1.0/">
]>
<svg version="1.2" baseProfile="tiny" xmlns:x="&ns_extend;" xmlns:i="&ns_ai;" xmlns:graph="&ns_graphs;"
	 xmlns="http://www.w3.org/2000/svg" xmlns:xlink="http://www.w3.org/1999/xlink" xmlns:a="http://ns.adobe.com/AdobeSVGViewerExtensions/3.0/"
	 x="0px" y="0px" width="128px" height="128px" viewBox="0 0 128 128" xml:space="preserve">
<g id="_x31_28px_boxes">
	<rect fill="none" width="128" height="128"/>
</g>
<g id="Production">
	<g>
		<path fill="#ffffff" d="M66.2762,15.7224c-31.8909,0-56.0882,29.467-49.364,61.045l9.3428-2.4424
			c-5.1355-25.4904,14.4494-48.9586,40.0212-48.9586c22.5119,0,40.8264,18.3146,40.8264,40.8262
			c0,15.8586-9.9941,30.711-23.7639,35.3156c-8.8586,2.963-22.1713-0.0091-21.8171-9.418c6.6364,0.32,12.7389-4.1395,16.8785-9.2615
			c5.2565-6.5041,8.062-14.9822,7.8995-23.8727C85.9555,40.0617,76.119,32.244,75.7004,31.9203
			c-0.6234-0.4817-1.5393-0.0222-1.5137,0.7749c0.0027,0.0812,0.1972,8.1937-5.4463,14.8749
			c-3.8905,4.6081-8.2386,5.9251-12.4436,7.1988c-5.1628,1.5637-10.0394,3.0406-13.141,10.1704
			c-3.1094,7.142-1.0688,15.0283,4.3431,20.6323c2.6722-7.4873,7.2396-13.4178,12.9773-17.531
			c5.5673-3.9911,10.5772-5.1012,10.6272-5.1119c0.2656-0.0592,0.4216,0.2976,0.1938,0.4525
			c-15.2671,10.3633-27.1626,30.1066-13.4653,42.5115c11.865,10.7455,36.2755,8.7553,50.5249-12.3295
			c5.4103-8.0059,8.3898-17.7262,8.3898-27.3706C116.7466,38.3632,94.1058,15.7224,66.2762,15.7224z"/>
		<path fill="#ffffff" d="M38.0705,90.5455l-3.3539-12.8282c-0.2929-1.1215-1.4409-1.7929-2.5614-1.4998
			c-10.5837,2.7668-11.0616,2.8916-19.3331,5.0542c-1.1216,0.2932-1.7931,1.44-1.5,2.5615l3.353,12.8279
			c0.293,1.1199,1.4388,1.793,2.5618,1.5l1.1619-0.3037c1.1081,4.2389,0.719,2.7508,2.5197,9.6396
			c0.3116,1.192,1.5302,1.9067,2.7239,1.595c1.1926-0.3118,1.9068-1.5313,1.595-2.7239c-1.9876-7.6034-1.6199-6.1969-2.5198-9.6397
			l8.2505-2.1567c1.067,4.0824,0.5403,2.0674,2.5198,9.6397c0.3117,1.1924,1.5312,1.9069,2.7239,1.5949
			c1.1926-0.3117,1.9067-1.5312,1.5949-2.7238c-1.7505-6.6965-1.4985-5.7327-2.5199-9.6398l1.2838-0.3356
			C37.6912,92.8142,38.3639,91.6669,38.0705,90.5455z"/>
	</g>
</g>
</svg>
