<?xml version="1.0" encoding="utf-8"?>
<!-- Generator: Adobe Illustrator 18.1.1, SVG Export Plug-In . SVG Version: 6.00 Build 0)  -->
<svg version="1.2" baseProfile="tiny" xmlns="http://www.w3.org/2000/svg" xmlns:xlink="http://www.w3.org/1999/xlink" x="0px"
	 y="0px" width="128px" height="128px" viewBox="0 0 128 128" xml:space="preserve">
<g id="box">
	<rect fill="none" width="128" height="128"/>
</g>
<g id="Production">
	<g>
		<path fill="#ffffff" d="M52.1062,74.6451c6.1748,3.1277,13.1067,3.0843,18.1172-0.768
			c5.7685-4.4364,7.3135-12.6317,4.5212-20.3845l-9.6982,7.4564c-3.0628,2.3558-7.0059,2.2089-10.6924-2.5846
			c-2.3191-3.0167-1.7561-7.3539,1.2644-9.6762l9.6983-7.4569c-6.7754-4.6909-15.0928-5.3025-20.8611-0.8667
			c-5.1961,3.9945-6.9656,11.041-5.2251,18.0659L24.4849,69.7682c-4.531,3.4847-5.3802,9.9834-1.8955,14.5161
			c3.4834,4.5294,9.9812,5.3821,14.5158,1.8953L52.1062,74.6451z"/>
		<path fill="#ffffff" d="M104.5413,18.3165H38.7644c-1.665,0-3.0151,1.3499-3.0151,3.0152v22.2832
			c1.3855-2.9373,3.4123-5.4403,6.031-7.3692V24.3474h59.7444v50.1864c-0.1338,2.6799-1.0027,4.6716-3.6045,5.7117
			c-3.5132,1.406-7.0967,1.6833-14.302,1.6833c-2.6104,0-3.4322,1.8445-3.3592,3.1626c0.3186,5.8177,0.3077,14.3487-2.4226,16.9546
			c-1.3042,1.2444-2.1333,1.5996-3.497,1.5996c-1.6653,0-32.5591,0.0064-32.5591,0.0064V88.7704
			c-1.8638,1.4332-3.3291,2.7116-6.031,3.6394v14.2578c0,1.6653,1.3501,3.0159,3.0151,3.0159c0,0,36.6621-0.0069,37.3464-0.0069
			c2.1031,0,4.136-0.7185,6.0535-1.821c2.7085-1.5581,19.4456-19.4321,21.4014-21.6846c1.9516-2.2468,3.9807-5.4516,3.9902-13.2361
			l0.0005-0.0007V21.3317C107.5564,19.6664,106.2056,18.3165,104.5413,18.3165z"/>
	</g>
</g>
</svg>
