<?xml version="1.0" encoding="utf-8"?>
<!-- Generator: Adobe Illustrator 18.1.1, SVG Export Plug-In . SVG Version: 6.00 Build 0)  -->
<svg version="1.2" baseProfile="tiny" xmlns="http://www.w3.org/2000/svg" xmlns:xlink="http://www.w3.org/1999/xlink" x="0px"
	 y="0px" width="128px" height="128px" viewBox="0 0 128 128" xml:space="preserve">
<g id="_x31_28px_boxes">
	<rect fill="none" width="128" height="128"/>
</g>
<g id="Production">
	<g>
		<path fill="#ffffff" d="M99.0328,83.3597c-6.5185,0-11.7602,5.3166-11.7602,11.7605c0,6.4838,5.2756,11.7592,11.7602,11.7592
			c8.9309,0,14.5591-9.6186,10.333-17.3706C107.3702,85.8484,103.4867,83.3597,99.0328,83.3597z M99.0328,99.6503
			c-2.54,0-4.5302-2.0849-4.5302-4.5301c0-2.4986,2.0319-4.5312,4.5302-4.5312c2.4981,0,4.5308,2.0326,4.5308,4.5312
			C103.5636,97.5706,101.5675,99.6503,99.0328,99.6503z"/>
		<path fill="#ffffff" d="M48.0729,83.3597c-6.5164,0-11.7603,5.3139-11.7603,11.7605c0,6.4838,5.2757,11.7592,11.7603,11.7592
			c8.9258,0,14.5617-9.6145,10.333-17.3706C56.4103,85.8484,52.527,83.3597,48.0729,83.3597z M48.0729,99.6503
			c-2.3037,0-4.2075-1.7303-4.4903-3.9581c-0.3474-2.7606,1.8118-5.1032,4.4903-5.1032c2.498,0,4.5305,2.0326,4.5305,4.5312
			C52.6034,97.5654,50.6127,99.6503,48.0729,99.6503z"/>
		<path fill="#ffffff" d="M124.4523,64.2029l-10.7642-25.4082c-0.6523-1.5398-2.1626-2.5403-3.8352-2.5403h-25.822
			c-2.3003,0-4.1651,1.8648-4.1651,4.1651v24.0749H66.3505l0.0007-11.0088c-0.0064-2.4688-1.2805-4.8706-3.564-6.2108
			L19.3253,21.7613c-1.969-1.1587-4.5412-0.7221-6.0049,1.1167c-1.6025,2.0138-1.2693,4.9449,0.7442,6.5473l0.9126,0.7265
			l0.0005,20.378c0,2.1817-1.6285,3.9566-3.6299,3.9566c-2.0017,0-3.6299-1.7749-3.6299-3.9566v-1.9519
			c0-1.2427-1.0073-2.25-2.25-2.25s-2.25,1.0073-2.25,2.25v1.9519c0,4.6632,3.647,8.4566,8.1299,8.4566s8.1299-3.7934,8.1299-8.4566
			L19.4774,33.733l30.4578,24.2398v6.5216H18.673c-2.0298,0-3.6753,1.6455-3.6753,3.6751v22.0503
			c0,2.0296,1.6455,3.675,3.6753,3.675h12.7876c0.6425-8.7575,7.9858-15.435,16.6123-15.435c8.7456,0,15.9695,6.7615,16.6133,15.435
			h17.7343c0.6436-8.758,7.9859-15.435,16.6123-15.435c8.7469,0,15.9695,6.7622,16.6133,15.435h5.4368
			c2.0298,0,3.675-1.6454,3.675-3.675c0-13.221,0.0242-19.1632,0.0242-24.3921C124.7821,65.2696,124.6698,64.7171,124.4523,64.2029z
			 M93.954,64.4944V44.5846h13.1401l8.4348,19.9098H93.954z"/>
	</g>
</g>
</svg>
