<?xml version="1.0" encoding="utf-8"?>
<!-- Generator: Adobe Illustrator 18.1.1, SVG Export Plug-In . SVG Version: 6.00 Build 0)  -->
<svg version="1.2" baseProfile="tiny" xmlns="http://www.w3.org/2000/svg" xmlns:xlink="http://www.w3.org/1999/xlink" x="0px"
	 y="0px" width="128px" height="128px" viewBox="0 0 128 128" xml:space="preserve">
<g id="_x31_28px_boxes">
	<rect fill="none" width="128" height="128"/>
</g>
<g id="Production">
	<g>
		<path fill="#ffffff" d="M113.5902,62.4191L90.294,52.5722c-1.8305-0.7732-3.9284-0.5676-5.5732,0.5476l-12.8984,8.7434
			l-7.4256-17.7339c0,0-0.0044-0.008-0.011-0.0198c9.5347-3.882,19.4385-10.1218,26.5633-22.5507
			c2.9545-5.1593-4.8517-9.6403-7.8101-4.4727c-0.0288,0.0505-2.96,5.116-8.738,10.6226
			c-8.8387,8.4243-42.7247,19.855-47.0341,18.2575c-1.536-1.0937-5.1953-7.1772-7.8932-13.1362
			c-2.4493-5.4173-10.654-1.7175-8.2007,3.708c7.6108,16.8294,12.0685,18.6338,17.8173,18.6338
			c4.0688,0,9.3479-1.2268,16.1165-3.7151c0.0302-0.011,0.0626-0.0232,0.093-0.0342c2.3773,5.585,8.7464,20.2134,11.3087,26.2766
			c0.9873,2.3408,5.7227,3.987,8.8325,2.0943c1.7329-1.0552,23.2224-15.1778,23.2224-15.1778l20.3609,8.6062
			C116.1598,76.2374,120.7383,65.4407,113.5902,62.4191z"/>
		<path fill="#ffffff" d="M49.7623,35.7538c6.1218-0.8008,10.4436-6.4089,9.6384-12.551
			c-0.8222-6.1165-6.4497-10.427-12.5674-9.6282c-6.1298,0.8147-10.4516,6.4414-9.6262,12.5618
			C38.0155,32.2592,43.6261,36.5649,49.7623,35.7538z"/>
		<path fill="#ffffff" d="M91.2328,85.1896c-0.5992-1.3872-1.7105-2.4895-3.1023-3.0774L77.408,77.5841
			c-10.3036,6.5299-10.5621,6.831-12.8552,7.302l16.8462,7.1143l8.1934,18.9734c3.072,7.1129,13.8428,2.4731,10.7671-4.6494
			L91.2328,85.1896z"/>
		<path fill="#ffffff" d="M39.1637,90.9374c-0.0032,0-0.0064,0.0005-0.0096,0.0005c-0.166-0.5786-0.6981-1.0027-1.33-1.0027
			c-0.0056,0-0.011,0.0007-0.0166,0.0007c-0.0009-0.0029-0.0015-0.0058-0.0024-0.0087l-11.6536,0.0146
			c0.0002,0.0007,0.0004,0.0015,0.0004,0.0015c-0.8793,0.0014-1.5508,0.8166-1.3468,1.6989h-0.0008
			c-0.001,0-0.0021-0.0002-0.0032-0.0002c3.7857,16.3745,19.8943,24.9644,47.6121,22.1135
			C55.4467,111.2182,43.4632,104.4445,39.1637,90.9374z"/>
	</g>
</g>
</svg>
