<?xml version="1.0" encoding="utf-8"?>

<svg version="1.2" baseProfile="tiny" xmlns="http://www.w3.org/2000/svg" xmlns:xlink="http://www.w3.org/1999/xlink" x="0px"
	 y="0px" width="128px" height="128px" viewBox="0 0 128 128" xml:space="preserve">
<g id="_x31_28px_boxes">
	<rect fill="none" width="128" height="128"/>
</g>
<g id="Production">
	<g>
		<path fill="#ffffff" d="M73.0815,69.6176l-1.1063,4.0564l-4.3046-18.3777c-0.2652-1.1232-1.2557-1.9281-2.4125-1.9572
			c-1.1496-0.0337-2.191,0.716-2.5114,1.8295l-3.4877,11.899l-1.3183-2.3065c-0.4435-0.7712-1.2628-1.2631-2.1571-1.2799
			c-0.8918-0.0193-1.7329,0.4315-2.2054,1.1954L51.52,67.9401l-8.7323,0.0073v5.083h10.1494c0.8701,0,1.6824-0.4507,2.1524-1.1858
			l0.5374-0.8652l2.191,3.8128c0.4989,0.8846,1.4918,1.386,2.504,1.263c1.0148-0.1228,1.856-0.8339,2.1451-1.8124l2.4488-8.3683
			l4.3986,18.7273c0.2603,1.14,1.2629,1.9426,2.4318,1.9618h0.0458c1.1545,0,2.1525-0.764,2.4536-1.8774l3.2273-11.8654
			l7.1606,0.0071v-5.0806l-9.0959-0.0096C74.3878,67.7377,73.3804,68.509,73.0815,69.6176z"/>
		<path fill="#ffffff" d="M98.4078,26.1112H84.1081c0.0024,0.1157,0.0313,0.2218,0.0313,0.3374v9.7035h6.375v63.8484
			l-53.0194,0.0843V36.1521h6.3678v-9.7178c0-0.1109,0.0289-0.2147,0.0312-0.3231H29.5994c-1.4434,0-2.632,1.1687-2.632,2.6296
			v79.6109c0,1.4338,1.1442,2.6296,2.632,2.6296h68.8084c1.4449,0,2.6248-1.1533,2.6248-2.6296V28.7408
			C101.0326,27.2839,99.8593,26.1112,98.4078,26.1112z"/>
		<path fill="#ffffff" d="M50.7342,41.5582h26.5409c1.4524,0,2.6272-1.1831,2.6272-2.6295V26.4486
			c0-0.1156-0.0289-0.2217-0.0337-0.3374c-0.1855-4.0129-3.4586-7.2113-7.5197-7.2113h-0.0796
			c-0.0819-1.5714-0.6122-3.02-1.4437-4.2418c-1.4848-2.1885-3.9672-3.637-6.8208-3.6394c-2.8561,0.0024-5.341,1.4509-6.8306,3.6394
			c-0.8291,1.2218-1.3545,2.6679-1.4389,4.2418h-0.0795c-4.0588,0-7.3318,3.1984-7.5221,7.2113
			c-0.0026,0.1157-0.0339,0.2218-0.0339,0.3374v12.4801C48.0998,40.3637,49.2563,41.5582,50.7342,41.5582z M61.0354,18.8999
			c0.2264-1.4676,1.4342-2.6197,2.9694-2.6197c1.5305,0,2.7428,1.1472,2.9597,2.6197c0.0241,0.1448,0.0868,0.2772,0.0868,0.4291
			c0,1.6847-1.3571,3.0392-3.0465,3.0464c-1.6872-0.0072-3.049-1.3689-3.0562-3.0464
			C60.9486,19.1771,61.0161,19.0447,61.0354,18.8999z M53.3662,26.4486c0-0.1205,0.0507-0.2217,0.0675-0.3374
			c0.1686-1.1014,1.0652-1.957,2.2221-1.957h1.6076c0.5615,0.7784,1.2798,1.4099,2.0656,1.957
			c1.3352,0.9304,2.9236,1.521,4.6758,1.521c1.7496-0.0049,3.3332-0.593,4.6685-1.521c0.7857-0.5471,1.5063-1.1809,2.0655-1.957
			h1.6101c1.1543,0,2.0558,0.8556,2.2246,1.957c0.0168,0.1157,0.0649,0.2169,0.0649,0.3374v9.8482H53.3662V26.4486z"/>
	</g>
</g>
</svg>
