<?xml version="1.0" encoding="utf-8"?>
<!-- Generator: Adobe Illustrator 18.1.1, SVG Export Plug-In . SVG Version: 6.00 Build 0)  -->
<svg version="1.2" baseProfile="tiny" xmlns="http://www.w3.org/2000/svg" xmlns:xlink="http://www.w3.org/1999/xlink" x="0px"
	 y="0px" width="128px" height="128px" viewBox="0 0 128 128" xml:space="preserve">
<g id="_x31_28px_boxes">
	<rect fill="none" width="128" height="128"/>
</g>
<g id="Production">
	<g>
		<path fill="#ffffff" d="M85.619,98.2825c-4.5364,0-8.2373,3.7058-8.2373,8.2373c0,4.5491,3.7009,8.2395,8.2373,8.2395
			c4.5493,0,8.2398-3.6904,8.2398-8.2395C93.8588,101.9883,90.1683,98.2825,85.619,98.2825z"/>
		<path fill="#ffffff" d="M61.2264,98.2825c-4.5444,0-8.2395,3.7058-8.2395,8.2373c0,4.5491,3.6951,8.2395,8.2395,8.2395
			c4.5445,0,8.2398-3.6904,8.2398-8.2395C69.4662,101.9883,65.7709,98.2825,61.2264,98.2825z"/>
		<path fill="#ffffff" d="M102.7694,41H46.4498l-2.5437-8.391c-0.5219-1.7049-2.0957-2.9127-3.8855-2.9205H26.2801
			c-2.2451-0.0154-4.2074,1.7774-4.2123,4.0325C22.06,35.9688,24,37.8025,26,37.8181l0,0h10.8549l16.6528,54.5094
			C54.0272,94.0374,55.6744,95,57.472,95h33.8689c2.2474,0,4.0735-1.7522,4.0735-4c0-2.2502-1.8261-4-4.0735-4H60.4911
			l-2.6153-8.4578h35.939c1.4297,0,2.6875-0.8756,3.0808-2.2616l8.9524-31.2161C106.4293,43.0192,104.8993,41,102.7694,41z
			 M48.399,47h12.8997l0.6428,10H51.2023L48.399,47z M55.9288,72l-2.7824-9h9.2375l0.6401,9H55.9288z M77.495,72h-8.0469l-0.6401-9
			h9.3247L77.495,72z M78.5775,57H68.3632l-0.6431-10h11.498L78.5775,57z M91.4003,72h-7.4786l0.6402-9h9.4663L91.4003,72z
			 M95.8595,56.6433C95.826,56.6433,95.8026,57,95.7694,57H85.0043l0.643-10h12.8636L95.8595,56.6433z"/>
		<path fill="#ffffff" d="M62.8573,27.1404l11.5,7.6347l3.8433-5.7744l-3.6582-2.4609l11.6218-5.2007L92.7692,37h7.5102
			l-9.1401-21.6378c-0.7605-1.7913-2.8507-2.6568-4.6172-1.8501l-18.7317,8.526l-3.8853-2.6129
			c-1.5563-1.0412-3.6579-0.5466-4.7409,0.98L47.4708,37h8.4749L62.8573,27.1404z"/>
	</g>
</g>
</svg>
