<?xml version="1.0" encoding="utf-8"?>

<svg version="1.2" baseProfile="tiny" xmlns="http://www.w3.org/2000/svg" xmlns:xlink="http://www.w3.org/1999/xlink" x="0px"
	 y="0px" width="128px" height="128px" viewBox="0 0 128 128" xml:space="preserve">
<g id="_x31_28px_boxes">
	<rect fill="none" width="128" height="128"/>
</g>
<g id="Production">
	<path fill="#ffffff" d="M97.4929,52.0532c3.3308-16.8846-9.5838-32.5611-26.739-32.5611c-12.5658,0-23.1437,8.5041-26.2972,20.0705
		c-16.091-4.2191-31.7932,7.9364-31.7932,24.5199c0,13.9991,11.3485,25.3472,25.3476,25.3472h0.0001h10.5325
		c-2.2978-2.2858-1.0233-1.0178-10.5326-10.4794l-0.3854-0.3838c-1.5026-1.4946-0.423-4.0508,1.672-4.0508h11.8214
		c0-8.8023,0-15.344,0-25.0792c8.56,0-15.1893,0,26.6082,0c0,9.3496,0,15.7194,0,25.0792c7.593,0-5.7346,0,11.8213,0
		c1.9023,0,3.4015,2.3275,1.4706,4.2515C67.6188,102.05,70.1426,99.5351,65.054,104.6089l3.2248,3.2085
		c0.9229,0.9181,2.4173,0.9219,3.344,0L90.103,89.4297h6.381v-0.0039c10.3565,0.0987,18.8525-8.2876,18.8525-18.6951
		C115.3365,60.6904,107.4229,52.5007,97.4929,52.0532z"/>
</g>
</svg>
