<?xml version="1.0" encoding="utf-8"?>
<!-- Generator: Adobe Illustrator 17.1.0, SVG Export Plug-In . SVG Version: 6.00 Build 0)  -->
<!DOCTYPE svg [
	<!ENTITY ns_flows "http://ns.adobe.com/Flows/1.0/">
	<!ENTITY ns_extend "http://ns.adobe.com/Extensibility/1.0/">
	<!ENTITY ns_ai "http://ns.adobe.com/AdobeIllustrator/10.0/">
	<!ENTITY ns_graphs "http://ns.adobe.com/Graphs/1.0/">
]>
<svg version="1.2" baseProfile="tiny" xmlns:x="&ns_extend;" xmlns:i="&ns_ai;" xmlns:graph="&ns_graphs;"
	 xmlns="http://www.w3.org/2000/svg" xmlns:xlink="http://www.w3.org/1999/xlink" xmlns:a="http://ns.adobe.com/AdobeSVGViewerExtensions/3.0/"
	 x="0px" y="0px" width="128px" height="128px" viewBox="0 0 128 128" xml:space="preserve">
<g id="_x31_28px_boxes">
	<rect fill="none" width="128" height="128"/>
</g>
<g id="Production">
	<path fill="#ffffff" d="M115.3449,40.7909c-5.3158-5.4754-13.3813-9.5079-20.7607-11.6271
		c0.042-5.5891-3.6835-9.2141-8.2022-9.2141H58.1469c-2.1759,0-4.2621,1.3777-5.8003,2.9165L9.8276,65.6538
		c-3.2023,3.2028-3.202,8.5243,0.001,11.7271l28.1872,28.2505c3.2034,3.203,8.3966,3.2362,11.5996,0.0332l26.7658-26.75
		c-2.2064-1.5913-5.3209-3.6748-10.2399-6.0022c-10.0438-4.7522-19.3851-4.3139-24.1794-2.1687
		c-0.3245,0.1455-0.1924,0.6362,0.1626,0.5984c5.6213-0.5998,15.4573,0.8446,22.5543,6.4519
		c-2.5884,3.7234-6.1418,5.8294-11.9481,5.8294c-6.7605,0-13.6203-3.125-18.3495-8.3593
		c-7.4165-8.2066-7.2686-16.0196-7.2586-16.3481c0.0298-0.9831,1.2448-1.4315,1.9059-0.7033
		c0.0274,0.0298,3.0148,3.2241,7.5751,3.3081c8.0015,0.1439,10.6385-8.9665,20.8437-6.1654
		c6.0504,1.656,9.8831,6.8553,10.0113,13.2008c4.0713,1.7282,8.0337,4.042,12.1944,7.1037L92.169,63.145
		c0.729-0.7287,1.3045-2.1074,1.7105-3.0335c4.2154,1.1463,22.6168,3.416,26.0647-5.5075
		C121.8792,49.5884,119.0743,44.6318,115.3449,40.7909z M42.0919,71.1297h-0.0016l0.0021-0.001L42.0919,71.1297z M112.3681,51.4763
		c-0.689,1.7842-7.3293,2.0558-12.8578,1.3971c-7.3802-0.8793-14.4621-4.0948-19.1787-7.9345
		c-0.0315,0.0332-0.0619,0.1264-0.0951,0.1593c-3.9056,3.9057-10.461,1.9511-11.7214-3.2312
		c-0.9422-3.88,1.5386-7.696,5.3674-8.4861c4.2107-0.8694,8.1752,2.2244,8.3905,6.4806c3.4245,2.9843,7.9867,5.3337,12.304,6.8723
		l0.0039-9.061C105.1748,41.2915,113.453,48.6649,112.3681,51.4763z"/>
</g>
</svg>
