<?xml version="1.0" encoding="utf-8"?>
<!-- Generator: Adobe Illustrator 18.1.1, SVG Export Plug-In . SVG Version: 6.00 Build 0)  -->
<svg version="1.2" baseProfile="tiny" xmlns="http://www.w3.org/2000/svg" xmlns:xlink="http://www.w3.org/1999/xlink" x="0px"
	 y="0px" width="128px" height="128px" viewBox="0 0 128 128" xml:space="preserve">
<g id="_x31_28px_boxes">
	<rect fill="none" width="128" height="128"/>
</g>
<g id="Production">
	<g>
		<path fill="#ffffff" d="M63.8995,64.0828l23.2597-13.0381V23.7141c0-4.9016-3.9734-8.875-8.875-8.875H49.7164
			c-4.9015,0-8.875,3.9734-8.875,8.875v27.356L63.8995,64.0828z M60.8277,48.993c0-1.7522,1.4204-3.1722,3.1723-3.1722
			c1.752,0,3.1724,1.42,3.1724,3.1722c0,1.7519-1.4204,3.1723-3.1724,3.1723C62.2481,52.1653,60.8277,50.7449,60.8277,48.993z
			 M64,41.013c-1.7519,0-3.1723-1.4202-3.1723-3.1724c0-1.7517,1.4204-3.1721,3.1723-3.1721c1.752,0,3.1724,1.4204,3.1724,3.1721
			C67.1724,39.5928,65.752,41.013,64,41.013z M75.3689,52.1653c-1.7522,0-3.1723-1.4204-3.1723-3.1723
			c0-1.7522,1.4201-3.1722,3.1723-3.1722c1.7517,0,3.1717,1.42,3.1717,3.1722C78.5406,50.7449,77.1206,52.1653,75.3689,52.1653z
			 M75.3689,41.013c-1.7522,0-3.1723-1.4202-3.1723-3.1724c0-1.7517,1.4201-3.1721,3.1723-3.1721
			c1.7517,0,3.1717,1.4204,3.1717,3.1721C78.5406,39.5928,77.1206,41.013,75.3689,41.013z M78.5406,26.6885
			c0,1.7517-1.42,3.1724-3.1717,3.1724c-1.7522,0-3.1723-1.4207-3.1723-3.1724c0-1.7524,1.4201-3.1724,3.1723-3.1724
			C77.1206,23.5161,78.5406,24.9361,78.5406,26.6885z M67.1724,26.6885c0,1.7517-1.4204,3.1724-3.1724,3.1724
			c-1.7519,0-3.1723-1.4207-3.1723-3.1724c0-1.7524,1.4204-3.1724,3.1723-3.1724C65.752,23.5161,67.1724,24.9361,67.1724,26.6885z
			 M52.6314,23.5161c1.7519,0,3.1719,1.42,3.1719,3.1724c0,1.7517-1.42,3.1724-3.1719,3.1724c-1.7522,0-3.1724-1.4207-3.1724-3.1724
			C49.459,24.9361,50.8792,23.5161,52.6314,23.5161z M52.6314,34.6685c1.7519,0,3.1719,1.4204,3.1719,3.1721
			c0,1.7522-1.42,3.1724-3.1719,3.1724c-1.7522,0-3.1724-1.4202-3.1724-3.1724C49.459,36.0889,50.8792,34.6685,52.6314,34.6685z
			 M52.6314,45.8208c1.7519,0,3.1719,1.42,3.1719,3.1722c0,1.7519-1.42,3.1723-3.1719,3.1723c-1.7522,0-3.1724-1.4204-3.1724-3.1723
			C49.459,47.2408,50.8792,45.8208,52.6314,45.8208z"/>
		<path fill="#ffffff" d="M46.2287,97.6626c1.8802,1.7696,4.3691,3.2437,7.2713,4.2962v11.2021h21V101.959
			c2.8868-1.0469,5.3638-2.5112,7.2405-4.268L63.8995,87.69L46.2287,97.6626z"/>
		<path fill="#ffffff" d="M95.5931,75.8865l5.8293-20.3247c0.922-3.2154-2.5253-5.9376-5.4382-4.3052L63.892,69.2456L32.0254,51.262
			c-2.9183-1.647-6.3696,1.0863-5.4476,4.2998l5.8298,20.3247l-5.8298,20.325c-0.924,3.2212,2.5357,5.9427,5.4478,4.2998
			L63.892,82.5271l32.0919,17.9895c2.9136,1.6326,6.3593-1.0942,5.4385-4.3051L95.5931,75.8865z M67.3836,75.8865L91.7,62.2561
			l-3.6128,12.5965c-0.1936,0.6758-0.1936,1.3921,0,2.0678L91.7,89.5171L67.3836,75.8865z M60.3991,75.8865L36.3108,89.4807
			l3.6027-12.5603c0.1938-0.6757,0.1938-1.3923,0-2.0678l-3.6028-12.5603L60.3991,75.8865z"/>
	</g>
</g>
</svg>
