<?xml version="1.0" encoding="utf-8"?>
<!-- Generator: Adobe Illustrator 18.1.0, SVG Export Plug-In . SVG Version: 6.00 Build 0)  -->
<svg version="1.2" baseProfile="tiny" xmlns="http://www.w3.org/2000/svg" xmlns:xlink="http://www.w3.org/1999/xlink" x="0px"
	 y="0px" width="64px" height="64px" viewBox="0 0 64 64" xml:space="preserve">
<g id="_x36_4px_boxes">
	<rect fill="none" width="64" height="64"/>
</g>
<g id="Production">
	<g>
		<path fill="#ffffff" d="M46.3281,39.3408L52.9502,46h-9.5645c-2.9096,0-4.9492-1.3154-6.6128-4.3037
			c-1.2529-2.249-4.56-7.6592-6.0991-10.166c1.5391-2.5147,4.8462-7.9444,6.0991-10.1944C38.4365,18.3486,40.4761,17,43.3857,17
			h9.6402l-6.6978,6.7354l3.5449,3.5253l12.6529-12.7226L49.873,1.8154l-3.5449,3.5254L52.9502,12h-9.5645
			c-4.7417,0-8.436,2.334-10.9809,6.9033c-1.5615,2.8028-6.6992,11.166-6.7901,11.3135l-0.0034-0.002
			c-0.2153,0.3497-5.2852,8.5743-6.9057,11.4844C17.042,44.6865,15.0024,46,12.0928,46H1v5h11.0928
			c4.7417,0,8.436-2.3008,10.981-6.8701c0.9102-1.6338,3.0327-5.1406,4.666-7.8174c1.6333,2.6777,3.7554,6.1855,4.6651,7.8184
			C34.9497,48.7012,38.644,51,43.3857,51h9.6402l-6.6978,6.7354l3.5449,3.5253l12.6529-12.7226L49.873,35.8154L46.3281,39.3408z"/>
		<path fill="#ffffff" d="M18.7056,21.3369c0.7216,1.2959,2.1274,3.6494,3.4838,5.8945c0.9468-1.5556,2.0195-3.3281,2.9213-4.8466
			c-0.8374-1.4004-1.5874-2.6729-2.037-3.4805C20.5287,14.334,16.8345,12,12.0928,12H1v5h11.0928
			C15.0024,17,17.042,18.3486,18.7056,21.3369z"/>
	</g>
</g>
</svg>

