<?xml version="1.0" encoding="utf-8"?>
<!-- Generator: Adobe Illustrator 18.1.1, SVG Export Plug-In . SVG Version: 6.00 Build 0)  -->
<svg version="1.2" baseProfile="tiny" xmlns="http://www.w3.org/2000/svg" xmlns:xlink="http://www.w3.org/1999/xlink" x="0px"
	 y="0px" width="128px" height="128px" viewBox="0 0 128 128" xml:space="preserve">
<g id="box">
	<rect fill="none" width="128" height="128"/>
</g>
<g id="Production">
	<g>
		<path fill="#ffffff" d="M110.7906,18.3165H45.0138c-1.6653,0-3.0154,1.3501-3.0154,3.015v10.0059
			c1.9716-0.5324,4.0155-0.6063,6.0313-0.2135v-6.7765h59.7448v50.1863c-0.134,2.6799-1.0031,4.6714-3.6054,5.7115
			c-3.513,1.4062-7.0965,1.6831-14.3015,1.6831c-2.4988,0-3.4394,1.7291-3.3597,3.163c0.3191,5.8176,0.3081,14.3486-2.4216,16.9544
			c-1.3047,1.2446-2.134,1.5996-3.498,1.5996c-1.6651,0-32.5586,0.0066-32.5586,0.0066V91.3058
			c-2.0573,0.401-4.1151,0.305-6.0313-0.2123v15.5743c0,1.6653,1.3501,3.0157,3.0154,3.0157c0,0,36.6619-0.007,37.3467-0.007
			c2.1028,0,4.1352-0.7184,6.053-1.8212c2.7084-1.5581,19.4458-19.4321,21.4013-21.6842c1.9519-2.2471,3.981-5.4517,3.991-13.2365
			v-0.0005V21.3315C113.8058,19.6666,112.455,18.3165,110.7906,18.3165z"/>
		<path fill="#ffffff" d="M53.6927,78.2002c-0.0009-3.3678-2.0258-6.2599-4.9248-7.5299v-6.1611h16.4722v6.1611
			c-2.8994,1.27-4.9248,4.1621-4.9253,7.5299c0.001,4.5399,3.6785,8.2184,8.2188,8.2197c4.5405-0.0013,8.2185-3.6798,8.2197-8.2197
			c-0.0007-3.3678-2.0264-6.2599-4.9251-7.5299V57.9202H48.7679v-6.1613c2.899-1.27,4.9239-4.1623,4.9244-7.5301
			c-0.0006-4.5774-3.7223-8.2189-8.2188-8.2195c-4.5093,0.0008-8.2186,3.6534-8.22,8.2195
			c0.0013,3.2966,1.9441,6.1328,4.7449,7.4427c0.0606,0.0285,0.1196,0.0604,0.1812,0.0874v6.1613h-0.1812H19.119V70.67
			c-2.8989,1.2697-4.9248,4.1624-4.9248,7.5302c0.0005,4.5399,3.6785,8.2184,8.2183,8.2197
			c4.5403-0.0013,8.219-3.6798,8.2195-8.2197c-0.0005-3.3678-2.0259-6.2596-4.9241-7.5299v-6.1611h16.2905h0.1812v6.1611
			c-0.0616,0.027-0.1206,0.0588-0.1812,0.0874c-2.8008,1.3099-4.7436,4.1462-4.7441,7.4425
			c0.0006,4.5591,3.7042,8.218,8.2192,8.2197C49.9802,86.418,53.6912,82.7673,53.6927,78.2002z"/>
	</g>
</g>
</svg>
