<?xml version="1.0" encoding="utf-8"?>
<!-- Generator: Adobe Illustrator 18.1.1, SVG Export Plug-In . SVG Version: 6.00 Build 0)  -->
<svg version="1.2" baseProfile="tiny" xmlns="http://www.w3.org/2000/svg" xmlns:xlink="http://www.w3.org/1999/xlink" x="0px"
	 y="0px" width="128px" height="128px" viewBox="0 0 128 128" xml:space="preserve">
<g id="box">
	<rect fill="none" width="128" height="128"/>
</g>
<g id="Production">
	<g>
		<path fill="#ffffff" d="M119.6755,22.4252c-6.0554-0.7712-11.0517-3.6473-13.7077-7.8907
			c-0.7757-1.2394-2.9397-1.5877-3.876,0.1044c-1.7971,3.2479-5.0215,5.4302-8.0235,5.4302c-0.0097,0-87.6921,0.0014-87.6921,0.0014
			v9h19.1829c-0.5347,3.5632,2.2229,6.7451,5.8017,6.7451c3.5852,0,6.3355-3.1877,5.8018-6.7451h41.5495
			c-0.5346,3.5632,2.2229,6.7451,5.8018,6.7451c3.6001,0,6.3259-3.209,5.8018-6.7031c0,0,3.6057,0,3.7526,0
			c3.1429,0,6.0672,2.0278,8.0235,5.5635c0.7722,1.3956,2.9502,1.584,3.876,0.1043c3.6359-5.8094,10.1491-7.4376,13.708-7.8912
			C122.2641,26.5593,122.2822,22.7572,119.6755,22.4252z"/>
		<path fill="#ffffff" d="M71.9909,65.1228l1.6148,14.8818c3.583-1.4006,7.2263-4.4818,8.1597-9.0958
			c0.4995-2.4696,0.2028-4.4605-0.8579-5.7572C78.905,62.7031,74.5437,63.3194,71.9909,65.1228z"/>
		<path fill="#ffffff" d="M98.6504,45.1037c-8.8023,0-14.0581-2.5146-19.6223-5.1768c-5.669-2.7124-11.5308-5.517-21.0906-5.517
			c-9.6536,0-15.5445,2.8184-21.2412,5.5441c-5.5352,2.6484-10.7632,5.1497-19.4722,5.1497c-1.0356,0-1.875,0.8395-1.875,1.875
			v54.9669c0,1.0355,0.8394,1.875,1.875,1.875c8.709,0,13.937,2.5014,19.4722,5.1497c5.6967,2.7257,11.5876,5.5442,21.2412,5.5442
			c9.5598,0,15.4216-2.8047,21.0906-5.517c5.5642-2.6622,10.82-5.1769,19.6223-5.1769c1.0356,0,1.875-0.8395,1.875-1.875V46.9787
			C100.5254,45.9432,99.686,45.1037,98.6504,45.1037z M87.6462,72.0985c-1.4519,7.1769-7.3586,12.2007-13.3772,14.0191
			c0,0,0.5865,5.3501,0.5865,5.5214c0,1.6569-1.3431,3-3,3c-0.0015,0-0.0035,0-0.0049,0H42.2344
			c-1.729,0-3.1729-1.5723-2.9825-3.3236l3.8631-35.5988c0.1653-1.5227,1.4509-2.6763,2.9824-2.6763h21.8904
			c1.5315,0,2.8174,1.1536,2.9824,2.6763l0.3223,2.9687c4.3178-1.7607,10.414-2.0335,14.2592,2.6673
			C87.1128,63.2611,88.7434,66.6745,87.6462,72.0985z"/>
		<path fill="#ffffff" d="M60.5759,67.882c-3.6138,0-1.5476,5.9601-5.405,5.9601s-1.8653-5.9601-5.9912-5.9601
			c-0.5313,0-0.9776,0-1.3496,0l-2.2525,20.757h22.93l-2.2525-20.757C64.155,67.882,61.2961,67.882,60.5759,67.882z"/>
	</g>
</g>
</svg>

