<?xml version="1.0" encoding="utf-8"?>
<!-- Generator: Adobe Illustrator 18.1.0, SVG Export Plug-In . SVG Version: 6.00 Build 0)  -->
<svg version="1.2" baseProfile="tiny" xmlns="http://www.w3.org/2000/svg" xmlns:xlink="http://www.w3.org/1999/xlink" x="0px"
	 y="0px" width="64px" height="64px" viewBox="0 0 64 64" xml:space="preserve">
<g id="_x36_4px_boxes">
	<rect fill="none" width="64" height="64"/>
</g>
<g id="Production">
	<g>
		<rect x="34" y="32" fill="#ffffff" width="5" height="5"/>
		<rect x="43" y="32" fill="#ffffff" width="5" height="5"/>
		<rect x="43" y="41" fill="#ffffff" width="5" height="5"/>
		<rect x="15" y="32" fill="#ffffff" width="5" height="5"/>
		<rect x="15" y="23" fill="#ffffff" width="5" height="5"/>
		<rect x="15" y="14" fill="#ffffff" width="5" height="5"/>
		<rect x="24" y="14" fill="#ffffff" width="5" height="5"/>
		<rect x="15" y="41" fill="#ffffff" width="5" height="5"/>
		<rect x="34" y="41" fill="#ffffff" width="5" height="5"/>
		<polygon fill="#ffffff" points="24,23 24,54 10,54 10,10 34,10 34,19 39,19 39,5 5,5 5,59 29,59 29,28 53,28 53,54 39,54 39,50 
			34,50 34,59 58,59 58,23 		"/>
	</g>
</g>
</svg>

