<?xml version="1.0" encoding="utf-8"?>
<!-- Generator: Adobe Illustrator 19.1.0, SVG Export Plug-In . SVG Version: 6.00 Build 0)  -->
<svg version="1.2" baseProfile="tiny" xmlns="http://www.w3.org/2000/svg" xmlns:xlink="http://www.w3.org/1999/xlink" x="0px"
	 y="0px" width="64px" height="64px" viewBox="0 0 64 64" xml:space="preserve">
<g id="box">
	<rect fill="none" width="64" height="64"/>
</g>
<g id="Production">
	<g>
		<path fill="#ffffff" d="M54,35c-2.9539,0-5.5718,1.437-7.2139,3.6415l2.063,0.6348C50.1296,37.8812,51.9614,37,54,37
			c3.8599,0,7,3.1401,7,7s-3.1401,7-7,7c-3.5161,0-6.4266-2.6084-6.9187-5.9902l-2.0623-0.6346C45.2179,49.163,49.1643,53,54,53
			c4.9624,0,9-4.0376,9-9S58.9624,35,54,35z"/>
		<path fill="#ffffff" d="M53.7061,44.9556c0.0977,0.0303,0.1968,0.0449,0.2944,0.0449c0.4272,0,0.8232-0.2764,0.9551-0.7065
			c0.1626-0.5278-0.1338-1.0874-0.6616-1.2495l-12.458-3.8333c1.3204-0.5523,2.516-1.4274,3.4541-2.6121L59.2241,19H51.678
			c0-0.0001-0.0001-0.0004-0.0002-0.0005l-5.1328-5.7305c-1.4858-1.6592-4.0371-1.8979-5.8066-0.5454l-2.7061,2.0693l-1.27-0.7617
			c-1.2529-0.7515-2.8135-0.665-3.9751,0.2183L26.5441,19h-7.5377l1.6284,11.5703c0.1116,0.7924,0.3718,1.5386,0.7305,2.2285
			c-0.7612-0.4113-1.4192-1.0018-1.896-1.7348L11.001,18.042c-0.8706-1.3379-2.1812-2.3613-3.6904-2.8823l-4.8491-1.6719
			c-0.5254-0.1816-1.0923,0.0977-1.2715,0.6191c-0.1802,0.5225,0.0972,1.0913,0.6191,1.2715l4.8491,1.6719
			c1.0903,0.3765,2.0376,1.1157,2.666,2.082l8.4683,13.0225c0.9189,1.4116,2.311,2.4619,3.9199,2.9565l2.1409,0.6587l0.1824,8.1016
			c0.0537,2.394,1.5649,4.4053,3.8501,5.123c2.2728,0.7148,4.6683-0.0582,6.0884-2l4.8425-6.6204L53.7061,44.9556z M33.998,15.8413
			c0.5068-0.3857,1.188-0.4233,1.7349-0.0952l2.4351,1.4609l3.7852-2.8945c0.9458-0.7227,2.3081-0.5957,3.1025,0.291L48.9939,19
			h-19.147L33.998,15.8413z M55.0894,21L43.7217,35.3579c-1.7144,2.1648-4.5259,3.0398-7.1658,2.2286l-10.4661-3.2208
			c-1.8418-0.5664-3.2056-2.1655-3.4746-4.0742L21.3071,21H55.0894z M32.3599,45.814c-1.0923,1.4922-2.7188,1.6362-3.8745,1.2725
			c-1.1572-0.3633-2.4087-1.4106-2.4507-3.2598l-0.1675-7.4369l10.9268,3.3621L32.3599,45.814z"/>
	</g>
</g>
</svg>

