<?xml version="1.0" encoding="utf-8"?>
<!-- Generator: Adobe Illustrator 18.1.1, SVG Export Plug-In . SVG Version: 6.00 Build 0)  -->
<svg version="1.2" baseProfile="tiny" xmlns="http://www.w3.org/2000/svg" xmlns:xlink="http://www.w3.org/1999/xlink" x="0px"
	 y="0px" width="128px" height="128px" viewBox="0 0 128 128" xml:space="preserve">
<g id="_x31_28px_boxes">
	<rect fill="none" width="128" height="128"/>
</g>
<g id="Production">
	<g>
		<path fill="#ffffff" d="M37.5952,70.5062l-0.0191-0.0002c-2.3545,0-4.55,0.7302-6.143,2.3247
			c-0.3948,0.3959-0.3936,1.0352,0,1.4289l6.2927,6.2927c-0.7127,0.7122-1.2232,1.3124-1.6785,2.3479
			c-1.1047,2.5191-0.6328,5.5628,1.4295,7.6246c2.0612,2.0617,5.1049,2.5334,7.6228,1.4289
			c1.0344-0.454,1.6357-0.9649,2.3491-1.6792l6.2927,6.2925c0.3943,0.3943,1.0335,0.3948,1.4275,0.0007
			c1.6006-1.5971,2.3306-3.8005,2.3267-6.1616c-0.0132-4.3174-2.3272-9.3047-6.4556-13.4458
			C46.9006,72.8329,41.9135,70.5191,37.5952,70.5062z"/>
		<path fill="#ffffff" d="M93.8259,58.5143c2.1015-2.0961,3.05-4.5533,3.0449-7.044c-0.011-5.0516-3.8064-9.779-7.3645-13.3423
			c-3.467-3.4625-8.0059-7.0429-12.9006-7.05H76.583c-2.5154,0-4.9781,0.9758-7.0965,3.0964
			C65.7832,37.8773,44.0539,59.608,44.0539,59.608c-1.2817,1.2804-1.2832,3.3581,0,4.6399l19.699,19.6995
			c1.2815,1.2815,3.3591,1.2815,4.6404-0.0003C68.3933,83.9471,89.9821,62.3583,93.8259,58.5143z"/>
		<path fill="#ffffff" d="M35.1318,55.2635c1.2742,1.2737,3.3564,1.2842,4.6406,0l24.7131-24.7141
			c1.282-1.2812,1.2815-3.3589,0-4.6399L44.4169,5.8399c-1.2624-1.2643-3.3391-1.2985-4.6403,0L15.0634,30.5538
			c-1.2749,1.2762-1.2829,3.3573-0.0005,4.6397L35.1318,55.2635z M42.0971,12.8004l15.4285,15.4285L37.4523,48.3026L22.0244,32.8741
			L42.0971,12.8004z"/>
		<path fill="#ffffff" d="M122.1599,83.5834l-20.0684-20.0682c-1.2705-1.2715-3.3542-1.2866-4.6409-0.0002L72.737,88.2291
			c-1.2759,1.2758-1.2829,3.3559,0,4.6401l20.0684,20.0689c1.282,1.2812,3.3586,1.2812,4.6406,0l24.7139-24.7136
			C123.4411,86.9427,123.4414,84.8653,122.1599,83.5834z M95.1257,105.9774L79.6975,90.5492l20.0737-20.0735l15.4282,15.4282
			L95.1257,105.9774z"/>
		<path fill="#ffffff" d="M25.2087,83.0619c0.0007-0.0359,0-0.074-0.0012-0.114c0-0.0147,0.0012-0.0289,0.0012-0.0435h-6.8733
			c0,0.0525-0.0034,0.104-0.0034,0.1565c0,0.0342,0.0005,0.0684,0.0017,0.1023c0.0569,14.6482,11.9446,26.5034,26.6064,26.5061
			c0.0227,0,0.0464-0.0005,0.0691-0.001c0.0293,0,0.0572-0.0022,0.0865-0.0022v-6.8762c-0.0523,0.0005-0.1036,0.0039-0.1556,0.0041
			C34.0778,102.7902,25.2114,94.0009,25.2087,83.0619z"/>
		<path fill="#ffffff" d="M11.7558,82.9669c0.0007-0.021-0.0005-0.0418-0.0005-0.0625l-6.8755,0.0002
			c0,0.0201-0.0007,0.0403-0.0007,0.0603c0,0.0403,0,0.0806,0.0017,0.1209c0.0659,22.123,18.0159,40.0334,40.1553,40.0354h0.001
			c0.0195,0,0.039-0.0007,0.0586-0.0007v-6.8748c-0.0474-0.001-0.0957-0.001-0.1426,0
			C26.6037,116.1979,11.7587,101.3187,11.7558,82.9669z"/>
	</g>
</g>
</svg>
