<?xml version="1.0" encoding="utf-8"?>

<svg version="1.2" baseProfile="tiny" xmlns="http://www.w3.org/2000/svg" xmlns:xlink="http://www.w3.org/1999/xlink" x="0px"
	 y="0px" width="128px" height="128px" viewBox="0 0 128 128" xml:space="preserve">
<g id="_x31_28px_boxes">
	<rect fill="none" width="128" height="128"/>
</g>
<g id="Production">
	<path fill="#ffffff" d="M63.5,17C37.8188,17,17,37.8187,17,63.5C17,89.1812,37.8188,110,63.5,110c25.6813,0,46.5-20.8188,46.5-46.5
		C110,37.8187,89.1813,17,63.5,17z M68.6766,100.6358c-0.8828,0.122-1.7752,0.2126-2.6766,0.272V87h13.0195
		C76.4661,93.5331,72.8518,98.4002,68.6766,100.6358z M47.9805,87H61v13.9078c-0.9014-0.0594-1.7938-0.15-2.6766-0.272
		C54.1482,98.4002,50.5339,93.5331,47.9805,87z M66,40V26.3215C71.0737,27.5878,75.5376,32.6451,78.6162,40H66z M80.3848,45
		c1.4179,4.7745,2.3165,10.2032,2.549,16H66V45H80.3848z M61,26.3215V40H48.3838C51.4624,32.6451,55.9263,27.5878,61,26.3215z
		 M61,45v16H44.0662c0.2325-5.7968,1.1311-11.2255,2.549-16H61z M39.0457,61H26.0922c0.3817-5.7922,2.0772-11.2222,4.7933-16H41.438
		C40.0742,49.8846,39.2366,55.2916,39.0457,61z M26.0922,66h12.9535c0.1909,5.7084,1.0285,11.1154,2.3923,16H30.8855
		C28.1694,77.2222,26.4739,71.7922,26.0922,66z M44.0271,66H61v16H46.3239C44.9949,77.194,44.1807,71.7678,44.0271,66z M66,82V66
		h16.9729c-0.1536,5.7678-0.9678,11.194-2.2968,16H66z M87.9543,66h12.9535c-0.3817,5.7922-2.0772,11.2222-4.7933,16H85.562
		C86.9258,77.1154,87.7634,71.7084,87.9543,66z M87.9543,61c-0.1909-5.7084-1.0285-11.1154-2.3923-16h10.5525
		c2.7161,4.7778,4.4116,10.2078,4.7933,16H87.9543z M92.7146,40h-8.802c-1.6853-4.3962-3.8309-8.2111-6.3159-11.2502
		C83.5521,31.1683,88.7437,35.0695,92.7146,40z M49.4033,28.7498c-2.485,3.0391-4.6306,6.854-6.3159,11.2502h-8.802
		C38.2563,35.0695,43.4479,31.1683,49.4033,28.7498z M34.2854,87h8.802c1.6853,4.3962,3.8309,8.2111,6.3159,11.2502
		C43.4479,95.8317,38.2563,91.9305,34.2854,87z M77.5967,98.2502c2.485-3.0391,4.6306-6.854,6.3159-11.2502h8.802
		C88.7437,91.9305,83.5521,95.8317,77.5967,98.2502z"/>
</g>
</svg>
