<?xml version="1.0" encoding="utf-8"?>
<!-- Generator: Adobe Illustrator 18.1.1, SVG Export Plug-In . SVG Version: 6.00 Build 0)  -->
<svg version="1.2" baseProfile="tiny" xmlns="http://www.w3.org/2000/svg" xmlns:xlink="http://www.w3.org/1999/xlink" x="0px"
	 y="0px" width="128px" height="128px" viewBox="0 0 128 128" xml:space="preserve">
<g id="box">
	<rect fill="none" width="128" height="128"/>
</g>
<g id="Production">
	<g>
		<path fill="#ffffff" d="M52.1269,50.7373c-1.8159-1.4389-4.1333-3.9442-4.7742-7.6729
			c-1.059-6.1542,2.9198-13.1385,3.0897-13.4328c0.1893-0.3284,0.633-0.3965,0.9128-0.1455
			c0.2604,0.2336,6.3891,5.792,7.4464,11.9382c0.6791,3.9489-0.89,7.1077-2.1908,8.9483
			c7.8726-1.5742,13.7608-7.9036,13.7608-15.4768c0-6.3703-5.1167-10.5214-10.1731-14.3844
			c-8.2537-6.3063-2.7046-15.1493-5.5781-15.6066c-3.3291-0.5299-19.4126,11.8923-19.4126,29.991
			C35.2078,43.4525,42.7244,50.4226,52.1269,50.7373z"/>
		<path fill="#ffffff" d="M110.1086,82.0866c-2.219-6.8306-11.3945-8.7375-18.5451-8.7643V60.6598
			c0-2.6295-2.1316-4.7611-4.761-4.7611h-64.604c-2.6295,0-4.7611,2.1316-4.7611,4.7611v46.2736
			c0,2.6295,2.1316,4.7611,4.7611,4.7611h29.8904c0.331,7.43,4.6901,11.2243,10.3288,11.2243
			c5.0298-0.0001,10.4763-2.974,14.4087-5.8623c5.9102,4.3984,14.7035,8.565,20.6836,4.2172
			c2.4404-1.7729,5.1401-5.5704,4.1335-13.5867c-0.3-2.3908-0.9033-4.9402-1.7199-7.3584c2.0578-1.4759,4.0136-3.1726,5.6289-4.9096
			C110.9961,89.5648,111.0347,84.9375,110.1086,82.0866z M92.7317,98.0169c2.9294,5.6202,5.1562,15.875,1.397,18.606
			c-3.7459,2.7232-12.7996-2.5595-17.2674-7.0891c-3.5305,3.4939-10.0077,7.6349-14.4436,7.635
			c-7.3038,0-4.498-12.9117-1.3284-19.1603c-5.6682-2.846-13.4338-9.7992-12.0036-14.2016
			c1.3806-4.2457,11.3752-5.467,17.8867-4.4574c1.0221-6.2914,5.2003-15.5797,9.7607-15.5797c4.8991,0,8.914,10.2199,9.7774,15.6743
			c5.4853-0.9106,16.5995-0.2796,18.1294,4.419C106.062,88.2407,98.3918,95.1419,92.7317,98.0169z"/>
		<path fill="#ffffff" d="M84.1331,87.7755c-1.1497,0.687-4.9893,2.9809-6.2168,3.7144c0.3703-1.622,1.26-5.5187,1.6152-7.074
			c0.4607-2.0572-1.3731-3.8688-3.4048-3.4049c-1.531,0.3496-2.4888,1.874-2.1392,3.4049c0.3453,1.5128,0.0391,0.1715,1.6111,7.0565
			c-6.0593-3.6208-6.4157-4.0131-7.4157-4.1031c-3.7417-0.3364-4.2566,5.3268-0.5093,5.6638
			c2.4607,0.2213,0.7347,0.0661,7.2041,0.6477c-5.6143,4.9047-5.8046,4.8889-6.1839,5.7763
			c-1.3371,3.1297,3.0396,5.5551,4.9656,2.7152c0.237-0.3492,2.9448-6.7549,3.1106-7.1429
			c2.9544,6.9138,2.8635,7.0414,3.5842,7.6712c1.1827,1.0331,2.9788,0.912,4.012-0.2706c1.0332-1.1827,0.9121-2.9788-0.2705-4.012
			c-2.0176-1.7627-0.7518-0.6569-5.4094-4.726c7.5066-0.6748,7.4212-0.5809,8.1162-0.9064
			c1.5276-0.7145,2.0879-2.5912,1.2297-4.0275C87.2275,87.4113,85.4817,86.9696,84.1331,87.7755z"/>
	</g>
</g>
</svg>
