<?xml version="1.0" encoding="utf-8"?>
<!-- Generator: Adobe Illustrator 19.1.0, SVG Export Plug-In . SVG Version: 6.00 Build 0)  -->
<svg version="1.2" baseProfile="tiny" xmlns="http://www.w3.org/2000/svg" xmlns:xlink="http://www.w3.org/1999/xlink" x="0px"
	 y="0px" width="64px" height="64px" viewBox="0 0 64 64" xml:space="preserve">
<g id="box">
	<rect fill="none" width="64" height="64"/>
</g>
<g id="Production">
	<g>
		<path fill="#ffffff" d="M51,17.0974V9h-9.9946l-3.9692-3.2158c-2.918-2.3643-7.1543-2.3643-10.0723,0L22.9946,9H13v8.0974
			l-6,4.8611V56h50V21.9585L51,17.0974z M28.2227,7.3379c2.1895-1.7725,5.3662-1.7725,7.5547,0L37.8287,9H26.1713L28.2227,7.3379z
			 M13,19.6717v4.5651l2,1.6665V11h34v14.945l2-1.6667v-4.6066l4,3.2409v0.6192L37.6382,38.0001l-11.2759,0.0004L9,23.5318v-0.6192
			L13,19.6717z M55,26.1348v25.2127L39.6582,38.9197L55,26.1348z M24.3405,38.9186L9,51.3474V26.1348L24.3405,38.9186z M9,54v-0.079
			L26.1826,40h11.6323L55,53.921V54H9z"/>
		<rect x="21" y="18" fill="#ffffff" width="8" height="2"/>
		<rect x="21" y="24" fill="#ffffff" width="22" height="2"/>
		<rect x="21" y="28" fill="#ffffff" width="22" height="2"/>
	</g>
</g>
</svg>

