<?xml version="1.0" encoding="utf-8"?>
<!-- Generator: Adobe Illustrator 18.1.1, SVG Export Plug-In . SVG Version: 6.00 Build 0)  -->
<svg version="1.2" baseProfile="tiny" xmlns="http://www.w3.org/2000/svg" xmlns:xlink="http://www.w3.org/1999/xlink" x="0px"
	 y="0px" width="128px" height="128px" viewBox="0 0 128 128" xml:space="preserve">
<g id="_x31_28px_boxes">
	<rect fill="none" width="128" height="128"/>
</g>
<g id="Production">
	<g>
		<path fill="#ffffff" d="M42.3818,92.2688c3.2319,0.1135,6.4405,0.5088,9.528,1.1563c3.7936-1.6807,7.2163-3.8981,10.9144-6.158
			c-6.2534-2.3843-13.3324-3.7869-20.4424-4.0051V92.2688z"/>
		<path fill="#ffffff" d="M42.3818,100.5745v9.0478c11.5114-1.0974,19.1396-5.7932,25.9609-9.9963
			c5.6895-3.5056,10.6758-6.5781,17.2752-7.1582v-9.0247c-9.1111,0.5835-15.655,4.6131-21.9964,8.5205
			C57.3229,95.8447,51.32,99.5393,42.3818,100.5745z"/>
		<path fill="#ffffff" d="M58.746,111.5298h18.9749c2.7234-1.7217,5.2007-3.0984,7.897-3.7322v-9.1509
			C74.9857,100.1544,68.8465,108.5037,58.746,111.5298z"/>
		<path fill="#ffffff" d="M37.8818,111.6509V80.5c0-1.4497-1.1753-2.625-2.625-2.625H23.7229c-1.4497,0-2.625,1.1753-2.625,2.625
			v31.1509c0,1.4497,1.1753,2.625,2.625,2.625h11.5339C36.7065,114.2759,37.8818,113.1006,37.8818,111.6509z"/>
		<path fill="#ffffff" d="M104.2771,77.875H92.7429c-1.4497,0-2.625,1.1753-2.625,2.625v31.1509c0,1.4497,1.1753,2.625,2.625,2.625
			h11.5342c1.4497,0,2.625-1.1753,2.625-2.625V80.5C106.9021,79.0503,105.7268,77.875,104.2771,77.875z"/>
		<path fill="#ffffff" d="M51.5003,78.4146V64.9861c0-5.1206,1.0721-6.2666,2.556-7.8528
			c4.9323-5.2732,6.4607-13.9956-1.1314-20.0342c-1.1351-0.9031-4.2308-3.4184-5.1127-4.1299
			c-5.429-4.3789-2.6839-10.2451,3.3538-10.2451h25.6679c6.2342,0,9.1326,5.5843,3.3538,10.2451
			c-0.8852,0.7142-3.9804,3.2293-5.1125,4.1297c-7.7847,6.1917-5.7652,15.0803-1.1316,20.0342
			c1.4839,1.5861,2.5559,2.7324,2.5559,7.853v13.4285h9V64.9861c0-8.0105-2.3572-11.1939-4.9832-14.0012
			c-4.4072-4.7116-0.3411-6.4435,5.3218-11.0103c11.592-9.3503,5.9529-26.2505-9.0042-26.2505H51.166
			c-15.6544,0-20.2323,17.1936-9.0042,26.2505c5.4518,4.3973,9.6848,6.3466,5.3218,11.0103
			c-2.6261,2.8073-4.9833,5.9904-4.9833,14.0012v13.4285H51.5003z"/>
	</g>
</g>
</svg>
