<?xml version="1.0" encoding="utf-8"?>
<!-- Generator: Adobe Illustrator 18.1.1, SVG Export Plug-In . SVG Version: 6.00 Build 0)  -->
<svg version="1.2" baseProfile="tiny" xmlns="http://www.w3.org/2000/svg" xmlns:xlink="http://www.w3.org/1999/xlink" x="0px"
	 y="0px" width="64px" height="64px" viewBox="0 0 64 64" xml:space="preserve">

<g id="Production">
	<path fill="#ffffff" d="M43,16V8H21v8H7v38h50V16H43z M23,10h18v6H23V10z M55,18v19h-9v-4h-6v4H24v-4h-6v4H9V18H55z M44,35v6h-2v-6
		H44z M22,35v6h-2v-6H22z M9,52V39h9v4h6v-4h16v4h6v-4h9v13H9z"/>
</g>
</svg>
