<?xml version="1.0" encoding="utf-8"?>
<!-- Generator: Adobe Illustrator 18.1.1, SVG Export Plug-In . SVG Version: 6.00 Build 0)  -->
<svg version="1.2" baseProfile="tiny" xmlns="http://www.w3.org/2000/svg" xmlns:xlink="http://www.w3.org/1999/xlink" x="0px"
	 y="0px" width="128px" height="128px" viewBox="0 0 128 128" xml:space="preserve">
<g id="box">
	<rect fill="none" width="128" height="128"/>
</g>
<g id="Production">
	<g>
		<path fill="#ffffff" d="M115.3328,15.4686l-2.8033-2.8006c-0.5551-0.5576-1.3962-0.6762-2.0834-0.3125l-9.6573,5.1831
			l-0.7114,0.7117l-4.6655,8.6411L70.1594,52.1439l-1.4985-1.4959c-0.5769-0.5715-1.5015-0.5715-2.0811,0l-6.1318,6.1372
			l10.7678,10.7676l6.1319-6.1343c0.5844-0.5682,0.5727-1.5246,0-2.0754l-1.4959-1.4986l25.2388-25.239l8.6601-4.6762l0.7144-0.72
			l5.1829-9.657C116.0093,16.8541,115.8879,16.0186,115.3328,15.4686z"/>
		<path fill="#ffffff" d="M70.4585,73.5069L54.4888,57.5398c-0.7202-0.7265-1.8746-0.6615-2.5176,0.0296
			c-3.927,4.345-3.9995,10.156-7.5496,13.5144c-2.9297,3.3206-11.894,3.0969-20.8964,12.0046
			c-6.6739,6.6736-10.1021,13.3069-11.3421,19.5679c-0.1213,0.5796,0.0647,1.1807,0.4771,1.596l11.0886,11.0881
			c0.3259,0.3345,0.7764,0.5122,1.2397,0.5122c0.1187,0,0.2373-0.0078,0.3531-0.0322c6.2695-1.2508,12.8999-4.6602,19.5708-11.3391
			c8.9187-9.0267,8.5576-17.835,12.0078-20.9021c3.4929-3.6766,9.1423-3.6253,13.5195-7.5469
			c0.7299-0.7015,0.7039-1.845,0.0269-2.5176L70.4585,73.5069z"/>
	</g>
</g>
</svg>
