<?xml version="1.0" encoding="utf-8"?>

<svg version="1.2" baseProfile="tiny" xmlns="http://www.w3.org/2000/svg" xmlns:xlink="http://www.w3.org/1999/xlink" x="0px"
	 y="0px" width="64px" height="64px" viewBox="0 0 64 64" xml:space="preserve">

<g id="Production">
	<path fill="#ffffff" d="M60,25H38.6099L32,5.0037L25.3901,25H4l17.3049,12.1371l-6.6099,19.776L32,44.5835l17.3049,12.4167
		l-6.6099-19.8776L60,25z M45.4619,51.7811c-1.5064-1.0809-11.9319-8.5617-13.4578-9.6566
		c-1.5271,1.0879-11.9578,8.5194-13.464,9.5925c0.6977-2.0875,4.4267-13.2448,5.1344-15.3624
		c-1.628-1.1396,0.4342,0.296-13.3408-9.3646c4.65,0,9.1531,0,16.5017,0c0.6477-1.9621,0.0576-0.1661,5.1646-15.6176
		c5.423,16.4078,4.5594,13.7845,5.1646,15.6176c7.3448,0,11.848,0,16.4954,0c-13.1301,9.1973-11.6185,8.1488-13.3329,9.3486
		C41.0803,38.6031,44.7162,49.5385,45.4619,51.7811z"/>
</g>
</svg>
