<?xml version="1.0" encoding="utf-8"?>
<!-- Generator: Adobe Illustrator 18.1.1, SVG Export Plug-In . SVG Version: 6.00 Build 0)  -->
<svg version="1.2" baseProfile="tiny" xmlns="http://www.w3.org/2000/svg" xmlns:xlink="http://www.w3.org/1999/xlink" x="0px"
	 y="0px" width="128px" height="128px" viewBox="0 0 128 128" xml:space="preserve">
<g id="_x31_28px_boxes">
	<rect fill="none" width="128" height="128"/>
</g>
<g id="Production">
	<g>
		<path fill="#ffffff" d="M23.5032,29.2346c2.2629-0.6064,3.6059-2.9321,2.9993-5.1948c-0.6062-2.2632-2.9322-3.606-5.1949-3
			l-11.1176,2.98c-2.2635,0.6064-3.6062,2.9316-3,5.1948c0.5083,1.895,2.2221,3.145,4.0949,3.145
			c0.8006,0,1.3394-0.2117,2.562-0.5503l20.1788,75.2964h8.7832L22.0415,29.6135L23.5032,29.2346z"/>
		<path fill="#ffffff" d="M106.9978,31.2414c-6.7311,8.2718-20.8767,11.3789-38.0242,0.9843
			c-6.091-3.6899-13.7694-7.5482-20.9321-7.5482c-11.1404,0-19.5498,7.8867-19.6333,7.9668l-0.1076,0.102l13.8371,51.9863
			l0.1089,0.4078l0.3049-0.291c4.783-4.5353,15.5296-10.2607,26.4995-6.6758c14.6333,4.7814,14.3125,9.6109,29.2632,12.479
			c8.5872,1.6464,17.9583-1.2946,22.5613-6.9277l0.0801-0.0711L106.9978,31.2414z M73.1848,65.2683
			c-11.2768-6.8361-19.7063-9.5725-30.5019-2.459l-4.5081-16.9365c10.8061-7.0935,19.2257-4.3186,30.4561,2.4887
			c11.5737,7.0137,25.4719,10.591,37.6887,4.3028l4.5063,16.9306C98.6935,75.8138,84.8649,72.3478,73.1848,65.2683z"/>
	</g>
</g>
</svg>
