<?xml version="1.0" encoding="utf-8"?>
<!-- Generator: Adobe Illustrator 18.1.1, SVG Export Plug-In . SVG Version: 6.00 Build 0)  -->
<svg version="1.2" baseProfile="tiny" xmlns="http://www.w3.org/2000/svg" xmlns:xlink="http://www.w3.org/1999/xlink" x="0px"
	 y="0px" width="128px" height="128px" viewBox="0 0 128 128" xml:space="preserve">
<g id="_x31_28px_boxes">
	<rect fill="none" width="128" height="128"/>
</g>
<g id="Production">
	<g>
		<path fill="#ffffff" d="M45.1034,87.7468c1.463,1.4631,3.8392,1.4644,5.3032,0l46.2127-46.2124
			c1.4635-1.4631,1.4645-3.839,0-5.3032L70.7382,10.3501c-1.4635-1.4638-3.8393-1.4642-5.3032,0L19.2231,56.5627
			c-1.4646,1.4644-1.4646,3.8387,0,5.3032l1.4472,1.4473L9.8498,90.2929c-1.7072,4.2576,2.5286,8.5504,6.8271,6.8271
			l26.9793-10.8205L45.1034,87.7468z M68.0866,18.3051l20.5779,20.5778L63.4528,64.0944L42.8751,43.5169L68.0866,18.3051z
			 M36.0285,50.3637L56.6061,70.941l-4.1081,4.108L31.9211,54.4712L36.0285,50.3637z"/>
		<path fill="#ffffff" d="M117.9457,80.8075c-7.1859-13.4365-20.7611-18.7353-32.3132-11.8536
			c-15.4629,9.2109-14.3342,31.2689-28.323,38.3168c-9.6072,4.8398-19.4424,2.5095-29.2337-6.9261
			c-4.2803-4.126-10.5325,2.349-6.2451,6.4805c11.4961,11.0784,25.3415,15.6306,39.5281,8.4832
			c17.5653-8.8494,16.8501-31.457,28.8796-38.6222c7.6798-4.5754,15.5375,0.4499,19.7708,8.3656
			C112.8124,90.2939,120.7535,86.0579,117.9457,80.8075z"/>
	</g>
</g>
</svg>
