<?xml version="1.0" encoding="utf-8"?>
<!-- Generator: Adobe Illustrator 18.1.1, SVG Export Plug-In . SVG Version: 6.00 Build 0)  -->
<svg version="1.2" baseProfile="tiny" xmlns="http://www.w3.org/2000/svg" xmlns:xlink="http://www.w3.org/1999/xlink" x="0px"
	 y="0px" width="128px" height="128px" viewBox="0 0 128 128" xml:space="preserve">
<g id="_x31_28px_boxes">
	<rect fill="none" width="128" height="128"/>
</g>
<g id="Production">
	<g>
		<path fill="#ffffff" d="M111.1133,98.6084c-2.9946-5.3587-19.5857,1.2426-19.5857,1.2426
			c2.0276-29.843-19.8559-45.7588-27.4577-49.6865c-1.7452,1.6055-3.2969,3.2758-4.6609,4.9844
			c23.4853,19.6081,16.5515,46.8017,16.5515,46.8017c-1.1787-8.7571-3.3936-21.7285-11.4771-31.4962
			c-3.591-4.339-7.3154-7.0039-9.5063-8.3495c-3.3513,6.8921-3.815,13.856-1.4177,19.3716
			c2.2578,5.1951,4.1308,11.8022,2.2321,18.3745c0,0-16.8256-5.8225-18.3398,1.0159c-1.2715,5.7424,9.842,5.9961,14.4414,11.1365
			c3.9868,4.4557-0.6897,9.2538,4.7168,11.2995c5.2136,1.9727,14.8691-5.5368,24.2561-6.1372
			c6.7529-0.432,22.8215,8.1025,26.0098,3.0686c2.7763-4.3836-4.4117-7.3801-2.9859-11.4536
			C105.3157,104.707,113.8897,103.5764,111.1133,98.6084z"/>
		<path fill="#ffffff" d="M50.4388,86.7651c-2.4932-5.0665-5.5638-14.767-0.3987-25.9133
			C57.0869,45.6443,75.4527,33.892,82.052,38.2863c4.6483,3.0964,3.7676,12.7679,0.6297,20.4074
			c1.7978,2.2179,3.3823,4.4237,4.7778,6.5866c6.6226-12.8521,6.6126-26.1351-0.3372-32.0358
			c0.4925-11.5474-3.6265-23.7034-14.2766-27.6886c-10.1018-3.78-20.6899,1.9658-27.7673,10.0986
			c-6.9822-1.84-16.6436,3.4209-23.1079,13.1262c-7.1997,10.8094-7.2749,22.0715-1.4995,28.1311
			C50.6087,87.4652,48.6326,85.677,50.4388,86.7651z M43.1617,56.4508c-2.6795,0-4.8519-2.1721-4.8519-4.8517
			c0-1.8526,1.0389-3.4612,2.565-4.2787C41.5059,26.9765,58.0667,8.614,70.0269,13.0891c6.0954,2.281,8.6095,9.5909,9.0261,16.0911
			l-21.1697-8.5274c-0.2434,0.1938-0.4851,0.3933-0.7251,0.5986c-6.9895,5.9791-11.7131,16.1335-12.0554,25.9024
			c1.7127,0.7491,2.9107,2.4563,2.9107,4.4453C48.0135,54.2787,45.8411,56.4508,43.1617,56.4508z"/>
	</g>
</g>
</svg>
