<?xml version="1.0" encoding="utf-8"?>
<!-- Generator: Adobe Illustrator 18.1.1, SVG Export Plug-In . SVG Version: 6.00 Build 0)  -->
<svg version="1.2" baseProfile="tiny" xmlns="http://www.w3.org/2000/svg" xmlns:xlink="http://www.w3.org/1999/xlink" x="0px"
	 y="0px" width="128px" height="128px" viewBox="0 0 128 128" xml:space="preserve">
<g id="_x31_28px_boxes">
	<rect fill="none" width="128" height="128"/>
</g>
<g id="Production">
	<g>
		<path fill="#ffffff" d="M109.773,66.2436c-0.1394,0.0473-7.2717,2.2442-7.2717,2.2442
			c2.2058,8.2119,5.7233,13.5488,9.5993,13.4818c4.2495-0.0736,7.8448-6.622,9.6438-16.2747
			C120.0723,65.6113,115.376,64.5061,109.773,66.2436z"/>
		<path fill="#ffffff" d="M121.3252,34.7209c-2.1047-9.9021-5.9912-16.581-10.3252-16.5063
			c-4.5778,0.0788-8.396,7.6734-10.0278,18.5675c0.4697-0.1404,4.8196-1.2102,6.6648-1.5114
			C112.2886,34.5116,116.8767,34.3296,121.3252,34.7209z"/>
		<path fill="#ffffff" d="M122.9659,49.8946c-0.0545-3.1595-0.2727-6.208-0.6287-9.0843c-4.4265-0.5436-9.04-0.4328-13.7415,0.3347
			c-1.6499,0.2692-23.2236,6.676-23.2236,6.676l-0.0835-0.2599c-0.6113-1.8984-2.728-3.6766-4.7031-3.9515l-13.5628-1.8873
			c-1.9753-0.2749-5.1494-0.0144-7.0532,0.5791l-20.237,6.3078c-1.9038,0.5935-3.2471,2.6966-2.9844,4.6737
			c0,0,0.8447,6.3609-4.2805,11.0092c-5.1258,4.6487-24.9268,10.717-24.9268,10.717c-1.9067,0.5844-2.9612,2.6139-2.3435,4.5102
			l3.282,10.0716c0.6179,1.8964,2.6411,2.8478,4.4958,2.1148l4.2178-1.6676c-0.0537,4.7022,0.9324,10.4569,5.1055,14.63
			c4.3681,4.368,10.7329,6.4268,17.2705,4.2315c16.7554-5.6246,36.0195-14.3073,36.2121-14.3944
			c0.7911-0.3573,1.3807-1.0498,1.6077-1.8874l3.4063-12.5724c0.7934-0.9259,8.9272-7.6245,8.9272-7.6245l0.0098-0.0082
			c1.5561-1.2474,2.3293-3.8212,1.718-5.7197l-0.302-0.9386l16.4531-5.0635c7.6621-2.3558,13.2595-0.9161,14.978-0.9299
			C122.8865,56.6507,123.0254,53.3351,122.9659,49.8946z M37.72,103.3921c-5.7314,1.9238-9.821-1.3396-11.3135-2.8321
			c-3.4648-3.4648-3.6574-9.0174-3.2666-12.8731l23.1939-9.1697c1.8547-0.7332,4.0691,0.1423,4.9211,1.9457l2.0662,4.3739h-6.7818
			c-0.5886,0-1.1691,0.1341-1.698,0.3922l-13.7709,6.7215c-1.9212,0.9377-2.7183,3.2555-1.7808,5.1767
			c0.9399,1.9251,3.26,2.7169,5.1767,1.7807l12.9673-6.3291h9.5442l1.428,3.0227C52.1404,98.1587,44.7046,101.0473,37.72,103.3921z"
			/>
	</g>
</g>
</svg>
