<?xml version="1.0" encoding="utf-8"?>
<!-- Generator: Adobe Illustrator 19.1.0, SVG Export Plug-In . SVG Version: 6.00 Build 0)  -->
<svg version="1.2" baseProfile="tiny" xmlns="http://www.w3.org/2000/svg" xmlns:xlink="http://www.w3.org/1999/xlink" x="0px"
	 y="0px" width="64px" height="64px" viewBox="0 0 64 64" xml:space="preserve">
<g id="box">
	<rect fill="none" width="64" height="64"/>
</g>
<g id="Production">
	<g>
		<path fill="#ffffff" d="M40.7642,7.8076c-2.5065-0.3198-4.5798,0.4092-5.5392,0.8413c-1.2387-0.7666-4.573-2.4688-9.0995-1.9766
			C7.5131,8.6792,7.9438,33.4346,8.1511,45.3311c0.0169,0.9771,0.0397,3.21,0.0397,3.21c3.0422,2.0178,8.2013,3.1276,11.827,3.6617
			c-0.5742-0.7079-1.1234-1.4654-1.633-2.2908c-4.7845-0.8653-7.4235-2.0087-8.3975-2.5033
			c-0.0068-0.6514-0.019-1.3589-0.0327-2.1128C9.7412,33.126,9.3434,10.4736,26.2916,8.6606
			c3.0033-0.3225,6.2157,0.3951,8.8185,2.3325c1.9138-1.0971,3.7239-1.4233,5.4756-1.2012
			c14.316,1.8286,13.6723,26.7407,13.4297,36.1191c-0.0146,0.5625-0.0273,1.064-0.0352,1.4961
			c-0.9573,0.4863-3.5126,1.5977-8.1301,2.457c-0.4963,0.8228-1.0223,1.5885-1.5789,2.2883
			c3.517-0.5379,8.5235-1.6376,11.4996-3.6115c0.0042-0.7841,0.0005-0.8774,0.0446-2.5781
			C56.0685,36.0903,56.7405,9.8652,40.7642,7.8076z"/>
		<path fill="#ffffff" d="M47.9324,34.1349c-0.677-0.3215-1.3286-0.6577-1.9667-1.0049c-0.1416,3.3113-0.532,6.3275-1.1937,8.957
			c-1.0156,4.0352-5.6216,12.8799-12.6914,12.8799c-2.9678,0-10.2871-3.2622-12.7065-12.9556
			c-0.5415-2.171-0.9042-4.5989-1.0938-7.2345c-0.6349,0.219-1.2854,0.4264-1.9503,0.6233c0.2073,2.5637,0.568,4.9495,1.1036,7.0956
			c2.4639,9.8721,10.1968,14.4712,14.647,14.4712c3.5918,0,11.8936-3.5176,14.6309-14.3916
			C47.345,40.0579,47.7534,37.2287,47.9324,34.1349z"/>
		<path fill="#ffffff" d="M51.3779,31.3042c-5.7618-2.3519-11.8205-6.8125-16.29-12.4956
			c-5.1273,6.1812-13.554,11.4661-22.7329,13.501l0.4326,1.9521c12.2383-2.7129,19.8682-9.8237,22.2539-12.3398
			c1.9536,2.2197,7.5239,7.9453,15.5806,11.2339L51.3779,31.3042z"/>
		<circle fill="#ffffff" cx="26" cy="35" r="2"/>
		<circle fill="#ffffff" cx="38" cy="35" r="2"/>
		<path fill="#ffffff" d="M32.0288,48.772c1.9023,0,3.8047-0.6704,5.1533-2.0117c0.1602-0.1592,0.1938-0.4053,0.082-0.6016
			s-0.3389-0.2939-0.5591-0.2373c-3.0576,0.7852-6.2925,0.7861-9.3521,0c-0.2202-0.0571-0.4478,0.0405-0.5591,0.2373
			c-0.1118,0.1963-0.0781,0.4424,0.082,0.6016C28.2246,48.1016,30.127,48.772,32.0288,48.772z"/>
	</g>
</g>
</svg>

