<?xml version="1.0" encoding="utf-8"?>

<svg version="1.2" baseProfile="tiny" xmlns="http://www.w3.org/2000/svg" xmlns:xlink="http://www.w3.org/1999/xlink" x="0px"
	 y="0px" width="128px" height="128px" viewBox="0 0 128 128" xml:space="preserve">
<g id="_x31_28px_boxes">
	<rect fill="none" width="128" height="128"/>
</g>
<g id="Production">
	<path fill="#ffffff" d="M91.8027,31.842c-0.0029-1.9719-0.7878-3.8632-2.1823-5.259l-0.0017-0.001
		c-1.398-1.3982-3.2942-2.1838-5.2723-2.1838H58.678c-1.978,0-3.8748,0.7856-5.273,2.1846L14.7515,65.248
		c-2.9114,2.9119-2.9112,7.6326,0.0007,10.5447l1.3674,1.3675c4.8694-3.6031,11.4014-7.5777,15.7639-9.3904
		c0.6226-5.7066,4.42-10.188,10.034-11.7796c10.1618-2.8894,12.6716,5.8118,20.634,5.5022c4.572-0.1748,7.6101-3.3259,7.6384-3.3557
		c0.6578-0.7002,1.8362-0.2451,1.8518,0.7156c0.0052,0.3157,0.0379,7.8274-7.4587,15.8574
		c-8.1113,8.6919-23.9739,12.4146-30.4316,2.565c9.0717-7.2405,20.6648-6.7925,22.718-6.5953
		c0.1218-0.017,0.2331-0.0886,0.2663-0.2131c0.2698-1.0002-7.8147-2.779-16.1538-0.8223
		c-7.4853,1.7571-13.999,5.0826-21.4065,10.972l20.8016,20.8017c2.9123,2.9119,7.6333,2.9119,10.5451,0
		c42.1477-42.1465,39.4373-39.1323,40.24-40.9629c11.2568,3.0608,21.1526,1.3382,23.6951-5.2456
		C118.2944,46.3062,106.0894,35.9451,91.8027,31.842z M107.97,52.5496c-1.5149,3.9235-18.7459,2.1884-29.1238-6.2605
		c-0.0291,0.0302-0.0566,0.0615-0.0867,0.0913c-2.1267,2.1267-5.3865,2.4272-7.8362,0.9038
		c-3.4983-2.176-4.0117-7.0086-1.1401-9.8804c3.8638-3.8616,10.5483-1.3347,10.8276,4.1633
		c3.1189,2.7176,7.2622,4.8479,11.1853,6.2478l0.0037-8.2375C103.2236,43.4775,108.8074,50.3801,107.97,52.5496z"/>
</g>
</svg>
