<?xml version="1.0" encoding="utf-8"?>
<!-- Generator: Adobe Illustrator 18.1.1, SVG Export Plug-In . SVG Version: 6.00 Build 0)  -->
<svg version="1.2" baseProfile="tiny" xmlns="http://www.w3.org/2000/svg" xmlns:xlink="http://www.w3.org/1999/xlink" x="0px"
	 y="0px" width="128px" height="128px" viewBox="0 0 128 128" xml:space="preserve">
<g id="_x31_28px_boxes" display="none">
	<rect display="inline" fill="none" width="128" height="128"/>
</g>
<g id="Production">
	<g>
		<path fill="#ffffff" d="M97.5516,55.8125c2.8368-16.197-0.6007-28.4438-9.027-32.0224
			c-4.139-1.7579-12.9478-5.3245-19.6205-6.8311c-0.0719-2.1328-2.2353-3.845-4.9004-3.845c-2.644,0-4.7937,1.6856-4.8978,3.795
			c-5.6974,1.2521-13.3843,4.0703-17.923,6.1779c-4.0404,1.8767-7.5572,6.439-9.6487,12.5171
			c-2.113,6.1411-2.6024,13.3425-1.3952,20.3245c-10.4185,3.9346-8.9656,23.4247,0.5408,28.4753
			c5.5027,19.1748,22.2877,30.4822,33.3454,30.4822c10.0444,0,27.7028-9.8421,33.3319-30.498
			C106.8428,79.3109,108.3675,59.5156,97.5516,55.8125z M91.3632,78.562c-5.023,21.7145-20.3381,29.135-27.338,29.135
			c-8.3356,0-24.3871-10.8533-27.1965-29.0993c-1.4997-0.2301-5.2913,0.0587-6.3632-6.8108
			c-0.3364-2.1558-0.369-4.0552-0.1144-5.5611c3.9403,6.7836,10.9248,3.9821,17.9495,0.4861
			c13.1937-6.5662,18.1922-6.5762,31.4069,0c4.4177,2.1983,13.4655,7.233,17.9487-0.4856c0.2545,1.5056,0.2218,3.4051-0.1148,5.5606
			C96.4703,78.6515,92.5493,78.384,91.3632,78.562z M58.8941,27.3032h10.2192c1.0356,0,1.875,0.8394,1.875,1.875
			c0,5.9844-1.7595,9.4038-6.0731,11.8025c-0.5617,0.3123-1.2509,0.3177-1.8225,0c-4.3139-2.3989-6.0736-5.8183-6.0736-11.8025
			C57.0191,28.1426,57.8586,27.3032,58.8941,27.3032z M36.8041,56.4258c12.6322-13.0682,41.3674-13.4825,54.3998,0
			c1.6585,1.9443,2.4352,4.0623,2.132,5.8201c-0.8497,4.926-6.7293,1.7558-11.1781-0.458c-14.7525-7.3414-21.5325-7.3525-36.3076,0
			c-4.396,2.1878-10.3302,5.3733-11.1783,0.4587C34.3686,60.4888,35.1453,58.3706,36.8041,56.4258z"/>
		<path fill="#ffffff" d="M51.9383,70.7454c-2.9922,0-5.416,2.4245-5.416,5.4175c0,2.9887,2.4238,5.4133,5.416,5.4133
			c2.9863,0,5.4136-2.4246,5.4136-5.4133C57.3519,73.1699,54.9246,70.7454,51.9383,70.7454z"/>
		<path fill="#ffffff" d="M76.2293,70.7454c-2.9917,0-5.417,2.4245-5.417,5.4175c0,2.9887,2.4253,5.4133,5.417,5.4133
			c2.9868,0,5.4107-2.4246,5.4107-5.4133C81.64,73.1699,79.2161,70.7454,76.2293,70.7454z"/>
	</g>
</g>
</svg>
