<?xml version="1.0" encoding="utf-8"?>
<!-- Generator: Adobe Illustrator 18.1.1, SVG Export Plug-In . SVG Version: 6.00 Build 0)  -->
<svg version="1.2" baseProfile="tiny" xmlns="http://www.w3.org/2000/svg" xmlns:xlink="http://www.w3.org/1999/xlink" x="0px"
	 y="0px" width="128px" height="128px" viewBox="0 0 128 128" xml:space="preserve">
<g id="box">
	<rect fill="none" width="128" height="128"/>
</g>
<g id="Production">
	<g>
		<path fill="#ffffff" d="M88.1612,90.5182H72.3347v2.1035c0,4.0481-3.2932,7.3413-7.3413,7.3413s-7.3413-3.2932-7.3413-7.3413
			v-2.1035H41.8257c-6.3437,0-12.1387-2.9984-15.855-7.8496v19.4736c0,2.1597,1.7481,3.9111,3.908,3.9111h70.2326
			c2.1539,0,3.9053-1.7514,3.9053-3.9111V82.6678C100.3032,87.5154,94.511,90.5182,88.1612,90.5182z"/>
		<path fill="#ffffff" d="M68.2378,92.6217c0-4.4088,0-3.8647,0-8.3257c0-1.7893-1.4556-3.2451-3.2444-3.2451
			c-1.7888,0-3.2444,1.4558-3.2444,3.2451c0,4.4607,0,3.9168,0,8.3257c0,1.7891,1.4556,3.2444,3.2444,3.2444
			C66.7822,95.8661,68.2378,94.4108,68.2378,92.6217z"/>
		<path fill="#ffffff" d="M101.2027,34.1959c-8.3082-2.2697-20.4439,0.3324-33.7281-1.3066
			c-17.2861-2.1322-29.6631-18.8607-44.9389-6.3257c-9.8726,8.1-6.5904,23.5173,3.4194,32.3628
			c0.0051,0.0044,0.0103,0.0085,0.0156,0.0132v12.2256c0.3252,8.4892,7.3272,15.2561,15.855,15.2561h15.8264V84.296
			c0-4.0483,3.2932-7.342,7.3413-7.342s7.3413,3.2937,7.3413,7.342v2.1253h15.8265c8.5341,0,15.5446-6.7785,15.8554-15.2837V59.7015
			C115.8499,52.0341,112.447,37.268,101.2027,34.1959z M100.336,52.3151c-0.2964-0.0175-69.1846-0.0113-69.4815-0.0113
			c-6.0642-5.7437-8.4536-15.0306-3.1213-19.4062c10.258-8.4169,19.8313,5.7917,38.7383,8.1238
			c19.4748,2.4032,35.1945-3.2978,36.6115,5.5561C103.4353,48.7811,102.7171,50.6895,100.336,52.3151z"/>
	</g>
</g>
</svg>
