<?xml version="1.0" encoding="utf-8"?>
<!-- Generator: Adobe Illustrator 18.1.0, SVG Export Plug-In . SVG Version: 6.00 Build 0)  -->
<svg version="1.2" baseProfile="tiny" xmlns="http://www.w3.org/2000/svg" xmlns:xlink="http://www.w3.org/1999/xlink" x="0px"
	 y="0px" width="64px" height="64px" viewBox="0 0 64 64" xml:space="preserve">
<g id="_x36_4px_boxes">
	<rect fill="none" width="64" height="64"/>
</g>
<g id="Production">
	<g>
		<path fill="#ffffff" d="M58.7366,40l-7.0754-19H44v-4h9V2H27v15h12c0,6.6667,0,2.3333,0,9h9.1885l5.2129,14H10.5986l5.2129-14H35
			v-5H12.3389L5.2634,40H3v22h58V40H58.7366z M32,12V7h16v5H32z M56,57H8V45h48V57z"/>
		<path fill="#ffffff" d="M30,55h4v-2.7786C36.0532,50.372,34.7268,47,32,47c-2.7285,0-4.0524,3.3727-2,5.2214V55z"/>
		<circle fill="#ffffff" cx="24" cy="30" r="2"/>
		<circle fill="#ffffff" cx="32" cy="30" r="2"/>
		<circle fill="#ffffff" cx="40" cy="30" r="2"/>
		<circle fill="#ffffff" cx="28" cy="36" r="2"/>
		<circle fill="#ffffff" cx="20" cy="36" r="2"/>
		<circle fill="#ffffff" cx="36" cy="36" r="2"/>
		<circle fill="#ffffff" cx="44" cy="36" r="2"/>
	</g>
</g>
</svg>

