<?xml version="1.0" encoding="utf-8"?>
<!-- Generator: Adobe Illustrator 18.1.1, SVG Export Plug-In . SVG Version: 6.00 Build 0)  -->
<svg version="1.2" baseProfile="tiny" xmlns="http://www.w3.org/2000/svg" xmlns:xlink="http://www.w3.org/1999/xlink" x="0px"
	 y="0px" width="128px" height="128px" viewBox="0 0 128 128" xml:space="preserve">
<g id="_x31_28px_boxes" display="none">
	<rect display="inline" fill="none" width="128" height="128"/>
</g>
<g id="Production">
	<g>
		<path fill="#ffffff" d="M122.6007,61.2051l-18.5508-8.3731c-1.5084-0.6817-4.2676,0.0717-4.2676,2.7558v4.6756H51.5068
			L34.976,51.6292c-0.4475-0.234-0.9934-0.1648-1.3689,0.173l-9.4028,8.4612h-8.8108L57.51,18.147
			c3.7396,13.438,14.0496,19.8169,19.0434,25.8856c2.1253,2.5741,3.698,4.4717-1.702,11.7308h17.3287
			c3.2006-11.7206-1.9023-18.116-12.8183-26.1311C63.263,17.84,65.2636,10.2172,64.1474,7.9742
			c-0.6943-4.6329-8.301-5.2279-7.9454,1.9348L4.4839,61.6271c-1.3183,1.3183-1.3179,3.4551,0,4.773l51.7181,51.7176
			c-0.3581,7.2179,7.2635,6.4504,7.9454,1.9346c1.9414-11.3318,7.5664-16.2693,18.42-24.0393
			c9.4438-6.761,12.0869-14.6902,9.6127-23.7496H74.8513c4.259,5.7242,4.6388,8.1732,1.7021,11.7306
			c-4.4581,5.4174-15.3108,12.4726-19.0435,25.8857L15.393,67.7634h8.8111l9.403,8.4613c0.4187,0.3767,0.9793,0.3762,1.3689,0.1728
			l16.5311-8.6341h48.2752v4.6755c0,2.016,2.0983,3.6149,4.2676,2.7559l18.5785-8.3858
			C124.7365,65.9405,125.5059,62.3683,122.6007,61.2051z"/>
	</g>
</g>
</svg>

