<?xml version="1.0" encoding="utf-8"?>
<!-- Generator: Adobe Illustrator 18.1.1, SVG Export Plug-In . SVG Version: 6.00 Build 0)  -->
<svg version="1.2" baseProfile="tiny" xmlns="http://www.w3.org/2000/svg" xmlns:xlink="http://www.w3.org/1999/xlink" x="0px"
	 y="0px" width="128px" height="128px" viewBox="0 0 128 128" xml:space="preserve">
<g id="_x31_28px_boxes">
	<rect fill="none" width="128" height="128"/>
</g>
<g id="Production">
	<path fill="#ffffff" d="M109.9653,36.6581L88.3934,14.5776c-1.4353-1.4693-3.7955-1.4971-5.266-0.0625
		c-1.4688,1.435-1.5005,3.789-0.0654,5.2583l12.3448,12.6118c-0.0521,0.3171-0.0318,12.8877-0.0318,13.209
		c0,1.2773,0.541,2.5034,1.4695,3.3804l6.0305,5.6821V86.206c0,4.5515-2.0178,5.5488-4.7467,5.5488
		c-3.8439-0.0073-5.5033-2.6375-5.5033-5.4018V65.9316c0-3.5743-1.0422-6.7349-2.5447-9.2388
		c-1.3464-2.2451-3.0221-3.9863-4.6797-5.3462c-11.1103-8.1155-27.979-2.35-35.7147,12.0264
		c-0.1993,0.3706-0.3024,0.5869-0.3098,0.603c-0.1402,0.3017,0.2361,0.5827,0.4861,0.3589
		c4.8409-4.3843,13.4172-9.3319,20.4426-9.5796c0.3968,1.895,0.485,3.8374,0.2255,5.7295
		c-0.9389,6.8579-9.5634,14.4995-20.4381,14.4995c-5.1911,0-14.7477-2.2016-18.329-5.2173
		c-0.5988-0.5048-0.5117-1.4557,0.174-1.8408c0.0395-0.0224,4.2245-2.4482,6.9018-8.0703c0.6843-1.4375,1.1109-2.9351,1.5626-4.521
		c1.1886-4.1728,2.5358-8.9023,9.2404-12.5034c5.1034-2.7468,10.6494-1.6272,14.8756,2.0185
		c4.5475-1.7214,9.6676-2.2182,14.6074-1.1465V29.3027c0-6.1431-4.9456-11.0098-11.088-11.0098H34.53
		c-6.1424,0-11.155,4.8667-11.155,11.0098v75.4902h-7.25v9.75h70.25v-9.75h-7.25V57.8754c1.0002,0.3693,4.5,3.6014,4.5,8.0562
		V86.353c0,7.7466,5.6698,14.3896,14.4133,14.3896c0.0298,0,0.057,0,0.0868-0.0005c8.6969,0.0109,13.7499-6.053,13.7499-14.5361
		V40.3974C111.875,38.7027,111.0063,37.7207,109.9653,36.6581z"/>
</g>
</svg>
