<?xml version="1.0" encoding="utf-8"?>
<!-- Generator: Adobe Illustrator 18.1.1, SVG Export Plug-In . SVG Version: 6.00 Build 0)  -->
<svg version="1.2" baseProfile="tiny" xmlns="http://www.w3.org/2000/svg" xmlns:xlink="http://www.w3.org/1999/xlink" x="0px"
	 y="0px" width="128px" height="128px" viewBox="0 0 128 128" xml:space="preserve">
<g id="box">
	<rect fill="none" width="128" height="128"/>
</g>
<g id="Production">
	<g>
		<path fill="#ffffff" d="M108.2452,38.5399L89.4595,19.755c-1.3017-1.3011-3.416-1.3031-4.719,0L65.6126,38.8827
			c0,0,7.6204,7.4041,9.7942,9.5767c2.1738,2.1726,5.5098-1.0967,3.3035-3.3035l-4.9656-4.9661l4.2588-4.2592l4.9663,4.9658
			c2.1645,2.1659,5.5161-1.0904,3.3027-3.3037l-4.9656-4.9654l5.7933-5.7934l14.0659,14.0657L84.3638,57.702l4.7105,4.7281
			l19.1709-19.1707C109.5469,41.9561,109.5477,39.8435,108.2452,38.5399z"/>
		<path fill="#ffffff" d="M40.9,101.1659L26.834,87.0998l5.7933-5.793l4.966,4.9658c0.9121,0.9121,2.3911,0.9121,3.3032,0
			c0.9122-0.9123,0.9122-2.3914,0-3.3037l-4.9655-4.9656l4.2585-4.2593l4.9663,4.9664c0.9126,0.9116,2.3914,0.9118,3.3037,0
			c0.9119-0.9126,0.9119-2.3914,0-3.3038l-9.6347-9.7358L19.7552,84.7401c-1.3023,1.3029-1.303,3.4159,0,4.7193l18.7854,18.7849
			c1.303,1.303,3.4158,1.3031,4.719,0l19.0266-19.0264l-4.7105-4.7275L40.9,101.1659z"/>
		<path fill="#ffffff" d="M99.5972,81.5009L38.732,20.4142c-9.7979-0.5106-18.5774,8.9597-18.2954,18.2918l60.865,61.0869
			l2.5862-7.0154l6.5927-2.1624l2.281-6.7158L99.5972,81.5009z"/>
		<path fill="#ffffff" d="M102.71,92.5653c0,0-4.1321,0.9517-6.7991,3.6177c-2.6643,2.6658-3.5375,6.7239-3.5375,6.7239
			s8.7724,2.3782,10.8859,2.9209c2.1133,0.5422,2.9097-0.3806,2.3521-2.4436C105.0545,101.3207,102.71,92.5653,102.71,92.5653z"/>
	</g>
</g>
</svg>
