<?xml version="1.0" encoding="utf-8"?>
<!-- Generator: Adobe Illustrator 18.1.1, SVG Export Plug-In . SVG Version: 6.00 Build 0)  -->
<svg version="1.2" baseProfile="tiny" xmlns="http://www.w3.org/2000/svg" xmlns:xlink="http://www.w3.org/1999/xlink" x="0px"
	 y="0px" width="128px" height="128px" viewBox="0 0 128 128" xml:space="preserve">
<g id="_x31_28px_boxes">
	<rect fill="none" width="128" height="128"/>
</g>
<g id="Production">
	<path fill="#ffffff" d="M68.382,30.6623c-1.896,1.2192-4.8302-0.3992-8.4743,1.531c-3.2216,1.7065-2.9221,4.6829-5.4464,6.4731
		c-2.1913,1.5533-3.6799-0.0517-7.2328,2.013c-1.589,0.9236-2.9083,3.2827-3.9174,5.7702L24.6912,27.8298
		c-2.7337-2.7337-7.1185-2.781-9.7936-0.106c-2.6752,2.6751-2.6277,7.0598,0.1059,9.7937l31.8062,31.8062
		c0.8266,2.4871,1.8205,5.3861,3.0472,8.7714c3.9668,10.9461,6.3149,12.3393,14.3851,13.3938
		c5.8481,0.7637,12.8217,1.0643,18.5866,6.8291c1.1981,1.198,2.6168,2.6167,3.9171,3.917l28.3841-28.3841
		c0,0-8.0575-8.0575-10.8054-10.8056c-5.3434-5.3432-1.2054-13.1438-7.8127-19.7512c-3.9243-3.9243-5.6051-5.6052-10.4692-10.4692
		c-4.8638-4.8638-8.0982-7.8757-13.0735-5.7083C70.202,28.3222,70.6358,29.2136,68.382,30.6623z"/>
</g>
</svg>
