<?xml version="1.0" encoding="utf-8"?>
<!-- Generator: Adobe Illustrator 18.1.1, SVG Export Plug-In . SVG Version: 6.00 Build 0)  -->
<svg version="1.2" baseProfile="tiny" xmlns="http://www.w3.org/2000/svg" xmlns:xlink="http://www.w3.org/1999/xlink" x="0px"
	 y="0px" width="128px" height="128px" viewBox="0 0 128 128" xml:space="preserve">
<g id="_x31_28px_boxes">
	<rect fill="none" width="128" height="128"/>
</g>
<g id="Production">
	<g>
		<path fill="#ffffff" d="M59.2583,72.8055c-4.9372-2.8859-11.0835-9.9847-11.9852-17.2637
			c7.2679-1.7836,16.8607-6.0525,22.6476-16.2571c4.6115,4.2589,9.6013,6.441,13.8193,7.5444
			c0.552,2.0403,0.8499,4.2094,0.8499,6.4574c0,9.511-8.1968,17.2191-12.1304,19.519c6.741,1.8606,16.1081,1.6845,22.0884-3.7091
			c12.3531-11.1396,2.3194-36.5656-4.7305-44.9306c-11.7034-13.8875-36.4956-13.5536-47.9175,0
			c-7.3044,8.6668-16.9449,33.9157-4.7305,44.9306C44.1462,75.3888,52.7931,74.5899,59.2583,72.8055z"/>
		<path fill="#ffffff" d="M50.5146,96.3438h-9.0332c-1.4492,0-2.3667-1.5617-1.6607-2.8277l7.5555-13.5476
			c-25.4213,4.5401-28.4645,19.207-28.5035,32.2364h42.0961L50.5146,96.3438z"/>
		<path fill="#ffffff" d="M89.5943,96.3438h-8.8311L70.227,112.2049h41.9759c-0.0388-13.0294-3.0821-27.6962-28.5032-32.2364
			l7.5552,13.5476C91.9609,94.7814,91.0441,96.3438,89.5943,96.3438z"/>
		<path fill="#ffffff" d="M51.1157,81.8832c0,1.8762,1.5264,3.4026,3.4024,3.4026c1.876,0,3.4023-1.5264,3.4023-3.4026
			c0-1.876-1.5263-3.4024-3.4023-3.4024C52.6421,78.4808,51.1157,80.0072,51.1157,81.8832z"/>
		<path fill="#ffffff" d="M57.6489,93.5106c1.876,0,3.4024-1.5264,3.4024-3.4023c0-1.876-1.5264-3.4024-3.4024-3.4024
			c-1.8763,0-3.4028,1.5264-3.4028,3.4024C54.2461,91.9842,55.7726,93.5106,57.6489,93.5106z"/>
		<path fill="#ffffff" d="M73.1548,81.8832c0,1.8762,1.5266,3.4026,3.4028,3.4026s3.4029-1.5264,3.4029-3.4026
			c0-1.876-1.5267-3.4024-3.4029-3.4024S73.1548,80.0072,73.1548,81.8832z"/>
		<path fill="#ffffff" d="M73.4268,86.7059c-1.8758,0-3.4019,1.5264-3.4019,3.4024c0,1.8759,1.5261,3.4023,3.4019,3.4023
			c1.8762,0,3.4028-1.5264,3.4028-3.4023C76.8296,88.2323,75.303,86.7059,73.4268,86.7059z"/>
		<path fill="#ffffff" d="M65.5376,98.1268c1.8762,0,3.4028-1.5264,3.4028-3.4028c0-1.876-1.5266-3.4024-3.4028-3.4024
			c-1.876,0-3.4024,1.5264-3.4024,3.4024C62.1352,96.6004,63.6616,98.1268,65.5376,98.1268z"/>
	</g>
</g>
</svg>
