<?xml version="1.0" encoding="utf-8"?>
<!-- Generator: Adobe Illustrator 18.1.1, SVG Export Plug-In . SVG Version: 6.00 Build 0)  -->
<svg version="1.2" baseProfile="tiny" xmlns="http://www.w3.org/2000/svg" xmlns:xlink="http://www.w3.org/1999/xlink" x="0px"
	 y="0px" width="128px" height="128px" viewBox="0 0 128 128" xml:space="preserve">
<g id="_x31_28px_boxes">
	<rect fill="none" width="128" height="128"/>
</g>
<g id="Production">
	<path fill="#ffffff" d="M107.1344,37.667h-0.0092c-17.3125,0.0219-23.9371,4.6692-27.2996,7.3115
		c-0.5743,0.4512-5.2107,4.6868-5.8394,4.6868c-0.6613,0-1.1975-0.5359-1.1975-1.197c0-1.0119,5.9062-10.0913,20.5156-20.9026
		c6.568-4.8626-0.782-14.812-7.3612-9.9434c-11.838,8.7665-15.6102,13.4076-20.9899,20.3284
		c-2.4019,3.0905-2.6186,3.7942-3.5183,3.7942c-0.6753,0-1.2263-0.5474-1.2231-1.2234c0.0005-0.1647,7.457-24.7775,7.5046-24.9351
		c0.9468-3.1399-0.8311-6.4529-3.9712-7.3999c-3.1394-0.9468-6.453,0.8313-7.3997,3.9712
		c-8.2489,27.4148-8.9451,30.2375-11.4342,34.3011c-1.8393,3.0029-30.4786,51.5319-30.4786,51.5319l31.8523,22.0772l9.294-11.0386
		h31.326h0.0106c2.0885,0,4.0571-0.9768,5.3204-2.6404l8.4126-11.0776c5.3391-7.0301-5.2962-15.1182-10.6407-8.0806l-6.4035,8.4321
		l-7.3694-0.0117c-11.6695-7.0063-3.0211-23.6873,7.8152-27.3557l7.0832,2.2459l1.2185,7.1677
		c1.4243,8.3807,14.1104,6.2331,12.6842-2.1563l-1.8759-11.0361c-0.4039-2.3752-2.1012-4.3259-4.3979-5.0542l-11.7739-3.7329
		c5.3115-4.4007,13.0402-5.1749,20.1599-5.1963c3.5504-0.0078,6.424-2.8908,6.419-6.4419
		C113.5624,40.541,110.6833,37.667,107.1344,37.667z"/>
</g>
</svg>
