<?xml version="1.0" encoding="utf-8"?>
<!-- Generator: Adobe Illustrator 18.1.1, SVG Export Plug-In . SVG Version: 6.00 Build 0)  -->
<svg version="1.2" baseProfile="tiny" xmlns="http://www.w3.org/2000/svg" xmlns:xlink="http://www.w3.org/1999/xlink" x="0px"
	 y="0px" width="128px" height="128px" viewBox="0 0 128 128" xml:space="preserve">
<g id="_x31_28px_boxes">
	<rect fill="none" width="128" height="128"/>
</g>
<g id="Production">
	<g>
		<path fill="#ffffff" d="M36.3384,72.0829c2.875,0,5.206-3.0955,5.206-6.9133c0-3.6163-2.0918-6.5826-4.7558-6.886l-0.0005-18.1983
			c0-1.1865,0.9619-2.1487,2.1484-2.1487s2.1485,0.9622,2.1485,2.1487v14.7979l9.3369-0.012l-0.0347-21.3674
			c0-4.062-2.4973-7.5386-6.0396-8.9834v-9.4441c0,0-0.6118-2.3875-3.5009-2.3875c-2.8894,0-3.5015,2.3875-3.5015,2.3875v9.3184
			c-3.7109,1.3615-6.3584,4.926-6.3584,9.1091c0,0,0,30.2534,0,32.8764C30.9868,69.0033,33.7744,72.0829,36.3384,72.0829z"/>
		<path fill="#ffffff" d="M108.3721,51.9722c-0.0015-2.7036-0.9287-4.266-3.5479-4.266h-0.0029l-7.2144-0.01V31.2557
			c0-0.3335-0.0539-0.6635-0.1543-0.9799l-5.3349,2.6054l-4.4214-2.157l-4.6629,0.9656l3.8184-9.1128h7.0642l-3.0976-6.6838
			c-0.5313-1.146-1.6795-1.8792-2.9424-1.8792c-1.2632,0-2.4114,0.7332-2.9424,1.8792l-6.5733,15.5383
			c-0.1723,0.4116-0.215,1.2705-0.215,1.2705v15.041l-3.9988,0.0025l-0.0232-14.2417c0-4.062-2.4973-7.5386-6.0396-8.9834v-9.4441
			c0,0-0.6118-2.3875-3.5012-2.3875c-2.8891,0-3.5015,2.3875-3.5015,2.3875v9.3184c-3.7104,1.3615-6.3581,4.926-6.3581,9.1091
			c0,0,0,30.2534,0,32.8764c0,2.6231,2.7876,5.7027,5.3516,5.7027c2.875,0,5.2058-3.0955,5.2058-6.9133
			c0-3.6163-2.0916-6.5826-4.7557-6.886l-0.0007-18.1983c0-1.1865,0.9619-2.1487,2.1487-2.1487
			c1.1868,0,2.1487,0.9622,2.1487,2.1487v14.7979l36.479-0.0152l0.0156,27.3804c0.0166,12.9616-16.0933,25.9671-37.2617,25.9671
			h-0.0049c-21.5142-0.0021-37.3096-13.1257-37.3257-25.8711V47.806l-3.5918,0.0044c-1.958,0.0026-3.5459,1.5932-3.5434,3.5525
			v30.9902c0.0215,17.0682,19.3217,32.956,44.4648,32.9581h0.001c27.3984,0,44.3787-18.1932,44.3574-31.8531L108.3721,51.9722z"/>
	</g>
</g>
</svg>
