<?xml version="1.0" encoding="utf-8"?>
<!-- Generator: Adobe Illustrator 18.1.1, SVG Export Plug-In . SVG Version: 6.00 Build 0)  -->
<svg version="1.2" baseProfile="tiny" xmlns="http://www.w3.org/2000/svg" xmlns:xlink="http://www.w3.org/1999/xlink" x="0px"
	 y="0px" width="128px" height="128px" viewBox="0 0 128 128" xml:space="preserve">
<g id="box">
	<rect fill="none" width="128" height="128"/>
</g>
<g id="Production">
	<g>
		<path fill="#ffffff" d="M79.7218,76.3305h16.866c1.374,0,2.4875-1.1137,2.4875-2.4872s-1.1135-2.4872-2.4875-2.4872h-16.866
			c-1.3735,0-2.4866,1.1137-2.4866,2.4872S78.3483,76.3305,79.7218,76.3305z"/>
		<path fill="#ffffff" d="M49.5243,83.1078c1.7812-1.7287,4.2808-2.4521,7.3689-2.6506c0.1853-0.0139,0.8245-0.1088,0.8245-0.1088
			c2.1838-0.2661,4.3254-0.9822,6.2646-2.2807c1.1355-0.7712,2.1743-1.703,3.0903-2.7514
			c2.7691-3.1792,4.4698-7.4365,4.5684-11.7003c0.0115-0.9554-1.0427-1.559-1.8591-1.0168l-10.1866,6.8457
			c0,0-0.03,0.0253-0.2168,0.0979c-2.4403,0.7994-4.6187-1.38-6.0517-3.5171c-2.8069-4.3479-1.5816-5.8922-1.0708-6.6007
			c0.217-0.2625,0.3364-0.2879,0.3225-0.3036l10.2417-6.8821c0.7887-0.5244,0.6733-1.7507-0.2378-2.0993
			c-5.3027-2.0202-11.687-1.4335-16.2725,1.631c-4.3878,2.9283-6.5774,7.871-6.3662,13.0084
			c0.3079,3.4446,0.1507,6.5287-1.6445,8.5945c-3.2459,3.718-0.9254,1.319-17.9656,18.8792
			c-2.7907,2.9351-2.6833,7.5837,0.2634,10.3902c2.9446,2.7958,7.5972,2.6785,10.3919-0.2645
			C38.9196,93.4281,39.9335,93.2478,49.5243,83.1078z M26.6903,100.1523h-0.0005c-1.5188,0.5969-3.2358-0.1512-3.833-1.6724
			c-0.5989-1.5213,0.1487-3.2416,1.6704-3.8383c1.5217-0.598,3.2378,0.1482,3.835,1.6731
			C28.9635,97.8332,28.214,99.5522,26.6903,100.1523z"/>
		<path fill="#ffffff" d="M79.7218,66.3791h16.866c1.374,0,2.4875-1.1138,2.4875-2.4865c0-1.3735-1.1135-2.488-2.4875-2.488h-16.866
			c-1.3735,0-2.4866,1.1145-2.4866,2.488C77.2352,65.2653,78.3483,66.3791,79.7218,66.3791z"/>
		<path fill="#ffffff" d="M102.1473,23.3345H33.9171c-4.1662,0.0021-7.5398,3.3754-7.5417,7.5419v48.7402l6.1538-6.3933V42.5356
			h71.0051v42.5836c-0.0005,0.7645-0.6221,1.3855-1.387,1.3871H52.5629l-6.045,6.1536h55.6294
			c4.1656-0.002,7.5391-3.3751,7.5411-7.5407V30.8764C109.6864,26.7099,106.3134,23.3366,102.1473,23.3345z M103.5343,36.382
			H32.5292v-5.5056c0.0005-0.7657,0.6223-1.3867,1.3879-1.3882h68.2302c0.7649,0.0015,1.3865,0.6225,1.387,1.3882V36.382z"/>
		<path fill="#ffffff" d="M79.7218,56.4283h16.866c1.374,0,2.4875-1.1137,2.4875-2.4872c0-1.3736-1.1135-2.4873-2.4875-2.4873
			h-16.866c-1.3735,0-2.4866,1.1137-2.4866,2.4873C77.2352,55.3146,78.3483,56.4283,79.7218,56.4283z"/>
	</g>
</g>
</svg>
