<?xml version="1.0" encoding="utf-8"?>

<svg version="1.2" baseProfile="tiny" xmlns="http://www.w3.org/2000/svg" xmlns:xlink="http://www.w3.org/1999/xlink" x="0px"
	 y="0px" width="128px" height="128px" viewBox="0 0 128 128" xml:space="preserve">
<g id="_x31_28px_boxes">
	<rect fill="none" width="128" height="128"/>
</g>
<g id="Production">
	<g>
		<rect x="81.6917" y="36.8995" fill="#ffffff" width="33.7656" height="7.4312"/>
		<rect x="81.6917" y="51.7623" fill="#ffffff" width="33.7656" height="7.4312"/>
		<path fill="#ffffff" d="M74.7188,81.3595c-6.5149-2.4829-12.3143-4.6423-12.9754-7.1201
			c-0.6221-2.3313,0.9815-3.7315,3.2517-6.9026c3.6743-4.9573,5.9646-11.6946,5.9646-18.4944c0-13.2629-8.6992-21.72-19.4306-21.72
			c-10.7315,0-19.4307,8.4571-19.4307,21.72c0,6.7998,2.2905,13.5371,5.9648,18.4944c2.2701,3.1711,3.8736,4.5713,3.2515,6.9026
			c-0.6611,2.4778-6.4605,4.6372-12.9751,7.1201c-17.0797,6.5089-15.7969,13.7312-15.7969,19.5181h77.9727
			C90.5154,95.3498,91.9903,87.9418,74.7188,81.3595z"/>
	</g>
</g>
</svg>
