<?xml version="1.0" encoding="utf-8"?>
<!-- Generator: Adobe Illustrator 18.1.1, SVG Export Plug-In . SVG Version: 6.00 Build 0)  -->
<svg version="1.2" baseProfile="tiny" xmlns="http://www.w3.org/2000/svg" xmlns:xlink="http://www.w3.org/1999/xlink" x="0px"
	 y="0px" width="128px" height="128px" viewBox="0 0 128 128" xml:space="preserve">
<g id="_x31_28px_boxes">
	<rect fill="none" width="128" height="128"/>
</g>
<g id="Production">
	<g>
		<path fill="#ffffff" d="M64.267,59.5944L52.0817,71.7793l5.3799,5.38l12.1862-12.186
			C68.5431,62.7129,66.6644,60.7642,64.267,59.5944z"/>
		<path fill="#ffffff" d="M36.913,61.9477c-1.0274-1.0274-2.6929-1.0274-3.72,0c-2.262,2.2618-3.0349,5.6174-2.1931,9.4638
			c-3.9585,3.9589-1.3045,1.3046-13.0869,13.0871c-1.4851,1.4848-1.4856,3.8942-0.0003,5.3799l8.0349,8.0349l-5.5593,5.5593
			c-1.4856,1.4856-1.4856,3.8942,0,5.3799c1.4856,1.4854,3.8938,1.4855,5.3799,0l21.3393-21.3395l0.0003,0.0001
			c3.4192,0.7485,6.977,0.2931,9.4604-2.19c1.0269-1.0264,1.0271-2.6931,0-3.7199C51.6796,76.7147,55.881,80.9157,36.913,61.9477z"
			/>
		<path fill="#ffffff" d="M98.3055,36.3152c2.9302-2.93,1.9874-1.9871,4.8311-4.831c1.4856-1.4856,1.4858-3.8944,0.0002-5.3798
			c-1.4858-1.4857-3.8942-1.4856-5.3798-0.0002c-2.3914,2.3912-1.3291,1.3291-4.8287,4.8288
			C74.9679,15.2937,48.8409,13.5121,30.911,27.5804c-2.3555,1.8481-0.2864,5.5898,2.53,4.5822
			c1.4295-0.5116,2.9498-0.771,4.5181-0.771c3.9231,0,7.8367,1.6637,10.7371,4.5644c4.4126,4.4123,4.7885,11.0774,3.2038,15.7256
			c-0.709,2.0796,1.2845,4.074,3.3653,3.3651c3.7971-1.295,8.2219-0.8212,12.0556,1.4936c2.1531,1.2997,4.0183,3.1238,5.3802,5.3795
			c2.2294,3.6921,2.8339,8.1237,1.4931,12.0561c-0.7092,2.0801,1.2852,4.074,3.3653,3.365
			c1.6345-0.5573,3.4555-0.8518,5.2666-0.8518c4.1291,0,7.8435,1.4403,10.4587,4.0557c4.1392,4.139,5.6282,10.1266,3.7935,15.2547
			c-1.0091,2.8188,2.7358,4.883,4.5822,2.5298C115.5094,80.6782,114.1876,54.5961,98.3055,36.3152z"/>
	</g>
</g>
</svg>
