<?xml version="1.0" encoding="utf-8"?>
<!-- Generator: Adobe Illustrator 18.1.1, SVG Export Plug-In . SVG Version: 6.00 Build 0)  -->
<svg version="1.2" baseProfile="tiny" xmlns="http://www.w3.org/2000/svg" xmlns:xlink="http://www.w3.org/1999/xlink" x="0px"
	 y="0px" width="128px" height="128px" viewBox="0 0 128 128" xml:space="preserve">
<g id="box">
	<rect fill="none" width="128" height="128"/>
</g>
<g id="Production">
	<path fill="#ffffff" d="M97.6049,86.6552h-0.0188l0.0115-0.0069L78.5075,53.5805V26.8028h0.0811c3.8078,0,3.8142-5.7769,0-5.7769
		H49.354c-3.8235,0-3.8251,5.7769,0,5.7769h0.1528v26.7706L30.4072,86.6483c-1.6655,2.8872-2.5542,5.7696-2.561,8.5505
		c-0.0514,6.2549,4.8064,11.7642,14.29,11.7753h43.7397C98.1082,106.9597,103.8546,97.5369,97.6049,86.6552z M54.3,69.9479
		c0,0-9.0593,16.0757-12.2795,21.267c-2.0357,3.285-0.722,7.4006,2.1445,9.9895c-5.3867,0-10.3594-0.592-10.5515-6.0056
		c0-1.5086,0.5066-3.4541,1.7859-5.6633l19.8769-34.4236l-0.0071-28.3091h17.4734V55.119l8.5572,14.8289H54.3z"/>
</g>
</svg>
