<?xml version="1.0" encoding="utf-8"?>
<!-- Generator: Adobe Illustrator 18.1.1, SVG Export Plug-In . SVG Version: 6.00 Build 0)  -->
<svg version="1.2" baseProfile="tiny" xmlns="http://www.w3.org/2000/svg" xmlns:xlink="http://www.w3.org/1999/xlink" x="0px"
	 y="0px" width="128px" height="128px" viewBox="0 0 128 128" xml:space="preserve">
<g id="_x31_28px_boxes" display="none">
	<rect display="inline" fill="none" width="128" height="128"/>
</g>
<g id="Production">
	<g>
		<path fill="#ffffff" d="M33.4131,42.8444c-6.1448,0-8.3092,7.9239-8.5578,17.6845h17.1159
			C41.7222,50.7683,39.5579,42.8444,33.4131,42.8444z"/>
		<circle fill="#ffffff" cx="33.4136" cy="33.5895" r="6.9404"/>
		<path fill="#ffffff" d="M59.5381,42.8444c-6.1448,0-8.3092,7.9239-8.5578,17.6845h17.1159
			C67.8472,50.7683,65.6829,42.8444,59.5381,42.8444z"/>
		<circle fill="#ffffff" cx="59.5386" cy="33.5895" r="6.9404"/>
		<path fill="#ffffff" d="M81.1167,49.8308l11.1504,0.0278l-1.083,4.4413c-0.2439,1.0377,0.8797,1.9064,1.8379,1.3687
			l15.5439-8.9643c0.8136-0.4633,0.787-1.6562-0.041-2.1094L92.635,35.5558c-0.4414-0.246-0.9809-0.2149-1.3718,0.0909
			c-0.385,0.2998-0.5493,0.8086-0.4077,1.289l1.3232,4.4272l-11.102,0.0543c-0.6547,0-1.2214,0.5261-1.2093,1.2177l-0.0002,5.975
			C79.8809,49.2798,80.4413,49.8203,81.1167,49.8308z"/>
		<path fill="#ffffff" d="M104.0435,65.0289H23.957c-10.03,0-18.1611,8.1309-18.1611,18.1609
			c0,10.0303,8.1311,18.1611,18.1611,18.1611h80.0865c10.0302,0,18.1606-8.1308,18.1606-18.1611
			C122.2041,73.1598,114.0737,65.0289,104.0435,65.0289z M104.0435,93.3856H23.957c-5.6308,0-10.1955-4.565-10.1955-10.1958
			c0-5.6309,4.5647-10.1956,10.1955-10.1956h80.0865c5.6308,0,10.1953,4.5647,10.1953,10.1956
			C114.2388,88.8206,109.6743,93.3856,104.0435,93.3856z"/>
	</g>
</g>
</svg>
