<?xml version="1.0" encoding="utf-8"?>
<!-- Generator: Adobe Illustrator 18.1.1, SVG Export Plug-In . SVG Version: 6.00 Build 0)  -->
<svg version="1.2" baseProfile="tiny" xmlns="http://www.w3.org/2000/svg" xmlns:xlink="http://www.w3.org/1999/xlink" x="0px"
	 y="0px" width="128px" height="128px" viewBox="0 0 128 128" xml:space="preserve">
<g id="_x31_28px_boxes">
	<rect fill="none" width="128" height="128"/>
</g>
<g id="Production">
	<g>
		<path fill="#ffffff" d="M47.9222,39.2627c2.9851,2.6333,6.4304,4.539,9.9425,5.5673c-0.5608,1.4393-0.9734,2.906-1.2218,4.3768
			c2.0831,0.1579,4.195,0.2905,6.2882,0.3846c0.6827-3.1822,2.4271-6.3616,5.0007-9.0685
			c3.5282-3.7109,8.0888-5.9264,12.1996-5.9264c1.5885,0,3.8523,0.352,5.6164,2.0293c1.844,1.7531,2.6318,4.4914,2.2177,7.7103
			c-0.1782,1.3858-0.5673,2.7821-1.1427,4.1506c2.6594-0.3375,5.0127-0.695,6.896-1.0058c0.1924-0.7805,0.345-1.564,0.4457-2.3476
			c0.6747-5.246-0.7853-9.876-4.1103-13.0371c-3.2467-3.0868-7.6495-4.1623-12.1149-3.6133
			c-0.9563-5.4021-4.1023-10.3017-8.2179-13.932c-8.7198-7.6919-20.745-8.7586-26.9111-1.7682
			C36.597,19.8263,39.2632,31.6242,47.9222,39.2627z M47.4974,16.9173c3.5371-4.0097,11.6572-3.3534,18.0896,2.3206
			c3.2011,2.8239,5.766,6.7503,6.2948,10.9544c-4.1596,1.8368-8.0159,4.9331-10.9235,8.9775
			c-3.0691-0.614-6.2008-2.2117-8.9017-4.5942C45.9183,29.1607,43.8304,21.0742,47.4974,16.9173z"/>
		<path fill="#ffffff" d="M103.6534,110.5478c-1.3936-2.4807-3.7884-4.9005-4.7886-5.6323
			c-0.398-4.5739-1.5115-12.9957-4.584-20.9811l9.0923-28.2393c0.7927-2.4626-1.3753-4.8698-3.906-4.3373
			c-21.9584,4.6093-43.1814,3.803-67.5916-0.1935c-2.3957-0.3927-4.4162,1.8042-3.8178,4.1609l7.6222,30.0235
			c-1.5085,3.1812-5.3092,12.0791-4.9081,20.1416c-4.3772,4.951-3.4558,3.9089-7.7393,8.7538
			c-0.4186,0.4739-0.3678,1.2004,0.1132,1.6108c0.193,0.165,4.7815,4.0353,9.5538,4.0353c2.7561,0,4.4555-1.2921,5.8208-2.3302
			c2.6128-1.9872,3.5324-1.873,5.9956,0c1.3655,1.0381,3.0647,2.3302,5.8211,2.3302c2.8132,0,4.6185-1.3332,6.0691-2.4044
			c2.4831-1.834,3.0593-1.8016,5.4996,0c1.4505,1.0712,3.256,2.4044,6.0692,2.4044c2.7727,0,4.5039-1.3041,5.8949-2.3518
			c2.494-1.8782,3.3024-1.917,5.8474-0.0001c1.391,1.0478,3.1221,2.3519,5.8952,2.3519c2.8612,0,4.748-1.367,6.2641-2.4656
			c2.3362-1.6935,2.6482-1.729,5.387-0.1037c1.6291,0.9669,3.6567,2.1702,6.4612,2.1702c0.4342,0,0.8302-0.2485,1.019-0.6393
			C104.8322,118.6689,106.3555,115.3585,103.6534,110.5478z M37.4991,105.0631c-0.2996-6.464,3.1816-14.7763,4.7466-17.7696
			c0.3869-0.7374,0.4879-1.592,0.2829-2.3992l-6.6792-26.3092c3.0844,0.4338,7.3477,0.9877,12.153,1.485l3.6334,21.461
			l-6.9978,18.4946h46.8286c0.2987,1.9341,0.4966,3.6572,0.6265,5.0374H37.4991z"/>
	</g>
</g>
</svg>
