<?xml version="1.0" encoding="utf-8"?>
<!-- Generator: Adobe Illustrator 18.1.1, SVG Export Plug-In . SVG Version: 6.00 Build 0)  -->
<svg version="1.2" baseProfile="tiny" xmlns="http://www.w3.org/2000/svg" xmlns:xlink="http://www.w3.org/1999/xlink" x="0px"
	 y="0px" width="128px" height="128px" viewBox="0 0 128 128" xml:space="preserve">
<g id="box">
	<rect fill="none" width="128" height="128"/>
</g>
<g id="Production">
	<g>
		<path fill="#ffffff" d="M83.6501,29.8344h-2.207v-4.9358c0-1.0012-0.8008-1.8616-1.8535-1.8616h-5.5767v-4.155h4.514
			c0.5886,0,1.0996-0.4829,1.0996-1.1023c-0.3191-5.1914-7.4014-8.0312-15.5857-8.1313c-8.187,0.1001-15.2771,2.9399-15.5882,8.1313
			c0,0.6396,0.5096,1.1023,1.1021,1.1023h4.978v4.155H48.5c-1.0642,0-1.8643,0.8724-1.8643,1.8616v4.9358h-2.2939
			c-8.7117,0.0158-16.1077,6.702-16.1445,15.453v51.5039c0.0185,4.7829,2.2861,8.8989,5.719,11.6938
			c1.2605,1.0256,2.6394,1.9143,4.1713,2.5313c-0.4167,1.7692-0.6987,3.5859-0.6987,5.4738c0,1.0545,0.8845,1.8614,1.8589,1.8614
			h49.5835c1,0,1.8589-0.8055,1.8589-1.8614c0-1.8984-0.2849-3.7309-0.7068-5.5107c1.5293-0.6277,2.9111-1.511,4.1636-2.5444
			c3.396-2.7976,5.6318-6.8926,5.6557-11.6438V45.2874C99.7578,36.5364,92.3696,29.8502,83.6501,29.8344z M52.5315,30.467
			c0-1.2813,1.0415-2.3255,2.3257-2.3255c1.2761,0,2.3176,1.0442,2.3176,2.3255v13.4731h-4.6433V30.467z M48.0991,68.3495v-0.0051
			c0.2005-5.0599,1.7483-11.5959,4.0159-17.4255h23.8518c2.2676,5.8296,3.8232,12.3656,4.021,17.4255
			c0.1106,6.0194-1.0671,11.7171-5.7903,15.4925H53.8894C49.2625,80.147,47.886,74.2859,48.0991,68.3495z M55.4424,99.1248
			c-3.1297,4.3584-4.3084,8.3161-4.9649,13.1677c-0.0317,0.2295-0.2214,0.406-0.4587,0.406h-5.429
			c-0.2412,0-0.435-0.1474-0.435-0.4797c0-0.0345-0.0291-0.0635-0.0239-0.0923c0.0581-0.2481,0.145-0.48,0.2109-0.72
			c1.4714-5.3789,5.2393-10.0037,10.2358-12.7986c0.0896-0.05,0.1741-0.1133,0.2637-0.1609
			C55.3176,98.1758,55.6638,98.8143,55.4424,99.1248z M90.9221,96.7913c0,1.1101-0.3533,2.1804-0.9333,3.1323
			c-0.7857,1.2893-2.0171,2.3467-3.586,2.9294c-2.518-3.6677-5.9907-6.6867-10.0932-8.6958h-0.0027H51.7773
			c-4.1157,2.0144-7.5988,5.0413-10.1169,8.7168c-1.5742-0.5693-2.8213-1.6108-3.6177-2.895
			c-0.601-0.9678-0.9651-2.0566-0.9651-3.1877V45.2874c0.0054-3.4119,3.0454-6.5495,7.2642-6.5732h2.2939v5.2259h-1.727
			c-2.0486,0-3.707,1.5606-3.707,3.4935c0,1.9274,1.6584,3.4853,3.707,3.4853h1.6269c-2.0566,5.785-3.3986,11.9386-3.6254,17.2038
			h-0.0027c-0.3689,8.8014,2.2551,15.9054,9.2785,20.9112h23.7068c7.0957-5.0572,9.5769-12.0579,9.2866-20.8822
			c-0.2268-5.2837-1.5688-11.4454-3.6281-17.2328h1.6111c2.0485,0,3.715-1.5579,3.715-3.4853c0-1.9329-1.6665-3.4935-3.715-3.4935
			h-1.7193v-5.2259h2.207c4.2239,0.0237,7.2642,3.1613,7.272,6.5732V96.7913z"/>
		<path fill="#ffffff" d="M61.6968,81.2771c-2.5315-1.6517-1.2105-5.72,0.5351-7.765c1.0469-1.2287,2.969-3.3197,2.969-3.3197
			c2.2544,3.1799,4.6831,8.0798,1.5689,10.6572c3.9868-1.1204,6.8318-4.084,6.4836-8.8298
			c-0.5456-7.4696-11.8703-15.7986-11.8703-15.7986s0.2187,5.9851-1.7879,9.0647c-2.3203,3.5568-4.9702,4.3292-5.5159,8.2789
			C53.5547,77.3457,56.6157,80.7783,61.6968,81.2771z"/>
	</g>
</g>
</svg>
