<?xml version="1.0" encoding="utf-8"?>
<!-- Generator: Adobe Illustrator 18.1.1, SVG Export Plug-In . SVG Version: 6.00 Build 0)  -->
<svg version="1.2" baseProfile="tiny" xmlns="http://www.w3.org/2000/svg" xmlns:xlink="http://www.w3.org/1999/xlink" x="0px"
	 y="0px" width="128px" height="128px" viewBox="0 0 128 128" xml:space="preserve">
<g id="_x31_28px_boxes">
	<rect fill="none" width="128" height="128"/>
</g>
<g id="Production">
	<g>
		<path fill="#ffffff" d="M103.2937,21H69.7063C67.6594,21,66,22.6594,66,24.7063v33.5874C66,60.3406,67.6594,62,69.7063,62h33.5874
			C105.3406,62,107,60.3406,107,58.2937V24.7063C107,22.6594,105.3406,21,103.2937,21z M97,42.0328
			C97,43.1192,96.1191,44,95.0327,44H76.9673C75.8809,44,75,43.1192,75,42.0328v-2.0656C75,38.8808,75.8809,38,76.9673,38h18.0654
			C96.1191,38,97,38.8808,97,39.9672V42.0328z"/>
		<path fill="#ffffff" d="M103.2937,66H69.7063C67.6594,66,66,67.6594,66,69.7063v33.5874C66,105.3406,67.6594,107,69.7063,107
			h33.5874c2.0469,0,3.7063-1.6594,3.7063-3.7063V69.7063C107,67.6594,105.3406,66,103.2937,66z M96.8047,92.7607
			c0.5483,0.5489,0.5486,1.4386,0,1.9874l-2.0479,2.0476c-0.5488,0.5488-1.4384,0.5487-1.9873,0l-6.7199-6.7199l-7.0957,7.0956
			c-0.5489,0.5488-1.4384,0.5486-1.9873,0l-2.1844-2.1844c-0.549-0.5484-0.5488-1.4385-0.0002-1.9873l7.0957-7.0956l-6.7205-6.7203
			c-0.5486-0.5487-0.5483-1.4384,0-1.9873l2.0481-2.048c0.5484-0.5486,1.439-0.5486,1.9873,0l6.7202,6.7204l7.0274-7.0273
			c0.5488-0.5486,1.4385-0.5486,1.9873,0l2.1843,2.1843c0.5488,0.5488,0.5488,1.4385,0,1.9873l-7.0273,7.0271L96.8047,92.7607z"/>
		<path fill="#ffffff" d="M58.2937,66H24.7063C22.6594,66,21,67.6594,21,69.7063v33.5874C21,105.3406,22.6594,107,24.7063,107
			h33.5874C60.3406,107,62,105.3406,62,103.2937V69.7063C62,67.6594,60.3406,66,58.2937,66z M57,77.4c0,0.8836-0.7163,1.6-1.6,1.6
			h-4.8014L40.3665,99.3427c-0.597,1.1867-2.2964,1.1712-2.8716-0.0262L31.5781,87H28.6c-0.8837,0-1.6-0.7164-1.6-1.6v-2.8
			c0-0.8836,0.7163-1.6,1.6-1.6h5.3824c0.6209,0,1.1858,0.3593,1.449,0.9216l3.5754,7.6365l8.0472-15.6883
			C47.3278,73.3358,47.8774,73,48.4775,73H55.4c0.8837,0,1.6,0.7164,1.6,1.6V77.4z"/>
		<path fill="#ffffff" d="M58.2937,21H24.7063C22.6594,21,21,22.6594,21,24.7063v33.5874C21,60.3406,22.6594,62,24.7063,62h33.5874
			C60.3406,62,62,60.3406,62,58.2937V24.7063C62,22.6594,60.3406,21,58.2937,21z M54,42.4061C54,43.1823,53.1765,44,52.4004,44H44
			v8.8461C44,53.6223,43.2677,54,42.4917,54h-3.0894C38.6265,54,38,53.6223,38,52.8463V44h-8.507C28.717,44,28,43.1823,28,42.4064
			V39.51c0-0.7757,0.7174-1.51,1.4932-1.51H38v-8.8333C38,28.3908,38.6265,28,39.4023,28h3.0892C43.2676,28,44,28.3906,44,29.1667
			V38h8.4004C53.1763,38,54,38.7342,54,39.5102V42.4061z"/>
	</g>
</g>
</svg>
