<?xml version="1.0" encoding="utf-8"?>
<!-- Generator: Adobe Illustrator 18.1.1, SVG Export Plug-In . SVG Version: 6.00 Build 0)  -->
<svg version="1.2" baseProfile="tiny" xmlns="http://www.w3.org/2000/svg" xmlns:xlink="http://www.w3.org/1999/xlink" x="0px"
	 y="0px" width="128px" height="128px" viewBox="0 0 128 128" xml:space="preserve">
<g id="_x31_28px_boxes">
	<rect fill="none" width="128" height="128"/>
</g>
<g id="Production">
	<g>
		<path fill="#ffffff" d="M26.387,74.4976c0,3.4085,2.2911,6.5823,6.2189,9.2327v11.0696c0,3.4411,1.9227,6.5937,4.9822,8.1689
			c14.6935,7.5653,37.7274,7.6027,52.5427,0.6031c3.2135-1.5182,5.2632-4.7536,5.2632-8.3077V83.7305
			c3.928-2.6505,6.2191-5.8243,6.2191-9.2329C101.6131,52.4038,26.387,52.3928,26.387,74.4976z M41.8612,94.888
			c-0.366-1.6511,0.5202-3.2512,1.978-3.5745c1.4585-0.323,2.9375,0.753,3.3035,2.4043c0.3659,1.6512-0.5201,3.2515-1.9783,3.5745
			C43.7059,97.6153,42.2269,96.5394,41.8612,94.888z M57.4933,100.1888c-1.499,0-2.7476-1.14-2.9044-2.6519
			c-0.1669-1.6113,0.9813-3.0701,2.5959-3.2374c1.625-0.1661,3.0369,1.0245,3.2041,2.6364
			c0.1677,1.6175-0.9869,3.0707-2.5955,3.2374C57.6927,100.1836,57.5925,100.1888,57.4933,100.1888z M70.4502,100.1888
			L70.4502,100.1888c-0.0994,0-0.1996-0.0052-0.3005-0.0155c-1.6038-0.1662-2.7635-1.6154-2.5953-3.2374
			c0.1673-1.6119,1.5788-2.8025,3.2043-2.6364c1.6128,0.1671,2.7628,1.6244,2.5958,3.2374
			C73.1976,99.0486,71.949,100.1888,70.4502,100.1888z M82.7789,97.2923c-1.4582-0.323-2.3442-1.9233-1.9783-3.5745
			c0.366-1.6513,1.845-2.7273,3.3035-2.4043c1.4578,0.3233,2.344,1.9234,1.978,3.5745
			C85.7164,96.5394,84.2374,97.6153,82.7789,97.2923z"/>
		<path fill="#ffffff" d="M64.0001,40.3668c1.5762,0.8094,5.7196,7.3835,6.2903,12.4458
			c2.5327-6.6592,7.3823-19.5874-6.1983-33.4512c-0.0312-0.0317-0.06-0.0633-0.0918-0.0955l-0.0002,0.0003h-0.0002
			c-0.0318,0.0319-0.0606,0.0635-0.0921,0.0952c-13.5803,13.8638-8.7307,26.792-6.1982,33.4512
			C58.2821,47.7335,62.4372,41.1694,64.0001,40.3668z"/>
		<path fill="#ffffff" d="M37.6095,57.596c0,0-2.2842-7.6072-0.0076-13.8769c1.582,1.2297,4.8891,6.8994,10.7109,10.4699
			c1.9959-15.8506-12.3164-26.9944-15.6235-30.4199C20.9957,40.4239,32.5699,57.596,37.6095,57.596z"/>
		<path fill="#ffffff" d="M28.0521,63.5946c-2.853-15.7191-11.645-13.4737-20.2874-23.764
			C2.5675,54.4771,8.7096,73.8482,20.994,71.4859c0,0-4.8823-6.772-5.355-13.4175C20.4974,62.0509,28.0521,63.5946,28.0521,63.5946z
			"/>
		<path fill="#ffffff" d="M90.3983,43.7191c2.2763,6.2697-0.0078,13.8769-0.0078,13.8769c5.0395,0,16.6138-17.1721,4.9202-33.8269
			c-3.3074,3.4255-17.6194,14.5693-15.6236,30.4199C85.5087,50.6185,88.816,44.9488,90.3983,43.7191z"/>
		<path fill="#ffffff" d="M120.2352,39.8306c-8.6426,10.2903-17.4343,8.0449-20.2874,23.764c0,0,7.5545-1.5437,12.4131-5.5262
			c-0.4724,6.6455-5.3547,13.4175-5.3547,13.4175C119.2904,73.8482,125.4325,54.4771,120.2352,39.8306z"/>
	</g>
</g>
</svg>

