<?xml version="1.0" encoding="utf-8"?>
<!-- Generator: Adobe Illustrator 19.1.0, SVG Export Plug-In . SVG Version: 6.00 Build 0)  -->
<svg version="1.2" baseProfile="tiny" xmlns="http://www.w3.org/2000/svg" xmlns:xlink="http://www.w3.org/1999/xlink" x="0px"
	 y="0px" width="64px" height="64px" viewBox="0 0 64 64" xml:space="preserve">
<g id="box">
	<rect fill="none" width="64" height="64"/>
</g>
<g id="Production">
	<g>
		<path fill="#ffffff" d="M55,10H9c-1.103,0-2,0.897-2,2v29.25l2-2.0414V18h46.0002l0.0012,28H19.4899l-1.959,2H55
			c1.103,0,2-0.897,2-2V12C57,10.897,56.103,10,55,10z M9,16v-4h46l0.0002,4H9z"/>
		<path fill="#ffffff" d="M30.0657,38.9213c2.8999-1.693,4.2832-5.1732,3.524-8.8663c-0.0626-0.3049-0.2687-0.5612-0.5532-0.6885
			c-0.2845-0.127-0.613-0.1099-0.882,0.0482l-5.019,2.9304c-0.1514,0.0869-0.3306,0.0969-0.4784,0.0284
			c-0.3705-0.1733-0.9052-0.5396-1.3479-1.298c-0.4456-0.7637-0.5001-1.4115-0.467-1.8206c0.0128-0.1595,0.1088-0.3061,0.2557-0.392
			l5.0225-2.9322c0.2689-0.1572,0.4463-0.434,0.4752-0.7444c0.0294-0.3099-0.0927-0.6152-0.3278-0.8198
			c-2.8428-2.4775-6.5532-2.9839-9.453-1.29c-3.2513,1.8983-4.5497,6.1801-3.1637,10.1589L6.2327,44.8914
			c-0.7751,0.7822-1.1987,1.8201-1.1934,2.9215c0.0052,1.1015,0.4393,2.1348,1.2214,2.9094
			c0.7649,0.7579,1.7736,1.1802,2.8474,1.1939c0.0245,0.0003,0.0496,0.0002,0.0742,0c1.1013-0.0053,2.1346-0.4389,2.9141-1.2258
			l11.1793-11.4141C25.6006,40.2231,28.0405,40.1031,30.0657,38.9213z M22.3665,37.4398L10.718,49.3334
			c-0.4119,0.4151-0.9603,0.6457-1.545,0.6486c-0.6044-0.0078-1.1359-0.2233-1.5509-0.6343
			c-0.4156-0.411-0.6458-0.9594-0.6487-1.5446c-0.0029-0.5848,0.2223-1.1354,0.6377-1.5547l11.8568-12.1036
			c0.2723-0.2785,0.3512-0.6936,0.2-1.0526c-1.3717-3.2503-0.4592-6.8381,2.1222-8.3458c0.8536-0.4983,1.8083-0.735,2.7874-0.7225
			c1.105,0.014,2.2404,0.3459,3.2944,0.9795l-3.7491,2.189c-0.6932,0.4044-1.1449,1.1175-1.2084,1.9069
			c-0.0554,0.6855,0.0254,1.7535,0.7246,2.9512c0.6938,1.1891,1.5779,1.7846,2.1986,2.075
			c0.7253,0.3408,1.5746,0.2988,2.2731-0.1103l3.7458-2.1867c0.063,2.3184-0.9492,4.3619-2.7659,5.4226
			c-1.6412,0.9576-3.6825,0.9581-5.6011-0.0001C23.1132,37.0634,22.6597,37.1412,22.3665,37.4398z"/>
		<rect x="39" y="25" fill="#ffffff" width="12" height="2"/>
		<rect x="39" y="30" fill="#ffffff" width="12" height="2"/>
		<rect x="39" y="35" fill="#ffffff" width="12" height="2"/>
		<rect x="11" y="13" fill="#ffffff" width="2" height="2"/>
		<rect x="15" y="13" fill="#ffffff" width="2" height="2"/>
	</g>
</g>
</svg>

