<?xml version="1.0" encoding="utf-8"?>
<!-- Generator: Adobe Illustrator 18.1.0, SVG Export Plug-In . SVG Version: 6.00 Build 0)  -->
<svg version="1.2" baseProfile="tiny" xmlns="http://www.w3.org/2000/svg" xmlns:xlink="http://www.w3.org/1999/xlink" x="0px"
	 y="0px" width="64px" height="64px" viewBox="0 0 64 64" xml:space="preserve">
<g id="_x36_4px_boxes">
	<rect fill="none" width="64" height="64"/>
</g>
<g id="Production">
	<g>
		<path fill="#ffffff" d="M54.4561,40.9995c-5.2384,0-9.5002,4.2617-9.5002,9.4999c0,5.2383,4.2618,9.4999,9.5002,9.4999
			c5.2385,0,9.5003-4.2616,9.5003-9.4999C63.9564,45.2612,59.6946,40.9995,54.4561,40.9995z M54.4561,54.9994
			c-2.4814,0-4.5001-2.0186-4.5001-4.4999s2.0187-4.5,4.5001-4.5s4.5001,2.0186,4.5001,4.5S56.9376,54.9994,54.4561,54.9994z"/>
		<circle fill="#ffffff" cx="33.4554" cy="58.4993" r="4.4999"/>
		<path fill="#ffffff" d="M0.9566,44.4219c0,1.7391,0.6749,3.3715,1.8995,4.5965c7.2443,7.2432,8.1934,8.9697,11.6682,8.9697
			c3.4512,0,4.5338-1.8365,10.6068-7.9086L8.8669,33.816C2.5768,40.105,0.9566,41.0263,0.9566,44.4219z M13.4628,52.5531
			c-9.077-9.0753-9.0269-7.2365-4.5958-11.6664l9.1926,9.1924C16.4139,51.7243,14.8897,53.9828,13.4628,52.5531z"/>
		<polygon fill="#ffffff" points="56.1769,2.7704 31.6537,11.0292 11.6961,30.9869 15.2314,34.5222 34.3608,15.3934 
			44.6512,11.9281 47.0194,14.2963 43.5535,24.5851 24.4241,43.7148 27.9593,47.2504 47.9188,27.2922 		"/>
		<path fill="#ffffff" d="M40.5289,20.9192c0-1.3838-1.1228-2.4999-2.5001-2.4999c-1.4263,0-0.2634-0.7714-19.9692,18.9319
			l3.5352,3.535C41.3032,21.1802,40.5289,22.3456,40.5289,20.9192z"/>
	</g>
</g>
</svg>

