<?xml version="1.0" encoding="utf-8"?>
<!-- Generator: Adobe Illustrator 18.1.1, SVG Export Plug-In . SVG Version: 6.00 Build 0)  -->
<svg version="1.2" baseProfile="tiny" xmlns="http://www.w3.org/2000/svg" xmlns:xlink="http://www.w3.org/1999/xlink" x="0px"
	 y="0px" width="128px" height="128px" viewBox="0 0 128 128" xml:space="preserve">
<g id="_x31_28px_boxes">
	<rect fill="none" width="128" height="128"/>
</g>
<g id="Production">
	<g>
		<path fill="#ffffff" d="M53.3527,9.3608c0.2221-0.7819,0.5771-1.1726,0.9326-1.1726c0.3554,0,0.7114,0.3919,0.9341,1.1746
			c2.98,10.4788,11.4856,7.2241,15.971,17.6399h5.6065c-2.8222-8.233-7.5704-11.0227-11.2373-13.1726
			c-2.8857-1.6919-4.3344-2.541-5.2909-5.9038c-1.0455-3.6778-3.7764-4.9881-5.9834-4.9881c-2.2071,0-4.9375,1.3101-5.9828,4.9871
			c-0.9563,3.3638-2.4049,4.2131-5.2912,5.9053c-3.6665,2.1499-8.4144,4.9394-11.2368,13.1721h5.6063
			C41.8668,16.5867,50.3729,19.8423,53.3527,9.3608z"/>
		<path fill="#ffffff" d="M99.8129,52.1963c-3.561-4.471-9.1048-7.035-15.2099-7.035c-2.6925,0-5.3944,0.4928-7.9801,1.431
			c0.0053-0.0108,0.0095-0.0213,0.0149-0.0318c1.3261-2.5776,3.3555-4.135,3.6211-4.332c2.4111-1.5591,3.4502-4.4768,2.6445-7.2369
			c-0.7905-2.7079-3.2959-4.5487-6.1114-4.633c-0.1494-0.0042-44.9693-0.0026-44.8198-0.0026c-2.8884,0-5.4951,1.8632-6.3044,4.6356
			c-0.8059,2.7601,0.2331,5.6778,2.6443,7.2369c2.6484,1.9609,4.7232,5.3544,4.8072,8.9461
			c0.1314,5.6129-4.4437,10.0306-7.2867,16.6933c-2.8669,6.7208-2.5502,14.0261,0.4756,20.3237
			c3.5966,7.4846,9.471,11.6114,17.0586,14.1983c-0.0289,0.7532-0.0396,3.6059-0.0164,4.3584
			c-8.7423,2.9352-14.0746,5.842-14.9612,10.6301c-0.7389,3.9904,2.3277,7.6834,6.3916,7.6834h39.0098
			c4.0583,0,7.1311-3.687,6.3911-7.6831c-1.0638-5.7484-9.1455-8.6783-14.9609-10.6304c0.0234-0.7535,0.0122-3.6069-0.0161-4.3584
			c7.9275-2.7032,13.7896-7.0317,17.2697-14.6536c4.7672-0.438,9.3382-2.2505,13.0652-5.2192
			c4.7376-3.7742,7.6503-9.0421,8.4133-14.6746C104.7216,62.1665,103.2125,56.4634,99.8129,52.1963z M98.6749,67.1223
			c-0.5965,4.3964-2.8896,8.3828-6.4571,11.2246c-3.7593,2.9945-8.6808,4.5291-13.6558,4.0935
			c-2.3481,8.7562-9.9887,14.0514-18.9931,15.8592c-0.0376-0.1009-0.0303,12.4987,0,12.4135
			c2.0303,0.3274,14.6748,4.8033,15.2051,7.6665c0.1133,0.6158-0.3599,1.1822-0.9834,1.1822H34.7808
			c-0.6232,0-1.0976-0.5669-0.9833-1.1822c0.53-2.8632,13.2519-7.3391,15.2826-7.6665c0.0301,0.0855,0.0375-12.5142,0-12.4135
			C35.7872,95.6317,29.3553,86.6233,29.3553,77.478c0-9.5856,6.9501-14.0866,8.8836-22.5893
			c1.6414-7.2166-2.4678-14.2752-6.8248-17.2032c-0.8174-0.5491-0.4266-1.8295,0.5581-1.8295h44.627
			c0.9847,0,1.375,1.2804,0.5577,1.8295c-0.0313,0.0215-3.3058,2.2696-5.4098,6.3592c-2.0083,3.9038-2.3212,8.0974-0.9482,12.5198
			c3.6738-3.7724,8.719-6.0757,13.8133-6.0757c4.4719,0,8.495,1.8308,11.0379,5.0229
			C98.148,58.6477,99.2504,62.8796,98.6749,67.1223z"/>
		<path fill="#ffffff" d="M72.778,61.1394c2.8757,5.2189,6.6148,9.6856,6.4311,16.8381c3.7359,0.2579,7.3969-0.9136,10.2051-3.1506
			c5.8072-4.6257,6.0929-12.2722,2.7161-16.5115C87.793,52.8704,77.9932,54.3162,72.778,61.1394z M84.0565,71.7786
			c-0.8572-3.5053-2.4667-6.5006-4.3786-9.7605c3.6429-2.41,7.0506-1.772,8.2068-0.3203
			C89.9026,64.2307,89.0696,69.5718,84.0565,71.7786z"/>
		<path fill="#ffffff" d="M65.3922,53.7378H43.1793c-0.2649,1.5317-0.552,3.6222-1.8224,6.6495
			c-2.7101,6.4574-7.2502,10.7662-7.2502,17.0907c0,7.1349,5.4716,15.9991,20.1807,16.0003
			c14.1706,0,20.1771-8.4021,20.1771-16.0003c0-5.8576-4.0192-10.4003-6.6861-15.8327
			C66.2081,58.4468,65.7615,56.6257,65.3922,53.7378z"/>
	</g>
</g>
</svg>

