<?xml version="1.0" encoding="utf-8"?>
<!-- Generator: Adobe Illustrator 18.1.1, SVG Export Plug-In . SVG Version: 6.00 Build 0)  -->
<svg version="1.2" baseProfile="tiny" xmlns="http://www.w3.org/2000/svg" xmlns:xlink="http://www.w3.org/1999/xlink" x="0px"
	 y="0px" width="128px" height="128px" viewBox="0 0 128 128" xml:space="preserve">
<g id="_x31_28px_boxes">
	<rect fill="none" width="128" height="128"/>
</g>
<g id="Production">
	<g>
		<path fill="#ffffff" d="M106.6831,24.6741c-2.4209,0-4.3838,1.9629-4.3838,4.3841v1.2612l-73.227,20.9692l-8.4002-2.5993
			c-1.854-0.5743-3.739,0.8144-3.739,2.7568v19.3338c0,1.9331,1.8762,3.333,3.7388,2.7568l8.3984-2.5986l73.229,20.9687
			c0,3.1127,2.161,4.7576,4.3838,4.7576c2.4214,0,4.3838-1.9627,4.3838-4.3838V29.0582
			C111.0669,26.637,109.1045,24.6741,106.6831,24.6741z M102.2993,52.5609c-0.171,0.0216-66.6238,8.4069-66.7961,8.4069
			c-0.0022,0-0.0042-0.0004-0.0066-0.0004c-2.0545-0.0079-2.4589-2.9367-0.4832-3.5022
			c0.7979-0.2287,66.386-19.0102,67.2859-19.2679C102.2993,44.8303,102.2993,46.0025,102.2993,52.5609z"/>
		<path fill="#ffffff" d="M68.2749,90.6202c-0.9381,3.2709-4.3436,5.1584-7.615,4.2207l-11.3628-3.2581
			c-3.2709-0.9381-5.1585-4.3437-4.2209-7.6145l1.1357-3.9614l-7.9223-2.2717l-1.1358,3.9612
			c-2.1934,7.6493,2.2216,15.6151,9.8716,17.8088l11.3628,3.2581c7.6559,2.1948,15.617-2.227,17.8091-9.8711l1.1357-3.9612
			l-7.9223-2.272L68.2749,90.6202z"/>
	</g>
</g>
</svg>
