<?xml version="1.0" encoding="utf-8"?>

<svg version="1.2" baseProfile="tiny" xmlns="http://www.w3.org/2000/svg" xmlns:xlink="http://www.w3.org/1999/xlink" x="0px"
	 y="0px" width="128px" height="128px" viewBox="0 0 128 128" xml:space="preserve">
<g id="_x31_28px_boxes">
	<rect fill="none" width="128" height="128"/>
</g>
<g id="Production">
	<g>
		<path fill="#ffffff" d="M56.2326,83.8408l-7.7818,7.8496c-3.2839,3.2988-8.6218,3.3242-11.9385,0.0479
			c-3.3086-3.291-3.3315-8.6294-0.0574-11.9404l17.1855-17.3413c2.8109-2.8569,7.1833-3.2563,10.437-1.2451
			c3.1302,1.936,7.2358,0.9683,9.1699-2.1719c1.5637-2.5249,1.2093-5.6826-0.6313-7.8276c-1.1356-1.2844-2.6952-2.147-4.8525-3.0068
			c-8.3073-3.3394-17.6263-1.1091-23.5896,4.8677c-12.2587,12.3696-8.0932,8.1685-17.1856,17.334
			c-8.4582,8.5464-8.3931,22.3271,0.1406,30.7983c8.5488,8.4556,22.3225,8.3931,30.7881-0.1382l14.5303-14.6665
			C67.0192,87.2373,61.3644,86.4282,56.2326,83.8408z"/>
		<path fill="#ffffff" d="M100.8647,26.8052c-8.5408-8.4707-22.3147-8.4028-30.7806,0.1309l-14.5354,14.666
			c5.4285-0.8296,11.0882-0.0225,16.2181,2.5571l7.7764-7.8398c3.2888-3.3135,8.6242-3.334,11.9406-0.0503
			c3.3115,3.2866,3.3318,8.6245,0.0627,11.9438L74.3564,65.5464c-2.8113,2.8564-7.1814,3.2563-10.4297,1.2524
			c-6.7267-4.1707-13.7737,4.8655-8.2019,10.3916c2.8372,2.7803,14.1077,7.4712,24.6028,0.5459
			c2.8101-1.8618,1.5827-0.8828,20.6807-20.1401C109.4692,49.0474,109.4086,35.2739,100.8647,26.8052z"/>
	</g>
</g>
</svg>
