<?xml version="1.0" encoding="utf-8"?>
<!-- Generator: Adobe Illustrator 18.1.1, SVG Export Plug-In . SVG Version: 6.00 Build 0)  -->
<svg version="1.2" baseProfile="tiny" xmlns="http://www.w3.org/2000/svg" xmlns:xlink="http://www.w3.org/1999/xlink" x="0px"
	 y="0px" width="128px" height="128px" viewBox="0 0 128 128" xml:space="preserve">
<g id="_x31_28px_boxes">
	<rect fill="none" width="128" height="128"/>
</g>
<g id="Production">
	<g>
		<circle fill="#ffffff" cx="16.7014" cy="53.7594" r="8.9127"/>
		<circle fill="#ffffff" cx="16.7014" cy="82.008" r="8.9126"/>
		<circle fill="#ffffff" cx="111.2986" cy="53.7595" r="8.9126"/>
		<circle fill="#ffffff" cx="111.2986" cy="25.5387" r="8.9125"/>
		<circle fill="#ffffff" cx="82.0017" cy="25.5387" r="8.9125"/>
		<path fill="#ffffff" d="M94.3792,50.5355c-0.2471-0.8641-1.1114-1.7283-2.2222-1.6047
			c-2.4278,0.2695-6.9312,3.0924-5.4937,10.5548c0.7017,3.641,1.3999,6.8766,1.7315,8.7489c0.269,1.5148,0.187,2.5185-0.8594,2.9952
			c-1.2891,0.5865-2.2646-0.9593-2.7671-1.7074L68.1956,36.2386c-1.1221-2.2519-3.8589-3.1706-6.1123-2.0489
			c-2.253,1.1226-3.1714,3.8603-2.0494,6.1134l11.8482,23.792c-1.2295,0.3151-2.4282,0.7031-3.603,1.1499L54.6902,37.9541
			c-1.1216-2.2538-3.8574-3.1716-6.1123-2.0493c-2.2529,1.1219-3.1704,3.8586-2.0488,6.113l13.6801,27.4739
			c-1.0415,0.7074-2.0571,1.464-3.0503,2.2594l-12.9882-26.082c-1.1211-2.2544-3.8575-3.1715-6.1109-2.0497
			c-2.2529,1.1217-3.1709,3.8583-2.0478,6.1123l14.2221,28.5636c-0.9072,0.9914-1.7934,2.0083-2.6572,3.0503l-9.4883-19.0568
			c-0.9951-1.9969-3.4204-2.8104-5.4165-1.8151c-1.998,0.9932-2.811,3.42-1.8169,5.417
			c17.7198,35.5876,16.0642,32.3111,16.5069,33.0755c8.2783,14.3136,21.7338,15.242,36.5351,7.8716
			c14.8018-7.3698,17.9776-15.6631,16.4072-27.9908C99.1833,70.0402,96.2708,57.157,94.3792,50.5355z"/>
	</g>
</g>
</svg>
