<?xml version="1.0" encoding="utf-8"?>
<!-- Generator: Adobe Illustrator 18.1.1, SVG Export Plug-In . SVG Version: 6.00 Build 0)  -->
<svg version="1.2" baseProfile="tiny" xmlns="http://www.w3.org/2000/svg" xmlns:xlink="http://www.w3.org/1999/xlink" x="0px"
	 y="0px" width="128px" height="128px" viewBox="0 0 128 128" xml:space="preserve">
<g id="_x31_28px_boxes">
	<rect fill="none" width="128" height="128"/>
</g>
<g id="Production">
	<g>
		<path fill="#ffffff" d="M111.2493,54.8332c-2.8574-19.6571-16.7978-35.0971-21.6802-37.1841
			c-5.9441-2.5408-12.956,1.1614-14.1889,7.5156c-1.3558,6.9847,5.0085,10.8941,8.5317,15.937
			c7.9077,11.3191,10.0366,26.23,2.0808,38.1241c-8.0273,12.0009-25.093,15.0529-37.0793,7.0852
			c-11.9888-7.9693-14.5572-24.1836-9.4266-36.846c3.7251-9.1936,8.073-12.0324,11.1573-16.0439
			c3.9533-5.1426,2.0637-12.8767-3.8103-15.6282c-7.0955-3.3232-12.4339,2.343-16.6001,7.3777
			c-4.784,5.7805-8.5921,12.3887-11.0371,19.4895c-9.6239,27.947,5.2352,56.2136,28.7002,63.9463
			c10.7922,3.5569,21.5688,3.3894,32.3486-0.0921C102.2554,101.4057,114.4641,76.9567,111.2493,54.8332z M37.6111,28.3378
			c2.2747,0,4.1184,1.8438,4.1184,4.1182c0,2.2747-1.8437,4.1184-4.1184,4.1184s-4.1182-1.8437-4.1182-4.1184
			C33.4929,30.1816,35.3364,28.3378,37.6111,28.3378z M25.249,50.071c0.0025-0.0088,0.0052-0.0176,0.0074-0.0266
			c1.375-4.8209,7.0127-3.2071,5.643,1.5935c-0.8525,3.102-1.333,6.1985-1.4509,9.2534H23.574
			C23.6978,57.319,24.2512,53.6982,25.249,50.071z M28.2857,82.0497c-2.3816-4.6506-3.877-9.5983-4.4602-14.7082h5.9238
			c0.5376,4.0388,1.7356,7.9536,3.5742,11.6562L28.2857,82.0497z M39.9949,96.2314c-3.4679-2.5666-6.0224-5.3423-8.3687-8.6641
			l5.033-3.0491c1.886,2.6186,3.9126,4.8456,6.8242,7.0005C46.5968,93.8228,43.1123,98.5403,39.9949,96.2314z M90.3196,36.5744
			c-2.2747,0-4.1186-1.8437-4.1186-4.1184c0-2.2744,1.8439-4.1182,4.1186-4.1182c2.2742,0,4.1184,1.8438,4.1184,4.1182
			C94.438,34.7307,92.5938,36.5744,90.3196,36.5744z M87.9695,96.2314c-3.1125,2.3053-6.6068-2.4052-3.4888-4.7127
			c2.8937-2.1424,4.9337-4.3724,6.8245-7.0005l5.0327,3.0491C94.0053,90.8702,91.4513,93.6541,87.9695,96.2314z M99.6785,82.0497
			l-5.0376-3.052c1.8384-3.7026,3.0361-7.6176,3.574-11.6562h5.9238C103.5554,72.4511,102.0601,77.3991,99.6785,82.0497z
			 M98.5154,60.8913c-0.1177-3.0549-0.5986-6.1511-1.4512-9.2529c-1.3668-4.8069,4.2717-6.4132,5.6436-1.5923
			c0.0024,0.0083,0.0044,0.0166,0.0068,0.0246c0.9981,3.6272,1.5518,7.2483,1.6756,10.8206H98.5154z"/>
	</g>
</g>
</svg>
