<?xml version="1.0" encoding="utf-8"?>
<!-- Generator: Adobe Illustrator 18.1.1, SVG Export Plug-In . SVG Version: 6.00 Build 0)  -->
<svg version="1.2" baseProfile="tiny" xmlns="http://www.w3.org/2000/svg" xmlns:xlink="http://www.w3.org/1999/xlink" x="0px"
	 y="0px" width="128px" height="128px" viewBox="0 0 128 128" xml:space="preserve">
<g id="_x31_28px_boxes">
	<rect fill="none" width="128" height="128"/>
</g>
<g id="Production">
	<g>
		<path fill="#ffffff" d="M69.8581,12.7727c-35.6551,0-59.0906,33.1133-44.7164,61.9827l-0.0009,0.0005
			c2.2696,4.8469,0.2291,6.0188-0.4404,7.3747c-6.9331,14.0303,8.2241,25.8071,19.8584,17.4287
			c4.5547-3.2797,6.0825-1.5532,11.0606-0.6389l0.0001-0.0024c31.4009,8.565,63.2069-12.5706,63.2069-42.1263
			C118.8264,32.4807,96.9026,12.7727,69.8581,12.7727z M69.8576,81.8174c-8.6743,0-25.2006-15.6731-25.2006-30.5715
			c0-12.1601,16.086-18.5198,23.3923-6.9326c1.4467,2.2937,2.1426,2.3388,3.6164,0.0019
			c7.3079-11.5898,23.3936-5.2311,23.3936,6.9307C95.0593,66.1443,78.5344,81.8174,69.8576,81.8174z"/>
		<circle fill="#ffffff" cx="17.6521" cy="106.7489" r="8.4779"/>
	</g>
</g>
</svg>

