<?xml version="1.0" encoding="utf-8"?>
<!-- Generator: Adobe Illustrator 18.1.1, SVG Export Plug-In . SVG Version: 6.00 Build 0)  -->
<svg version="1.2" baseProfile="tiny" xmlns="http://www.w3.org/2000/svg" xmlns:xlink="http://www.w3.org/1999/xlink" x="0px"
	 y="0px" width="128px" height="128px" viewBox="0 0 128 128" xml:space="preserve">
<g id="_x31_28px_boxes">
	<rect fill="none" width="128" height="128"/>
</g>
<g id="Production">
	<g>
		<path fill="#ffffff" d="M31.3326,112.677c0,0.9491,0.7693,1.7184,1.7188,1.7184h8.5015c0.9489,0,1.7185-0.7693,1.7185-1.7184
			v-8.3904H31.3326V112.677z"/>
		<path fill="#ffffff" d="M84.7281,112.677c0,0.9491,0.7696,1.7184,1.7186,1.7184h8.5022c0.9492,0,1.7185-0.7693,1.7185-1.7184
			v-8.3904H84.7281V112.677z"/>
		<path fill="#ffffff" d="M96.8466,28.5822c-0.0083-0.0056-0.0176-0.0095-0.0262-0.0152c-0.3457-1.373-0.9946-4.0622-1.5532-7.0123
			c-1.209-6.3946-5.0115-7.9501-11.3984-7.9501c-4.356,0-35.3814,0-39.7378,0c-6.3867,0-10.189,1.5555-11.3985,7.9501
			c-0.5585,2.9501-1.207,5.6388-1.5529,7.012c-0.0088,0.0057-0.0181,0.0096-0.0266,0.0155
			c-4.1853,2.8869-4.3411,7.6167-4.3457,7.8168c-0.0147,0.6424,0.5029,1.1718,1.1455,1.1718h1.9419l-1.7461,20.0747
			c-0.0083,0.0924-0.0122,40.0667-0.0122,40.0667c0,1.7716,1.4362,3.2079,3.208,3.2079h65.3115
			c1.7715,0,3.2075-1.4363,3.2075-3.2079V58.2871c0-0.0913-1.7654-20.7163-1.7654-20.7163h1.949
			c0.6411,0,1.1602-0.5282,1.1455-1.1718C101.1879,36.1989,101.0323,31.4691,96.8466,28.5822z M74.2135,24.3199
			c1.9563,0,3.5427,1.5863,3.5427,3.5428c0,1.9568-1.5864,3.543-3.5427,3.543c-1.957,0-3.543-1.5862-3.543-3.543
			C70.6705,25.9062,72.2565,24.3199,74.2135,24.3199z M63.9999,24.3199c1.9568,0,3.5429,1.5863,3.5429,3.5428
			c0,1.9568-1.5861,3.543-3.5429,3.543s-3.543-1.5862-3.543-3.543C60.4569,25.9062,62.0431,24.3199,63.9999,24.3199z
			 M53.7863,24.3199c1.957,0,3.5434,1.5863,3.5434,3.5428c0,1.9568-1.5864,3.543-3.5434,3.543c-1.9561,0-3.5425-1.5862-3.5425-3.543
			C50.2438,25.9062,51.8302,24.3199,53.7863,24.3199z M36.3346,37.5708h55.3242l1.6734,19.5072H34.6378L36.3346,37.5708z
			 M39.0446,75.5053v-3.4366h49.9106v3.4366H39.0446z M88.9552,80.2678v3.4369H39.0446v-3.4369H88.9552z M39.0446,67.3061v-3.4368
			h49.9106v3.4368H39.0446z M45.3917,93.914c0,0.9492-0.7693,1.7185-1.7182,1.7185h-7.9917c-0.949,0-1.7183-0.7693-1.7183-1.7185
			v-3.4751c0-0.9492,0.7693-1.7185,1.7183-1.7185h7.9917c0.9489,0,1.7182,0.7693,1.7182,1.7185V93.914z M94.0358,93.914
			c0,0.9492-0.7691,1.7185-1.7185,1.7185h-7.9905c-0.9492,0-1.7185-0.7693-1.7185-1.7185v-3.4751
			c0-0.9492,0.7693-1.7185,1.7185-1.7185h7.9905c0.9494,0,1.7185,0.7693,1.7185,1.7185V93.914z"/>
		<path fill="#ffffff" d="M21.0824,38.5451h-1.7688c-1.7715,0-3.2078,1.4362-3.2078,3.2079v13.7357
			c0,1.7716,1.4363,3.2077,3.2078,3.2077h1.7688c1.7715,0,3.208-1.4361,3.208-3.2077V41.753
			C24.2904,39.9813,22.8539,38.5451,21.0824,38.5451z"/>
		<path fill="#ffffff" d="M108.6864,38.5451h-1.769c-1.7718,0-3.2078,1.4362-3.2078,3.2079v13.7357
			c0,1.7716,1.436,3.2077,3.2078,3.2077h1.769c1.7717,0,3.2078-1.4361,3.2078-3.2077V41.753
			C111.8942,39.9813,110.4581,38.5451,108.6864,38.5451z"/>
	</g>
</g>
</svg>
