<?xml version="1.0" encoding="utf-8"?>
<!-- Generator: Adobe Illustrator 19.1.0, SVG Export Plug-In . SVG Version: 6.00 Build 0)  -->
<svg version="1.2" baseProfile="tiny" xmlns="http://www.w3.org/2000/svg" xmlns:xlink="http://www.w3.org/1999/xlink" x="0px"
	 y="0px" width="64px" height="64px" viewBox="0 0 64 64" xml:space="preserve">
<g id="box">
	<rect fill="none" width="64" height="64"/>
</g>
<g id="Production">
	<g>
		<polygon fill="#ffffff" points="46.0781,14.1626 40.4536,19.788 41.8676,21.202 46.0781,16.9907 61.0859,31.9995 46.0781,47.0093 
			41.8669,42.798 40.4531,44.2122 46.0781,49.8374 63.9141,31.9995 		"/>
		<polygon fill="#ffffff" points="32,14.1626 26.3756,19.7877 27.7897,21.2018 32,16.9907 47.0078,31.9995 32,47.0093 
			27.7891,42.7983 26.3751,44.2123 32,49.8374 49.8359,31.9995 		"/>
		<path fill="#ffffff" d="M17.9219,14.1626L0.0859,32.001l17.8359,17.8364l17.8369-17.8379L17.9219,14.1626z M2.9141,32.001
			l15.0078-15.0103l15.0088,15.0088L17.9219,47.0093L2.9141,32.001z"/>
	</g>
</g>
</svg>

