<?xml version="1.0" encoding="utf-8"?>

<svg version="1.2" baseProfile="tiny" xmlns="http://www.w3.org/2000/svg" xmlns:xlink="http://www.w3.org/1999/xlink" x="0px"
	 y="0px" width="128px" height="128px" viewBox="0 0 128 128" xml:space="preserve">
<g id="_x31_28px_boxes">
	<rect fill="none" width="128" height="128"/>
</g>
<g id="Production">
	<path fill="#ffffff" d="M115.6531,25.0801h-15.1126c-3.5493,0-5.6992,2.0034-7.9487,5.1076
		C81.6907,45.2329,67.7122,77.5569,65.1677,87.6714v-0.0007c-2.341-3.9227-4.6404-7.3042-7.6484-10.8218
		c3.6995-7.4077,1.6377-16.8098-5.3867-22.3162C38.7397,44.0342,18.3237,43.2183,12.3857,43.2183
		c-1.403,0-3.3872-0.2244-3.4624,1.6442C8.0742,65.8462,24.3608,89.3481,45.1128,85.5151
		c-3.907-9.6228-12.6851-18.3532-19.2163-22.0566c-0.4402-0.2507-0.1799-0.9326,0.3183-0.821
		c2.6128,0.5925,7.7334,2.8649,12.8228,6.8847c9.6433,7.6172,17.1882,20.197,21.8711,31.5581
		c0.7476,1.6385,2.1973,1.7498,3.8147,1.7498h9.4695c1.5288,0,2.874-0.1514,3.3008-1.6192
		c8.9814-30.8928,27.0791-54.8601,40.6796-69.5258C120.6123,29.0552,117.5459,25.0801,115.6531,25.0801z"/>
</g>
</svg>
