<?xml version="1.0" encoding="utf-8"?>

<svg version="1.2" baseProfile="tiny" xmlns="http://www.w3.org/2000/svg" xmlns:xlink="http://www.w3.org/1999/xlink" x="0px"
	 y="0px" width="64px" height="64px" viewBox="0 0 64 64" xml:space="preserve">

<g id="Production">
	<g>
		<path fill="#ffffff" d="M15,55V9h16v18h18v9.558c0.6868,0.1906,1.3562,0.4208,2,0.7031V25.5859L32.4141,7H13v50h18.2611
			c-0.2823-0.6437-0.5126-1.3131-0.703-2H15z M33,25V10.4141L47.5859,25H33z"/>
		<path fill="#ffffff" d="M45,38c-7.168,0-13,5.8315-13,13c0,7.0797,5.7717,13,13,13c7.168,0,13-5.8315,13-13
			C58,43.7843,52.0928,38,45,38z M45,62c-6.1015,0-11-4.9977-11-11c0-6.0654,4.9346-11,11-11c5.9951,0,11,4.8911,11,11
			C56,57.0654,51.0654,62,45,62z"/>
		<path fill="#ffffff" d="M50.5557,46.8584c-2.0771-2.0771,0.6631,0.6631-1.4141-1.4141C45.55,49.0359,51.5383,43.0476,45,49.5859
			l-4.1416-4.1416c-2.0771,2.0771,0.6631-0.6631-1.4141,1.4141L43.5859,51c-3.258,3.258,4.2269-4.2269-4.1416,4.1416
			c2.0771,2.0771-0.6631-0.6631,1.4141,1.4141c4.557-4.557-1.8078,1.8078,4.1416-4.1416c5.9328,5.9328-0.4365-0.4365,4.1416,4.1416
			c2.0771-2.0771-0.6631,0.6631,1.4141-1.4141c-4.557-4.557,1.8078,1.8078-4.1416-4.1416
			C52.3469,45.0672,45.9775,51.4365,50.5557,46.8584z"/>
	</g>
</g>
</svg>
