<?xml version="1.0" encoding="utf-8"?>
<!-- Generator: Adobe Illustrator 18.1.1, SVG Export Plug-In . SVG Version: 6.00 Build 0)  -->
<svg version="1.2" baseProfile="tiny" xmlns="http://www.w3.org/2000/svg" xmlns:xlink="http://www.w3.org/1999/xlink" x="0px"
	 y="0px" width="64px" height="64px" viewBox="0 0 64 64" xml:space="preserve">

<g id="Production">
	<path fill="#ffffff" d="M61,13v-2H49V5H39c-7.9335,0-14.4308,6.1955-14.9493,14H16C8.8315,19,3.07,24.8315,3.07,32S8.8315,45,16,45
		h25c3.3086,0,6,2.6914,6,6s-2.6914,6-6,6H9v2h32c4.4111,0,8-3.5889,8-8s-3.5889-8-8-8H16C9.9346,43,5.07,38.0654,5.07,32
		S9.9346,21,16,21h8.0507C24.5692,28.8045,31.0665,35,39,35h10v-6h12v-2H49V13H61z M47,33h-8c-7.1685,0-13-5.8315-13-13
		S31.8315,7,39,7h8V33z"/>
</g>
</svg>
