<?xml version="1.0" encoding="utf-8"?>
<svg version="1.2" baseProfile="tiny" xmlns="http://www.w3.org/2000/svg" xmlns:xlink="http://www.w3.org/1999/xlink" x="0px"
	 y="0px" width="32px" height="32px" viewBox="0 0 32 32" xml:space="preserve">
<g id="_x33_2px_boxes">
	<rect fill="none" width="32" height="32"/>
</g>
<g id="Production">
	<path fill="#ffffff" d="M30.6172,11.7363l-5.6918-6.1039c-1.4199-1.5969-3.7484,0.4061-2.3926,1.9199l3.1567,3.2846
		c-0.7735,1.2901-1.5977,2.6143-2.3555,3.7852c-0.3027,0.4706-0.165,1.0927,0.3066,1.3896c0.502,0.3164,2.7891,1.75,3.3653,2.1074
		v3.126c0,2.6182-2.2461,4.7549-4.8868,4.7549H20V3.6563c0-0.9727-0.6992-1.8038-1.6562-1.9708
		c-5.0899-0.8876-10.5782-0.8876-15.667,0c-0.958,0.167-1.6573,0.9981-1.6573,1.9708v24.3378c0,1.1045,0.8965,2,2.001,2h19.0986
		c4.8477,0,8.8809-3.9248,8.8809-8.749v-8.5088C31,12.3672,30.8633,12.0117,30.6172,11.7363z M16.0039,12.0137
		c0,0.5488-0.4512,1-1,1H5.9814c-0.5498,0-1.0009-0.4512-1.0009-1V5.9941c0-0.5498,0.4511-1,1.0009-1h9.0225c0.5488,0,1,0.4502,1,1
		V12.0137z"/>
</g>
</svg>
