<?xml version="1.0" encoding="utf-8"?>
<!-- Generator: Adobe Illustrator 18.1.1, SVG Export Plug-In . SVG Version: 6.00 Build 0)  -->
<svg version="1.2" baseProfile="tiny" xmlns="http://www.w3.org/2000/svg" xmlns:xlink="http://www.w3.org/1999/xlink" x="0px"
	 y="0px" width="128px" height="128px" viewBox="0 0 128 128" xml:space="preserve">
<g id="_x31_28px_boxes">
	<rect fill="none" width="128" height="128"/>
</g>
<g id="Production">
	<g>
		<path fill="#ffffff" d="M70.4972,24.2781c4.0782-4.0779,10.7137-4.0779,14.7908-0.0008
			c4.0781,4.0784,4.0781,10.714-0.0007,14.7933L71.0075,53.3667c0.2339,0.3241,3.2661,3.6203,5.0881,5.5187l14.4966-14.5131
			c7.0015-7.0021,7.0012-18.3956-0.0007-25.3982c-7.0017-7.0016-18.3955-7.0012-25.3963-0.0006l-9.5787,9.5706
			c1.1677,1.2894,2.8292,3.2353,4.775,5.8311L70.4972,24.2781z"/>
		<path fill="#ffffff" d="M121.9389,87.6297c1.0356,0,1.7202-0.7775,1.853-1.5847c0.2974-2.5141,0.4409-9.1524-5.1448-14.7373
			c-7.0022-7.0024-18.3955-7.0018-25.3996,0.0013l-32.3678,32.4086c-4.0784,4.0779-10.7139,4.0782-14.791,0.0005
			c-4.0849-4.0848-4.0851-10.7065,0.0016-14.7929l16.9575-16.977c0.9965,0.9838,8.8401,8.5933,11.8098,11.408l9.4292-9.4556
			C68.7366,57.9504,67.1781,57.2492,64.9225,51.6253l0.0019-0.0007c-4.7216-8.9763-6.5417-13.9203-13.4595-20.8381
			c-18.4013-18.403-36.2826,0.4541-21.8998,17.3922l6.793-6.8116c-5.9193-7.4651-0.7674-12.9187,8.3385-3.8123
			c4.8057,4.8055,8.1327,10.6912,9.315,13.8354c0.3768,1.0452-0.8395,1.9695-1.6788,1.6768
			c-3.2195-1.2109-8.3987-4.2207-12.8976-8.4131l-9.9203,9.9695c-4.4689,4.4696-11.0051,3.6288-14.7907-0.0003
			c-3.4557-3.3127-3.0602-7.282-2.9032-9.1921c0.0694-0.8453-0.5635-1.5639-1.3362-1.7955
			c-0.0471-0.0142-4.0418-1.2194-4.2239-1.2194c-0.8499,0-1.5667,0.5658-1.7967,1.3411C3.7002,46.3288,3.5924,54.099,9.421,59.9265
			c6.769,6.7698,18.1358,7.2621,25.3962,0.0012l3.7106-3.7075c7.3813,5.4027,12.3188,6.2152,18.877,10.7647L40.7855,83.6233
			c-7.0136,7.0133-7.0137,18.3844-0.0003,25.3981c6.7396,6.74,18.1255,7.2708,25.3993-0.0019l17.4419-17.4639
			c-5.2751-4.854,18.8947,18.1173,27.1658,22.4596c1.7226,0.888,5.8911-0.643,4.0366-4.1758
			c-4.389-8.3559-15.6014-19.8453-22.335-27.1624l6.0586-6.0662c4.0779-4.0778,10.6934-4.058,14.7918,0.0004
			c1.1899,1.1783,3.4606,4.1783,3.0363,8.1693c-0.0517,0.6578,0.3106,1.7499,1.4971,1.9878
			C117.9555,86.7839,121.7458,87.6297,121.9389,87.6297z"/>
	</g>
</g>
</svg>
