<?xml version="1.0" encoding="utf-8"?>
<!-- Generator: Adobe Illustrator 18.1.1, SVG Export Plug-In . SVG Version: 6.00 Build 0)  -->
<svg version="1.2" baseProfile="tiny" xmlns="http://www.w3.org/2000/svg" xmlns:xlink="http://www.w3.org/1999/xlink" x="0px"
	 y="0px" width="128px" height="128px" viewBox="0 0 128 128" xml:space="preserve">
<g id="_x31_28px_boxes">
	<rect fill="none" width="128" height="128"/>
</g>
<g id="Production">
	<g>
		<path fill="#ffffff" d="M46.3649,91.4549c6.8579,0,12.4372-5.5794,12.4372-12.4373s-5.5793-12.4372-12.4372-12.4372
			s-12.4373,5.5793-12.4373,12.4372S39.507,91.4549,46.3649,91.4549z"/>
		<path fill="#ffffff" d="M106.2096,60.5629h-4.4468v-6.3556c0-3.3121-2.685-5.9971-5.997-5.9971H46.4542L77.8566,29.487
			c3.7329,1.182,7.5351-1.6239,7.5351-5.5214c0-3.193-2.5974-5.7906-5.7903-5.7906c-2.9094,0-5.3234,2.1571-5.7294,4.9558
			L36.0275,45.6951c-0.9568,0.5706-1.5635,1.501-1.7584,2.5151h-9.3364c-3.3121,0-5.997,2.685-5.997,5.9971v49.6206
			c0,3.3121,2.6849,5.9971,5.997,5.9971h70.8331c3.312,0,5.997-2.685,5.997-5.9971V78.1768h4.4468
			c1.5606,0,2.8547-1.2689,2.8547-2.8544V63.4173C109.0643,61.8324,107.7708,60.5629,106.2096,60.5629z M88.912,61.3289v18.5315
			H73.5985V61.3289H88.912z M73.5985,85.8575H88.912v10.8488H73.5985V85.8575z M46.3649,61.3304
			c9.7528,0,17.6872,7.9344,17.6872,17.6872s-7.9344,17.6873-17.6872,17.6873s-17.6873-7.9345-17.6873-17.6873
			S36.6121,61.3304,46.3649,61.3304z"/>
	</g>
</g>
</svg>
