<?xml version="1.0" encoding="utf-8"?>
<!-- Generator: Adobe Illustrator 18.1.1, SVG Export Plug-In . SVG Version: 6.00 Build 0)  -->
<svg version="1.2" baseProfile="tiny" xmlns="http://www.w3.org/2000/svg" xmlns:xlink="http://www.w3.org/1999/xlink" x="0px"
	 y="0px" width="128px" height="128px" viewBox="0 0 128 128" xml:space="preserve">
<g id="box">
	<rect fill="none" width="128" height="128"/>
</g>
<g id="Production">
	<g>
		<path fill="#ffffff" d="M114.85,57.9114c0.0297-0.1077,0.0647-0.2071,0.0915-0.3147c-0.0295,0.0725-0.0776,0.1369-0.1077,0.2099
			c-0.0085-0.0593-0.0188-0.1213-0.0295-0.1806c-8.7002,23.6173-47.7338,28.0248-66.2522,12.0642
			c0.0043-0.0043,3.0845-3.0741,6.9768-6.9661c1.0137-1.0401,0.5669-2.8631-0.9287-3.1893
			c-27.5285-6.0812-31.6788-6.999-39.5674-8.7426c-1.3469-0.2991-2.562,0.9163-2.2578,2.2503l8.6963,39.5727
			c0.3127,1.4629,2.124,1.9847,3.1951,0.9395c6.6806-6.6722,5.8709-5.8633,6.9067-6.8987
			c18.0645,14.3328,55.1613,13.1575,73.864-9.9081c0,0,0.0029-0.0028,0.0086-0.0055c-8.4478,23.9318-38.818,32.1591-61.3433,24.8064
			c7.3157,5.0174,16.1553,7.9617,25.6973,7.9617C96.9864,109.5105,118.5898,85.6512,114.85,57.9114z"/>
		<path fill="#ffffff" d="M36.8568,45.2849h10.5354c-0.7004,2.3634-1.2515,4.853-1.6768,7.4319l4.0584,0.8964
			c0.4741-2.9396,1.1365-5.7362,1.9817-8.3283h15.9582v16.6239H60.756c-0.1182,1.5233-0.7461,2.99-1.8836,4.161l-0.0112,0.0135
			h8.8525V73.97c1.3675,0.2719,2.7564,0.4736,4.1663,0.5843v-8.471h18.7534c-0.0623,2.0672-0.2451,4.086-0.4873,6.0511
			c1.4944-0.5115,2.9526-1.0767,4.355-1.7119c0.1323-1.4323,0.2475-2.8722,0.2964-4.3392h7.2754
			c1.8435-1.308,3.4965-2.7077,4.9255-4.1745H94.7975c-0.1966-5.9162-1.085-11.5527-2.5923-16.6239h10.5351
			c2.7266,4.7914,4.3931,10.2338,4.8101,16.037c3.2205-3.5037,5.8348-8.1698,4.9824-12.8339
			c-6.3471-17.4795-23.0566-29.9904-42.7331-29.9985C50.0831,18.4976,33.3519,31.0569,27.027,48.5903
			c4.5706,1.0078,2.9801,0.6572,7.5202,1.658C35.2147,48.5393,35.9576,46.8678,36.8568,45.2849z M99.9708,41.1184H90.808
			c-1.9812-5.0928-4.6348-9.4155-7.8216-12.624C89.7906,31.0303,95.6532,35.439,99.9708,41.1184z M71.88,26.699
			c4.56,0.8291,8.9263,4.4468,12.3579,10.3629c0.729,1.2518,1.3892,2.6243,2.0132,4.0565H71.88V26.699z M71.88,45.2849h15.9619
			c1.6152,4.9313,2.6028,10.5863,2.7915,16.6239H71.88V45.2849z M67.7137,26.7043v14.4141H53.3456
			c0.6223-1.4322,1.2839-2.8047,2.0085-4.0565C58.7938,31.1511,63.1571,27.5364,67.7137,26.7043z M56.6131,28.4944
			c-3.1897,3.2085-5.843,7.5312-7.8242,12.624h-9.1626C43.9435,35.439,49.8065,31.0303,56.6131,28.4944z"/>
	</g>
</g>
</svg>
