<?xml version="1.0" encoding="utf-8"?>
<!-- Generator: Adobe Illustrator 18.1.1, SVG Export Plug-In . SVG Version: 6.00 Build 0)  -->
<svg version="1.2" baseProfile="tiny" xmlns="http://www.w3.org/2000/svg" xmlns:xlink="http://www.w3.org/1999/xlink" x="0px"
	 y="0px" width="128px" height="128px" viewBox="0 0 128 128" xml:space="preserve">
<g id="box">
	<rect fill="none" width="128" height="128"/>
</g>
<g id="Production">
	<path fill="#ffffff" d="M113.2925,42.0347L85.9684,14.7105c-1.3065-1.3061-3.4201-1.3144-4.7266,0L14.7126,81.2344
		c-1.3063,1.3033-1.3063,3.4175,0,4.7239l27.3241,27.3323c1.2815,1.2807,3.3723,1.3366,4.7267,0l66.5291-66.5293
		C114.6193,45.4174,114.5644,43.3016,113.2925,42.0347z M44.4001,106.2032L21.8079,83.5948l6.3468-6.3467l5.1989,5.1988
		c0.9109,0.9108,2.3996,0.9232,3.3369-0.0081c0.9175-0.9175,0.9175-2.4143,0-3.3342l-5.1987-5.1935l4.4289-4.429l10.8427,10.8481
		c0.9171,0.9279,2.407,0.9301,3.3371,0c0.9202-0.9173,0.9202-2.4087,0-3.3343L39.2577,66.1452l4.4208-4.4234l5.1987,5.1987
		c0.9172,0.9171,2.4133,0.9208,3.3343,0c0.9201-0.9282,0.9201-2.4171,0-3.3371L47.0129,58.39l4.4207-4.4209l10.8482,10.8401
		c0.9203,0.9205,2.4195,0.9203,3.3398,0c0.92-0.92,0.92-2.4195,0-3.3396L54.7734,50.6293l4.4234-4.4232l5.1961,5.196
		c0.9316,0.9212,2.4292,0.9107,3.3397,0c0.9255-0.9203,0.9255-2.4197,0-3.3398l-5.1934-5.1988l4.5336-4.5333l10.8373,10.8453
		c0.9219,0.9166,2.4156,0.9295,3.3397,0c0.9201-0.9201,0.9281-2.4142,0-3.3342L70.407,34.9957l4.4209-4.4208l5.196,5.199
		c0.9238,0.9183,2.4213,0.921,3.3424,0c0.9176-0.9284,0.9176-2.4198,0-3.3401l-5.196-5.2013l5.4347-5.4347L106.1999,44.39
		L44.4001,106.2032z"/>
</g>
</svg>
