<?xml version="1.0" encoding="utf-8"?>
<!-- Generator: Adobe Illustrator 18.1.1, SVG Export Plug-In . SVG Version: 6.00 Build 0)  -->
<svg version="1.2" baseProfile="tiny" xmlns="http://www.w3.org/2000/svg" xmlns:xlink="http://www.w3.org/1999/xlink" x="0px"
	 y="0px" width="128px" height="128px" viewBox="0 0 128 128" xml:space="preserve">
<g id="_x31_28px_boxes">
	<rect fill="none" width="128" height="128"/>
</g>
<g id="Production">
	<g>
		<path fill="#ffffff" d="M79,27.539v-2.0086c0-2.387-2.3291-3.9752-4.4824-2.9468L43.6687,37.5183
			C41.625,38.4534,38.6956,39,36.8408,39h-0.0017C31.6362,39,23,35.8206,28,33.2659v-0.0098l29.0629-13.4565L60,21.0232v-4.604
			c0-2.3473-2.3818-3.9198-4.5232-2.9364l-30.662,14.1355C19.8246,29.7973,19,31.9309,19,36.5171v50.0914
			c0,3.5589,1.6952,6.8818,5.1517,9.1489c5.5557,3.6429,13.3646,3.4717,19.8656,1.658C44.0383,97.4095,44,97.4046,44,97.4021
			V52.5587c0-5.7669,1.4504-9.6966,8.3013-12.7008L79,27.539z"/>
		<path fill="#ffffff" d="M104.2307,38.7205L73.2386,53.5868C71.1945,54.5218,68.1218,55,66.2668,55h-0.0012
			C61.0635,55,53,51.8894,57,49.3343v0.0246l13.6721-6.1734l15.9866-7.2598L90,37.1601v-4.6039
			c0-2.3474-2.6687-3.9198-4.8101-2.9365L54.1713,43.7553C49.181,45.9342,48,48.068,48,52.6541v50.0913
			c0,3.7076,2.022,6.9565,5.3647,9.1489c5.4773,3.5921,13.2525,3.4488,19.5145,1.8267c0.5471-0.143,33.7106-17.5512,33.7106-17.5512
			C107.6392,95.6156,109,94.5307,109,93.3441V41.6673C109,39.276,106.3796,37.6943,104.2307,38.7205z M102.1897,57.6845
			c-0.1382,1.4695-1.3125,3.1742-2.623,3.8083l-5.7688,3.0619l-1.5125,16.0907c-0.1838,1.9552,0.3674,2.635,1.6379,2.0205
			c2.149-1.0391,3.0782-3.789,3.731-4.789c1.1201-1.7201,2.7664-2.6737,3.6768-2.1293c0.767,0.4579,0.7639,1.8335,0.0742,3.2845
			c-1.0576,2.5107-3.9102,7.2248-8.0056,9.2054c-2.4434,1.1813-4.3433,0.9464-5.3492-0.6611
			c-0.8772-1.4019-0.8364-3.439-0.7338-4.5283l1.5126-16.091l-4.3796,2.1178c-0.1509,1.9959-0.5,5.4323-1.3809,9.4411
			c-1.5058,6.8537-3.9687,12.7959-7.3203,17.6621c-0.9653,1.4011-2.7524,2.6562-3.8593,1.8661
			c-0.9534-0.6802-0.7713-2.6172,0.4067-4.3276c3.6572-5.3098,6.0173-13.09,6.6907-22l-1.4871,0.7189
			c-0.0781,0.0379-0.0591,0.0333-0.1152,0.0538c-0.5044,0.2529-2.6533,1.5782-3.9033,6.2289
			c-1.0318,3.8404-5.5218,4.7973-4.5201,1.0689c2.1031-7.8253,6.8196-11.7042,9.0962-12.7014l22.0098-10.9153
			C101.3777,55.5371,102.3281,56.2149,102.1897,57.6845z"/>
	</g>
</g>
</svg>
