<?xml version="1.0" encoding="utf-8"?>
<!-- Generator: Adobe Illustrator 18.1.1, SVG Export Plug-In . SVG Version: 6.00 Build 0)  -->
<svg version="1.2" baseProfile="tiny" xmlns="http://www.w3.org/2000/svg" xmlns:xlink="http://www.w3.org/1999/xlink" x="0px"
	 y="0px" width="128px" height="128px" viewBox="0 0 128 128" xml:space="preserve">
<g id="_x31_28px_boxes">
	<rect fill="none" width="128" height="128"/>
</g>
<g id="Production">
	<g>
		<path fill="#ffffff" d="M46.1416,76.0081c0-1.8674,0.0005,5.4551-0.0007-28.0731c0-0.6565-0.532-1.1886-1.1885-1.1886
			l-7.4768,0.0001V26.6703c0-2.5654-2.0796-4.645-4.645-4.645c-2.5655,0-4.6451,2.0796-4.6451,4.645v20.0764l-7.4777,0.0002
			c-0.6565,0-1.1885,0.5322-1.1885,1.1886v28.0734c0,2.8418,2.3008,5.1427,5.1428,5.1427l16.3367-0.0004
			C43.8418,81.1512,46.1416,78.8513,46.1416,76.0081z"/>
		<path fill="#ffffff" d="M90.0725,40.856v1.6442l9.9697-0.0004V40.856c0-11.3327-9.2199-20.5524-20.5527-20.5524
			c-11.333,0-20.553,9.2197-20.553,20.5524v46.288c0,5.8353-4.7475,10.5827-10.5827,10.5827c-5.8355,0-10.583-4.7474-10.583-10.5827
			v-1.7139l-9.9698,0.0004v1.7135c0,11.3327,9.22,20.5524,20.5528,20.5524c11.3327,0,20.5524-9.2197,20.5524-20.5524V40.856
			c0-5.8352,4.7476-10.5827,10.5833-10.5827C85.325,30.2733,90.0725,35.0208,90.0725,40.856z"/>
		<path fill="#ffffff" d="M103.3379,46.7789L87.001,46.7791c-2.8422,0-5.1428,2.3006-5.1428,5.1433c0,0.2815,0,5.4203,0.0012,28.073
			c0,0.6564,0.532,1.1885,1.1885,1.1885h7.4768v20.1057c0,2.5656,2.0795,4.6451,4.645,4.6451c2.5654,0,4.645-2.0795,4.645-4.6451
			V81.1837l7.4775-0.0001c0.6565,0,1.1885-0.5322,1.1885-1.1885V51.9216C108.4807,49.0843,106.186,46.7789,103.3379,46.7789z"/>
	</g>
</g>
</svg>
