<?xml version="1.0" encoding="utf-8"?>
<!-- Generator: Adobe Illustrator 18.1.1, SVG Export Plug-In . SVG Version: 6.00 Build 0)  -->
<svg version="1.2" baseProfile="tiny" xmlns="http://www.w3.org/2000/svg" xmlns:xlink="http://www.w3.org/1999/xlink" x="0px"
	 y="0px" width="128px" height="128px" viewBox="0 0 128 128" xml:space="preserve">
<g id="box">
	<rect fill="none" width="128" height="128"/>
</g>
<g id="Production">
	<g>
		<path fill="#ffffff" d="M98.955,23.1083c-3.5811-5.4906-9.774-9.1297-16.8038-9.1297c-7.03,0-13.2216,3.6391-16.8032,9.1297
			c-1.0495-0.1701-2.1247-0.2622-3.2221-0.2622c-12.3005,0-21.8288,11.0666-19.772,23.3738
			c2.2705,0.3285,4.4341,1.0172,6.4321,2.035c-4.8713-12.1203,7.777-24.0064,19.582-18.31
			c1.772-5.9867,7.299-10.2897,13.7832-10.2897c6.4851,0,12.0106,4.3018,13.7837,10.2897
			c9.3403-4.5084,20.6184,2.1954,20.6184,12.9543c0,6.0425-3.7442,11.2635-9.112,13.3777
			c1.6166,8.8593-5.1851,16.9736-14.1377,16.9736c-4.4746,0-8.5015-2.0514-11.1519-5.3056
			c-5.4499,6.6929-15.5292,7.1298-21.5263,0.8761c0.0397,2.2862-0.1528,4.4882-0.6194,6.8116
			c3.1594,2.08,6.936,3.2945,10.9934,3.2945c4.1245,0,7.9609-1.2524,11.1523-3.3959c3.191,2.1435,7.0281,3.3959,11.1519,3.3959
			c10.8306,0,19.6777-8.6321,20.0361-19.3771c5.3574-3.6036,8.8904-9.7221,8.8904-16.6508
			C122.2301,30.6292,111.2205,21.1202,98.955,23.1083z"/>
		<path fill="#ffffff" d="M58.3712,96.989c-5.5388-1.9314-9.8113-3.7002-10.3786-5.8265c-0.5337-2.0002,0.842-3.2021,2.79-5.9233
			c3.3695-4.5463,5.1182-10.4494,5.1182-15.8709c0-11.2951-7.4038-18.6389-16.6741-18.6389
			c-9.2088,0-16.6746,7.2577-16.6746,18.6389c0,5.6375,1.8335,11.2283,4.8018,15.4368c0.0049,0.0073,0.0056,0.0149,0.0117,0.023
			c2.1011,3.0205,3.6416,4.2353,3.082,6.3344c-0.5713,2.1411-4.8984,3.9192-10.4922,5.8658
			c-0.0542,0.0188-0.1035,0.0376-0.1528,0.0561c-5.5066,1.8914-14.0327,6.228-14.0327,13.6204v3.3166h66.9126v-3.3166
			C72.6825,103.1855,63.8285,98.8276,58.3712,96.989z"/>
		<path fill="#ffffff" d="M74.7411,81.4897c-5.0086,0-9.084,4.0754-9.084,9.084c0,5.0209,4.0998,9.0837,9.084,9.0837
			c5.0088,0,9.0842-4.0749,9.0842-9.0837C83.8253,85.5651,79.7499,81.4897,74.7411,81.4897z M74.7411,94.7477
			c-2.3015,0-4.1741-1.8723-4.1741-4.174c0-2.3015,1.8726-4.1746,4.1741-4.1746c2.302,0,4.175,1.8731,4.175,4.1746
			C78.9161,92.8754,77.0431,94.7477,74.7411,94.7477z"/>
	</g>
</g>
</svg>
