<?xml version="1.0" encoding="utf-8"?>
<!-- Generator: Adobe Illustrator 18.1.1, SVG Export Plug-In . SVG Version: 6.00 Build 0)  -->
<svg version="1.2" baseProfile="tiny" xmlns="http://www.w3.org/2000/svg" xmlns:xlink="http://www.w3.org/1999/xlink" x="0px"
	 y="0px" width="128px" height="128px" viewBox="0 0 128 128" xml:space="preserve">
<g id="box">
	<rect fill="none" width="128" height="128"/>
</g>
<g id="Production">
	<g>
		<path fill="#ffffff" d="M25.1646,104.883c-1.4118,1.0725-3.6256,0.8526-4.7739-0.7295l-2.6519-3.6055
			c-1.1638-1.5901-0.7336-3.7079,0.7186-4.7681l6.4514-4.747l-6.5179-8.8609l-6.4453,4.75
			c-5.0669,3.73-6.997,10.1621-5.2263,15.8653c0.8521,2.7951,1.9697,4.0181,4.8193,7.8886l0.0071,0.0108
			c3.7303,5.0532,10.1468,6.9941,15.8584,5.2134c1.5091-0.4634,2.958-1.1822,4.262-2.1407l6.4643-4.7607l-6.5227-8.8604
			L25.1646,104.883z"/>
		<path fill="#ffffff" d="M73.0028,62.6032C60.2744,45.3267,61.2703,46.5247,59.9361,45.2648
			c-2.1037-1.9595-4.7446-3.0933-7.4922-3.3647c0.0012,0.0043,8.3975,29.8216,8.3975,29.8216l-0.0471,0.0223
			c0.2431,0.0369-0.0049,0.0689,0.0058,0.1033c0.0456,0.1951,0.1175,0.4508,0.1175,0.6255c0.9106,1.9691-0.2527,8.0909-5.959,9.8882
			l-0.054,0.0137c-4.6026,1.2487-9.2851-1.4005-10.5886-5.9454c-0.6155-2.1645-1.346-4.7583-2.1292-7.5371
			c-1.3469-4.7421-2.843-10.0161-4.1584-14.6709c-0.4844-1.7089-0.9443-3.3305-1.3626-4.8081l-5.6059,4.1294
			c-0.0079-0.0314-2.1323-8.393-2.1423-8.4238c0,0,0-0.0083,0-0.0107c0-0.0079,0-0.0186,0-0.0293
			c-1.5496-8.1087,8.8737-10.717,10.1857-4.2144c0.2107,0.6979,9.5257,33.5911,9.7244,34.2925
			c0.6034,2.1048,2.8074,3.326,4.958,2.6753c1-0.3142,3.1847-2.1242,2.3819-4.8213v-0.0083
			c-0.157-0.5466-9.7205-34.8545-9.8279-35.1738c-2.5428-7.149-9.8819-9.6563-15.5342-7.9258
			c-6.5028,2.0184-11.2129,8.9402-9.4756,16.8291c-0.0029,0.0078,0.0054,0.0107,0.0054,0.0185
			c0.5351,2.4812,2.2637,9.373,2.8813,11.8247l-0.9343,0.689c-5.7554,4.2376-6.9087,12.3032-2.7314,17.9448l21.3442,29.0044
			c0,0,18.5649-13.7422,30.6792-22.5346c4.405-3.2524,6.5883-9.1455,4.2412-15.1573
			C76.4163,67.5446,73.0028,62.6032,73.0028,62.6032z"/>
		<polygon fill="#ffffff" points="60.7906,71.7458 60.7943,71.744 60.7906,71.7433 		"/>
		<path fill="#ffffff" d="M121.9119,32.6159c0.25-3.1841-3.4509-6.3076-3.4509-6.3076l-0.0049,0.0029
			c-0.0959-0.4312-0.1679-0.8652-0.3037-1.2832c-0.1113-0.3623-0.2871-0.7085-0.4311-1.0596l3.1738-2.2261
			c-1.8374-2.6118-6.6694-2.6596-6.6694-2.6596l0.0075,0.0239c-0.6521-0.5698-1.3633-1.0674-2.0945-1.5068l1.0806-4.0762
			c-2.6543-0.708-5.7754,1.459-6.6006,2.0874c-0.8362-0.1196-1.6936-0.1597-2.5503-0.1411l-1.1958-4.0176
			c-2.7129,0.8174-4.2573,4.4912-4.5708,5.3086c-0.8525,0.394-1.6775,0.8496-2.4467,1.4326l-0.0301,0.0161l-2.3493-3.1445
			c-2.5347,1.907-2.4351,6.6899-2.4351,6.7519l-2.176,1.6241l-2.3635-3.1363c-2.5533,1.9117-2.4549,6.7495-2.4549,6.7495
			l-2.1682,1.6265l-2.3542-3.1523c-2.5584,1.9223-2.4522,6.7573-2.4522,6.7573l-2.1648,1.6216l-2.3559-3.1392
			c-2.5535,1.9141-2.4556,6.7466-2.4556,6.7544l-2.1589,1.6216l-2.3555-3.1445c-1.718,1.2837-2.2131,3.8286-2.3728,5.3999
			l4.8032,6.52l32.0901-24.0874c3.5015-2.6279,9.8158-1.2869,11.3259,3.3442c0.9558,2.8916,0.0401,6.7652-2.4255,8.5303
			l0.0024,0.0029L76.8106,59.8634l6.4004,8.6929c1.7356-2.0581,1.7705-5.6094,1.7627-5.9985l2.2046-1.6475l2.321,3.0986
			c2.4285-1.8266,2.4578-6.2378,2.4578-6.6772l2.1992-1.6558l2.3216,3.0987c2.4257-1.8238,2.4524-6.2412,2.4494-6.6748
			l2.1992-1.6509l2.3218,3.0854c2.4304-1.8208,2.4514-6.2378,2.4514-6.6694l2.2049-1.6558l2.3159,3.0913
			c2.4282-1.8159,2.458-6.2251,2.4531-6.664l0.3779-0.2852l0.0074-0.0053c0.6152-0.4742,1.1718-0.9957,1.6828-1.544l3.4822,1.978
			c1.4941-2.6596-0.2664-6.7334-0.4368-7.1142c0.264-0.7534,0.469-1.5225,0.6023-2.3135L121.9119,32.6159z"/>
	</g>
</g>
</svg>
