<?xml version="1.0" encoding="utf-8"?>
<!-- Generator: Adobe Illustrator 18.1.1, SVG Export Plug-In . SVG Version: 6.00 Build 0)  -->
<svg version="1.2" baseProfile="tiny" xmlns="http://www.w3.org/2000/svg" xmlns:xlink="http://www.w3.org/1999/xlink" x="0px"
	 y="0px" width="128px" height="128px" viewBox="0 0 128 128" xml:space="preserve">
<g id="box">
	<rect fill="none" width="128" height="128"/>
</g>
<g id="Production">
	<g>
		<path fill="#ffffff" d="M26.2393,34.1305V15.8866c0-0.8511-0.396-1.7664-1.7747-1.7664c-0.2919,0-3.7191,0.0462-7.1457,2.9428
			c-3.4407,2.9105-6.5459,8.5581-6.5297,18.8879c0.0134,10.1593,6.9326,16.7239,14.1814,16.7431l0.0189,0.008
			c1.4823-0.0107,4.5874-0.0055,8.4392-0.008c-0.0056-1.8205,0-14.4145,0.0107-18.5635
			C30.4291,34.1467,27.8405,34.1252,26.2393,34.1305z"/>
		<path fill="#ffffff" d="M60.9636,40.5573c1.5689,0,2.8404,1.2685,2.8404,2.8402c-0.0056,1.5686-1.2715,2.8319-2.8404,2.8399
			h-1.4227c0,2.3909,0.0028,4.5332,0.0028,6.4347c3.5919,0.0082,6.0537,0.0192,6.2398,0.0299
			c1.5096,0.1107,1.6902,0.4211,4.0249,2.756c1.4201-1.4227,4.4091-4.4169,8.612-8.6174c0.0545-0.0514,0.1138-0.0866,0.1573-0.138
			c-2.9917-2.9915-5.9209-5.921-7.2818-7.2868c-3.5051-3.5703-7.1781-5.2284-11.817-5.3147
			c0.0106,0.4243,0.0596,6.4428,0.0596,6.4562H60.9636z"/>
		<path fill="#ffffff" d="M58.6919,66.567c-1.4012-1.4038-2.4911-2.4939-2.7536-2.7536c-0.7034-0.717-1.1174-1.6473-1.1495-2.97
			c0.0027-0.0462,0.0052-0.089,0.0052-0.1378c-0.042-30.503,0.0324-23.8365-0.0755-26.6479
			c-0.2977-9.1832-3.5868-14.4278-7.1222-17.1189c-3.7079-2.8186-7.3298-2.8944-7.5434-2.9023
			c-0.9481-0.0222-1.7908,0.7455-1.7908,1.7609c-0.0162,3.7697-0.1746,39.7589,0,42.7743c0.1409,3.0509,0.9143,6.0612,3.6165,8.7039
			c1.0439,1.0468,4.5224,4.5277,8.0548,8.0602c0.0269-0.027,0.0434-0.0564,0.0703-0.081
			C53.7748,71.4844,55.3789,69.8663,58.6919,66.567z M46.5308,46.9839c-1.9689,0-3.5703-1.5983-3.5703-3.573
			c0-1.9666,1.6014-3.5703,3.5732-3.5703c1.499,0,3.2351,1.1991,3.4835,3.1429C50.2964,45.1483,48.4795,46.9839,46.5308,46.9839z"/>
		<path fill="#ffffff" d="M72.7754,76.2882c-4.157-4.1575-7.281-7.2814-7.281-7.2814c-0.7004-0.7009-1.8125-0.7009-2.4994,0
			c-0.6971,0.6921-4.9675,4.9554-9.621,9.6182c-0.0268,0.0243-0.0433,0.0541-0.0703,0.0758
			c-4.0525,4.0689-1.2271,9.7946,3.6706,10.4381c3.0401,0.3786,6.213,1.3008,8.7389,4.4765
			c2.7319,3.4809,10.6596,13.4565,13.205,16.7131c3.7,4.7792,10.9539,4.6389,14.8172,0.7925c3.7829-3.8272,3.9763-9.9323,0-13.876
			C91.9341,95.4385,80.533,84.0402,72.7754,76.2882z"/>
		<path fill="#ffffff" d="M113.5674,75.6714c-3.2568-2.5477-13.2405-10.473-16.7131-13.2078
			c-3.1702-2.5073-4.1033-5.6854-4.4712-8.7256c-0.3865-2.9511-2.7593-5.5692-6.0401-5.6368
			c-1.509-0.0165-3.0942,0.6625-4.4008,1.9663c-0.0245,0.0269-0.0538,0.0459-0.0838,0.0703
			c-4.2546,4.2548-7.2597,7.2677-8.6799,8.6878c-0.5896,0.5924-0.9307,0.9387-0.9307,0.9387c-0.7002,0.6842-0.7002,1.7987,0,2.4831
			c0,0,25.4612,25.4768,28.2364,28.2466c3.9633,3.9853,10.0517,3.7846,13.8725,0.0136
			C118.137,86.6769,118.4439,79.4799,113.5674,75.6714z"/>
	</g>
</g>
</svg>
