<?xml version="1.0" encoding="utf-8"?>
<!-- Generator: Adobe Illustrator 18.1.1, SVG Export Plug-In . SVG Version: 6.00 Build 0)  -->
<svg version="1.2" baseProfile="tiny" xmlns="http://www.w3.org/2000/svg" xmlns:xlink="http://www.w3.org/1999/xlink" x="0px"
	 y="0px" width="128px" height="128px" viewBox="0 0 128 128" xml:space="preserve">
<g id="box">
	<rect fill="none" width="128" height="128"/>
</g>
<g id="Production">
	<g>
		<path fill="#ffffff" d="M31.9709,93.0894c3.2815,0,5.9412-2.6595,5.9412-5.9407H26.0295
			C26.0295,90.4299,28.6897,93.0894,31.9709,93.0894z"/>
		<path fill="#ffffff" d="M96.0278,93.0894c3.2813,0,5.9414-2.6595,5.9414-5.9407H90.0864
			C90.0864,90.4299,92.7468,93.0894,96.0278,93.0894z"/>
		<path fill="#ffffff" d="M103.4526,34.9106H24.5474c-4.3113,0.0032-7.8001,3.492-7.803,7.8035v33.3948
			c0.0034,4.312,3.4907,7.7998,7.803,7.8035h78.9052c4.3118-0.0037,7.7994-3.4915,7.803-7.8035V42.7141
			C111.2524,38.4026,107.7639,34.9138,103.4526,34.9106z M53.6636,70.7969H30.646c-1.1426,0-2.0691-0.9268-2.0691-2.0689
			c0-1.143,0.9265-2.0693,2.0691-2.0693h23.0176c1.1426,0,2.0693,0.9263,2.0693,2.0693
			C55.7329,69.8701,54.8062,70.7969,53.6636,70.7969z M53.6636,61.2935H30.6462c-1.1428,0-2.0693-0.927-2.0693-2.0694
			c0-1.1428,0.9265-2.0693,2.0693-2.0693h23.0174c1.1426,0,2.0693,0.9265,2.0693,2.0693
			C55.7329,60.3665,54.8062,61.2935,53.6636,61.2935z M53.6636,51.7891H30.6462c-1.1428,0-2.0695-0.9263-2.0695-2.0689
			s0.9267-2.0696,2.0695-2.0696h23.0174c1.1426,0,2.0693,0.927,2.0693,2.0696S54.8062,51.7891,53.6636,51.7891z M82.0557,77.8589
			c-10.065-0.0015-18.2212-8.1577-18.2227-18.2219c0.0015-10.0655,8.1577-18.2215,18.2227-18.2229
			c10.0642,0.0014,18.2207,8.1574,18.2224,18.2229C100.2764,69.7012,92.1199,77.8574,82.0557,77.8589z"/>
		<path fill="#ffffff" d="M82.0557,46.2686c-7.3523,0.0029-13.3653,5.9476-13.3682,13.3684
			c0.0029,7.358,5.9545,13.3647,13.3682,13.3667c7.3581-0.002,13.3647-5.9552,13.3676-13.3667
			C95.4204,52.2649,89.4548,46.2715,82.0557,46.2686z"/>
	</g>
</g>
</svg>
