<?xml version="1.0" encoding="utf-8"?>
<!-- Generator: Adobe Illustrator 18.1.1, SVG Export Plug-In . SVG Version: 6.00 Build 0)  -->
<svg version="1.2" baseProfile="tiny" xmlns="http://www.w3.org/2000/svg" xmlns:xlink="http://www.w3.org/1999/xlink" x="0px"
	 y="0px" width="128px" height="128px" viewBox="0 0 128 128" xml:space="preserve">
<g id="box">
	<rect fill="none" width="128" height="128"/>
</g>
<g id="Production">
	<g>
		<path fill="#ffffff" d="M101.0494,94.6093c-6.6054-4.003-13.5702-7.766-13.5702-7.766V71.0664
			c0-17.2813-14.0239-31.2842-31.3057-31.2842c-17.9649,0-31.7151,15.0249-31.2807,31.667c0,2.5152,0.0355,2.752,0.0454,5.065
			c0,1.1977,0.9896,2.0771,2.3374,2.0771c0.58,0,13.0874,0,13.0874,0c0,0.1157,0,0.8032,0,4.3813
			c0,4.8262-8.1065,4.6445-8.1065,9.0484c0,4.4033,6.1372,5.728,6.1372,9.0659s-7.3295,4.8799-7.3295,8.955
			c0,4.3448,19.6976,11.6807,29.0878-3.767c6.3662-10.4736-3.1407-17.1485-3.1407-21.461c0-4.313,0.0411-6.2441,0.0411-6.2441
			c0.0244-9.2197,15.6026-9.169,15.6026,0.1728c0,3.9887,0,10.1577,0,12.6095c0,0.6645,0.0664,1.3001,0.3549,1.7382
			c0.8799,1.335,3.8262,4.4683,13.2549,7.9413C99.2067,105.7988,107.6545,98.6128,101.0494,94.6093z"/>
		<path fill="#ffffff" d="M114.7184,70.2554c-0.3779-32.0754-26.459-57.8941-58.5947-57.8941
			c-16.1606,0-31.2446,6.5636-42.2226,17.9687c-0.8647,0.8993-0.8311,2.3242,0.0609,3.1817
			c11.5849,11.1482,8.7354,8.4062,13.6422,13.1275c3.6592-3.8027,4.6025-4.4513,4.6025-4.4513
			c6.6962-5.5733,15.1904-8.643,23.917-8.643c20.2875,0,37.0698,16.497,37.4102,36.7661
			c0.0036,0.3738,0.0053,11.2892,0.0053,11.6645c7.2402,0,11.9814,0,18.9331,0h0.0049c1.3099,0,2.3336-1.1121,2.2451-2.4013
			C114.7223,78.375,114.7214,70.4888,114.7184,70.2554z"/>
	</g>
</g>
</svg>

