<?xml version="1.0" encoding="utf-8"?>
<!-- Generator: Adobe Illustrator 18.1.1, SVG Export Plug-In . SVG Version: 6.00 Build 0)  -->
<svg version="1.2" baseProfile="tiny" xmlns="http://www.w3.org/2000/svg" xmlns:xlink="http://www.w3.org/1999/xlink" x="0px"
	 y="0px" width="64px" height="64px" viewBox="0 0 64 64" xml:space="preserve">

<g id="Production">
	<g>
		<path fill="#ffffff" d="M29.6882,29.0696l1.657-1.6569C30.6106,27.1504,29.8235,27,29,27c-3.8599,0-7,3.1401-7,7s3.1401,7,7,7
			s7-3.1401,7-7c0-0.8235-0.1504-1.6107-0.4126-2.3451l-1.657,1.6569C34.3699,36.4561,31.9175,39,29,39c-2.7568,0-5-2.2432-5-5
			C24,31.0918,26.5334,28.6295,29.6882,29.0696z"/>
		<path fill="#ffffff" d="M50,34c0-4.7092-1.5771-9.0464-4.2048-12.553l-1.4265,1.4267C46.6423,26.0053,48,29.8427,48,34
			c0,10.4766-8.5234,19-19,19s-19-8.5234-19-19s8.5234-19,19-19c4.1572,0,7.9946,1.3577,11.1265,3.6315l1.4265-1.4267
			C38.0464,14.577,33.7092,13,29,13C17.4204,13,8,22.4204,8,34c0,6.7851,3.2485,12.8111,8.2563,16.6527l-3.709,9.1378
			c-0.4973,1.2263,1.3569,1.9755,1.8535,0.752l3.5408-8.7233C21.158,53.8226,24.9397,55,29,55s7.8423-1.1775,11.0586-3.181
			l3.541,8.7235c0.4968,1.2245,2.3508,0.4744,1.8535-0.752l-3.7092-9.1381C46.7517,46.8109,50,40.7849,50,34z"/>
		<path fill="#ffffff" d="M36.5371,22.2208C34.3584,20.822,31.7756,20,29,20c-7.7197,0-14,6.2803-14,14s6.2803,14,14,14
			s14-6.2803,14-14c0-2.7757-0.822-5.3585-2.2207-7.537l-1.4536,1.4536C40.3823,29.7031,41,31.7784,41,34c0,6.6167-5.3833,12-12,12
			s-12-5.3833-12-12s5.3833-12,12-12c2.2217,0,4.2969,0.6177,6.0835,1.6744L36.5371,22.2208z"/>
		<path fill="#ffffff" d="M55,8V0.5859l-8,8v6L28.293,33.293c-0.9358,0.9359,0.4783,2.3499,1.4141,1.4141L48.4141,16h6l8-8H55z
			 M53.5859,14H49V9.4141l4-4V10h4.5859L53.5859,14z"/>
	</g>
</g>
</svg>
