<?xml version="1.0" encoding="utf-8"?>
<!-- Generator: Adobe Illustrator 18.1.1, SVG Export Plug-In . SVG Version: 6.00 Build 0)  -->
<svg version="1.2" baseProfile="tiny" xmlns="http://www.w3.org/2000/svg" xmlns:xlink="http://www.w3.org/1999/xlink" x="0px"
	 y="0px" width="128px" height="128px" viewBox="0 0 128 128" xml:space="preserve">
<g id="box">
	<rect fill="none" width="128" height="128"/>
</g>
<g id="Production">
	<g>
		<path fill="#ffffff" d="M107.1514,88.6293l-20.9082,1.4458c-1.2829,0.1003-1.782,1.68-0.8279,2.5019l4.0659,3.4737
			l-11.4243,7.6923c-0.6262,0.4242-0.8345,1.3053-0.3858,1.9744l3.95,5.8518c0.4336,0.642,1.3095,0.8147,1.9665,0.385
			l11.3533-7.6504l1.7747,5.045c0.428,1.1845,2.0528,1.2858,2.623,0.1491l9.1865-18.832
			C109.0111,89.6822,108.2278,88.536,107.1514,88.6293z"/>
		<path fill="#ffffff" d="M52.7229,56.9908c-0.9709-6.5247-3.3413-11.142-8.0312-11.142c-7.0967,0-8.8848,10.5683-8.5438,22.3298
			L52.7229,56.9908z"/>
		<circle fill="#ffffff" cx="44.6917" cy="37.174" r="6.9405"/>
		<path fill="#ffffff" d="M74.4792,42.306c-0.9951-6.3864-3.364-10.8813-7.9912-10.8813c-7.04,0-8.8557,10.3999-8.5512,22.0471
			L74.4792,42.306z"/>
		<circle fill="#ffffff" cx="66.488" cy="22.7499" r="6.9407"/>
		<path fill="#ffffff" d="M104.0432,37.5983H92.7043c-3.6208,0-7.1589,1.0824-10.1601,3.1081
			C72.6537,47.3823,41.423,68.4619,30.449,75.869h-6.4922c-10.03,0-18.1609,8.1309-18.1609,18.1609s8.1309,18.1609,18.1609,18.1609
			h12.0476c3.6208,0,7.1589-1.0823,10.1602-3.1082L98.2598,73.92h5.7834c10.03,0,18.1609-8.1308,18.1609-18.1608
			C122.2041,45.7291,114.0732,37.5983,104.0432,37.5983z M104.0432,65.9547h-8.22c-5.9128,3.991-47.2566,31.8967-53.2307,35.929
			c-1.1858,0.8004-3.2134,2.3418-6.5881,2.3418H23.9568c-5.6309,0-10.1956-4.5647-10.1956-10.1956s4.5647-10.1955,10.1956-10.1955
			h8.9287c6.2259-4.2023-10.2242,6.901,54.115-36.5259c1.6848-1.1372,3.6711-1.7449,5.7038-1.7449h11.3389
			c5.6309,0,10.1956,4.5647,10.1956,10.1956C114.2388,61.39,109.6741,65.9547,104.0432,65.9547z"/>
	</g>
</g>
</svg>
