<?xml version="1.0" encoding="utf-8"?>

<svg version="1.2" baseProfile="tiny" xmlns="http://www.w3.org/2000/svg" xmlns:xlink="http://www.w3.org/1999/xlink" x="0px"
	 y="0px" width="64px" height="64px" viewBox="0 0 64 64" xml:space="preserve">

<g id="Production">
	<g>
		<path fill="#ffffff" d="M48.3733,59.926c6.297,0,11.4196-5.1217,11.4196-11.4173c0-9.4932-10.9879-14.8622-18.4688-8.9536
			L34,33.8895v-7.3363c5-1.1371,8.9244-5.6949,8.9244-11.1378C42.9244,9.1207,37.796,4,31.4995,4
			C25.202,4,20.0709,9.1207,20.0709,15.4154c0,5.4422,3.9291,9.9997,8.9291,11.1373v7.3354l-7.3323,5.6664
			c-7.4809-5.908-18.4787-0.5382-18.4787,8.9541c0,6.2957,5.1243,11.4173,11.4218,11.4173c6.2965,0,11.4193-5.1217,11.4193-11.4173
			c0-1.8363-0.446-3.5666-1.2198-5.1052l6.6809-5.1595l6.6825,5.1602C34.347,51.0131,39.939,59.926,48.3733,59.926z
			 M14.6119,54.9624c-3.5594,0-6.4555-2.8948-6.4555-6.4537c0-7.3268,10.356-8.9327,12.598-1.9726
			C22.0973,50.7057,18.9662,54.9624,14.6119,54.9624z M37.9467,15.4154c0,3.5705-2.911,6.4537-6.4536,6.4537
			c-3.544,0-6.4555-2.8836-6.4555-6.4537c0-3.5579,2.8961-6.4518,6.4555-6.4518C35.0516,8.9636,37.9467,11.8575,37.9467,15.4154z
			 M45.4604,42.759c4.2959-2.1837,9.3675,0.9646,9.3675,5.7497c0,3.5589-2.8956,6.4537-6.4546,6.4537s-6.4546-2.8948-6.4546-6.4537
			C41.9188,46.0966,43.278,43.8683,45.4604,42.759z"/>
	</g>
</g>
</svg>
