<?xml version="1.0" encoding="utf-8"?>
<!-- Generator: Adobe Illustrator 18.1.1, SVG Export Plug-In . SVG Version: 6.00 Build 0)  -->
<svg version="1.2" baseProfile="tiny" xmlns="http://www.w3.org/2000/svg" xmlns:xlink="http://www.w3.org/1999/xlink" x="0px"
	 y="0px" width="128px" height="128px" viewBox="0 0 128 128" xml:space="preserve">
<g id="_x31_28px_boxes">
	<rect fill="none" width="128" height="128"/>
</g>
<g id="Production">
	<g>
		<rect x="87.4149" y="60.0481" fill="#ffffff" width="10.927" height="9.1067"/>
		<rect x="105.6261" y="60.0481" fill="#ffffff" width="10.927" height="9.1067"/>
		<path fill="#ffffff" d="M49.7364,74.1694c2.344,0.0513,5.9612-0.4304,9.6001-4.186L96.147,33.1297
			c-5.0609-3.095-21.8322-4.9611-37.5468,10.6286C17.9717,84.3011,15.1441,86.3585,12.9686,91.6345
			c-2.2798,5.5125-2.2551,11.9148,1.99,16.2923c14.67,14.948,42.83-16.1059,25.7078-28.2373l3.3559-3.3677
			C46.567,73.9693,47.3302,74.2844,49.7364,74.1694z M48.4364,60.6077c1.9331-1.8963,4.9686-1.7826,6.7317,0.0388
			c1.8241,1.8428,1.8658,4.8035-0.0108,6.7202l-0.0231,0.0213c-1.9013,1.8627-4.8971,1.8024-6.7261-0.044
			C46.4886,65.3962,46.6414,62.3311,48.4364,60.6077z M33.9083,99.8577c-7.7709,7.774-18.7179,5.2334-14.29-5.4099
			c1.0893-2.5905,3.1123-5.2047,5.9614-7.2098l0.0019-0.0036h0.0035c3.3521-2.3556,8.6637-3.9956,11.5473-1.1387
			C39.6824,88.5659,38.9848,94.8393,33.9083,99.8577z"/>
		<path fill="#ffffff" d="M18.7716,44.5078L35.516,61.2171l9.063-9.043c-0.7669-0.6595-0.0628,0.0107-3.9234-3.8631
			c7.6813-5.4232,6.4481-17.3166-1.6894-25.3115C21.9615,6.4972-0.3334,23.635,18.7716,44.5078z M21.6227,24.1182
			c2.6267-1.2464,8.0708-0.179,12.2749,4.0246c9.7714,9.6488,3.0502,20.6215-8.3233,12.6221l-0.0019,0.0012l-0.0015-0.0024
			C18.1203,35.5212,16.5065,26.2758,21.6227,24.1182z"/>
		<path fill="#ffffff" d="M80.1305,69.1548v-9.1067h-5.2822l-12.677,12.6821c-2.888,2.9834-6.2083,4.7193-9.8846,5.2222
			c5.4553,5.4439,21.4215,23.78,40.4053,18.1653c2.2188-0.6563,3.4999-1.2124,3.4999-1.2124L70.4586,69.1548H80.1305z"/>
	</g>
</g>
</svg>
