<?xml version="1.0" encoding="utf-8"?>
<!-- Generator: Adobe Illustrator 18.1.1, SVG Export Plug-In . SVG Version: 6.00 Build 0)  -->
<svg version="1.2" baseProfile="tiny" xmlns="http://www.w3.org/2000/svg" xmlns:xlink="http://www.w3.org/1999/xlink" x="0px"
	 y="0px" width="128px" height="128px" viewBox="0 0 128 128" xml:space="preserve">
<g id="_x31_28px_boxes">
	<rect fill="none" width="128" height="128"/>
</g>
<g id="Production">
	<g>
		<path fill="#ffffff" d="M103.52,53.4107c2.0982-4.5327,4.6238-8.3488,1.7886-13.2595c-2.8286-4.8995-7.3646-4.6288-12.3777-5.0818
			c-0.4503-4.9895-0.1616-9.5361-5.0803-12.3766c-4.8988-2.8299-8.7034-0.3213-13.2598,1.787
			c-2.8857-4.0952-4.9106-8.1782-10.5906-8.1782c-5.6574,0-7.6923,4.0635-10.5915,8.1782
			c-4.5485-2.105-8.3402-4.6277-13.2591-1.7875c-4.9145,2.8377-4.633,7.4152-5.0814,12.3771
			c-4.9719,0.4493-9.5405,0.168-12.3771,5.0813c-2.8284,4.8996-0.3261,8.6923,1.7885,13.26
			c-4.0956,2.8852-8.1794,4.9097-8.1788,10.5897c0,5.6573,4.0742,7.6978,8.1788,10.5888c-2.1046,4.5463-4.6279,8.3417-1.788,13.2607
			c2.8362,4.9124,7.4118,4.6321,12.3766,5.0808c0.4493,4.972,0.1706,9.5422,5.0814,12.377
			c4.915,2.8378,8.7388,0.3048,13.2593-1.7875c2.8655,4.0675,4.9119,8.1782,10.5913,8.1782h0.0003
			c5.6748,0,7.7193-4.1038,10.5903-8.1782c4.5367,2.0998,8.3409,4.6282,13.2595,1.7875c4.8993-2.8288,4.6282-7.3638,5.0806-12.377
			c4.9788-0.4499,9.5377-0.1616,12.3774-5.0808c2.8286-4.8995,0.326-8.6927-1.7883-13.2607
			c4.0975-2.8861,8.1792-4.9089,8.1792-10.5888C111.6992,58.343,107.6352,56.3093,103.52,53.4107z M64,98.8724
			c-19.2299,0-34.8732-15.6438-34.8732-34.8733c0-19.2279,15.6433-34.8716,34.8732-34.8716
			c19.229,0,34.8728,15.6437,34.8728,34.8716C98.8728,83.2286,83.229,98.8724,64,98.8724z"/>
		<path fill="#ffffff" d="M93.7724,63.9991c0-16.4158-13.3559-29.771-29.7724-29.771c-16.4174,0-29.7727,13.3552-29.7727,29.771
			c0,16.417,13.3553,29.7729,29.7727,29.7729C80.4165,93.772,93.7724,80.4161,93.7724,63.9991z M72.7851,80.237
			c-2.4043,0-3.7231-1.2024-4.4597-3.4518l-4.0331-12.6421h-0.0774l-4.0346,12.6421c-0.7372,2.2494-2.0556,3.4518-4.4604,3.4518
			c-3.0245,0-3.6835-1.6677-4.421-4.6929c-4.8884-19.9615-4.8084-19.3203-4.8084-20.3206c0-3.5873,5.4407-4.5282,6.3986-0.2712
			l3.2189,14.8913h0.0775l4.5377-14.4646c1.4145-4.3817,5.6423-4.3948,7.0592,0l4.5374,14.4646h0.0774l3.2187-14.8913
			c0.9623-4.2732,6.3987-3.3011,6.3987,0.2712c0,1.0001,0.0818,0.3533-4.8086,20.3206C76.4695,78.5693,75.81,80.237,72.7851,80.237z
			"/>
	</g>
</g>
</svg>
