<?xml version="1.0" encoding="utf-8"?>

<svg version="1.2" baseProfile="tiny" xmlns="http://www.w3.org/2000/svg" xmlns:xlink="http://www.w3.org/1999/xlink" x="0px"
	 y="0px" width="64px" height="64px" viewBox="0 0 64 64" xml:space="preserve">

<g id="Production">
	<g>
		<circle fill="#ffffff" cx="41" cy="11.9998" r="3.0002"/>
		<path fill="#ffffff" d="M52.734,24.3652c-0.001,0.0015-0.002,0.0029-0.0031,0.0044c-0.7762-1.1588-1.647-2.2646-2.6202-3.3003
			C51.7278,18.4852,53,15.5186,53,12c0-6.6172-5.3833-12-12.0005-12C34.3828,0,29,5.3828,29,12
			c0,5.1328,2.7065,9.0918,5.2432,12.4004c1.54,2.0076,5.4587,7.0215,6.7559,8.6826c1.4735-1.886,4.2766-5.4709,6.1223-7.8582
			c0.9213,1.0785,1.7043,2.2446,2.3738,3.467c-0.002,0.0024-0.0037,0.0049-0.0057,0.0073c1.2267,2.2546,2.0305,4.7185,2.3427,7.2983
			c0,0,0.0002,0.0016,0.0003,0.0024h-26.773c0.195-4.4617,0.9694-9.7175,2.8201-13.8232c-1.39-2.4148-2.4788-5.158-2.7855-8.3663
			C14.2815,16.5958,6,26.4469,6,38.499C5.999,52.5914,17.4036,63.999,31.4991,64H31.5h0.001h0.0005c0.0004,0,0.0007,0,0.0015,0
			C45.5953,64,57.001,52.5945,57,38.499C57.0005,33.3818,55.4897,28.4781,52.734,24.3652z M43.7891,21.3574
			C43.1382,22.2061,42,23.6709,41,24.9561c-1.0005-1.2852-2.1382-2.75-2.7891-3.5986C35.5439,17.8799,34,15.2334,34,12
			c0-3.8594,3.1401-7,7-7s7,3.1406,7,7C48,15.2334,46.4561,17.8799,43.7891,21.3574z M17.0044,52.9951
			c-3.2756-3.2753-5.289-7.4778-5.8368-12.0051h8.8846c0.2172,5.3618,1.2043,11.6252,3.5123,16.4184
			C21.1433,56.3918,18.9173,54.9077,17.0044,52.9951z M20.0522,36h-8.8847c0.9184-7.5909,5.89-13.6785,12.3969-16.4093
			C21.2555,24.385,20.2693,30.6422,20.0522,36z M31.501,59c0,0-0.0004,0-0.0007,0c-2.1092-0.0005-5.9302-6.3364-6.4407-18.01
			h12.8809C37.4349,52.5501,33.6519,59,31.501,59z M45.9961,52.9961c-1.913,1.9133-4.1391,3.3976-6.5605,4.4138
			c2.3081-4.7924,3.2952-11.0608,3.5122-16.4199h8.8846C51.2847,45.518,49.2714,49.7207,45.9961,52.9961z"/>
	</g>
</g>
</svg>
