<?xml version="1.0" encoding="utf-8"?>
<!-- Generator: Adobe Illustrator 18.1.1, SVG Export Plug-In . SVG Version: 6.00 Build 0)  -->
<svg version="1.2" baseProfile="tiny" xmlns="http://www.w3.org/2000/svg" xmlns:xlink="http://www.w3.org/1999/xlink" x="0px"
	 y="0px" width="64px" height="64px" viewBox="0 0 64 64" xml:space="preserve">

<g id="Production">
	<g>
		<path fill="#ffffff" d="M35.2988,58.8389c-3.1625-2.0758,1.7833-9.0748-4.4048-10.8022
			c-3.8724-1.0797-12.8894,3.9352-18.9868,7.7603c-0.5671,1.2521-1.0403,2.3553-1.4286,3.2944
			c7.1237-4.6564,16.756-10.0021,19.8773-9.1279c4.2911,1.1971-0.7046,7.5617,3.8452,10.5474
			c4.4092,2.8965,16.8765-7.6201,19.3306-9.7568l-1.3135-1.5083C42.8682,57.3857,36.689,59.7539,35.2988,58.8389z"/>
		<path fill="#ffffff" d="M57.6572,2.8779C45.4441,3.7574,32.8645,8.9835,24.5908,18.1641
			c-8.15,9.0426-12.938,21.0338-13.6379,30.4338C7.6042,55.1342,5.8368,59.9039,5.446,61h2.1296
			c0.6804-1.8225,2.4769-6.3504,5.5306-12.223c12.4422-2.8404,30.1042-10.4857,38.257-21.8307
			c-1.2698-0.6412-3.4553-1.6129-5.4644-4.0293c3.7118-0.344,6.9506-1.4552,9.4233-4.2266
			C53.9672,13.0025,55.2117,7.9091,57.6572,2.8779z M53.1362,18.1069c-2.7245,2.6177-7.1971,2.9394-10.7783,2.8477
			c0.5721,1.094,1.857,4.1783,6.0166,6.6743c-6.7449,8.467-21.8011,15.6694-34.005,18.7778
			c4.1943-7.6819,10.3512-17.1602,18.7667-25.8788c0.9153-0.9491-0.5192-2.3405-1.4395-1.3887
			C23.9194,27.1965,18.0372,35.9,13.8233,43.2936c1.2837-5.5869,4.4796-15.1654,12.2529-23.7906
			C35.7349,8.7856,49.6753,5.894,54.4204,5.1978C53.4858,7.7222,52.0459,12.814,53.1362,18.1069z"/>
	</g>
</g>
</svg>
