<?xml version="1.0" encoding="utf-8"?>
<!-- Generator: Adobe Illustrator 18.1.1, SVG Export Plug-In . SVG Version: 6.00 Build 0)  -->
<svg version="1.2" baseProfile="tiny" xmlns="http://www.w3.org/2000/svg" xmlns:xlink="http://www.w3.org/1999/xlink" x="0px"
	 y="0px" width="64px" height="64px" viewBox="0 0 64 64" xml:space="preserve">
<g id="_x36_4px_boxes">
	<rect fill="none" width="64" height="64"/>
</g>
<g id="Production">
	<g>
		<path fill="#ffffff" d="M33,26v8h15.9136l-2.1465-8H33z M35,32v-4h10.2329l1.0732,4H35z"/>
		<path fill="#ffffff" d="M50.6973,21H43v-5h8V7H33v9h8v5H31v2h18.3027l6.2632,17H8.4341l6.2632-17H17v-2h-3.6973L6,40.8218V54h52
			V40.8218L50.6973,21z M35,9h14v5H35V9z M8,52V42h48v10H8z"/>
		<path fill="#ffffff" d="M29,14H19v17h10V14z M27,29h-6V16h6V29z"/>
		<path fill="#ffffff" d="M32,44c-1.1046,0-2,0.8954-2,2c0,0.7384,0.4047,1.3762,1,1.7226V50h2v-2.2774
			c0.5953-0.3464,1-0.9842,1-1.7226C34,44.8954,33.1046,44,32,44z"/>
	</g>
</g>
</svg>

