<?xml version="1.0" encoding="utf-8"?>
<!-- Generator: Adobe Illustrator 18.1.1, SVG Export Plug-In . SVG Version: 6.00 Build 0)  -->
<svg version="1.2" baseProfile="tiny" xmlns="http://www.w3.org/2000/svg" xmlns:xlink="http://www.w3.org/1999/xlink" x="0px"
	 y="0px" width="128px" height="128px" viewBox="0 0 128 128" xml:space="preserve">
<g id="box">
	<rect fill="none" width="128" height="128"/>
</g>
<g id="Production">
	<g>
		<path fill="#ffffff" d="M39.5448,49.6669C31.8862,54.1953,21.601,59.945,11.8261,64.36
			c-0.8223,0.3733-1.3726,1.1482-1.4553,2.0458c-0.1631,1.7648,1.1162,2.1743,2.8371,3.7846
			c2.1309,2.0078,5.6128,5.8983,7.949,11.7357l-5.0435,8.8491l-3.7985-11.0366c-0.5977-1.7363-2.4898-2.6646-4.2261-2.0601
			c-1.7339,0.5952-2.655,2.4878-2.062,4.2168l4.9795,14.4903c0.4748,1.3794,1.7646,2.2441,3.144,2.2441
			c0.0166,0,10.6633,0.0024,11.6602,0.0024c0.9992,0,2.0151-0.4775,2.4546-1.3183l21.5341-41.5499v42.8702
			c18.8037,0.0049,38.0161,0.0073,38.0161,0.0073L49.8349,31.6119L39.5448,49.6669z M27.8634,87.243
			c-1.8662-9.9683-7.0869-16.5756-10.4836-19.963c10.9585-5.2206,21.9949-11.6389,29.0981-15.9524L27.8634,87.243z"/>
		<path fill="#ffffff" d="M119.9609,71.7846c-1.7315-0.626-3.6377,0.2671-4.264,1.9965l-3.437,9.5078L78.9733,30.1523
			c-0.3093-0.482-0.8386-0.7774-1.4104-0.7774l-23.2754-0.0163l36.4592,64.3338l4.6585-13.5549
			c0.5976-1.7432,2.4922-2.6692,4.2285-2.0693c1.741,0.5981,2.6575,2.4897,2.0669,4.2265L96.7399,96.721
			c0,0,17.1853-4.8809,18.1421-5.2634c0.9519-0.3801,1.897-1.1008,2.2654-2.1165l4.8071-13.2998
			C122.5783,74.3123,121.683,72.4036,119.9609,71.7846z"/>
	</g>
</g>
</svg>
