<?xml version="1.0" encoding="utf-8"?>
<!-- Generator: Adobe Illustrator 18.1.1, SVG Export Plug-In . SVG Version: 6.00 Build 0)  -->
<svg version="1.2" baseProfile="tiny" xmlns="http://www.w3.org/2000/svg" xmlns:xlink="http://www.w3.org/1999/xlink" x="0px"
	 y="0px" width="128px" height="128px" viewBox="0 0 128 128" xml:space="preserve">
<g id="box">
	<rect fill="none" width="128" height="128"/>
</g>
<g id="Production">
	<g>
		<polygon fill="#ffffff" points="35.7452,81.7975 35.7452,92.1085 39.4273,96.2821 42.7794,92.3292 46.086,96.2799 
			49.3758,92.3309 52.6485,96.2777 55.9188,92.33 59.1861,96.2833 62.4512,92.3278 65.7208,96.2789 68.9813,92.3263 
			72.2484,96.2789 75.5089,92.3258 78.7772,96.2819 82.0401,92.3304 85.2999,96.2784 88.5694,92.3285 91.8326,96.2794 
			95.0997,92.3336 98.3589,96.2792 101.6263,92.3336 104.886,96.2784 108.1929,91.7762 104.806,81.7975 		"/>
		<path fill="#ffffff" d="M122.3272,84.754c-0.3555-1.0276-8.7244-25.2162-10.4199-29.5749
			c-3.6572-9.4048-9.3125-14.0622-19.5203-16.075c-3.7064-0.7309-31.943-5.6485-37.4338-6.7298
			c-11.2918-2.2244-21.9182,1.117-27.0213,11.525c-0.0022-0.0005-0.0041-0.0009-0.0065-0.0014
			c-0.002,0.0046-0.004,0.0092-0.0061,0.0136c-4.145-0.6526-8.3077,1.656-9.8626,5.7045
			C16.8126,52.853,9.9825,69.8374,6.022,79.6732c-2.2587,5.6101,1.3749,12.6064,9.5691,12.6064c3.1069,0,15.9041,0,15.9041,0
			V81.7975c-3.1644,0-1.5226,0-6.8635,0c4.0817-9.75,11.4938-28.4512,12.8398-31.9524c2.8447-7.4024,9.9028-7.6283,15.322-6.5606
			c6.6911,1.3176,33.4673,5.9889,37.4314,6.7706c6.3943,1.2608,9.0266,3.3515,11.2664,9.1113
			c1.7604,4.5256,9.9251,28.185,10.2737,29.1853c1.1037,3.1901,4.3469,4.4651,7.1076,3.5107
			C121.7894,90.8536,123.336,87.6708,122.3272,84.754z"/>
	</g>
</g>
</svg>
