<?xml version="1.0" encoding="utf-8"?>
<!-- Generator: Adobe Illustrator 18.1.1, SVG Export Plug-In . SVG Version: 6.00 Build 0)  -->
<svg version="1.2" baseProfile="tiny" xmlns="http://www.w3.org/2000/svg" xmlns:xlink="http://www.w3.org/1999/xlink" x="0px"
	 y="0px" width="128px" height="128px" viewBox="0 0 128 128" xml:space="preserve">
<g id="_x31_28px_boxes">
	<rect fill="none" width="128" height="128"/>
</g>
<g id="Production">
	<g>
		<path fill="#ffffff" d="M121.1797,80.8164c0-4.306-2.5184-8.3563-6.948-11.8878V57.7127c0-8.1264-9.3323-7.6796-9.3323-10.878
			c0-0.8654,0.4517-1.4659,1.3432-2.7114c4.4737-6.0374,2.4477-15.7932-5.2893-15.7932c-7.5536,0-9.7698,9.4468-5.4333,15.5946
			c0.002,0.0033,0.002,0.0066,0.0054,0.0104c0.9189,1.3218,1.6018,1.8894,1.4365,2.7759c-0.9048,2.9896-9.3106,1.735-9.3106,8.5034
			v2.9596c-2.5692-0.5082-5.2393-0.9368-7.9951-1.2771v-5.3017c0-6.1784-10.8665-6.571-11.5542-9.1446
			c-0.2495-0.9359,0.3941-1.499,1.3059-2.7726C74.0815,33.3748,71.6773,23.5298,64,23.5298c-4.3089,0-7.8033,3.3959-7.8033,8.7219
			c0,4.8076,2.9317,8.2102,2.2532,7.2343c0.9827,1.4133,1.7039,1.9823,1.4419,2.9646c-0.5935,2.2244-11.5481,3.1617-11.5481,9.1446
			v5.3017c-2.7556,0.3403-5.4258,0.7689-7.9949,1.2771v-2.9596c0-6.7634-8.4097-5.5248-9.3103-8.5034
			c-0.1653-0.8865,0.5171-1.4541,1.4361-2.7759c0.0034-0.0038,0.0034-0.0071,0.0053-0.0104
			c4.3361-6.145,2.1209-15.5946-5.4333-15.5946c-7.4806,0-9.8801,9.5997-5.2888,15.7932c0.8918,1.2455,1.3427,1.846,1.3427,2.7114
			c0,3.176-9.3322,2.7664-9.3322,10.878v11.2159c-4.4297,3.5318-6.948,7.5818-6.948,11.8878
			c0,11.0527,16.5898,20.4196,39.5317,23.6536v-5.6664c0-6.9127,12.2712-7.5112,13.0173-10.3081
			c0.2955-1.1074-0.5173-1.7485-1.6257-3.3417c-0.0029-0.004-0.0034-0.0085-0.0063-0.0122
			c-4.9959-7.0833-2.4437-17.9737,6.2632-17.9737c8.8178,0,11.2889,11.196,6.0952,18.2025
			c-1.0279,1.4359-1.7527,2.0696-1.4717,3.1251c0.774,2.9002,13.0239,3.3426,13.0239,10.3081v5.6666
			C104.5899,101.236,121.1797,91.8691,121.1797,80.8164z"/>
	</g>
</g>
</svg>
