<?xml version="1.0" encoding="utf-8"?>
<!-- Generator: Adobe Illustrator 18.1.1, SVG Export Plug-In . SVG Version: 6.00 Build 0)  -->
<svg version="1.2" baseProfile="tiny" xmlns="http://www.w3.org/2000/svg" xmlns:xlink="http://www.w3.org/1999/xlink" x="0px"
	 y="0px" width="128px" height="128px" viewBox="0 0 128 128" xml:space="preserve">
<g id="box">
	<rect fill="none" width="128" height="128"/>
</g>
<g id="Production">
	<g>
		<path fill="#ffffff" d="M103.0752,18.3165H37.2981c-1.6646,0-3.0149,1.3501-3.0149,3.015v12.3429
			c1.9229-0.9891,3.9419-1.7765,6.0313-2.3486v-6.9784h59.7446v50.1863c-0.1343,2.6799-1.0032,4.6714-3.6055,5.7115
			c-3.5124,1.4062-7.0959,1.6831-14.3017,1.6831c-2.3916,0-3.4457,1.613-3.3587,3.163c0.3189,5.8176,0.3071,14.3486-2.4226,16.9544
			c-1.3044,1.2446-2.1338,1.5996-3.4976,1.5996c-1.6652,0-32.5585,0.0066-32.5585,0.0066V92.2306
			c-2.0894-0.5722-4.1084-1.3595-6.0313-2.3486v16.7858c0,1.6653,1.3503,3.0157,3.0149,3.0157c0,0,36.6626-0.007,37.3469-0.007
			c2.103,0,4.1355-0.7184,6.053-1.8212c2.7085-1.5581,19.4456-19.4321,21.4016-21.6842c1.9514-2.2471,3.9807-5.4517,3.9902-13.2365
			l0.001-0.0005V21.3315C106.0908,19.6666,104.7407,18.3165,103.0752,18.3165z"/>
		<path fill="#ffffff" d="M48.717,88.572h0.014l0.0146-0.0005c14.7795-0.0192,26.7499-11.9909,26.7522-26.7937
			c-0.0023-14.8092-11.9824-26.7919-26.7937-26.7939h-0.0007c-14.7858,0.0018-26.7926,11.9589-26.7942,26.7939
			c0.0016,14.8128,11.982,26.7929,26.7942,26.7942H48.717z M68.3352,58.3862h-7.2153c-0.2781-5.2339-1.19-10.0446-2.6482-13.9725
			C63.4407,47.2133,67.2844,52.2173,68.3352,58.3862z M61.1208,65.17h7.2144c-1.0498,6.1607-4.8904,11.1719-9.865,13.9731
			C60.0845,74.8051,60.8757,69.7755,61.1208,65.17z M29.0713,65.17c4.8755,0,4.1623,0,7.2156,0
			c0.2783,5.2344,1.1899,10.0444,2.6484,13.9726C34.0005,76.3619,30.1267,71.3651,29.0713,65.17z M36.2864,58.3862
			c-3.0529,0-2.3396,0-7.2151,0c1.0542-6.1878,4.9241-11.1899,9.865-13.9734C37.3325,48.7217,36.5339,53.7383,36.2864,58.3862z
			 M48.938,41.9409c2.1819,1.099,4.7829,7.8347,5.2964,16.4453h-11.063C43.7889,48.1229,47.3354,41.1224,48.938,41.9409z
			 M43.1726,65.17h11.063c-0.6941,11.5291-4.5852,17.0511-5.7649,16.4458C46.3048,80.5254,43.691,73.8461,43.1726,65.17z"/>
	</g>
</g>
</svg>
