<?xml version="1.0" encoding="utf-8"?>
<!-- Generator: Adobe Illustrator 18.1.1, SVG Export Plug-In . SVG Version: 6.00 Build 0)  -->
<svg version="1.2" baseProfile="tiny" xmlns="http://www.w3.org/2000/svg" xmlns:xlink="http://www.w3.org/1999/xlink" x="0px"
	 y="0px" width="128px" height="128px" viewBox="0 0 128 128" xml:space="preserve">
<g id="box">
	<rect fill="none" width="128" height="128"/>
</g>
<g id="Production">
	<g>
		<rect x="100.1851" y="35.2526" fill="#ffffff" width="8.5" height="9.75"/>
		<path fill="#ffffff" d="M121.4351,78.1014V25.7736c0-1.8195-1.3984-3.271-3.218-3.271H43.9097
			c-1.8196,0-3.2246,1.4515-3.2246,3.271v12.257l6.5-1.1461v-7.6319h67.75v45.75H96.5018l1.1902,6.75h20.5253
			c0.0013,0,0.0032,0,0.0049,0c1.8197,0,3.2564-1.5616,3.2564-3.3814C121.4786,78.3097,121.4351,78.162,121.4351,78.1014z"/>
		<polygon fill="#ffffff" points="93.5043,58.0026 108.6851,58.0026 108.6851,53.0026 92.6224,53.0026 		"/>
		<polygon fill="#ffffff" points="108.6851,63.0026 94.3858,63.0026 95.2674,68.0026 108.6851,68.0026 		"/>
		<path fill="#ffffff" d="M85.6942,37.3365c-0.2896-1.6425-1.8564-2.7391-3.4986-2.4497L9.0169,47.7902
			c-1.6418,0.2896-2.7388,1.856-2.4497,3.4985l9.1187,51.7131c0.2901,1.6447,1.8595,2.7389,3.4985,2.4497L92.3631,92.548
			c1.6416-0.2896,2.7395-1.8562,2.4497-3.4986L85.6942,37.3365z M71.1168,73.9534c-2.6722,4.2805-8.2083,6.3888-13.2735,5.0731
			l1.6468,9.1684l0.033,0.1839L49.463,90.1857l-0.033-0.1841l-1.6021-8.9194c-1.2797,0.7954-2.749,1.3745-4.351,1.6621
			c-6.149,1.1045-11.9563-2.4795-12.9458-7.9889c-0.6206-3.4544,0.8189-6.8959,3.5022-9.2252
			c-2.8489-6.8064,3.7312-13.8671,10.7373-11.4295c1.8098-2.0223,4.2778-3.4805,7.1496-3.9963
			c6.7451-1.2116,13.2186,3.2115,14.578,9.893C72.2111,62.4621,74.3372,68.7971,71.1168,73.9534z"/>
	</g>
</g>
</svg>
