<?xml version="1.0" encoding="utf-8"?>
<!-- Generator: Adobe Illustrator 18.1.1, SVG Export Plug-In . SVG Version: 6.00 Build 0)  -->
<svg version="1.2" baseProfile="tiny" xmlns="http://www.w3.org/2000/svg" xmlns:xlink="http://www.w3.org/1999/xlink" x="0px"
	 y="0px" width="128px" height="128px" viewBox="0 0 128 128" xml:space="preserve">
<g id="_x31_28px_boxes">
	<rect fill="none" width="128" height="128"/>
</g>
<g id="Production">
	<path fill="#ffffff" d="M104.1896,28.8553c-15.9687-3.8325-30.0546,8.2523-30.0546,8.2523
		c3.5771,3.0241,5.9997,6.7676,5.9997,6.7676c18.7557-14.7547,32.308-4.2707,23.2459,6.4927
		c-7.2756,8.6414-19.6493,8.6786-26.7286-2.1637c-5.7251-8.7683-18.581-19.8086-29.2856-9.0914
		C35.8583,50.6344,30.0202,55.6724,22.5395,54.7963c-13.1746-1.5435-16.6047,17.8224-5.8582,30.894
		c8.5953,10.4549,27.4854,16.8203,43.3321,13.167c18.0854-4.1696,17.7243-17.4751,26.0359-14.9817
		c12.9152,3.8745,24.488-5.7481,28.6525-18.4919C120.0251,49.0959,119.2287,32.4647,104.1896,28.8553z"/>
</g>
</svg>

