<?xml version="1.0" encoding="utf-8"?>

<svg version="1.2" baseProfile="tiny" xmlns="http://www.w3.org/2000/svg" xmlns:xlink="http://www.w3.org/1999/xlink" x="0px"
	 y="0px" width="128px" height="128px" viewBox="0 0 128 128" xml:space="preserve">
<g id="_x31_28px_boxes">
	<rect fill="none" width="128" height="128"/>
</g>
<g id="Production">
	<g>
		<path fill="#ffffff" d="M62.4014,68.8398h11.4394C73.8408,60.3525,63.2212,60.4253,62.4014,68.8398z"/>
		<path fill="#ffffff" d="M98.5,40c-6.4121,0-49.6414,0-55.5,0c-3.3137,0-6-2.6863-6-6s2.6863-6,6-6c7.2151,0,49.5947,0,54,0v-5.5
			c0-1.9331-1.5669-3.5-3.5-3.5H43c-8.2842,0-15,6.7158-15,15v62c0,8.2842,6.7158,15,15,15h55.5c1.9331,0,3.5-1.5669,3.5-3.5v-64
			C102,41.5669,100.4331,40,98.5,40z M82.4839,75.4492H62.4648c0.5474,6.8926,10.7286,6.7383,17.3497,4.6387l1.2714,6.5459
			c-9.6892,3.8769-27.8364,3.46-27.8364-13.918c0-7.8799,4.8936-16.5869,15.6978-16.5869
			C80.9343,56.1289,83.9541,67.3518,82.4839,75.4492z"/>
	</g>
</g>
</svg>
