<?xml version="1.0" encoding="utf-8"?>
<!-- Generator: Adobe Illustrator 18.1.1, SVG Export Plug-In . SVG Version: 6.00 Build 0)  -->
<svg version="1.2" baseProfile="tiny" xmlns="http://www.w3.org/2000/svg" xmlns:xlink="http://www.w3.org/1999/xlink" x="0px"
	 y="0px" width="128px" height="128px" viewBox="0 0 128 128" xml:space="preserve">
<g id="box">
	<rect fill="none" width="128" height="128"/>
</g>
<g id="Production">
	<g>
		<path fill="#ffffff" d="M95.8691,44.5098V25.8953c1.3465-1.1846,2.0823-2.4649,2.0823-3.8008
			c0-6.0751-15.2007-10.0121-33.9512-10.0121c-18.75,0-33.9516,3.937-33.9516,10.0121c0,1.3359,0.7358,2.6162,2.0823,3.8008v18.6145
			c-2.7808,2.6664-2.7749,5.6226,0,8.2833v18.7588c-2.7808,2.8178-2.7749,5.9403,0,8.7517v17.5852
			c-2.9075,3.1244-2.7138,6.5074,0.219,9.4825c6.4713,6.5677,22.0908,8.5463,31.6503,8.5463c9.9361,0,25.2581-2.0605,31.6504-8.5464
			c2.9259-2.9692,3.1317-6.3525,0.2185-9.4824V80.3036c2.7704-2.8068,2.7853-5.9278,0-8.7517V52.7932
			C98.6392,50.1369,98.6547,47.1823,95.8691,44.5098z M36.887,104.5554c0.9909-1.6206,3.0527-2.2943,4.8335-1.4981
			c1.6899,0.7608,3.686,1.4455,5.9162,2.0231V87.0271c4.853,0.998,10.43,1.5665,16.3635,1.5665c1.221,0,2.4263-0.0246,3.6138-0.0714
			v18.3847c6.0842-0.3029,11.5838-1.3392,15.8272-2.819c1.9262-0.6694,4.0197,0.2884,4.7949,2.1455
			C74.1418,113.2461,48.1093,112.2918,36.887,104.5554z M67.614,83.2291c-1.1865,0.053-2.3918,0.0811-3.6138,0.0811
			c-5.9824,0-11.5783-0.6531-16.3635-1.7881c-4.4529-1.0565-8.2024-2.5304-10.9055-4.286c0.9165-1.8224,3.1089-2.6212,4.9893-1.7804
			c1.6899,0.7612,3.686,1.4459,5.9162,2.0235V59.1565c6.4278,1.2511,13.4341,1.6597,19.9773,1.4149v18.7343
			c6.0842-0.3031,11.5838-1.3388,15.8272-2.8189c2.0009-0.6952,4.1867,0.3626,4.8828,2.3627
			C83.2029,81.2365,75.8875,82.8593,67.614,83.2291z M36.6682,49.8514c0.8755-1.9106,3.1284-2.7641,5.0518-1.9041
			c1.6904,0.7608,3.6865,1.4455,5.9167,2.0233V31.7341c6.4283,1.1481,13.4256,1.5225,19.9773,1.2982v18.7645
			c6.0842-0.3028,11.5838-1.339,15.8272-2.819c2.0017-0.6956,4.1882,0.3631,4.8838,2.3645
			c0.0075,0.0218,0.0119,0.0439,0.0195,0.0658C74.2963,57.6157,47.9954,56.874,36.6682,49.8514z M64.0002,26.516
			c-13.8931,0-25.1425-2.5199-25.1425-5.2238c0-2.7064,11.257-4.9,25.1425-4.9s25.1414,2.1936,25.1414,4.9
			C89.1416,25.1975,71.0721,26.516,64.0002,26.516z"/>
		<path fill="#ffffff" d="M52.2244,19.626c-3.2742,0-5.9297,0.7867-5.9297,1.7586c0,0.1745,0.0888,0.3465,0.248,0.5118
			c0.729,0.7544,2.9959,1.3621,5.6817,1.3621c2.6867,0,4.9536-0.6077,5.6826-1.3621c0.1592-0.1653,0.248-0.3373,0.248-0.5118
			C58.155,20.4127,55.4995,19.626,52.2244,19.626z"/>
	</g>
</g>
</svg>
