<?xml version="1.0" encoding="utf-8"?>
<!-- Generator: Adobe Illustrator 18.1.1, SVG Export Plug-In . SVG Version: 6.00 Build 0)  -->
<svg version="1.2" baseProfile="tiny" xmlns="http://www.w3.org/2000/svg" xmlns:xlink="http://www.w3.org/1999/xlink" x="0px"
	 y="0px" width="128px" height="128px" viewBox="0 0 128 128" xml:space="preserve">
<g id="box">
	<rect fill="none" width="128" height="128"/>
</g>
<g id="Production">
	<g>
		<path fill="#ffffff" d="M22.2808,89.3464c-6.0298,7.6248-8.19,15.3948-8.9097,18.9534h14.7983
			c0.8191-2.5561,1.9776-5.0386,3.4854-7.4133C28.0044,97.5033,24.7832,93.6063,22.2808,89.3464z"/>
		<path fill="#ffffff" d="M97.6729,61.5156c-2.2229,6.0856-20.8104,7.9917-27.1939,8.687
			c-9.3733,1.0207-18.7993,1.7991-26.5508,4.1358c1.813,4.2098,6.5872,9.2974,12.2676,11.9892
			c7.989-1.2301,16.8652-1.7731,25.3652-3.0703c9.4351-1.4396,20.1109-4.0135,26.333-11.2563
			c4.6963-5.4656,5.6641-12.8926,2.8218-20.773C107.1907,55.8223,102.8511,59.267,97.6729,61.5156z"/>
		<path fill="#ffffff" d="M100.2861,19.7017c0,4.9781-1.8977,18.2979-9.4839,22.6489c-3.916,2.245-12.3427,3.2861-16.8432,3.8135
			c1.0356,4.4951,3.2656,9.6767,5.3276,13.7844c13.1482-1.7823,29.4143-4.6005,34.3247-30.5672c0,0,1.0249-5.2312,1.0176-9.6811
			L100.2861,19.7017z"/>
		<path fill="#ffffff" d="M63.665,93.9026c-5.5263,0.3225-11.3188-2.3689-15.7661-5.7791
			c-8.3091-6.3728-12.5447-15.5874-9.5942-19.0212c2.3926-2.7844,7.6621-4.5176,13.8345-5.7163
			c-1.7959-4.4369-3.3323-9.1483-4.1812-13.7996c-8.4184,1.7823-15.811,4.6743-20.5322,10.1687
			c-3.7505,4.365-5.1729,10.2107-4.0054,16.4593c2.4046,12.8728,15.4312,26.4664,30.106,30.7041h0.0005
			c9.6106,2.7737,21.0527,1.7288,26.1547-7.1289c1.7017-2.9546,2.521-6.5113,2.4698-10.6478
			c-4.6458,0.6991-9.3665,1.1855-14.3863,1.7144C67.5264,92.8505,66.939,93.7145,63.665,93.9026z"/>
		<path fill="#ffffff" d="M74.6528,63.7705c-0.9055-1.8502-1.3833-2.4166-3.1801-6.6609
			c-2.368-5.5931-4.7178-12.7091-3.7769-16.9438c0.2305-1.0379,0.4683-2.1111,3.9614-2.3128
			c2.7515-0.1601,5.6021,0.4143,8.3677,1.5078c2.0159-0.3415,6.0632-1.1201,7.8389-2.1352
			c1.9008-1.0903,3.5927-3.7556,4.7881-7.4175c-7.0347-4.4612-14.7354-6.6836-21.8233-6.2742
			c-10.1758,0.5889-16.9348,6.7012-17.6118,16.9187c-0.5354,8.1053,2.853,17.5987,6.2559,25.0061
			C64.7959,64.8289,69.6826,64.3941,74.6528,63.7705z"/>
	</g>
</g>
</svg>

