<?xml version="1.0" encoding="utf-8"?>
<!-- Generator: Adobe Illustrator 19.1.0, SVG Export Plug-In . SVG Version: 6.00 Build 0)  -->
<svg version="1.2" baseProfile="tiny" xmlns="http://www.w3.org/2000/svg" xmlns:xlink="http://www.w3.org/1999/xlink" x="0px"
	 y="0px" width="64px" height="64px" viewBox="0 0 64 64" xml:space="preserve">
<g id="box">
	<rect fill="none" width="64" height="64"/>
</g>
<g id="Production">
	<g>
		<path fill="#ffffff" d="M52.1328,47.6699L40,24.7515V6h1c0.5522,0,1-0.4478,1-1s-0.4478-1-1-1H23c-0.5522,0-1,0.4478-1,1
			s0.4478,1,1,1h1v18.7515L11.8672,47.6699c-1.3911,2.627-1.3062,5.7158,0.2271,8.2627C13.6279,58.4795,16.3179,60,19.291,60h25.418
			c2.9731,0,5.6631-1.5205,7.1968-4.0674C53.439,53.3857,53.5239,50.2969,52.1328,47.6699z M50.1924,54.9009
			C49.0239,56.8413,46.9741,58,44.709,58H19.291c-2.2651,0-4.3149-1.1587-5.4834-3.0991c-1.168-1.9404-1.2329-4.2935-0.1729-6.2954
			L26,25.2485V6h12v19.2485L45.28,39H32.8735c-0.4453-1.7231-2.0132-3-3.8735-3s-3.4282,1.2769-3.8735,3h-4.1438l-1.0588,2H27v-1
			c0-1.103,0.897-2,2-2s2,0.897,2,2v1h15.3389l4.0264,7.6055C51.4253,50.6074,51.3604,52.9604,50.1924,54.9009z"/>
		<path fill="#ffffff" d="M35.5,46c-2.4814,0-4.5,2.0186-4.5,4.5s2.0186,4.5,4.5,4.5s4.5-2.0186,4.5-4.5S37.9814,46,35.5,46z
			 M35.5,53c-1.3784,0-2.5-1.1216-2.5-2.5s1.1216-2.5,2.5-2.5s2.5,1.1216,2.5,2.5S36.8784,53,35.5,53z"/>
		<circle fill="#ffffff" cx="25" cy="47" r="2"/>
		<circle fill="#ffffff" cx="35" cy="32" r="2"/>
		<circle fill="#ffffff" cx="31" cy="20" r="2"/>
	</g>
</g>
</svg>

