<?xml version="1.0" encoding="utf-8"?>

<svg version="1.2" baseProfile="tiny" xmlns="http://www.w3.org/2000/svg" xmlns:xlink="http://www.w3.org/1999/xlink" x="0px"
	 y="0px" width="128px" height="128px" viewBox="0 0 128 128" xml:space="preserve">
<g id="_x31_28px_boxes">
	<rect fill="none" width="128" height="128"/>
</g>
<g id="Production">
	<path fill="#ffffff" d="M98.5,40c-6.4121,0-49.6413,0-55.5,0c-3.3137,0-6-2.6863-6-6s2.6863-6,6-6c7.2152,0,49.5947,0,54,0v-5.5
		c0-1.9331-1.5669-3.5-3.5-3.5H43c-8.2842,0-15,6.7158-15,15v62c0,8.2842,6.7158,15,15,15h55.5c1.9331,0,3.5-1.5669,3.5-3.5v-64
		C102,41.5669,100.4331,40,98.5,40z M85.4993,75.0454l-16.461,17.293c-0.8398,0.8823-2.2368,0.8823-3.0766,0l-16.461-17.293
		C48.4131,73.9028,49.2141,72,50.7827,72H59V59.5c0-0.825,0.675-1.5,1.5-1.5h14c0.825,0,1.5,0.675,1.5,1.5V72h8.2173
		C85.7859,72,86.5869,73.9028,85.4993,75.0454z"/>
</g>
</svg>
