<?xml version="1.0" encoding="utf-8"?>
<!-- Generator: Adobe Illustrator 18.1.1, SVG Export Plug-In . SVG Version: 6.00 Build 0)  -->
<svg version="1.2" baseProfile="tiny" xmlns="http://www.w3.org/2000/svg" xmlns:xlink="http://www.w3.org/1999/xlink" x="0px"
	 y="0px" width="128px" height="128px" viewBox="0 0 128 128" xml:space="preserve">
<g id="box">
	<rect fill="none" width="128" height="128"/>
</g>
<g id="Production">
	<g>
		<path fill="#ffffff" d="M97.6144,60.4193l12.9243-12.927c1.3035-1.3104,1.2682-3.3933,0-4.6614l-29.445-29.4534
			c-1.2868-1.2696-3.4392-1.2033-4.6692,0l-12.927,12.9273c-0.0081,0-0.0081,0.0078-0.0105,0.0158l-9.7278,9.7225l34.1145,34.1145
			l9.7224-9.7225C97.6039,60.4271,97.612,60.4271,97.6144,60.4193z M95.2733,53.4193l-5.3103,5.3181
			c-1.2764,1.277-3.3813,1.3218-4.7194,0c-1.295-1.303-1.295-3.4085,0-4.7117l5.3183-5.3179l-4.166-4.1713
			c-1.6025,1.4992-3.6338,2.2566-5.6785,2.2566c-2.1665,0-4.333-0.845-5.9614-2.5215c-3.1225-3.1966-3.1279-8.25-0.1008-11.4834
			L70.4943,28.63l8.2607-8.2525l24.7813,24.7759l-8.2603,8.2659H95.2733z"/>
		<path fill="#ffffff" d="M35.2279,54.5716c-0.0183,0.021-0.0266,0.0447-0.0476,0.0662c-0.8307,0.8702-1.0616,2.1627-0.8156,3.072
			c0.0051,0.0081,1.3772,5.5513,1.361,10.7288c0.0215,2.667-0.4289,5.1486-1.1494,6.3432h-0.0051
			c-1.4011,2.4099-3.3899,3.5701-6.6448,5.1724c-3.1755,1.5571-7.3496,3.4219-11.3276,7.4077
			c-8.2654,8.3164-10.8976,19.3738-5.1538,25.0964c6.6206,6.6454,18.4073,1.4765,25.1125-5.1433
			c4.0017-3.9831,5.8848-8.1255,7.4634-11.3037c1.6023-3.2307,2.7647-5.249,5.1643-6.7056
			c1.0964-0.7153,3.5462-1.1945,6.2188-1.1652c4.2981-0.0136,9.1751,1.0312,10.4669,1.3266
			c1.3906,0.318,2.4109,0.2822,3.7452-1.0519L82.3197,75.714c0.0027,0,0.0027,0,0.0027-0.0054l2.2591-2.2591L50.4591,39.3348
			C50.4591,39.3348,48.3125,41.4899,35.2279,54.5716z M30.9059,100.9376c-2.1907,2.1824-5.7341,2.1824-7.9189,0
			c-2.1851-2.1875-2.1851-5.7261-0.0027-7.919c2.1875-2.1848,5.7309-2.1848,7.9216,0
			C33.0878,95.2037,33.0878,98.7501,30.9059,100.9376z M75.3173,73.378l-8.3108,8.3081L42.225,56.9022l8.3084-8.3111L75.3173,73.378
			z"/>
		<path fill="#ffffff" d="M119.6125,91.8695c-0.0027,0.0368-0.0213,0.0634-0.024,0.0952c0.0428-2.5781-0.3112-4.8742-2.312-8.4063
			c-1.0857-1.9013-9.28-16.073-9.2905-16.0813c-1.2925-2.2213-4.4568-2.174-5.7209,0.0161
			c-0.0078,0.021-8.1094,14.1639-9.2376,16.023c-6.4091,10.5964,1.2463,22.4349,12.1299,22.4456
			C114.4518,105.9524,119.9851,97.4335,119.6125,91.8695z M105.1574,99.3643c-4.3489-0.0078-7.874-3.5275-7.8845-7.8815
			c0-2.7831,0.7607-3.3659,7.8687-15.7398c9.3986,16.2858,7.082,11.9962,7.887,16.0391
			C112.8669,95.9903,109.4106,99.3565,105.1574,99.3643z"/>
	</g>
</g>
</svg>
