<?xml version="1.0" encoding="utf-8"?>

<svg version="1.2" baseProfile="tiny" xmlns="http://www.w3.org/2000/svg" xmlns:xlink="http://www.w3.org/1999/xlink" x="0px"
	 y="0px" width="64px" height="64px" viewBox="0 0 64 64" xml:space="preserve">

<g id="Production">
	<g>
		<path fill="#ffffff" d="M55.9174,19.6322c-0.1201-4.1747-1.4484-10.3761-7.7812-13.3163
			c-3.9878-1.8521-7.8013-1.2847-9.6958-0.791c-2.6523-1.3994-9.9575-4.6553-17.395-2.6655
			C14.442,4.6283,7.7869,9.9198,7.2202,19.5637C4.048,20.891,2,23.9538,2,27.3989v8.0723c0,3.4751,2.0806,6.5659,5.2856,7.8682
			l5.9129,2.4457c0.8426,2.0718,1.9146,4.0596,3.2038,5.9049C21.2036,58.562,27.8057,61,32,61c0.7971,0,1.622-0.0873,2.4579-0.2394
			c-1.863-1.0929-3.2968-2.8322-3.9912-4.9147c-3.0943-0.5698-7.0165-2.7985-9.9657-7.0192C16.585,43.2212,16,37.5967,16,34.7432
			v-3.2983c5.7246-1.4639,13.7563-3.7505,21.8394-10.1348l7.8165,7.2347c0.0484-0.1614,0.0968-0.3218,0.1414-0.4802
			c0.5781-2.127,0.8535-4.0088,0.9775-5.2911l0.0006-0.0053l-8.7852-8.1319l-1.6919,1.4629
			c-8.2627,7.1426-16.5303,9.2354-22.5669,10.7627L11,27.5576v7.1855c0,1.6378,0.1595,3.2794,0.4437,4.9056l-2.2615-0.9354
			C7.8564,38.1743,7,36.9019,7,35.4712v-8.0723c0-1.4307,0.8564-2.7031,2.1816-3.2422l3.0933-1.2573l-0.0095-0.0234
			C11.1923,11.8928,18.9517,8.5967,22.3389,7.6895c7.0015-1.8745,14.4253,2.6221,14.4951,2.6646l1.0845,0.6558l1.1685-0.4595
			c0.0332-0.0132,3.4487-1.3228,6.9438,0.3008c6.2355,2.8952,4.7935,11.533,4.7072,12.0168l-0.0128,0.0315l3.0928,1.2573
			C55.1436,24.6958,56,25.9683,56,27.3989v8.0723c0,1.4307-0.8564,2.7031-2.1968,3.248L52,39.4651V35h-5v7.9229
			c0,3.8156-2.6851,5.4772-4.8802,6.1986C41.2623,48.4307,40.1868,48,39,48c-2.7614,0-5,2.2386-5,5s2.2386,5,5,5
			c2.4973,0,4.5493-1.8364,4.9223-4.229c3.4728-1.2275,7.1104-3.8736,7.9028-8.8231l3.8746-1.6027
			C58.9194,42.0371,61,38.9463,61,35.4712v-8.0723C61,24.0059,59.0084,20.991,55.9174,19.6322z"/>
		<circle fill="#ffffff" cx="38.5" cy="36.5" r="3.5"/>
		<circle fill="#ffffff" cx="25.5" cy="36.5" r="3.5"/>
	</g>
</g>
</svg>
