<?xml version="1.0" encoding="utf-8"?>

<svg version="1.2" baseProfile="tiny" xmlns="http://www.w3.org/2000/svg" xmlns:xlink="http://www.w3.org/1999/xlink" x="0px"
	 y="0px" width="128px" height="128px" viewBox="0 0 128 128" xml:space="preserve">
<g id="_x31_28px_boxes">
	<rect fill="none" width="128" height="128"/>
</g>
<g id="Production">
	<g>
		<path fill="#ffffff" d="M40.7139,85.603c-4.5562,0-8.25-3.6936-8.25-8.25c0-8.7786,0-34.7288,0-43.4654l-6.1333-1.3749
			c-2.3569-0.5288-4.6973,0.9542-5.2261,3.312L9.8731,85.9262c-0.5284,2.3558,0.9546,4.6974,3.312,5.226l70.1421,15.7238
			c2.3524,0.5274,4.6963-0.9498,5.226-3.312l4.0264-17.961C85.8205,85.603,46.7847,85.603,40.7139,85.603z"/>
		<path fill="#ffffff" d="M114.8579,21.0181h-74.144c-1.8638,0-3.375,1.511-3.375,3.375c0,5.6324,0,47.5864,0,52.9599
			c0,1.864,1.5112,3.375,3.375,3.375c37.1859,0,24.0482,0,74.144,0c1.8638,0,3.375-1.511,3.375-3.375V24.3931
			C118.2329,22.5291,116.7217,21.0181,114.8579,21.0181z M111.4829,73.978c-11.495,0-59.8378,0-67.394,0
			c0-10.2756,0-36.0196,0-46.2099h67.394V73.978z"/>
		<path fill="#ffffff" d="M71.9697,60.7473v8.3557v0.1724h9.4244V69.103v-8.5887c4.3819,2.0195,9.7495,1.0095,12.873-2.4403
			c3.7739-4.1664,2.851-10.2611-1.9165-13.4185c-0.1445-6.2851-5.2983-11.3546-11.6172-11.3546
			c-2.6904,0-5.1679,0.9212-7.1401,2.4613c-1.146-0.6449-2.4663-1.0146-3.8726-1.0146c-5.0616,0-8.8284,4.71-7.7348,9.637
			c-0.2369,0.141-0.4644,0.2933-0.6871,0.4506c-2.4501,1.7299-3.9951,4.4045-3.9951,7.3506
			C57.3037,58.9266,65.0773,63.4865,71.9697,60.7473z"/>
	</g>
</g>
</svg>
