<?xml version="1.0" encoding="utf-8"?>
<!-- Generator: Adobe Illustrator 17.1.0, SVG Export Plug-In . SVG Version: 6.00 Build 0)  -->
<!DOCTYPE svg [
	<!ENTITY ns_flows "http://ns.adobe.com/Flows/1.0/">
	<!ENTITY ns_extend "http://ns.adobe.com/Extensibility/1.0/">
	<!ENTITY ns_ai "http://ns.adobe.com/AdobeIllustrator/10.0/">
	<!ENTITY ns_graphs "http://ns.adobe.com/Graphs/1.0/">
]>
<svg version="1.2" baseProfile="tiny" xmlns:x="&ns_extend;" xmlns:i="&ns_ai;" xmlns:graph="&ns_graphs;"
	 xmlns="http://www.w3.org/2000/svg" xmlns:xlink="http://www.w3.org/1999/xlink" xmlns:a="http://ns.adobe.com/AdobeSVGViewerExtensions/3.0/"
	 x="0px" y="0px" width="128px" height="128px" viewBox="0 0 128 128" xml:space="preserve">
<g id="_x31_28px_boxes">
	<rect fill="none" width="128" height="128"/>
</g>
<g id="Production">
	<g>
		<path fill="#ffffff" d="M93.1457,14.5724c-4.1769-3.8305-8.3264-8.6452-15.0469-8.6158
			c-7.6067,0.0236-14.0806,6.1719-19.0517,11.9283c-1.9298,2.2327-3.3122,1.8649-7.3017,0.5688
			c-1.8952-0.594-4.2041-1.3073-6.9292-1.3115c-6.2684-0.0102-10.8133,3.1709-12.4088,9.9673
			c-0.5817,2.5031-0.7133,5.1816-0.6103,7.7597c1.8309-0.4908,3.9342-0.8267,5.8144-1.068
			c-0.045-3.5428,0.4449-8.7476,3.707-10.1102c5.505-2.2437,9.4609,1.5973,14.8033,1.6448
			c6.4998,0.0243,7.511-5.4416,14.5135-10.5613c9.9583-7.3239,13.9636,0.5205,20.4523,5.7388
			c2.8185,2.2437,5.7257,3.4819,9.5,3.7309c-3.3241,4.1903-6.9977,4.9685-11.1021,3.2877
			c-5.1272-2.1051-10.6715-2.5782-14.7808,1.1054c-1.6923,1.5154-2.7787,3.3252-3.5097,5.0884
			c1.9993,0.2437,4.0503,0.5665,5.976,1.0608c2.2127-3.842,5.9824-3.5403,10.0943-1.8503
			c7.8365,3.2285,14.7282,0.1265,19.3258-7.0774c1.6377-2.5887,1.9801-3.8343,3.7342-8.4263
			C101.4302,18.7585,98.6173,19.6132,93.1457,14.5724z"/>
		<path fill="#ffffff" d="M77.7716,59.6593c0.3872-10.4082,1.0861-13.4422,2.19-19.0518c1.1281-5.7219-52.0781-5.5598-50.71,0
			c1.3443,5.4544,1.8082,8.6436,2.1992,19.0518c0.7598,20.2678-10.6684,45.2739-13.487,50.8286
			c-2.7065,5.3316,13.9301,11.3311,35.6318,11.5556c3.415-11.6682,5.0245-25.2957,0.0231-36.448
			c-1.6924-3.7735-3.8492-6.6037-5.0553-7.7358c-0.2887-0.2713-0.7406,0.0764-0.5476,0.4261
			c2.7103,4.9037,5.9287,15.8196,3.0637,26.066c-7.1151-1.536-10.7997-6.8603-12.4254-13.8622
			c-1.4259-6.1408-0.711-12.7135,2.013-18.5073c5.2612-11.1947,13.3692-14.4104,13.7116-14.5419
			c1.0278-0.3932,2.0111,0.6668,1.5474,1.6604c-0.0191,0.0414-2.0242,4.5052-0.1503,9.2527
			c3.2897,8.3306,13.8026,7.1062,15.3065,18.8632c0.9118,7.0878-2.8979,13.1911-9.2683,16.0072
			c-0.0331,5.8465-0.9746,11.8877-2.8853,18.7646c20.3215-0.6216,35.5566-5.8269,32.3468-11.5006
			C87.7707,104.2909,77.0182,79.9271,77.7716,59.6593z"/>
	</g>
</g>
</svg>
