<?xml version="1.0" encoding="utf-8"?>
<!-- Generator: Adobe Illustrator 18.1.1, SVG Export Plug-In . SVG Version: 6.00 Build 0)  -->
<svg version="1.2" baseProfile="tiny" xmlns="http://www.w3.org/2000/svg" xmlns:xlink="http://www.w3.org/1999/xlink" x="0px"
	 y="0px" width="128px" height="128px" viewBox="0 0 128 128" xml:space="preserve">
<g id="_x31_28px_boxes">
	<rect fill="none" width="128" height="128"/>
</g>
<g id="Production">
	<g>
		<path fill="#ffffff" d="M79.9951,56.7731c0-1.2614-1.0227-2.284-2.2841-2.284H67.0586c-1.2615,0-2.2842,1.0226-2.2842,2.284
			c0,16.0276-1.4416,27.8676-5.3845,43.0496c-3.9431-15.1822-5.3843-27.0222-5.3843-43.0496c0-1.2614-1.0227-2.284-2.2841-2.284
			H41.0691c-1.2615,0-2.2842,1.0226-2.2842,2.284c0,16.027-1.4416,27.8671-5.3847,43.0496
			c-3.9432-15.1822-5.3843-27.0222-5.3843-43.0496c0-1.2614-1.0227-2.284-2.2842-2.284H15.0794
			c-1.2615,0-2.2842,1.0226-2.2842,2.284c0,17.8398-1.7842,30.4891-6.8186,48.3382c-0.4112,1.4572,0.6865,2.904,2.1982,2.904
			h76.4405c0.0019,0.0002,0.0034,0,0.0034,0c1.5837,0,2.6828-1.5697,2.1528-3.0538C81.7695,87.1914,79.9951,74.5626,79.9951,56.7731
			z"/>
		<path fill="#ffffff" d="M122.0103,24.14c-1.6682-7.8233-10.0811,0.4525-25.9522-3.0546
			c-6.7588-1.4935-14.2817-1.786-19.7949,1.9302c-8.3086-2.9469-18.5625-5.0065-25.9897,0
			c-11.2376-3.9826-24.3323-5.3764-30.5416,4.8052c-3.77,6.1822-3.4423,14.8731-3.3896,22.0749h7.97
			c0.5969-11.3475,7.593-15.8865,19.071-16.2101c-1.2637,5.1962-1.0889,11.0803-1.0513,16.2101h7.97
			c0.5969-11.3475,7.593-15.8866,19.0711-16.2101c-1.2637,5.1962-1.0889,11.0803-1.0513,16.2101h7.97
			c1.0827-20.5888,22.9257-15.5442,32.8254-15.5442C118.8323,34.3515,122.8115,27.8985,122.0103,24.14z"/>
	</g>
</g>
</svg>
