<?xml version="1.0" encoding="utf-8"?>

<svg version="1.2" baseProfile="tiny" xmlns="http://www.w3.org/2000/svg" xmlns:xlink="http://www.w3.org/1999/xlink" x="0px"
	 y="0px" width="64px" height="64px" viewBox="0 0 64 64" xml:space="preserve">

<g id="Production">
	<g>
		<rect x="20" y="40" fill="#ffffff" width="24" height="5"/>
		<rect x="20" y="31" fill="#ffffff" width="24" height="5"/>
		<path fill="#ffffff" d="M57,10.5C57,6.3574,53.6426,3,49.5,3h-35C10.3574,3,7,6.3574,7,10.5v42c0,4.1426,3.3574,7.5,7.5,7.5h35
			c4.1426,0,7.5-3.3574,7.5-7.5V26h-5v26.5c0,1.3809-1.1191,2.5-2.5,2.5h-35c-1.3809,0-2.5-1.1191-2.5-2.5V22h45V10.5z M52,17H12
			v-6.5C12,9.1191,13.1191,8,14.5,8h35c1.3809,0,2.5,1.1191,2.5,2.5V17z"/>
		<circle fill="#ffffff" cx="18.5" cy="12.5" r="2.5"/>
		<circle fill="#ffffff" cx="27.5" cy="12.5" r="2.5"/>
		<circle fill="#ffffff" cx="36.5" cy="12.5" r="2.5"/>
		<circle fill="#ffffff" cx="45.5" cy="12.5" r="2.5"/>
	</g>
</g>
</svg>
