<?xml version="1.0" encoding="utf-8"?>
<!-- Generator: Adobe Illustrator 18.1.1, SVG Export Plug-In . SVG Version: 6.00 Build 0)  -->
<svg version="1.2" baseProfile="tiny" xmlns="http://www.w3.org/2000/svg" xmlns:xlink="http://www.w3.org/1999/xlink" x="0px"
	 y="0px" width="128px" height="128px" viewBox="0 0 128 128" xml:space="preserve">
<g id="box">
	<rect fill="none" width="128" height="128"/>
</g>
<g id="Production">
	<g>
		<path fill="#ffffff" d="M46.9111,82.7505H24.9595V21.5574h41.456v38.8612c2.2491-1.1337,4.9243-1.2279,7.5352-0.8501V19.5504
			c0-6.1011-4.9419-11.0433-11.0386-11.0433H28.4619c-6.1006,0-11.043,4.9422-11.043,11.0433v73.7863
			c0,6.0957,4.9424,11.0388,11.043,11.0388h8.8819c-0.0364-0.501-0.0467-1.0115-0.0386-1.3577v0.0344
			c0.0605-3.581,1.6972-6.8068,4.3286-9.1088c2.5298-2.2227,5.9653-3.44,9.521-3.5171L46.9111,82.7505z"/>
		<path fill="#ffffff" d="M46.8208,43.7911c1.0674,1.3178,2.3823,2.4687,3.8457,3.3268c2.9722,1.7407,6.2983,2.1826,9.6211,1.276
			c1.2417-0.339,1.9727-1.6197,1.6338-2.8607c-0.3384-1.2418-1.5889-1.8297-2.8604-1.6343
			c-2.8154,0.4333-4.1464,0.3076-6.039-0.8012c-2.0445-1.1984-3.1358-2.7933-4.21-5.3606
			c-0.8616-2.0573-3.4084-2.8434-4.5884,0.4685c-1.9028,5.3303-6.4423,8.6062-12.0346,7.5947
			c-2.4683-0.4462-4.2202,1.2521-2.3614,3.9584c1.2764,1.8578,2.5293,3.7262,2.4497,6.4391
			c-0.1313,4.4862-3.6948,5.5239-2.0854,7.7492c0.7563,1.044,2.2141,1.2742,3.2534,0.5213
			c2.0796-1.5052,3.3848-4.5459,3.4898-8.1339c0.0586-2.0037-0.2735-3.928-0.94-5.6329
			C40.2002,50.0617,44.4331,47.1703,46.8208,43.7911z"/>
		<path fill="#ffffff" d="M107.6064,85.8193c-2.9887-5.4116-5.3735-9.7666-7.0107-12.768
			c-2.3638-4.3361-3.9399-8.7348-9.2407-8.7461c-1.9568-0.0029-3.8758,0.8228-5.2051,2.2954
			c-3.271-4.2742-9.4624-3.8836-12.2944,0.3213c-3.2378-2.1078-7.5703-1.5169-10.1001,1.5237l-5.9419-10.7432
			c-2.1468-3.8303-7.0142-5.3792-10.9951-3.1494c-3.9854,2.2062-5.272,7.1689-3.1475,10.9851
			c18.2822,33.0716,16.1353,29.1914,17.1079,30.939c-2.9175-0.376-6.4455-0.5635-9.1684-0.5635
			c-8.6431-0.0227-10.8506,8.2862-7.0054,12.4421c1.3071,1.4216,3.1802,2.1736,5.2759,2.4046
			c19.3237,2.1808,20.6093,8.7321,31.9965,8.7326h0.0171c4.0869,0.0017,8.7495-1.0793,14.4663-3.7536
			C109.9668,109.3746,114.0068,97.4113,107.6064,85.8193z M94.2471,111.2173c-19.0786,8.9065-19.0047-2.6038-43.8042-5.4177
			c-1.3291-0.1573-1.8916-0.5281-2.1641-0.8235c-1.2165-1.3576-0.4416-4.1921,3.4468-4.0684
			c3.5332,0.0515,8.1162,0.1953,13.228,1.3797c2.1008,0.488,3.7962-1.7566,2.7446-3.6453c-4.197-7.5393-0.76-1.3341-19.6616-35.5259
			c-1.1767-2.1029,0.4326-4.5912,2.6948-4.6003c1.0874-0.0141,2.2051,0.6634,2.7164,1.6069
			C53.5869,60.3745,68,86.4375,68.1411,86.688l0.1445,0.2644c1.5503,2.8552,5.9991,0.5781,4.3853-2.385l-5.373-9.8748
			c-1.741-3.1753,3.0219-5.735,4.728-2.6294c6.4592,11.8549,5.9343,10.8919,6.48,11.8919c1.3896,2.5539,5.3071,1.034,4.6132-1.7891
			c-0.2028-0.8163-3.0312-5.7645-5.1352-9.6379l-0.0147-0.0254c-1.7365-3.1211,2.7071-5.6516,4.4707-2.4815
			c6.4522,11.7835,5.5125,10.0622,6.2085,11.3499c0.6563,1.2124,2.17,1.6641,3.3829,1.0088
			c1.1352-0.6137,1.7602-2.0044,0.8598-3.6685h-0.001c-3.3525-6.1241-3.5556-6.3363-3.5556-7.3363
			c0.0786-2.4921,3.1411-2.8048,4.352-0.5832c-0.0049-0.0102,3.5635,6.6024,9.5498,17.4395
			C108.6396,98.0404,104.3513,106.4913,94.2471,111.2173z"/>
	</g>
</g>
</svg>
