<?xml version="1.0" encoding="utf-8"?>
<!-- Generator: Adobe Illustrator 18.1.1, SVG Export Plug-In . SVG Version: 6.00 Build 0)  -->
<svg version="1.2" baseProfile="tiny" xmlns="http://www.w3.org/2000/svg" xmlns:xlink="http://www.w3.org/1999/xlink" x="0px"
	 y="0px" width="128px" height="128px" viewBox="0 0 128 128" xml:space="preserve">
<g id="_x31_28px_boxes" display="none">
	<rect display="inline" fill="none" width="128" height="128"/>
</g>
<g id="Production">
	<g>
		<path fill="#ffffff" d="M91.5904,24.5068H36.4096c-7.4541,0-13.4971,6.043-13.4971,13.4971v86.2166H37.517V60.3286
			c0-4.9077,3.9927-8.9004,8.9004-8.9004h35.1653c4.9079,0,8.9003,3.9927,8.9003,8.9004v63.8919h14.6045V38.0039
			C105.0875,30.5498,99.0445,24.5068,91.5904,24.5068z M77.4149,42.1613c-2.3274,0-4.2212-1.8937-4.2212-4.2213
			c0-2.3274,1.8938-4.2209,4.2212-4.2209c2.3277,0,4.2215,1.8935,4.2215,4.2209C81.6364,40.2676,79.7426,42.1613,77.4149,42.1613z
			 M63.9999,42.1613c-2.3274,0-4.221-1.8937-4.221-4.2213c0-2.3274,1.8936-4.2209,4.221-4.2209
			c2.3276,0,4.2214,1.8935,4.2214,4.2209C68.2213,40.2676,66.3275,42.1613,63.9999,42.1613z M50.5849,42.1613
			c-2.3274,0-4.221-1.8937-4.221-4.2213c0-2.3274,1.8936-4.2209,4.221-4.2209c2.3278,0,4.2216,1.8935,4.2216,4.2209
			C54.8065,40.2676,52.9127,42.1613,50.5849,42.1613z"/>
		<circle fill="#ffffff" cx="64.0001" cy="63.5716" r="7.8592"/>
		<path fill="#ffffff" d="M71.2518,74.1831H56.7489c-2.8542,0-5.0212,2.5947-4.8467,5.7197l1.0008,17.8103
			c0.1072,1.9087,1.3015,3.524,2.9253,4.2478v22.2596h7.1137v-21.8499h2.116v21.8499h7.1138v-22.2593
			c1.6238-0.7239,2.8181-2.3391,2.925-4.2481l1.0008-17.8103C76.2731,76.7778,74.1056,74.1831,71.2518,74.1831z"/>
		<path fill="#ffffff" d="M62.2643,14.5801c0.302,1.9788,3.1707,1.9798,3.4712,0l1.1396-7.4988
			c0.6488-4.4304-6.4151-4.3742-5.7504,0L62.2643,14.5801z"/>
		<path fill="#ffffff" d="M47.2121,15.4788l6.7959,3.3679c1.7946,0.8868,3.4401-1.4616,1.9912-2.8435l-5.4888-5.2346
			c-0.2046-0.1934-0.4502-0.3697-0.7158-0.5013C46.3515,8.561,43.7655,13.7706,47.2121,15.4788z"/>
		<path fill="#ffffff" d="M73.9918,18.8467c6.9426-3.4405,7.0035-3.3842,7.5118-3.8692c2.781-2.6514-1.2297-6.8639-4.014-4.2089
			l-5.489,5.2346C70.5538,17.386,72.198,19.7361,73.9918,18.8467z"/>
	</g>
</g>
</svg>
