<?xml version="1.0" encoding="utf-8"?>
<!-- Generator: Adobe Illustrator 18.1.1, SVG Export Plug-In . SVG Version: 6.00 Build 0)  -->
<svg version="1.2" baseProfile="tiny" xmlns="http://www.w3.org/2000/svg" xmlns:xlink="http://www.w3.org/1999/xlink" x="0px"
	 y="0px" width="128px" height="128px" viewBox="0 0 128 128" xml:space="preserve">
<g id="box">
	<rect fill="none" width="128" height="128"/>
</g>
<g id="Production">
	<g>
		<path fill="#ffffff" d="M14.9563,74.0568l-0.0105-0.0081c0.3362-0.0348,7.4627-0.9155,13.9166-8.2955
			c3.8486-4.4226,6.3951-7.879,8.573-9.9877c2.2421-2.1194,3.6675-2.8827,6.3632-2.9413c2.233,0.0333,4.0803,0.5,6.0588,1.8202
			c0.7712-1.3425,1.644-2.6372,2.6556-3.8568c-5.2821-3.5434-12.65-4.1195-18.3631,1.6176
			c-2.6104,2.5781-5.098,5.9867-8.8347,10.2626c-5.2343,6.0047-10.8872,6.7075-10.8872,6.7075
			C11.3381,69.733,11.8442,74.3891,14.9563,74.0568z"/>
		<path fill="#ffffff" d="M17.1398,61.1623h-0.0107c0.3229-0.0801,7.1184-2.1031,15.3793-10.6097
			c4.7562-4.8548,8.0338-5.9786,11.1726-6.0106c2.9423,0,7.5006,1.2413,11.1409,3.8061c1.201-1.1421,2.4635-2.1727,3.806-3.0586
			c-4.6208-3.6851-10.7736-5.4451-14.9469-5.4451c-4.5587-0.0319-9.363,2.0445-14.5436,7.4387
			c-7.3535,7.5806-13.2894,9.3633-13.2894,9.3633C12.8697,57.486,14.1238,62.0063,17.1398,61.1623z"/>
		<path fill="#ffffff" d="M113.1894,95.9138L98.5068,81.2311c-2.6616,5.2102-6.9592,9.3711-11.8774,11.8909l14.6771,14.6825
			c3.2401,3.2456,8.5497,3.3039,11.8776,0.008C116.4758,104.5049,116.4656,99.1795,113.1894,95.9138z"/>
		<path fill="#ffffff" d="M32.7058,32.1626l-0.0053-0.0078c0.0053,0,1.1397-0.5764,3.3417-1.2066
			c2.2019-0.6351,5.3622-1.2729,9.1096-1.2729c9.8105,0,18.4882,3.5207,24.5661,11.3943c1.2679-0.1894,2.5411-0.323,3.8169-0.3363
			c0.2296-0.0239,0.3817-0.0161,0.4858-0.0055c0.0026,0,0.0026,0,0.0026,0c0.4323,0.0055,0.8622,0.0457,1.2972,0.0668
			C68.1233,29.976,57.5783,24.9724,45.1518,24.9724c-8.5704,0.0104-14.341,2.8853-14.5465,2.9838
			C27.8554,29.3216,29.8838,33.5583,32.7058,32.1626z"/>
		<path fill="#ffffff" d="M24.0207,47.9744v-0.0133c0-0.0053,2.1353-2.7251,5.912-5.5195
			c3.7874-2.8055,9.0508-5.5118,15.1043-5.5013c6.1981,0.0284,12.056,2.9179,16.3722,6.761
			c1.5534-0.7821,3.1601-1.4121,4.8097-1.8817c-5.5521-5.7375-13.3288-9.598-21.1819-9.5687
			c-14.9737,0.1308-24.5262,12.673-24.7157,12.8116C18.386,47.5184,22.1157,50.4032,24.0207,47.9744z"/>
		<path fill="#ffffff" d="M43.9267,22.5647v-0.0052c3.7121-0.5691,16.8335-0.6153,26.5815,8.4022
			c2.2767,2.1028,5.4635-1.3359,3.1842-3.4485c-8.2178-7.5622-19.0857-10.5563-30.4571-9.6034
			C40.1767,18.3611,40.8337,23.0066,43.9267,22.5647z"/>
		<path fill="#ffffff" d="M49.0193,80.7829c-0.9101-1.8496-1.5988-3.7741-2.0767-5.7441
			c-2.8318,7.2107-17.8132,17.4739-25.5964,19.1696c-3.045,0.7366-1.8761,5.3095,1.1076,4.572
			C31.462,96.4104,43.4648,88.3791,49.0193,80.7829z"/>
		<path fill="#ffffff" d="M34.2219,72.57c2.6183-3.315,4.2545-6.3683,5.7545-8.2901c1.9457-2.4015,2.7526-2.575,4.6388-2.6799
			c0.9475,0.0322,1.6682,0.2911,2.2208,0.7662c0.3523-1.5587,0.8274-3.096,1.4493-4.5936
			c-3.4057-1.7024-8.4839-1.1927-12.0242,3.6328c-1.8657,2.4394-3.3792,5.3114-5.7145,8.242
			c-5.3253,6.7538-15.9585,9.7047-15.9585,9.7047c-2.9836,0.7934-1.7953,5.3424,1.2224,4.527
			C15.9946,83.7749,27.5572,80.8441,34.2219,72.57z"/>
		<path fill="#ffffff" d="M46.2167,70.3896c-0.1374-2.1858-0.0914-1.944-0.0213-3.3287c-1.1887-1.2458-3.0387-0.8228-3.7368,0.4994
			C35.8457,79.9637,16.9101,88.315,16.9101,88.315c-2.8303,1.2251-1.0083,5.5387,1.8792,4.308l-0.0108-0.0081
			C18.9332,92.468,38.1534,84.3488,46.2167,70.3896z"/>
		<path fill="#ffffff" d="M90.1899,52.2076c0,0-0.008-0.0105-0.0133-0.0186l0.0027-0.0026c-9.1327-9.1328-23.7981-8.8044-32.5978,0
			c-3.8384,3.8037-6.7552,10.4657-6.7552,16.3055c0,5.2874,2.271,11.5031,6.3709,15.8247
			c7.4172,7.6987,18.7386,9.0559,27.2381,4.6656C98.1643,81.9426,101.2939,63.3115,90.1899,52.2076z M84.8545,79.4589
			c-6.2512,6.2518-16.5384,6.0554-22.5299-0.7127c-5.5723-6.3133-5.0631-15.5748,0.5872-21.2272
			c5.7715-5.788,15.6292-6.2912,21.9345-0.0079v0.0079C90.9651,63.6434,90.8386,73.5011,84.8545,79.4589z"/>
		<path fill="#ffffff" d="M43.7344,101.2682c-2.6242,1.6912-0.0542,5.6339,2.549,3.9529
			c6.1951-3.9636,10.7271-8.2317,14.0368-12.5554c-1.3532-0.7556-2.6691-1.615-3.9049-2.6159
			C53.4607,93.8159,49.3876,97.6033,43.7344,101.2682z"/>
		<path fill="#ffffff" d="M54.4055,88.2431c-0.5769-0.5155-1.7759-1.8231-3.0668-3.6221
			c-7.4477,9.4171-22.5323,15.4299-22.5323,15.4299c-2.8626,1.1309-1.1831,5.4963,1.7402,4.3667
			C30.6666,104.2336,45.8777,98.5056,54.4055,88.2431z"/>
	</g>
</g>
</svg>
