<?xml version="1.0" encoding="utf-8"?>
<!-- Generator: Adobe Illustrator 18.1.1, SVG Export Plug-In . SVG Version: 6.00 Build 0)  -->
<svg version="1.2" baseProfile="tiny" xmlns="http://www.w3.org/2000/svg" xmlns:xlink="http://www.w3.org/1999/xlink" x="0px"
	 y="0px" width="128px" height="128px" viewBox="0 0 128 128" xml:space="preserve">
<g id="_x31_28px_boxes">
	<rect fill="none" width="128" height="128"/>
</g>
<g id="Production">
	<g>
		<path fill="#ffffff" d="M36.4946,22.1024l2.8047-6.3174c0.3936-0.8869-0.0058-1.9241-0.8928-2.3178l-6.4529-2.8636
			c-0.4316-0.1917-0.9226-0.2009-1.3611-0.0269l-8.987,3.5728c-1.4417,0.5733-1.4829,2.607-0.064,3.237l12.6355,5.6086
			C35.0669,23.3895,36.1028,22.9849,36.4946,22.1024z"/>
		<path fill="#ffffff" d="M106.9819,76.9525L90.0584,50.3287c-1.3501-2.1237-4.627-1.4702-5.0496,1.0183
			c-1.3364,7.8674-3.6956,9.894-6.6824,12.4598c-3.2156,2.7624-7.217,6.1994-10.218,16.4423
			c-1.2385,4.0564-2.5425,8.1141-3.5908,11.3755c-0.5801,1.8055-1.0811,3.3645-1.46,4.5768
			c-0.603,1.9309-2.7358,3.1929-4.9013,2.5169c-2.1604-0.6755-3.2283-3.1443-2.7054-4.818
			c0.1116-0.3576,0.3985-1.3065,0.8238-2.7227c1.9358-0.3252,3.7434-1.2693,5.1101-2.7027
			c3.4214-3.5874,3.3371-9.2574-0.1465-12.7478c1.8035-0.3739,3.4775-1.2881,4.7622-2.6349
			c3.4136-3.5807,3.3599-9.2514-0.1016-12.7445c1.7864-0.3811,3.4431-1.2926,4.7168-2.6283
			c3.4734-3.6422,3.3365-9.433-0.3059-12.9085c-0.0451-0.0431-0.0923-0.0835-0.1384-0.1258
			c2.1504-7.1728,4.0278-13.4087,5.1682-17.134c1.8108-5.9163,1.1768-11.3798-1.7854-15.3845
			c-4.0469-5.4702-11.4785-6.8365-17.5981-3.188c-4.9756,2.9669-7.3738,7.7369-11.0931,7.7369c-0.6418,0-1.3603-0.131-2.1428-0.3841
			c-1.6487,3.7133-1.542,3.4729-3.2051,7.219c2.0821,0.8147,4.0164,1.2141,5.8848,1.2141c4.6743-0.0005,7.5886-2.5009,9.7163-4.3272
			c0.8245-0.7072,1.7427-1.6394,2.7969-1.6394c1.5933,0,1.9485,1.7585,1.2046,3.849c-2.7119,7.6203-22.2014,60.4243-22.4029,60.9702
			c-3.0556,8.4115-2.8796,16.7575,0.4952,23.5c4.6372,9.265,14.3493,13.943,24.5019,13.9413
			c7.6709-0.0001,14.3098-3.259,18.9754-9.0537c4.945-6.1416,5.6774-11.9536,7.3601-17.7385
			c2.2011-7.5689,4.9262-13.2608,13.3537-13.2608c1.3645,0,3.2954,0.3141,3.3914,0.3128
			C107.0195,81.2747,108.2664,78.7436,106.9819,76.9525z M54.6348,48.8414c0.3198-1.1336,1.4978-1.7921,2.6313-1.4729l3.145,0.8877
			c0.0074-0.0072,0.0132-0.0155,0.0201-0.0232c1.7597-1.8444,4.6814-1.9135,6.5258-0.1552c1.8445,1.76,1.9148,4.6801,0.1551,6.5254
			c-1.7596,1.8452-4.6807,1.9146-6.5252,0.1557c-0.7038-0.6714-1.147-1.512-1.331-2.3971l-3.1485-0.8888
			C54.9741,51.153,54.3147,49.9747,54.6348,48.8414z M50.019,64.2194c0.3204-1.1336,1.4991-1.7928,2.6319-1.4728l3.1445,0.888
			c0.0073-0.0076,0.013-0.0159,0.02-0.0233c1.7598-1.8446,4.6817-1.9143,6.5259-0.1554c1.8447,1.76,1.9146,4.6801,0.1558,6.5249
			c-1.7603,1.8457-4.6814,1.9148-6.5259,0.1557c-0.7036-0.6713-1.147-1.5117-1.3311-2.3969l-3.1484-0.8888
			C50.3584,66.5308,49.6992,65.3527,50.019,64.2194z M51.3557,85.515c-0.7036-0.6714-1.1472-1.5123-1.3313-2.3971l-3.1482-0.8891
			c-1.1335-0.3197-1.7927-1.4983-1.4729-2.6313c0.3201-1.1338,1.4981-1.7921,2.6316-1.4732l3.1453,0.8877
			c0.0071-0.0072,0.0129-0.0155,0.02-0.0229c1.7598-1.8447,4.6814-1.9141,6.5254-0.1552c1.8447,1.7594,1.915,4.6801,0.1558,6.5249
			C56.1213,87.2045,53.2004,87.2728,51.3557,85.515z M79.2617,96.6841c-2.3562,1.7629-5.6948,1.2803-7.4585-1.0744
			c-1.7624-2.3574-1.2812-5.6962,1.0747-7.4594c2.3567-1.763,5.6961-1.2813,7.459,1.0744
			C82.0991,91.5809,81.6187,94.9207,79.2617,96.6841z M84.1958,82.8187c-2.3562,1.7627-5.6948,1.2802-7.4585-1.075
			c-1.7624-2.3564-1.2815-5.696,1.0745-7.459c2.3571-1.7628,5.6963-1.2813,7.459,1.0746
			C87.0334,77.7152,86.5527,81.0554,84.1958,82.8187z"/>
	</g>
</g>
</svg>

