<?xml version="1.0" encoding="utf-8"?>
<!-- Generator: Adobe Illustrator 18.1.1, SVG Export Plug-In . SVG Version: 6.00 Build 0)  -->
<svg version="1.2" baseProfile="tiny" xmlns="http://www.w3.org/2000/svg" xmlns:xlink="http://www.w3.org/1999/xlink" x="0px"
	 y="0px" width="128px" height="128px" viewBox="0 0 128 128" xml:space="preserve">
<g id="_x31_28px_boxes" display="none">
	<rect display="inline" fill="none" width="128" height="128"/>
</g>
<g id="Production">
	<g>
		<path fill="#ffffff" d="M33.8117,78.9959c-2.0952-4.5751-3.2649-9.6589-3.2649-15.0112c0-19.9468,16.2282-36.175,36.1753-36.175
			c12.6276,0,23.7626,6.5052,30.2356,16.3388c0,0,3.9219-3.0163,6.697-4.4473C95.739,27.7025,82.1408,19.7677,66.7221,19.7677
			c-24.3815,0-44.2173,19.8358-44.2173,44.217c0,6.2846,1.3208,12.2656,3.6949,17.6843
			C27.9212,81.2571,31.3378,80.1737,33.8117,78.9959z"/>
		<path fill="#ffffff" d="M50.0739,96.0941c-3.2414,1.187-6.4943,2.2151-9.802,3.0326c-0.0908,0.0224-0.1792,0.0421-0.2695,0.064
			c29.1882,22.2068,71.574,0.9541,70.9265-35.9945l-8.4818,6.4843C98.602,93.8872,71.9886,107.5022,50.0739,96.0941z"/>
		<path fill="#ffffff" d="M54.811,89.366l-12.2905-9.8401c-30.3599,17.8085-32.05-2.3032-25.2742-9.8417
			c1.3951-1.5492-0.6616-3.8046-2.334-2.5512l-0.0415,0.0313C1.6995,77.0814,4.3951,110.6705,54.811,89.366z"/>
		<path fill="#ffffff" d="M119.0173,42.146c-5.0467-6.5979-22.9974,8.3839-27.6323,11.9275L59.4794,53.531l-7.8938,6.0354
			l22.2212,7.9468l-10.3789,7.9354l-12.2295-2.6997l-5.1728,3.9556l11.2585,8.9038c0,0,0.0352,0.0007,0.1038,0.0007
			c1.4192,0,17.1804-0.2776,32.9348-12.3235C100.9108,65.1907,124.6013,49.4512,119.0173,42.146z"/>
	</g>
</g>
</svg>
