<?xml version="1.0" encoding="utf-8"?>
<!-- Generator: Adobe Illustrator 18.1.1, SVG Export Plug-In . SVG Version: 6.00 Build 0)  -->
<svg version="1.2" baseProfile="tiny" xmlns="http://www.w3.org/2000/svg" xmlns:xlink="http://www.w3.org/1999/xlink" x="0px"
	 y="0px" width="128px" height="128px" viewBox="0 0 128 128" xml:space="preserve">
<g id="_x31_28px_boxes">
	<rect fill="none" width="128" height="128"/>
</g>
<g id="Production">
	<g>
		<path fill="#ffffff" d="M58.1589,59.7825c16.0499,10.1975,23.0478,1.141,33.5921,1.141c7.7839,0,11.5293,3.9817,11.7024,4.1706
			c1.1359,1.2638,3.2695,0.4854,3.2695-1.2534c0-37.6618,0.1194-35.2301-0.2083-35.8655c-0.155-0.3009-3.9211-7.3718-14.7058-7.3718
			c-10.5231,0-16.3516,7.2545-33.6499-0.686V59.7825z"/>
		<path fill="#ffffff" d="M31.4709,107.1261c19.6467,4.7388,45.547,2.7504,56.6177-13.0291l19.396,2.8726l7.5601-9.4951
			l-61.3858-9.0911V17.4178c0-3.8687-10.5-3.8912-10.5,0v62.3367l-30.2036,31.5166l12.4149,2.221L31.4709,107.1261z
			 M39.7004,98.5389l9.7309-10.1806l26.808,3.9839C67.3166,100.2903,51.3122,100.9125,39.7004,98.5389z"/>
	</g>
</g>
</svg>
