<?xml version="1.0" encoding="utf-8"?>
<!-- Generator: Adobe Illustrator 18.1.1, SVG Export Plug-In . SVG Version: 6.00 Build 0)  -->
<svg version="1.2" baseProfile="tiny" xmlns="http://www.w3.org/2000/svg" xmlns:xlink="http://www.w3.org/1999/xlink" x="0px"
	 y="0px" width="128px" height="128px" viewBox="0 0 128 128" xml:space="preserve">
<g id="_x31_28px_boxes">
	<rect fill="none" width="128" height="128"/>
</g>
<g id="Production">
	<g>
		<path fill="#ffffff" d="M109.4883,70.0629c-1.8333-0.5-5.0416-1.3332-7.6508-1.9551c-1.7295,5.1736-4.404,11.4893-7.9544,14.9392
			c-0.8005-2.0886-1.718-3.8645-2.6619-5.114c1.3438-1.8261,2.4107-4.4077,2.4107-5.8523c0-2.3921-1.1494-4.3332-5.2083-4.3332
			c-4.0581,0-5.2077,1.9411-5.2077,4.3332c0,1.4446,1.0664,4.0257,2.4094,5.8518c-0.9282,1.2315-1.8328,2.9725-2.6255,5.0223
			c-3.5837-3.5379-6.2917-9.9678-8.03-15.1673c-6.573,0.974-11.1635,2.4237-15.3825,7.562
			c-0.5272,0.6421-11.996,17.5032-11.996,17.5032l-4.7551-6.7798l-15.3901-2.3977l13.103,27.7363
			c2.5114,5.2602,9.5735,6.0438,13.1868,1.5972l9.8588-13.5972v16.4961h55.6339V85.2912
			C119.2286,76.9792,115.2066,71.6225,109.4883,70.0629z"/>
		<path fill="#ffffff" d="M107.535,32.4223l1.6042-4.8267c0.4736-1.4254-0.346-2.9561-1.7925-3.3537l-43.852-12.0528
			c-2.0427-0.56-3.8666,1.4106-3.1665,3.3977l4.3268,12.284L107.535,32.4223z"/>
		<path fill="#ffffff" d="M64.8101,32.611l-6.4044,5.7905c-1.5027,1.359-0.541,3.8647,1.4849,3.8689
			c1.8202,0.0038,3.6102-0.0648,5.3949-0.2072c0.021,11.4799,9.3322,20.781,20.8176,20.781
			c13.4959,0,23.4613-12.6709,20.2073-25.8286L64.8101,32.611z"/>
		<path fill="#ffffff" d="M19.5858,76.779c0.2858,0.7226,0.9549,1.2629,1.7214,1.3909c0.0047,0.0007,17.3422,2.6791,17.6938,2.6791
			c3.2537,0,5.0378-2.4371,3.7716-5.7741c-0.2411-0.6355-7.7281-19.271-8.2565-20.5503c-1.6538-4.0034-4.2691-4.9043-6.3627-5.242
			c-1.055-0.1699-5.8628-0.8847-10.0698-1.5073c6.2267-3.3352,13.287-7.1047,14.199-7.5491
			c0.6212-0.3017,1.3065-0.1179,1.5751,0.5669c0.209,0.533,10.3721,25.7527,10.3721,25.7527
			c2.4123-1.5036,3.1836-3.8027,2.1663-6.5263c-0.4113-1.1018-8.1469-20.3538-8.3491-20.8692
			c-1.2061-3.0756-4.7059-4.4447-7.7347-2.9697c-0.3118,0.1518-19.8961,10.6016-20.2533,10.7961
			c-1.1593,0.6317-1.538,1.8502-1.127,2.8582C8.932,49.8349,19.5852,76.7773,19.5858,76.779z"/>
	</g>
</g>
</svg>
