<?xml version="1.0" encoding="utf-8"?>
<!-- Generator: Adobe Illustrator 18.1.1, SVG Export Plug-In . SVG Version: 6.00 Build 0)  -->
<svg version="1.2" baseProfile="tiny" xmlns="http://www.w3.org/2000/svg" xmlns:xlink="http://www.w3.org/1999/xlink" x="0px"
	 y="0px" width="128px" height="128px" viewBox="0 0 128 128" xml:space="preserve">
<g id="_x31_28px_boxes">
	<rect fill="none" width="128" height="128"/>
</g>
<g id="Production">
	<g>
		<path fill="#ffffff" d="M31.4087,27.9539l0.0251,0.0291c0.0171,0.0211,0.0354,0.0409,0.0533,0.0615l23.5625,27.3023
			c0,0.0007-0.0003,0.0011-0.0003,0.0011c0.4099,0.4967,0.6563,1.133,0.6563,1.8267c0,0.0277-0.0035,0.0546-0.0042,0.0821v10.7227
			h17.2652c0-10.4838,0.0073-10.8444,0.0083-10.8464c-0.0005-0.7314-0.2769-1.3968-0.7278-1.9035L48.4246,26.3311
			c10.3339-3.0859,21.0913-3.0042,31.1508,0L67.3948,40.8477l9.2055,10.9712l19.9986-23.8333
			c-0.0008-0.0011-0.0015-0.0023-0.002-0.0034c0.7129-0.9171,0.8362-2.3092,0.1255-3.3851l-4.9595-8.8739
			c-0.0029-0.0011-0.0058-0.0027-0.0087-0.0038c-0.3653-0.6815-0.9986-1.196-1.7584-1.408
			C74.9355,8.738,54.4609,8.2127,38.0271,14.3046c-0.7715,0.2074-1.4155,0.7257-1.7849,1.4153l-0.0037,0.0015l-4.9153,8.7946
			c-0.7395,1.0395-0.7053,2.4329,0.087,3.4353C31.4097,27.9522,31.4092,27.953,31.4087,27.9539z"/>
		<path fill="#ffffff" d="M72.9749,57.133v0.0013V57.133z"/>
		<path fill="#ffffff" d="M95.8982,72.4794H32.1018c-2.071,0-3.75,1.6791-3.75,3.75v38.0893c0,2.0711,1.679,3.75,3.75,3.75h63.7964
			c2.071,0,3.75-1.6789,3.75-3.75V76.2294C99.6482,74.1585,97.9692,72.4794,95.8982,72.4794z M58.6458,85.1864l-6.9815,20.7281
			c-0.0854,0.2545-0.3237,0.4258-0.5923,0.4258h-5.4741c-0.272,0-0.5122-0.1758-0.5952-0.4346l-6.6431-20.728
			c-0.1294-0.4027,0.1721-0.816,0.5952-0.816h5.1363c0.2783,0,0.5234,0.1846,0.6006,0.4522
			c2.5024,8.6995,3.2045,11.0392,3.8281,13.6621c0.7314-3.0046,1.1714-4.3548,3.9526-13.6679
			c0.0791-0.2647,0.3223-0.4464,0.5986-0.4464h4.9825C58.48,84.3617,58.782,84.7804,58.6458,85.1864z M68.1145,105.7153
			c0,0.3451-0.2798,0.625-0.625,0.625h-4.6748c-0.3452,0-0.625-0.2799-0.625-0.625V84.9867c0-0.3452,0.2798-0.625,0.625-0.625
			h4.6748c0.3452,0,0.625,0.2798,0.625,0.625V105.7153z M79.429,98.9877v6.7276c0,0.3451-0.2798,0.625-0.625,0.625h-4.6436
			c-0.3452,0-0.625-0.2799-0.625-0.625V85.2636c0-0.3047,0.2197-0.565,0.52-0.6162c1.7129-0.2915,3.8794-0.4394,6.44-0.4394
			c5.1081,0,9.1748,2.0067,9.1748,7.0835C89.6702,96.9606,84.9028,99.4122,79.429,98.9877z"/>
		<path fill="#ffffff" d="M80.7107,89.0258c-0.5947,0-1.0059,0.0259-1.2817,0.0558v5.0585c0.247,0.0224,0.5478,0.0322,0.9438,0.0322
			c2.1631,0,3.4038-0.9942,3.4038-2.7271C83.7766,89.4452,82.1091,89.0258,80.7107,89.0258z"/>
	</g>
</g>
</svg>
