<?xml version="1.0" encoding="utf-8"?>
<!-- Generator: Adobe Illustrator 19.1.0, SVG Export Plug-In . SVG Version: 6.00 Build 0)  -->
<svg version="1.2" baseProfile="tiny" xmlns="http://www.w3.org/2000/svg" xmlns:xlink="http://www.w3.org/1999/xlink" x="0px"
	 y="0px" width="64px" height="64px" viewBox="0 0 64 64" xml:space="preserve">
<g id="box">
	<rect fill="none" width="64" height="64"/>
</g>
<g id="Production">
	<path fill="#ffffff" d="M53.1997,26H49v-7.5C49,12.1587,43.8413,7,37.5,7S26,12.1587,26,18.5V48c0,3.8599-3.1401,7-7,7
		s-7-3.1401-7-7V24h6V9H4v15h6v24c0,4.9624,4.0376,9,9,9s9-4.0376,9-9V18.5c0-5.2383,4.2617-9.5,9.5-9.5s9.5,4.2617,9.5,9.5V26
		h-4.1997L36,34.6543V57h24V34.6543L53.1997,26z M6,22V11h10v11H6z M58,55H38V35.3457L43.772,28h8.4561L58,35.3457V55z"/>
</g>
</svg>

