<?xml version="1.0" encoding="utf-8"?>
<!-- Generator: Adobe Illustrator 19.1.0, SVG Export Plug-In . SVG Version: 6.00 Build 0)  -->
<svg version="1.2" baseProfile="tiny" xmlns="http://www.w3.org/2000/svg" xmlns:xlink="http://www.w3.org/1999/xlink" x="0px"
	 y="0px" width="64px" height="64px" viewBox="0 0 64 64" xml:space="preserve">
<g id="box">
	<rect fill="none" width="64" height="64"/>
</g>
<g id="Production">
	<g>
		<path fill="#ffffff" d="M34.3683,37.2144L35.5752,62h-7.1504l1.4268-29.3016c-0.6973-0.1949-1.3544-0.4822-1.9613-0.8477
			L26.3252,64h11.3496l-1.2502-25.6807L34.3683,37.2144z"/>
		<path fill="#ffffff" d="M50.7344,36.5498L37.9121,25.9843C37.9655,25.6633,38,25.3359,38,25c0-1.5257-0.5771-2.9158-1.5183-3.9756
			l2.928-3.6396L38.9834,3.4302c-0.0459-1.5195-1.168-2.8047-2.668-3.0557c-1.7402-0.291-3.3892,0.8877-3.6802,2.626
			l-2.7391,16.3876c-1.686,0.6343-3.0122,2.0026-3.5849,3.7177l-4.6111-0.7151L9.8276,29.7373
			c-1.2925,0.8003-1.8442,2.4146-1.3115,3.8384c0.48,1.2832,1.7017,2.0767,2.998,2.0767c0.3711,0,0.7485-0.0649,1.1162-0.2026
			l15.5571-5.8201C29.2247,30.4854,30.5533,31,32,31c0.4128,0,0.816-0.0421,1.2056-0.1218l1.6845,4.3464l12.2983,6.6084
			c0.4761,0.2559,0.9937,0.3789,1.5078,0.3789c0.9316,0,1.8491-0.4058,2.4727-1.1621
			C52.2896,39.6895,52.0947,37.6704,50.7344,36.5498z M11.9297,33.5767c-0.6157,0.23-1.3091-0.084-1.5405-0.7021
			c-0.1992-0.5327,0.0073-1.1372,0.4912-1.4365l11.2437-6.9575l3.8801,0.6017c0.0146,1.0653,0.3094,2.062,0.812,2.925
			L11.9297,33.5767z M34.6079,3.3306c0.1094-0.6509,0.7319-1.0938,1.3774-0.9834c0.5615,0.0938,0.9819,0.5747,0.999,1.144
			l0.4038,13.2158l-2.4617,3.06C34.0599,19.2805,33.0627,19,32,19c-0.0038,0-0.0074,0.0005-0.0112,0.0005L34.6079,3.3306z M32,29
			c-2.2056,0-4-1.7944-4-4s1.7944-4,4-4s4,1.7944,4,4S34.2056,29,32,29z M49.6255,39.7778
			c-0.3623,0.438-0.9893,0.5625-1.4907,0.2935l-11.647-6.2588l-1.4205-3.6652c0.881-0.527,1.6158-1.2709,2.1292-2.1609
			l12.2664,10.1074c0.2466,0.2031,0.3994,0.4902,0.4302,0.8081C49.9238,39.2202,49.8286,39.5312,49.6255,39.7778z"/>
	</g>
</g>
</svg>

