<?xml version="1.0" encoding="utf-8"?>

<svg version="1.2" baseProfile="tiny" xmlns="http://www.w3.org/2000/svg" xmlns:xlink="http://www.w3.org/1999/xlink" x="0px"
	 y="0px" width="128px" height="128px" viewBox="0 0 128 128" xml:space="preserve">
<g id="_x31_28px_boxes">
	<rect fill="none" width="128" height="128"/>
</g>
<g id="Production">
	<g>
		<path fill="#ffffff" d="M63.9998,23.6055C38.084,23.6055,17,44.6893,17,70.605c0,8.7275,2.394,16.905,6.5557,23.916l0.0521-0.0255
			c1.062,1.4089,2.5043,1.7767,4.1276,0.8297l10.2803-6c3.2328-1.8872,0.9601-7.9044-3.1973-5.4788l-0.0103,0.0059l-4.1084,2.3978
			c-3.72-7.8858-3.6872-15.0101-3.357-18.8351l4.6854,0.8272l0.0573,0.0102c3.3914,0.5971,5.7474-4.7941,1.1026-6.2468
			l-4.7559-0.8396c1.6892-6.3596,5.041-12.0494,9.5628-16.5703l3.0581,3.6462l0.0534,0.0636
			c2.3816,2.8407,7.7378-0.6456,4.8602-4.0763l-0.0617-0.0736l-3.0563-3.6436c5.1743-3.648,11.3269-5.9947,17.9795-6.5657v4.7568
			v0.117c0,4.2494,6.3435,4.2494,6.3435,0v-0.117v-4.7568c15.6182,1.3401,28.4795,12.4758,32.3958,27.2195l-4.6851,0.8269
			l-0.0703,0.0124c-4.4249,1.0439-2.5654,6.893,1.1026,6.2469l0.057-0.0101l4.6854-0.8271
			c0.3974,4.6091,0.1152,11.48-3.3612,18.8441l-4.1046-2.4064l-0.0044-0.0026c-3.8553-2.2614-6.5912,3.4885-3.2083,5.4722
			l10.2842,6.0298c1.3005,0.7628,3.2761,0.569,4.2915-1.0602c0.001,0.0135,0.0015,0.0259,0.0023,0.0396
			C108.649,87.3627,111,79.2538,111,70.605C111,44.6893,89.9158,23.6055,63.9998,23.6055z"/>
		<path fill="#ffffff" d="M82.1733,45.395L64.7056,61.8267c-1.3963-0.1165-9.0026,0.4726-9.0026,8.2649
			c0,4.5822,3.7144,8.2967,8.2968,8.2967c6.4101,0,9.0634-6.0603,8.0682-10.2275l13.6454-19.719
			C87.2463,46.2292,84.3145,43.3801,82.1733,45.395z"/>
		<path fill="#ffffff" d="M80.9634,93.6235h-33.927c-0.7404,0-1.3404,0.6001-1.3404,1.3405v8.0902
			c0,0.7402,0.6,1.3403,1.3404,1.3403h33.927c0.7405,0,1.3406-0.6001,1.3406-1.3403V94.964
			C82.304,94.2236,81.7039,93.6235,80.9634,93.6235z"/>
	</g>
</g>
</svg>
