<?xml version="1.0" encoding="utf-8"?>
<!-- Generator: Adobe Illustrator 18.1.1, SVG Export Plug-In . SVG Version: 6.00 Build 0)  -->
<svg version="1.2" baseProfile="tiny" xmlns="http://www.w3.org/2000/svg" xmlns:xlink="http://www.w3.org/1999/xlink" x="0px"
	 y="0px" width="128px" height="128px" viewBox="0 0 128 128" xml:space="preserve">
<g id="_x31_28px_boxes">
	<rect fill="none" width="128" height="128"/>
</g>
<g id="Production">
	<g>
		<path fill="#ffffff" d="M87.8944,103.4244L68,95.192V83h-9v12.1922l-19.6825,8.2322c-2.2947,0.9546-3.3279,3.5886-2.3733,5.8833
			c0.9545,2.2948,3.616,3.3811,5.9097,2.4262l20.8448-8.6661l20.8379,8.6661c2.2947,0.9549,4.8791-0.1318,5.8337-2.4262
			C91.3249,107.013,90.1891,104.379,87.8944,103.4244z"/>
		<path fill="#ffffff" d="M102.1995,71H102V29H25v42h0.2241c-2.071,0-3.75,1.929-3.75,4c0,2.0711,1.679,4,3.75,4h76.9754
			c2.071,0,3.75-1.9289,3.75-4C105.9495,72.929,104.2705,71,102.1995,71z M93,43.3826l-10.7559,8.1326
			c-0.5644,0.4366-1.4221,0.5796-2.1096,0.3852l-8.9288-2.5097l-12.7645,9.9728c-0.4966,0.3889-1.1483,0.552-1.7706,0.4482
			l-9.7607-1.6272L35,67.6674v-5.7447l9.8872-7.8838c0.4981-0.3952,1.1167-0.5611,1.7432-0.4572l9.7976,1.6287L69.277,45.143
			c0.5652-0.4427,1.3046-0.5892,1.997-0.3936l9.1162,2.5121L93,37.6938V43.3826z"/>
		<path fill="#ffffff" d="M104.6128,16h-81.802c-2.4854,0-4.5,2.0147-4.5,4.5c0,2.4854,2.0146,4.5,4.5,4.5h81.802
			c2.4853,0,4.5-2.0146,4.5-4.5C109.1128,18.0147,107.0981,16,104.6128,16z"/>
	</g>
</g>
</svg>
