<?xml version="1.0" encoding="utf-8"?>

<svg version="1.2" baseProfile="tiny" xmlns="http://www.w3.org/2000/svg" xmlns:xlink="http://www.w3.org/1999/xlink" x="0px"
	 y="0px" width="128px" height="128px" viewBox="0 0 128 128" xml:space="preserve">
<g id="_x31_28px_boxes">
	<rect fill="none" width="128" height="128"/>
</g>
<g id="Production">
	<g>
		<path fill="#ffffff" d="M84.8634,84.3876c0.6488-1.7782-0.2736-3.9474-2.163-4.6372c-2.0727-0.7562-4.1103,0.7008-4.6419,2.1626
			c-0.6834,1.8779,0.2846,3.9568,2.1651,4.6421C82.0995,87.2387,84.1802,86.2682,84.8634,84.3876z"/>
		<rect x="57.9741" y="108.9547" fill="#ffffff" width="55.671" height="6.1265"/>
		<path fill="#ffffff" d="M54.8119,27.932l-7.9929-3.7248c-1.2052-0.5626-2.5045,0.5717-2.1075,1.8369l3.1745,10.2497
			c5.3662,2.501,11.1236,5.1856,16.6638,7.7705l-9.0621-15.5192L54.8119,27.932z"/>
		<path fill="#ffffff" d="M23.2464,72.0402l7.9951,3.7248l0.9076,0.1209l32.7674-5.6077c8.642,3.9129,16.2753,6.6116,21.5956,7.5361
			c4.3373,0.742,13.2012,2.0409,15.3095-1.7959c1.2249-3.0212-2.3534-10.8963-15.5244-17.1274
			C85.1868,58.3732,34.305,34.6503,29.378,32.3519l-3.0731-15.9516c-0.0966-0.4805-0.4103-0.8909-0.8546-1.1006l-4.8086-2.238
			c-0.8915-0.4204-1.9895,0.1179-2.1558,1.1345l-4.1108,24.094c-0.0869,0.5308,0.0725,1.0329,0.5864,1.4653
			c1.0001,0.7339,15.1765,11.8598,30.158,20.321l-21.8151,9.1636C22.0658,69.7633,22.0674,71.4794,23.2464,72.0402z"/>
	</g>
</g>
</svg>
