<?xml version="1.0" encoding="utf-8"?>
<!-- Generator: Adobe Illustrator 19.1.0, SVG Export Plug-In . SVG Version: 6.00 Build 0)  -->
<svg version="1.2" baseProfile="tiny" xmlns="http://www.w3.org/2000/svg" xmlns:xlink="http://www.w3.org/1999/xlink" x="0px"
	 y="0px" width="64px" height="64px" viewBox="0 0 64 64" xml:space="preserve">
<g id="box">
	<rect fill="none" width="64" height="64"/>
</g>
<g id="Production">
	<g>
		<path fill="#ffffff" d="M48,5H16c-2.7568,0-5,2.2432-5,5v44c0,2.7568,2.2432,5,5,5h32c2.7568,0,5-2.2432,5-5V10
			C53,7.2432,50.7568,5,48,5z M16,7h32c1.6543,0,3,1.3457,3,3v26H13V10C13,8.3457,14.3457,7,16,7z M48,57H16c-1.6543,0-3-1.3457-3-3
			V38h38v16C51,55.6543,49.6543,57,48,57z"/>
		<rect x="37" y="30" fill="#ffffff" width="10" height="2"/>
		<rect x="37" y="42" fill="#ffffff" width="10" height="2"/>
	</g>
</g>
</svg>

