<?xml version="1.0" encoding="utf-8"?>
<!-- Generator: Adobe Illustrator 19.1.0, SVG Export Plug-In . SVG Version: 6.00 Build 0)  -->
<svg version="1.2" baseProfile="tiny" xmlns="http://www.w3.org/2000/svg" xmlns:xlink="http://www.w3.org/1999/xlink" x="0px"
	 y="0px" width="64px" height="64px" viewBox="0 0 64 64" xml:space="preserve">
<g id="box">
	<rect fill="none" width="64" height="64"/>
</g>
<g id="Production">
	<g>
		<path fill="#ffffff" d="M59.7109,29.0771L36.4966,4.6592c-1.8687-1.9644-4.9883-2.0444-6.9526-0.1758L28.4082,5.563
			L17.542,15.8936c-1.0513,0.9995-1.3403,2.5518-0.7373,3.8237l2.04,4.8289l-4.8433-1.9255l-3.251,8.1758l5.1306,2.04
			l-0.0706,0.1773c-0.4814,1.2104-0.2124,2.6025,0.6855,3.5464l16.7793,17.6494c0.9048,0.9521,2.1265,1.4946,3.4399,1.5278
			c0.0425,0.001,0.085,0.002,0.1274,0.002c1.2661,0,2.4639-0.478,3.3848-1.354l19.3076-18.3555
			C61.5,34.1611,61.5791,31.042,59.7109,29.0771z M18.9199,17.3428l8.6155-8.1907l1.5593,4.3821
			c0.1787,0.5024,0.0444,1.064-0.3418,1.4316l-8.4075,7.9927l-1.7156-4.0587C18.3794,18.3716,18.4961,17.7461,18.9199,17.3428z
			 M13.3481,29.6772l1.7725-4.459l3.271,1.3001l-1.772,4.4594L13.3481,29.6772z M58.1572,34.5806L38.8496,52.936
			c-0.5649,0.5376-1.3115,0.8135-2.084,0.8022c-0.7793-0.02-1.5039-0.3418-2.041-0.9067L17.9453,35.1821
			c-0.3618-0.3809-0.4702-0.9419-0.2764-1.4297l3.5063-8.8237l8.9556-8.5137c0.959-0.9111,1.2915-2.3057,0.8481-3.5513
			L29.1221,7.644l1.7998-1.7114c1.165-1.1079,3.0161-1.062,4.1255,0.1045l23.2144,24.418
			C59.3696,31.6211,59.3228,33.4717,58.1572,34.5806z"/>
		<path fill="#ffffff" d="M55.4644,31.6343l-17.4148,0.5502l0.01-18.9427c0.0005-0.5522-0.4473-1-0.9995-1.0005h-0.0005
			c-0.5522,0-0.9995,0.4473-1,0.9995l-0.01,19.0069l-14.6975,0.4643c-0.5518,0.0176-0.9854,0.479-0.9678,1.0312
			c0.0171,0.541,0.4614,0.9683,0.999,0.9683c0.0107,0,0.0215,0,0.0322-0.0005l14.6329-0.4623L36.04,50.1792
			c-0.0005,0.5522,0.4473,1,0.9995,1.0005H37.04c0.5522,0,0.9995-0.4473,1-0.9995l0.0085-15.9947l17.4792-0.5522
			c0.5518-0.0176,0.9854-0.479,0.9678-1.0312C56.4785,32.0503,56.0132,31.6113,55.4644,31.6343z"/>
		<path fill="#ffffff" d="M11.5,39.125c-1.1816,1.3727-1.3004,1.5168-2.8276,3.2261C5.5029,45.894,3,48.6929,3,52.5
			c0,4.687,3.813,8.5,8.5,8.5s8.5-3.813,8.5-8.5c0-3.8071-2.5029-6.606-5.6724-10.1489C12.8041,40.6459,12.6864,40.5032,11.5,39.125
			z M11.5,59C7.916,59,5,56.084,5,52.5c0-3.043,2.0537-5.3398,5.1631-8.8159c0.4302-0.4814,0.877-0.981,1.3369-1.5034
			c0.46,0.5225,0.9067,1.022,1.3369,1.5034C15.9463,47.1602,18,49.457,18,52.5C18,56.084,15.084,59,11.5,59z"/>
	</g>
</g>
</svg>

