<?xml version="1.0" encoding="utf-8"?>
<!-- Generator: Adobe Illustrator 18.1.1, SVG Export Plug-In . SVG Version: 6.00 Build 0)  -->
<svg version="1.2" baseProfile="tiny" xmlns="http://www.w3.org/2000/svg" xmlns:xlink="http://www.w3.org/1999/xlink" x="0px"
	 y="0px" width="128px" height="128px" viewBox="0 0 128 128" xml:space="preserve">
<g id="box">
	<rect fill="none" width="128" height="128"/>
</g>
<g id="Production">
	<g>
		<path fill="#ffffff" d="M58.8169,45.1417h25.7424c1.401,0,2.5506-1.1407,2.5506-2.5532c0-16.9984,0.0044-10.7585-0.033-12.4329
			c-0.1772-3.7811-3.2172-6.9951-7.3713-6.9951c-0.0843-1.5241-0.5943-2.9245-1.3999-4.1147
			c-1.4405-2.1226-3.8484-3.523-6.617-3.5303c-2.7698,0.0073-5.1828,1.4077-6.625,3.5303
			c-0.8044,1.1902-1.3147,2.5906-1.3957,4.1147c-4.3033,0-7.4063,3.4807-7.4063,7.3225v12.1055
			C56.2617,43.9851,57.3823,45.1417,58.8169,45.1417z M68.8086,23.1605c0.2173-1.4214,1.3911-2.5388,2.8801-2.5388
			c1.7866,0,2.9553,1.6122,2.9553,2.9575c0,1.6319-1.3159,2.9502-2.9553,2.9573C70.0735,26.5295,68.5384,25.2027,68.8086,23.1605z
			 M61.3696,30.483c0-0.1147,0.0493-0.2175,0.0657-0.3274c0.1636-1.0661,1.0327-1.8938,2.155-1.8938h1.5596
			c3.2012,4.4633,9.8647,4.4505,13.0713,0h1.5615c1.3678,0,2.2207,1.2212,2.2207,2.2212v9.5572H61.3696V30.483z"/>
		<path fill="#ffffff" d="M45.9741,39.8951h6.1699v-9.417c0-0.1098,0.0284-0.2126,0.033-0.3225H38.3157
			c-1.3892,0-2.5533,1.1296-2.5533,2.553v38.5266l10.2117-6.3364V39.8951z"/>
		<path fill="#ffffff" d="M105.0603,30.1556H91.1938c0,0.1121,0.0332,0.2198,0.0332,0.3274l-0.0073,9.4121h6.1812v61.9331
			l-51.4268,0.0865v-8.2276l-10.2117,6.3367v9.9075c0,1.4141,1.1355,2.5532,2.5533,2.5532h66.7446
			c1.3798,0,2.5457-1.1025,2.5457-2.5532V32.7086C107.606,31.2728,106.4408,30.1556,105.0603,30.1556z"/>
		<path fill="#ffffff" d="M69.0381,69.3151l-0.3677-4.1363l-3.6067-2.2395l-0.4734-4.3095
			C24.0853,83.764,44.9675,70.8069,20.7358,85.8422c-1.5999,5.5576,2.6339,12.0296,8.1866,13.1433
			c17.4375-10.8202,20.5781-12.7694,43.8547-27.2132L69.0381,69.3151z"/>
		<path fill="#ffffff" d="M71.4629,58.3134c-0.0049,3.1008,1.5039,5.948,4.6291,7.426c0,0,2.5745-4.792,3.1768-5.9505
			c0.6023-1.1599,0.1721-1.7478-1.1067-1.7026C76.8843,58.1315,71.4629,58.3134,71.4629,58.3134z"/>
	</g>
</g>
</svg>
