<?xml version="1.0" encoding="utf-8"?>
<!-- Generator: Adobe Illustrator 18.1.1, SVG Export Plug-In . SVG Version: 6.00 Build 0)  -->
<svg version="1.2" baseProfile="tiny" xmlns="http://www.w3.org/2000/svg" xmlns:xlink="http://www.w3.org/1999/xlink" x="0px"
	 y="0px" width="128px" height="128px" viewBox="0 0 128 128" xml:space="preserve">
<g id="_x31_28px_boxes">
	<rect fill="none" width="128" height="128"/>
</g>
<g id="Production">
	<g>
		<path fill="#ffffff" d="M55.1246,42.0443c8.5273,0,15.4404-6.9133,15.4404-15.4409c0-8.5273-6.9131-15.4411-15.4404-15.4411
			c-8.5275,0-15.4415,6.9138-15.4404,15.4409C39.6842,35.1308,46.5969,42.0443,55.1246,42.0443z M49.2447,32.4679
			c5.2046-4.4189,8.2475-6.7651,8.2824-9.2556c0-1.3935-0.8675-2.498-2.966-2.498c-1.5669,0-2.938,0.7363-3.8893,1.3935
			l-1.2032-2.8398c1.3431-0.9729,3.4976-1.7617,5.932-1.7617c4.1411,0,6.3795,2.2614,6.3795,5.3378
			c0,3.6894-3.6279,6.4394-6.5195,8.7037v0.0524h6.8833v3.2869H49.2447V32.4679z"/>
		<path fill="#ffffff" d="M86.284,64.4008c8.346,0,15.1128-6.7664,15.1128-15.1126S94.63,34.1752,86.284,34.1752
			c-8.3457,0-15.113,6.7668-15.112,15.1128C71.172,57.6339,77.9378,64.4008,86.284,64.4008z M85.9273,40.9135h3.4234v16.727H85.325
			V44.3876h-0.0549l-3.3957,1.5183l-0.6846-2.9338L85.9273,40.9135z"/>
		<path fill="#ffffff" d="M59.794,60.0819c-6.5283,0-12.0905,4.1414-14.203,9.94c1.997,1.2197,16.7838,11.6416,18.6796,12.978
			l8.2803,0.2935c1.4897-2.3413,2.3559-5.118,2.3559-8.0984C74.9068,66.8488,68.1402,60.0819,59.794,60.0819z"/>
		<path fill="#ffffff" d="M117.4366,79.3476c-1.9248-2.9976-5.9153-3.8667-8.9128-1.9422c-0.5298,0.3401-1.6053,1.031-3.0716,1.9729
			c-1.166-4.0369-5.7981-5.8835-9.4126-3.8059l-4.789,2.7532c-1.3649-3.828-5.8309-5.4235-9.2925-3.4341l-2.5903,1.4893
			c-0.1514,2.5205-0.7808,4.9131-1.7989,7.0903l2.9314,0.104c4.8128,0.1704,8.576,4.2102,8.4053,9.023
			c-0.1638,4.6279-3.907,8.2832-8.4734,8.405c-0.062,0.0046-21.1189,1.0715-21.2659,1.0715c-1.1051,0-2.2015-0.2102-3.2304-0.6206
			l-6.168-2.4602c-2.5355-1.0115-4.333-3.0796-5.0906-5.4961l12.4506,4.9671c0.6493,0.259,1.3411,0.3916,2.0384,0.3916
			c0.0928,0,21.5381-1.086,21.5381-1.086c3.0345-0.154,5.3697-2.7388,5.2156-5.7732c-0.154-3.0346-2.7478-5.3703-5.7732-5.2156
			l-0.0119,0.0005l-17.6169-0.624c-3.0498-2.1055-10.7164-7.3935-16.1445-11.0984c-6.8984-4.7075-14.6849-4.9526-23.1434-0.728
			c-6.5753,3.2844-13.3324,7.0251-13.6169,7.1829c-0.0249,0.0136-0.0487,0.0288-0.0733,0.0429l12.0083,26.9087
			c3.2202-1.4451,6.3761-2.8594,7.4726-3.345c1.1667-0.5168,3.169-0.7014,4.7373-0.0546
			c2.2442,0.9257,19.8259,8.0019,27.8322,10.8918c4.313,1.5562,9.4894,1.0009,12.8966-1.303
			c1.3027-0.8811,25.2376-16.2678,41.0076-26.395C118.492,86.3354,119.3614,82.3449,117.4366,79.3476z"/>
	</g>
</g>
</svg>
