<?xml version="1.0" encoding="utf-8"?>
<!-- Generator: Adobe Illustrator 18.1.1, SVG Export Plug-In . SVG Version: 6.00 Build 0)  -->
<svg version="1.2" baseProfile="tiny" xmlns="http://www.w3.org/2000/svg" xmlns:xlink="http://www.w3.org/1999/xlink" x="0px"
	 y="0px" width="128px" height="128px" viewBox="0 0 128 128" xml:space="preserve">
<g id="_x31_28px_boxes">
	<rect fill="none" width="128" height="128"/>
</g>
<g id="Production">
	<g>
		<path fill="#ffffff" d="M46.9371,54.2894c1.0145-0.179,1.543-0.7952,1.3718-1.7656c-0.1712-0.9703-0.8562-1.3726-1.8928-1.1898
			l-1.6321,0.2877l0.5213,2.9554L46.9371,54.2894z"/>
		<path fill="#ffffff" d="M63.3265,69.9001c-2.7571,0.4862-3.4583,3.0885-3.0188,5.5809c0.4394,2.4922,1.9882,4.698,4.7454,4.2117
			c2.7569-0.4861,3.4577-3.0884,3.0183-5.5807C67.6319,71.6197,66.0835,69.4139,63.3265,69.9001z"/>
		<path fill="#ffffff" d="M45.8653,57.7532l0.5676,3.2201l2.2498-0.3966c1.1909-0.2101,2.0876-0.8003,1.8777-1.9912
			c-0.2103-1.191-1.387-1.4156-2.4456-1.229L45.8653,57.7532z"/>
		<path fill="#ffffff" d="M111.4766,66.4116c0,0-6.3095-6.7545-8.6484-9.2593c0.8169-1.919,4.9609-11.6575,4.9609-11.6575
			c1.343-3.1542-0.551-6.7929-3.9619-7.4512c0,0-9.0747-1.7553-12.4389-2.406c-0.4668-2.0322-2.838-12.3476-2.838-12.3476
			c-0.7775-3.3641-4.4523-5.1625-7.5849-3.6983c0,0-8.3735,3.9131-11.478,5.3633c-1.5728-1.3687-9.5547-8.3203-9.5547-8.3203
			c-2.6065-2.2699-6.6383-1.5558-8.311,1.4644c0.0004,0.0009-4.4742,8.0905-6.1319,11.0873
			c-2.0786-0.1835-12.6206-1.1142-12.6206-1.1142c-3.4395-0.3043-6.2852,2.6411-5.8618,6.0696c0,0,1.1348,9.1731,1.5552,12.574
			c-1.7886,1.0727-10.8657,6.5151-10.8657,6.5151c-2.9759,1.7823-3.5188,5.8475-1.1734,8.3569c0,0,6.31,6.7539,8.648,9.2576
			c-0.8164,1.9196-4.9605,11.6603-4.9605,11.6603c-1.3417,3.1438,0.5417,6.7892,3.9619,7.4497c0,0,9.0746,1.7554,12.4385,2.4066
			c0.4673,2.0332,2.8388,12.3473,2.8388,12.3473c0.7738,3.3637,4.4515,5.1629,7.5841,3.6992c0,0,8.374-3.9136,11.4784-5.3643
			c1.5728,1.3702,9.5542,8.3199,9.5542,8.3199c2.6087,2.2722,6.639,1.5566,8.3106-1.4644c0-0.001,4.4746-8.0894,6.1333-11.0869
			c2.0777,0.1831,12.6192,1.1147,12.6192,1.1147c3.4457,0.3048,6.2843-2.643,5.8628-6.0703c0,0-1.1348-9.1728-1.5557-12.5732
			c1.79-1.0728,10.8652-6.5158,10.8652-6.5158C113.2897,72.9788,113.8143,68.9091,111.4766,66.4116z M71.8736,43.4339
			c1.2043-0.2122,1.4928,0.3656,5.334,4.1991c2.2991-4.9168,2.3725-5.5579,3.5767-5.7703c1.0586-0.1866,2.0095,0.3051,2.1767,1.2536
			c0.1764,1-0.4176,1.8457-3.352,7.6864l0.9878,5.6021c0.452,2.5645-3.1222,3.1884-3.5733,0.63l-0.9878-5.6021
			c-4.755-4.4848-5.6024-5.0763-5.7788-6.0763C70.0897,44.4079,70.815,43.6207,71.8736,43.4339z M42.4372,48.7607l4.213-0.7428
			c2.7127-0.4784,4.7068,0.8984,5.1345,3.3247c0.284,1.6099-0.6738,2.7567-1.3459,3.3302c1.9851,0.0364,3.4885,1.3406,3.8345,3.3035
			c0.4397,2.4923-0.7737,5.026-4.6336,5.7065l-4.4334,0.7817c-0.9262,0.1634-1.8991-0.3247-2.1012-1.4715l-2.1392-12.1308
			C40.7637,49.7151,41.5113,48.924,42.4372,48.7607z M53.4559,84.9212c-0.9485,0.1675-1.3753-0.1895-2.8086-1.4829l-7.2437-6.3867
			l-0.0441,0.0076l1.3144,7.4548c0.4521,2.5643-3.1218,3.1892-3.573,0.6301l-2.1467-12.1748
			c-0.2217-1.2571,0.4155-2.0289,1.4521-2.2117c0.9483-0.1672,1.3531,0.1935,2.8086,1.4832l7.2436,6.3865l0.044-0.0076
			l-1.3144-7.4548c-0.4522-2.5643,3.1219-3.189,3.5732-0.6301l2.1466,12.175C55.1297,83.9669,54.4925,84.7386,53.4559,84.9212z
			 M54.8241,48.3959c-0.4522-2.5643,3.1221-3.1883,3.5732-0.63l1.3455,7.6314c0.3696,2.0953,2.0235,2.9634,3.788,2.6523
			c1.7644-0.3113,3.0437-1.6965,2.6744-3.7918l-1.3457-7.6314c-0.4522-2.5642,3.1219-3.1889,3.5732-0.63l1.3457,7.6313
			c0.731,4.1465-1.6707,7.1626-5.6409,7.8626c-3.9699,0.7001-7.2365-1.3165-7.9677-5.463L54.8241,48.3959z M65.6366,83.0013
			c-4.6539,0.8203-8.2874-1.8592-9.1663-6.8438c-0.8789-4.9846,1.6189-8.7455,6.2727-9.566
			c4.6538-0.8206,8.2874,1.859,9.1663,6.8437C72.7882,78.4197,70.2904,82.1805,65.6366,83.0013z M91.7851,75.4113
			c-0.1156,1.7943-0.3234,2.8087-2.0438,3.112c-1.3674,0.2411-2.2378-0.3103-2.8826-1.5157L83.297,70.222l-0.044,0.0078
			l-1.0259,7.5945c-0.1933,1.3532-0.823,2.1692-2.1904,2.4101c-1.7202,0.3035-2.2627-0.5788-2.985-2.2253
			c-4.6405-10.5409-4.6605-10.4379-4.7728-11.075c-0.3599-2.04,2.6406-3.1209,3.612-0.7961l3.324,8.1467l0.0442-0.0077l1.13-8.6818
			c0.3661-2.6454,2.7725-3.0554,4.0141-0.7078l4.031,7.7718l0.0444-0.0078l0.3372-8.7923c0.1176-2.5264,3.3082-2.518,3.6662-0.4872
			C92.5945,64.0103,92.5399,63.927,91.7851,75.4113z"/>
	</g>
</g>
</svg>
