<?xml version="1.0" encoding="utf-8"?>
<!-- Generator: Adobe Illustrator 18.1.1, SVG Export Plug-In . SVG Version: 6.00 Build 0)  -->
<svg version="1.2" baseProfile="tiny" xmlns="http://www.w3.org/2000/svg" xmlns:xlink="http://www.w3.org/1999/xlink" x="0px"
	 y="0px" width="128px" height="128px" viewBox="0 0 128 128" xml:space="preserve">
<g id="_x31_28px_boxes">
	<rect fill="none" width="128" height="128"/>
</g>
<g id="Production">
	<path fill="#ffffff" d="M111.9798,14H16.0202C14.9046,14,14,14.8859,14,15.9786v96.0428C14,113.1142,14.9046,114,16.0202,114
		h95.9596c1.1159,0,2.0202-0.8858,2.0202-1.9786V15.9786C114,14.8859,113.0957,14,111.9798,14z M50.5718,34.9569v19.7375h-28.491
		V34.9569H50.5718z M22.0808,60.6301h28.491v19.7192h-28.491V60.6301z M56.6324,60.6301h49.2868v19.7192H56.6324V60.6301z
		 M56.6324,54.6944V34.9569h49.2868v19.7375H56.6324z M22.0808,86.285h28.491v19.8007h-28.491V86.285z M56.6324,106.0857V86.285
		h49.2868v19.8007H56.6324z"/>
</g>
</svg>
