<?xml version="1.0" encoding="utf-8"?>
<!-- Generator: Adobe Illustrator 19.1.0, SVG Export Plug-In . SVG Version: 6.00 Build 0)  -->
<svg version="1.2" baseProfile="tiny" xmlns="http://www.w3.org/2000/svg" xmlns:xlink="http://www.w3.org/1999/xlink" x="0px"
	 y="0px" width="64px" height="64px" viewBox="0 0 64 64" xml:space="preserve">
<g id="box">
	<rect fill="none" width="64" height="64"/>
</g>
<g id="Production">
	<g>
		<path fill="#ffffff" d="M52.1997,43.1689l-4.7202-28.0005C47.0723,12.7529,44.999,11,42.5493,11H40V5.1574
			c0.9081,0.2814,1.7736,0.6072,2.5737,0.9837l0.8516-1.8096C40.23,2.8281,36.1724,2,32,2c-4.1719,0-8.2295,0.8281-11.4258,2.332
			l0.8516,1.8096C22.2261,5.7651,23.0917,5.4393,24,5.1578V11h-2.5493c-2.4497,0-4.5229,1.7529-4.9307,4.1689l-4.7202,28
			C11.2863,46.2216,13.6404,49,16.731,49h6.1342L19,53.6382V62h26v-8.3618L41.1349,49h6.1342
			C50.3642,49,52.7135,46.2166,52.1997,43.1689z M26,4.6353C27.8948,4.2231,29.9268,4,32,4c2.0735,0,4.1053,0.223,6,0.635V22H26
			V4.6353z M25.3888,24h13.2224c2.018,2.837,3.298,6.9315,3.298,11.5s-1.2799,8.663-3.298,11.5H25.3888
			c-2.0181-2.837-3.298-6.9315-3.298-11.5S23.3708,26.837,25.3888,24z M16.731,47c-1.8574,0-3.2665-1.6703-2.9585-3.499
			l4.7197-27.9995C18.7368,14.0518,19.981,13,21.4507,13H24v9.5804c-2.3954,3.2004-3.9092,7.7985-3.9092,12.9196
			c0,4.4086,1.1302,8.4213,2.9689,11.5H16.731z M43,54.3618V60H21v-5.6382L25.4683,49h13.0635L43,54.3618z M47.269,47h-6.3287
			c1.8387-3.0787,2.9689-7.0914,2.9689-11.5c0-5.1212-1.5137-9.7192-3.9092-12.9196V13h2.5493c1.4697,0,2.7139,1.0518,2.9585,2.501
			l4.7197,28C50.536,45.3324,49.1236,47,47.269,47z"/>
		<path fill="#ffffff" d="M30.0908,43.9746c-1.3166-2.9622,0.7883-3.7624,1.8992-5.3492c1.1108,1.5868,3.2156,2.387,1.8991,5.3492
			c2.7233-0.7883,3.5833-3.7982,2.4157-6.1957C35.3188,35.754,33.0874,33.2149,31.99,30c-1.0975,3.2149-3.3289,5.754-4.315,7.7789
			C26.5075,40.1764,27.3675,43.1863,30.0908,43.9746z"/>
	</g>
</g>
</svg>

