<?xml version="1.0" encoding="utf-8"?>
<!-- Generator: Adobe Illustrator 18.1.1, SVG Export Plug-In . SVG Version: 6.00 Build 0)  -->
<svg version="1.2" baseProfile="tiny" xmlns="http://www.w3.org/2000/svg" xmlns:xlink="http://www.w3.org/1999/xlink" x="0px"
	 y="0px" width="64px" height="64px" viewBox="0 0 64 64" xml:space="preserve">
<g id="_x36_4px_boxes">
	<rect fill="none" width="64" height="64"/>
</g>
<g id="Production">
	<g>
		<path fill="#ffffff" d="M62.2812,50.3052l-0.8364,0.8652C60.3203,52.333,58.748,53,57.1309,53h-0.8223l-1.84-4h0.6799
			c2.2773,0,4.1913-1.0596,5.5228-2.9072s1.6821-4.146,0.9619-6.3066l-2.4765-7.8975C57.3843,26.5723,52.4282,23,46.8237,23H40v-6
			h-2v6H15.0502c0.314,0.6293,0.5579,1.2981,0.718,2H41v11c0,3.3086,2.6914,5.98,6,5.98h12.9906
			c0.0034,1.0342-0.312,2.0697-0.9418,2.9433C58.0976,46.2432,56.7754,47,55.1484,47H44c-6.6167,0-12-5.3833-12-12v-6H15.7682
			c-0.1602,0.7019-0.404,1.3707-0.718,2H30v4c0,6.0974,3.9246,11.2825,9.3752,13.1985L37.1666,53H32v2h25.1309
			c2.1562,0,4.2529-0.8892,5.7515-2.4399l0.8364-0.8652L62.2812,50.3052z M43,36V25h3.8237c4.7422,0,8.936,3.0225,10.4355,7.5215
			L59.5961,40H47C44.7944,40,43,38.2056,43,36z M41.3292,48.7376C42.1946,48.9056,43.0862,49,44,49h8.2667l1.84,4H39.3685
			L41.3292,48.7376z"/>
		<polygon fill="#ffffff" points="62,13 40,13 40,11 38,11 38,13 16,13 16,15 62,15 		"/>
		<path fill="#ffffff" d="M4,13h2.2793l1.6846,5.0535c0.8027,0.0859,1.571,0.2838,2.2971,0.5674L7.7207,11H2v8.5219
			c0.6161-0.4133,1.2894-0.7443,2-0.9968V13z"/>
		<path fill="#ffffff" d="M7,20c-3.8599,0-7,3.1401-7,7s3.1401,7,7,7s6.98-3.1401,6.98-7S10.8599,20,7,20z M7,32
			c-2.7568,0-5-2.2432-5-5s2.2432-5,5-5s4.98,2.2432,4.98,5S9.7568,32,7,32z"/>
	</g>
</g>
</svg>

