<?xml version="1.0" encoding="utf-8"?>
<!-- Generator: Adobe Illustrator 18.1.1, SVG Export Plug-In . SVG Version: 6.00 Build 0)  -->
<svg version="1.2" baseProfile="tiny" xmlns="http://www.w3.org/2000/svg" xmlns:xlink="http://www.w3.org/1999/xlink" x="0px"
	 y="0px" width="128px" height="128px" viewBox="0 0 128 128" xml:space="preserve">
<g id="_x31_28px_boxes">
	<rect fill="none" width="128" height="128"/>
</g>
<g id="Production">
	<g>
		<path fill="#ffffff" d="M66.7943,61.4087c0,0.001,0,4.2847,0,4.2847h10.874v-4.2847
			C77.6567,54.1703,66.7943,54.1704,66.7943,61.4087z"/>
		<path fill="#ffffff" d="M112.7924,34.1123H73.481l-3.8472-8.2238c-0.3085-0.6591-0.9705-1.0803-1.6983-1.0803H38.0319
			c-0.9245,0-1.6908,0.6696-1.845,1.55v67.1419c0,2.9731-4.5,2.9761-4.5,0V34.1123H15.2081c-1.1595,0-2.0413,1.0435-1.849,2.1864
			l11.0047,65.3296c0.1521,0.9027,0.9336,1.5635,1.849,1.5635h86.5796c1.0355,0,1.875-0.8393,1.875-1.875V35.9873
			C114.6674,34.9518,113.8279,34.1123,112.7924,34.1123z M82.1835,61.4087c0,0.002,0,4.2847,0,4.2847h2.8779
			c0.6273,0,1.1641,0.5027,1.1641,1.1655v16.273c0,0.6763-0.5507,1.1699-1.1641,1.1699H59.4081
			c-0.6213,0-1.1658-0.4939-1.1658-1.1699v-16.273c0-0.6592,0.5232-1.1655,1.1658-1.1655h2.8711c0,0,0-4.2833,0-4.2847
			C62.2792,48.4106,82.1835,48.1945,82.1835,61.4087z"/>
	</g>
</g>
</svg>
