<?xml version="1.0" encoding="utf-8"?>

<svg version="1.2" baseProfile="tiny" xmlns="http://www.w3.org/2000/svg" xmlns:xlink="http://www.w3.org/1999/xlink" x="0px"
	 y="0px" width="128px" height="128px" viewBox="0 0 128 128" xml:space="preserve">
<g id="_x31_28px_boxes">
	<rect fill="none" width="128" height="128"/>
</g>
<g id="Production">
	<g>
		<path fill="#ffffff" d="M101.4919,18h-66C33.5593,18,32,19.5669,32,21.5v11.4564c2.1472-1.0353,4.5063-1.6927,7-1.8815V25h59
			v51.5662C98,78.031,97.0103,82,89.9861,82H78.9919C77.335,82,76,83.3431,76,85v11c0,6.9749-3.7285,8-5.407,8H39V89h-7v18.5
			c0,1.9331,1.5593,3.5,3.4919,3.5h38.9854c2.2607,0,3.8271-1.2954,4.7627-2.0693c4.6328-3.8335,20.1809-19.6821,24.1106-24.5786
			C104.4424,82.9893,105,81.3164,105,79.3794V21.5C105,19.5669,103.4246,18,101.4919,18z"/>
		<path fill="#ffffff" d="M60.1995,84.915c0.4783,0,0.9253-0.1846,1.2649-0.5314c0.3406-0.3319,0.5217-0.7789,0.5217-1.264V57.9342
			c0-0.4778-0.1812-0.9244-0.5217-1.2638c-0.3396-0.3396-0.7866-0.5244-1.2649-0.5244h-4.2258v-5.8704
			C55.9736,41.8362,48.9419,35,40.5024,35c-8.3782,0-15.4526,6.7986-15.4526,15.2756v5.8704H20.834
			c-0.4783,0-0.9402,0.1848-1.2725,0.5244c-0.332,0.3236-0.5166,0.786-0.5166,1.2638v25.1854c0,0.4851,0.1814,0.9321,0.5166,1.264
			c0.3394,0.3468,0.7942,0.5314,1.2725,0.5314C35.517,84.915,45.6603,84.915,60.1995,84.915z M31.9785,56.146v-5.8704
			c0.0071-4.5767,3.897-8.3394,8.5239-8.3472c4.6147,0.0076,8.5347,3.7378,8.5422,8.3472v5.8704H32.1001H31.9785z"/>
	</g>
</g>
</svg>
