<?xml version="1.0" encoding="utf-8"?>
<!-- Generator: Adobe Illustrator 19.1.0, SVG Export Plug-In . SVG Version: 6.00 Build 0)  -->
<svg version="1.2" baseProfile="tiny" xmlns="http://www.w3.org/2000/svg" xmlns:xlink="http://www.w3.org/1999/xlink" x="0px"
	 y="0px" width="64px" height="64px" viewBox="0 0 64 64" xml:space="preserve">
<g id="box">
	<rect fill="none" width="64" height="64"/>
</g>
<g id="Production">
	<g>
		<path fill="#ffffff" d="M53.0708,24.6567L49,20.5859v-8.7573C50.1641,11.416,51,10.3037,51,9
			c0-1.5084-1.1225-2.7478-2.5738-2.9569L49.481,1H38.519l1.0547,5.0431C38.1225,6.2522,37,7.4916,37,9
			c0,1.3037,0.8359,2.416,2,2.8286v8.7573l-4.0708,4.0708C33.04,26.5454,32,29.0566,32,31.728v0.194
			c0.6951,0.3511,1.3608,0.7488,2,1.1829V31.728c0-2.1367,0.832-4.146,2.3433-5.6572L41,21.4141V10h-1c-0.5513,0-1-0.4487-1-1
			s0.4487-1,1-1h8c0.5513,0,1,0.4487,1,1s-0.4487,1-1,1h-1v11.4141l4.6567,4.6567c1.3381,1.3381,2.1409,3.0674,2.3078,4.9292H38v2
			h16v24c0,1.103-0.897,2-2,2H38.2031c-0.5493,0.7061-1.1538,1.3735-1.8121,2H52c2.2056,0,4-1.7944,4-4V31.728
			C56,29.0566,54.96,26.5454,53.0708,24.6567z M47.019,3l-0.6272,3h-4.7836L40.981,3H47.019z"/>
		<path fill="#ffffff" d="M29,32.8247v-8.9961c1.1641-0.4126,2-1.5249,2-2.8286c0-1.5084-1.1225-2.7478-2.5738-2.9569L29.481,13
			H18.519l1.0547,5.0431C18.1225,18.2522,17,19.4916,17,21c0,1.3037,0.8359,2.416,2,2.8286v8.9731C12.4863,34.9429,8,41.0854,8,48
			c0,4.5679,1.9717,8.9307,5.4087,11.9702C14.1592,60.6343,15.1138,61,16.0967,61h15.8066c0.9824,0,1.937-0.3657,2.688-1.0293
			c3.6147-3.1963,5.5815-7.7886,5.3965-12.5986C39.7349,40.7959,35.2573,34.9194,29,32.8247z M27.019,15l-0.6272,3h-4.7836
			l-0.6273-3H27.019z M33.2666,58.4727C32.8813,58.8125,32.3975,59,31.9033,59H16.0967c-0.4941,0-0.978-0.1875-1.3628-0.5278
			C11.7256,55.812,10,51.9951,10,48c0-6.2749,4.2217-11.8232,10.2661-13.4922L21,34.3052V22h-1c-0.5513,0-1-0.4487-1-1s0.4487-1,1-1
			h8c0.5513,0,1,0.4487,1,1s-0.4487,1-1,1h-1v12.3203l0.729,0.2051C33.0645,36.0282,37.0486,40.6333,37.8449,46H14v1.99h23.9803
			C37.9775,51.9953,36.2907,55.7977,33.2666,58.4727z"/>
	</g>
</g>
</svg>

