<?xml version="1.0" encoding="utf-8"?>
<!-- Generator: Adobe Illustrator 18.1.1, SVG Export Plug-In . SVG Version: 6.00 Build 0)  -->
<svg version="1.2" baseProfile="tiny" xmlns="http://www.w3.org/2000/svg" xmlns:xlink="http://www.w3.org/1999/xlink" x="0px"
	 y="0px" width="128px" height="128px" viewBox="0 0 128 128" xml:space="preserve">
<g id="_x31_28px_boxes">
	<rect fill="none" width="128" height="128"/>
</g>
<g id="Production">
	<g>
		<path fill="#ffffff" d="M104.1283,115.7884c-1.4587-6.9641-6.9673-6.1052-9.8933-9.0313
			c-3.0532-3.0532-2.0357-6.9551-4.9194-7.9726c-3.0376-1.0718-4.8403,2.1196-10.5825-1.3316
			c-5.7422-3.4516-5.1792-8.7607-9.4356-8.7275c-4.2558,0.0332-5.1098,3.3779-9.7573,4.1216
			c-6.2981,1.0078-10.4904-4.7129-8.5041-9.3599c3.3396-7.8129,20.6589-8.587,30.145-14.2429
			c-3.8458,12.7804,15.3346,20.7865,29.0783,8.968c0.8704-0.7473,1.0589-2.0208,0.4422-2.988
			c-4.5889-7.2027-14.811-15.9017-22.8469-12.9727c0.6079-1.332,0.9927-2.7612,1.1467-4.2856
			c2.4408-24.1522-48.6341-30.6394-41.8203-31.4476c4.0986-0.4968,18.095-0.6572,32.4651,6.074
			C80.2557,7.1206,48.1666,9.2704,29.073,18.8819c-0.7762,0.3901-1.1942,1.2522-1.0203,2.1032
			c5.0442,24.6554,27.5578,41.4869,44.9831,26.2364c4.1719,2.7415,7.1748,6.0412,6.7913,9.8113
			c-0.8532,8.385-25.1223,7.4868-34.5628,18.4883c-1.3015-11.4144-17.9149-12.062-26.582-9.8851
			c-1.1128,0.2789-1.8513,1.3333-1.7329,2.4741c1.3703,13.1474,14.1118,24.2765,24.3989,16.878
			c-0.1865,3.5249,0.8755,7.7165,4.4287,12.3991c-1.9934,1.1685-3.3313,2.8868-4.9743,5.8074
			c-2.7637,4.9131-5.4239,1.1958-10.105,5.168c-2.3013,1.9522-3.9539,4.981-5.0078,7.4258H104.1283z"/>
	</g>
</g>
</svg>

