<?xml version="1.0" encoding="utf-8"?>
<!-- Generator: Adobe Illustrator 19.1.0, SVG Export Plug-In . SVG Version: 6.00 Build 0)  -->
<svg version="1.2" baseProfile="tiny" xmlns="http://www.w3.org/2000/svg" xmlns:xlink="http://www.w3.org/1999/xlink" x="0px"
	 y="0px" width="64px" height="64px" viewBox="0 0 64 64" xml:space="preserve">
<g id="box">
	<rect fill="none" width="64" height="64"/>
</g>
<g id="Production">
	<g>
		<path fill="#ffffff" d="M30,17c2.2056,0,4-1.7944,4-4s-1.7944-4-4-4s-4,1.7944-4,4S27.7944,17,30,17z M30,11c1.103,0,2,0.897,2,2
			s-0.897,2-2,2s-2-0.897-2-2S28.897,11,30,11z"/>
		<path fill="#ffffff" d="M35.5,45c-2.4814,0-4.5,2.0186-4.5,4.5s2.0186,4.5,4.5,4.5s4.5-2.0186,4.5-4.5S37.9814,45,35.5,45z
			 M35.5,52c-1.3784,0-2.5-1.1216-2.5-2.5s1.1216-2.5,2.5-2.5s2.5,1.1216,2.5,2.5S36.8784,52,35.5,52z"/>
		<path fill="#ffffff" d="M22,50c-2.2056,0-4,1.7944-4,4s1.7944,4,4,4s4-1.7944,4-4S24.2056,50,22,50z M22,56c-1.103,0-2-0.897-2-2
			s0.897-2,2-2s2,0.897,2,2S23.103,56,22,56z"/>
		<path fill="#ffffff" d="M47,17c-3.022,0-5.0498,0.7344-7.0112,1.4448C37.8779,19.2095,35.6948,20,32,20
			s-5.8779-0.7905-7.9888-1.5552C22.0498,17.7344,20.022,17,17,17c-6.0654,0-11,6.2803-11,14s4.9346,14,11,14
			c3.022,0,5.0498-0.7344,7.0112-1.4448C26.1221,42.7905,28.3052,42,32,42s5.8779,0.7905,7.9888,1.5552
			C41.9502,44.2656,43.978,45,47,45c6.0654,0,11-6.2803,11-14S53.0654,17,47,17z M47,43c-2.6709,0-4.3667-0.6143-6.3301-1.3252
			C38.5024,40.8896,36.0459,40,32,40s-6.5024,0.8896-8.6699,1.6748C21.3667,42.3857,19.6709,43,17,43c-4.9624,0-9-5.3833-9-12
			s4.0376-12,9-12c2.6709,0,4.3667,0.6143,6.3301,1.3252C25.4976,21.1104,27.9541,22,32,22s6.5024-0.8896,8.6699-1.6748
			C42.6333,19.6143,44.3291,19,47,19c4.9624,0,9,5.3833,9,12S51.9624,43,47,43z"/>
		<circle fill="#ffffff" cx="47.5" cy="36.5" r="1.5"/>
		<circle fill="#ffffff" cx="41.5" cy="25.5" r="1.5"/>
		<circle fill="#ffffff" cx="15.5" cy="36.5" r="1.5"/>
		<circle fill="#ffffff" cx="27.5" cy="35.5" r="1.5"/>
		<circle fill="#ffffff" cx="16.5" cy="23.5" r="1.5"/>
		<circle fill="#ffffff" cx="31" cy="28" r="2"/>
		<circle fill="#ffffff" cx="50" cy="29" r="2"/>
		<circle fill="#ffffff" cx="19" cy="30" r="2"/>
		<circle fill="#ffffff" cx="38" cy="35" r="2"/>
	</g>
</g>
</svg>

