<?xml version="1.0" encoding="utf-8"?>

<svg version="1.2" baseProfile="tiny" xmlns="http://www.w3.org/2000/svg" xmlns:xlink="http://www.w3.org/1999/xlink" x="0px"
	 y="0px" width="128px" height="128px" viewBox="0 0 128 128" xml:space="preserve">
<g id="_x31_28px_boxes">
	<rect fill="none" width="128" height="128"/>
</g>
<g id="Production">
	<g>
		<path fill="#ffffff" d="M112.66,25.4919H49.588c-5.2477,0-9.4866,4.2522-9.4866,9.4811l0.0004,1.0127
			c-2.1006,0-4.6865-0.2341-8.1804,2.1952c-1.4082,0.9789-26.068,19.3493-26.068,19.3493v38.6226
			c3.0507,0.5317,7.504,1.3885,12.6915,1.3885c6.9569-0.0005,11.8676-1.6033,15.9099-3.9632
			c0.8841,2.2481,2.5824,4.1839,4.9303,5.3066c3.3867,1.6058,7.2787,1.1192,10.158-1.0517c0.9554,1.5852,2.3682,2.8692,4.1173,3.708
			c4.5322,2.1787,10.3362,0.8376,13.2576-5.3633c0.7822,0.9126,1.7548,1.6631,2.8856,2.2066
			c4.7726,2.2915,10.3989-0.0316,12.6875-4.8787c0.0226-0.0479,0.0441-0.0972,0.064-0.1465
			c0.0157-0.039,1.5239-3.7615,5.6148-12.4822H112.66c5.2443,0,9.4866-4.2453,9.4866-9.4891V34.973
			C122.1405,29.7346,117.9043,25.4919,112.66,25.4919z M11.3534,91.4924V60.2913c7.172-5.3417,22.6577-16.8647,23.7075-17.5945
			c1.9919-1.385,3.0695-1.2111,5.0427-1.2111l0.0031,20.2521c-2.0573,0.8953-4.0761,1.8594-5.978,2.8807
			c-3.2013,1.719-0.6032,6.5667,2.602,4.8455c7.2415-3.8892,16.809-7.0834,22.8048-8.3638
			c3.9887-0.8519,6.5508,0.3632,7.0204,2.0042c0.619,2.1615,0.353,3.87-2.9575,5.1826
			c-13.9223,5.5217-17.9935,8.9859-24.0481,14.3893C32.6615,88.824,27.1545,93.7368,11.3534,91.4924z M47.5363,91.8489
			c-1.0278,2.167-3.6274,3.0935-5.7869,2.07c-1.4954-0.7151-2.4024-2.1736-2.4851-3.7241
			c3.7198-3.0241,6.9168-6.3904,11.2037-9.3179h2.2074L47.5363,91.8489z M61.654,94.4458
			c-1.0194,2.1506-3.3741,3.2136-5.6131,2.1372c-2.2646-1.0862-2.9172-3.5541-1.8773-5.719
			c0.0044-0.009,0.0086-0.0181,0.0129-0.0273l4.6502-9.9598h9.2132C67.5753,81.8772,68.4325,80.0532,61.654,94.4458z
			 M77.4882,91.2185c-2.3918,4.8908-9.2693,2.1355-6.6735-3.2598c0.0054-0.0112,0.0107-0.0224,0.016-0.0337
			c2.2399-4.8225,1.5706-3.3902,3.1568-6.7582c0.044-0.0933,0.0811-0.1878,0.1137-0.283l0.0032-0.0069h7.9959
			C79.0134,87.5285,77.7158,90.6611,77.4882,91.2185z M115.615,71.3878c0,1.6405-1.3113,2.9606-2.955,2.9606H63.3401
			c0.7355-0.3177,1.491-0.6335,2.2859-0.9488c11.5686-4.5871,7.6425-20.8558-7.2392-17.678
			c-3.2296,0.6895-7.3919,1.876-11.7464,3.4348l-0.0049-8.3177h68.9795V71.3878z M115.615,39.2296H46.6355v-4.2482
			c0-1.6438,1.3258-2.9723,2.9525-2.9636h63.072c1.6352,0,2.955,1.3198,2.955,2.9552V39.2296z"/>
	</g>
</g>
</svg>
