<?xml version="1.0" encoding="utf-8"?>
<!-- Generator: Adobe Illustrator 18.1.1, SVG Export Plug-In . SVG Version: 6.00 Build 0)  -->
<svg version="1.2" baseProfile="tiny" xmlns="http://www.w3.org/2000/svg" xmlns:xlink="http://www.w3.org/1999/xlink" x="0px"
	 y="0px" width="64px" height="64px" viewBox="0 0 64 64" xml:space="preserve">

<g id="Production">
	<g>
		<circle fill="#ffffff" cx="22" cy="55" r="2"/>
		<path fill="#ffffff" d="M35,50H9V18h8.0322c0.0427-0.6768,0.1306-1.3436,0.2572-2H9v-2c0-1.103,0.897-2,2-2h7.6245
			c0.3306-0.6865,0.7036-1.3553,1.1251-2H11c-2.2056,0-4,1.7944-4,4v42c0,2.2056,1.7944,4,4,4h22c2.2056,0,4-1.7944,4-4V37.9746
			c-0.8196-0.0157-1.4614-0.0371-2-0.0603V50z M35,56c0,1.103-0.897,2-2,2H11c-1.103,0-2-0.897-2-2v-4h26V56z"/>
		<path fill="#ffffff" d="M40,2C28.4204,2,19,9.626,19,19c0,5.292,2.9463,10.1523,8.1011,13.3989
			c-0.2104,2.8794-2.0181,5.0747-2.8154,5.9111L22.6753,40h2.3345c3.1641,0,6.1372-1.3271,8.5981-3.8379
			c0.4994-0.509,0.9862-0.1826,4.0771-0.1826c0.0015,0,0.0015,0,0.0029,0C50.157,35.9795,61,31.072,61,19C61,9.626,51.5796,2,40,2z
			 M37.688,33.9795c-0.001,0-0.002,0-0.0029,0c-3.2099,0-4.2751-0.472-5.5054,0.7822c-1.4883,1.519-3.1304,2.5088-4.9014,2.958
			c0.916-1.4214,1.8091-3.3999,1.8418-5.7383c0.0059-0.4253-0.2178-0.8267-0.585-1.0483C23.7466,28.0581,21,23.709,21,19
			c0-8.271,8.5234-15,19-15s19,6.729,19,15C59,29.9277,48.919,33.9795,37.688,33.9795z"/>
		<polygon fill="#ffffff" points="40,20 40,28.9764 46.9485,13.0515 31.0237,20 		"/>
	</g>
</g>
</svg>
