<?xml version="1.0" encoding="utf-8"?>
<!-- Generator: Adobe Illustrator 18.1.1, SVG Export Plug-In . SVG Version: 6.00 Build 0)  -->
<svg version="1.2" baseProfile="tiny" xmlns="http://www.w3.org/2000/svg" xmlns:xlink="http://www.w3.org/1999/xlink" x="0px"
	 y="0px" width="128px" height="128px" viewBox="0 0 128 128" xml:space="preserve">
<g id="_x31_28px_boxes">
	<rect fill="none" width="128" height="128"/>
</g>
<g id="Production">
	<path fill="#ffffff" d="M111.4856,68.4438c-0.2139-0.7997-0.6346-1.5288-1.22-2.1141l-38.354-38.3544
		c-0.5852-0.5855-1.3145-1.0063-2.114-1.2201c-5.6947-1.5242-20.9673-2.0148-33.7409,11.8034
		c1.2421,0.6318,2.3817,1.5151,3.3456,2.6698c3.1356-0.6978,6.4719,0.0267,9.0496,2.1499c2.8108-0.9328,6.0316-0.2832,8.2685,1.9541
		c3.1568,3.1565,3.1573,8.2744,0,11.4317c-3.2419,3.2415-8.5629,3.1594-11.6946-0.2766c3.1151-2.1025,3.4925-6.4819,0.8804-9.0955
		c-2.442-2.4402-6.4871-2.3034-8.7417,0.4092c-0.1595-4.3289-4.7433-7.0044-8.5831-5.0597
		c1.6957-3.3483-0.1138-7.4452-3.7897-8.3973c2.5412-1.5417,3.4503-4.5843,2.4633-7.1719c2.5561,0.9755,5.5018,0.0883,7.0582-2.2708
		c1.1914,4.3777,6.683,5.8354,9.8931,2.6262c2.3116-2.3117,2.3109-6.0595,0-8.3718c-2.6509-2.6494-7.0638-2.2021-9.1319,0.931
		c-0.2616-0.962-0.7654-1.8719-1.5206-2.6273c-2.3124-2.3123-6.0604-2.3119-8.3718,0.0003c-1.703,1.703-2.1469,4.1848-1.3406,6.2983
		c-2.1137-0.8064-4.5955-0.3628-6.2985,1.3403c-3.2319,3.2329-1.7257,8.7633,2.6963,9.91c-3.3314,2.0185-3.805,6.5628-1.123,9.2451
		c1.8567,1.8565,4.6385,2.2182,6.86,1.0932c-1.2371,2.4423-0.6763,5.561,1.6873,7.3724
		c-2.9537,9.2673-1.0756,16.6579-0.9513,17.1225c0.214,0.7994,0.6347,1.5283,1.2199,2.1135l38.3533,38.354
		c0.5852,0.5855,1.3147,1.0064,2.1145,1.2203c6.1496,1.6432,20.4663,1.521,32.5366-10.5499
		C115.9538,85.9626,111.6753,69.152,111.4856,68.4438z M72.0732,93.5788L54.0186,75.5221l3.729-3.7285l18.0546,18.0567
		L72.0732,93.5788z M85.6152,89.4574l-22.766-22.7655l3.7286-3.7287l22.7659,22.7652L85.6152,89.4574z M86.5954,72.7754
		L71.6806,57.8606l3.729-3.7287l14.9148,14.9148L86.5954,72.7754z"/>
</g>
</svg>
