<?xml version="1.0" encoding="utf-8"?>
<!-- Generator: Adobe Illustrator 17.1.0, SVG Export Plug-In . SVG Version: 6.00 Build 0)  -->
<!DOCTYPE svg [
	<!ENTITY ns_flows "http://ns.adobe.com/Flows/1.0/">
	<!ENTITY ns_extend "http://ns.adobe.com/Extensibility/1.0/">
	<!ENTITY ns_ai "http://ns.adobe.com/AdobeIllustrator/10.0/">
	<!ENTITY ns_graphs "http://ns.adobe.com/Graphs/1.0/">
]>
<svg version="1.2" baseProfile="tiny" xmlns:x="&ns_extend;" xmlns:i="&ns_ai;" xmlns:graph="&ns_graphs;"
	 xmlns="http://www.w3.org/2000/svg" xmlns:xlink="http://www.w3.org/1999/xlink" xmlns:a="http://ns.adobe.com/AdobeSVGViewerExtensions/3.0/"
	 x="0px" y="0px" width="128px" height="128px" viewBox="0 0 128 128" xml:space="preserve">
<g id="_x31_28px_boxes">
	<rect fill="none" width="128" height="128"/>
</g>
<g id="Production">
	<path fill="#ffffff" d="M118.9079,62.5683c-5.3823-1.6167-19.8232-6.9502-21.978-12.1515
		c-2.1524-5.1971,4.2871-19.1836,6.9502-24.1341c0.7258-1.3505-0.7491-2.832-2.104-2.1046
		c-4.9424,2.6584-18.9698,9.0863-24.1363,6.9483C72.4421,28.9735,67.1056,14.5316,65.488,9.1483
		c-0.4463-1.4859-2.5513-1.4675-2.9805,0.0162c-1.5449,5.3486-6.7393,19.7202-12.1489,21.9609
		c-5.3418,2.2103-19.051-4.1426-24.1201-6.9385c-1.3594-0.7503-2.8599,0.7514-2.1111,2.1109
		c2.6902,4.8745,9.1804,18.7094,6.9397,24.1185C28.8268,55.825,14.4555,61.0204,9.1076,62.5659
		c-1.4917,0.4313-1.4917,2.5549,0,2.9853c5.3486,1.5448,19.7207,6.7383,21.9604,12.1465
		c2.2398,5.4066-4.2504,19.2451-6.9406,24.1206c-0.7581,1.3778,0.7859,2.8825,2.1416,2.0937
		c5.2886-3.073,18.4148-9.2737,24.0896-6.9244c5.833,2.4165,10.7402,16.5916,12.1396,21.8723
		c0.3845,1.4574,2.5835,1.4576,2.9942,0.0332c1.5449-5.3496,6.7392-19.6945,12.1465-21.9342
		c5.3039-2.1961,19.0822,4.1678,24.1215,6.9624c1.439,0.7928,2.9388-0.8745,2.0528-2.2114
		c-2.7251-4.9668-9.1079-18.6432-6.8838-24.0127c2.2407-5.4087,16.6142-10.6034,21.9629-12.1487
		C120.3805,65.1183,120.3825,63.0099,118.9079,62.5683z M76.2719,85.3305c-11.9341,6.886-26.8918,2.5305-33.5442-9.0005
		c-4.4638-7.7364-4.2583-16.8559-0.2082-24.1774l-3.5359-2.1882c-1.2979-0.8034-1.2122-2.7261,0.156-3.4085l14.5906-7.2779
		c1.2949-0.6469,2.8249,0.297,2.8249,1.7482l-0.0029,16.3054c-0.0008,1.5265-1.6807,2.4652-2.981,1.6604l-3.6577-2.2636
		c-2.4375,4.6998-2.4619,10.4163,0.3342,15.263c4.295,7.4444,13.9593,10.2767,21.6858,5.8187
		c7.6006-4.384,10.2044-14.0839,5.8189-21.686c-3.1902-5.53-9.4717-8.6565-15.8372-7.8091v-8.7278
		c9.5396-0.8148,18.6499,4.0386,23.3574,12.1985C92.0551,63.5432,88.0309,78.5477,76.2719,85.3305z"/>
</g>
</svg>
