<?xml version="1.0" encoding="utf-8"?>
<!-- Generator: Adobe Illustrator 19.1.0, SVG Export Plug-In . SVG Version: 6.00 Build 0)  -->
<svg version="1.2" baseProfile="tiny" xmlns="http://www.w3.org/2000/svg" xmlns:xlink="http://www.w3.org/1999/xlink" x="0px"
	 y="0px" width="64px" height="64px" viewBox="0 0 64 64" xml:space="preserve">
<g id="box">
	<rect fill="none" width="64" height="64"/>
</g>
<g id="Production">
	<path fill="#ffffff" d="M54.0005,24H23.0576l7.6855-9.7808c1.4771-1.8804,1.3159-4.5742-0.375-6.2656
		c-1.833-1.833-4.8337-1.8706-6.6973,0.0093c-2.2007,2.2197-4.6807,4.6836-7.3711,7.3232
		C7.5918,23.8301,5.057,28.6523,5.057,35.9253c0,8.2085,1.7432,13.5469,5.4858,16.8003C15.1904,56.7658,22.1516,57,28.3003,57
		c4.2461,0,7.2734-2.5698,7.5562-6.3193c1.5781-1.0269,2.6929-2.6191,3.0942-4.4463c0.3213-1.4629,0.1431-2.9375-0.4849-4.1719
		c1.5249-1.4209,2.4453-3.1396,2.6162-4.9136c0.105-1.0874-0.082-2.1624-0.5454-3.1589h13.4702c2.8174,0,4.9942-2.2669,4.9932-4.991
		C58.9995,26.2427,56.7568,24,54.0005,24z M54.0068,32H36.5181c1.4343,1.6638,2.7784,2.8348,2.5732,4.957
		c-0.2151,2.2316-1.9128,3.6203-3.3086,4.7197c0.7467,1,1.6718,2.0464,1.2148,4.1284c-0.4189,1.9052-1.6028,2.8769-3.1196,3.6997
		c0,3.7665-2.1829,5.4951-5.5776,5.4951C15.0059,55,7.057,53.0814,7.057,35.9253c0-6.7104,2.2941-11.0195,10.6432-19.2114
		c2.6973-2.646,5.1841-5.1167,7.3906-7.3428c1.0616-1.0707,2.791-1.0756,3.8633-0.0034c0.9756,0.9761,1.0688,2.5308,0.2163,3.6162
		l-7.6851,9.7803c-0.4771,0.6069-0.564,1.4155-0.2266,2.1099S22.2856,26,23.0576,26h30.9429c1.6538,0,2.999,1.3457,2.9995,2.9995
		C57,30.6568,55.6665,32,54.0068,32z"/>
</g>
</svg>

