<?xml version="1.0" encoding="utf-8"?>

<svg version="1.2" baseProfile="tiny" xmlns="http://www.w3.org/2000/svg" xmlns:xlink="http://www.w3.org/1999/xlink" x="0px"
	 y="0px" width="128px" height="128px" viewBox="0 0 128 128" xml:space="preserve">
<g id="_x31_28px_boxes">
	<rect fill="none" width="128" height="128"/>
</g>
<g id="Production">
	<path fill="#ffffff" d="M103.8223,62.7985c-3.5967,7.1511-11.323,12.6948-16.6885,15.3125
		c-1.7539,0.8553-3.0386-1.5341-1.5669-2.5852c2.9512-2.1088,9.7786-6.48,12.707-14.6919c-0.0051-0.001-0.0097-0.0026-0.0149-0.0036
		c5.6543-16.0768-6.215-33.2958-23.5844-33.2958c-7.7532,0-14.6812,3.5298-19.2669,9.0695
		c-2.7222-1.8522-6.0085-2.9368-9.5495-2.9368c-9.9953,0-17.9125,8.6108-16.9144,18.6939C19.8789,56.1147,13.5,65.0436,13.5,75.4655
		c0,13.8071,11.1929,25,25,25h56c11.0457,0,20-8.9544,20-20C114.5,72.7914,110.166,66.149,103.8223,62.7985z"/>
</g>
</svg>
