<?xml version="1.0" encoding="utf-8"?>
<!-- Generator: Adobe Illustrator 18.1.0, SVG Export Plug-In . SVG Version: 6.00 Build 0)  -->
<svg version="1.2" baseProfile="tiny" xmlns="http://www.w3.org/2000/svg" xmlns:xlink="http://www.w3.org/1999/xlink" x="0px"
	 y="0px" width="64px" height="64px" viewBox="0 0 64 64" xml:space="preserve">
<g id="_x36_4px_boxes">
	<rect fill="none" width="64" height="64"/>
</g>
<g id="Production">
	<g>
		<path fill="#ffffff" d="M53.5,4h-43C6.916,4,4,6.916,4,10.5v11c0,3.067,2.1379,5.6384,5,6.3183V21.5v-2.5001V10.5
			C9,9.6729,9.6729,9,10.5,9h43c0.8271,0,1.5,0.6729,1.5,1.5v8.4999V21.5v6.3183c2.8621-0.6799,5-3.2513,5-6.3183v-11
			C60,6.916,57.084,4,53.5,4z"/>
		<polygon fill="#ffffff" points="13,13 13,51 42,51 42,13 37,13 37,46 18,46 18,13 		"/>
		<polygon fill="#ffffff" points="46,55 21,55 21,60 51,60 51,13 46,13 		"/>
		<path fill="#ffffff" d="M26.8307,33.8812c-1.7275,0-3.3027-0.5591-4.4463-1.1182l-0.8379,3.5317
			c0.9902,0.5078,2.7178,0.9907,4.4971,1.0669v2.3628h2.8955v-2.5913c3.0488-0.5337,4.7256-2.4902,4.7256-4.8525
			c0-2.312-1.168-3.7603-4.3691-4.8018c-2.1348-0.7622-2.998-1.2451-2.998-1.8804c0-0.5586,0.457-1.0923,1.9561-1.0923
			c1.9307,0,3.1504,0.5845,3.8359,0.8638l0.8135-3.3789c-0.8896-0.3813-2.083-0.7368-3.8369-0.813v-2.1343h-2.8955v2.3374
			c-2.8965,0.5845-4.4971,2.4136-4.4971,4.7256c0,2.5659,1.9561,3.8618,4.7002,4.751c1.9053,0.5845,2.6416,1.0669,2.6416,1.8545
			C29.0153,33.5252,28.1266,33.8812,26.8307,33.8812z"/>
	</g>
</g>
</svg>

