<?xml version="1.0" encoding="utf-8"?>
<!-- Generator: Adobe Illustrator 18.1.1, SVG Export Plug-In . SVG Version: 6.00 Build 0)  -->
<svg version="1.2" baseProfile="tiny" xmlns="http://www.w3.org/2000/svg" xmlns:xlink="http://www.w3.org/1999/xlink" x="0px"
	 y="0px" width="128px" height="128px" viewBox="0 0 128 128" xml:space="preserve">
<g id="_x31_28px_boxes">
	<rect fill="none" width="128" height="128"/>
</g>
<g id="Production">
	<g>
		<path fill="#ffffff" d="M64.0173,37.6502l-6.6802-21.6359c-0.4558-1.4764-1.8203-2.4832-3.3654-2.4832H42.6226
			c-1.545,0-2.9097,1.0068-3.3655,2.4832l-6.6804,21.6359H64.0173z"/>
		<path fill="#ffffff" d="M79.0835,41.3551c-5.634,0-16.8157,1.5908-25.9912,10.8767H28.0742l-5.3276,17.2541h-3.4014
			c-9.3089,0-9.3185,14.0892,0,14.0892h23.6204c2.7297,17.4777,17.8859,30.8938,36.1179,30.8938
			c20.1574,0,36.5566-16.3994,36.5566-36.5569S99.2409,41.3551,79.0835,41.3551z M101.6565,95.3583
			c-0.2351-0.7898-3.4619-10.1292-4.722-11.6839c-8.8432,3.8619-14.3232,3.2393-14.25,3.4256
			c-1.01,8.7697-2.7341,12.9067-2.7341,12.9067l8.9021,4.7248C70.2732,111.5208,50.541,97.6718,50.541,77.912
			c0-19.196,18.7367-33.0569,37.155-27.2131c0,0-1.6179,8.3747-1.903,10.1269c4.2983,0.7939,9.1315,3.7105,12.4335,7.7432
			c1.1563-0.6577,6.3081-3.5669,6.3081-3.5669C109.4393,74.6326,108.533,86.4807,101.6565,95.3583z"/>
		<path fill="#ffffff" d="M74.6609,79.0565c-0.6946-7.5202,0.5881-13.6133,0.5881-13.6133s-3.5745-1.9067-11.2834-2.5044
			c-1.6243-0.4858-8.3743,10.2642-9.3755,12.7163c1.043,1.9229,3.3344,6.1729,7.1533,9.7115
			C68.7581,81.203,73.5081,79.6197,74.6609,79.0565z"/>
	</g>
</g>
</svg>
