<?xml version="1.0" encoding="utf-8"?>

<svg version="1.2" baseProfile="tiny" xmlns="http://www.w3.org/2000/svg" xmlns:xlink="http://www.w3.org/1999/xlink" x="0px"
	 y="0px" width="128px" height="128px" viewBox="0 0 128 128" xml:space="preserve">
<g id="_x31_28px_boxes">
	<rect fill="none" width="128" height="128"/>
</g>
<g id="Production">
	<g>
		<path fill="#ffffff" d="M88.0398,75.4466c-5.3242,0.0078-9.6199,4.3089-9.6277,9.628c0.0078,5.3193,4.3086,9.6201,9.6277,9.6279
			c5.3191-0.0078,9.6203-4.3086,9.6279-9.6279C97.6601,79.7555,93.3589,75.4544,88.0398,75.4466z"/>
		<path fill="#ffffff" d="M108.3521,101.8402V48.0611c0-1.9791-1.6164-3.6187-3.6187-3.6187H39.3061l45.6026-20.7356
			c0.8948,0.5027,1.9387,0.7336,3.0264,0.5847c2.6724-0.364,4.5469-2.8337,4.1878-5.5061
			c-0.3665-2.6804-2.8416-4.5576-5.5142-4.1907c-2.2644,0.3052-3.9363,2.1236-4.1904,4.2957l-51.3731,23.367
			c-0.9026,0.4075-1.4312,1.2617-1.531,2.185h-6.2554c-2.0228,0-3.6109,1.6659-3.6109,3.6187v53.7791
			c0,2.0237,1.6683,3.6108,3.6109,3.6108h81.4746C106.7301,105.451,108.3521,103.8237,108.3521,101.8402z M78.1944,51.9747h22.4565
			v11.7361H78.1944V51.9747z M33.7124,95.9437c0,0.9949-0.8127,1.8054-1.8052,1.8054c-1.0029,0-1.8135-0.8105-1.8135-1.8054V73.9029
			c0-0.9953,0.8106-1.8056,1.8135-1.8056c0.9924,0,1.8052,0.8103,1.8052,1.8056V95.9437z M41.5069,95.9437
			c0,0.9949-0.8135,1.8054-1.8057,1.8054c-1.0027,0-1.8132-0.8105-1.8132-1.8054V73.9029c0-1.0002,0.8106-1.8056,1.8132-1.8056
			c0.9922,0,1.8057,0.8054,1.8057,1.8056V95.9437z M49.2984,95.9437c0,0.9949-0.8184,1.8054-1.8057,1.8054
			c-1.0078,0-1.8108-0.8105-1.8108-1.8054V73.9029c0-0.9953,0.803-1.8056,1.8108-1.8056c0.9873,0,1.8057,0.8103,1.8057,1.8056
			V95.9437z M57.084,95.9437c0,0.9949-0.8179,1.8054-1.8049,1.8054c-0.9953,0-1.8108-0.8105-1.8108-1.8054V73.9029
			c0-1.0002,0.8154-1.8056,1.8108-1.8056c0.9871,0,1.8049,0.8054,1.8049,1.8056V95.9437z M64.8784,95.9437
			c0,0.9949-0.8184,1.8054-1.813,1.8054c-0.9951,0-1.7979-0.8105-1.7979-1.8054V73.9029c0-0.9953,0.8027-1.8056,1.7979-1.8056
			c0.9946,0,1.813,0.8103,1.813,1.8056V95.9437z M73.6726,63.7108h-46.323V51.9747h46.323V63.7108z M88.0398,98.3058
			c-7.3142,0-13.2437-5.9246-13.2437-13.2312c0-7.3145,5.9295-13.2388,13.2437-13.2439
			c7.3071,0.0051,13.2317,5.9294,13.2444,13.2439C101.2715,92.3812,95.3469,98.3058,88.0398,98.3058z"/>
	</g>
</g>
</svg>
