<?xml version="1.0" encoding="utf-8"?>
<!-- Generator: Adobe Illustrator 18.1.1, SVG Export Plug-In . SVG Version: 6.00 Build 0)  -->
<svg version="1.2" baseProfile="tiny" xmlns="http://www.w3.org/2000/svg" xmlns:xlink="http://www.w3.org/1999/xlink" x="0px"
	 y="0px" width="128px" height="128px" viewBox="0 0 128 128" xml:space="preserve">
<g id="_x31_28px_boxes">
	<rect fill="none" width="128" height="128"/>
</g>
<g id="Production">
	<g>
		<path fill="#ffffff" d="M107.8953,23.0697c0-0.0024,0-0.0024,0-0.0024c-0.6509-0.6587-1.5625-1.0347-2.4917-1.0347H22.5969
			c-1.9116,0-3.5268,1.5503-3.5268,3.5293v58.1887c0,1.9004,1.5464,3.5239,3.5268,3.5239h82.8067
			c1.9668,0,3.5263-1.5984,3.5263-3.5239V25.5619C108.9299,24.6254,108.5613,23.7235,107.8953,23.0697z M103.8792,80.2189
			c0,1.1045-0.8956,2-2,2H26.1204c-1.1045,0-2-0.8955-2-2V29.0887c0-1.1044,0.8955-2,2-2h75.7588c1.1044,0,2,0.8956,2,2V80.2189z"/>
		<path fill="#ffffff" d="M28.1204,78.2189h71.7588V31.0887H28.1204V78.2189z M74.9929,43.6583
			c1.1853-0.7082,2.7202-0.3208,3.4282,0.8643l9.6651,16.1814c0.708,1.1853,0.321,2.7202-0.8643,3.4282
			c-1.1853,0.7083-2.7202,0.321-3.4282-0.8643l-9.665-16.1814C73.4207,45.9012,73.8076,44.3663,74.9929,43.6583z M64.927,43.3844
			c1.9092,0,3.3821,1.4907,3.3821,3.3477c0,1.8795-1.4971,3.3476-3.3821,3.3476c-1.8611,0-3.3477-1.4665-3.3477-3.3476
			C61.5793,44.864,63.053,43.3844,64.927,43.3844z M64.927,57.7423c1.8716,0,3.3821,1.4331,3.3821,3.3479
			c0,1.8999-1.5176,3.3303-3.3821,3.3303c-1.8545,0-3.3477-1.4441-3.3477-3.3303C61.5793,59.1744,63.0786,57.7423,64.927,57.7423z
			 M49.6252,43.3055c1.939,0,3.8138,0.3453,5.5723,1.0264c0.5967,0.231,0.9107,0.8862,0.7168,1.4959l-0.7041,2.2155
			c-0.2063,0.649-0.9075,0.9986-1.5488,0.7781c-1.4917-0.5146-2.8382-0.7754-4.002-0.7754c-3.4826,0-5.1953,2.4111-5.1953,5.865
			c0,3.1837,1.9307,5.8479,5.2295,5.8479c1.3623,0,2.7947-0.27,4.2573-0.8027c0.3284-0.1201,0.6929-0.0918,0.9995,0.0776
			c0.7161,0.3949,0.6775,1.1709,1.0621,2.9512c0.1201,0.5564-0.1634,1.1213-0.6812,1.3574
			c-1.7087,0.7791-3.6055,1.1741-5.6377,1.1741c-6.457,0-10.4678-4.3728-10.4678-10.6055
			C39.2258,47.4677,43.5127,43.3055,49.6252,43.3055z"/>
		<path fill="#ffffff" d="M81.7419,99.0287h-5.7983v-7.3486H52.064v7.3486h-5.7957c-3.8144,0-6.9028,3.0932-6.9028,6.9028
			c0,0.0479,49.279,0.0479,49.279,0C88.6445,102.1219,85.5566,99.0287,81.7419,99.0287z"/>
	</g>
</g>
</svg>
