<?xml version="1.0" encoding="utf-8"?>
<!-- Generator: Adobe Illustrator 19.1.0, SVG Export Plug-In . SVG Version: 6.00 Build 0)  -->
<svg version="1.2" baseProfile="tiny" xmlns="http://www.w3.org/2000/svg" xmlns:xlink="http://www.w3.org/1999/xlink" x="0px"
	 y="0px" width="64px" height="64px" viewBox="0 0 64 64" xml:space="preserve">
<g id="box">
	<rect fill="none" width="64" height="64"/>
</g>
<g id="Production">
	<g>
		<rect x="23" y="14" fill="#ffffff" width="18" height="2"/>
		<path fill="#ffffff" d="M47,14v2h8v9H9v-9h8v-2H7v40h50V14H47z M9,52V27h46v25H9z"/>
		<rect x="19" y="8" fill="#ffffff" width="2" height="11"/>
		<rect x="43" y="8" fill="#ffffff" width="2" height="11"/>
		<path fill="#ffffff" d="M27.7495,41.2139c1.3496-0.9437,2.5627-1.994,3.146-3.5195c0.5065-1.3271,0.4011-3.3444-0.7808-4.7744
			c-0.9796-1.1815-2.3605-1.6279-3.8833-1.6279c-0.8652,0-1.6245,0.1504-2.2769,0.4512c-2.1437,0.9877-3.0249,3.1088-3.0249,5.4893
			h2.5078c0.0549-2.0374,0.6101-3.8506,2.6401-3.8506c1.7119,0,2.5962,1.0666,2.5962,2.7285
			c-0.0439,1.7456-1.5383,3.0152-3.0801,3.9922c-1.8967,1.2076-3.1141,2.108-4.0259,3.5537
			c-0.6016,0.9531-0.9097,2.0674-0.9243,3.3438h10.5161v-2.2441h-7.502C24.0684,43.4066,25.9497,42.4763,27.7495,41.2139z"/>
		<path fill="#ffffff" d="M40.6504,37.2764c-1.6233-0.7142-4.2583-0.5974-5.3682,1.4297l-0.0439-0.0439
			c0.0992-1.1413,0.1581-2.1853,0.627-3.3994c0.4531-1.1662,1.3228-1.8809,2.563-1.8809c1.3708,0,2.1316,0.9004,2.2441,2.1123
			h2.5083c-0.0862-1.8245-1.2504-3.2663-2.9043-3.8945c-1.3591-0.5134-3.2244-0.3995-4.4771,0.418
			c-1.535,1.0038-2.3931,2.651-2.772,4.4443c-0.4041,1.9175-0.3733,4.0276-0.0547,5.9512c0.5134,3.1087,2.2039,4.8945,5.3677,4.8945
			c3.0242,0,5.126-2.2018,5.126-5.2578C43.4663,39.9586,42.5557,38.1121,40.6504,37.2764z M38.2524,45.2178
			c-1.7509,0-2.772-1.4463-2.772-3.2119c0-1.7936,1.0264-3.1455,2.772-3.1455c1.6602,0,2.7061,1.3131,2.7061,3.1455
			C40.9585,43.7951,39.9592,45.2178,38.2524,45.2178z"/>
	</g>
</g>
</svg>

