<?xml version="1.0" encoding="utf-8"?>
<!-- Generator: Adobe Illustrator 18.1.1, SVG Export Plug-In . SVG Version: 6.00 Build 0)  -->
<svg version="1.2" baseProfile="tiny" xmlns="http://www.w3.org/2000/svg" xmlns:xlink="http://www.w3.org/1999/xlink" x="0px"
	 y="0px" width="128px" height="128px" viewBox="0 0 128 128" xml:space="preserve">
<g id="box">
	<rect fill="none" width="128" height="128"/>
</g>
<g id="Production">
	<g>
		<path fill="#ffffff" d="M64.7203,100.1575c-1.077,1.0776-2.8218,1.0783-3.8992,0L13.6073,52.9446
			c-1.0747-1.0755-1.0747-2.8245,0-3.8999l9.5542-9.5537l7.0351,7.0354c0.6963-2.1778,1.9038-4.1739,3.5669-5.8367l4.2158-4.2158
			l-5.9004-5.8999l2.711-2.711c0.5205-0.5207,1.2129-0.8076,1.9497-0.8076c0.7363,0,1.4287,0.2869,1.9492,0.8076l3.9507,3.9502
			l5.2856-5.2851l-3.9506-3.9507c-1.9327-1.9329-4.502-2.9968-7.2349-2.9968c-2.7334,0-5.3027,1.0639-7.2354,2.9968L8.3216,43.7598
			c-3.9892,3.9895-3.9892,10.4807,0,14.4704l47.2134,47.2129c3.9998,3.9998,10.4702,3.9993,14.4705,0l3.9712-3.9712l-5.2857-5.2856
			L64.7203,100.1575z"/>
		<path fill="#ffffff" d="M119.6793,69.77L72.4664,22.5576c-3.9987-4.0002-10.4731-4.0007-14.4709-0.0005L36.8128,43.7388
			c-3.9978,3.9983-3.9992,10.4714,0,14.4712l47.2132,47.2133c3.9977,3.9972,10.4711,4.0007,14.4702,0l21.1831-21.1828
			C123.6671,80.2515,123.6676,73.7603,119.6793,69.77z M85.6978,67.1382l4.8731-0.7637l1.8589,1.8579l-7.0381,3.0154l-2.9028,6.926
			l-1.8594-1.8586l0.7246-4.9133l-5.9365-5.9366l-6.6333,13.6675l-2.5288-2.5342l2.5527-17.7424l-5.3674-5.3677
			c-2.5118-2.5117-3.5845-5.5117-2.3955-6.7007c1.1875-1.1875,4.1872-0.1145,6.6984,2.3973l5.3677,5.3664l17.7427-2.5503
			l2.5352,2.5274l-13.6675,6.6338L85.6978,67.1382z"/>
	</g>
</g>
</svg>
