<?xml version="1.0" encoding="utf-8"?>
<!-- Generator: Adobe Illustrator 18.1.1, SVG Export Plug-In . SVG Version: 6.00 Build 0)  -->
<svg version="1.2" baseProfile="tiny" xmlns="http://www.w3.org/2000/svg" xmlns:xlink="http://www.w3.org/1999/xlink" x="0px"
	 y="0px" width="64px" height="64px" viewBox="0 0 64 64" xml:space="preserve">

<g id="Production">
	<g>
		<path fill="#ffffff" d="M55.7568,15.7769l-0.015-0.015C56.5272,14.7468,57,13.4783,57,12.1011V5h-2v7.1011
			c0,2.1412-1.8048,3.9899-3.9741,4C40.8467,16.1494,17,16,17,16v34c0,2.2056-1.7944,4-4,4H6v2h7
			c1.6492,0,3.1446-0.6692,4.2302-1.7498l0.0266,0.0266C22.1122,49.4215,51.0258,20.5079,55.7568,15.7769z M50.6028,17.9926
			L19,49.7056V17.8961L50.6028,17.9926z"/>
		<polygon fill="#ffffff" points="48.5933,41.2798 47.1792,42.6938 53.4854,49 27.3361,49 25.3361,51 53.4854,51 47.1792,57.3062 
			48.5933,58.7202 57.3135,50 		"/>
	</g>
</g>
</svg>
