<?xml version="1.0" encoding="utf-8"?>
<!-- Generator: Adobe Illustrator 18.1.1, SVG Export Plug-In . SVG Version: 6.00 Build 0)  -->
<svg version="1.2" baseProfile="tiny" xmlns="http://www.w3.org/2000/svg" xmlns:xlink="http://www.w3.org/1999/xlink" x="0px"
	 y="0px" width="128px" height="128px" viewBox="0 0 128 128" xml:space="preserve">
<g id="box">
	<rect fill="none" width="128" height="128"/>
</g>
<g id="Production">
	<g>
		<path fill="#ffffff" d="M23.5029,29.2222c2.2632-0.6067,3.6062-2.9324,2.9995-5.1951c-0.6062-2.2632-2.9324-3.6062-5.1951-3
			l-11.1176,2.9797c-2.263,0.6065-3.6057,2.9322-2.9998,5.1951c0.6046,2.254,2.9212,3.6068,5.1953,2.9995l1.4617-0.3921
			l20.1789,75.3091h8.7832L22.0415,29.6135L23.5029,29.2222z"/>
		<path fill="#ffffff" d="M106.9978,31.2288c-4.125,5.0684-12.1524,8.8202-22.3135,7.2583
			c-11.0342-1.6961-17.2806-8.7254-29.2778-12.6448c-9.5237-3.1126-20.4687,0.5861-27.1058,6.8911
			c0.1919,0.7213,13.7535,51.6728,13.9456,52.394c4.6128-4.3914,12.3289-8.1191,19.595-8.1191
			c7.0508,0,14.6643,3.8347,20.6716,7.4756c7.2417,4.3893,13.8018,6.387,19.5606,6.6625c8.5698,0.4102,15.6191-3.4605,18.882-7.477
			L106.9978,31.2288z M66.7387,71.27L56.4963,32.761c10.6715,4.1324,12.1183,8.6282,26.3447,11.5271l10.292,38.6941
			C85.0433,80.0869,81.5412,74.686,66.7387,71.27z"/>
	</g>
</g>
</svg>
