<?xml version="1.0" encoding="utf-8"?>
<!-- Generator: Adobe Illustrator 17.1.0, SVG Export Plug-In . SVG Version: 6.00 Build 0)  -->
<!DOCTYPE svg [
	<!ENTITY ns_flows "http://ns.adobe.com/Flows/1.0/">
	<!ENTITY ns_extend "http://ns.adobe.com/Extensibility/1.0/">
	<!ENTITY ns_ai "http://ns.adobe.com/AdobeIllustrator/10.0/">
	<!ENTITY ns_graphs "http://ns.adobe.com/Graphs/1.0/">
]>
<svg version="1.2" baseProfile="tiny" xmlns:x="&ns_extend;" xmlns:i="&ns_ai;" xmlns:graph="&ns_graphs;"
	 xmlns="http://www.w3.org/2000/svg" xmlns:xlink="http://www.w3.org/1999/xlink" xmlns:a="http://ns.adobe.com/AdobeSVGViewerExtensions/3.0/"
	 x="0px" y="0px" width="128px" height="128px" viewBox="0 0 128 128" xml:space="preserve">
<g id="_x31_28px_boxes">
	<rect fill="none" width="128" height="128"/>
</g>
<g id="Production">
	<g>
		<path fill="#ffffff" d="M99.196,27.4113H84.8044c2.3682,3.5923,4.1016,7.5398,5.139,11.7035h12.3947v54.8783H65.1597v-9.25
			c-2.1885,0.7467-4.4493,1.2967-6.762,1.6366v17.107c0,5.4666,4.4324,9.8996,9.9033,9.8996h30.895
			c5.4673,0,9.8995-4.433,9.8995-9.8996V37.315C109.0955,31.8435,104.6633,27.4113,99.196,27.4113z M83.7488,108.808
			c-2.8003,0-5.0738-2.2737-5.0738-5.074c0-2.8076,2.2735-5.0774,5.0738-5.0774c2.8039,0,5.0776,2.2698,5.0776,5.0774
			C88.8264,106.5343,86.5527,108.808,83.7488,108.808z"/>
		<path fill="#ffffff" d="M81.4922,83.3424c0.0786,0.0077,0.1523,0.0077,0.2336,0.0077c2.201,0,3.0475-2.3528,1.1912-3.3158
			c-2.5833-1.317-5.1809-4.4146-6.5938-7.3144c6.3269-6.1488,10.2591-14.7484,10.2591-24.2674
			c0-18.6887-15.1502-33.8388-33.8389-33.8388S18.9045,29.7638,18.9045,48.4525c0,18.6885,15.1502,33.839,33.8389,33.839
			c4.9268,0,9.6074-1.054,13.8296-2.9472C74.2095,82.6637,81.4922,83.3424,81.4922,83.3424z M55.8855,69.5501
			c8.8625-12.0114-2.9966-26.0487-2.9966-26.0487s3.6438,12.9441,0.408,15.6305c-3.5515,2.948-6.1021-4.0282-6.1021-4.0282
			c-3.0249,6.9572-2.0102,11.5681-0.1806,14.4663c-4.6946-1.0557-8.7552-3.888-10.4168-8.6261
			c-5.1431-14.6626,20-34.4315,20-34.4315s-0.55,6.9619,2.8843,12.7841c3.4341,5.8225,11.5688,10.6889,8.5513,20.1667
			C66.2966,64.9171,61.3752,68.3396,55.8855,69.5501z"/>
	</g>
</g>
</svg>
