<?xml version="1.0" encoding="utf-8"?>
<!-- Generator: Adobe Illustrator 18.1.1, SVG Export Plug-In . SVG Version: 6.00 Build 0)  -->
<svg version="1.2" baseProfile="tiny" xmlns="http://www.w3.org/2000/svg" xmlns:xlink="http://www.w3.org/1999/xlink" x="0px"
	 y="0px" width="128px" height="128px" viewBox="0 0 128 128" xml:space="preserve">
<g id="box">
	<rect fill="none" width="128" height="128"/>
</g>
<g id="Production">
	<g>
		<path fill="#ffffff" d="M100.8039,90.7482c-1.7993-6.7158-14.0483-52.4445-16.1958-60.4615
			c-0.4745-1.7875-2.3293-2.831-4.0632-2.3553c-6.7176,1.8002-53.9996,14.4712-60.4707,16.2054
			c-1.7713,0.4756-2.8172,2.2942-2.3435,4.0655l16.2029,60.4635c0.4695,1.7656,2.2895,2.8161,4.0654,2.3436l60.4609-16.1958
			c1.7935-0.4893,2.8178-2.3082,2.346-4.0582L100.8039,90.7482z M66.2402,94.0267c-9.1506,2.4522-17.4771,1.0576-18.5911-3.1113
			c-1.1792-4.4094,5.9346-8.9316,11.0706-10.8679l-1.2486-4.6662l-14.2973,3.8348c-1.5291,0.3854-3.0978-0.6154-3.4649-2.0021
			c-0.4712-1.7609,0.9256-3.184,2.0047-3.4649l14.2947-3.8324l-1.7146-6.3927c-15.4262,4.1361-12.0814,3.2405-16.8035,4.5015
			c-1.5195,0.4071-3.0621-0.5038-3.4605-2.0046c-0.405-1.5026,0.4927-3.0526,2.0022-3.4578
			c6.4576-1.7292,2.6505-0.7093,16.8016-4.5011l-1.7124-6.3949c-0.5834,0.1563-14.4332,3.9264-15.0347,3.9264
			c-1.2486,0-2.3931-0.8291-2.7324-2.0917c-0.4029-1.5096,0.4992-3.062,2.0044-3.4671c7.5573-2.0251,28.3504-7.5956,35.6328-9.5465
			c1.5029-0.398,3.0573,0.4924,3.4577,1.9998c0.4077,1.5074-0.4922,3.0573-1.997,3.4623l-14.3072,3.8324l1.7151,6.3926
			l16.8059-4.5011c1.5022-0.4005,3.0569,0.4897,3.4575,1.9973c0.3982,1.5099-0.4924,3.0619-1.9975,3.467l-16.8035,4.5013
			l1.7149,6.3951l14.3022-3.8347c1.5073-0.4004,3.0591,0.4994,3.4668,2.0067c0.3982,1.5028-0.4993,3.0526-2.0066,3.4576
			l-14.2998,3.8348l1.2507,4.6639c7.66-1.2672,14.0621,0.2567,15.0345,3.8744C81.8151,85.9003,75.805,91.4626,66.2402,94.0267z"/>
		<path fill="#ffffff" d="M62.8298,81.3075c-2.4681,0.6613-3.8484,3.0566-3.2883,5.2314c0.6054,2.2448,3.0505,3.533,5.4648,2.8853
			c2.5164-0.6699,3.8475-3.1297,3.2854-5.2266C67.6936,81.9506,65.2485,80.6597,62.8298,81.3075z"/>
		<path fill="#ffffff" d="M107.0693,16.8774H44.4716c-1.8497,0-3.3117,1.4824-3.3117,3.3167v13.9983l38.0988-10.2086
			c3.8077-1.2073,8.2308,1.0275,9.3509,5.2242l15.2397,56.8976h3.22c1.8229,0,3.314-1.4677,3.314-3.3164V20.1941
			C110.3833,18.3446,108.8967,16.8774,107.0693,16.8774z"/>
	</g>
</g>
</svg>
