<?xml version="1.0" encoding="utf-8"?>
<!-- Generator: Adobe Illustrator 18.1.1, SVG Export Plug-In . SVG Version: 6.00 Build 0)  -->
<svg version="1.2" baseProfile="tiny" xmlns="http://www.w3.org/2000/svg" xmlns:xlink="http://www.w3.org/1999/xlink" x="0px"
	 y="0px" width="128px" height="128px" viewBox="0 0 128 128" xml:space="preserve">
<g id="box">
	<rect fill="none" width="128" height="128"/>
</g>
<g id="Production">
	<g>
		<path fill="#ffffff" d="M62.9329,59.1971L78.2026,74.462l-4.322,2.4588c-0.9783,0.5448-0.8262,2.0443,0.3013,2.3525
			l18.2104,4.8858c0.1089,0.0271,0.2177,0.0419,0.3264,0.0419c0.8682,0,1.4479-0.8106,1.2505-1.6186l-4.8833-18.2131
			c-0.3013-1.1123-1.7852-1.2922-2.3401-0.3113l-2.7332,4.6953L60.9757,45.7291l-6.818,12.5388l-14.39-14.4689L34,49.5419h-0.0076
			l22.1101,22.2263L62.9329,59.1971z"/>
		<path fill="#ffffff" d="M103.1429,26.473h-78.286c-1.7033,0-3.0815,1.3756-3.0815,3.0745v68.8977
			c0,1.7039,1.3793,3.0818,3.0815,3.0818h78.286c1.6955,0,3.0817-1.3783,3.0817-3.0818V29.5475
			C106.2246,27.8996,104.8828,26.473,103.1429,26.473z M100.0637,95.3661h-72.135V32.6266l72.135,0.0049V95.3661z"/>
	</g>
</g>
</svg>
