<?xml version="1.0" encoding="utf-8"?>
<!-- Generator: Adobe Illustrator 18.1.1, SVG Export Plug-In . SVG Version: 6.00 Build 0)  -->
<svg version="1.2" baseProfile="tiny" xmlns="http://www.w3.org/2000/svg" xmlns:xlink="http://www.w3.org/1999/xlink" x="0px"
	 y="0px" width="64px" height="64px" viewBox="0 0 64 64" xml:space="preserve">

<g id="Production">
	<g>
		<polygon fill="#ffffff" points="52,49 52,32 50,32 50,51 63,51 63,49 		"/>
		<path fill="#ffffff" d="M40,42c-4.0718,0-7.4359,3.0601-7.9305,7H17.4985c-0.9817-2.3464-3.3002-4-5.9985-4
			C7.916,45,5,47.916,5,51.5S7.916,58,11.5,58c3.7239,0,6.7689-3.1617,6.4746-7h14.0948c0.4946,3.9399,3.8588,7,7.9305,7
			c4.4111,0,8-3.5889,8-8S44.4111,42,40,42z M11.5,56C9.0186,56,7,53.9814,7,51.5S9.0186,47,11.5,47s4.5,2.0186,4.5,4.5
			S13.9814,56,11.5,56z M40,56c-3.3086,0-6-2.6914-6-6s2.6914-6,6-6s6,2.6914,6,6S43.3086,56,40,56z"/>
		<path fill="#ffffff" d="M7,44.3021V32c0-1.103,0.897-2,2-2h13c2.7568,0,5,2.2432,5,5v3h12c0,0.0098,0,0.019,0,0.0288v2.0219
			c0.6738-0.0672,1.3207-0.0678,2,0v-2.0219c0-0.7808-0.1138-1.5552-0.3384-2.3013L32.5938,8.8672
			C32.0957,7.1792,30.5181,6,28.7578,6H14.5C12.5703,6,11,7.5703,11,9.5V28H9c-2.2056,0-4,1.7944-4,4v14.034
			C5.5706,45.3568,6.2469,44.7745,7,44.3021z M13,9.5C13,8.6729,13.6729,8,14.5,8h14.2578c0.8799,0,1.6689,0.5894,1.9194,1.438
			L38.6553,36H29v-1c0-3.8599-3.1401-7-7-7h-9V9.5z"/>
		<path fill="#ffffff" d="M46,42.019c0.7583,0.5715,1.4309,1.2463,2,2.0063V6h-2V42.019z"/>
	</g>
</g>
</svg>
