<?xml version="1.0" encoding="utf-8"?>
<!-- Generator: Adobe Illustrator 18.1.1, SVG Export Plug-In . SVG Version: 6.00 Build 0)  -->
<svg version="1.2" baseProfile="tiny" xmlns="http://www.w3.org/2000/svg" xmlns:xlink="http://www.w3.org/1999/xlink" x="0px"
	 y="0px" width="64px" height="64px" viewBox="0 0 64 64" xml:space="preserve">

<g id="Production">
	<g>
		<path fill="#ffffff" d="M55.0045,45h-1.707c0.2102-0.3776,8.486-15.2003,8.6416-15.6035
			c0.7327-1.8713-0.7207-4.9561-4.9708-5.9724L57,16.0029H30.029l-4.0431,1.7854V15h-3.9977v-5H5v5H1v5c0,1.6543,1.3449,3,2.9983,3
			H5v17.3151l-3.9063,1.0341C0.456,46.33,3.268,50.7053,7.1332,54H63v-1C63,48.5889,59.4132,45,55.0045,45z M55.0011,23.1038
			c-6.9479-0.6862-16.4429,2.1003-23.0187,4.6908V18h23.0187V23.1038z M30,18.198v10.418c-1.1968,0.522-2.2635,1.2761-3.1338,2.2512
			l-4.2754,4.7881l-11.5965,3.0715V26.6494L30,18.198z M6.9966,39.6992V21H3.9983c-0.551,0-0.9994-0.4487-0.9994-1v-3h3.9977v-5H20
			v5h3.987v1.678L9,25.3506v13.9056C8.4865,39.3922,7.4817,39.6992,6.9966,39.6992z M7.874,52
			c-4.2964-3.7954-4.861-7.5923-4.9015-9.0796c9.361-2.4792,4.5245-1.1983,20.7094-5.4849l4.6746-5.2363
			c0.6944-0.7773,1.5338-1.3784,2.4952-1.7852c15.4921-6.5557,29.7548-7.2347,29.1563-1.5791L49.8961,47h5.1084
			c2.9661,0,5.4359,2.166,5.9132,5H7.874z"/>
		<path fill="#ffffff" d="M37.3168,38.1969c1.4704,3.1776,4.7924,1.781,3.3236-1.394
			C39.1695,33.6245,35.8479,35.0221,37.3168,38.1969z"/>
	</g>
</g>
</svg>
