<?xml version="1.0" encoding="utf-8"?>
<!-- Generator: Adobe Illustrator 18.1.1, SVG Export Plug-In . SVG Version: 6.00 Build 0)  -->
<svg version="1.2" baseProfile="tiny" xmlns="http://www.w3.org/2000/svg" xmlns:xlink="http://www.w3.org/1999/xlink" x="0px"
	 y="0px" width="128px" height="128px" viewBox="0 0 128 128" xml:space="preserve">
<g id="box">
	<rect fill="none" width="128" height="128"/>
</g>
<g id="Production">
	<g>
		<path fill="#ffffff" d="M31.5654,36.1139c-1.3769-3.7254,0.0076-9.0205,5.0835-10.8897c4.6921-1.716,9.3699,0.8118,11.0056,5.3579
			c2.1851-1.3275,4.2022-2.0597,7.0559-2.3125c-3.3991-9.3456-12.7917-12.9753-20.6218-10.0063
			c-8.5723,3.0739-12.3975,12.4594-9.5027,20.3899c2.083,5.7058,17.9297,50.625,19.7412,55.5793
			c0.9219,2.4908,0.8235,6.7031-4.0185,8.5984c-4.0037,1.4608-7.2806-0.4857-8.5982-4.0027
			c-1.105-3.0454-9.4053-27.2715-9.4211-27.3005c-0.6565-1.9353-2.7737-2.9663-4.7092-2.3045
			c-1.938,0.667-2.9742,2.7764-2.3072,4.712c0.0081,0.0288,8.2742,24.1601,9.4502,27.4243
			c2.544,7.128,10.1023,11.3823,18.1299,8.4533c7.4644-2.6386,11.23-10.4539,8.4534-18.1274
			C49.5293,86.8497,33.6826,41.9146,31.5654,36.1139z"/>
		<path fill="#ffffff" d="M108.6445,74.0589c-2.3889-3.5832-14.5442-20.7878-14.5442-20.7878
			c-0.29-0.4221-0.9824-0.2692-1.0361,0.2742c-2.9475,31.5223-3.0401,30.0069-2.4075,30.2458
			c0.2654,0.0982,0.5105,0.014,0.6619-0.1741l5.1443-6.6496c0.6801,1.0071,1.4607,2.1753,2.4021,3.5964
			c5.3003,7.9711,0.6186,15.674-4.6961,17.5474c-6.1489,2.2226-12.8484-0.977-15.0398-7.011L66.6548,56.8097
			c-3.3609,2.8541-6.8667,3.8996-11.0796,3.8996l12.5219,34.4065c4.3536,11.9343,17.5589,18.5131,30.0691,14.0379
			C111.3916,104.2733,117.7771,87.6957,108.6445,74.0589z"/>
		<path fill="#ffffff" d="M45.2024,48.4273c2.2339,6.0997,9.0175,9.0945,14.9238,6.9454c5.7602-2.1202,9.2344-8.6671,6.9582-14.9134
			l-0.0024-0.008c-2.2375-6.1737-9.0496-9.0978-14.9265-6.9397C46.2024,35.6847,42.9555,42.3484,45.2024,48.4273z M54.5576,40.1375
			c2.1792-0.812,5.0232,0.2645,5.9036,2.7264c0.8654,2.3491-0.3577,5.025-2.7476,5.8825l-0.0078,0.0081
			c-2.5005,0.9002-5.0635-0.4642-5.888-2.7503C50.8962,43.5034,52.4211,40.9004,54.5576,40.1375z"/>
	</g>
</g>
</svg>
