<?xml version="1.0" encoding="utf-8"?>
<!-- Generator: Adobe Illustrator 18.1.0, SVG Export Plug-In . SVG Version: 6.00 Build 0)  -->
<svg version="1.2" baseProfile="tiny" xmlns="http://www.w3.org/2000/svg" xmlns:xlink="http://www.w3.org/1999/xlink" x="0px"
	 y="0px" width="64px" height="64px" viewBox="0 0 64 64" xml:space="preserve">
<g id="_x36_4px_boxes">
	<rect fill="none" width="64" height="64"/>
</g>
<g id="Production">
	<g>
		<path fill="#ffffff" d="M31.5107,9C10.8187,9-0.4242,33.1867,12.6268,49.0275L7,57.0232L11.0847,59.9l5.1499-7.3186
			c8.936,7.1713,21.6204,7.1718,30.5276,0.044L51.882,59.9l4.0828-2.8768l-5.5898-7.945C63.4787,33.2745,52.2513,9,31.5107,9z
			 M31.5146,53.1611c-10.847,0-19.671-8.8291-19.671-19.6801c0-10.851,8.8221-19.6791,19.671-19.6791
			c10.846,0,19.6699,8.828,19.6699,19.6791C51.1867,44.3576,42.3874,53.1611,31.5146,53.1611z"/>
		<polygon fill="#ffffff" points="29,32.5573 18.6683,38.8551 21.2896,43.1207 34,35.3619 34,19 29,19 		"/>
		
			<rect x="47.9453" y="0.3834" transform="matrix(0.6247 -0.7809 0.7809 0.6247 11.134 43.1411)" fill="#ffffff" width="4.9996" height="19.2096"/>
		
			<rect x="2.8393" y="7.4885" transform="matrix(0.7809 -0.6247 0.6247 0.7809 -3.5127 9.9622)" fill="#ffffff" width="19.2096" height="4.9996"/>
	</g>
</g>
</svg>

