<?xml version="1.0" encoding="utf-8"?>
<!-- Generator: Adobe Illustrator 19.1.0, SVG Export Plug-In . SVG Version: 6.00 Build 0)  -->
<svg version="1.2" baseProfile="tiny" xmlns="http://www.w3.org/2000/svg" xmlns:xlink="http://www.w3.org/1999/xlink" x="0px"
	 y="0px" width="64px" height="64px" viewBox="0 0 64 64" xml:space="preserve">
<g id="box">
	<rect fill="none" width="64" height="64"/>
</g>
<g id="Production">
	<g>
		<path fill="#ffffff" d="M63.9658,17.2861l-2.2207-2.3306C61.1289,14.3394,60.3755,14,59.6235,14h-1.1709
			c-0.5103,0-0.6592-0.1484-0.6968-0.186l-5.6865-5.8623C52.0063,7.8887,51.9995,7.7095,52,7.293V6.1211
			c0-0.9136-0.6289-1.6479-1.1274-2.1455L48.521,1.7837L1.0674,49.1216l10.0405,10.3867l1.8052-4.0322l3.6045,0.0938l1.4722-3.291
			l3.605,0.0933l1.4722-3.2905l3.6045,0.0938l1.4727-3.291l3.605,0.0938l1.4731-3.2915l3.604,0.0938l1.4727-3.2905l3.6035,0.0938
			l1.4731-3.291l3.605,0.0938l1.9365-4.3276L47.4163,29h5.0208L63.9658,17.2861z M45.6992,34.3521l-3.604-0.0938l-1.4736,3.291
			l-3.604-0.0938l-1.4727,3.2905l-3.604-0.0938l-1.4731,3.2915l-3.605-0.0938l-1.4727,3.291l-3.6045-0.0938l-1.4722,3.2905
			l-3.605-0.0933l-1.4722,3.291l-3.604-0.0938l-1.1416,2.5498L3.8721,49.145l28.3241-28.324L39.9453,29h5.2485l1.5142,3.0977
			L45.6992,34.3521z M40.8057,27l-7.1841-7.5825L48.5659,4.5591l0.918,0.855C49.9766,5.9067,49.999,6.1011,50,6.1211v1.2217
			c-0.0005,0.5767-0.001,1.3667,0.6445,2.0122l5.687,5.8628C56.8511,15.7368,57.5649,16,58.4526,16h1.1709
			c0.2085,0,0.4795,0.1416,0.6904,0.3521l0.8677,0.9116L51.5991,27H40.8057z"/>
		<path fill="#ffffff" d="M48.7852,13.4243c-1.3638-1.3638-3.5835-1.3647-4.9502,0c-1.3638,1.3652-1.3638,3.5854,0.0005,4.9497
			l3.5356,3.5361c0.6826,0.6816,1.5786,1.0225,2.4746,1.0225c0.8965,0,1.7925-0.3408,2.4751-1.0225l0.0005-0.0005
			c1.3638-1.3647,1.3638-3.585-0.0005-4.9497L48.7852,13.4243z M50.9067,20.4956c-0.5845,0.5835-1.5361,0.5845-2.1216,0
			L45.2495,16.96c-0.5845-0.585-0.5845-1.5366,0-2.1211c0.2925-0.2925,0.6768-0.439,1.061-0.439s0.7681,0.146,1.0605,0.4385
			l3.5352,3.5356C51.4912,18.959,51.4912,19.9106,50.9067,20.4956z"/>
	</g>
</g>
</svg>

