<?xml version="1.0" encoding="utf-8"?>
<!-- Generator: Adobe Illustrator 18.1.1, SVG Export Plug-In . SVG Version: 6.00 Build 0)  -->
<svg version="1.2" baseProfile="tiny" xmlns="http://www.w3.org/2000/svg" xmlns:xlink="http://www.w3.org/1999/xlink" x="0px"
	 y="0px" width="128px" height="128px" viewBox="0 0 128 128" xml:space="preserve">
<g id="_x31_28px_boxes" display="none">
	<rect display="inline" fill="none" width="128" height="128"/>
</g>
<g id="Production">
	<g>
		<path fill="#ffffff" d="M33.1223,32.03c0,0-30.4055,17.5647-30.4604,17.5965c-1.0442,0.6031-0.9427,2.2069,0.1822,2.6655
			l18.8417,7.6832c0,0-2.7546,20.118-2.7606,20.1614c-0.1644,1.2015,1.1647,2.0985,2.218,1.49l30.4679-17.6011L33.1223,32.03z"/>
		<path fill="#ffffff" d="M66.5593,81.031c0,0,11.9258,20.6465,11.9478,20.6847c1.2256,2.1345,4.0806,2.8761,6.206,1.8118
			c2.2466-1.1249,3.1612-4.2374,1.8682-6.4756L71.9446,71.7118L66.5593,81.031z"/>
		<path fill="#ffffff" d="M125.3352,49.6265L94.8748,32.0303L76.3862,64.0254l30.4676,17.6013
			c1.0556,0.6099,2.3825-0.2858,2.218-1.4899l-2.7605-20.1616c0,0,18.7927-7.6633,18.8415-7.6832
			C126.2778,51.8332,126.3867,50.234,125.3352,49.6265z"/>
		<path fill="#ffffff" d="M49.4899,101.7157c0,0,40.8065-70.6466,40.8707-70.7575c1.2285-2.1269,0.4646-4.9694-1.5193-6.283
			c-2.0923-1.3854-5.2637-0.6159-6.5549,1.6191L63.9985,57.9552c0,0-18.2584-31.61-18.2878-31.6609
			c-1.2009-2.0792-3.9377-2.8617-6.0465-1.8804c-2.342,1.0901-3.3662,4.2268-2.0277,6.5441l20.978,36.3184
			c0,0-17.1699,29.7254-17.1988,29.7755c-1.2367,2.1408-0.4618,4.9976,1.5538,6.2944
			C45.0657,104.6949,48.204,103.9416,49.4899,101.7157z"/>
	</g>
</g>
</svg>
