<?xml version="1.0" encoding="utf-8"?>
<!DOCTYPE svg [
	<!ENTITY ns_flows "http://ns.adobe.com/Flows/1.0/">
	<!ENTITY ns_extend "http://ns.adobe.com/Extensibility/1.0/">
	<!ENTITY ns_ai "http://ns.adobe.com/AdobeIllustrator/10.0/">
	<!ENTITY ns_graphs "http://ns.adobe.com/Graphs/1.0/">
]>
<svg version="1.2" baseProfile="tiny" xmlns:x="&ns_extend;" xmlns:i="&ns_ai;" xmlns:graph="&ns_graphs;"
	 xmlns="http://www.w3.org/2000/svg" xmlns:xlink="http://www.w3.org/1999/xlink" xmlns:a="http://ns.adobe.com/AdobeSVGViewerExtensions/3.0/"
	 x="0px" y="0px" width="128px" height="128px" viewBox="0 0 128 128" xml:space="preserve">
<g id="_x31_28px_boxes">
	<rect fill="none" width="128" height="128"/>
</g>
<g id="Production">
	<g>
		<path fill="#ffffff" d="M85.2895,35.6743c-3.0588-2.1416-7.2739-1.3985-9.4155,1.6599L60.2583,59.6348
			c-6.013-1.1709-12.4104,1.04-16.3606,6.1416l-0.0171-0.0123l-26.5637,37.9357l-0.0542,0.0708
			c-3.649,7.2679-1.3147,16.336,5.5447,21.1385c6.8596,4.8035,16.1574,3.9115,21.7392-2.0025l0.0689-0.0907L71.1794,84.88
			l-0.0168-0.0116c3.4443-5.4587,3.3325-12.2297,0.1728-17.4804l15.6138-22.2983C89.0908,42.0314,88.3476,37.8158,85.2895,35.6743z
			 M57.1675,88.9193c-2.3772,3.3949-7.0567,4.2202-10.4517,1.8427c-3.395-2.3769-4.2197-7.0573-1.8428-10.4516
			c2.3772-3.3955,7.0569-4.2204,10.4519-1.8432C58.7197,80.8448,59.5449,85.5244,57.1675,88.9193z"/>
		<path fill="#ffffff" d="M112.4502,0C101.6885,5.1992,91.8987,3.0079,84.529,9.9466c-7.3696,6.9385-1.309,18.1353-1.309,18.1353
			c1.2624-11.5481,8.9006-9.1126,16.3056-11.5154c4.9424,15.0014-6.9729,19.0871-6.9729,19.0871s12.4138,2.7624,17.1279-7.1825
			C113.9866,19.3871,110.1428,10.5326,112.4502,0z"/>
	</g>
</g>
</svg>