<?xml version="1.0" encoding="utf-8"?>

<svg version="1.2" baseProfile="tiny" xmlns="http://www.w3.org/2000/svg" xmlns:xlink="http://www.w3.org/1999/xlink" x="0px"
	 y="0px" width="64px" height="64px" viewBox="0 0 64 64" xml:space="preserve">

<g id="Production">
	<g>
		<path fill="#ffffff" d="M48.1769,50.1973c0.3466-0.9417,0.3662-1.1489,1.7296-2.6743c4.5473-5.0834,2.5019-8.7793,2.9961-10.8119
			c0.2441-1,2.0572-2.9014,2.0572-6.3535c0-4.5712-3.1539-7.3006-8.2306-7.3006c-4.1569-0.0015-8.4349,0.5485-8.6409-1.9219
			c-0.3034-3.6518,3.0908-5.8388,2.861-9.8417c-0.1338-2.3228-1.3683-4.2896-3.3863-5.396
			c-2.2818-1.251-5.0001-1.1977-7.3889,0.1387c-2.2502,1.2574-6.9994,7.1019-8.6114,9.1107C17.5537,20.1453,14,24.5051,8,25.0495
			v5.0058c9-0.5486,13.2239-6.4981,17.7693-12.1615c3.3975-4.2323,6.1645-7.0746,6.853-7.4941
			c0.8701-0.4878,1.7808-0.5361,2.5401-0.1181c1.535,0.8405,0.5166,2.5981-0.2823,4.1048
			c-4.4638,8.4159-0.0325,13.5585,6.3278,13.5585c6.4441,0.0023,8.7521-0.4739,8.7521,2.4126c0,1.9743-1.0566,2.3154-1.7498,5.1728
			c-0.6773,2.7875,0.3837,3.7768-0.3917,6.4258c-0.2446,0.8335-0.8394,1.3388-1.6388,2.2334
			c-0.4965,0.5547-1.0596,1.1841-1.607,1.9975c-1.6521,2.4561-0.696,3.5919-3.4107,4.8764
			c-2.4428,1.1575-9.3258,1.9006-16.0764-2.061C21.2795,46.7687,14,46.9881,8,47.0259v4.9517c0-0.0025,0.6213-0.0044,0.9529-0.0074
			c4.444-0.0351,11.151-0.08,13.594,1.3545c4.1407,2.4297,8.5998,3.6718,13.1937,3.6718
			C41.3809,56.9964,46.2433,55.4486,48.1769,50.1973z"/>
	</g>
</g>
</svg>
