<?xml version="1.0" encoding="utf-8"?>
<!-- Generator: Adobe Illustrator 18.1.1, SVG Export Plug-In . SVG Version: 6.00 Build 0)  -->
<svg version="1.2" baseProfile="tiny" xmlns="http://www.w3.org/2000/svg" xmlns:xlink="http://www.w3.org/1999/xlink" x="0px"
	 y="0px" width="128px" height="128px" viewBox="0 0 128 128" xml:space="preserve">
<g id="box">
	<rect fill="none" width="128" height="128"/>
</g>
<g id="Production">
	<g>
		<path fill="#ffffff" d="M8.1453,62.5957c-2.005-0.3782-3.3729,1.9885-2.042,3.5365l40.1845,46.7673
			c0.411,0.478,1.0372,0.8562,1.6673,0.8562c0.0015,0,48.6662,0.0527,48.6662,0.0527c0.7077-0.0015,1.3701-0.3556,1.7734-0.9375
			l2.9824-4.3053c-1.501-2.5413-17.061-28.863-18.8574-31.902L8.1453,62.5957z"/>
		<path fill="#ffffff" d="M36.4423,63.3682l43.0225,8.1377l-3.3577-5.678L34.2754,46.6858
			c-1.7424-0.7971-3.5892,0.9078-2.9323,2.7087L36.4423,63.3682z"/>
		<path fill="#ffffff" d="M109.6413,34.2433l-23.8428-19.561c-0.967-0.7935-2.4033-0.6022-3.1301,0.412L66.1911,38.0791h42.0781
			C110.2931,38.0791,111.2089,35.5297,109.6413,34.2433z"/>
		<path fill="#ffffff" d="M121.7467,77.0359L85.2809,42.6661H67.5976l36.7282,62.0849l17.699-24.8882
			C122.6505,78.9832,122.5319,77.7768,121.7467,77.0359z"/>
	</g>
</g>
</svg>
