<?xml version="1.0" encoding="utf-8"?>
<!-- Generator: Adobe Illustrator 18.1.1, SVG Export Plug-In . SVG Version: 6.00 Build 0)  -->
<svg version="1.2" baseProfile="tiny" xmlns="http://www.w3.org/2000/svg" xmlns:xlink="http://www.w3.org/1999/xlink" x="0px"
	 y="0px" width="64px" height="64px" viewBox="0 0 64 64" xml:space="preserve">

<g id="Production">
	<path fill="#ffffff" d="M32,7C18.2148,7,7,18.2148,7,32s11.2148,25,25,25s25-11.2148,25-25S45.7852,7,32,7z M55,32
		c0,0.5611-0.0273,1.1155-0.0669,1.6667l-3.2793,2.2083l-2.4604,6.1167l-3.3408,2.0947L45,42.7144V34h-5.1216
		c-1.2441,0-2.3525-0.7285-2.7578-1.8135c-0.1382-0.3706-0.1831-0.7163-0.1333-1.0283c0.1943-1.2144,1.2783-2.5195,1.9121-3.1582
		h3.7554l2.3047,1.8076l4.9102,0.3218l2.4561-3.2183L49.4141,24h-1.6934l-1-3h-3.1348l-2,2H40v-1.0576l1.8442-0.2466l0.4858-2.498
		l2.9292-0.8135l-1.8311-4.043L44.6426,12.8C50.8767,16.9188,55,23.9854,55,32z M30.9807,9.0259L29,11.6665v3.582l-3.9722-2.3438
		l-3.5713,1.2246l-3.3076,3.3076l7.0605,2.3535l0.5254,1.5771l-5.4019,1.8008L17.4336,28h-3.4238L14,33.13l-1.1543-0.7545
		l-0.9878-2.9639l-2.4006-1.9809C11.5171,17.2531,20.3179,9.4937,30.9807,9.0259z M32,55C19.3179,55,9,44.6821,9,32
		c0-0.7631,0.0393-1.517,0.1123-2.2612l1.0298,0.8496l1.0122,3.0361l2.5508,1.8223l2.5356,0.437L16.9458,38l-1.0254,3.0767
		l2.3618,4.7241l2.5044,0.9272l0.5742,4.4053L24.1074,51l1.4878-1.9131l4.1553-1.2705l1.4355-3.5879
		c0.2974-0.7441,0.2871-1.5596-0.0283-2.2959c-0.3159-0.7368-0.8994-1.3062-1.6431-1.604l-2.9526-1.1807L23.4248,36H18.5
		l-0.7407-1.8838l-1.8582-0.3205L15.9082,30h2.6582l3.1006-5.1685l6.5981-2.1992l-1.4746-4.4229l-4.9395-1.6465l0.6924-0.6924
		l2.2617-0.7754l3.1782,1.876c0.6265,0.3687,1.377,0.375,2.0083,0.0146C30.623,16.625,31,15.9756,31,15.2485v-2.915l2.4614-3.2822
		c3.4033,0.2146,6.6091,1.1684,9.4543,2.7091l-1.8108,2.2986l1.3691,3.0234l-1.8706,0.5195l-0.4478,2.3018L38,20.1914V25h4.4141l2-2
		h0.8652l1,3h2.3066l1.0884,1.0889l-0.7441,0.9751l-3.2227-0.2114L43.3452,26h-5.2241l-0.2837,0.251
		c-0.0996,0.0879-2.439,2.1816-2.8247,4.5908c-0.1055,0.6577-0.0269,1.3462,0.2344,2.0449C35.9429,34.749,37.8042,36,39.8784,36H43
		v7.2856l1.1543,1.8569c0.2827,0.4546,0.7261,0.7715,1.2476,0.8921c0.1509,0.0352,0.3032,0.0522,0.4546,0.0522
		c0.3711,0,0.7358-0.104,1.0586-0.3062l3.8916-2.4395l2.4731-6.1499l1.3093-0.8817C52.5652,46.9383,43.209,55,32,55z M19.02,38
		h3.5552l2.8628,2.8521l3.3335,1.334c0.5122,0.2046,0.7622,0.7876,0.5576,1.2993l-1.0796,2.6982l-3.8447,1.1758l-1.3008,1.6729
		l-0.4902-3.7603l-2.896-1.0728l-1.6382-3.2759L19.0542,38H19.02z"/>
</g>
</svg>
