<?xml version="1.0" encoding="utf-8"?>
<!-- Generator: Adobe Illustrator 17.1.0, SVG Export Plug-In . SVG Version: 6.00 Build 0)  -->
<!DOCTYPE svg [
	<!ENTITY ns_flows "http://ns.adobe.com/Flows/1.0/">
	<!ENTITY ns_extend "http://ns.adobe.com/Extensibility/1.0/">
	<!ENTITY ns_ai "http://ns.adobe.com/AdobeIllustrator/10.0/">
	<!ENTITY ns_graphs "http://ns.adobe.com/Graphs/1.0/">
]>
<svg version="1.2" baseProfile="tiny" xmlns:x="&ns_extend;" xmlns:i="&ns_ai;" xmlns:graph="&ns_graphs;"
	 xmlns="http://www.w3.org/2000/svg" xmlns:xlink="http://www.w3.org/1999/xlink" xmlns:a="http://ns.adobe.com/AdobeSVGViewerExtensions/3.0/"
	 x="0px" y="0px" width="128px" height="128px" viewBox="0 0 128 128" xml:space="preserve">
<g id="_x31_28px_boxes">
	<rect fill="none" width="128" height="128"/>
</g>
<g id="Production">
	<path fill="#ffffff" d="M94.5774,28.5731c-0.0034-2.1692-0.8667-4.2497-2.4009-5.7851c0,0-2.1731-2.3013-5.801-2.3013H58.1401
		c-2.176,0-4.2622,0.8131-5.8003,2.3519L9.821,65.3451c-3.2026,3.2029-3.2024,8.383,0.0008,11.5864l28.1872,28.1812
		c3.2036,3.2028,8.3965,3.1997,11.5996-0.0032l42.5537-42.5538c0.7288-0.7286,1.3042-1.5448,1.7102-2.4709
		c13.5799,3.6925,23.4715,0.9264,26.0647-5.7893C123.6968,44.5587,110.4302,33.1257,94.5774,28.5731z M58.0725,82.4225
		c-3.7554,3.0976-8.4412,4.3943-12.9312,3.9651l-0.0161-0.0017c-4.2588-0.4034-8.3852-2.3838-11.4453-5.7857l-1.9851,1.6387
		c-0.7786,0.6474-1.9746,0.1872-2.1152-0.8152c-0.1744-1.2177,0.0088,0.0651-1.6995-11.9172
		c-0.1492-1.0261,0.864-1.7025,1.7078-1.4097c0.0053,0.0019,11.3698,3.9271,11.3752,3.929c0.9531,0.3266,1.1929,1.5791,0.406,2.2292
		l-2.3472,1.9365c1.8484,1.9422,4.2505,3.0562,6.7625,3.2999c2.7556,0.2602,5.5764-0.5159,7.8801-2.4119
		c1.5794-1.3086,2.678-2.9588,3.3001-4.756l6.542,2.2655C62.4812,77.5514,60.6623,80.2865,58.0725,82.4225z M64.4656,69.6283
		c-2.6294-0.9085-8.7803-3.0337-11.3685-3.927c-0.9587-0.3287-1.184-1.5868-0.4055-2.2295l2.1868-1.8062
		c-1.8765-2.1318-4.3972-3.352-7.0398-3.6083c-4.9839-0.4698-9.5991,2.5361-11.1948,7.2061l-6.5376-2.2637
		c1.0224-2.9747,2.8428-5.7225,5.4411-7.8658c0.0017-0.0012,0.0017-0.0022,0.0017-0.0022l0.0025-0.0019
		c3.7556-3.1055,8.4495-4.4004,12.946-3.9671c4.3907,0.4163,8.6365,2.5008,11.7259,6.0911l2.1455-1.77
		c0.7697-0.6381,1.9695-0.1904,2.112,0.8208c0.158,1.1011-0.1086-0.7637,1.7032,11.9138
		C66.3108,69.1307,65.4714,69.9427,64.4656,69.6283z M112.3613,51.3237c-0.3401,0.8807-2.5442,2.163-7.2239,2.163h-0.0009
		c-8.1675,0-18.4156-3.8219-24.8116-9.0288c-0.0317,0.0332-0.062,0.071-0.0952,0.1038c-2.74,2.7401-7.1641,2.7116-9.8745,0.0026
		c-2.7295-2.7304-2.7227-7.1502,0.0007-9.8735c4.2962-4.296,11.6062-1.3941,11.9104,4.5798
		c3.4261,2.9855,7.9873,5.3337,12.3035,6.8724l0.0042-9.061C107.2114,41.3959,113.2624,48.9892,112.3613,51.3237z"/>
</g>
</svg>
