<?xml version="1.0" encoding="utf-8"?>
<!-- Generator: Adobe Illustrator 18.1.1, SVG Export Plug-In . SVG Version: 6.00 Build 0)  -->
<svg version="1.2" baseProfile="tiny" xmlns="http://www.w3.org/2000/svg" xmlns:xlink="http://www.w3.org/1999/xlink" x="0px"
	 y="0px" width="128px" height="128px" viewBox="0 0 128 128" xml:space="preserve">
<g id="_x31_28px_boxes">
	<rect fill="none" width="128" height="128"/>
</g>
<g id="Production">
	<g>
		<path fill="#ffffff" d="M55.8141,75.2465v-0.0846c7.6968-2.5975,6.9075-13.3241-4.0864-13.3241
			c-3.6172,0-6.895,1.0219-8.5557,2.0864l1.3198,4.6821c3.6605-2.2506,9.8326-2.5255,9.8326,1.2339
			c0,3.6327-5.7258,3.1923-7.4497,3.1923v4.6402c1.8674,0,8.2158-0.5567,8.2158,4.0015c0,4.5277-7.0661,4.4166-11.4922,1.9579
			l-1.3198,4.8956c1.6171,0.9789,4.6396,1.9151,8.2153,1.9151C64.4105,90.4428,64.7026,76.8425,55.8141,75.2465z"/>
		<path fill="#ffffff" d="M76.4201,61.8378c-7.1514,0-10.5142,6.3002-10.5142,14.3452c0.043,7.832,3.1929,14.2598,10.3442,14.2598
			c7.023,0,10.4712-5.916,10.4712-14.4303C86.7213,68.4363,83.7843,61.8378,76.4201,61.8378z M76.3776,85.5477
			c-2.4693,0-4.002-3.0219-4.002-9.3647c0-6.4697,1.6177-9.4498,3.959-9.4498c2.5967,0,3.9165,3.2355,3.9165,9.3647
			C80.2511,82.3978,78.8893,85.5477,76.3776,85.5477z"/>
		<path fill="#ffffff" d="M53.5358,26.0685h2.583v6.5978c5.0944-0.9164,10.4676-0.9523,15.7622,0v-6.5978h2.5825
			c0.8775,0,1.5884-0.7108,1.5884-1.5877V13.574c0-0.8766-0.7109-1.5875-1.5884-1.5875H53.5358
			c-0.8775,0-1.5879,0.7109-1.5879,1.5875v10.9068C51.9479,25.3577,52.6583,26.0685,53.5358,26.0685z"/>
		<path fill="#ffffff" d="M106.716,41.3733l-7.3765-7.6412c-0.6038-0.6255-1.6083-0.6537-2.2451-0.0398l-7.0093,6.7662
			c3.7388,2.723,7.0371,6.0143,9.7686,9.7464l6.8222-6.5864C107.3068,43.0094,107.3248,42.0042,106.716,41.3733z"/>
		<path fill="#ffffff" d="M37.9142,40.4589l-7.0088-6.7664c-0.6442-0.6225-1.6489-0.578-2.2451,0.0396l-7.3765,7.6412
			c-0.6098,0.6305-0.5891,1.6387,0.0396,2.2452l6.8227,6.5864C30.8771,46.4728,34.1754,43.1815,37.9142,40.4589z"/>
		<path fill="#ffffff" d="M63.9997,36.729c-21.8589,0-39.6421,17.7835-39.6421,39.642c0,21.8593,17.7832,39.6425,39.6421,39.6425
			c21.8588,0,39.642-17.7832,39.642-39.6425C103.6417,54.5125,85.8585,36.729,63.9997,36.729z M63.9997,105.2167
			c-15.9053,0-28.8448-12.9399-28.8448-28.8457c0-15.9048,12.9395-28.8446,28.8448-28.8446
			c15.9052,0,28.8447,12.9398,28.8447,28.8446C92.8444,92.2768,79.9049,105.2167,63.9997,105.2167z"/>
	</g>
</g>
</svg>
