<?xml version="1.0" encoding="utf-8"?>
<!-- Generator: Adobe Illustrator 18.1.1, SVG Export Plug-In . SVG Version: 6.00 Build 0)  -->
<svg version="1.2" baseProfile="tiny" xmlns="http://www.w3.org/2000/svg" xmlns:xlink="http://www.w3.org/1999/xlink" x="0px"
	 y="0px" width="128px" height="128px" viewBox="0 0 128 128" xml:space="preserve">
<g id="box">
	<rect fill="none" width="128" height="128"/>
</g>
<g id="Production">
	<g>
		<path fill="#ffffff" d="M79.8129,77.9557l0.0097-39.7913L45.4821,38.141v8.2334h12.6098v4.1727H45.4821v8.4615h12.6098v4.1723
			H45.4821v8.4638h12.6076v4.1772H45.4821v2.1338c0.0046,3.5801,2.9041,6.4724,6.4816,6.4724l21.3699,0.0071v-0.0071
			C76.9088,84.4281,79.8129,81.5358,79.8129,77.9557z"/>
		<path fill="#ffffff" d="M82.2621,111.6354c-5.1765-0.1436-8.6806-2.228-9.4119-9.1843h5.6992v-7.4873
			c7.2901-2.2286,12.6172-8.9637,12.6246-17.0081V38.2118c-0.0074-8.281-5.6688-15.173-13.3169-17.1857
			c-0.9244-8.741-7.6135-13.7043-15.2133-13.6913c-7.592-0.013-14.2867,4.9337-15.2131,13.6913
			c-7.6482,2.0127-13.3144,8.9047-13.3144,17.1857v39.7439c0,9.8508,7.9895,17.8308,17.8449,17.8425h6.1712v6.6529h5.6968
			c0.031,0.9384,0.1804,4.6086,2.2117,8.7407c2.5325,5.5304,8.8879,9.722,16.2212,9.4619h11.6216v-9.0183H82.2621z M62.6438,13.2477
			c4.6447,0.1185,8.1532,2.5366,9.1608,7.1193H53.4808C54.491,15.7843,57.9948,13.3662,62.6438,13.2477z M72.6342,96.5499h-8.5914
			v-6.664H51.9612c-6.5908-0.0049-11.9274-5.3462-11.9345-11.9302V38.2118c0.0071-6.5858,5.3437-11.9248,11.9345-11.932H73.329
			c6.5908,0.0072,11.9204,5.3462,11.9345,11.932v39.7439c0.0074,5.9509-4.3886,10.8489-10.121,11.7402l-2.5083,0.3865V96.5499z"/>
	</g>
</g>
</svg>
