<?xml version="1.0" encoding="utf-8"?>
<!-- Generator: Adobe Illustrator 18.1.1, SVG Export Plug-In . SVG Version: 6.00 Build 0)  -->
<svg version="1.2" baseProfile="tiny" xmlns="http://www.w3.org/2000/svg" xmlns:xlink="http://www.w3.org/1999/xlink" x="0px"
	 y="0px" width="128px" height="128px" viewBox="0 0 128 128" xml:space="preserve">
<g id="_x31_28px_boxes">
	<rect fill="none" width="128" height="128"/>
</g>
<g id="Production">
	<g>
		<path fill="#ffffff" d="M107.4424,64.2426c4.2067-20.7537-11.6715-40.0112-32.6836-40.0112
			c-15.4767,0-28.4893,10.5428-32.2519,24.8379C24.8777,44.5131,7.7415,57.8415,7.7415,75.9771
			c0,15.3493,12.4433,27.7915,27.7925,27.7915h0.0004c0,0,64.2227,0,64.2789,0C122.3371,103.7686,128.2246,72.5822,107.4424,64.2426
			z M73.5132,85.5703h-0.0049H61.1518c-1.0108,0-1.7625-0.9346-1.5491-1.9202l2.3076-10.6621
			c-2.2885-1.6728-3.7761-4.3762-3.7761-7.4281c0-5.0787,4.1169-9.1962,9.1956-9.1962c5.0794,0,9.1968,4.1175,9.1968,9.1962
			c0,3.0519-1.4878,5.7553-3.7766,7.4281l2.2803,10.5364C75.3387,84.541,74.5776,85.5703,73.5132,85.5703z"/>
	</g>
</g>
</svg>
