<?xml version="1.0" encoding="utf-8"?>
<!-- Generator: Adobe Illustrator 18.1.1, SVG Export Plug-In . SVG Version: 6.00 Build 0)  -->
<svg version="1.2" baseProfile="tiny" xmlns="http://www.w3.org/2000/svg" xmlns:xlink="http://www.w3.org/1999/xlink" x="0px"
	 y="0px" width="128px" height="128px" viewBox="0 0 128 128" xml:space="preserve">
<g id="_x31_28px_boxes">
	<rect fill="none" width="128" height="128"/>
</g>
<g id="Production">
	<g>
		<path fill="#ffffff" d="M89.9339,52.3014l-2.2849,3.9748c1.9324,1.1289,5.5886,3.2625,9.0688,5.2927l5.428-9.4433
			C98.303,53.3042,94.0621,53.4399,89.9339,52.3014z"/>
		<path fill="#ffffff" d="M84.689,43.596c10.927,9.875,28.6454,1.3566,27.4468-13.3393
			c-0.7287-8.9331-8.6381-15.582-17.6826-14.8396c-6.0057,0.4941-5.6359,1.1174-29.1306,15.3774
			c1.8022,3.1555,3.7636,6.5896,5.2082,9.1175l9.1157-5.2862C80.2962,38.0706,82.0484,41.2096,84.689,43.596z M95.314,25.8819
			c3.2946-0.2726,6.1056,2.1507,6.3565,5.2283c0.2573,3.1536-2.1797,5.9373-5.4319,6.2048c-3.284,0.274-6.1054-2.1422-6.3567-5.228
			C89.6246,28.933,92.0613,26.1493,95.314,25.8819z"/>
		<path fill="#ffffff" d="M83.9827,59.3448c-1.2543-0.7434-2.6926-0.4423-3.5551,1.053
			C80.1815,60.8233,60.909,93.942,59.4944,96.3719c-1.5766,2.7098-0.9114,4.7276,1.1314,5.9278
			c18.2168,10.7031,17.28,10.3383,18.4683,10.3383h0.0004c2.185,0,3.251-2.4714,4.5098-4.4814
			c6.2214-9.9268,0.5269-6.1633,5.7095-12.4016c2.3363-2.825-0.5411-6.4626,2.625-10.4033
			c2.3269-2.8673-1.9945-11.2554,3.5989-11.2554c1.1211,0,1.5009,0.6179,2.6042,0.6179c3.3263,0,4.5483-4.4522,1.6499-6.1423
			C99.7918,68.5719,84.5985,59.7098,83.9827,59.3448z"/>
		<path fill="#ffffff" d="M58.6351,28.1585c-2.1558-3.7732-7.849-0.5025-5.688,3.2791c1.7086,2.4661,0.8728,4.8189-2.9566,5.1975
			c-0.0092,0.001-0.019,0.002-0.0288,0.0032c-9.8618,1.19-21.138,4.885-31.4301,10.7485c-2.4271,1.3811-3.511,2.7599-2.0933,5.2734
			c0.3359,0.5955,8.5327,14.8846,9.3101,16.262c1.0863,1.9255,3.123,2.635,5.7231,1.1543
			c0.3975-0.2261,34.9292-19.8542,36.2354-20.6052c1.5097-0.869,1.7946-2.3143,1.0693-3.565
			C68.3382,45.1517,58.6351,28.1585,58.6351,28.1585z"/>
	</g>
</g>
</svg>
