<?xml version="1.0" encoding="utf-8"?>
<!-- Generator: Adobe Illustrator 18.1.1, SVG Export Plug-In . SVG Version: 6.00 Build 0)  -->
<svg version="1.2" baseProfile="tiny" xmlns="http://www.w3.org/2000/svg" xmlns:xlink="http://www.w3.org/1999/xlink" x="0px"
	 y="0px" width="128px" height="128px" viewBox="0 0 128 128" xml:space="preserve">
<g id="_x31_28px_boxes">
	<rect fill="none" width="128" height="128"/>
</g>
<g id="Production">
	<g>
		<path fill="#ffffff" d="M72.329,103.3176H17.0402V33.8301h21.1752c1.094-2.0503,2.3934-4.0188,3.9015-5.8735H14.1034
			c-1.622,0-2.937,1.3146-2.937,2.9367v75.3611c0,1.6221,1.315,2.9368,2.937,2.9368H75.266c1.6219,0,2.9368-1.3147,2.9368-2.9368
			V87.4068c-1.9202,0.3899-3.8829,0.6279-5.8738,0.7094V103.3176z"/>
		<path fill="#ffffff" d="M25.4894,48.6416h8.4788c0.1405-2.0168,0.4465-4.0239,0.9158-6h-9.3946V48.6416z"/>
		<path fill="#ffffff" d="M25.4894,59.7266h9.3737c-0.4641-1.9763-0.7648-3.9834-0.9002-6h-8.4735V59.7266z"/>
		<path fill="#ffffff" d="M25.4894,70.8115h13.9872c-1.2024-1.9216-2.2091-3.9314-3.024-6H25.4894V70.8115z"/>
		<path fill="#ffffff" d="M25.4894,81.8962h24.7141c-2.4832-1.6737-4.8043-3.6758-6.8937-6H25.4894V81.8962z"/>
		<path fill="#ffffff" d="M25.4894,92.9812h38.3905v-5.4731c-0.7974-0.15-1.5876-0.3255-2.3698-0.5269H25.4894V92.9812z"/>
		<path fill="#ffffff" d="M67.5728,54.7468h4.3266c4.5605,0,3.0363,5.1513,4.3266,9.5166h8.1355
			c-1.4945-2.5488,0.4148-10.5963-4.7704-12.6506c5.7585-2.2014,6.0982-14.6379-4.6594-14.6379H59.4372v27.2885h8.1356V54.7468z
			 M67.5728,43.4719h3.8089c3.1063,0,4.0307,0.9939,4.0307,2.7137c0,2.446-2.0708,2.7136-3.587,2.7136h-4.2526V43.4719z"/>
		<path fill="#ffffff" d="M113.9154,80.9187L99.4208,66.4246c11.4259-21.5664-4.2332-47.6164-28.6414-47.6158
			c-28.6572,0-43.3635,34.9052-22.9235,55.3453c10.5001,10.502,26.1129,12.123,38.1284,5.7265l14.4841,14.4847
			C109.3513,103.248,122.8117,89.815,113.9154,80.9187z M54.2202,67.7905c-14.7469-14.747-4.1653-39.9817,16.5592-39.9817
			c20.7079,0,31.3246,25.218,16.5606,39.9822C78.1875,76.9437,63.3731,76.9446,54.2202,67.7905z"/>
	</g>
</g>
</svg>
