<?xml version="1.0" encoding="utf-8"?>

<svg version="1.2" baseProfile="tiny" xmlns="http://www.w3.org/2000/svg" xmlns:xlink="http://www.w3.org/1999/xlink" x="0px"
	 y="0px" width="128px" height="128px" viewBox="0 0 128 128" xml:space="preserve">
<g id="_x31_28px_boxes">
	<rect fill="none" width="128" height="128"/>
</g>
<g id="Production">
	<g>
		<path fill="#ffffff" d="M48.938,87.8655c-1.1536-0.0081-2.3095,0.4372-3.1869,1.3196c-0.8798,0.8747-1.3247,2.0385-1.3247,3.1916
			c0,1.1563,0.4449,2.3201,1.3198,3.1948c0.8745,0.8824,2.0281,1.3196,3.1918,1.3196c1.1509,0,2.3097-0.4372,3.1996-1.3196
			c0.8772-0.8823,1.3224-2.028,1.312-3.187c0.0104-1.1557-0.4348-2.3171-1.3196-3.1994
			C51.2424,88.3027,50.0889,87.8574,48.938,87.8655z"/>
		<path fill="#ffffff" d="M92.75,39.4289c1.1483,0,2.307-0.4447,3.1895-1.3219c0.8848-0.8823,1.3299-2.0308,1.3221-3.1794
			c0.0078-1.1586-0.4476-2.3223-1.3221-3.1995c-0.8825-0.8823-2.0412-1.3299-3.1895-1.3299c-1.1586,0-2.3147,0.4401-3.1892,1.3224
			c-0.8825,0.8847-1.33,2.0409-1.33,3.197c0,1.151,0.4397,2.3071,1.3222,3.1894C90.4277,38.9918,91.5914,39.4289,92.75,39.4289z"/>
		<path fill="#ffffff" d="M92.1669,53.6749c1.1483,0,2.2993-0.4371,3.1892-1.3143c0.8824-0.8825,1.3224-2.049,1.3148-3.197
			c0.0076-1.1586-0.4399-2.3147-1.3096-3.1819c-0.8823-0.8924-2.0461-1.33-3.2022-1.33c-1.1585,0-2.3222,0.4376-3.1892,1.33
			c-0.8774,0.8672-1.3224,2.0233-1.3224,3.1819c0,1.148,0.4322,2.307,1.3274,3.197C89.8599,53.2378,91.0082,53.6749,92.1669,53.6749
			z"/>
		<path fill="#ffffff" d="M35.6102,83.5608c1.1562,0,2.3199-0.4397,3.1996-1.322c0.8748-0.8802,1.3198-2.0362,1.3122-3.1819
			c0.0076-1.1563-0.4374-2.3096-1.3122-3.1948c-0.89-0.8794-2.0434-1.3248-3.1996-1.3248c-1.1533,0-2.3069,0.4454-3.1843,1.3248
			c-0.8899,0.8779-1.3323,2.0385-1.3247,3.1948c-0.0076,1.1562,0.4424,2.3095,1.3247,3.1919
			C33.2932,83.1211,34.4491,83.5608,35.6102,83.5608z"/>
		<path fill="#ffffff" d="M83.2996,62.8392c0.619,0.6266,1.4348,0.9383,2.2507,0.9383c0.8158,0,1.6318-0.3117,2.2507-0.9383
			c1.2482-1.2405,1.2482-3.2585,0-4.5014L69.6599,40.1963c-1.243-1.2428-3.261-1.2428-4.5015,0c-1.243,1.2508-1.243,3.269,0,4.5118
			L83.2996,62.8392z"/>
		<path fill="#ffffff" d="M58.327,87.8039c0.619,0.6214,1.4348,0.9312,2.2559,0.9312c0.8159,0,1.6317-0.3098,2.2507-0.9312
			c1.2506-1.2509,1.2506-3.2631,0-4.5141L44.7078,65.1615c-1.2431-1.2481-3.2558-1.2481-4.5091,0
			c-1.2404,1.2428-1.2404,3.258,0,4.5066L58.327,87.8039z"/>
		<path fill="#ffffff" d="M78.8339,40.3474c1.1485,0,2.3045-0.4453,3.1894-1.312c0.8825-0.8853,1.3248-2.049,1.3198-3.2074
			c0.005-1.1482-0.4373-2.3119-1.3122-3.1866c-0.8823-0.8748-2.0409-1.3201-3.1892-1.3201c-1.1587,0-2.3224,0.4376-3.197,1.3276
			c-0.8824,0.8748-1.33,2.0309-1.33,3.1791c0,1.1584,0.4398,2.3146,1.33,3.197C76.5271,39.9073,77.683,40.3474,78.8339,40.3474z"/>
		<path fill="#ffffff" d="M47.7358,116.0579c0.0231,0,0.0486,0,0.0693,0c0.2351,0,0.3836-0.0074,0.4167-0.0074
			c0.8031-0.0234,1.5703-0.3608,2.151-0.9311l64.7435-64.7514c0.5705-0.5778,0.9004-1.3375,0.9309-2.1507
			c0-0.0332,0.0079-0.1715,0.0079-0.4093c0.0256-2.3838-0.7367-13.1409-11.7345-24.1236
			c-10.9978-11.0157-21.7499-11.765-24.1335-11.7418c-0.2738,0-0.4453,0.0152-0.5244,0.0152
			c-0.7649,0.0535-1.4859,0.3836-2.0283,0.9311l-64.7383,64.741c-0.5294,0.5241-0.8543,1.2043-0.9259,1.9409
			c-0.0076,0.1023-0.0255,0.3123-0.0255,0.6243c-0.0204,2.3862,0.7289,13.146,11.7368,24.1286
			C34.5642,115.2214,45.2091,116.0579,47.7358,116.0579z M81.1692,18.3699c2.8032,0.2353,10.4094,1.6036,18.645,9.8183
			c8.2228,8.2437,9.5808,15.8625,9.8161,18.6555l-62.7818,62.7845c-2.7854-0.2305-10.4094-1.586-18.663-9.8111
			c-8.2329-8.2558-9.591-15.8701-9.816-18.6577L81.1692,18.3699z"/>
		<path fill="#ffffff" d="M34.692,97.4822c1.1536,0,2.3173-0.4453,3.1895-1.3201c0.8746-0.8899,1.3247-2.0513,1.3198-3.2068
			c0.0049-1.1562-0.4298-2.31-1.302-3.1821l-0.3197,0.3096l0.3197-0.3199c-0.89-0.8796-2.0461-1.3173-3.1995-1.3173
			c-1.1587,0-2.3198,0.4506-3.2021,1.333c-0.8877,0.8747-1.3248,2.0356-1.3248,3.184c0,1.1563,0.4499,2.3096,1.3248,3.1919
			C32.3699,97.0369,33.5361,97.4822,34.692,97.4822z"/>
	</g>
</g>
</svg>
