<?xml version="1.0" encoding="utf-8"?>

<svg version="1.2" baseProfile="tiny" xmlns="http://www.w3.org/2000/svg" xmlns:xlink="http://www.w3.org/1999/xlink" x="0px"
	 y="0px" width="64px" height="64px" viewBox="0 0 64 64" xml:space="preserve">

<g id="Production">
	<g>
		<path fill="#ffffff" d="M37.3998,10.0312c8.897-0.3203,19.8674,12.2144,8.8372,23.2087
			c-18.238,18.1728-19.5915,20.5899-24.4548,20.7318c-2.2023,0.0742-4.2766-0.7969-5.9748-2.4903
			c-3.7267-3.7153-3.3321-8.9134,1.0107-13.243c0,0,7.7541-7.7446,12.0863-12.0639c3.7887-3.7754,9.6781,2.0355,5.8615,5.8408
			L23.3574,43.3857l3.5645,3.5523c11.9625-11.9212,14.327-13.1935,14.1098-18.0799c-0.3357-7.5677-9.7696-12.1325-15.6928-6.2362
			c-4.334,4.3212-12.0882,12.0663-12.0882,12.0663c-10.8381,10.805-2.3014,24.3112,8.3069,24.3112
			c0.123,0,0.248-0.002,0.3721-0.0054c3.7715-0.1098,7.4552-1.853,10.6516-5.0414l17.2202-17.1599
			c7.7576-7.7286,8.3972-18.3784,0.584-26.1633c-7.8487-7.8205-18.2729-7.377-26.2536,0.5806L7.6002,27.6833l3.5644,3.5527
			C28.1581,14.3034,30.7852,10.2385,37.3998,10.0312z"/>
	</g>
</g>
</svg>
