<?xml version="1.0" encoding="utf-8"?>
<!-- Generator: Adobe Illustrator 18.1.1, SVG Export Plug-In . SVG Version: 6.00 Build 0)  -->
<svg version="1.2" baseProfile="tiny" xmlns="http://www.w3.org/2000/svg" xmlns:xlink="http://www.w3.org/1999/xlink" x="0px"
	 y="0px" width="128px" height="128px" viewBox="0 0 128 128" xml:space="preserve">
<g id="_x31_28px_boxes">
	<rect fill="none" width="128" height="128"/>
</g>
<g id="Production">
	<g>
		<path fill="#ffffff" d="M93.9189,63.1664v41.5539v2.2209c7.1957,0,26.6667,0,34.0811,0V63.1664H93.9189z M107.3313,99.2208
			h-4.4714v-9.9012h4.4714V99.2208z M107.3313,82.2913h-4.4714v-9.9012h4.4714V82.2913z M119.4207,99.2208h-4.4715v-9.9012h4.4715
			V99.2208z M119.4207,82.2913h-4.4715v-9.9012h4.4715V82.2913z"/>
		<path fill="#ffffff" d="M0,106.9412h34.0816V63.1664H0V106.9412z M20.6689,72.3901h4.4715v9.9012h-4.4715V72.3901z
			 M20.6689,89.3196h4.4715v9.9012h-4.4715V89.3196z M8.5796,72.3901h4.4714v9.9012H8.5796V72.3901z M8.5796,89.3196h4.4714v9.9012
			H8.5796V89.3196z"/>
		<path fill="#ffffff" d="M95.3078,56.5945v-3.2451c0-0.9118-0.5536-1.7323-1.3993-2.0734L66.2358,40.1141v-8.7438
			c1.0667,0.0146,2.5848,0.5745,4.1924,1.1695c11.3474,4.1989,16.2791-0.3709,16.2791-2.0856V19.5723
			c0-1.5273-1.7404-2.4016-2.9654-1.5019c-6.2759,4.6065-12.445-1.3108-17.5502-1.3108c-1.9537,0-4.4273,1.1931-4.4273,3.0884
			v20.2661L34.0918,51.276c-0.8457,0.3411-1.3994,1.1616-1.3994,2.0734v3.2451c0,0.935,0.5744,1.735,1.3892,2.0686
			c0.2612,0.1072,0.5466,0.1672,0.8464,0.1672h3.6247v40.8458h8.596V63.3795h11.5542v36.2966h10.0837V63.3795h11.554v36.2966h0.1643
			h8.9426V58.8303h3.6248c0.2998,0,0.5852-0.06,0.8466-0.1672C94.7334,58.3295,95.3078,57.5295,95.3078,56.5945z"/>
		<polygon fill="#ffffff" points="38.5852,104.1475 38.5527,104.1475 38.5356,104.1475 38.5356,111.2404 38.5527,111.2404 
			89.4563,111.2404 89.4475,104.1475 		"/>
	</g>
</g>
</svg>
