<?xml version="1.0" encoding="utf-8"?>
<!-- Generator: Adobe Illustrator 19.1.0, SVG Export Plug-In . SVG Version: 6.00 Build 0)  -->
<svg version="1.2" baseProfile="tiny" xmlns="http://www.w3.org/2000/svg" xmlns:xlink="http://www.w3.org/1999/xlink" x="0px"
	 y="0px" width="64px" height="64px" viewBox="0 0 64 64" xml:space="preserve">
<g id="box">
	<rect fill="none" width="64" height="64"/>
</g>
<g id="Production">
	<g>
		<path fill="#ffffff" d="M56.2002,4.0337L49.8535,8.395l-1.2808,2.7891l-16.6526,16.653l-2.8284-2.8283l-4.6104,4.6108
			c0.2014,1.4412,0.1245,2.7031-1.0464,3.8745c-1.1545,1.1533-2.4208,1.249-3.8745,1.0459L6.4644,47.6362
			c-1.9497,1.9492-1.9497,5.1216,0,7.0708l2.8286,2.8286c1.95,1.9498,5.121,1.9498,7.0708,0L29.46,44.4395
			c-0.2014-1.4412-0.1252-2.7034,1.0459-3.8745c1.1592-1.1592,2.4274-1.2486,3.8745-1.0464l4.6108-4.6104l-2.8284-2.8284
			l16.6531-16.6526l2.7891-1.2808l4.3613-6.3467L56.2002,4.0337z M36.1631,34.9082l-2.5112,2.5107
			c-1.7134-0.0933-3.3481,0.52-4.5601,1.7319c-1.2114,1.2109-1.8276,2.8501-1.7314,4.5601L14.9497,56.1216
			c-1.1699,1.1689-3.0728,1.1699-4.2427,0L7.8784,53.293c-1.1694-1.1699-1.1694-3.0728,0-4.2427l12.4106-12.4106
			c1.7192,0.0884,3.3491-0.5205,4.5601-1.7314c1.2114-1.2119,1.8281-2.8506,1.7319-4.5601l2.5107-2.5112L36.1631,34.9082z
			 M54.2692,12.5593l-2.6141,1.1999L34.7485,30.6656l-1.4141-1.4142L50.241,12.3449l1.1997-2.6141l4.5212-3.107l1.4143,1.4142
			L54.2692,12.5593z"/>
		
			<rect x="16.4247" y="38.0753" transform="matrix(-0.7071 -0.7071 0.7071 -0.7071 -3.1882 91.8303)" fill="#ffffff" width="1.9998" height="17.0003"/>
	</g>
</g>
</svg>

