<?xml version="1.0" encoding="utf-8"?>
<!-- Generator: Adobe Illustrator 18.1.1, SVG Export Plug-In . SVG Version: 6.00 Build 0)  -->
<svg version="1.2" baseProfile="tiny" xmlns="http://www.w3.org/2000/svg" xmlns:xlink="http://www.w3.org/1999/xlink" x="0px"
	 y="0px" width="128px" height="128px" viewBox="0 0 128 128" xml:space="preserve">
<g id="box">
	<rect fill="none" width="128" height="128"/>
</g>
<g id="Production">
	<g>
		<path fill="#ffffff" d="M17.646,63.7277c0.0256-0.0332,0.0517-0.0662,0.0778-0.099c5.8359-7.2951,13.9386-9.6233,23.6873-5.6627
			c0.0864,0.0351,0.1721,0.0717,0.2573,0.1098c0,0,39.6155,17.746,39.7105,17.7894l3.8313-1.2771l-2.5574-18.4387
			c-0.2053-1.4811-1.3272-2.6689-2.7942-2.9586l-25.52-5.0389l-4.2727-23.0738c-0.3225-1.7419-1.8421-3.0058-3.6135-3.0058H14.4213
			c-2.0295,0-3.675,1.6454-3.675,3.675v22.2093H5.7824c-1.9367,0-3.5068,1.5699-3.5068,3.5067v21.0423
			c0,1.1184,0.5334,2.1697,1.436,2.8301l3.1575,2.3103L17.646,63.7277z M32.6025,29.4224h10.793l3.4319,18.5342H32.6025V29.4224z
			 M18.0964,29.4224h7.156v18.5342h-7.156V29.4224z"/>
		<path fill="#ffffff" d="M62.3046,85.721l-35.26-3.8394c-2.313-0.2515-4.3874,1.4177-4.6389,3.7278
			c-0.2517,2.3105,1.4175,4.3874,3.7278,4.6389l51.8125,5.6416c-1.0081,0.9995-2.3943,1.6179-3.9226,1.6179H18.0896
			c-4.1238,0-7.8287-4.7459-3.8138-9.6701c0.022-0.0271,0.0437-0.0545,0.0652-0.0821l12.8487-16.5942
			c2.1591-2.6875,3.956-3.0331,5.2815-3.0331c1.205,0,2.6193,0.3334,4.322,1.0191l27.624,12.3724l11.637-3.8794L40.1152,61.544
			c-0.0444-0.0199-0.0894-0.0391-0.1343-0.0574c-7.6776-3.1187-14.1552-1.9023-19.2895,4.5159
			c-0.0137,0.0172-0.0274,0.0344-0.0408,0.0517L7.8112,82.6365c-8.4057,10.3483-0.743,23.1682,10.2784,23.1682h55.9338
			c5.9092,0,10.9641-3.7148,12.9597-8.9307l5.9536,0.6482c-0.6582-2.6408-0.685-5.5141-0.0659-8.4731l-10.5527-1.1489L94.03,83.9959
			c0.6487-2.8401,1.4338-6.3196,2.1697-9.595L62.664,85.5806C62.5407,85.6218,62.4216,85.6697,62.3046,85.721z"/>
		<path fill="#ffffff" d="M123.7473,98.5986l-5.7744-3.27l-7.981-30.9801c-1.0143-3.9378-6.6885-3.8694-7.5779,0.1255
			c-0.0427,0.1919-4.2864,19.2506-5.626,24.8847c-1.0578,4.4484-0.3054,8.625,2.1192,11.7595
			c2.3093,2.9856,5.8979,4.7153,9.8462,4.7966c1.3833,0.0286,13.1316,0.001,13.1716,0c1.7512-0.0442,3.2576-1.2803,3.6826-2.9797
			C126.0327,101.2359,125.2714,99.4617,123.7473,98.5986z"/>
	</g>
</g>
</svg>
