<?xml version="1.0" encoding="utf-8"?>
<!-- Generator: Adobe Illustrator 18.1.1, SVG Export Plug-In . SVG Version: 6.00 Build 0)  -->
<svg version="1.2" baseProfile="tiny" xmlns="http://www.w3.org/2000/svg" xmlns:xlink="http://www.w3.org/1999/xlink" x="0px"
	 y="0px" width="128px" height="128px" viewBox="0 0 128 128" xml:space="preserve">
<g id="box">
	<rect fill="none" width="128" height="128"/>
</g>
<g id="Production">
	<g>
		<path fill="#ffffff" d="M91.6038,37.8269c-5.282,4.0858-3.3379,2.582-8.4471,6.5339
			c7.0474,5.7453,11.2266,14.2495,11.2264,23.5859c0,16.7532-13.6297,30.3829-30.3829,30.3829
			c-16.7534,0-30.3833-13.6297-30.3833-30.3829c0-16.9368,13.94-30.7119,30.996-30.3753v5.9879c0,1.4399,1.6233,2.2829,2.801,1.4667
			c6.3661-4.4119,8.0739-5.5957,16.2876-11.2881c0.9894-0.6856,1.054-2.203,0-2.9334c-4.6627-3.2316-4.7496-3.2918-16.2876-11.288
			c-1.1794-0.8173-2.801,0.0266-2.801,1.4666v6.1146c-22.7945-0.3404-41.4696,18.1043-41.4696,40.849
			c0,22.5284,18.3284,40.8565,40.8569,40.8565c22.5284,0,40.8565-18.3281,40.8565-40.8562
			C104.8572,56.438,100.1299,45.6556,91.6038,37.8269z"/>
		<path fill="#ffffff" d="M53.1494,67.7744c-1.9707,1.241-4.4526,2.5549-6.6426,4.4529c-2.5185,2.1533-3.9419,5.2192-3.9785,8.4677
			h20.4029v-5.2558H50.8501c1.6426-1.606,2.6645-2.2266,4.5989-3.4309c3.7229-2.2996,7.2268-4.1243,7.2268-9.0154
			c0-5.4382-4.4893-8.0662-9.5264-8.0662c-6.3506,0-10.3657,4.2703-10.0005,10.5847h5.8032
			c0.0367-2.7739,0.949-5.1464,4.2339-5.1464c1.971,0,3.2849,1.2046,3.2849,3.1755C56.4709,65.2561,55.084,66.4968,53.1494,67.7744z
			"/>
		<path fill="#ffffff" d="M76.3149,55.2551L64.9272,69.2343v5.8035h11.1324v5.6572h6.2048v-5.6572h3.3215V69.782h-3.3215V55.2551
			H76.3149z M76.2422,69.782h-6.4971l6.4238-8.2124h0.0733V69.782z"/>
	</g>
</g>
</svg>
