<?xml version="1.0" encoding="utf-8"?>

<svg version="1.2" baseProfile="tiny" xmlns="http://www.w3.org/2000/svg" xmlns:xlink="http://www.w3.org/1999/xlink" x="0px"
	 y="0px" width="128px" height="128px" viewBox="0 0 128 128" xml:space="preserve">
<g id="_x31_28px_boxes">
	<rect fill="none" width="128" height="128"/>
</g>
<g id="Production">
	<g>
		<path fill="#ffffff" d="M46.8307,32.7136c-6.0608,1.9482-13.8801,6.8446-8.5853,12.0114
			c9.6519,9.4186,45.984,9.0921,63.6507-0.7605c6.6285-3.7034,11.3326-9.4088,7.1988-15.7543
			C95.527,9.9214,15.7281,14.3373,17.4449,41.7049c-0.0245,9.6778,11.0597,16.7215,20.9025,24.8947
			c17.7594,14.7467-10.3367,13.7716,8.3298,37.0349c8.4273,10.503,12.7772,7.1056,12.2014,3.8372
			c-3.1065-17.6315,12.4474-13.462,20.7062-24.0248c-5.3177,0.7682-10.6578,0.8873-16.0005,0.6129
			c-1.4626-0.0748-1.4819-2.2345-0.0292-2.3466c11.1016-0.872,24.2527-3.7789,32.0784-11.6299
			c-2.8232,0.9225-5.6925,1.5768-8.5603,2.0175c-9.863,1.5159-20.3149,0.6581-30.0837-1.1347
			c-0.7942-0.1458-1.3201-0.9079-1.1742-1.7022c0.1399-0.762,0.8426-1.2605,1.5544-1.1936
			c19.2811,1.4946,42.0432-1.0431,51.0691-18.081C81.6035,65.9878,25.109,57.1374,30.4024,39.1408
			c4.0385-13.7907,44.2388-16.7521,59.4989-10.8909c4.8844,1.8761,6.8394,4.0447,7.0667,5.6918
			c0.947,6.8619-24.6544,11.4797-42.3435,8.9904C41.9607,40.3352,43.8595,35.3277,46.8307,32.7136z"/>
	</g>
</g>
</svg>
