<?xml version="1.0" encoding="utf-8"?>
<!-- Generator: Adobe Illustrator 18.1.1, SVG Export Plug-In . SVG Version: 6.00 Build 0)  -->
<svg version="1.2" baseProfile="tiny" xmlns="http://www.w3.org/2000/svg" xmlns:xlink="http://www.w3.org/1999/xlink" x="0px"
	 y="0px" width="128px" height="128px" viewBox="0 0 128 128" xml:space="preserve">
<g id="box">
	<rect fill="none" width="128" height="128"/>
</g>
<g id="Production">
	<g>
		<path fill="#ffffff" d="M27.5813,66.4617c-6.8628-2.4264-11.7864-9.0177-11.7864-16.7732c0-9.9912,8.188-18.1166,18.2412-17.7556
			c2.9387-14.3215,21.0212-18.8861,30.3281-7.6866c-5.866-11.2771-20.4148-14.5476-30.4736-6.8792
			c-2.6384,2.0119-4.7644,4.6701-6.1655,7.6669C17.4406,26.2906,9.447,35.105,9.447,45.7571
			C9.447,56.3594,17.3659,65.1413,27.5813,66.4617z"/>
		<path fill="#ffffff" d="M51.9899,47.6471c-0.0678-0.002-0.1359-0.005-0.2038-0.007c-6.2427-0.1759-12.523,0.0456-18.6624,1.2677
			c-4.4887,0.9065-4.3545,7.435,0.1997,8.124l66.6421,10.0819c4.6033,0.6893,6.6631-5.6186,2.5262-7.767
			c-5.5208-2.8668-11.4224-4.8834-17.4017-6.552c-0.059-0.016-0.1184-0.0306-0.1774-0.0466
			c-0.0582-8.1306-5.9537-15.3493-14.3433-16.6177C62.267,34.8738,54.5056,39.9144,51.9899,47.6471z M69.5278,43.0162
			c4.3389,0.6562,7.4958,4.0238,8.2478,7.997c-6.2312-1.3569-13.8716-2.4859-18.4414-2.8912
			C61.2531,44.5925,65.2356,42.3671,69.5278,43.0162z"/>
		<path fill="#ffffff" d="M118.3686,82.2896c-0.7468-2.7067-3.5456-4.295-6.2524-3.5486l-9.8015,2.7037V72.283H31.1438v9.194
			l-9.9187-2.736c-2.7063-0.7464-5.5059,0.8419-6.2525,3.5486c-0.7468,2.7064,0.8421,5.5059,3.5486,6.2524l12.6226,3.4821v14.1603
			c0,4.8026,3.851,8.6164,8.6538,8.6164h53.7458c4.803,0,8.7713-3.8138,8.7713-8.6164V91.9917L114.82,88.542
			C117.5266,87.7955,119.1154,84.996,118.3686,82.2896z"/>
	</g>
</g>
</svg>
