<?xml version="1.0" encoding="utf-8"?>
<!-- Generator: Adobe Illustrator 18.1.1, SVG Export Plug-In . SVG Version: 6.00 Build 0)  -->
<svg version="1.2" baseProfile="tiny" xmlns="http://www.w3.org/2000/svg" xmlns:xlink="http://www.w3.org/1999/xlink" x="0px"
	 y="0px" width="128px" height="128px" viewBox="0 0 128 128" xml:space="preserve">
<g id="_x31_28px_boxes">
	<rect fill="none" width="128" height="128"/>
</g>
<g id="Production">
	<g>
		<path fill="#ffffff" d="M70.7634,49.5342l-8.6636-0.0001l-0.0061-7.5095c-0.0076-4.2364-3.4538-7.6824-7.6816-7.6821H38.461
			c-4.2268,0.0007-7.6751,3.4457-7.6874,7.6844l0.0007,7.5076l-17.3525-0.0009c-2.029,0.0009-3.6705,1.6414-3.6707,3.6682
			l0.0006,38.6789c-0.0006,2.027,1.6421,3.672,3.6706,3.6725h65.94c2.02,0,3.6652-1.6458,3.6652-3.672l0.0003-27.9977
			C77.3977,60.7491,73,55.6579,70.7634,49.5342z M38.6818,42.2486l15.5049,0.0071l-0.0028,7.2788l-15.5021-0.0004V42.2486z
			 M31.3995,73.6618c-4.5148,0-8.1747-3.6597-8.1747-8.1747c0-4.5145,3.6599-8.1745,8.1747-8.1745
			c4.5142,0,8.1743,3.66,8.1743,8.1745C39.5738,70.0021,35.9137,73.6618,31.3995,73.6618z M61.3542,84.1533l-13.1831,3.5324
			c-1.3755,0.3684-2.7891-0.4479-3.1575-1.8229L42.8935,77.95c-0.3688-1.375,0.4475-2.7891,1.8229-3.1578l13.1838-3.5326
			c1.3754-0.3687,2.7885,0.448,3.1571,1.8232l2.1199,7.9126C63.5461,82.3708,62.7297,83.7846,61.3542,84.1533z"/>
		<path fill="#ffffff" d="M118.2898,40.3099c0-12.2357-9.9541-22.1902-22.1897-22.1902c-12.2359,0-22.1902,9.9545-22.1902,22.1902
			c0,10.6406,7.529,19.5544,17.5393,21.6979c0,6.2022,0,23.5814,0,29.7795c0,5.4161-4.4063,9.8224-9.8223,9.8224H13.8106
			c-5.4643,0-5.47,8.2706,0,8.2706h67.8163c9.9763,0,18.0928-8.1165,18.0928-18.093c0-10.9272,0-17.8932,0-29.5846
			C110.2395,60.4694,118.2898,51.3129,118.2898,40.3099z M80.5261,40.3099c0-8.5874,6.9866-15.5738,15.574-15.5738
			c8.5871,0,15.5734,6.9864,15.5734,15.5738c0,8.5871-6.9863,15.5732-15.5734,15.5732
			C87.5127,55.8831,80.5261,48.897,80.5261,40.3099z"/>
		<path fill="#ffffff" d="M100.8068,41.5889c0.8548-3.1472-1.5301-6.161-4.7067-6.161c-2.6968,0-4.8821,2.1857-4.8821,4.8818
			c0,2.9224,2.5693,5.2473,5.562,4.8293l5.5349,4.6239c1.4063,1.1726,3.379-0.5609,2.3872-2.1056L100.8068,41.5889z"/>
	</g>
</g>
</svg>
