<?xml version="1.0" encoding="utf-8"?>
<!-- Generator: Adobe Illustrator 18.1.1, SVG Export Plug-In . SVG Version: 6.00 Build 0)  -->
<svg version="1.2" baseProfile="tiny" xmlns="http://www.w3.org/2000/svg" xmlns:xlink="http://www.w3.org/1999/xlink" x="0px"
	 y="0px" width="64px" height="64px" viewBox="0 0 64 64" xml:space="preserve">

<g id="Production">
	<g>
		<polygon fill="#ffffff" points="6,16 6,20 2,20 2,22 6,22 8,22 18,22 18,20 8,20 8,16 		"/>
		<polygon fill="#ffffff" points="8,24 6,24 6,33 0,33 0,35 6,35 8,35 14,35 14,33 8,33 		"/>
		<path fill="#ffffff" d="M9,45c-0.5513,0-1-0.4487-1-1v-7H6v7c0,1.6543,1.3457,3,3,3h4.0693c-0.0923-0.7382-0.0923-1.2618,0-2H9z"
			/>
		<path fill="#ffffff" d="M61.9497,32.5356l-2.0688-2.0693c-2.3691-7.5215-4.9419-12.9346-7.8633-16.541
			C51.0269,12.7017,49.5156,12,47.8716,12H0v2h47.8716c1.0225,0,1.9917,0.4429,2.5918,1.1841
			c1.0742,1.3264,2.1018,2.9305,3.0923,4.8159H47c-1.084,0-2,0.9717-2,2.1221V30c0,1.103,0.897,2,2,2h11.5859l1.9497,1.9497
			C61.48,34.894,62,36.1499,62,37.4854V44c0,0.5513-0.4487,1-1,1h-1.0693c0.0923,0.7382,0.0923,1.2618,0,2H61c1.6543,0,3-1.3457,3-3
			v-6.5146C64,35.6157,63.272,33.8579,61.9497,32.5356z M47,30v-7.8779c0-0.0439,0.043-0.1287,0-0.1321h7.5364
			c1.0676,2.2983,2.0916,4.9709,3.0842,8.01H47z"/>
		<path fill="#ffffff" d="M28.9307,45c0.0923,0.7382,0.0923,1.2618,0,2h15.1387c-0.0923-0.7382-0.0923-1.2618,0-2H28.9307z"/>
		<path fill="#ffffff" d="M21,40c-3.3086,0-6,2.6914-6,6s2.6914,6,6,6s6-2.6914,6-6S24.3086,40,21,40z M21,50
			c-2.2056,0-4-1.7944-4-4s1.7944-4,4-4s4,1.7944,4,4S23.2056,50,21,50z"/>
		<path fill="#ffffff" d="M52,40c-3.3086,0-6,2.6914-6,6s2.6914,6,6,6s6-2.6914,6-6S55.3086,40,52,40z M52,50
			c-2.2056,0-4-1.7944-4-4s1.7944-4,4-4s4,1.7944,4,4S54.2056,50,52,50z"/>
	</g>
</g>
</svg>
