<?xml version="1.0" encoding="utf-8"?>
<!-- Generator: Adobe Illustrator 18.1.1, SVG Export Plug-In . SVG Version: 6.00 Build 0)  -->
<svg version="1.2" baseProfile="tiny" xmlns="http://www.w3.org/2000/svg" xmlns:xlink="http://www.w3.org/1999/xlink" x="0px"
	 y="0px" width="128px" height="128px" viewBox="0 0 128 128" xml:space="preserve">
<g id="_x31_28px_boxes" display="none">
	<rect display="inline" fill="none" width="128" height="128"/>
</g>
<g id="Production">
	<g>
		<path fill="#ffffff" d="M100.4271,58.1771H97.185c-5.5428-3.5898-16.5017-10.7006-22.4558-14.6522
			c3.2311-7.561-4.184-11.8982-5.2169-14.7699c-0.043-0.1191-0.381-1.0936-0.2743-1.136c2.7981-1.1153,4.7412-3.5618,4.7412-6.403
			v-2.7529c0-3.1842-2.4397-5.8737-5.7892-6.7476V4.7972h-4.7058v6.9183c-3.3496,0.8739-5.7897,3.5634-5.7897,6.7476v2.7529
			c0,2.8937,2.0157,5.3786,4.8972,6.4639c0.1983,2.5191,1.047,4.7774,2.6607,6.8241c3.8381,4.8678,7.7816,5.3345-4.1697,14.1947
			c3.3356,1.2629,7.7992,0.9201,10.9107-1.5889c4.2832,2.8467,11.2485,7.385,16.9198,11.0673H39.88
			c12.0438-7.2772,18.28-11.1372,22.6342-14.4247c2.214-1.6715,3.5736-3.2013,2.542-4.7379
			c-0.6865-0.6852-2.9581,0.2799-4.3945,0.9344c-0.5082-1.4046-0.5433-3.8543-0.8434-4.342
			c-0.8637-1.4034-3.5043-1.9219-4.2466,1.3873c-0.4568,2.037-0.3203,4.2641,0.2404,6.0417
			c-6.0877,3.9645-18.5154,11.4563-24.6624,15.1412h-3.5769c-2.1658,0-3.9215,1.7557-3.9215,3.9215v57.1827
			c0,2.1657,1.7557,3.9215,3.9215,3.9215h72.8543c2.1659,0,3.9216-1.7558,3.9216-3.9215V62.0986
			C104.3487,59.9328,102.593,58.1771,100.4271,58.1771z M96.5056,109.6779L82.6915,93.1087
			c0.0024-0.0514,0.0079-0.1019,0.0079-0.1538V66.0202h13.8062V109.6779z M76.425,85.592L60.1077,66.0202H76.425V85.592z
			 M51.9387,66.0202l41.1345,49.3395H75.3229L34.8476,66.0202H51.9387z M67.2072,115.3597H51.4029V96.094L67.2072,115.3597z
			 M31.4942,71.8255l13.6343,16.6201v26.9141H31.4942V71.8255z"/>
	</g>
</g>
</svg>

