<?xml version="1.0" encoding="utf-8"?>
<!-- Generator: Adobe Illustrator 18.1.1, SVG Export Plug-In . SVG Version: 6.00 Build 0)  -->
<svg version="1.2" baseProfile="tiny" xmlns="http://www.w3.org/2000/svg" xmlns:xlink="http://www.w3.org/1999/xlink" x="0px"
	 y="0px" width="128px" height="128px" viewBox="0 0 128 128" xml:space="preserve">
<g id="_x31_28px_boxes" display="none">
	<rect display="inline" fill="none" width="128" height="128"/>
</g>
<g id="Production">
	<g>
		<path fill="#ffffff" d="M52.5941,30.8251l0.0296-0.0306l22.8664,0.0072c0-0.0072,0.0289,0.0234,0.0289,0.0234l-0.0069,7.157
			h7.4961l-0.0069-7.157c-0.0074-4.1393-3.3481-7.5126-7.5112-7.5126H52.6237c-4.1633,0-7.5042,3.3733-7.5154,7.5126v7.157h7.4858
			V30.8251z"/>
		<path fill="#ffffff" d="M104.5257,42.6607H84.4633l6.3655,6.3388c0.6856,0.6828,1.071,1.6108,1.0719,2.5793l0.0157,26.7869
			c0.001,2.0176-1.6322,3.7295-3.6494,3.7373H70.5204c-2.016,0.0078-3.6526-1.6211-3.6539-3.6387l-0.0204-26.8045
			c-0.0002-0.9687,0.3825-1.8986,1.067-2.587l6.373-6.4121H23.4776c-2.4923,0-4.51,2.0171-4.51,4.5066v53.0065
			c0,2.4927,2.0177,4.5137,4.51,4.5137h81.0481c2.4859,0,4.5067-2.021,4.5067-4.5137V47.1673
			C109.0324,44.6778,107.0116,42.6607,104.5257,42.6607z"/>
		<path fill="#ffffff" d="M79.3732,46.5925c-2.0621,0.0083-3.7314,1.687-3.7297,3.7495c0.0017,2.0622,1.6731,3.7278,3.7359,3.72
			c2.0608-0.0082,3.7305-1.6873,3.7289-3.7492C83.1067,48.2502,81.434,46.5847,79.3732,46.5925z"/>
	</g>
</g>
</svg>
