<?xml version="1.0" encoding="utf-8"?>
<!-- Generator: Adobe Illustrator 18.1.1, SVG Export Plug-In . SVG Version: 6.00 Build 0)  -->
<svg version="1.2" baseProfile="tiny" xmlns="http://www.w3.org/2000/svg" xmlns:xlink="http://www.w3.org/1999/xlink" x="0px"
	 y="0px" width="128px" height="128px" viewBox="0 0 128 128" xml:space="preserve">
<g id="box">
	<rect fill="none" width="128" height="128"/>
</g>
<g id="Production">
	<g>
		<path fill="#ffffff" d="M50.0391,102.327c-0.003,1.3167,0.7163,2.3755,1.4936,3.0503c1.188,1.032,2.6475,1.6006,3.9856,2.0506
			c0.5537,0.1816,1.0906,0.3337,1.5681,0.4611c0.1765,1.8352,1.7049,3.2771,3.5884,3.2771h6.7061
			c1.9145,0,3.4709-1.4968,3.5962-3.382c0.884-0.2395,1.935-0.5516,2.9458-0.9685c0.9045-0.3812,1.7959-0.8353,2.5712-1.511
			c0.7588-0.6526,1.4698-1.6878,1.4671-2.9776V89.0231l-27.9221-0.0008V102.327z"/>
		<path fill="#ffffff" d="M64,16.8339c-16.6072,0-30.0693,13.4621-30.0693,30.0686c0,19.563,16.1084,23.3103,16.1084,33.1474v3.7315
			h13.448c3.3909-11.6394,4.4909-24.8845-2.3614-34.7653c-1.0835-1.5622-1.9138-2.3437-1.9255-2.3544
			c-0.2436-0.2284-0.6247,0.0635-0.4619,0.3599c0.7601,1.0134,5.5415,11.5847,2.5593,22.0808
			c-8.4177-1.5348-12.3403-9.2536-12.343-17.1196c0-3.3235,0.7524-6.8732,2.5347-10.3323
			c4.9043-9.5207,12.5046-12.2165,12.6472-12.266c0.9164-0.3211,1.7604,0.646,1.3188,1.5108c0,0,0,0-0.0024,0.0052
			c-1.005,2.1607-1.2456,5.1216-0.1336,7.6945c3.0314,6.9888,12.7731,6.0166,14.1424,15.9393
			c0.8995,6.363-3.0585,11.5812-9.0923,13.7839c-0.0549,5.0581-0.9055,10.0743-2.3989,15.4632h9.9907v-3.7315
			c0-9.3427,16.1081-13.2588,16.1081-33.1474C94.0693,30.296,80.6069,16.8339,64,16.8339z"/>
	</g>
</g>
</svg>
