<?xml version="1.0" encoding="utf-8"?>

<svg version="1.2" baseProfile="tiny" xmlns="http://www.w3.org/2000/svg" xmlns:xlink="http://www.w3.org/1999/xlink" x="0px"
	 y="0px" width="64px" height="64px" viewBox="0 0 64 64" xml:space="preserve">

<g id="Production">
	<g>
		<path fill="#ffffff" d="M60.7732,51.4717C59.804,41.4519,48.8549,38.9131,39.4385,40.376
			c0.9609,1.3859,1.6764,2.9393,2.1354,4.6453c6.2701-0.519,13.8124,0.5249,14.4193,6.7953L56.1709,54h4.8083L60.7732,51.4717z"/>
		<path fill="#ffffff" d="M20.5112,35.995c-14.7148,0-17.855,7.6025-18.3018,12.1707L2.0928,54h4.7516l0.145-5.485
			c0.4941-5.0557,5.3092-7.6212,13.5219-7.6212c8.2136,0,13.0297,2.5668,13.5205,7.5853L34.1621,54h4.8208l-0.1714-5.8713
			C38.3682,43.5975,35.2275,35.995,20.5112,35.995z"/>
		<path fill="#ffffff" d="M44,36.9918c12,0,14-20.9998,0-20.9998S32,36.9918,44,36.9918z M44,20.7718c8,0,6,11.4404,0,11.4404
			S36,20.7718,44,20.7718z"/>
		<path fill="#ffffff" d="M20,32.9938c13,0,16-21.9998,0-21.9998C5,10.9941,8,32.9938,20,32.9938z M20.4951,15.665
			c2.1328,0,5.7119,0.335,5.7119,5.335c0,10-11.4247,10-11.4247,0C14.7823,16,18.3613,15.665,20.4951,15.665z"/>
	</g>
</g>
</svg>
