<?xml version="1.0" encoding="utf-8"?>
<!-- Generator: Adobe Illustrator 18.1.1, SVG Export Plug-In . SVG Version: 6.00 Build 0)  -->
<svg version="1.2" baseProfile="tiny" xmlns="http://www.w3.org/2000/svg" xmlns:xlink="http://www.w3.org/1999/xlink" x="0px"
	 y="0px" width="128px" height="128px" viewBox="0 0 128 128" xml:space="preserve">
<g id="_x31_28px_boxes">
	<rect fill="none" width="128" height="128"/>
</g>
<g id="Production">
	<g>
		<path fill="#ffffff" d="M20.505,90.8934c-9.6822,10.9473,5.6071,26.3022,16.6006,16.6006l23.8277-21.0274L41.5319,67.0655
			L20.505,90.8934z"/>
		<path fill="#ffffff" d="M104.8051,23.1939c-13.5382-13.5382-36.552-1.5933-33.3203,17.2625l-7.0203-7.0203
			c-1.1711-1.1711-3.0716-1.1712-4.2427,0L39.3656,54.2925c-1.1716,1.1717-1.1716,3.0711,0,4.2427l30.0977,30.0979
			c1.1711,1.1713,3.0708,1.1719,4.2427,0l20.8564-20.8562c1.171-1.171,1.1711-3.0709,0-4.2427l-7.0202-7.0205
			C106.4357,59.7519,118.3395,36.7279,104.8051,23.1939z M71.5846,82.2691L45.7297,56.4139l16.6135-16.6138l25.8552,25.8555
			L71.5846,82.2691z"/>
		<path fill="#ffffff" d="M61.7113,53.7413l4.1072,4.1067c2.6477-2.7401,6.6244,1.8912,5.1455,3.3708
			c-0.8171,0.8169-2.532-0.0007-3.6704-0.4343c-4.6359-1.7796-9.491-4.3044-12.6599-0.5725L67.798,73.3763l3-3.0002l-6.4795-6.4793
			l0.0161-0.0164c4.1414,1.5789,8.4395,4.0826,11.291,1.231C80.7318,60.0058,67.9835,46.5215,61.7113,53.7413z"/>
	</g>
</g>
</svg>
