<?xml version="1.0" encoding="utf-8"?>

<svg version="1.2" baseProfile="tiny" xmlns="http://www.w3.org/2000/svg" xmlns:xlink="http://www.w3.org/1999/xlink" x="0px"
	 y="0px" width="64px" height="64px" viewBox="0 0 64 64" xml:space="preserve">

<g id="Production">
	<path fill="#ffffff" d="M52,23v-4.6855C52,16.4868,50.5186,15,48.6978,15H22.7446c-1.3745-1.9199-3.5503-4-6.5239-4H8.4053
		C6.5596,11,5,12.5176,5,14.314v33.3926C5,49.4917,6.5596,51,8.4053,51h40.2925c1.6738,0,3.4897-1.3325,4.0483-2.9712
		C54.982,41.4591,59.0997,29.62,61.4077,23H52z M50.8525,47.3838C50.5698,48.2148,49.5225,49,48.6978,49H8.4053
		C7.6567,49,7,48.3955,7,47.7065V14.314C7,13.6138,7.6567,13,8.4053,13h7.8154c2.4354,0,4.1331,1.9988,5.4629,4h27.0142
		C49.416,17,50,17.5898,50,18.3145V23H16.8452c-1.369,3.9437-5.9873,17.2792-7.8926,22.8779
		c-0.1777,0.5229,0.1016,1.0908,0.6245,1.269c0.522,0.1768,1.0908-0.1021,1.269-0.6245c1.9199-5.6416,7.4224-21.5325,7.4224-21.5325
		h40.3242C58.5928,24.99,53.0874,40.8184,50.8525,47.3838z"/>
</g>
</svg>
