<?xml version="1.0" encoding="utf-8"?>
<!-- Generator: Adobe Illustrator 18.1.1, SVG Export Plug-In . SVG Version: 6.00 Build 0)  -->
<svg version="1.2" baseProfile="tiny" xmlns="http://www.w3.org/2000/svg" xmlns:xlink="http://www.w3.org/1999/xlink" x="0px"
	 y="0px" width="128px" height="128px" viewBox="0 0 128 128" xml:space="preserve">
<g id="_x31_28px_boxes">
	<rect fill="none" width="128" height="128"/>
</g>
<g id="Production">
	<g>
		<path fill="#ffffff" d="M81.7238,16.1109c0-2.0711-1.6789-3.75-3.75-3.75H42.9015c-2.071,0-3.75,1.6789-3.75,3.75v17.3032h42.5723
			V16.1109z"/>
		<path fill="#ffffff" d="M39.1515,111.8891c0,2.071,1.679,3.75,3.75,3.75h35.0723c2.0711,0,3.75-1.679,3.75-3.75V94.5856H39.1515
			V111.8891z"/>
		<path fill="#ffffff" d="M97.9582,57.1947h-5.7517v-9.426c0.0191-5.0806-4.7455-9.8544-9.8306-9.8544
			c-3.4216,0-41.2617,0-43.8642-0.0002c-5.0594,0-9.8428,4.7837-9.8428,9.8432v32.4128c0,5.1894,4.6898,9.9155,9.8393,9.9155
			h43.8677c5.145,0,9.8306-4.6902,9.8306-9.8401v-9.4412h5.7517c0.7583,0,1.3729-0.6146,1.3729-1.3729V58.5676
			C99.3311,57.8093,98.7165,57.1947,97.9582,57.1947z M86.2065,80.2455c0,1.7944-2.0406,3.8401-3.8306,3.8401H38.5082
			c-1.6764,0-3.8393-1.8988-3.8393-3.9155V47.7573c0-1.76,2.083-3.8432,3.8425-3.8432c2.6023,0.0002,40.4429,0.0002,43.8645,0.0002
			c1.7449,0,3.8306,1.7986,3.8306,3.843V80.2455z"/>
		<path fill="#ffffff" d="M67.9091,51.2173c-3.0991,0.0601-5.7051,1.946-6.8887,4.5996l-0.0168-0.0034
			c-0.2135,0.5008-0.926,0.4909-1.1277,0l-0.0264,0.0056c-1.1994-2.7041-3.8813-4.6018-7.0344-4.6018
			c-7.0735,0-9.9846,8.583-5.8432,12.7974c1.3308,1.3606,11.696,11.7857,12.0561,12.117c0.9214,0.8324,1.8443,0.9038,2.7952,0
			c0.3125-0.2949,11.1865-11.2386,11.1865-11.2386C78.9959,58.9232,74.3538,51.0911,67.9091,51.2173z"/>
	</g>
</g>
</svg>
