<?xml version="1.0" encoding="utf-8"?>

<svg version="1.2" baseProfile="tiny" xmlns="http://www.w3.org/2000/svg" xmlns:xlink="http://www.w3.org/1999/xlink" x="0px"
	 y="0px" width="64px" height="64px" viewBox="0 0 64 64" xml:space="preserve">

<g id="Production">
	<g>
		<path fill="#ffffff" d="M22.9315,29.585c1.5812-1.0154,3.1578-1.9494,4.6927-2.8412C25.8242,25.5881,24.1357,24,22.6119,23
			h11.2174c2.2683-2,4.2539-3,5.8514-5H18.4209c-0.8943-1-1.6384-3-2.1995-5h26.3455c0.553-1,0.9587-3,1.1956-5h-28.527
			c-0.103-1-0.1665-2-0.1948-3h-4.9989C10.3674,18,16.1733,24.7856,22.9315,29.585z"/>
		<path fill="#ffffff" d="M36.4363,32C44.6252,26.9948,52.6162,20,53,5c-1.4746,0-3.7246,0-4.9989,0
			c-0.827,31-37.1045,20-37.9594,54h4.9989c0.0283-1,0.0918-2,0.1948-3h32.5708c0.103,1,0.1665,2,0.1948,3H53
			C52.6162,44,44.6252,37.0052,36.4363,32z M31.5209,34.8914C34.781,36.7932,37.8457,39,40.4298,41H22.6119
			C25.196,39,28.2607,36.7932,31.5209,34.8914z M16.2214,51c0.561-2,1.3052-4,2.1995-5h26.2c0.8943,1,1.6384,3,2.1995,5H16.2214z"/>
	</g>
</g>
</svg>
