<?xml version="1.0" encoding="utf-8"?>
<!-- Generator: Adobe Illustrator 18.1.1, SVG Export Plug-In . SVG Version: 6.00 Build 0)  -->
<svg version="1.2" baseProfile="tiny" xmlns="http://www.w3.org/2000/svg" xmlns:xlink="http://www.w3.org/1999/xlink" x="0px"
	 y="0px" width="128px" height="128px" viewBox="0 0 128 128" xml:space="preserve">
<g id="_x31_28px_boxes">
	<rect fill="none" width="128" height="128"/>
</g>
<g id="Production">
	<g>
		<path fill="#ffffff" d="M53.0201,32.7485h6.9996l0.0245,4.732h15.51l0.0245-4.732h6.9995c1.2427,0,2.25-1.0075,2.25-2.25v-6.9381
			c0-1.2427-1.0073-2.25-2.25-2.25H53.0201c-1.2426,0-2.25,1.0073-2.25,2.25v6.9381C50.7701,31.741,51.7775,32.7485,53.0201,32.7485
			z"/>
		<path fill="#ffffff" d="M118.5699,50.8381h-9.0751c-1.2426,0-2.25,1.0072-2.25,2.25v7.8651h-5.9626V44.2305
			c0-1.2425-1.0073-2.25-2.25-2.25H49.8217c-0.6604,0-1.2875,0.2901-1.715,0.7935L37.9432,54.7408h-11.24
			c-1.2428,0-2.25,1.0074-2.25,2.25v9.5378H18.576v-7.0442c0-1.2426-1.0073-2.25-2.25-2.25H9.4301c-1.2428,0-2.25,1.0074-2.25,2.25
			v29.7018c0,1.2426,1.0072,2.25,2.25,2.25h6.8959c1.2427,0,2.25-1.0074,2.25-2.25v-7.0445h5.8772v9.5376
			c0,1.2426,1.0072,2.25,2.25,2.25h11.24l10.1635,11.9668c0.4275,0.5034,1.0546,0.7935,1.715,0.7935h33.6674
			c0.6189,0,1.2106-0.255,1.6355-0.7049l15.5431-16.4522c0.3946-0.4176,0.6145-0.9704,0.6145-1.5451v-5.0122h5.9626v7.8653
			c0,1.2426,1.0074,2.25,2.25,2.25h9.0751c1.2427,0,2.25-1.0074,2.25-2.25V53.0881
			C120.8199,51.8453,119.8126,50.8381,118.5699,50.8381z M82.6971,71.7872L62.9078,95.3975
			c-1.3861,1.6483-4.6096,0.4243-3.6904-1.9687l5.5006-14.3296h-7.7002c-1.9228,0-2.7138-1.9984-1.6773-3.2304l19.7896-23.6021
			c1.3147-1.573,4.5808-0.3819,3.6898,1.9306l-5.4985,14.2848h7.6983C83.0634,68.4821,83.6301,70.6777,82.6971,71.7872z"/>
	</g>
</g>
</svg>
