<?xml version="1.0" encoding="utf-8"?>
<!-- Generator: Adobe Illustrator 18.1.1, SVG Export Plug-In . SVG Version: 6.00 Build 0)  -->
<svg version="1.2" baseProfile="tiny" xmlns="http://www.w3.org/2000/svg" xmlns:xlink="http://www.w3.org/1999/xlink" x="0px"
	 y="0px" width="128px" height="128px" viewBox="0 0 128 128" xml:space="preserve">
<g id="box">
	<rect fill="none" width="128" height="128"/>
</g>
<g id="Production">
	<g>
		<path fill="#ffffff" d="M63.8054,38.055c-14.6072,0-26.4485,11.8415-26.4485,26.4487s11.8413,26.4485,26.4485,26.4485
			c14.6071,0,26.4487-11.8413,26.4487-26.4485S78.4125,38.055,63.8054,38.055z M74.1601,61.8297l-16.1003,21.958
			c-0.5461,0.7425-1.7194,0.1383-1.4248-0.7391l4.9628-14.7612h-7.6186c-0.6662,0-1.0459-0.7594-0.655-1.2922l16.1006-21.9573
			c0.5449-0.7443,1.7189-0.1357,1.4245,0.7385l-4.9621,14.761h7.6179C74.1694,60.5374,74.5533,61.2942,74.1601,61.8297z"/>
		<path fill="#ffffff" d="M109.3601,74.8638l-7.0686-10.8635l7.0686-10.8643c1.6465-2.531,0.5386-5.9313-2.2771-7.0089
			l-12.1045-4.6346l-0.667-12.9436c-0.1564-3.0187-3.0552-5.1153-5.9622-4.3318l-12.5166,3.365L67.684,17.5023
			c-1.9017-2.3513-5.4778-2.3408-7.3694,0.0007l-8.1479,10.0791l-12.5166-3.365c-2.9131-0.7847-5.8061,1.3189-5.9622,4.3318
			l-0.667,12.9436l-12.104,4.6346c-2.8181,1.0781-3.9221,4.4809-2.2775,7.0089l7.0683,10.8637l-7.0683,10.8641
			c-1.6456,2.5296-0.5389,5.9306,2.2771,7.0098l12.1044,4.634l0.667,12.9441c0.1563,3.0152,3.0502,5.1151,5.9622,4.3319
			l12.5166-3.365l8.1479,10.0791c1.8953,2.3459,5.4744,2.3461,7.3694,0l8.1492-10.0797l12.5161,3.3656
			c2.9091,0.7828,5.8058-1.3145,5.9622-4.3319l0.667-12.9441l12.1045-4.634C109.9015,80.7934,111.0056,77.391,109.3601,74.8638z
			 M63.8054,95.9178c-17.3417,0-31.4141-14.0626-31.4141-31.4141c0-17.3283,14.0519-31.4143,31.4141-31.4143
			c17.3155,0,31.4143,14.0364,31.4143,31.4143C95.2197,81.8876,81.1173,95.9178,63.8054,95.9178z"/>
	</g>
</g>
</svg>
