<?xml version="1.0" encoding="utf-8"?>
<!-- Generator: Adobe Illustrator 18.1.1, SVG Export Plug-In . SVG Version: 6.00 Build 0)  -->
<svg version="1.2" baseProfile="tiny" xmlns="http://www.w3.org/2000/svg" xmlns:xlink="http://www.w3.org/1999/xlink" x="0px"
	 y="0px" width="128px" height="128px" viewBox="0 0 128 128" xml:space="preserve">
<g id="_x31_28px_boxes">
	<rect fill="none" width="128" height="128"/>
</g>
<g id="Production">
	<g>
		<path fill="#ffffff" d="M26.8147,35.3946h2.7925h29.4269c2.387,0,4.329-1.9419,4.329-4.3291v-2.3281
			c0-2.3871-1.942-4.329-4.329-4.329H26.8147c-2.387,0-4.329,1.9419-4.329,4.329v2.3281
			C22.4857,33.4527,24.4277,35.3946,26.8147,35.3946z"/>
		<path fill="#ffffff" d="M25.2783,44.4117v2.328c0,2.3873,1.942,4.3291,4.3289,4.3291h18.1595
			c1.4011-2.1356,3.0204-4.1286,4.8509-5.9591c1.9071-1.907,3.9895-3.5862,6.2268-5.0266H29.6072
			C27.2203,40.0831,25.2783,42.0247,25.2783,44.4117z"/>
		<path fill="#ffffff" d="M26.8147,66.7427h15.1396c0.4329-3.3418,1.3129-6.5967,2.6347-9.7221
			c0.1801-0.4258,0.3699-0.846,0.5646-1.2632H26.8147c-2.387,0-4.329,1.9416-4.329,4.3286v2.3279
			C22.4857,64.8008,24.4277,66.7427,26.8147,66.7427z"/>
		<path fill="#ffffff" d="M43.2243,82.417c-1.0509-3.4879-1.5841-7.1069-1.5841-10.8051c0-0.0603,0.002-0.1204,0.0022-0.1807
			h-20.413c-2.3869,0-4.329,1.9418-4.329,4.3289v2.3281c0,2.3869,1.9421,4.3288,4.329,4.3288H43.2243z"/>
		<path fill="#ffffff" d="M24.022,87.1055c-2.3869,0-4.3289,1.9419-4.3289,4.3289v2.3281c0,2.387,1.942,4.3289,4.3289,4.3289
			h28.5734c-3.1953-3.2007-5.7517-6.8926-7.6099-10.9859H24.022z"/>
		<path fill="#ffffff" d="M79.1195,55.4456c-8.9511,0-16.2333,7.2822-16.2333,16.2332c0,8.9514,7.2822,16.2338,16.2333,16.2338
			c8.9513,0,16.2337-7.2824,16.2337-16.2338C95.3532,62.7278,88.0708,55.4456,79.1195,55.4456z M77.6406,83.0394
			c-2.5228,0-4.5496-0.6246-5.605-1.2093c-0.1287-0.0713-0.1945-0.2193-0.1609-0.3625l0.8424-3.5991
			c0.0232-0.0992,0.091-0.1819,0.1835-0.2242c0.0924-0.0422,0.1993-0.0393,0.2895,0.0077c0.8925,0.4687,2.6,0.9728,4.2398,0.9728
			c1.7832,0,3.5824-0.8647,3.5824-2.7966c0-2.073-1.6934-3.0806-5.177-3.0806c-1.0081,0-1.7511,0.0537-2.565,0.1853
			c-0.1016,0.0153-0.2054-0.0159-0.2799-0.0873c-0.0744-0.0711-0.1112-0.1734-0.0992-0.2757l1.2635-10.7657
			c0.0196-0.1655,0.16-0.2905,0.3267-0.2905h10.771c0.1816,0,0.3289,0.1472,0.3289,0.3289v3.9463
			c0,0.1816-0.1473,0.3288-0.3289,0.3288h-7.2939l-0.3278,2.4561c0.2815-0.0198,0.5592-0.0198,0.8823-0.0198
			c2.1464,0,4.0447,0.551,5.3454,1.5518c1.6351,1.1555,2.5051,3.0277,2.5051,5.4067C86.3635,79.253,83.3673,83.0394,77.6406,83.0394
			z"/>
		<path fill="#ffffff" d="M79.1195,39.6321c-17.6335,0-31.9793,14.346-31.9793,31.9798s14.3458,31.9797,31.9793,31.9797
			c17.6339,0,31.9801-14.3459,31.9801-31.9797S96.7534,39.6321,79.1195,39.6321z M99.7932,73.1768
			c-0.4801,6.6856-4.1416,12.501-9.4777,15.9392v5.9368c-3.3922,1.6263-7.1894,2.5388-11.196,2.5388s-7.8039-0.9125-11.1961-2.5394
			v-5.9364c-5.3358-3.4383-8.997-9.2534-9.4771-15.939l-5.2634-3.0391c0.4539-8.0732,4.6103-15.1723,10.7948-19.6237l5.1773,2.9895
			c2.959-1.6289,6.355-2.5579,9.9645-2.5579c3.6096,0,7.0055,0.929,9.9646,2.5579l5.1776-2.9895
			c6.1847,4.4511,10.3412,11.5505,10.7951,19.6235L99.7932,73.1768z"/>
	</g>
</g>
</svg>
