<?xml version="1.0" encoding="utf-8"?>
<!-- Generator: Adobe Illustrator 18.1.1, SVG Export Plug-In . SVG Version: 6.00 Build 0)  -->
<svg version="1.2" baseProfile="tiny" xmlns="http://www.w3.org/2000/svg" xmlns:xlink="http://www.w3.org/1999/xlink" x="0px"
	 y="0px" width="64px" height="64px" viewBox="0 0 64 64" xml:space="preserve">
<g id="_x36_4px_boxes">
	<rect fill="none" width="64" height="64"/>
</g>
<g id="Production">
	<g>
		<path fill="#ffffff" d="M34.3029,33.8125c0.8656-1.1364,0.6461-2.7594-0.4904-3.625L19.125,19
			c-0.0311-0.0237-0.0754-0.0248-0.1081,0c-0.0392,0.0298-0.0468,0.0858-0.0169,0.125l11.1875,14.6875
			C31.2529,35.1948,33.2858,35.1478,34.3029,33.8125z"/>
		<path fill="#ffffff" d="M31,7v13h2V9.0215c12.2202,0.5254,22,10.6333,22,22.9824c0,12.6846-10.3179,23.0039-23,23.0039
			S9,44.6934,9,32.0156c0-6.1333,2.3926-11.9033,6.7363-16.248l-1.4141-1.4141C9.6006,19.0757,7,25.3481,7,32.0156
			c0,13.7808,11.2148,24.9922,25,24.9922S57,45.791,57,32.0039C57,19.0238,46.9319,7,31,7z"/>
	</g>
</g>
</svg>

