<?xml version="1.0" encoding="utf-8"?>
<!-- Generator: Adobe Illustrator 18.1.1, SVG Export Plug-In . SVG Version: 6.00 Build 0)  -->
<svg version="1.2" baseProfile="tiny" xmlns="http://www.w3.org/2000/svg" xmlns:xlink="http://www.w3.org/1999/xlink" x="0px"
	 y="0px" width="128px" height="128px" viewBox="0 0 128 128" xml:space="preserve">
<g id="_x31_28px_boxes">
	<rect fill="none" width="128" height="128"/>
</g>
<g id="Production">
	<g>
		<path fill="#ffffff" d="M64.0958,54.7667C59.4089,46.838,51.4996,40.9486,51.3943,40.871
			c-2.8019-2.0609,8.5972,1.0928,15.6594,10.422c8.3117-14.7573-11.4509-24.8937-29.4523-23.8816
			c-0.9077,0.0525-1.6388,0.7643-1.7156,1.6703C34.1527,49.6816,52.184,64.1246,64.0958,54.7667z"/>
		<path fill="#ffffff" d="M49.9867,83.4569c-7.6935-8.1298-18.6166-12.9764-18.7622-13.0401
			c-3.5275-1.5391,10.4689-0.8292,21.2481,8.2649C57.6735,60.562,33.2895,54.5581,14.67,59.2209
			c-0.8819,0.2211-1.4673,1.0568-1.3734,1.9612C15.7661,84.9786,39.4398,96.2258,49.9867,83.4569z"/>
		<path fill="#ffffff" d="M114.4628,67.8898c-8.5094-14.54-27.1336-25.438-34.5832-10.7196
			c11.3066,0.641,19.6845,8.0881,16.5751,6.9533c-4.3493-1.5878-11.7548-3.083-17.7754-2.7371
			c-1.1283,14.2655,19.7568,21.2398,35.3435,8.857C114.7346,69.6776,114.9221,68.6745,114.4628,67.8898z"/>
		<path fill="#ffffff" d="M87.7584,79.5274c-7.4026-2.9233-15.3825,1.2251-18.1509,7.6716
			c14.9028,0.0654,26.4834,10.271,22.9359,8.92c-5.8344-2.2318-15.8628-4.3838-23.9283-3.6577
			c0.643,17.0966,23.5728,21.8419,39.6432,11.5075c0.7646-0.4917,1.0514-1.4709,0.6729-2.2976
			C108.6168,100.9844,101.0763,84.7874,87.7584,79.5274z"/>
		<path fill="#ffffff" d="M104.5866,14.4465c-0.0037-1.5076-1.9055-2.186-2.8607-1.0142
			c-5.3812,6.6012-13.1448,3.482-21.1954,9.4549c-5.7683,4.2793-6.239,14.8595-2.4151,20.1323
			c-17.3408,18.1759-26.1262,43.5704-28.9809,68.9442c-0.5837,4.9834,10.0915,3.8916,10.6731-1.532
			c2.4861-23.1831,9.3543-46.0335,22.6843-65.6338C99.398,44.1667,104.6299,31.3692,104.5866,14.4465z"/>
	</g>
</g>
</svg>

