<?xml version="1.0" encoding="utf-8"?>

<svg version="1.2" baseProfile="tiny" xmlns="http://www.w3.org/2000/svg" xmlns:xlink="http://www.w3.org/1999/xlink" x="0px"
	 y="0px" width="128px" height="128px" viewBox="0 0 128 128" xml:space="preserve">
<g id="_x31_28px_boxes">
	<rect fill="none" width="128" height="128"/>
</g>
<g id="Production">
	<g>
		<path fill="#ffffff" d="M101,94H32V40h50V30H27c-2.7617,0-5,2.2383-5,5v64c0,2.7617,2.2383,5,5,5h79c2.7617,0,5-2.2383,5-5V69.871
			l-10,9.6227V94z"/>
		<path fill="#ffffff" d="M116.2731,52.8408L92.2335,29.7087C90.6452,28.1804,88,29.3059,88,31.5101V45H77.5
			C52.3268,45,39,63.251,39,82.5c0,2.4854,2.0147,4.5,4.5,4.5c3.7827,0,4.3074-3.4131,4.5976-4.4131
			C49.1187,79.0688,54.2094,65,76,65h12v13.495c0,2.2042,2.6452,3.3297,4.2335,1.8014l24.0396-23.1321
			C117.4996,55.9841,117.4996,54.021,116.2731,52.8408z"/>
	</g>
</g>
</svg>
