<?xml version="1.0" encoding="utf-8"?>

<svg version="1.2" baseProfile="tiny" xmlns="http://www.w3.org/2000/svg" xmlns:xlink="http://www.w3.org/1999/xlink" x="0px"
	 y="0px" width="128px" height="128px" viewBox="0 0 128 128" xml:space="preserve">
<g id="_x31_28px_boxes">
	<rect fill="none" width="128" height="128"/>
</g>
<g id="Production">
	<g>
		<path fill="#ffffff" d="M28.7769,50c0.7678,0,1.249-0.8295,0.8681-1.4961l-6.2768-10.9845c-0.3838-0.6717-1.3526-0.6717-1.7364,0
			L15.355,48.5039C14.9741,49.1705,15.4553,50,16.2231,50H19v44h-2.7769c-0.7678,0-1.249,0.8295-0.8681,1.4961l6.2768,10.9844
			c0.3838,0.6718,1.3526,0.6718,1.7364,0l6.2768-10.9844C30.0259,94.8295,29.5447,94,28.7769,94H26V50H28.7769z"/>
		<path fill="#ffffff" d="M37.5195,23.3682l10.9844,6.2768C49.1704,30.026,50,29.5447,50,28.7769V26h44v2.7769
			c0,0.7678,0.8296,1.2491,1.4961,0.8681l10.9844-6.2768c0.6718-0.3838,0.6718-1.3526,0-1.7365L95.4961,15.355
			C94.8296,14.974,94,15.4553,94,16.2231V19H50v-2.7769c0-0.7678-0.8296-1.2491-1.4961-0.8681l-10.9844,6.2767
			C36.8477,22.0156,36.8477,22.9844,37.5195,23.3682z"/>
		<path fill="#ffffff" d="M105,36H39c-1.6567,0-3,1.3431-3,3v66c0,1.6569,1.3433,3,3,3h66c1.6567,0,3-1.3431,3-3V39
			C108,37.3431,106.6567,36,105,36z M48,72h24v24H48V72z M96,96H79V65H48V48h48V96z"/>
	</g>
</g>
</svg>
