<?xml version="1.0" encoding="utf-8"?>
<!-- Generator: Adobe Illustrator 18.1.1, SVG Export Plug-In . SVG Version: 6.00 Build 0)  -->
<svg version="1.2" baseProfile="tiny" xmlns="http://www.w3.org/2000/svg" xmlns:xlink="http://www.w3.org/1999/xlink" x="0px"
	 y="0px" width="128px" height="128px" viewBox="0 0 128 128" xml:space="preserve">
<g id="box">
	<rect fill="none" width="128" height="128"/>
</g>
<g id="Production">
	<g>
		<path fill="#ffffff" d="M31.1281,25.5612h-9.3215c-1.3043,0-2.3614,1.0571-2.3614,2.3615v72.1546
			c0,1.3042,1.0571,2.3615,2.3614,2.3615h9.3215c1.3043,0,2.3615-1.0573,2.3615-2.3615V27.9227
			C33.4896,26.6183,32.4324,25.5612,31.1281,25.5612z"/>
		<path fill="#ffffff" d="M106.1935,25.5612h-9.3214c-1.3044,0-2.3617,1.0571-2.3617,2.3615v72.1546
			c0,1.3042,1.0572,2.3615,2.3617,2.3615h9.3214c1.3042,0,2.3613-1.0573,2.3613-2.3615V27.9227
			C108.5548,26.6183,107.4977,25.5612,106.1935,25.5612z"/>
		<path fill="#ffffff" d="M43.0746,49.7277c2.4112,0,4.4668-2.3736,5.2641-5.7062h0.0828c0.7971,3.3326,2.853,5.7062,5.264,5.7062
			c2.4115,0,4.467-2.3736,5.2643-5.7062h30.9676v-6.1459H58.9498c-0.7973-3.3332-2.8528-5.7069-5.2643-5.7069
			c-2.411,0-4.467,2.3737-5.2644,5.7069h-0.0824c-0.7971-3.3332-2.8529-5.7069-5.2641-5.7069c-4.4213,0-5.6189,6.3484-5.6189,8.7797
			C37.4557,44.2638,39.0764,49.7277,43.0746,49.7277z"/>
		<path fill="#ffffff" d="M84.9623,54.4015c-2.411,0-4.4668,2.3736-5.264,5.7069H79.616c-0.7973-3.3333-2.8533-5.7069-5.2643-5.7069
			c-2.4116,0-4.4674,2.3736-5.2647,5.7069H38.0828v6.1459H69.087c0.7973,3.333,2.8533,5.7063,5.2647,5.7063
			c2.411,0,4.4667-2.3733,5.264-5.7063h0.0828c0.797,3.333,2.8528,5.7063,5.2638,5.7063c4.2826,0,5.6191-5.9427,5.6191-8.7793
			C90.5814,61.3416,89.6466,54.4015,84.9623,54.4015z"/>
		<path fill="#ffffff" d="M67.8527,76.6346c-2.4116,0-4.4673,2.3736-5.2647,5.7066h-9.0046
			c-0.7974-3.333-2.8532-5.7066-5.2641-5.7066c-2.4115,0-4.4671,2.3736-5.2644,5.7066h-4.9721v6.1455h4.972
			c0.7974,3.3332,2.853,5.7068,5.2645,5.7068c2.4109,0,4.4667-2.3736,5.2641-5.7068h9.0046
			c0.7974,3.3332,2.8531,5.7068,5.2647,5.7068c2.4112,0,4.4666-2.3736,5.2641-5.7068h16.8006v-6.1455H73.1168
			C72.3193,79.0082,70.2639,76.6346,67.8527,76.6346z"/>
	</g>
</g>
</svg>
