<?xml version="1.0" encoding="utf-8"?>
<!-- Generator: Adobe Illustrator 18.1.1, SVG Export Plug-In . SVG Version: 6.00 Build 0)  -->
<svg version="1.2" baseProfile="tiny" xmlns="http://www.w3.org/2000/svg" xmlns:xlink="http://www.w3.org/1999/xlink" x="0px"
	 y="0px" width="128px" height="128px" viewBox="0 0 128 128" xml:space="preserve">
<g id="_x31_28px_boxes">
	<rect fill="none" width="128" height="128"/>
</g>
<g id="Production">
	<g>
		<path fill="#ffffff" d="M14.9727,29.5729c-1.4656,0.2104-1.8867,2.1341-0.6431,2.9377c0.0942,0.0609,9.439,6.2478,9.762,19.2749
			c0.2673,10.7867,9.1269,20.5743,32.2666,16.8438c-7.3155-4.3712-13.211-10.8718-16.6822-18.9772
			c-0.2893-0.6759,0.584-1.2532,1.0918-0.7173c0.0965,0.1018,8.6333,9.015,20.668,13.9541
			C59.2271,42.4291,38.219,26.2321,14.9727,29.5729z"/>
		<path fill="#ffffff" d="M38.4981,89.6185c-0.2654,0-0.5103-0.1597-0.6138-0.4121c-0.1177-0.2876-0.02-0.6184,0.2351-0.7959
			c7.9084-5.5019,13.9714-11.0229,18.0171-15.1156c-25.4292-3.0493-38.1067,14.7534-38.7236,32.9162
			c-0.0259,0.7638,0.4892,1.4403,1.2324,1.6186c25.1245,6.0219,41.6377-7.2445,42.3694-29.0093
			c-9.0374,8.4032-21.7735,10.6803-22.4043,10.7886C38.5728,89.6154,38.5352,89.6185,38.4981,89.6185z"/>
		<path fill="#ffffff" d="M113.0274,29.5729c-23.0938-3.319-44.2391,12.7083-46.4632,33.3165
			c12.0428-4.9407,20.5716-13.8525,20.668-13.9545c0.5037-0.533,1.3828,0.0374,1.0918,0.7172
			c-3.4702,8.1026-9.364,14.6044-16.6821,18.9772c23.1062,3.7256,31.9985-6.0285,32.2666-16.8438
			c0.3213-12.9572,9.3801-19.0251,9.7619-19.2749C114.9138,31.7072,114.4932,29.7833,113.0274,29.5729z"/>
		<path fill="#ffffff" d="M71.8635,73.2949c4.0374,4.0844,10.084,9.5913,17.969,15.0822c0.6382,0.3597,0.304,1.359-0.4428,1.2319
			c-0.6309-0.1083-13.367-2.3854-22.4043-10.7886c0.738,21.9584,17.4629,34.979,42.3694,29.0093
			c0.7431-0.1783,1.2583-0.8548,1.2324-1.6186C109.9275,86.6153,96.0379,70.3961,71.8635,73.2949z"/>
		<path fill="#ffffff" d="M84.4173,23.9468c0-2.8843-2.3462-5.2305-5.2305-5.2305c-3.459,0-6.0039,3.3293-5.0186,6.6953
			c-4.7192,5.0816-8.1069,10.3335-10.1679,13.9613c-2.0611-3.6278-5.4488-8.8797-10.1685-13.9613
			c0.9868-3.3711-1.564-6.6953-5.0181-6.6953c-2.8842,0-5.2309,2.3462-5.2309,5.2305c0,3.3193,3.0981,5.879,6.4438,5.0834
			c8.7088,9.4151,12.2276,18.6049,13.9693,22.5557c1.5764-3.5638,5.1467-13.0081,13.978-22.5557
			C81.3137,29.8245,84.4173,27.272,84.4173,23.9468z"/>
	</g>
</g>
</svg>

