<?xml version="1.0" encoding="utf-8"?>
<!-- Generator: Adobe Illustrator 18.1.1, SVG Export Plug-In . SVG Version: 6.00 Build 0)  -->
<svg version="1.2" baseProfile="tiny" xmlns="http://www.w3.org/2000/svg" xmlns:xlink="http://www.w3.org/1999/xlink" x="0px"
	 y="0px" width="128px" height="128px" viewBox="0 0 128 128" xml:space="preserve">
<g id="_x31_28px_boxes" display="none">
	<rect display="inline" fill="none" width="128" height="128"/>
</g>
<g id="Production">
	<g>
		<path fill="#ffffff" d="M51.1327,45.1417h25.7425c1.401,0,2.5506-1.1407,2.5506-2.5532c0-17.3736,0.0084-10.5344-0.033-12.4328
			c-0.1825-3.8924-3.3572-6.9952-7.2942-6.9952h-0.0771c-0.2289-4.1379-3.6328-7.6334-8.017-7.645
			c-4.3832,0.0116-7.8005,3.5035-8.0206,7.645c-4.1469,0-7.1966,3.207-7.3744,6.9952c-0.0309,1.6981-0.0319-4.6906-0.0319,12.4328
			C48.5776,43.9851,49.6981,45.1417,51.1327,45.1417z M64.0045,20.6217c1.7866,0,2.9553,1.6122,2.9553,2.9575
			c0,1.6319-1.3159,2.9502-2.9553,2.9573c-1.6359-0.0071-2.957-1.3325-2.9638-2.9573
			C61.0407,22.3109,62.1522,20.6217,64.0045,20.6217z M53.7512,30.1557c0.3378-2.2018,2.5143-1.8938,3.7145-1.8938
			c1.0578,1.4748,3.5184,3.3713,6.5388,3.3713c2.9096-0.0041,5.3947-1.7921,6.5326-3.3713c1.1574,0,3.3857-0.3202,3.7143,1.8938
			c0.1056,0.5323,0.0679,9.3418,0.0679,9.8845H53.6854C53.6854,28.5274,53.6492,30.8381,53.7512,30.1557z"/>
		<path fill="#ffffff" d="M97.3762,30.1557H83.5097c0,0.112,0,9.7395,0,9.7395h6.207v61.9331L38.29,101.9147V39.8952h6.2029
			c0,0-0.0046-9.6297,0-9.7395H30.6316c-1.3891,0-2.5533,1.1293-2.5533,2.5529v77.2227c0,1.4143,1.1357,2.5532,2.5533,2.5532
			h66.7446c1.3797,0,2.5455-1.1024,2.5455-2.5532V32.7086C99.9217,31.2729,98.7567,30.1557,97.3762,30.1557z"/>
		<path fill="#ffffff" d="M44.3121,68.7763c0,0.8974,0.7277,1.625,1.625,1.625h15.2542c0.8975,0,1.625-0.7276,1.625-1.625v-9.2345
			l-3.25,4.3027v3.3068H47.5621V55.1471h10.152l-3.5863,4.7479l-1.4666-2.1004c-1.5125-2.1668-4.7942,0.1209-3.2794,2.29
			c0,0,3.0424,4.3572,3.046,4.3619c0.9371,1.214,2.553,1.0296,3.2326,0.0564l7.9933-10.5827
			c1.6044-2.1243-1.5896-4.5322-3.1919-2.4109l-0.2929,0.3878H45.9371c-0.8973,0-1.625,0.7275-1.625,1.625V68.7763z"/>
		<path fill="#ffffff" d="M61.1913,75.2391H45.9371c-0.8973,0-1.625,0.7276-1.625,1.625v15.2542c0,0.8975,0.7277,1.625,1.625,1.625
			h15.2542c0.8975,0,1.625-0.7275,1.625-1.625V76.8641C62.8163,75.9667,62.0888,75.2391,61.1913,75.2391z M59.5663,90.4933H47.5621
			V78.4891h12.0042V90.4933z"/>
		<rect x="67.0416" y="59.3993" fill="#ffffff" width="16.8332" height="3.5"/>
		<rect x="67.0416" y="82.7413" fill="#ffffff" width="16.8332" height="3.5"/>
	</g>
</g>
</svg>
