<?xml version="1.0" encoding="utf-8"?>

<svg version="1.2" baseProfile="tiny" xmlns="http://www.w3.org/2000/svg" xmlns:xlink="http://www.w3.org/1999/xlink" x="0px"
	 y="0px" width="64px" height="64px" viewBox="0 0 64 64" xml:space="preserve">

<g id="Production">
	<path fill="#ffffff" d="M56.7148,13.3127c-4.7861-4.9191-18.4676-9.5314-24.7149,1.3714
		C25.7618,3.7978,12.096,8.3792,7.2847,13.3127C7.1021,13.4993,7,13.7502,7,14.0115v40c0,0.8451,0.9882,1.3107,1.6406,0.7681
		c0.0713-0.0591,7.3301-6.0571,13.311-5.769c6.1587,0.2979,9.0903,6.3159,9.1426,6.4248c0.3655,0.781,1.4608,0.7514,1.812-0.001
		c1.3815-2.9774,5.0334-6.4341,9.5605-6.4341c5.8887,0,12.8232,5.7217,12.8926,5.7793C56.0119,55.323,57,54.8538,57,54.0115v-40
		C57,13.7502,56.8975,13.4993,56.7148,13.3127z M9,51.9973V14.4446c7.0343-6.2822,18.639-6.3804,22,2.7368v34.5249
		C24.8953,44.4084,16.6862,46.5276,9,51.9973z M55,51.9973c-7.7143-5.4884-15.8745-7.6138-22-0.291V17.1848
		c3.4141-9.0477,14.8645-9.0717,22-2.7388V51.9973z"/>
</g>
</svg>
