<?xml version="1.0" encoding="utf-8"?>
<!-- Generator: Adobe Illustrator 18.1.1, SVG Export Plug-In . SVG Version: 6.00 Build 0)  -->
<svg version="1.2" baseProfile="tiny" xmlns="http://www.w3.org/2000/svg" xmlns:xlink="http://www.w3.org/1999/xlink" x="0px"
	 y="0px" width="128px" height="128px" viewBox="0 0 128 128" xml:space="preserve">
<g id="_x31_28px_boxes">
	<rect fill="none" width="128" height="128"/>
</g>
<g id="Production">
	<g>
		<path fill="#ffffff" d="M53.5176,37.3761c0-7.0883-5.7461-12.8342-12.8344-12.8342c-7.0884,0-12.8348,5.7459-12.8348,12.8342
			c0,4.1102,1.9344,7.7662,4.94,10.1153L6.7462,113.2047h11.2944l22.749-57.4035l22.749,57.4035H74.833l-26.0927-65.841
			C51.6532,45.0109,53.5176,41.4121,53.5176,37.3761z"/>
		<path fill="#ffffff" d="M107.5003,15.0605c-0.2841-0.1836-0.6228-0.2652-0.9611-0.2652H85.1646
			c-1.0356,0-1.875,0.8394-1.875,1.875v10.9468l-25.9307,5.0383c0.8296,2.9268,0.7533,5.5605,0.4227,7.5582l25.508-4.9561v2.9671
			c0,1.0356,0.8394,1.875,1.875,1.875H96.774c-0.9634,10.0329-3.6277,20.3752-8.4356,30.5724L57.0552,43.0617
			c-0.8525,2.4472-2.2368,4.6465-4.0173,6.4575l31.7249,28.0002c-1.6568,2.8991-6.0252,9.7922-9.9434,13.8168
			c-2.0395,2.0923,0.835,5.3207,3.1504,3.521c3.7364-3.0476,5.2676-4.0163,10.1631-9.7233
			c2.9287-0.1687,7.9638-0.3824,13.707-2.6875C121.1002,74.7159,131.0813,30.2992,107.5003,15.0605z M111.5332,39.8676
			c0,2.0708-1.6789,3.75-3.75,3.75c-2.071,0-3.75-1.6792-3.75-3.75c0-2.0713,1.679-3.75,3.75-3.75
			C109.8543,36.1176,111.5332,37.7963,111.5332,39.8676z M98.8824,67.5847c0-2.0711,1.6789-3.75,3.75-3.75
			c2.071,0,3.75,1.6789,3.75,3.75c0,2.0709-1.679,3.7499-3.75,3.7499C100.5613,71.3346,98.8824,69.6556,98.8824,67.5847z
			 M103.6719,54.0571c0-2.0713,1.679-3.75,3.75-3.75c2.0711,0,3.75,1.6787,3.75,3.75c0,2.0708-1.6789,3.75-3.75,3.75
			C105.3509,57.8071,103.6719,56.1279,103.6719,54.0571z"/>
	</g>
</g>
</svg>
