<?xml version="1.0" encoding="utf-8"?>
<!-- Generator: Adobe Illustrator 18.1.1, SVG Export Plug-In . SVG Version: 6.00 Build 0)  -->
<svg version="1.2" baseProfile="tiny" xmlns="http://www.w3.org/2000/svg" xmlns:xlink="http://www.w3.org/1999/xlink" x="0px"
	 y="0px" width="128px" height="128px" viewBox="0 0 128 128" xml:space="preserve">
<g id="box">
	<rect fill="none" width="128" height="128"/>
</g>
<g id="Production">
	<g>
		<path fill="#ffffff" d="M36.7397,52.8907c-1.2771-7.4509,2.6597-12.1559,6.2486-14.8109c8.5166-6.3,22.4668-6.9302,32.4492-1.4655
			c2.9482,1.6137,6.646,0.5321,8.2595-2.4159c1.6135-2.9479,0.532-6.6456-2.4158-8.2593c-7.1132-3.8938-15.3525-5.6737-23.83-5.1501
			c-8.1299,0.5032-15.8365,3.1692-21.7007,7.507c-7.6063,5.6267-11.6094,13.586-11.422,22.3735
			c0.079,3.7032,1.114,7.9457,2.0651,11.5338C29.3633,58.4131,32.8696,55.333,36.7397,52.8907z"/>
		<path fill="#ffffff" d="M102.8628,60.3156L91.7566,49.2092c-1.1379-1.1385-2.9866-1.1392-4.1253,0l-7.4619,7.4618
			c-5.4912-2.7746-11.7954-4.2524-18.4223-4.2524c-10.073,0-19.3833,3.3747-26.2159,9.5025
			C28.2776,68.426,24.283,77.6396,24.283,87.8647v12.0876c0,4.0584,3.2898,7.3482,7.3481,7.3482h60.2307
			c4.0584,0,7.3482-3.2898,7.3482-7.3482V87.8647c0-5.7647-1.2871-11.2161-3.7242-16.0473l7.377-7.3768
			C104.0018,63.3016,104.0018,61.4548,102.8628,60.3156z M42.5933,87.8647v10.5217h-9.637V87.8647
			c0-14.9682,11.3743-25.9581,27.2637-26.6205C49.5054,65.758,42.5933,75.5949,42.5933,87.8647z"/>
	</g>
</g>
</svg>
