<?xml version="1.0" encoding="utf-8"?>
<!-- Generator: Adobe Illustrator 18.1.1, SVG Export Plug-In . SVG Version: 6.00 Build 0)  -->
<svg version="1.2" baseProfile="tiny" xmlns="http://www.w3.org/2000/svg" xmlns:xlink="http://www.w3.org/1999/xlink" x="0px"
	 y="0px" width="128px" height="128px" viewBox="0 0 128 128" xml:space="preserve">
<g id="_x31_28px_boxes">
	<rect fill="none" width="128" height="128"/>
</g>
<g id="Production">
	<g>
		<path fill="#ffffff" d="M96.8201,47.601c-11.9124,0-21.1819,10.5348-19.4898,22.4706
			c-11.436-1.6434-21.5967,7.2589-21.5967,18.7031c0,10.4207,8.4776,18.8985,18.898,18.8985
			c11.189,0,20.0322-9.7446,18.7798-20.9947c12.0693,2.1211,23.0967-7.1751,23.0971-19.3891
			C116.5085,56.416,107.6936,47.6005,96.8201,47.601z M74.6316,101.9232c-7.2498,0-13.148-5.8985-13.148-13.1485
			c0-7.2502,5.8982-13.1489,13.148-13.1489c7.2502,0,13.1489,5.8987,13.1489,13.1489
			C87.7805,96.0247,81.8818,101.9232,74.6316,101.9232z M104.1836,76.6876H89.6147V73.585
			c5.3938-4.4488,8.7449-6.9034,8.7837-9.3067c0-1.3377-0.9389-2.3055-2.938-2.3055c-1.6354,0-3.1198,0.7685-4.2102,1.5086
			l-1.4841-3.6716c1.5144-1.053,3.9983-1.9353,6.7847-1.9353c4.5735,0,7.2995,2.3338,7.2995,5.9769
			c0,4.0606-4.0905,6.7892-6.5119,8.5669v0.0569h6.8452V76.6876z"/>
		<path fill="#ffffff" d="M39.9265,46.954c0.0005,8.9549,7.2598,16.2153,16.2153,16.2153c8.9551,0,16.2149-7.2599,16.2154-16.215
			c-0.0003-8.9551-7.2605-16.2158-16.2154-16.2156C47.1865,30.7387,39.926,37.9992,39.9265,46.954z M62.615,49.4163
			c0,2.9975-2.8147,5.8186-7.9077,5.8186c-2.1983,0-4.0479-0.4282-5.0664-0.9068l0.8042-3.4004
			c0.7773,0.3526,2.4394,0.7809,3.9941,0.7809c1.4741,0,3.2166-0.5038,3.2166-2.0403c0-2.5848-4.7115-2.4981-7.1839-2.1663
			l1.1526-8.9166h10.1326v3.7278h-6.8086l-0.2412,1.7632C56.4392,43.8443,62.615,43.9957,62.615,49.4163z"/>
		<circle fill="#ffffff" cx="28.9819" cy="46.9543" r="3.9939"/>
		<path fill="#ffffff" d="M64.5354,67.6561H26.3792c-1.6297-4.0684-4.8846-7.3107-8.9661-8.9307V35.1849
			c4.0823-1.6204,7.3376-4.8635,8.967-8.9328l59.7554-0.0002c1.5986,3.9923,4.7607,7.1918,8.7349,8.8413v7.6576
			c2.0634-0.1625,4.1269-0.0689,6.1535,0.2778l-0.0002-22.7018c-1.4385,0-2.3413,0-2.8906,0c-0.543,0-0.7403,0-0.7532,0
			c-1.3096,0-4.648,0-12.386,0v0.0002l-73.5024,0.0001v53.2562l45.3418-0.0002C58.949,71.108,61.5696,69.0797,64.5354,67.6561z"/>
		<polygon fill="#ffffff" points="68.7366,82.1314 69.5786,85.8152 73.2954,84.2325 73.3535,84.2325 73.3535,97.6304 
			78.406,97.6304 78.406,79.8941 74.1375,79.8941 		"/>
	</g>
</g>
</svg>
