<?xml version="1.0" encoding="utf-8"?>
<!-- Generator: Adobe Illustrator 18.1.1, SVG Export Plug-In . SVG Version: 6.00 Build 0)  -->
<svg version="1.2" baseProfile="tiny" xmlns="http://www.w3.org/2000/svg" xmlns:xlink="http://www.w3.org/1999/xlink" x="0px"
	 y="0px" width="128px" height="128px" viewBox="0 0 128 128" xml:space="preserve">
<g id="_x31_28px_boxes">
	<rect fill="none" width="128" height="128"/>
</g>
<g id="Production">
	<g>
		<path fill="#ffffff" d="M62.4875,28.4194c1.1717-1.1715,3.0711-1.1715,4.2427,0l17.7534,17.7535l8.2403-8.2401
			c0.781-0.7811,0.781-2.0474,0-2.8284L66.0144,8.3949c-0.7808-0.781-2.0476-0.781-2.8284,0L36.4766,35.1044
			c-0.7813,0.781-0.7813,2.0473,0,2.8284l8.2487,8.2488L62.4875,28.4194z"/>
		<path fill="#ffffff" d="M62.4875,56.5819c1.1717-1.1716,3.0711-1.1716,4.2427,0c0.1806,0.1806,2.6003,2.5923,17.5882,17.5799
			l8.4055-8.4056c0.781-0.7811,0.781-2.0475,0-2.8285L66.0144,36.2183c-0.7808-0.7811-2.0476-0.7811-2.8284,0L36.4766,62.9277
			c-0.7813,0.781-0.7813,2.0474,0,2.8285l8.4057,8.4056C62.0847,56.9593,62.4875,56.5819,62.4875,56.5819z"/>
		<path fill="#ffffff" d="M66.0144,64.3434c-0.7808-0.781-2.0476-0.781-2.8284,0L36.4766,91.0528
			c-0.7813,0.7811-0.7813,2.0474,0,2.8284l26.7094,26.7095c0.7808,0.781,2.0476,0.781,2.8284,0l26.7095-26.7095
			c0.781-0.781,0.781-2.0473,0-2.8284L66.0144,64.3434z"/>
	</g>
</g>
</svg>
