<?xml version="1.0" encoding="utf-8"?>
<!-- Generator: Adobe Illustrator 17.1.0, SVG Export Plug-In . SVG Version: 6.00 Build 0)  -->
<!DOCTYPE svg [
	<!ENTITY ns_flows "http://ns.adobe.com/Flows/1.0/">
	<!ENTITY ns_extend "http://ns.adobe.com/Extensibility/1.0/">
	<!ENTITY ns_ai "http://ns.adobe.com/AdobeIllustrator/10.0/">
	<!ENTITY ns_graphs "http://ns.adobe.com/Graphs/1.0/">
]>
<svg version="1.2" baseProfile="tiny" xmlns:x="&ns_extend;" xmlns:i="&ns_ai;" xmlns:graph="&ns_graphs;"
	 xmlns="http://www.w3.org/2000/svg" xmlns:xlink="http://www.w3.org/1999/xlink" xmlns:a="http://ns.adobe.com/AdobeSVGViewerExtensions/3.0/"
	 x="0px" y="0px" width="128px" height="128px" viewBox="0 0 128 128" xml:space="preserve">
<g id="_x31_28px_boxes">
	<rect fill="none" width="128" height="128"/>
</g>
<g id="Production">
	<path fill="#ffffff" d="M104.0453,9.1017c-0.7708-0.7362-2.0574-0.3086-2.2324,0.7459
		c-0.0206,0.1255-2.1685,12.6458-9.9947,22.0425c-6.8518,8.2262-19.1286,10.7712-23.6513,27.9536
		c-2.3157,8.801,0.0095,16.6766,5.6001,22.51c-6.2156,5.7073-11.814,8.8327-12.7852,9.3556
		c-2.5342-3.826-5.3987-7.1507-8.6011-10.276c0.001-0.0012,0.002-0.0027,0.003-0.0042
		c-9.9961-9.6468-23.7564-17.1211-23.898-17.1975c-0.3804-0.2052-0.1802-0.7887,0.2461-0.7175
		c0.145,0.0243,13.6455,2.3857,26.1748,12.8752c2.2568-7.1387,0.2671-14.8746-5.5225-19.6357
		c-10.354-8.5142-27.8808-11.1818-39.4536-10.3084c-0.6958,0.054-1.2466,0.6114-1.2917,1.3078
		c-0.0349,0.5332-0.7852,13.1798,4.8664,23.5667c9.784,17.9829,23.9722,19.6126,33.313,14.8819
		c8.1221,7.7471,13.5796,16.4881,15.7246,29.9856c0.3164,1.9919,2.1873,3.3501,4.1802,3.0339
		c1.9922-0.3166,3.3506-2.1882,3.0339-4.1805c-0.9704-6.1081-2.5981-11.5675-4.9733-16.5929
		c20.1355-10.9353,29.1211-28.377,35.1235-50.4723c0.1172-0.4315,0.7539-0.351,0.7632,0.0943
		c0.3525,17.3191-4.6824,32.719-13.3977,41.8838c16.9157,3.7348,28.4343-12.4267,31.3281-29.6054
		C121.9774,40.3039,114.3722,18.9618,104.0453,9.1017z"/>
</g>
</svg>
