<?xml version="1.0" encoding="utf-8"?>
<!-- Generator: Adobe Illustrator 18.1.1, SVG Export Plug-In . SVG Version: 6.00 Build 0)  -->
<svg version="1.2" baseProfile="tiny" xmlns="http://www.w3.org/2000/svg" xmlns:xlink="http://www.w3.org/1999/xlink" x="0px"
	 y="0px" width="128px" height="128px" viewBox="0 0 128 128" xml:space="preserve">
<g id="_x31_28px_boxes">
	<rect fill="none" width="128" height="128"/>
</g>
<g id="Production">
	<path fill="#ffffff" d="M101.6917,59.2802c-2.1387-17.179-15.793-30.8334-32.972-32.9721V11.5645h-9.4394v14.7436
		c-17.179,2.1387-30.8333,15.7931-32.972,32.9721H11.5645v9.4395h14.7438c2.1387,17.179,15.793,30.8333,32.972,32.972v14.7438
		h9.4394v-14.7438c17.179-2.1387,30.8333-15.793,32.972-32.972h14.7438v-9.4395H101.6917z M88.2032,68.7197
		c-1.911,9.8182-9.6651,17.5725-19.4835,19.4835V79.14h-9.4394v9.0632c-9.8183-1.911-17.5725-9.6653-19.4835-19.4835h9.0633v-9.4395
		h-9.0633c1.911-9.8183,9.6651-17.5727,19.4835-19.4837v9.0637h9.4394v-9.0637c9.8184,1.911,17.5725,9.6654,19.4835,19.4837h-9.0633
		v9.4395H88.2032z"/>
</g>
</svg>
