<?xml version="1.0" encoding="utf-8"?>
<!-- Generator: Adobe Illustrator 18.1.1, SVG Export Plug-In . SVG Version: 6.00 Build 0)  -->
<svg version="1.2" baseProfile="tiny" xmlns="http://www.w3.org/2000/svg" xmlns:xlink="http://www.w3.org/1999/xlink" x="0px"
	 y="0px" width="128px" height="128px" viewBox="0 0 128 128" xml:space="preserve">
<g id="_x31_28px_boxes">
	<rect fill="none" width="128" height="128"/>
</g>
<g id="Production">
	<g>
		<path fill="#ffffff" d="M100.4863,67.3792c4.5403,0,8.8787,1.36,12.5315,3.7856V58.2282c0-1.4475-0.9592-2.7199-2.351-3.1179
			c-13.2605-3.7939-25.7163-5.8481-32.1551-6.756l-2.9223-24.7926c-0.2671-2.2658-2.1875-3.9732-4.469-3.9732H35.4895
			c-2.2583,0-4.167,1.6742-4.4617,3.9132l-3.281,24.9474c-6.1328,0.8918-11.8969,3.3272-16.9006,7.1743
			c-1.8933,1.4557-2.248,4.1706-0.7925,6.0638c1.1841,1.5401,3.5926,2.3806,4.9319,1.4198
			c4.9649-4.1739,11.3306-6.6205,18.0901-6.6205c16.2519,0,30.9468,14.1676,27.5081,34.0542h17.2314
			C77.5449,77.74,87.9204,67.3792,100.4863,67.3792z M61.1602,61.2483c-6.0796-7.3066-14.7913-11.9996-24.3111-12.9872
			l2.5872-19.6726h27.6833l3.8499,32.6598H61.1602z"/>
		<path fill="#ffffff" d="M100.4863,71.701c-10.1691,0-18.3554,8.2921-18.3554,18.3559c0,10.1207,8.2341,18.3546,18.3554,18.3546
			c10.1683,0,18.3562-8.2881,18.3562-18.3546C118.8425,79.9395,110.6111,71.701,100.4863,71.701z M100.4863,98.5852
			c-4.7834,0-8.5285-3.9268-8.5285-8.5282c0-4.703,3.8257-8.5296,8.5285-8.5296c4.7029,0,8.5293,3.8266,8.5293,8.5296
			C109.0156,94.6597,105.2678,98.5852,100.4863,98.5852z"/>
		<path fill="#ffffff" d="M33.0757,60.8083c-13.1904,0-23.8018,10.7571-23.8018,23.8024c0,13.1238,10.6775,23.8008,23.8018,23.8008
			c13.1711,0,23.803-10.7328,23.803-23.8008C56.8787,71.4962,46.2078,60.8083,33.0757,60.8083z M33.0755,97.3177
			c-7.1275,0-12.7071-5.8504-12.7071-12.7065c0-7.0073,5.7-12.7091,12.7071-12.7091c7.0073,0,12.7082,5.7018,12.7082,12.7091
			C45.7837,91.4702,40.199,97.3177,33.0755,97.3177z"/>
	</g>
</g>
</svg>
