<?xml version="1.0" encoding="utf-8"?>
<!-- Generator: Adobe Illustrator 19.1.0, SVG Export Plug-In . SVG Version: 6.00 Build 0)  -->
<svg version="1.2" baseProfile="tiny" xmlns="http://www.w3.org/2000/svg" xmlns:xlink="http://www.w3.org/1999/xlink" x="0px"
	 y="0px" width="64px" height="64px" viewBox="0 0 64 64" xml:space="preserve">
<g id="box">
	<rect fill="none" width="64" height="64"/>
</g>
<g id="Production">
	<g>
		<path fill="#ffffff" d="M50.668,31.8359c-0.2618-0.7199-0.7362-1.2941-1.3455-1.6763c0.3419-1.7293,0.8696-5.7416,0.5866-9.1904
			c-0.2573-3.1338-2.9481-7.5718-5.2206-9.2988c-1.9312-1.4678-5.4673-1.3345-8.2769-0.6963
			c-2.1265-1.1978-4.5356-2.4507-7.5483-2.0381c-5.459,0.7539-12.84,5.0127-14.3297,9.374
			c-1.0927,3.1998-0.2126,10.0977,0.0762,11.8956c-0.5759,0.382-1.0258,0.9378-1.2777,1.6302
			c-0.5532,1.52-0.4224,3.9585,0.3999,7.4546c0.4785,2.0332,1.6777,3.3677,3.3491,3.7729c0.5552,4.332,2.3223,6.6143,5.4907,9.4009
			C25.6374,55.1598,26.7975,57,31.9995,57c5.199,0,6.3571-1.8353,9.4282-4.5356c3.1685-2.7856,4.9351-5.0684,5.4912-9.4009
			c1.6709-0.4053,2.8706-1.7397,3.3491-3.7729C51.0903,35.7944,51.2212,33.356,50.668,31.8359z M16.4261,18.9565
			c1.1128-3.2583,7.4684-7.3154,12.7106-8.0391c2.6091-0.3629,4.7712,0.9373,6.98,2.1875c2.0407-0.5089,5.741-1.0737,7.3618,0.1582
			c1.8921,1.438,4.2303,5.3521,4.4374,7.8696c0.2531,3.0844-0.2043,6.8065-0.5317,8.5093c-0.4778,0.01-0.9447,0.1147-1.3842,0.2897
			v-3.1656c-3.8564-2.2382-7.2563-4.7002-10.0532-8.3623C31.4294,23.4012,24.605,25.6118,18,26.4624v3.4691
			c-0.4616-0.184-0.9536-0.2858-1.4549-0.2868C16.1279,26.9769,15.6115,21.3433,16.4261,18.9565z M48.3208,38.8325
			c-0.5818,2.4737-2.0927,2.3428-3.2305,2.4019c-0.3885,4.2956-1.0447,6.2648-4.9829,9.728C36.9585,53.7282,36.3554,55,31.9995,55
			c-4.3486,0-4.9556-1.2663-8.1074-4.0376c-3.9388-3.4638-4.594-5.4334-4.9824-9.728c-1.0705-0.0555-2.6393,0.1118-3.2305-2.4019
			c-0.9448-4.0151-0.6982-5.6787-0.4673-6.313c0.2319-0.6377,0.7295-0.8237,1.1064-0.8677
			c0.6202-0.0724,1.2534,0.1949,1.6816,0.6594V37h2v-8.7886c8.8672-1.3384,13.9487-5.1216,15.8115-6.7847
			c1.1782,1.2964,3.8169,3.875,8.1885,6.4868V37h2v-4.6888c0.428-0.464,1.0612-0.7305,1.6816-0.6593
			c0.377,0.0439,0.8745,0.23,1.1064,0.8677C49.019,33.1538,49.2656,34.8174,48.3208,38.8325z"/>
		<circle fill="#ffffff" cx="26" cy="34" r="2"/>
		<circle fill="#ffffff" cx="38" cy="34" r="2"/>
		<path fill="#ffffff" d="M36.6763,45.9214c-3.0586,0.7852-6.2939,0.7852-9.3525,0c-0.2217-0.0571-0.4482,0.0405-0.5591,0.2373
			c-0.1118,0.1963-0.0781,0.4424,0.082,0.6016C28.1953,48.1016,30.0972,48.772,32,48.772c1.9019,0,3.8047-0.6709,5.1533-2.0117
			c0.1602-0.1592,0.1938-0.4053,0.082-0.6016S36.8975,45.8647,36.6763,45.9214z"/>
	</g>
</g>
</svg>

