<?xml version="1.0" encoding="utf-8"?>
<!-- Generator: Adobe Illustrator 18.1.1, SVG Export Plug-In . SVG Version: 6.00 Build 0)  -->
<svg version="1.2" baseProfile="tiny" xmlns="http://www.w3.org/2000/svg" xmlns:xlink="http://www.w3.org/1999/xlink" x="0px"
	 y="0px" width="64px" height="64px" viewBox="0 0 64 64" xml:space="preserve">

<g id="Production">
	<path fill="#ffffff" d="M56.4141,8.9863L55,7.5723c-0.7563-0.7563-2.0747-0.7554-2.8281,0l-4.2355,4.2352l-0.0003-0.0003
		c-1.1338-1.1323-3.106-1.1336-4.2425,0.0007l-0.7072-0.7072c-1.1709-1.1709-3.0737-1.1699-4.2427,0l-9.1924,9.1924
		c-0.3906,0.3906-0.3906,1.0234,0,1.4141c0.3906,0.3906,1.0234,0.3906,1.4141,0l9.1924-9.1924c0.3896-0.3906,1.0249-0.3896,1.4146,0
		l0.7102,0.7102L18.3623,37.2524c-4.2271,4.2271-6.4507,8.1182-8.8242,12.2725c-0.6411,1.1219-0.6483,2.444-0.025,3.5479
		L7.293,55.293c-0.3906,0.3906-0.3906,1.0234,0,1.4141c0.3906,0.3906,1.0234,0.3906,1.4141,0l2.2202-2.2202
		c1.0877,0.6131,2.3856,0.6388,3.5479-0.0249c4.373-2.4912,8.2039-4.556,12.374-8.7256L52.1792,20.293
		c1.1685-1.1699,1.1685-3.0728-0.0005-4.2427l-0.0001-0.0001l4.2349-4.2353C57.1951,11.0355,57.1977,9.77,56.4141,8.9863z
		 M25.4336,44.3237c-3.9565,3.956-7.4795,5.8559-11.9507,8.4019c-1.3717,0.7804-3.0652-0.7095-2.189-2.2427
		c2.3853-4.1738,4.4448-7.7788,8.4839-11.8179l8.1826-8.2192l5.6572,5.6572L25.4336,44.3237z M50.7632,18.8804L35.0285,34.6857
		l-5.6571-5.6571l15.736-15.8065c0.391-0.391,1.023-0.391,1.4146-0.0005l4.2422,4.2427
		C51.1543,17.8545,51.1543,18.4888,50.7632,18.8804z M50.7647,14.6361l-1.4144-1.4146l4.2357-4.2352L55,10.4004L50.7647,14.6361z"/>
</g>
</svg>
