<?xml version="1.0" encoding="utf-8"?>
<!-- Generator: Adobe Illustrator 18.1.1, SVG Export Plug-In . SVG Version: 6.00 Build 0)  -->
<svg version="1.2" baseProfile="tiny" xmlns="http://www.w3.org/2000/svg" xmlns:xlink="http://www.w3.org/1999/xlink" x="0px"
	 y="0px" width="128px" height="128px" viewBox="0 0 128 128" xml:space="preserve">
<g id="box">
	<rect fill="none" width="128" height="128"/>
</g>
<g id="Production">
	<g>
		<path fill="#ffffff" d="M91.7871,52.459c-6.4507-5.0684-15.4834-10.255-25.9558-11.8259s-21.3484-0.6143-32.7249,1.9441
			c-9.0813,2.0423-22.1951,6.2481-27.9817,12.0351c-7.3305,7.3308-7.0705,27.0773,2.5574,27.0773h4.5664
			c-0.6167-1.6336-0.957-3.4031-0.957-5.2531c0-8.2146,6.6589-14.8736,14.8745-14.8736c8.2148,0,14.8735,6.659,14.8735,14.8736
			c0,1.85-0.3401,3.6195-0.957,5.2531h45.2742c-0.6172-1.6336-0.9576-3.4031-0.9576-5.2531c0-8.2146,6.6604-14.8736,14.8745-14.8736
			c8.2146,0,14.8746,6.659,14.8746,14.8736c0,1.85-0.3404,3.6195-0.9573,5.2531c6.2839,0,10.1252,0,10.1252,0
			s4.1534-3.7759,4.6575-7.6394C128.4858,70.1234,121.7358,55.8378,91.7871,52.459z M51.5097,57.707
			c-4.653,0.0002-9.3735-0.3864-12.9162-1.3323c-3.5557-0.9474-5.8694-2.4518-5.856-4.5904
			c-0.0027-1.246,0.7722-2.7757,2.6038-4.6025c7.2773-1.5698,13.8193-2.3353,19.9614-2.3353c3.366,0,6.6602,0.2377,9.7905,0.7075
			c7.7259,1.1587,14.4368,4.498,19.5008,7.8451C78.2075,54.4632,61.0632,57.7079,51.5097,57.707z"/>
		<path fill="#ffffff" d="M26.1655,64.7437c-6.4583,0-11.6931,5.2353-11.6931,11.6927c0,6.4258,5.2135,11.6933,11.6931,11.6933
			c6.481,0,11.6934-5.2691,11.6934-11.6933C37.8589,69.979,32.6235,64.7437,26.1655,64.7437z M26.1655,81.2776
			c-2.6733,0-4.8398-2.1671-4.8398-4.8412c0-2.6731,2.1665-4.8404,4.8398-4.8404c2.6738,0,4.8413,2.1673,4.8413,4.8404
			C31.0068,79.1105,28.8393,81.2776,26.1655,81.2776z"/>
		<path fill="#ffffff" d="M99.2739,64.7437c-6.4575,0-11.6934,5.2353-11.6934,11.6927c0,1.8898,0.4512,3.6734,1.2473,5.2532
			c1.9246,3.8188,5.8785,6.4401,10.4461,6.4401c4.5679,0,8.5212-2.6213,10.4458-6.4401c0.7961-1.5798,1.2471-3.3634,1.2471-5.2532
			C110.9668,69.979,105.7314,64.7437,99.2739,64.7437z M99.2739,81.2776c-2.6738,0-4.8406-2.1671-4.8406-4.8412
			c0-2.6731,2.1668-4.8404,4.8406-4.8404c2.6728,0,4.8398,2.1673,4.8398,4.8404C104.1137,79.1105,101.9467,81.2776,99.2739,81.2776z
			"/>
	</g>
</g>
</svg>
