<?xml version="1.0" encoding="utf-8"?>
<!-- Generator: Adobe Illustrator 17.1.0, SVG Export Plug-In . SVG Version: 6.00 Build 0)  -->
<!DOCTYPE svg [
	<!ENTITY ns_flows "http://ns.adobe.com/Flows/1.0/">
	<!ENTITY ns_extend "http://ns.adobe.com/Extensibility/1.0/">
	<!ENTITY ns_ai "http://ns.adobe.com/AdobeIllustrator/10.0/">
	<!ENTITY ns_graphs "http://ns.adobe.com/Graphs/1.0/">
]>
<svg version="1.2" baseProfile="tiny" xmlns:x="&ns_extend;" xmlns:i="&ns_ai;" xmlns:graph="&ns_graphs;"
	 xmlns="http://www.w3.org/2000/svg" xmlns:xlink="http://www.w3.org/1999/xlink" xmlns:a="http://ns.adobe.com/AdobeSVGViewerExtensions/3.0/"
	 x="0px" y="0px" width="128px" height="128px" viewBox="0 0 128 128" xml:space="preserve">
<g id="_x31_28px_boxes">
	<rect fill="none" width="128" height="128"/>
</g>
<g id="Production">
	<g>
		<path fill="#ffffff" d="M56.5654,15.0342c-2.9467,0-5.3355,2.3888-5.3355,5.3356v55.2496c0,2.9468,2.3888,5.3357,5.3355,5.3357
			c2.9468,0,5.3357-2.3889,5.3357-5.3357V20.3698C61.9011,17.423,59.5122,15.0342,56.5654,15.0342z"/>
		<path fill="#ffffff" d="M71.2129,15.0342c-2.9468,0-5.3356,2.3888-5.3356,5.3356v55.2496c0,2.9468,2.3888,5.3357,5.3356,5.3357
			s5.3356-2.3889,5.3356-5.3357V20.3698C76.5485,17.423,74.1597,15.0342,71.2129,15.0342z"/>
		<path fill="#ffffff" d="M85.8604,15.0342c-2.9468,0-5.3357,2.3888-5.3357,5.3356v55.2496c0,2.9468,2.3889,5.3357,5.3357,5.3357
			c2.9467,0,5.3355-2.3889,5.3355-5.3357V20.3698C91.1959,17.423,88.8071,15.0342,85.8604,15.0342z"/>
		<path fill="#ffffff" d="M96.7153,11.0845c-0.9823,0-1.7785,0.7964-1.7785,1.7787V83.126c0,0.9823,0.7962,1.7787,1.7785,1.7787
			c4.0334,0,7.3147-3.2815,7.3147-7.315V18.3995C104.03,14.366,100.7487,11.0845,96.7153,11.0845z"/>
		<path fill="#ffffff" d="M33.0632,12.8632c0-0.9823-0.7962-1.7787-1.7785-1.7787c-4.0334,0-7.3147,3.2815-7.3147,7.315v59.1902
			c0,4.0335,3.2813,7.315,7.3147,7.315c0.9823,0,1.7785-0.7964,1.7785-1.7787V12.8632z"/>
		<path fill="#ffffff" d="M47.2531,20.3698c0-2.9468-2.3888-5.3356-5.3356-5.3356s-5.3355,2.3888-5.3355,5.3356v68.9583h10.6711
			V20.3698z"/>
		<path fill="#ffffff" d="M48.6108,93.0601H35.2241c-1.4407,0-2.6084,1.168-2.6084,2.6087c0,1.4406,1.1677,2.6087,2.6084,2.6087
			h0.4762l3.1137,17.1765c0.1533,0.8462,0.8901,1.4615,1.75,1.4615h2.7072c0.8599,0,1.5967-0.6153,1.75-1.4615l3.1134-17.1765
			h0.4762c1.4407,0,2.6086-1.1681,2.6086-2.6087C51.2194,94.2281,50.0515,93.0601,48.6108,93.0601z"/>
	</g>
</g>
</svg>

