<?xml version="1.0" encoding="utf-8"?>
<!-- Generator: Adobe Illustrator 19.1.0, SVG Export Plug-In . SVG Version: 6.00 Build 0)  -->
<svg version="1.2" baseProfile="tiny" xmlns="http://www.w3.org/2000/svg" xmlns:xlink="http://www.w3.org/1999/xlink" x="0px"
	 y="0px" width="64px" height="64px" viewBox="0 0 64 64" xml:space="preserve">
<g id="box">
	<rect fill="none" width="64" height="64"/>
</g>
<g id="Production">
	<g>
		<path fill="#ffffff" d="M56.2866,9.6592l-1.0327-1.2065l-3.9312,8.9009L47.562,18.019l-0.1365-0.0608l-1.949-3.1775l3.9341-8.9082
			l-1.5869,0.0493c-5.0244,0.1555-9.53,2.7601-12.0098,6.8685l-3.0742-1.3682c-0.7034-0.313-1.5002,0.1803-1.5278,0.9496
			c-0.0117,0.3223-0.0293,0.8292-0.0562,1.6702c-0.147,4.7236-0.3301,10.603-5.4326,15.6138L6.7954,48.562
			C5.6396,49.7148,5.002,51.249,5,52.8813c-0.0029,2.404,1.373,4.5983,3.7554,5.6767C9.4734,58.8831,10.2686,59,11.0566,59h0.0547
			c1.6294,0,3.1616-0.6338,4.3159-1.7852l19.5176-19.4946c3.6499-3.6406,7.4961-4.1421,11.2153-4.6274
			c4.6362-0.6045,9.4302-1.23,12.5425-8.2778C60.9194,19.7969,59.9937,13.9893,56.2866,9.6592z M46.2529,8.0728l-3.0293,6.8594
			l0.9753,1.5901l-6.5388-2.9101C39.5369,10.6487,42.6685,8.6323,46.2529,8.0728z M56.8735,24.0073
			c-2.6582,6.0181-6.3271,6.4966-10.9722,7.1021c-3.8613,0.5039-8.2383,1.0747-12.3691,5.1953L14.0146,55.7993
			C13.2383,56.5737,12.2075,57,11.1108,57c-0.0015,0-0.0034,0-0.0049,0c-1.0981-0.0015-2.1299-0.4302-2.9053-1.2075
			C7.4253,55.0146,6.9985,53.9819,7,52.8838s0.4302-2.1304,1.208-2.9062l18.9224-18.9009
			c5.6694-5.5669,5.8745-12.1592,6.0244-16.9727c0.0029-0.0874,0.0059-0.1743,0.0083-0.2603
			c2.895,1.2769,9.8271,4.3403,13.8691,6.1274l0.2788,0.123l5.4102-0.9575l3.0347-6.8706
			C58.1162,15.8149,58.562,20.1836,56.8735,24.0073z"/>
		
			<rect x="33.7405" y="21.7527" transform="matrix(0.404 -0.9148 0.9148 0.404 1.3835 47.6282)" fill="#ffffff" width="6.9999" height="1.9995"/>
		
			<rect x="36.4848" y="22.9651" transform="matrix(0.404 -0.9148 0.9148 0.404 1.9085 50.859)" fill="#ffffff" width="7.0001" height="1.9995"/>
		
			<rect x="41.7293" y="21.6767" transform="matrix(-0.9148 -0.4039 0.4039 -0.9148 71.648 65.4673)" fill="#ffffff" width="1.9995" height="7.0001"/>
		<circle fill="#ffffff" cx="11" cy="53" r="2"/>
	</g>
</g>
</svg>

