<?xml version="1.0" encoding="utf-8"?>
<!-- Generator: Adobe Illustrator 18.1.1, SVG Export Plug-In . SVG Version: 6.00 Build 0)  -->
<svg version="1.2" baseProfile="tiny" xmlns="http://www.w3.org/2000/svg" xmlns:xlink="http://www.w3.org/1999/xlink" x="0px"
	 y="0px" width="128px" height="128px" viewBox="0 0 128 128" xml:space="preserve">
<g id="_x31_28px_boxes">
	<rect fill="none" width="128" height="128"/>
</g>
<g id="Production">
	<g>
		<path fill="#ffffff" d="M38.7715,78.0562l-2.1812,0.9026c-2.7905-5.1924-8.2744-8.7315-14.5708-8.7315
			c-9.1147,0-16.5307,7.4151-16.5307,16.5293c0,1.6478,0.2456,3.2385,0.6967,4.7415c-2.6587,1.2209-4.3325,3.755-4.1865,6.5447
			c0.166,3.1848,2.7051,6.6127,7.8882,6.6127h30.0312c1.6568,0,3-1.3432,3-3V80.8284
			C42.9184,78.6933,40.7456,77.2403,38.7715,78.0562z M11.7832,89.2225c-0.1904-0.7915-0.2944-1.6168-0.2944-2.4659
			c0-5.8059,4.7241-10.5293,10.5307-10.5293c3.7979,0,7.1314,2.0208,8.9844,5.0428L11.7832,89.2225z"/>
		<path fill="#ffffff" d="M122.1963,41.1259l-37.7095-4.8805l-6.603-10.8769c-0.7935-1.3067-2.211-2.1046-3.7398-2.1046H34.4209
			c-2.416,0-4.375,1.9588-4.375,4.375s1.959,4.375,4.375,4.375h3.2265l6.8692,41.6466h0.0195
			c0.4842,2.2267,3.2645,3.0142,4.8467,1.3696c0.0083,0.0056,0.0156,0.0119,0.0239,0.0176
			c3.8008-4.1917,9.2866-6.8287,15.3775-6.8287c11.4463,0,20.7588,9.3123,20.7588,20.7583c0,0.0494-0.0035,0.0977-0.0039,0.147
			h8.1718c1.1275-9.0338,8.8487-16.0488,18.1831-16.0488c5.6724,0,10.751,2.5908,14.1158,6.6504v-34.261
			C126.0098,43.2657,124.3774,41.4083,122.1963,41.1259z M66.1694,56.9932H49.668l-4.2647-25.0354h20.7661V56.9932z"/>
		<path fill="#ffffff" d="M111.894,78.0755c-7.3506,0-13.3305,5.98-13.3305,13.3306c0,7.3503,5.9799,13.33,13.3305,13.33
			c7.3501,0,13.3301-5.9797,13.3301-13.33C125.2241,84.0555,119.2441,78.0755,111.894,78.0755z M111.894,95.9861
			c-2.5298,0-4.5805-2.0503-4.5805-4.58c0-2.5298,2.0507-4.5806,4.5805-4.5806s4.5801,2.0508,4.5801,4.5806
			C116.4741,93.9358,114.4238,95.9861,111.894,95.9861z"/>
		<path fill="#ffffff" d="M64.7842,73.219c-8.6895,0-15.7593,7.0691-15.7593,15.7583c0,8.6895,7.0698,15.7588,15.7593,15.7588
			c8.6894,0,15.7588-7.0693,15.7588-15.7588C80.543,80.2881,73.4736,73.219,64.7842,73.219z M64.7842,95.9861
			c-3.8711,0-7.0093-3.1373-7.0093-7.0088c0-3.8702,3.1382-7.0083,7.0093-7.0083c3.8706,0,7.0088,3.1381,7.0088,7.0083
			C71.793,92.8488,68.6548,95.9861,64.7842,95.9861z"/>
	</g>
</g>
</svg>
