<?xml version="1.0" encoding="utf-8"?>
<!-- Generator: Adobe Illustrator 18.1.1, SVG Export Plug-In . SVG Version: 6.00 Build 0)  -->
<svg version="1.2" baseProfile="tiny" xmlns="http://www.w3.org/2000/svg" xmlns:xlink="http://www.w3.org/1999/xlink" x="0px"
	 y="0px" width="128px" height="128px" viewBox="0 0 128 128" xml:space="preserve">
<g id="_x31_28px_boxes" display="none">
	<rect display="inline" fill="none" width="128" height="128"/>
</g>
<g id="Production">
	<g>
		<path fill="#ffffff" d="M64.0344,76.2049c-7.9935,0-14.4967,6.5033-14.4967,14.4969c0,7.9934,6.5032,14.4966,14.4967,14.4966
			c7.9936,0,14.4968-6.5032,14.4968-14.4966C78.5312,82.7082,72.028,76.2049,64.0344,76.2049z"/>
		<path fill="#ffffff" d="M64.0344,108.238c-3.6046,0-6.5372,2.9329-6.5372,6.5376c0,3.6047,2.9326,6.5373,6.5372,6.5373
			c3.6047,0,6.5373-2.9326,6.5373-6.5373C70.5717,111.1709,67.6391,108.238,64.0344,108.238z"/>
		<path fill="#ffffff" d="M29.8623,46.0001c-6.795,0-12.3232,5.5281-12.3232,12.3233c0,6.7951,5.5282,12.3233,12.3232,12.3233
			c6.7951,0,12.3233-5.5282,12.3233-12.3233C42.1856,51.5282,36.6574,46.0001,29.8623,46.0001z"/>
		<path fill="#ffffff" d="M51.8627,74.1208c0-3.6047-2.9326-6.5373-6.5374-6.5373c-3.6047,0-6.5373,2.9326-6.5373,6.5373
			c0,3.6046,2.9326,6.5373,6.5373,6.5373C48.9301,80.6581,51.8627,77.7254,51.8627,74.1208z"/>
		<path fill="#ffffff" d="M24.5105,43.979c3.6048,0,6.5374-2.9328,6.5374-6.5375c0-1.4594-0.4811-2.8088-1.2926-3.8979
			c5.0651-8.5895,16.8867-13.7319,27.3426-15.1219c0.3136,0.5689,0.6955,1.0946,1.1341,1.5669
			c-0.033,0.1057-2.5533,12.3086-2.5533,12.3086c-0.8954,4.3456,5.6814,5.7061,6.5777,1.355l1.872-9.0867l3.4218,14.5064
			c1.0175,4.3115,7.5587,2.7912,6.5366-1.5419l-4.1604-17.6382c0.4014-0.447,0.7525-0.9398,1.045-1.4698
			c10.9991,1.4618,22.4212,6.8353,27.3127,15.0704c-0.835,1.098-1.332,2.4664-1.332,3.9491c0,3.6047,2.9326,6.5375,6.5373,6.5375
			c3.6048,0,6.5374-2.9328,6.5374-6.5375c0-3.2204-2.3413-5.9023-5.4107-6.4382C98.5566,19.724,84.2293,13.289,71.3925,11.682
			c-1.1633-2.9256-4.0181-4.9949-7.3581-4.9949c-3.3398,0-6.1945,2.0693-7.3576,4.9949
			c-12.9253,1.6181-27.1848,8.0973-33.2163,19.3076c-3.1072,0.5039-5.4873,3.2047-5.4873,6.4519
			C17.9732,41.0462,20.9058,43.979,24.5105,43.979z"/>
		<path fill="#ffffff" d="M98.1376,46.0001c-6.7951,0-12.3232,5.5281-12.3232,12.3233c0,6.7951,5.5281,12.3233,12.3232,12.3233
			c6.7952,0,12.3233-5.5282,12.3233-12.3233C110.4609,51.5282,104.9328,46.0001,98.1376,46.0001z"/>
		<path fill="#ffffff" d="M82.6745,67.5835c-3.6048,0-6.5374,2.9326-6.5374,6.5373c0,3.6046,2.9326,6.5373,6.5374,6.5373
			c3.6047,0,6.5373-2.9327,6.5373-6.5373C89.2118,70.5161,86.2792,67.5835,82.6745,67.5835z"/>
	</g>
</g>
</svg>

