<?xml version="1.0" encoding="utf-8"?>

<svg version="1.2" baseProfile="tiny" xmlns="http://www.w3.org/2000/svg" xmlns:xlink="http://www.w3.org/1999/xlink" x="0px"
	 y="0px" width="128px" height="128px" viewBox="0 0 128 128" xml:space="preserve">
<g id="_x31_28px_boxes">
	<rect fill="none" width="128" height="128"/>
</g>
<g id="Production">
	<g>
		<path fill="#ffffff" d="M107.4944,106H18.5c-1.9299,0-3.5,1.5643-3.5,3.5c0,1.9354,1.5701,3.5,3.5,3.5h88.9944
			c1.9355,0,3.5056-1.5646,3.5056-3.5C111,107.5643,109.4299,106,107.4944,106z"/>
		<path fill="#ffffff" d="M26,87c4.9629,0,9-4.0376,9-9c0-1.3688-0.3162-2.662-0.8652-3.8248l16.1089-23.1964
			c0.25,0.0209,0.5009,0.0383,0.7563,0.0383c1.0828,0,2.1167-0.202,3.0791-0.5541L67.145,61.4385C67.0554,61.9467,67,62.4666,67,63
			c0,4.9624,4.0371,9,9,9s9-4.0376,9-9c0-1.2838-0.2747-2.5031-0.7612-3.6092l15.7707-21.4483C100.3352,37.9783,100.665,38,101,38
			c4.9629,0,9-4.0376,9-9c0-4.9624-4.0371-9-9-9s-9,4.0376-9,9c0,1.2838,0.2747,2.5032,0.7612,3.6093l-15.771,21.4482
			C76.6648,54.0217,76.335,54,76,54c-1.0774,0-2.1064,0.2001-3.0647,0.5488L59.8574,43.5635C59.9451,43.06,60,42.5453,60,42.0171
			c0-4.9624-4.0371-9-9-9s-9,4.0376-9,9c0,1.3647,0.3142,2.6545,0.8604,3.8147l-16.1155,23.206C26.4985,69.0175,26.2515,69,26,69
			c-4.9629,0-9,4.0376-9,9S21.0371,87,26,87z"/>
	</g>
</g>
</svg>
