<?xml version="1.0" encoding="utf-8"?>
<!-- Generator: Adobe Illustrator 18.1.0, SVG Export Plug-In . SVG Version: 6.00 Build 0)  -->
<svg version="1.2" baseProfile="tiny" xmlns="http://www.w3.org/2000/svg" xmlns:xlink="http://www.w3.org/1999/xlink" x="0px"
	 y="0px" width="64px" height="64px" viewBox="0 0 64 64" xml:space="preserve">
<g id="_x36_4px_boxes">
	<rect fill="none" width="64" height="64"/>
</g>
<g id="Production">
	<g>
		<path fill="#ffffff" d="M54,10H2v34h52V10z M49,39H7V15h42V39z"/>
		<polygon fill="#ffffff" points="58,17 58,48 9,48 9,53 63,53 63,17 		"/>
		<path fill="#ffffff" d="M27.9118,34.9894c4.4113,0,8.0002-3.5888,8.0002-7.9999c0-4.4111-3.5889-7.9999-8.0002-7.9999
			s-8.0002,3.5888-8.0002,7.9999C19.9116,31.4006,23.5005,34.9894,27.9118,34.9894z M27.9118,23.9896
			c1.6543,0,3.0001,1.3457,3.0001,2.9999c0,1.6543-1.3458,3-3.0001,3c-1.6544,0-3.0001-1.3457-3.0001-3
			C24.9117,25.3353,26.2574,23.9896,27.9118,23.9896z"/>
		<path fill="#ffffff" d="M16.9114,27c0-4-6.0001-4-6.0001,0S16.9114,31,16.9114,27z"/>
		<path fill="#ffffff" d="M44.9122,27c0-4-6.0001-4-6.0001,0S44.9122,31,44.9122,27z"/>
	</g>
</g>
</svg>

