<?xml version="1.0" encoding="utf-8"?>

<svg version="1.2" baseProfile="tiny" xmlns="http://www.w3.org/2000/svg" xmlns:xlink="http://www.w3.org/1999/xlink" x="0px"
	 y="0px" width="64px" height="64px" viewBox="0 0 64 64" xml:space="preserve">

<g id="Production">
	<g>
		<polygon fill="#ffffff" points="48,55 9,55 9,16 40.3646,16 42.3521,14 7,14 7,57 50,57 50,21.2648 48,23.2772 		"/>
		<path fill="#ffffff" d="M58.5728,6.7798l-1.6069-1.6074c-0.8062-0.8062-2.2173-0.8076-3.0259,0.0044l-1.8037,1.815l4.6285,4.6288
			l1.8134-1.8247C59.4058,8.9629,59.4033,7.6094,58.5728,6.7798z"/>
		<path fill="#ffffff" d="M53.9408,11.6247c-11.5441,11.616-17.2663,17.3739-24.2845,24.4359l-0.7587,0.1895l-1.2202-1.2202
			l0.185-0.7755C55.3955,6.5496,46.7365,15.2625,52.1408,9.8246c-2.0748-2.075,0.6628,0.6629-1.4142-1.4144
			c-0.3397,0.3418-24.3396,24.491-24.6787,24.8334l-1.4673,6.146l6.1011-1.5234c4.219-4.2452,18.5259-18.6413,24.6734-24.8271
			C53.2809,10.9647,56.0178,13.7019,53.9408,11.6247z"/>
	</g>
</g>
</svg>
