<?xml version="1.0" encoding="utf-8"?>
<!-- Generator: Adobe Illustrator 18.1.1, SVG Export Plug-In . SVG Version: 6.00 Build 0)  -->
<svg version="1.2" baseProfile="tiny" xmlns="http://www.w3.org/2000/svg" xmlns:xlink="http://www.w3.org/1999/xlink" x="0px"
	 y="0px" width="128px" height="128px" viewBox="0 0 128 128" xml:space="preserve">
<g id="_x31_28px_boxes">
	<rect fill="none" width="128" height="128"/>
</g>
<g id="Production">
	<g>
		<path fill="#ffffff" d="M110.0115,35.1736c-0.0375-1.2391-0.755-2.4363-2.067-2.9172L65.638,16.7246
			c-0.7298-0.2679-1.5327-0.2574-2.2556,0.0301c-0.068,0.0271-43.2282,17.2169-43.3995,17.2895
			c-1.1456,0.4861-1.9442,1.4786-1.9963,2.885c-0.0003,0.0066-0.0013,0.0129-0.0013,0.0193v47.1729
			c0,1.1394,0.6136,2.1904,1.606,2.7505c0,0,42.851,24.1858,42.8567,24.1889c0.8437,0.4763,1.9133,0.5722,2.9142,0.0921
			c0.0639-0.0305,0.1293-0.0569,0.1913-0.0921l42.8552-24.1889c0.9922-0.5601,1.6059-1.6111,1.6059-2.7505V35.2212
			C110.0146,35.2052,110.012,35.1897,110.0115,35.1736z M64.5945,23.0705l34.263,12.5787l-12.9468,6.3944L52.7085,27.7961
			L64.5945,23.0705z M57.0501,78.1668v19.9099l-3.0463-1.7419V76.6109L57.0501,78.1668z M51.2869,75.2264v19.5571l-1.428-0.8132
			v-19.47L51.2869,75.2264z M46.7774,72.937v19.2811l-4.8045-2.7232V70.5075L46.7774,72.937z M38.8543,68.9361v18.7968
			l-2.9492-1.6621v-18.617L38.8543,68.9361z M31.2937,65.1448v18.336l-4.918-2.752V62.6929L31.2937,65.1448z M63.9436,52.8931
			L29.211,37.1396l14.6491-5.8251l33.502,14.9512L63.9436,52.8931z M103.6978,82.2774l-36.5384,20.6235v-44.551l14.0836-6.9558
			v16.8222l8.2885-4.1447V47.3003l14.1663-6.9967V82.2774z"/>
	</g>
</g>
</svg>
