<?xml version="1.0" encoding="utf-8"?>
<!-- Generator: Adobe Illustrator 18.1.1, SVG Export Plug-In . SVG Version: 6.00 Build 0)  -->
<svg version="1.2" baseProfile="tiny" xmlns="http://www.w3.org/2000/svg" xmlns:xlink="http://www.w3.org/1999/xlink" x="0px"
	 y="0px" width="128px" height="128px" viewBox="0 0 128 128" xml:space="preserve">
<g id="box">
	<rect fill="none" width="128" height="128"/>
</g>
<g id="Production">
	<g>
		<path fill="#ffffff" d="M88.1672,52.6812c-0.0378-0.0059-0.0319-0.0032,0.0027,0.0043
			C88.1689,52.6836,88.1677,52.6826,88.1672,52.6812z"/>
		<path fill="#ffffff" d="M47.2146,58.6404c0.4216-1.5974,0.9648-3.4393,1.53-5.0894c-5.1867-3.3734-12.8025,8.1616-10.1267,11.6729
			C40.9343,68.2641,45.0491,61.9573,47.2146,58.6404z"/>
		<path fill="#ffffff" d="M50.6375,66.3579c-0.0042-0.0039-0.0096-0.0088-0.0132-0.0127c0.0051,0.0186,0.0127,0.0359,0.0183,0.0542
			C50.6389,66.3816,50.6375,66.3679,50.6375,66.3579z"/>
		<path fill="#ffffff" d="M30.0164,83.7319c0-0.9339,0.8654-1.7187,1.9458-1.7187H52.844c1.0012,0,1.9377,0.7264,1.9377,1.7187
			c0,3.1182,0,0.3626,0,3.4678h53.4007V29.9351c0-2.0157-1.6338-3.6497-3.6494-3.6497H23.467c-2.0158,0-3.6501,1.634-3.6501,3.6497
			v57.2646h10.1995C30.0164,84.0936,30.0164,86.8515,30.0164,83.7319z M83.8611,49.7808c2.9746-1.8743,6.9587-1.9759,8.5837,1.6833
			c1.1043,2.4859-2.5637,4.6543-3.6762,2.1494c-0.0162-0.0362-0.462-0.841-0.462-0.841c-0.0307-0.0132-0.0976-0.0508-0.1233-0.0723
			c-3.1879-0.2506-9.6716,8.1191-8.4108,11.8445c1.2443,2.4657,7.6696,2.2278,11.3991-2.9378
			c1.5913-2.2033,5.2871-0.0815,3.6765,2.1494c-3.2941,4.5618-10.05,8.3643-15.6457,5.7076
			C71.2957,65.7123,77.2856,53.9235,83.8611,49.7808z M33.843,62.6914c0.7315-7.2627,9.0047-17.116,16.4649-13.1604
			c0.0024-0.0044,0.0041-0.01,0.0068-0.0149c0.9277-2.0857,3.8608-0.8413,3.9668,1.0745c0.2004,3.6181-1.1333,6.7829-3.0928,9.727
			c-0.8428,3.4528-0.6938,4.6233-0.6704,5.6233c2.9917-1.2461,5.6939-5.3078,7.2881-7.9985
			c1.2812-5.2847,6.7781-20.5968,11.3628-23.6536c1.6548-1.1033,3.5012,0.7019,3.1274,2.4041
			c-1.5996,7.2874-6.3342,12.7101-7.4282,13.3847c-1.176,2.9788-3.8462,10.6343-3.6829,13.741
			c0.542,2.2043,2.6282,2.5999,4.4668,1.4863c6.0306-3.6516,5.9978-11.5019,3.0284-12.3208
			c-2.6433-0.7292-1.5193-4.8371,1.132-4.1057c1.4519,0.4007,2.6194,1.3152,3.4947,2.5235
			c4.3647,6.0273-0.5127,15.6106-6.7364,18.1596c-3.4492,1.4124-7.6831,0.3562-9.1623-3.6504
			c-1.3806,1.4872-4.0354,3.7197-6.0374,4.2366c-2.6591,0.6877-4.4213-0.928-4.9594-3.2353
			C39.9919,73.9634,33.2751,68.3249,33.843,62.6914z"/>
		<path fill="#ffffff" d="M114.7029,91.7617H13.3057c-1.0901,0-1.9458,0.7962-1.9458,1.7188v6.5205
			c0,0.8687,0.8125,1.7136,1.9458,1.7136h101.3972c1.0097,0,1.9372-0.7461,1.9372-1.7136v-6.5205
			C116.6401,92.4955,115.7148,91.7617,114.7029,91.7617z"/>
	</g>
</g>
</svg>
