<?xml version="1.0" encoding="utf-8"?>

<svg version="1.2" baseProfile="tiny" xmlns="http://www.w3.org/2000/svg" xmlns:xlink="http://www.w3.org/1999/xlink" x="0px"
	 y="0px" width="128px" height="128px" viewBox="0 0 128 128" xml:space="preserve">
<g id="_x31_28px_boxes">
	<rect fill="none" width="128" height="128"/>
</g>
<g id="Production">
	<g>
		<path fill="#ffffff" d="M101.5,18h-66c-1.9326,0-3.5,1.5669-3.5,3.5v33.6252l7-4.271V25h59c0,0,0.0436,50.0703,0,51.5662
			C97.9565,78.062,97.0183,82,89.9941,82H79c-1.6569,0-3,1.3431-3,3v11c0,6.9749-3.8818,7.9028-5.3989,8H39V86.6777l-7,4.271V107.5
			c0,1.9331,1.5674,3.5,3.5,3.5h38.9854c2.2607,0,3.8271-1.2954,4.7627-2.0693c4.6328-3.8335,20.1768-19.6821,24.1064-24.5786
			C104.4463,82.9893,105,81.3164,105,79.3794V21.5C105,19.5669,103.4326,18,101.5,18z"/>
		<path fill="#ffffff" d="M80.3653,50.6479c0,0,3.6351-6.6533,4.4861-8.2617c0.8508-1.6106,0.2572-2.4342-1.5256-2.384
			c-1.7818,0.0505-9.3392,0.2505-9.3392,0.2505s-0.0312,3.5363,1.6137,6.218C77.2424,49.1501,80.3653,50.6479,80.3653,50.6479z"/>
		<path fill="#ffffff" d="M70.4988,55.5614l-0.4715-5.7684l-5.0044-3.157l-0.617-6.0109L14.4153,71.1255
			c-2.2668,7.6727,3.4202,16.7645,11.2795,18.3992l49.991-30.5022L70.4988,55.5614z"/>
	</g>
</g>
</svg>
