<?xml version="1.0" encoding="utf-8"?>
<!-- Generator: Adobe Illustrator 18.1.1, SVG Export Plug-In . SVG Version: 6.00 Build 0)  -->
<svg version="1.2" baseProfile="tiny" xmlns="http://www.w3.org/2000/svg" xmlns:xlink="http://www.w3.org/1999/xlink" x="0px"
	 y="0px" width="128px" height="128px" viewBox="0 0 128 128" xml:space="preserve">
<g id="box">
	<rect fill="none" width="128" height="128"/>
</g>
<g id="Production">
	<g>
		<path fill="#ffffff" d="M105.3965,59.7297c-3.8492-1.2639-7.9947,0.8319-9.2588,4.6814
			c-0.8745,2.6635-0.1397,5.4679,1.6704,7.3625c-8.2937,20.6871-11.9165,25.0982-28.2876,25.9373v-7.6816
			c-10.5571,4.8412-22.8111,4.8407-33.367,0v13.8545c0,3.2026,2.6053,5.8074,5.8074,5.8074h21.7525
			c3.0007,0,5.4768-2.2876,5.7766-5.2105c9.4465-0.5166,15.8276-2.1423,20.9592-6.5281c5.4399-4.6496,9.0244-12.0708,13.8105-24.008
			c2.6258-0.4199,4.9312-2.2551,5.8179-4.9556C111.3418,65.1394,109.2461,60.9939,105.3965,59.7297z"/>
		<path fill="#ffffff" d="M88.1201,53.5919c0-19.4862-15.7974-35.2831-35.2832-35.2831c-19.4859,0-35.2827,15.7969-35.2827,35.2831
			c0,19.5167,15.8325,35.2826,35.2827,35.2826C72.2766,88.8745,88.1201,73.1182,88.1201,53.5919z M26.4712,63.1353
			c0.1364,1.6492-0.7803,1.7642-1.3531,0.1236c-1.0561-3.0273-1.6306-6.28-1.6306-9.667c0-16.2096,13.1404-29.3496,29.3494-29.3496
			c5.4575,0,10.5661,1.4901,14.9431,4.0853c1.459,0.8647,1.1917,1.7288-0.3479,1.2823
			C45.8469,23.3499,24.6045,40.6788,26.4712,63.1353z M43.4104,53.5919c0-5.2064,4.2204-9.427,9.4265-9.427
			c5.2065,0,9.4272,4.2206,9.4272,9.427c0,5.2062-4.2207,9.4268-9.4272,9.4268C47.6308,63.0187,43.4104,58.7981,43.4104,53.5919z"/>
	</g>
</g>
</svg>
