<?xml version="1.0" encoding="utf-8"?>
<!-- Generator: Adobe Illustrator 18.1.1, SVG Export Plug-In . SVG Version: 6.00 Build 0)  -->
<svg version="1.2" baseProfile="tiny" xmlns="http://www.w3.org/2000/svg" xmlns:xlink="http://www.w3.org/1999/xlink" x="0px"
	 y="0px" width="64px" height="64px" viewBox="0 0 64 64" xml:space="preserve">

<g id="Production">
	<g>
		<circle fill="#ffffff" cx="33" cy="30" r="2"/>
		<circle fill="#ffffff" cx="39" cy="30" r="2"/>
		<circle fill="#ffffff" cx="45" cy="30" r="2"/>
		<circle fill="#ffffff" cx="33" cy="36" r="2"/>
		<circle fill="#ffffff" cx="39" cy="36" r="2"/>
		<circle fill="#ffffff" cx="45" cy="36" r="2"/>
		<circle fill="#ffffff" cx="33" cy="42" r="2"/>
		<circle fill="#ffffff" cx="39" cy="42" r="2"/>
		<circle fill="#ffffff" cx="45" cy="42" r="2"/>
		<path fill="#ffffff" d="M54,13h-1v2h1c0.5513,0,1,0.4487,1,1v32c0,0.5513-0.4487,1-1,1H24c-0.5513,0-1-0.4487-1-1V16
			c0-0.5513,0.4487-1,1-1h1v-2h-1c-1.6543,0-3,1.3457-3,3v32c0,1.6543,1.3457,3,3,3h2v3c0,3.3086-2.6914,6-6,6s-6-2.6914-6-6v-3h2
			c1.6543,0,3-1.3457,3-3V16c0-1.6543-1.3457-3-3-3h-6c-1.6543,0-3,1.3457-3,3v32c0,1.6543,1.3457,3,3,3h2v3c0,4.4111,3.5889,8,8,8
			s8-3.5889,8-8v-3h26c1.6543,0,3-1.3457,3-3V16C57,14.3457,55.6543,13,54,13z M10,49c-0.5513,0-1-0.4487-1-1V16
			c0-0.5513,0.4487-1,1-1h6c0.5513,0,1,0.4487,1,1v32c0,0.5513-0.4487,1-1,1H10z"/>
		<path fill="#ffffff" d="M51,4H27v19h24V4z M49,21H29V6h20V21z"/>
	</g>
</g>
</svg>
