<?xml version="1.0" encoding="utf-8"?>
<!-- Generator: Adobe Illustrator 18.1.1, SVG Export Plug-In . SVG Version: 6.00 Build 0)  -->
<svg version="1.2" baseProfile="tiny" xmlns="http://www.w3.org/2000/svg" xmlns:xlink="http://www.w3.org/1999/xlink" x="0px"
	 y="0px" width="128px" height="128px" viewBox="0 0 128 128" xml:space="preserve">
<g id="_x31_28px_boxes" display="none">
	<rect display="inline" fill="none" width="128" height="128"/>
</g>
<g id="Production">
	<g>
		<path fill="#ffffff" d="M33.1676,98.7648L46.256,81.8413v17.1721c4.1651-0.3562,8.3176-1.1182,12.104-2.1394v-4.4197h10.0752
			v1.8308c0-0.3514,11.756-2.2736,12.1038-2.3232V81.8415l7.2644,9.3928c5.3995-0.2937,10.5423,0.0147,15.793,1.2144L80.539,62.635
			V25.1555c0-0.8054-0.2879-1.584-0.8118-2.1956l-4.1736-4.8721c-0.6413-0.7485-1.5776-1.1794-2.5632-1.1794H53.8051
			c-0.9856,0-1.9219,0.4307-2.563,1.1792l-4.1741,4.8721c-0.5239,0.6115-0.812,1.3904-0.812,2.1958V62.635L20.5685,95.8689
			C24.6697,97.2642,28.8957,98.2356,33.1676,98.7648z M71.4374,23.6584l2.3516,2.7451v16.1243H53.006V26.4035l2.3518-2.7451H71.4374
			z M58.36,56.4628v-4.5h10.0752v4.5H58.36z M58.36,65.4599h10.0752v4.5H58.36V65.4599z M58.36,83.457v-4.5h10.0752v4.5H58.36z"/>
		<path fill="#ffffff" d="M10.4665,96.5051c-0.9195-0.4766-2.2178-1.6543-3.2862-1.6543c-1.2813,0-1.9369,1.5659-1.0092,2.4741
			c10.8772,10.6404,32.0421,17.8885,58.0517,11.1724c44.3786-11.3937,47.8816,0.2818,55.8504,0.2109
			c2.0797-0.0186,3.1303-3.1043,1.0952-4.2314c-18.4851-10.2385-30.3934-11.6118-59.042-3.9659
			C44.2855,105.239,27.136,105.1544,10.4665,96.5051z"/>
	</g>
</g>
</svg>
