<?xml version="1.0" encoding="utf-8"?>
<!-- Generator: Adobe Illustrator 18.1.1, SVG Export Plug-In . SVG Version: 6.00 Build 0)  -->
<svg version="1.2" baseProfile="tiny" xmlns="http://www.w3.org/2000/svg" xmlns:xlink="http://www.w3.org/1999/xlink" x="0px"
	 y="0px" width="128px" height="128px" viewBox="0 0 128 128" xml:space="preserve">
<g id="box">
	<rect fill="none" width="128" height="128"/>
</g>
<g id="Production">
	<g>
		<path fill="#ffffff" d="M119.5626,67.9243c-1.8386-2.03-4.4306-3.7655-6.093-4.8613c-0.2644-3.4937-1.1562-7.7078-3.0581-11.6549
			c-2.1938-4.6801-6.6699-9.5088-13.4683-9.5012H80.7445V31.1058c0-1.5406-1.2534-2.8211-2.834-2.8211H9.2657
			c-1.5899,0-2.8261,1.2818-2.8261,2.8211c0,6.3761,0,42.2605,0,54.7885c0,1.5001,1.2109,2.821,2.8261,2.821h15.0101
			c0.2343-7.6196,6.436-13.7227,14.1132-13.7303c7.6778,0.0076,13.8792,6.1184,14.1133,13.7303c25.417,0,32.924,0.131,34.0884,0.131
			c0.1665-7.6799,6.4028-13.8537,14.1233-13.8613c7.7305,0.0076,13.9724,6.1814,14.1384,13.8613h2.7229
			c2.1792,0,3.9851-1.7682,3.9851-3.9823V72.5541C121.4672,70.184,120.4091,68.9647,119.5626,67.9243z M75.0919,70.1234H12.0868
			V33.9271l63.0051,0.0076V70.1234z M88.1322,64.0477V49.8892h8.811c2.7178,0.0101,4.554,1.6397,6.2998,5.0201
			c1.4104,2.8337,2.1182,6.5088,2.272,9.1384H88.1322z"/>
		<path fill="#ffffff" d="M100.7216,78.5718c-5.9131,0.0103-10.564,4.8532-10.564,10.5743c0,5.8362,4.7302,10.5591,10.564,10.5692
			c5.7055-0.0099,10.6836-4.5983,10.5366-10.869C111.0917,83.1536,106.4572,78.5818,100.7216,78.5718z M100.7216,92.5264
			c-4.5476,0-4.3047-6.7658,0-6.7658c2.0036,0,3.3879,1.7692,3.3879,3.3855C104.1019,91.01,102.5907,92.5264,100.7216,92.5264z"/>
		<path fill="#ffffff" d="M38.3868,78.5718c-5.9854,0.0105-10.5647,4.9541-10.5647,10.5743c0,5.8362,4.731,10.5591,10.5647,10.5692
			c5.9474-0.0103,10.8298-4.9497,10.5213-11C48.6713,83.0833,44.0846,78.5818,38.3868,78.5718z M38.3868,92.5264
			c-1.8457,0-3.6079-1.5359-3.2973-3.8111c0.2265-1.6573,1.5869-2.9547,3.2973-2.9547c2.0479,0,3.388,1.8523,3.388,3.3855
			C41.767,91.01,40.2482,92.5264,38.3868,92.5264z"/>
	</g>
</g>
</svg>
