<?xml version="1.0" encoding="utf-8"?>
<!-- Generator: Adobe Illustrator 18.1.1, SVG Export Plug-In . SVG Version: 6.00 Build 0)  -->
<svg version="1.2" baseProfile="tiny" xmlns="http://www.w3.org/2000/svg" xmlns:xlink="http://www.w3.org/1999/xlink" x="0px"
	 y="0px" width="128px" height="128px" viewBox="0 0 128 128" xml:space="preserve">
<g id="_x31_28px_boxes">
	<rect fill="none" width="128" height="128"/>
</g>
<g id="Production">
	<g>
		<path fill="#ffffff" d="M33.4237,79.4917c0.017-0.0441,1.6988-4.4151,2.073-5.3318c0.4104-1.0049,1.3308-2.3187,3.3853-2.8692
			l11.6113-3.1113c2.2442-0.6011,3.4417,0.0688,4.3168,0.8031c1.6689,1.4009,4.7477,3.9219,5.7604,4.7454
			c0.7745,0.6312,1.8048,0.8516,2.7695,0.5932l27.2241-7.2946c0.9841-0.2635,1.7766-0.9925,2.1216-1.9511
			c0.5178-1.4433,2.1517-5.9372,2.7537-7.3908c0.4587-1.107,1.5747-1.9703,3.062-2.3687l12.04-3.2263
			c2.1005-0.5632,3.2797-0.0059,4.0718,0.5419c1.592,1.1015,2.4599,1.8956,3.8902,1.7375c2.9052-0.3218,3.8022-4.1317,1.3356-5.711
			c-0.0049-0.003-0.4886-0.3134-1.664-1.1264l-2.3439-8.7464c-0.4636-1.7301-2.0885-2.8866-3.8778-2.7562l-25.1725,1.8445
			l-10.8431-16.489c-0.8841-1.3447-2.5309-1.9708-4.0844-1.5545l-25.3507,6.7926c-1.5176,0.4068-2.5621,1.693-2.7383,3.1635
			l-9.7471,2.6115c-5.7395,1.5381-9.2802,5.9833-10.5243,13.2123c-0.7725,4.4899-1.6077,10.0063-1.8243,11.4481l-2.0207,0.5415
			c-0.9976,0.2673-1.7918,0.9146-2.2691,1.7442l-1.0207-3.8104c-0.5335-1.9897-2.5802-3.1727-4.5712-2.6392L7.643,54.0045
			c-1.9897,0.5331-3.1726,2.5803-2.6392,4.571l5.3391,19.9251c0.5349,1.9968,2.5884,3.1707,4.5712,2.639l4.1435-1.1105
			c0.9976-0.2673,1.7917-0.9146,2.269-1.7442l0.4887,1.8243c0.5328,1.9887,2.5769,3.173,4.5711,2.6392l5.0869-1.3604
			C32.3461,81.1132,33.0695,80.4118,33.4237,79.4917z M71.1817,27.7378l8.9751,13.6484l-24.1357,6.4671l-3.9876-14.9847
			L71.1817,27.7378z M30.8493,46.8759c0.9436-5.4836,3.2212-6.7646,5.0999-7.268l9.4775-2.5395l3.3842,12.7168l-19.2692,5.1632
			C29.8998,52.6358,30.3864,49.5649,30.8493,46.8759z"/>
		<path fill="#ffffff" d="M113.0763,82.611c9.2896-3.1731,12.0799-14.9481,5.3968-21.9667c-3.2863-3.451-8.3106-5.05-13.2281-3.7323
			c-7.2019,1.9297-11.4105,9.3545-9.5051,16.464c1.2168,4.5413,4.6343,7.9144,8.7976,9.2868
			c-6.2894,1.5658-11.521,6.2575-19.8445,11.5865c-6.3901,4.0914-8.6074,2.7408-11.676,0.8709
			c-2.7261-1.6612-6.8455-4.1713-12.5606-0.5935c-0.6275,0.3929-1.3576,0.7652-2.1679,1.1182
			c5.4397-5.1704,5.5748-13.69,0.5067-19.0097c-3.286-3.4514-8.3102-5.0503-13.2275-3.7328
			c-7.1972,1.9288-11.412,9.3492-9.505,16.464c1.3225,4.9359,5.2434,8.4946,9.8974,9.6008
			c-6.0382,1.084-12.111,1.6814-15.2407,1.8807l0.4719,7.4495c2.4297-0.1539,24.0054-1.6706,33.2263-7.4441
			c1.757-1.0998,2.2211-0.8786,4.7154,0.6413c3.6904,2.2485,9.2677,5.647,19.5848-0.9589
			c15.3402-9.8216,17.6611-15.0059,30.5171-7.1578l3.8893-6.3713C119.4315,84.7525,116.151,83.3059,113.0763,82.611z
			 M50.387,90.8891c-2.7667,0.7412-5.6046-0.9195-6.3422-3.6613c-0.7391-2.7587,0.9031-5.6042,3.6616-6.3432
			c2.9761-0.7975,6.0579,1.1843,6.4688,4.3216C54.5139,87.7446,52.9256,90.2088,50.387,90.8891z M110.0646,74.8986
			c-2.5439,0.6814-5.1577-0.6654-6.129-3.0417c-1.2006-2.9418,0.489-6.1701,3.4483-6.9628
			c2.9761-0.7975,6.0578,1.1842,6.4687,4.3217C114.1913,71.7541,112.6027,74.2185,110.0646,74.8986z"/>
	</g>
</g>
</svg>
