<?xml version="1.0" encoding="utf-8"?>

<svg version="1.2" baseProfile="tiny" xmlns="http://www.w3.org/2000/svg" xmlns:xlink="http://www.w3.org/1999/xlink" x="0px"
	 y="0px" width="64px" height="64px" viewBox="0 0 64 64" xml:space="preserve">

<g id="Production">
	<g>
		<path fill="#ffffff" d="M15,55V9h16v18h18v9.558c0.6868,0.1906,1.3562,0.4208,2,0.7031V25.5859L32.4141,7H13v50h18.2612
			c-0.2825-0.6437-0.5127-1.3131-0.7031-2H15z M33,25V10.4141L47.5859,25H33z"/>
		<path fill="#ffffff" d="M45,38c-7.168,0-13,5.8315-13,13c0,7.0891,5.7806,13,13,13c7.168,0,13-5.8315,13-13
			C58,43.7843,52.0928,38,45,38z M45,62c-6.1015,0-11-4.9977-11-11c0-6.0654,4.9346-11,11-11c5.9956,0,11,4.8918,11,11
			C56,57.0654,51.0654,62,45,62z"/>
		<path fill="#ffffff" d="M50.293,50.2148c-3.7163,3.7163,2.2537-2.2537-4.293,4.293V44h-2v10.5078l-4.293-4.293l-1.4141,1.4141
			c7.0995,7.0995-0.398-0.398,6.707,6.707c11.676-11.676-4.8975,4.8975,6.707-6.707C49.6299,49.5518,52.3701,52.292,50.293,50.2148z
			"/>
	</g>
</g>
</svg>
