<?xml version="1.0" encoding="utf-8"?>

<svg version="1.2" baseProfile="tiny" xmlns="http://www.w3.org/2000/svg" xmlns:xlink="http://www.w3.org/1999/xlink" x="0px"
	 y="0px" width="64px" height="64px" viewBox="0 0 64 64" xml:space="preserve">

<g id="Production">
	<g>
		<path fill="#ffffff" d="M55.0295,28.2181l-0.9189-3.9999l3.4346-5.9365l-7.3508-9.1542l-6.5803,2.0009l-3.7443-1.7791L37.3416,3
			h-11.764l-2.5284,6.3494l-3.7443,1.7845l-6.5803-2.0037L5.3738,18.283l3.4347,5.9358l-0.919,3.9996l-5.6867,3.8679l2.6261,11.4285
			l6.8088,1.0322l2.5821,3.2158l-0.501,6.826l10.6058,5.0615L29.3794,55h4.1613l5.0538,4.6503l10.6058-5.0673l-0.501-6.8231
			l2.5821-3.2144l6.8088-1.0308l2.6261-11.4286L55.0295,28.2181z M53.9788,39.0814l-5.3752,0.8153l-5.0353,6.2704l0.3955,5.3847
			l-4.4786,2.1298L35.488,50h-8.0559l-3.9982,3.6816l-4.4786-2.1357l0.3955-5.3818l-5.0353-6.269l-5.3751-0.8147l-1.0987-4.7838
			l4.4816-3.0476l1.7999-7.8299l-2.7061-4.6767l3.0889-3.8476l5.2033,1.583l7.2639-3.4626L28.9702,8h4.9786l1.9971,5.0153
			l7.2639,3.4681l5.2032-1.5857l3.0889,3.8462L48.796,23.42l1.7999,7.8297l4.4816,3.0477L53.9788,39.0814z"/>
		<path fill="#ffffff" d="M31.5547,21c-5.7891,0-10.498,4.71-10.498,10.5s4.71,10.5,10.5,10.5s10.5-4.71,10.5-10.5
			S37.3457,21,31.5547,21z M31.5566,37c-3.0322,0-5.5-2.4678-5.5-5.5c0-1.4688,0.5723-2.8496,1.6113-3.8887
			C28.7061,26.5723,30.0879,26,31.5566,26c3.0322,0,5.5,2.4678,5.5,5.5S34.5889,37,31.5566,37z"/>
	</g>
</g>
</svg>
