<?xml version="1.0" encoding="utf-8"?>
<!-- Generator: Adobe Illustrator 18.1.1, SVG Export Plug-In . SVG Version: 6.00 Build 0)  -->
<svg version="1.2" baseProfile="tiny" xmlns="http://www.w3.org/2000/svg" xmlns:xlink="http://www.w3.org/1999/xlink" x="0px"
	 y="0px" width="128px" height="128px" viewBox="0 0 128 128" xml:space="preserve">
<g id="box">
	<rect fill="none" width="128" height="128"/>
</g>
<g id="Production">
	<g>
		<path fill="#ffffff" d="M79.1419,113.2008c-3.7837-1.5371-8.126-2.4702-11.2933-2.4778h-0.2918l-0.0025-19.834
			c0-1.5725-1.3785-2.7597-3.127-2.7597c-7.4867,0-20.4402-2.9561-20.4402-17.9624c0-6.2542,2.1408-11.2903,4.7999-15.1421
			c-5.5828,0.8374-10.7906-2.4424-12.5132-7.6529c-3.9547,5.867-7.0238,13.346-7.0238,22.5411
			c0,26.1306,21.0641,30.468,22.015,30.7243v10.0857c-4.2599,0-8.3068,0.9857-11.8918,2.4827
			c-3.5647,1.6128-7.0441,3.5222-7.293,7.3259c0,0.9573,0.781,1.7713,1.771,1.7713h51.0087c0.9683,0,1.7687-0.7861,1.7687-1.7713
			C86.3568,116.68,82.787,114.8185,79.1419,113.2008z"/>
		<path fill="#ffffff" d="M100.148,65.3668c-1.2126-1.5344-3.4366-1.7908-4.9711-0.581L73.1996,82.1923
			c-1.5371,1.2175-1.7911,3.4387-0.5736,4.9733c1.2173,1.5525,3.4542,1.7781,4.9685,0.5813l21.9797-17.4138
			C101.1113,69.1232,101.3656,66.8966,100.148,65.3668z"/>
		<path fill="#ffffff" d="M71.587,65.548c4.2892,1.6303,8.2819-1.5371,7.7283-6.118c-0.3648-3.009-1.1145-7.3938-1.1145-7.3938
			l-13.532,10.7017C64.6688,62.7379,68.7719,64.4816,71.587,65.548z"/>
		<path fill="#ffffff" d="M45.5569,37.0651c-5.2181,1.1699-7.0101,7.1281-3.9397,11.0415
			c4.0123,5.0618,12.4007,2.3651,12.4252-4.3396C54.0219,39.6598,50.3881,35.9922,45.5569,37.0651z"/>
		<path fill="#ffffff" d="M50.8424,33.0929c5.4256,1.9311,8.4817,7.2745,7.3786,12.8879c-0.6008,3.0283-2.3036,5.7397-5.3711,7.5823
			l4.946,6.2417c0.5949,0.7581,1.7108,0.9034,2.4905,0.2893L76.631,47.1583c0.7897-0.6387,0.8832-1.7283,0.2944-2.4983
			L46.5984,6.3758c-0.6113-0.767-1.7183-0.9079-2.483-0.2993L27.7556,19.0348c-0.7697,0.6013-0.8982,1.716-0.2868,2.4831
			l11.4289,14.4329C42.0049,32.6885,46.2706,31.4967,50.8424,33.0929z"/>
	</g>
</g>
</svg>
