<?xml version="1.0" encoding="utf-8"?>
<!-- Generator: Adobe Illustrator 18.1.1, SVG Export Plug-In . SVG Version: 6.00 Build 0)  -->
<svg version="1.2" baseProfile="tiny" xmlns="http://www.w3.org/2000/svg" xmlns:xlink="http://www.w3.org/1999/xlink" x="0px"
	 y="0px" width="128px" height="128px" viewBox="0 0 128 128" xml:space="preserve">
<g id="_x31_28px_boxes">
	<rect fill="none" width="128" height="128"/>
</g>
<g id="Production">
	<g>
		<path fill="#ffffff" d="M109.216,67.8264c3.1831-13.7088-0.7486-22.5225-4.6353-27.5496C95.4518,28.4699,81,28,71,28v8.9729
			c6,0,19.2839-0.5176,26.482,8.7924c3.781,4.8902,4.8343,11.711,3.015,19.7889c-1.8494-0.0647-3.5824,1.0197-4.3007,2.8017
			l-15.4797,38.4126c-1.0047,2.4913,0.3975,5.3058,2.9922,6.0083l16.8656,4.5664c2.6085,0.7062,5.2444-1.0402,5.6169-3.7107
			l5.7283-41.0554C112.2038,70.5402,111.0669,68.6042,109.216,67.8264z"/>
		<path fill="#ffffff" d="M58,43.2148V37h9v-9h-9.1497c-0.4631-4-2.5964-6.9839-6.126-8.566
			C48.0019,17.7654,21.5973,6.2081,21.331,6.0904c-1.6782-0.7417-3.6401,0.0747-4.3819,1.7529
			c-0.7419,1.6781,0.0172,3.669,1.6954,4.4107c0.1818,0.0802,12.5493,5.5619,21.5533,9.5497
			c1.4574,0.6482,2.5647,2.2594,2.5647,4.1168c0,0.0556,0.0185,0.6762-0.0003,0.6796c-6.6061,1.1709-15.4104,3.413-24.8423,7.7054
			c-1.6145,0.7346-2.3275,2.6399-1.5928,4.2543c0.7351,1.6151,2.6397,2.3278,4.2534,1.5933
			c5.6347-2.5642,11.0642-4.345,15.8679-5.584c-1.4093,3.6019-0.7172,7.6943,1.9594,10.5396C31.0587,49.2633,26,57.1501,26,66.1772
			v51.1077C26,119.8137,28.2235,122,30.7522,122h39.2146C72.4956,122,75,119.8137,75,117.2849V66.1772
			C75,55.4941,68,46.4077,58,43.2148z M45.8198,33.6567c2.5178,0,4.5663,2.0483,4.5663,4.5664c0,2.5178-2.0485,4.5659-4.5663,4.5659
			c-2.5181,0-4.5667-2.0481-4.5667-4.5659C41.2531,35.705,43.3017,33.6567,45.8198,33.6567z M41,66.1772V115h-8V66.1772
			c0-9.8486,8.2787-17.7958,18.2421-17.2197C45.1505,52.2839,41,58.7475,41,66.1772z"/>
	</g>
</g>
</svg>
