<?xml version="1.0" encoding="utf-8"?>
<!-- Generator: Adobe Illustrator 18.1.1, SVG Export Plug-In . SVG Version: 6.00 Build 0)  -->
<svg version="1.2" baseProfile="tiny" xmlns="http://www.w3.org/2000/svg" xmlns:xlink="http://www.w3.org/1999/xlink" x="0px"
	 y="0px" width="128px" height="128px" viewBox="0 0 128 128" xml:space="preserve">
<g id="_x31_28px_boxes" display="none">
	<rect display="inline" fill="none" width="128" height="128"/>
</g>
<g id="Production">
	<g>
		<path fill="#ffffff" d="M56.8279,94.1414h14.3442v-6.9673l-2.3386-50.9582c-0.1209-2.4625-2.0987-4.4962-4.6116-4.6115
			c-2.6694-0.1226-4.9329,1.9421-5.0554,4.6115l-2.3386,50.9582V94.1414z"/>
		<path fill="#ffffff" d="M110.3288,54.6589h-7.747c-0.6572,0-1.2798,0.2956-1.6953,0.805L75.6721,86.3733v10.0181
			c0,1.2426-1.0073,2.25-2.25,2.25H54.5779c-1.2427,0-2.25-1.0074-2.25-2.25V86.3733L27.1135,55.4639
			c-0.4155-0.5094-1.0381-0.805-1.6953-0.805h-7.7471c-1.4991,0-2.5552,1.4774-2.07,2.896l16.3222,47.7146l-4.373,8.1255
			c-0.7856,1.4596,0.2783,3.2249,1.9262,3.2249c0.1485,0,0.2984-0.0152,0.4473-0.0464l34.0764-7.1106l34.076,7.1106
			c1.8945,0.3962,3.3238-1.6809,2.3069-3.3025l-4.3064-8.0015l16.3222-47.7146C112.884,56.1362,111.8281,54.6589,110.3288,54.6589z"
			/>
		<path fill="#ffffff" d="M52.3044,48.9539c2.2781,0,4.1248-1.8467,4.1248-4.1248V27.1974c0-4.1745,3.3965-7.5706,7.571-7.5706
			c4.1743,0,7.5706,3.3961,7.5706,7.5706v17.6317c0,2.2781,1.8467,4.1248,4.1247,4.1248c2.2781,0,4.1248-1.8467,4.1248-4.1248
			V27.1974c0-8.7233-7.0969-15.8201-15.8201-15.8201c-8.7236,0-15.8205,7.0968-15.8205,15.8201v17.6317
			C48.1797,47.1072,50.0264,48.9539,52.3044,48.9539z"/>
	</g>
</g>
</svg>
