<?xml version="1.0" encoding="utf-8"?>
<!-- Generator: Adobe Illustrator 19.1.0, SVG Export Plug-In . SVG Version: 6.00 Build 0)  -->
<svg version="1.2" baseProfile="tiny" xmlns="http://www.w3.org/2000/svg" xmlns:xlink="http://www.w3.org/1999/xlink" x="0px"
	 y="0px" width="64px" height="64px" viewBox="0 0 64 64" xml:space="preserve">
<g id="box">
	<rect fill="none" width="64" height="64"/>
</g>
<g id="Production">
	<g>
		<path fill="#ffffff" d="M13.7363,30.707l4.95-4.95l6.3289,6.3289l1.4141-1.4141l-6.3289-6.3289l4.2427-4.2427l6.3289,6.3289
			l1.4141-1.4141l-6.3289-6.3288l4.95-4.95c0.3906-0.3906,0.3906-1.0234,0-1.4141l-9.1924-9.1924
			c-0.3906-0.3906-1.0234-0.3906-1.4141,0L3.1299,20.1006c-0.3906,0.3906-0.3906,1.0234,0,1.4141l9.1924,9.1924
			C12.7129,31.0977,13.3457,31.0977,13.7363,30.707z M20.8076,5.251l7.7783,7.7783L13.0293,28.5859L5.251,20.8076L20.8076,5.251z"/>
		<path fill="#ffffff" d="M41.985,34.9139l-1.4141,1.4141l15.8436,15.8434l-4.2432,4.2432L36.328,40.5709l-1.4141,1.4141
			l16.5504,16.5507c0.1875,0.1875,0.4419,0.293,0.707,0.293s0.5195-0.1055,0.707-0.293l5.6572-5.6572
			c0.1875-0.1875,0.293-0.4419,0.293-0.707s-0.1055-0.5195-0.293-0.707L41.985,34.9139z"/>
		<path fill="#ffffff" d="M59.1421,10.3394c-0.458-0.519-1.2781-0.4261-1.6172,0.1606l-3.6875,6.3872
			c-0.1436,0.2485-0.394,0.4111-0.6699,0.4346c-0.5513,0.0459-1.4199-0.021-2.4409-0.6099
			c-1.019-0.5889-1.5127-1.3066-1.7471-1.8062c-0.1191-0.2524-0.1025-0.5547,0.0444-0.8086l3.6831-6.3789
			c0.3413-0.5906,0.0021-1.3453-0.6694-1.4805c-4.5898-0.9199-8.896,0.812-10.9751,4.4116
			c-1.1821,2.0483-1.4932,4.5161-0.8765,6.9487c0.2715,1.0718,0.0059,2.1387-0.7095,2.8545L21.0864,38.8428
			c-0.6924,0.6919-1.6748,0.9761-2.6289,0.7607c-4.6304-1.0474-9.1597,0.6978-11.2666,4.3467
			c-2.0781,3.6001-1.4238,8.1968,1.667,11.7104c0.4529,0.5141,1.2759,0.4301,1.6172-0.1606l3.6851-6.3828
			c0.145-0.252,0.3984-0.416,0.6758-0.4395c0.5527-0.0449,1.4185,0.0225,2.4375,0.6108c1.0166,0.5869,1.5103,1.3037,1.7456,1.8022
			c0.1201,0.2539,0.104,0.5576-0.043,0.812l-3.6831,6.3789c-0.3413,0.5906-0.002,1.3453,0.6694,1.4805
			c0.8179,0.1641,1.626,0.2437,2.4146,0.2437c3.6377,0,6.8521-1.6968,8.5605-4.6553c1.1821-2.0483,1.4932-4.5161,0.8765-6.9487
			c-0.2715-1.0718-0.0059-2.1387,0.7095-2.8545l18.3901-18.3901c0.6924-0.6924,1.6743-0.9766,2.6294-0.7607
			c4.6289,1.0474,9.1592-0.6987,11.2661-4.3467C62.8872,18.4497,62.2329,13.853,59.1421,10.3394z M59.0767,21.0498
			c-1.666,2.8853-5.3208,4.2485-9.0923,3.3965c-1.6299-0.3716-3.3047,0.1157-4.4849,1.2969L27.1094,44.1333
			c-1.2188,1.2188-1.6802,2.998-1.2339,4.7598c0.4878,1.9253,0.25,3.8633-0.6704,5.4575c-1.4326,2.481-4.2593,3.8228-7.4321,3.6357
			l2.9355-5.084c0.4746-0.8223,0.519-1.8188,0.1191-2.666c-0.3569-0.7559-1.0898-1.8345-2.5542-2.6802
			c-1.4663-0.8457-2.7676-0.9375-3.605-0.8716c-0.9307,0.0786-1.7686,0.6143-2.2407,1.4326l-2.937,5.0879
			c-1.7539-2.6538-1.9995-5.7744-0.5674-8.2549c1.666-2.8853,5.3184-4.2485,9.0928-3.3965
			c1.6274,0.3696,3.3037-0.1157,4.4844-1.2969l18.3901-18.3901c1.2188-1.2188,1.6802-2.998,1.2339-4.7598
			c-0.4878-1.9253-0.25-3.8633,0.6704-5.4575c1.4321-2.481,4.2529-3.833,7.4321-3.6357l-2.9351,5.0835
			c-0.4746,0.8208-0.52,1.8159-0.1221,2.6602c0.356,0.7578,1.0884,1.8384,2.5566,2.6865c1.4697,0.8486,2.7749,0.9414,3.6099,0.8711
			c0.9277-0.0791,1.7627-0.6128,2.2334-1.4277l2.9395-5.0923C60.2632,15.4487,60.5088,18.5693,59.0767,21.0498z"/>
	</g>
</g>
</svg>

