<?xml version="1.0" encoding="utf-8"?>
<!-- Generator: Adobe Illustrator 18.1.1, SVG Export Plug-In . SVG Version: 6.00 Build 0)  -->
<svg version="1.2" baseProfile="tiny" xmlns="http://www.w3.org/2000/svg" xmlns:xlink="http://www.w3.org/1999/xlink" x="0px"
	 y="0px" width="128px" height="128px" viewBox="0 0 128 128" xml:space="preserve">
<g id="box">
	<rect fill="none" width="128" height="128"/>
</g>
<g id="Production">
	<g>
		<path fill="#ffffff" d="M67.9231,87.8215h-7.8462v8.8702H39.6902v6.7468h20.7536c0.6233,1.3418,1.9791,2.274,3.5562,2.274
			c1.5767,0,2.9329-0.9322,3.5562-2.274h20.7524v-6.7468H67.9231V87.8215z"/>
		<path fill="#ffffff" d="M102.0632,22.2875H25.9365c-2.2326,0-4.0525,1.8155-4.0525,4.0528v53.4953
			c0,2.2339,1.8164,4.052,4.0525,4.052h76.1267c2.2501,0,4.0528-1.8321,4.0528-4.052V26.3403
			C106.116,24.1169,104.31,22.2875,102.0632,22.2875z M98.0107,75.783H29.989V30.3925h68.0217V75.783z"/>
		<path fill="#ffffff" d="M69.9001,59.9034c0.3448,1.3739,2.1828,1.6844,2.9466,0.4642l2.6189-4.1929l6.1042,8.4378
			c0.5255,0.7283,1.5392,0.8873,2.2639,0.3632l2.2381-1.6218c0.7248-0.5244,0.8879-1.5374,0.3628-2.2622l-6.0635-8.386l4.7871-1.233
			c1.378-0.3549,1.6634-2.1996,0.4463-2.9501L67.0322,37.0737c-1.2333-0.7602-2.7767,0.3651-2.4226,1.7746L69.9001,59.9034z"/>
	</g>
</g>
</svg>
