<?xml version="1.0" encoding="utf-8"?>
<!-- Generator: Adobe Illustrator 18.1.1, SVG Export Plug-In . SVG Version: 6.00 Build 0)  -->
<svg version="1.2" baseProfile="tiny" xmlns="http://www.w3.org/2000/svg" xmlns:xlink="http://www.w3.org/1999/xlink" x="0px"
	 y="0px" width="128px" height="128px" viewBox="0 0 128 128" xml:space="preserve">
<g id="_x31_28px_boxes">
	<rect fill="none" width="128" height="128"/>
</g>
<g id="Production">
	<g>
		<path fill="#ffffff" d="M40.7313,117.9909c0.3128,0.922,1.178,1.5131,2.1515,1.5131h42.2026c0.9735,0,1.8387-0.5911,2.1514-1.5131
			l5.1753-15.2369c-11.1119,0-45.8055,0-56.8561,0L40.7313,117.9909z"/>
		<path fill="#ffffff" d="M100.2885,83.254H68.8671c0.4602-9.0827-0.4244-19.8077-3.4845-28.385
			c6.0011,2.2638,12.327,0.5901,14.6109-4.0696c2.4682-5.0344-0.7171-11.6627-7.114-14.7985
			c-1.8899-0.9265-3.8479-1.4442-5.7339-1.5852c1.7338-0.7702,3.4092-1.9217,4.88-3.4388
			c4.9588-5.1143,5.7154-12.4254,1.6896-16.3286c-4.0254-3.9026-11.3086-2.9206-16.2676,2.1942
			c-1.447,1.493-2.5335,3.1728-3.2503,4.9001c-0.2033-1.8675-0.7774-3.7943-1.755-5.6413
			c-3.3321-6.297-10.0509-9.2754-15.0069-6.6527c-4.9555,2.6223-6.2717,9.8523-2.9397,16.1494
			c0.9815,1.8546,2.2586,3.4187,3.6962,4.6396c-1.8713-0.4076-3.9238-0.4668-6.0271-0.0998
			c-7.0184,1.2229-11.9271,6.6928-10.9645,12.2165c0.9623,5.5233,7.4323,9.0092,14.4505,7.7862
			c2.122-0.37,4.0487-1.1297,5.6812-2.16c-0.9807,1.6642-1.6812,3.6153-1.9854,5.7494c-1.0055,7.0529,2.6792,13.4117,8.2301,14.2028
			c5.0411,0.7189,9.8866-3.4021,11.487-9.4478c0.031,0.1014,0.0548,0.1787,0.0548,0.1787c0.7477,2.446,1.6908,7.6949,1.6742,7.7181
			c0.9417,5.8729,1.0502,11.8723,0.7821,16.8723H27.6793c-1.8102,0-2.6329,1.6272-2.1189,2.9579c0,0,2.928,7.7921,4.0797,10.5026
			c0.3383,0.8755,1.1803,1.5395,2.1191,1.5395c6.3936,0,58.2133,0,64.4496,0c0.9387,0,1.7808-0.6652,2.119-1.5407
			c2.8165-7.3695,2.1528-5.6396,3.2593-8.5047c0.005,0.0074,0.01,0.0081,0.015,0.0083l0.8054-2.0674
			C102.9146,84.8372,102.0908,83.254,100.2885,83.254z M60.856,38.3449c-0.7079,4.966-5.3075,8.4176-10.2735,7.7097
			c-4.9658-0.708-8.4176-5.3073-7.7096-10.2733c0.7079-4.9654,5.3075-8.4176,10.2735-7.7096
			C58.1121,28.7796,61.5637,33.3795,60.856,38.3449z"/>
		<path fill="#ffffff" d="M105.3733,53.7213c-6.6655-0.4158-18.2298,0.3484-24.9426,4.2655
			c-4.1204,2.4043-6.9025,5.3965-8.0456,8.6532c-0.6777,1.9311-0.7667,3.913-0.2911,5.6808
			c3.6748-5.1316,11.7919-7.9736,18.1686-8.4502c-3.6312,5.2219-10.2733,10.9167-16.4586,11.6218
			c1.503,1.6733,4.0476,3.1373,7.56,3.1373c2.9106,0,6.0746-0.9847,9.4038-2.9272c8.8779-5.1809,15.6988-19.0304,15.9848-19.6173
			C107.2657,55.0317,106.5427,53.7927,105.3733,53.7213z"/>
	</g>
</g>
</svg>

