<?xml version="1.0" encoding="utf-8"?>
<!-- Generator: Adobe Illustrator 18.1.1, SVG Export Plug-In . SVG Version: 6.00 Build 0)  -->
<svg version="1.2" baseProfile="tiny" xmlns="http://www.w3.org/2000/svg" xmlns:xlink="http://www.w3.org/1999/xlink" x="0px"
	 y="0px" width="128px" height="128px" viewBox="0 0 128 128" xml:space="preserve">
<g id="_x31_28px_boxes">
	<rect fill="none" width="128" height="128"/>
</g>
<g id="Production">
	<path fill="#ffffff" d="M107.8203,81.3877c-1.3589-6.795-8.2527-8.188-11.8235-7.9759H79.0906V25.3476
		c0.0686-5.4763-4.648-10.176-10.3125-10.2693c-5.927-0.085-10.4685,4.7048-10.5491,10.011
		c-0.0002,0.0156-0.0002,0.031-0.0002,0.0467v22.822c-4.4671-1.7047-9.9107,0.1098-12.0521,4.3901
		c-4.8132-2.4964-11.0893-0.5257-13.2138,4.9702c-5.9673-2.6696-12.6931,1.8914-12.7605,8.8135
		c-0.0713,7.8994-0.1223,12.2402-0.2212,20.1416c-0.1985,16.5613,11.2395,27.5928,30.3662,26.5857
		c16.0598-0.8445,21.2681-5.4231,26.3047-9.8511c7.2568-6.3801,10.2471-6.8365,20.1147-9.0371
		C108.4924,91.3549,108.4028,84.2995,107.8203,81.3877z M51.3052,56.9494c0.0207-1.8215,1.6408-3.459,3.5302-3.459
		s3.4971,1.6209,3.4751,3.566l-0.0219,17.4411c-0.0208,1.8216-1.5804,3.4588-3.5303,3.4588c-1.95,0-3.4973-1.6209-3.4753-3.5555
		L51.3052,56.9494z M38.2891,60.9597c0.0319-2.1147,1.6276-3.5577,3.5278-3.5059c2.0698,0.0332,3.3425,1.7114,3.3122,3.565
		c-0.0004,0.0219,0,15.717,0,15.7278c-0.0246,2.1552-1.507,3.5764-3.395,3.5764c-0.022,0-0.0442-0.0003-0.0664-0.0005
		c-1.9138-0.0309-3.2041-1.394-3.3774-3.1941C38.2881,67.4025,38.2886,70.9634,38.2891,60.9597z M26.3689,66.1792
		c0.0176-1.8373,1.2952-3.4699,3.0688-3.4493c1.7149,0.0291,2.7273,1.5278,2.6934,3.5318
		c-0.0002,0.0088-0.0068,12.707-0.0068,12.707c-0.0044,2.0379-1.2886,3.6038-2.9886,3.6421
		c-1.8015,0.0427-2.7861-1.5215-2.7732-3.3162C26.3625,79.2817,26.3686,66.196,26.3689,66.1792z M95.4241,87.9524
		c-10.5862,2.362-14.5818,3.161-22.8435,10.4243c-4.6341,4.074-8.6363,7.5923-22.5569,8.3242
		c-13.3396,0.7036-23.0718-5.3502-23.8282-18.3997c3.5789,1.2353,7.8956,0.0857,10.3699-3.5864
		c3.8814,2.5493,9.6201,1.9678,12.7063-2.3354c5.7058,3.9832,15.0825,1.0095,15.1831-7.8177l-0.0595-49.3986
		c0.0407-1.9327,1.8054-3.9197,4.2097-3.9197c0.0237,0,0.0476,0.0002,0.0715,0.0005c2.5388,0.042,4.2764,2.1606,4.2478,4.0356
		c-0.0002,0.0156-0.0002,0.0313-0.0002,0.0469v51.1687c0,1.7029,1.3803,3.0832,3.0832,3.0832h20.0882
		c0.0722,0,0.1257-0.0012,0.1975-0.0063c0.1972-0.0105,4.8274-0.2402,5.4804,3.0254
		C101.9602,83.5298,102.5278,86.3674,95.4241,87.9524z"/>
</g>
</svg>
