<?xml version="1.0" encoding="utf-8"?>
<!-- Generator: Adobe Illustrator 18.1.1, SVG Export Plug-In . SVG Version: 6.00 Build 0)  -->
<svg version="1.2" baseProfile="tiny" xmlns="http://www.w3.org/2000/svg" xmlns:xlink="http://www.w3.org/1999/xlink" x="0px"
	 y="0px" width="128px" height="128px" viewBox="0 0 128 128" xml:space="preserve">
<g id="_x31_28px_boxes">
	<rect fill="none" width="128" height="128"/>
</g>
<g id="Production">
	<g>
		<path fill="#ffffff" d="M93.3366,84.0142c-0.6755-2.2837-2.7729-3.8506-5.1543-3.8506H73.6137l-4.5019-13.8552
			c-0.7195-2.2146-2.7832-3.7141-5.1118-3.7141c-2.3287,0-4.3924,1.4995-5.1119,3.7141l-4.5019,13.8552H39.8176
			c-2.3779,0-4.4734,1.5625-5.1516,3.8416c-0.6782,2.2792,0.2214,4.7331,2.2124,6.0337l11.4321,7.4667l-4.3347,12.5074
			c-0.7669,2.2121-0.0132,4.6665,1.863,6.0671c1.8765,1.4009,4.4434,1.4258,6.3467,0.0615l11.751-8.4218l11.7949,8.7998
			c1.8843,1.4059,4.4641,1.4237,6.3679,0.0444c1.9038-1.3797,2.6902-3.8364,1.9412-6.0649l-4.3799-13.0308l11.4456-7.4195
			C93.1045,88.7535,94.0119,86.2976,93.3366,84.0142z"/>
		<path fill="#ffffff" d="M35.7021,31.9532l19.4546,13.7104h5.7876c0,0,0-24.7378,0-35.25h-23.875
			c-1.3118,0-2.375,1.0632-2.375,2.375v17.2073C34.6943,30.7686,35.0703,31.5083,35.7021,31.9532z"/>
		<path fill="#ffffff" d="M92.1855,31.9536c0.6323-0.4448,1.0088-1.1845,1.0088-1.9577V12.7886c0-1.3118-1.0635-2.375-2.375-2.375
			h-23.625c0,10.5056,0,35.25,0,35.25h5.5188L92.1855,31.9536z"/>
		<path fill="#ffffff" d="M55.1943,55.4099c0,1.2427,1.1187,2.2537,2.3613,2.2537h12.8877c1.2427,0,2.251-1.011,2.251-2.2537
			v-5.9963c-6.3623,0-11.0566,0-17.5,0V55.4099z"/>
	</g>
</g>
</svg>
