<?xml version="1.0" encoding="utf-8"?>
<!-- Generator: Adobe Illustrator 18.1.1, SVG Export Plug-In . SVG Version: 6.00 Build 0)  -->
<svg version="1.2" baseProfile="tiny" xmlns="http://www.w3.org/2000/svg" xmlns:xlink="http://www.w3.org/1999/xlink" x="0px"
	 y="0px" width="128px" height="128px" viewBox="0 0 128 128" xml:space="preserve">
<g id="_x31_28px_boxes">
	<rect fill="none" width="128" height="128"/>
</g>
<g id="Production">
	<path fill="#ffffff" d="M91.7293,76.096c-3.5445,0-6.8169,1.1839-9.4458,3.1747L51.9476,64.1026
		c0.0001-0.0194,0.0014-0.0382,0.0014-0.0576c0-0.0492-0.0034-0.0975-0.0036-0.1465l30.3381-15.1692
		c2.6289,1.9909,5.9013,3.1747,9.4458,3.1747c8.6452,0,15.6784-7.0332,15.6784-15.6783c0-8.6452-7.0332-15.6784-15.6784-15.6784
		c-8.645,0-15.6782,7.0332-15.6782,15.6784c0,0.0193,0.0013,0.0384,0.0015,0.0578L45.6467,51.4864
		c-2.6169-1.9585-5.8633-3.1197-9.3759-3.1197c-8.6451,0-15.6785,7.0332-15.6785,15.6783c0,8.645,7.0334,15.6784,15.6785,15.6784
		c3.5446,0,6.8169-1.1839,9.4459-3.175l30.3359,15.1679c-0.0002,0.0196-0.0015,0.0387-0.0015,0.0578
		c0,8.6451,7.0332,15.6786,15.6782,15.6786c8.6452,0,15.6784-7.0335,15.6784-15.6786
		C107.4077,83.1291,100.3745,76.096,91.7293,76.096z"/>
</g>
</svg>
