<?xml version="1.0" encoding="utf-8"?>
<!-- Generator: Adobe Illustrator 18.1.1, SVG Export Plug-In . SVG Version: 6.00 Build 0)  -->
<svg version="1.2" baseProfile="tiny" xmlns="http://www.w3.org/2000/svg" xmlns:xlink="http://www.w3.org/1999/xlink" x="0px"
	 y="0px" width="128px" height="128px" viewBox="0 0 128 128" xml:space="preserve">
<g id="_x31_28px_boxes">
	<rect fill="none" width="128" height="128"/>
</g>
<g id="Production">
	<g>
		<path fill="#ffffff" d="M116.188,67.3765h-11.2654c-3.3051,9.9736-12.2195,3.324-16.7615,3.8259
			c-4.551,0.5024-5.6626,3.6899-9.6445,2.1753c-4.0486-1.54-1.675-7.1352-7.6584-8.5894c-6.6087-1.6062-7.391-6.0882-6.4278-9.9864
			c-7.4714-2.735-16.3191-5.9472-21.791-7.6425c-0.8489-0.2627-2.0308,0.0508-2.4954,1.0513
			c-1.0187,2.188-0.947,7.4365,6.0886,10.0532c6.7214,2.4986,11.1871,2.9708,11.1871,9.2695H20.6921
			c-5.9235,0.0072-5.9698,9.0408,0.0086,9.0347h26.2539c-0.2617,1.2261-0.4458,1.4546-0.5664,2.6895h-30.114
			c-5.9244,0.0046-5.977,9.0324,0.0071,9.0295h30.3151c0.1683,1.2332,0.3911,1.4583,0.658,2.6856H18.4736
			c-5.907,0.0029-5.9919,9.0082,0.0076,9.0021h31.5181c0.4773,1.2388,0.9873,1.4869,1.5295,2.7095l-21.0271,0.0154
			c-5.2717,0.0065-5.2757,7.9851,0.0069,7.9822c0,0,36.1018,0.0386,36.5134,0.012c9.4997-0.6004,16.0005-3.7855,19.7727-9.5674
			h29.3933V67.3765z"/>
		<path fill="#ffffff" d="M86.9939,63.3528h0.0046c7.8252-0.0013,12.9517-6.5432,12.3943-12.4487
			c-0.6037-6.516-5.8429-9.4428-11.1074-19.1981c-0.6216-1.1022-1.9741-1.026-2.5498-0.0396
			c-5.0164,9.3706-10.5438,12.8482-11.1362,19.2377C74.1734,55.4117,77.862,63.3504,86.9939,63.3528z"/>
		<path fill="#ffffff" d="M61.5288,38.4845h0.0031c5.1187-0.0007,8.4559-4.278,8.0926-8.1283
			c-0.3946-4.2603-3.8102-6.1539-7.2524-12.5352c-0.4058-0.7197-1.2889-0.6698-1.6648-0.0258
			c-3.2788,6.1249-6.8846,8.3893-7.2714,12.561C53.1565,33.3162,55.5767,38.4829,61.5288,38.4845z"/>
	</g>
</g>
</svg>
