<?xml version="1.0" encoding="utf-8"?>
<!-- Generator: Adobe Illustrator 18.1.1, SVG Export Plug-In . SVG Version: 6.00 Build 0)  -->
<svg version="1.2" baseProfile="tiny" xmlns="http://www.w3.org/2000/svg" xmlns:xlink="http://www.w3.org/1999/xlink" x="0px"
	 y="0px" width="64px" height="64px" viewBox="0 0 64 64" xml:space="preserve">

<g id="Production">
	<g>
		<path fill="#ffffff" d="M38.022,40c0.104-7.3091,0.7188-11.3267,4.6851-15.293L43,24.4141V11c0-3.3086-2.6914-6-6-6H27
			c-3.3086,0-6,2.6914-6,6v13.4141l0.293,0.293c3.958,3.9585,4.5742,7.9775,4.6836,15.293H9v12h46V40H38.022z M53,50H11v-8h16.9976
			l-0.0093-1.0093C27.9189,33.3555,27.543,28.3237,23,23.5918V11c0-2.2056,1.7944-4,4-4h10c2.2056,0,4,1.7944,4,4v12.5918
			c-4.5518,4.7402-4.9253,9.7695-4.9893,17.3999L36.0024,42H53V50z"/>
		<rect x="9" y="54" fill="#ffffff" width="46" height="2"/>
	</g>
</g>
</svg>
