<?xml version="1.0" encoding="utf-8"?>
<!-- Generator: Adobe Illustrator 19.1.0, SVG Export Plug-In . SVG Version: 6.00 Build 0)  -->
<svg version="1.2" baseProfile="tiny" xmlns="http://www.w3.org/2000/svg" xmlns:xlink="http://www.w3.org/1999/xlink" x="0px"
	 y="0px" width="64px" height="64px" viewBox="0 0 64 64" xml:space="preserve">
<g id="box">
	<rect fill="none" width="64" height="64"/>
</g>
<g id="Production">
	<g>
		<path fill="#ffffff" d="M44.0024,10.5854c-3.8647-3.46-8.8564-5.0474-14.0547-4.4717
			c-8.3389,0.9243-15.0059,7.6582-15.853,16.0127c-0.6001,5.9238,1.7412,11.7505,6.2637,15.5859
			C22.6729,39.6748,24,42.4307,24,45.2725c0,3.4606,0,5.7638,0,9.2939L29.7231,58h4.5537L40,54.5664c0-3.5327,0-5.8187,0-9.2949
			c0-2.8501,1.3164-5.5957,3.6113-7.5337C47.6714,34.3091,50,29.3022,50,24C50,18.8877,47.814,13.998,44.0024,10.5854z M38,53.4336
			L33.7231,56h-3.4463L26,53.4336V47h12V53.4336z M42.3213,36.2095c-2.6734,2.2574-4.2249,5.4489-4.3058,8.7905H25.9844
			c-0.0818-3.3326-1.6429-6.5321-4.332-8.813c-4.0205-3.4097-6.1016-8.5903-5.5674-13.8589
			c0.7524-7.4224,6.6753-13.4053,14.0835-14.2261c4.6216-0.5171,9.0649,0.8984,12.5,3.9736C46.0566,15.1094,48,19.4556,48,24
			C48,28.7119,45.9302,33.1621,42.3213,36.2095z"/>
		<path fill="#ffffff" d="M30.8458,16.9993c-3.3204-1.2306-5.7599-0.9868-6.7969-0.9471c0.431,1.4036,0.7823,2.4321,0.9805,3.9475
			c0.277,2.1172,0.0249,3.7814-0.2051,5.3c-0.3198,2.1108-0.6221,4.1045,0.6538,6.4531c1.3672,2.5176,4.2964,4.1235,7.2959,4.1235
			c0.0345,0,0.069-0.008,0.1036-0.0084c-0.0143,2.7932-0.5081,5.3415-0.9769,7.132H33.98c0.4819-1.9402,0.9409-4.554,0.9186-7.4128
			c1.937-0.5579,3.556-1.9395,4.4207-3.8171c1.1768-2.5547,0.8291-5.604-0.978-8.5869
			C36.2496,19.7313,33.3661,17.9334,30.8458,16.9993z M37.5029,30.9331c-0.5511,1.1968-1.5296,2.1064-2.7109,2.5745
			c-0.2138-2.2705-0.7745-4.6253-1.8975-6.8714l-1.7891,0.8945c1.0236,2.047,1.5218,4.227,1.6976,6.3391
			c-2.5266,0.018-4.6945-1.4641-5.5673-3.0715c-0.9556-1.7583-0.7368-3.2017-0.4341-5.1992
			c0.2939-1.9424,0.6519-4.3032-0.0913-7.5249c2.2715,0.2549,7.0244,1.3662,9.9199,6.145
			C38.083,26.6167,38.3931,29.001,37.5029,30.9331z"/>
	</g>
</g>
</svg>

