<?xml version="1.0" encoding="utf-8"?>
<!-- Generator: Adobe Illustrator 18.1.0, SVG Export Plug-In . SVG Version: 6.00 Build 0)  -->
<svg version="1.2" baseProfile="tiny" xmlns="http://www.w3.org/2000/svg" xmlns:xlink="http://www.w3.org/1999/xlink" x="0px"
	 y="0px" width="128px" height="128px" viewBox="0 0 128 128" xml:space="preserve">
<g id="_x31_28px_boxes">
	<rect fill="none" width="128" height="128"/>
</g>
<g id="Production">
	<g>
		<path fill="#ffffff" d="M75.6257,67.6458c0.18,0.0214,0.3567-0.0057,0.5174-0.0693c0.5588-0.2131,0.8264-0.8482,0.602-1.4
			c-0.0825-0.2024-0.2192-0.3661-0.3872-0.4807c-3.0259-2.4607-10.6431-9.528-10.6177-13.5289
			c0.0264-4.0302,7.8452-11.0707,10.8555-13.4435c0.3728-0.2935,0.5073-0.7975,0.3306-1.2376
			c-0.1761-0.4404-0.6211-0.712-1.0935-0.6672c-3.8518,0.3652-14.4441,0.7087-17.1668-2.0496
			c-2.7207-2.7561-2.2414-13.3454-1.8269-17.1931c0.0503-0.4695-0.2126-0.9165-0.6479-1.0998
			c-0.4351-0.1836-0.9385-0.0601-1.24,0.3034c-2.4444,2.9613-9.7387,10.7142-13.5901,10.6905
			c-3.8728-0.0251-11.0037-7.8079-13.4314-10.8213c-0.2962-0.3678-0.7808-0.4544-1.218-0.2766
			c-0.002,0.0007-0.0037,0.0014-0.0037,0.0014c-0.4409,0.1795-0.7241,0.5868-0.6748,1.0583
			c0.4016,3.8116,0.8076,14.3022-2.061,17.1339c-2.8139,2.7796-13.2513,2.2835-17.1878,1.8144
			c-0.4731-0.0561-0.9275,0.2049-1.1125,0.6437c-0.1851,0.4388-0.0579,0.9462,0.312,1.2457
			c2.9797,2.4109,10.7063,9.5501,10.6802,13.5806c-0.0259,4.0304-7.8435,11.0701-10.8533,13.4426
			c-0.3743,0.2951-0.5083,0.8018-0.3289,1.2429c0.1795,0.4412,0.6289,0.7106,1.1031,0.6604
			c3.8115-0.4018,14.3237-0.8168,17.1543,2.0509c2.8305,2.8671,2.2805,13.3753,1.8295,17.1821
			c-0.0563,0.4775,0.2125,0.9343,0.6578,1.1159c0.445,0.1818,0.957,0.0447,1.2509-0.3362
			c2.5661-3.3157,9.3328-10.6905,13.5664-10.6628c4.3465,0.0283,11.1805,7.8654,13.4422,10.8701
			c0.289,0.3844,0.8147,0.5659,1.26,0.3849c0.0037-0.0015,0.0071-0.0028,0.0112-0.0045c0.4405-0.1792,0.6973-0.6616,0.647-1.1358
			c-0.4021-3.8122-0.824-14.3421,2.0435-17.1731C61.2903,66.6814,71.6617,67.178,75.6257,67.6458z M54.7041,65.6843
			c-7.5527,7.4558-19.7202,7.3772-27.1765-0.1762c-7.4566-7.5528-7.3772-19.7203,0.1755-27.1761
			c7.5532-7.456,19.72-7.3772,27.1763,0.1756C62.3362,46.0615,62.2573,58.228,54.7041,65.6843z"/>
		<circle fill="#ffffff" cx="41.2219" cy="52.054" r="14.1973"/>
		<path fill="#ffffff" d="M100.6775,42.0352c-0.2881-3.8691-0.1306-5.9207,0.1018-8.877c0.1528-1.9443-1.5361-2.7227-2.916-1.3458
			c-2.0989,2.0946-3.5581,3.5453-6.6895,5.836c-5.2231,3.8211-13.0869,7.1285-12.3296,15.3133
			c0.7654,8.2715,11.3228,13.2218,18.1778,8.3907C103.7412,56.6173,101.158,48.489,100.6775,42.0352z"/>
		<path fill="#ffffff" d="M117.1453,72.2813c-0.2881-3.8692-0.1307-5.9209,0.1018-8.877c0.1528-1.9443-1.5362-2.7227-2.916-1.346
			c-2.0989,2.0947-3.5582,3.5453-6.6895,5.8361c-5.2231,3.8211-13.0872,7.1284-12.3296,15.3134
			c0.7654,8.2712,11.3228,13.2216,18.1777,8.3906C120.209,86.8633,117.6255,78.735,117.1453,72.2813z"/>
		<path fill="#ffffff" d="M84.0652,76.5825c0.1528-1.9443-1.5361-2.7226-2.9158-1.3459c-2.0991,2.0946-3.5583,3.5454-6.6897,5.8362
			c-5.2231,3.821-13.0869,7.1282-12.3296,15.3132c0.7654,8.2713,11.3228,13.2217,18.178,8.3907
			c6.7192-4.7352,4.1357-12.8634,3.6553-19.3172C83.6753,81.5903,83.8328,79.5387,84.0652,76.5825z"/>
	</g>
</g>
</svg>

