<?xml version="1.0" encoding="utf-8"?>
<!-- Generator: Adobe Illustrator 18.1.1, SVG Export Plug-In . SVG Version: 6.00 Build 0)  -->
<svg version="1.2" baseProfile="tiny" xmlns="http://www.w3.org/2000/svg" xmlns:xlink="http://www.w3.org/1999/xlink" x="0px"
	 y="0px" width="64px" height="64px" viewBox="0 0 64 64" xml:space="preserve">

<g id="Production">
	<g>
		
			<rect x="3.5879" y="30.5" transform="matrix(0.8799 -0.4751 0.4751 0.8799 -11.1242 18.9877)" fill="#ffffff" width="56.8243" height="1.9999"/>
		<circle fill="#ffffff" cx="17" cy="30" r="2"/>
		<circle fill="#ffffff" cx="25" cy="42" r="2"/>
		<circle fill="#ffffff" cx="34" cy="36" r="2"/>
		<circle fill="#ffffff" cx="43" cy="39" r="2"/>
		<circle fill="#ffffff" cx="54" cy="27" r="2"/>
		<circle fill="#ffffff" cx="46" cy="32" r="2"/>
		<circle fill="#ffffff" cx="51" cy="44" r="2"/>
		<circle fill="#ffffff" cx="55" cy="36" r="2"/>
		<circle fill="#ffffff" cx="42" cy="49" r="2"/>
		<circle fill="#ffffff" cx="34" cy="46" r="2"/>
		<circle fill="#ffffff" cx="26" cy="51" r="2"/>
		<circle fill="#ffffff" cx="18" cy="47" r="2"/>
		<circle fill="#ffffff" cx="11" cy="23" r="2"/>
		<circle fill="#ffffff" cx="26" cy="28" r="2"/>
		<circle fill="#ffffff" cx="21" cy="13" r="2"/>
		<circle fill="#ffffff" cx="31" cy="19" r="2"/>
		<circle fill="#ffffff" cx="29" cy="9" r="2"/>
		<circle fill="#ffffff" cx="9" cy="36" r="2"/>
		<circle fill="#ffffff" cx="20" cy="21" r="2"/>
		<circle fill="#ffffff" cx="40" cy="20" r="2"/>
		<circle fill="#ffffff" cx="47" cy="14" r="2"/>
		<circle fill="#ffffff" cx="38" cy="12" r="2"/>
	</g>
</g>
</svg>
