<?xml version="1.0" encoding="utf-8"?>
<!-- Generator: Adobe Illustrator 18.1.1, SVG Export Plug-In . SVG Version: 6.00 Build 0)  -->
<svg version="1.2" baseProfile="tiny" xmlns="http://www.w3.org/2000/svg" xmlns:xlink="http://www.w3.org/1999/xlink" x="0px"
	 y="0px" width="64px" height="64px" viewBox="0 0 64 64" xml:space="preserve">

<g id="Production">
	<g>
		<path fill="#ffffff" d="M49.9976,23.2002C50.1654,15.5931,43.9261,9,36,9c-5.3101,0-10.0933,2.9653-12.4722,7.6421
			c-4.5229-2.0084-9.8626,0.8517-10.4678,5.9458C8.8691,24.0405,6.01,28.0186,6.01,32.5c0,5.7896,4.7004,10.5,10.49,10.5H27v-2H16.5
			C11.813,41,8,37.187,8,32.5c0-3.5621,2.0831-7.0569,6.9893-8.3892c0.1171-4.8343,4.0108-8.0897,9.4683-4.6025
			C26.9178,13.5847,31.0826,11,36,11c6.0981,0,12.5952,4.7437,11.874,13.9438C53.5032,25.5337,56,29.1543,56,33
			c0,4.4111-3.5889,8-8,8H37v2h11c5.5142,0,10-4.4858,10-10C58,28.1875,54.6211,24.1304,49.9976,23.2002z"/>
		<polygon fill="#ffffff" points="33,55.4854 33,27 31,27 31,55.4854 24.6938,49.1792 23.2798,50.5933 32,59.3135 40.7202,50.5933 
			39.3062,49.1792 		"/>
	</g>
</g>
</svg>
