<?xml version="1.0" encoding="utf-8"?>
<!-- Generator: Adobe Illustrator 18.1.1, SVG Export Plug-In . SVG Version: 6.00 Build 0)  -->
<svg version="1.2" baseProfile="tiny" xmlns="http://www.w3.org/2000/svg" xmlns:xlink="http://www.w3.org/1999/xlink" x="0px"
	 y="0px" width="128px" height="128px" viewBox="0 0 128 128" xml:space="preserve">
<g id="_x31_28px_boxes">
	<rect fill="none" width="128" height="128"/>
</g>
<g id="Production">
	<g>
		<path fill="#ffffff" d="M38.3396,75.9271c-0.269,3.0684-0.5471,6.2415,0.4356,10.0396c1.2087,4.6716,3.6911,8.1706,7.3361,10.4219
			h35.6875c2.3785-1.469,4.2613-3.47,5.6187-5.981c16.937-5.957,23.7051-13.0828,23.918-21.0005
			c0.1753-6.4907-1.1529-7.562,1.4575-10.814c2.1572-2.6875-0.9634-5.6064-3.416-3.4165c-1.6206,1.4019-2.0044,1.8794-4.3692,2.4927
			c-3.3413,0.8662-5.6064,0-9.6142,1.7744c-0.9803,0.4341-1.9063,0.9727-2.763,1.5559c1.197-1.9563,2.8015-4.1057,4.9519-6.5197
			c1.1626-1.3058,0.2339-3.3799-1.5156-3.3799H31.8433c-1.7481,0-2.6795,2.0734-1.5157,3.3799
			C39.333,64.5907,38.8506,70.0973,38.3396,75.9271z M89.3848,70.4723c0.2734,0.1636,3.0434,1.2986,4.4648-1.1529
			c0.6155-1.0353,2.8023-3.8222,5.4937-4.279c2.7966-0.4729,5.1538,1.104,5.4345,3.5698
			c0.7195,6.3333-8.1777,10.938-15.0441,13.8587C90.1204,78.0432,89.1162,74.474,89.3848,70.4723z"/>
		<path fill="#ffffff" d="M44.0449,36.9196c1.2017,2.3135,3.4424,4.383,6.148,5.6782c1.5112,0.7165,2.0735-1.0952,1.602-1.823
			l-0.019-0.0286c-5.853-7.5737-2.2256-10.9008-1.4465-12.3579c1.2983-2.2761,3.2602-5.7153,2.2995-9.7849
			c-0.6728-2.9343-2.7676-5.7422-5.7471-7.7038c-1.3105-0.8599-2.3913,0.7966-1.8247,1.7524
			c1.4122,2.3803,2.5879,4.529,2.6729,6.7195C47.9192,24.5372,40.0955,29.1775,44.0449,36.9196z"/>
		<path fill="#ffffff" d="M60.7949,36.9196c1.2017,2.3135,3.4424,4.383,6.148,5.6782c1.5112,0.7165,2.0735-1.0952,1.602-1.823
			l-0.019-0.0286c-5.853-7.5737-2.2256-10.9008-1.4465-12.3579c1.2983-2.2761,3.2602-5.7153,2.2995-9.7849
			c-0.6728-2.9343-2.7676-5.7422-5.7471-7.7038c-1.3105-0.8599-2.3913,0.7966-1.8247,1.7524
			c1.4122,2.3803,2.5879,4.529,2.6729,6.7195C64.6692,24.5372,56.8455,29.1775,60.7949,36.9196z"/>
		<path fill="#ffffff" d="M77.6074,36.9196c1.2017,2.3135,3.4424,4.383,6.148,5.6782c1.5112,0.7165,2.0735-1.0952,1.602-1.823
			l-0.019-0.0286c-5.853-7.5737-2.2256-10.9008-1.4465-12.3579c1.2983-2.2761,3.2602-5.7153,2.2995-9.7849
			c-0.6728-2.9343-2.7676-5.7422-5.7471-7.7038c-1.3105-0.8599-2.3913,0.7966-1.8247,1.7524
			c1.4122,2.3803,2.5879,4.529,2.6729,6.7195C81.4817,24.5372,73.658,29.1775,77.6074,36.9196z"/>
		<path fill="#ffffff" d="M111.9346,101.2596H15.981c-0.864,0-1.4976,0.777-1.4976,1.6446c0.0816,2.8974,2.4014,5.6137,9.23,7.6348
			c4.5581,1.364,11.3298,2.52,21.4463,3.155v0.3987c0,1.7934,1.4541,3.2475,3.2475,3.2475h31.0953
			c1.7934,0,3.2475-1.4541,3.2475-3.2475v-0.3987c10.1155-0.6348,16.8882-1.791,21.4468-3.155
			c6.8286-2.0211,9.1484-4.7374,9.23-7.6348C113.4268,101.9586,112.728,101.2596,111.9346,101.2596z"/>
	</g>
</g>
</svg>

