<?xml version="1.0" encoding="utf-8"?>
<!-- Generator: Adobe Illustrator 18.1.1, SVG Export Plug-In . SVG Version: 6.00 Build 0)  -->
<svg version="1.2" baseProfile="tiny" xmlns="http://www.w3.org/2000/svg" xmlns:xlink="http://www.w3.org/1999/xlink" x="0px"
	 y="0px" width="64px" height="64px" viewBox="0 0 64 64" xml:space="preserve">

<g id="Production">
	<path fill="#ffffff" d="M45.9468,11.0061c-7.2158,0-14.8433,5.3062-15.4939,15.2035c-0.7214,0.193-1.3883,0.5157-1.9761,0.9442
		c-1.803-3.3121,1.5446-7.9671,2.3743-12.1597c1.0987-5.5478-2.2377-8.9858-7.4512-8.9858c-4.0732,0-8.1614,2.0869-10.4319,5.3164
		c-2.5381,3.6123-2.6299,9.145-0.228,13.7681c2.6169,5.0381,7.4771,8.0633,13.4717,8.4622
		c0.1914,0.7116,0.5089,1.3702,0.9299,1.9518c-2.1998,1.1994-4.6985,0.2598-7.7979-0.9432
		c-5.4686-2.1228-11.0219-2.8742-12.9028,3.0767c-1.7978,5.684,2.0994,15.3538,11.6123,15.3538
		c7.2122,0,14.8191-5.311,15.4758-15.1989c0.7261-0.1918,1.3976-0.5148,1.9889-0.9449c1.8044,3.3165-1.5396,7.9646-2.369,12.1558
		c-1.0935,5.5208,2.2092,8.9849,7.4512,8.9858c0.0005,0,0.0005,0,0.0005,0c9.4475,0,15.6237-9.4139,10.5994-19.0845
		c-2.618-5.0402-7.4168-8.0764-13.4146-8.4736c-0.1917-0.7072-0.5081-1.3617-0.9268-1.9401
		c2.1967-1.1986,4.6891-0.2645,7.7971,0.943c5.5225,2.1438,11.0261,2.8595,12.9028-3.0762
		C59.3544,20.6818,55.4669,11.0061,45.9468,11.0061z M14.5149,24.1709c-2.0669-3.9785-2.0308-8.6787,0.0898-11.6958
		c1.8774-2.6719,5.406-4.4668,8.7952-4.4668c3.9576,0,6.3423,2.2893,5.4893,6.5972c-0.8431,4.2549-4.8598,9.6191-1.8506,14.0253
		c-0.5691,0.8355-0.9287,1.8223-1.0142,2.8857C20.8947,31.0752,16.7496,28.4728,14.5149,24.1709z M18.0532,50.9939
		c-8.1287,0-11.1226-8.2695-9.7056-12.7508c1.5529-4.9079,6.5918-3.2442,10.2725-1.8149c3.2219,1.2504,6.8555,2.6804,10.0129,0.5348
		c0.8372,0.5697,1.826,0.9288,2.8916,1.0129C30.8032,46.4543,24.2563,50.9939,18.0532,50.9939z M32,36c-2.2056,0-4-1.7944-4-4
		s1.7944-4,4-4s4,1.7944,4,4S34.2056,36,32,36z M49.4251,39.8291c4.2989,8.2749-0.7912,16.1626-8.824,16.1626c0,0-0.0005,0-0.001,0
		c-3.9168,0-6.3494-2.2531-5.4893-6.5972c0.8418-4.2481,4.857-9.6152,1.8486-14.0227c0.5759-0.8445,0.937-1.8439,1.0177-2.9207
		C43.1125,32.8898,47.1885,35.5237,49.4251,39.8291z M55.6519,25.7573c-1.5248,4.8226-6.4013,3.318-10.272,1.8145
		c-3.2407-1.2584-6.8564-2.6774-10.0114-0.5337c-0.8392-0.5716-1.8314-0.9313-2.9004-1.0144
		c0.72-8.4808,7.2744-13.0176,13.4786-13.0176C54.0461,13.0061,57.0774,21.2507,55.6519,25.7573z"/>
</g>
</svg>
