<?xml version="1.0" encoding="utf-8"?>

<svg version="1.2" baseProfile="tiny" xmlns="http://www.w3.org/2000/svg" xmlns:xlink="http://www.w3.org/1999/xlink" x="0px"
	 y="0px" width="64px" height="64px" viewBox="0 0 64 64" xml:space="preserve">

<g id="Production">
	<g>
		<path fill="#ffffff" d="M15,55V9h16v18h18v9.558c0.6868,0.1906,1.3562,0.4208,2,0.7031V25.5859L32.4141,7H13v50h18.2611
			c-0.2823-0.6437-0.5126-1.3131-0.703-2H15z M33,25V10.4141L47.5859,25H33z"/>
		<path fill="#ffffff" d="M45,38c-7.168,0-13,5.8315-13,13c0,7.0797,5.7717,13,13,13c7.168,0,13-5.8315,13-13
			C58,43.7557,52.0657,38,45,38z M45,62c-6.1569,0-11-5.0533-11-11c0-6.0654,4.9346-11,11-11c5.9647,0,11,4.8607,11,11
			C56,57.0654,51.0654,62,45,62z"/>
		<path fill="#ffffff" d="M45,43.6641l-6.707,6.707l1.4141,1.4141L44,47.4922C44,62.2071,44,42.6134,44,58h2
			c0-15.3996,0,4.1888,0-10.5078c6.5434,6.5434,0.5822,0.5822,4.293,4.293c2.0771-2.0771-0.6631,0.6631,1.4141-1.4141
			C48.5397,47.2038,50.0596,48.7237,45,43.6641z"/>
	</g>
</g>
</svg>
