<?xml version="1.0" encoding="utf-8"?>
<!-- Generator: Adobe Illustrator 18.1.1, SVG Export Plug-In . SVG Version: 6.00 Build 0)  -->
<svg version="1.2" baseProfile="tiny" xmlns="http://www.w3.org/2000/svg" xmlns:xlink="http://www.w3.org/1999/xlink" x="0px"
	 y="0px" width="128px" height="128px" viewBox="0 0 128 128" xml:space="preserve">
<g id="_x31_28px_boxes">
	<rect fill="none" width="128" height="128"/>
</g>
<g id="Production">
	<g>
		<path fill="#ffffff" d="M53.9702,89.8153c-2.5473-1.6263-3.9385-4.389-3.951-7.1656c-6.8236,3.2266-10.2415-3.5069-13.1836-9.5376
			c-0.6721-1.371,0.749-2.3668,1.7017-0.6928c0.8031,0.7366,4.9143,9.8641,10.1816,7.2952c3.3401-1.6287,2.2764-4.4339,0.1294-8.777
			c-0.1131-0.229-7.0425-14.2566-7.8732-15.9301c-2.1276-3.0432-4.9025-2.5834-8.1801-0.7717l-6.4389,3.1395
			c-6.5112,3.1747-4.5482,14.7485-12.2524,18.5052c-2.7733,1.3521-5.6361,2.7392-8.2217,3.9883l16.641,33.5815l13.9479-6.8013
			c4.1141-2.0056,6.0924-0.1355,10.3463-0.1355c3.5474-0.0002,5.8167-1.3817,9.5165-3.1859
			C50.9316,100.5978,50.258,93.7533,53.9702,89.8153z"/>
		<path fill="#ffffff" d="M61.3051,56.8071c6.1318-2.9896,1.6151-12.2764-4.5258-9.2822l-12.8287,6.255
			c0.6599,1.3299,2.7225,5.4871,4.5847,9.2535L61.3051,56.8071z"/>
		<path fill="#ffffff" d="M53.8765,74.9953l17.6382-8.6003c6.1328-2.9901,1.6135-12.2748-4.5259-9.2822l-17.2286,8.4005
			C52.4324,70.9314,53.4237,72.7743,53.8765,74.9953z"/>
		<path fill="#ffffff" d="M60.3787,86.6324l14.8795-7.2547c6.1317-2.9895,1.6156-12.2767-4.5256-9.2822l-14.8795,7.2547
			C49.7456,80.3281,54.1825,89.6544,60.3787,86.6324z"/>
		<path fill="#ffffff" d="M73.2256,83.5948l-15.2884,7.4544c-6.1049,2.9767-1.6635,12.2997,4.5259,9.2822l15.2884-7.4543
			C83.8831,89.8874,79.367,80.6014,73.2256,83.5948z"/>
		<path fill="#ffffff" d="M120.8025,96.6195c-22.227-26.9096-9.8209-36.0429,0.897-48.1693
			c1.0972-1.241-0.1836-2.9856-1.3096-3.0176c-15.6539-0.4431-31.4412,2.573-35.7822-32.2254l-0.0025-0.0312
			c-0.0751-1.8187-2.2876-2.6624-3.6907-0.9183C67.5683,28.8494,60.1517,27.1826,45.9544,26.6103
			c-3.843-0.1549-4.8413,5.6398-0.7996,6.5908c18.8719,4.4399,27.662-2.1042,33.2138-5.4941
			c1.994,6.1507,5.9349,23.3459,26.5545,26.2283c-6.4798,10.0644-9.3964,21.7473,1.008,37.31
			c-12.2378,2.8541-19.8493,8.7149-26.7046,20.4985c-2.1582,3.7097,3.1127,6.8972,5.6775,3.532
			c4.7723-6.2616,8.9294-10.4329,13.5458-12.7824c7.0267-3.576,15.175-2.8001,20.5018-2.5515
			C121.3281,100.0525,121.997,97.8313,120.8025,96.6195z"/>
	</g>
</g>
</svg>

