<?xml version="1.0" encoding="utf-8"?>
<!-- Generator: Adobe Illustrator 18.1.1, SVG Export Plug-In . SVG Version: 6.00 Build 0)  -->
<svg version="1.2" baseProfile="tiny" xmlns="http://www.w3.org/2000/svg" xmlns:xlink="http://www.w3.org/1999/xlink" x="0px"
	 y="0px" width="128px" height="128px" viewBox="0 0 128 128" xml:space="preserve">
<g id="box">
	<rect fill="none" width="128" height="128"/>
</g>
<g id="Production">
	<g>
		<path fill="#ffffff" d="M91.0781,80.021c0.6897-2.1931,1.1079-4.4526,1.1079-6.5627c-0.1394-5.0298-2.054-9.2603-8.9961-10.8274
			c-3.5415,3.2384-8.4395,3.2326-11.9961-0.0098c-6.976,1.5601-8.8957,5.7927-9.0351,10.8372c0,2.1101,0.4182,4.3696,1.1199,6.5627
			H91.0781z"/>
		<path fill="#ffffff" d="M101.7883,24.3606H35.6895c-1.5124,0-2.7901,1.2262-2.7901,2.7903v5.7387h6.9712
			c4.5408,0.0074,8.1743,3.6851,8.1743,8.1915c-0.0073,4.5041-3.6509,8.1794-8.1743,8.1794h-6.9712v5.9785h6.9712
			c4.5283,0.0049,8.1743,3.6875,8.1743,8.1865c-0.0073,4.5042-3.6509,8.1768-8.1743,8.1768h-6.9712v5.9834h6.9712
			c4.5283,0,8.1743,3.6802,8.1743,8.1816c0,4.5066-3.646,8.1722-8.1743,8.1792h-6.9712v6.9126c0,1.5208,1.2423,2.7803,2.7901,2.7803
			h66.0988c1.5488,0,2.7925-1.2479,2.7925-2.7803V27.1509C104.5808,25.6204,103.3464,24.3606,101.7883,24.3606z M98.9983,98.0642
			H55.4248V29.9333h43.5735V98.0642z"/>
		<path fill="#ffffff" d="M77.2017,62.511c3.5608,0,7.0326-3.51,7.0544-8.2915c-0.0149-4.7097-3.301-8.2847-7.0544-8.292
			c-3.7535,0.0073-7.0445,3.5823-7.0545,8.292C70.1587,58.983,73.6448,62.511,77.2017,62.511z"/>
		<path fill="#ffffff" d="M27.29,67.3013h12.5806c2.147,0,3.8733-1.7388,3.8733-3.8758c0-2.1396-1.7263-3.8806-3.8733-3.8806H27.29
			c-2.1445,0.0073-3.8708,1.741-3.8708,3.8806C23.4192,65.5625,25.1455,67.3013,27.29,67.3013z"/>
		<path fill="#ffffff" d="M43.7439,85.7698c0-2.1372-1.7263-3.8804-3.8733-3.8804H27.29c-2.1445,0.0073-3.8708,1.7432-3.8708,3.8804
			c0,2.1323,1.7263,3.8708,3.8708,3.8808h12.5806C42.0176,89.6506,43.7439,87.9021,43.7439,85.7698z"/>
		<path fill="#ffffff" d="M27.29,44.9568h12.5806c2.147,0,3.8733-1.7385,3.8733-3.8757c0-2.1397-1.7263-3.8853-3.8733-3.8853H27.29
			c-2.1445,0.012-3.8708,1.7456-3.8708,3.8853C23.4192,43.2183,25.1455,44.9568,27.29,44.9568z"/>
	</g>
</g>
</svg>
