<?xml version="1.0" encoding="utf-8"?>

<svg version="1.2" baseProfile="tiny" xmlns="http://www.w3.org/2000/svg" xmlns:xlink="http://www.w3.org/1999/xlink" x="0px"
	 y="0px" width="64px" height="64px" viewBox="0 0 64 64" xml:space="preserve">

<g id="Production">
	<g>
		<path fill="#ffffff" d="M7.4999,24.8141c-0.0095-0.0095-0.0219-0.0219-0.0307-0.0307C7.4787,24.7929,7.4897,24.804,7.4999,24.8141
			z"/>
		<path fill="#ffffff" d="M8.8306,26.1447c-0.0192-0.0192-0.0387-0.0388-0.0574-0.0574
			C8.8073,26.1214,8.8269,26.1411,8.8306,26.1447z"/>
		<path fill="#ffffff" d="M7.3825,24.6967c0.0242,0.0242,0.0519,0.0519,0.0867,0.0867c-0.0283-0.0284-0.0545-0.0545-0.077-0.0771
			C7.3883,24.7025,7.3861,24.7003,7.3825,24.6967z"/>
		<path fill="#ffffff" d="M50.951,35.7365L17.5516,2.3384L1.288,18.6024c3.0102,3.0101,4.8885,4.8883,6.022,6.0218
			c-0.0504-0.0504-0.0143-0.0143,0.0725,0.0725c-0.0044-0.0044-0.0112-0.0112-0.0153-0.0153c0.008,0.008,0.017,0.017,0.0249,0.0249
			c0.0629,0.0629,0.121,0.121,0.1791,0.1791c-0.0256-0.0256-0.0485-0.0483-0.0714-0.0714c0.0308,0.0308,0.061,0.061,0.0995,0.0995
			c0.1835,0.1835,0.3497,0.3498,0.4872,0.4872c0.264,0.264,0.4466,0.4466,0.5658,0.5657c-0.0286-0.0285-0.0594-0.0594-0.0928-0.0928
			c0.0527,0.0527,0.1079,0.108,0.1646,0.1646c0.017,0.017,0.0312,0.0312,0.0439,0.0439c0.0016,0.0016,0.0034,0.0034,0.005,0.005
			c-0.0007-0.0007-0.0014-0.0014-0.0021-0.0021c0.0452,0.0452,0.0637,0.0637,0.0595,0.0595
			c2.7101,2.71,9.6608,9.6603,25.8558,25.8547l24.5232,8.2587L50.951,35.7365z M47.6832,51.1005l-10.2897-3.4653
			C26.4749,36.7171,18.639,28.8815,8.3594,18.6024l2.8288-2.829c0.0066,0.0067,28.4121,28.8361,29.8728,28.8361
			c2.2064,0,3.3478-2.6883,1.7676-4.2676c-0.0068-0.0068-28.0987-28.097-28.1053-28.1038l2.8282-2.8285
			c3.0694,3.0693,25.9128,25.9118,29.035,29.0339l3.4649,10.2886L47.6832,51.1005z"/>
	</g>
</g>
</svg>
