<?xml version="1.0" encoding="utf-8"?>

<svg version="1.2" baseProfile="tiny" xmlns="http://www.w3.org/2000/svg" xmlns:xlink="http://www.w3.org/1999/xlink" x="0px"
	 y="0px" width="128px" height="128px" viewBox="0 0 128 128" xml:space="preserve">
<g id="_x31_28px_boxes">
	<rect fill="none" width="128" height="128"/>
</g>
<g id="Production">
	<g>
		<path fill="#ffffff" d="M59.0659,84.1878h28.9285c0.0027,0,0.0051,0,0.0051,0c2.6599,0,2.6823-4.0411-0.0051-4.0411H59.0659
			C56.3342,80.128,56.4955,84.1878,59.0659,84.1878z"/>
		<path fill="#ffffff" d="M109.7791,52.6427H54.4226c-4.6001,0-8.3208,3.7234-8.3259,8.3131c0.0086,29.8779,0,32.0805,0,32.0805
			c0.0024,0.0233,0.0024,0.0411,0.0024,0.0589c0.0874,4.5332,3.7903,8.1569,8.3235,8.1569h55.3565
			c4.6023,0,8.3256-3.726,8.3256-8.3284V60.9634C118.0994,56.3661,114.3814,52.6427,109.7791,52.6427z M112.3726,92.9237
			c0,1.4401-1.1507,2.5984-2.5935,2.5984H54.4226c-1.3789-0.0052-2.4963-1.0685-2.5857-2.401
			c0-10.6282,0.0011-6.3728-0.0051-18.2328h60.5408V92.9237z M112.3726,64.6996H51.8318v-3.7285
			c0-1.4429,1.1631-2.6089,2.5908-2.6012h55.3565c1.435,0,2.5935,1.1583,2.5935,2.5935V64.6996z"/>
		<path fill="#ffffff" d="M83.8538,48.1273l-5.7891-15.9007c-1.5901-4.3431-6.3646-6.5494-10.6731-4.9713L15.3767,46.185
			c-4.3891,1.5916-6.5458,6.4622-4.9714,10.6655v0.0025l10.9372,30.0411c1.5469,4.2736,6.2734,6.5433,10.6624,4.9763l9.5842-3.4901
			L41.5818,75.447l-10.7734,3.9207c-2.4822,0.9281-3.9084-2.8713-1.3763-3.8002l12.1497-4.4204
			c-0.0001-0.378-0.0098-10.1214,0.01-10.4989c0.1638-6.9369,5.8398-12.5129,12.8257-12.5209H83.8538z M34.2678,65.5581
			l-6.0603,2.2038c-1.7749,0.6192-3.6643-0.2911-4.2641-1.9886l-1.4761-4.0565c-0.652-1.7283,0.2586-3.6554,1.9858-4.2744
			l6.0428-2.1985c1.8216-0.6547,3.667,0.322,4.2795,1.983l1.4761,4.0619C36.8666,62.9365,36.0485,64.8782,34.2678,65.5581z"/>
	</g>
</g>
</svg>
