<?xml version="1.0" encoding="utf-8"?>
<!-- Generator: Adobe Illustrator 17.1.0, SVG Export Plug-In . SVG Version: 6.00 Build 0)  -->
<!DOCTYPE svg [
	<!ENTITY ns_flows "http://ns.adobe.com/Flows/1.0/">
	<!ENTITY ns_extend "http://ns.adobe.com/Extensibility/1.0/">
	<!ENTITY ns_ai "http://ns.adobe.com/AdobeIllustrator/10.0/">
	<!ENTITY ns_graphs "http://ns.adobe.com/Graphs/1.0/">
]>
<svg version="1.2" baseProfile="tiny" xmlns:x="&ns_extend;" xmlns:i="&ns_ai;" xmlns:graph="&ns_graphs;"
	 xmlns="http://www.w3.org/2000/svg" xmlns:xlink="http://www.w3.org/1999/xlink" xmlns:a="http://ns.adobe.com/AdobeSVGViewerExtensions/3.0/"
	 x="0px" y="0px" width="128px" height="128px" viewBox="0 0 128 128" xml:space="preserve">
<g id="_x31_28px_boxes">
	<rect fill="none" width="128" height="128"/>
</g>
<g id="Production">
	<g>
		<path fill="#ffffff" d="M105.4906,111.3064c-6.0452-13.7583-7.5305-24.7981-8.7241-33.651
			c-1.9795-14.6831-3.4182-25.2691-22.8313-35.0191H54.0651c-19.4126,9.75-20.8516,20.336-22.8311,35.0191
			c-1.1936,8.8529-2.6787,19.8817-8.7241,33.64c-0.6321,1.437,0.3804,3.0909,2.0598,3.0909h78.8611
			C105.1261,114.3863,106.1173,112.7304,105.4906,111.3064z M48.5673,72.8996c-1.961-1.1325-1.3638-0.7876-2.7935-1.6133
			c-1.1047-0.6366-1.1035-2.2342,0-2.8706c5.8667-3.3872,7.6594-4.4217,10.8091-6.2412c1.1487-0.6622,2.5569,0.2607,2.5569,1.4361
			v12.482c0,1.2424-1.4307,2.0808-2.5479,1.4345l-2.5266-1.4555c-0.8152,3.1489-0.2727,6.5803,1.6875,9.3754l-5.3725,3.1147
			C47.2633,83.8178,46.7101,77.9718,48.5673,72.8996z M67.6398,96.2992c0,0.398,0.0595,3.6035-0.0938,3.9691
			c-0.4062,0.9735-1.5046,1.2745-2.3281,0.7978c-2.7744-1.604-9.291-5.367-10.8052-6.2401c-1.1164-0.6459-1.0869-2.2449,0-2.8711
			c8.4209-4.8627,10.8096-6.2412,10.8096-6.2412c1.0635-0.6144,2.4175,0.1099,2.4175,1.4356V89.99
			c3.5835-0.7854,6.3254-3.3623,7.6589-6.1319l5.3508,3.091C78.1202,91.87,73.3898,95.4422,67.6398,96.2992z M83.8898,80.1618
			c0,1.1962-1.417,2.0952-2.5594,1.4356c-1.0793-0.6233-7.2307-4.1752-10.8093-6.2407c-1.103-0.636-1.1037-2.2341,0-2.8711
			l2.6441-1.5268c-0.0208-0.021-0.0401-0.0431-0.0611-0.0639c-2.3696-2.3634-5.6374-3.592-9.0693-3.2804l-0.0122-6.211
			c5.6975-0.3378,11.0776,2.0752,14.6228,6.3921l2.6848-1.5503c1.1782-0.6822,2.5232,0.2963,2.5232,1.4351
			C83.8971,73.6858,83.8898,71.2049,83.8898,80.1618z"/>
		<path fill="#ffffff" d="M53.8214,38.1363H73.838c0.209-0.25,0.418-0.3291,0.6253-0.4967
			c4.8313-3.9615,10.3479-8.6014,11.509-12.7754c0.6831-2.7613-2.0071-5.7201-6.532-3.9549
			c-4.3686,1.7027-5.6755,10.1013-10.2241-0.4861c-1.6096-3.7384-4.155-7.0625-8.2224-6.7943
			c-7.4807,0.516-4.2085,7.5337-7.303,9.8257c-2.2439,1.6596-8.8669-3.8183-11.2009,0.6817H42.484
			c-0.2964,0.5-0.2939,1.3869-0.1455,2.0291C43.2843,30.2657,49.5377,35.1363,53.8214,38.1363z"/>
	</g>
</g>
</svg>

