<?xml version="1.0" encoding="utf-8"?>
<!-- Generator: Adobe Illustrator 18.1.0, SVG Export Plug-In . SVG Version: 6.00 Build 0)  -->
<svg version="1.2" baseProfile="tiny" xmlns="http://www.w3.org/2000/svg" xmlns:xlink="http://www.w3.org/1999/xlink" x="0px"
	 y="0px" width="64px" height="64px" viewBox="0 0 64 64" xml:space="preserve">
<g id="_x36_4px_boxes">
	<rect fill="none" width="64" height="64"/>
</g>
<g id="Production">
	<g>
		<path fill="#ffffff" d="M51.0443,18.1812C51.2866,1.5491,35.7254-3.0022,28.5339,4.4929
			C14.7603-2.2253,0.2858,15.2318,15.6001,28.2933c3.4213-4.0325-0.5068,0.5974,3.2313-3.8085
			c-5.9276-5.0527-5.566-10.1113-3.2507-13.161c2.4361-3.21,7.4058-4.7607,12.1932-1.5059l0.0112,0.0076l2.1813,1.4827
			l1.3525-2.2832c1.5075-2.5439,4.7787-3.6444,7.9544-2.6758c4.1196,1.2556,6.5718,5.2257,6.7791,10.7318
			c-1.2372-0.1194-2.5732-0.1577-4.0428-0.073l0.2943,4.9922c5.6722-0.3457,9.8166,1.3645,11.6855,4.8459
			c1.7413,3.245,1.2658,7.6287-1.1849,10.908c-2.7343,3.6562-7.2889,5.1211-12.4915,4.0176l-3.4583-0.7183L39.1194,58H25.8386
			l1.8361-14.6975c3.2848-1.8203,6.7151-4.3843,10.2071-7.6672l-3.4145-3.6499C15.6307,49.6882,5.4576,39.4697,10.073,28.3892
			c-1.3307-1.5509-2.3752-3.134-3.1526-4.7198c-2.1295,3.1964-3.261,7.6554-2.8295,11.6439
			c0.4346,4.0195,2.3494,7.2253,5.5378,9.2703c2.0912,1.3408,4.462,2.0007,7.0482,2.0007c1.7963,0,3.6981-0.314,5.6776-0.9437
			L20.1849,63h24.637l-2.1204-15.8684C60.8607,48.0149,66.4666,24.1003,51.0443,18.1812z"/>
		<circle fill="#ffffff" cx="32.5" cy="51.5" r="2.5"/>
	</g>
</g>
</svg>

