<?xml version="1.0" encoding="utf-8"?>
<!-- Generator: Adobe Illustrator 18.1.1, SVG Export Plug-In . SVG Version: 6.00 Build 0)  -->
<svg version="1.2" baseProfile="tiny" xmlns="http://www.w3.org/2000/svg" xmlns:xlink="http://www.w3.org/1999/xlink" x="0px"
	 y="0px" width="64px" height="64px" viewBox="0 0 64 64" xml:space="preserve">

<g id="Production">
	<g>
		<path fill="#ffffff" d="M32,4.0229v26.4946l24.269-11.0024C51.2884,8.6403,42.0046,3.8118,32,4.0229z M34,27.415V6.0181
			c8.292,0.3301,15.8159,5.1382,19.5947,12.5137L34,27.415z"/>
		<path fill="#ffffff" d="M45.7749,27.7739L29,35.418V16.9976c-13.2644,0.0323-20.9766,9.1729-20.9766,20.001
			c0,11.0278,8.9668,20,19.9883,20c11.0308,0,19.9854-8.9722,19.9854-20C47.9971,33.2912,47.1265,30.7234,45.7749,27.7739z
			 M28.0117,54.9985c-9.9189,0-17.9883-8.0747-17.9883-18c0-9.9014,7.229-17.4644,16.9766-17.9712v19.498l17.7627-8.0933
			c0.8193,2.0859,1.2344,4.2905,1.2344,6.5664C45.9971,46.9238,37.9399,54.9985,28.0117,54.9985z"/>
	</g>
</g>
</svg>
