<?xml version="1.0" encoding="utf-8"?>
<!-- Generator: Adobe Illustrator 18.1.1, SVG Export Plug-In . SVG Version: 6.00 Build 0)  -->
<svg version="1.2" baseProfile="tiny" xmlns="http://www.w3.org/2000/svg" xmlns:xlink="http://www.w3.org/1999/xlink" x="0px"
	 y="0px" width="128px" height="128px" viewBox="0 0 128 128" xml:space="preserve">
<g id="_x31_28px_boxes">
	<rect fill="none" width="128" height="128"/>
</g>
<g id="Production">
	<path fill="#ffffff" d="M31.187,31.8006l19.932-19.932c0.7811-0.781,2.0474-0.781,2.8284,0l19.932,19.932
		c0.7811,0.7811,0.7811,2.0474,0,2.8284l-19.932,19.932c-0.781,0.7811-2.0473,0.7811-2.8284,0L31.187,34.629
		C30.406,33.848,30.406,32.5817,31.187,31.8006z"/>
	<path fill="#ffffff" d="M90.9881,69.7026c-2.1483,0-4.2095,0.3924-6.1201,1.1106c-0.032-2.3884-0.1237-3.8484-0.1237-3.8962
		c-0.1114-1.7748-1.5377-3.1477-3.2595-3.1477h-59.124c-1.7214,0-3.1475,1.3729-3.26,3.1477c0,0.058-0.1341,2.1902-0.1341,5.5422
		c0.0084,6.2206,0.4127,16.5795,3.0362,25.7772c2.4777,8.9853,7.8521,18.0933,18.259,18.1736h23.3216
		c8.5726-0.0661,13.7277-6.2591,16.6645-13.4615c2.995,2.319,6.7144,3.6946,10.7401,3.6946c9.8812,0,17.9195-8.286,17.9195-18.4703
		C108.9076,77.988,100.8693,69.7026,90.9881,69.7026z M26.9192,71.6836h6.5037c0,6.0829,0.302,13.449,0.9448,17.6292
		c2.4927,16.2105,7.1309,19.1837,7.1309,19.1837C29.1299,109.0912,26.8588,83.1,26.9192,71.6836z M91.6612,95.774
		c-4.0602,0-7.3637-3.4057-7.3637-7.5907c0-4.185,3.3035-7.5899,7.3637-7.5899c4.0605,0,7.3644,3.4049,7.3644,7.5899
		C99.0256,92.3683,95.7217,95.774,91.6612,95.774z"/>
</g>
</svg>
