<?xml version="1.0" encoding="utf-8"?>
<!-- Generator: Adobe Illustrator 19.1.0, SVG Export Plug-In . SVG Version: 6.00 Build 0)  -->
<svg version="1.2" baseProfile="tiny" xmlns="http://www.w3.org/2000/svg" xmlns:xlink="http://www.w3.org/1999/xlink" x="0px"
	 y="0px" width="64px" height="64px" viewBox="0 0 64 64" xml:space="preserve">
<g id="box">
	<rect fill="none" width="64" height="64"/>
</g>
<g id="Production">
	<g>
		<path fill="#ffffff" d="M53.623,43.5664c-1.8755-3.8989-4.8772-5.4263-8.3518-7.0435c-2.8843-1.3428-5.8672-2.731-8.5352-5.6182
			c-2.4297-2.6299-4.2588-5.6357-5.8726-8.2881c-2.0493-3.3687-3.8193-6.2783-6.2822-7.6851
			c-2.1136-1.2077-4.7512-1.2151-7.1429-0.1385c-1.3307-2.3716-4.8025-7.5452-11.8204-12.2306L4.5076,4.2256
			c6.6636,4.4493,9.9771,9.4237,11.1931,11.5744c-0.0479,0.035-0.0992,0.0609-0.1467,0.097
			c-2.5864,1.9629-3.8442,5.5391-3.2832,9.333c1.5264,10.3184,10.355,22.1406,21.4697,28.75
			c5.8491,3.4783,13.1881,5.1809,19.3572,4.9976C55.0898,54.2695,55.8679,48.2329,53.623,43.5664z M51.7344,56.9951
			c-2.2998-0.0474-9.8997-0.5288-16.9714-4.7339C24.1292,45.938,15.6936,34.7017,14.2493,24.937
			c-0.4541-3.0718,0.5088-5.9253,2.5137-7.4473c1.9987-1.5165,4.6956-2.0383,6.8262-0.8218
			c2.0146,1.1509,3.6606,3.856,5.5659,6.9883c1.6626,2.7324,3.5464,5.8291,6.1123,8.606c2.9355,3.1768,6.2427,4.7158,9.1602,6.0742
			c3.2773,1.5254,5.8274,2.8428,7.3928,6.0972C54.1143,49.2012,52.395,55.103,51.7344,56.9951z"/>
		<circle fill="#ffffff" cx="21.502" cy="24.5" r="3.5"/>
		<circle fill="#ffffff" cx="27.502" cy="34.5" r="3.5"/>
		<circle fill="#ffffff" cx="35.502" cy="42.5" r="3.5"/>
		<circle fill="#ffffff" cx="45.502" cy="48.5" r="3.5"/>
	</g>
</g>
</svg>

