<?xml version="1.0" encoding="utf-8"?>
<!-- Generator: Adobe Illustrator 18.1.1, SVG Export Plug-In . SVG Version: 6.00 Build 0)  -->
<svg version="1.2" baseProfile="tiny" xmlns="http://www.w3.org/2000/svg" xmlns:xlink="http://www.w3.org/1999/xlink" x="0px"
	 y="0px" width="128px" height="128px" viewBox="0 0 128 128" xml:space="preserve">
<g id="_x31_28px_boxes">
	<rect fill="none" width="128" height="128"/>
</g>
<g id="Production">
	<g>
		<path fill="#ffffff" d="M49.7273,26.1613c0.8738,1.4219,2.7029,1.8131,4.072,0.9732c1.1914-0.7312,1.7105-2.2156,1.2344-3.5291
			l-2.7188-7.5252c-0.6997-1.9346-2.8538-2.9885-4.8393-2.2701c-2.199,0.7939-3.2111,3.4297-1.9363,5.5329L49.7273,26.1613z"/>
		<path fill="#ffffff" d="M30.1401,47.0579l7.9414,0.9765c1.6282,0.2008,3.1004-0.962,3.3003-2.5774
			c0.17-1.3866-0.667-2.718-1.9897-3.1655l-7.5791-2.5656c-1.9829-0.6711-4.1233,0.3935-4.792,2.3679
			C26.269,44.314,27.6958,46.7389,30.1401,47.0579z"/>
		<path fill="#ffffff" d="M90.8201,48.0352l7.9463-0.9768c2.4405-0.3191,3.8625-2.7537,3.1145-4.9631
			c-0.67-1.9777-2.8133-3.0383-4.792-2.3683l-7.5784,2.5652c-1.3235,0.4465-2.1604,1.7783-1.9902,3.1666
			C87.7191,47.0737,89.1923,48.2363,90.8201,48.0352z"/>
		<path fill="#ffffff" d="M75.103,27.135c1.3726,0.8429,3.2016,0.4435,4.0728-0.9733l4.1914-6.823
			c1.2755-2.1284,0.2406-4.7407-1.9392-5.5284c-1.9893-0.7189-4.1416,0.3386-4.8404,2.2703l-2.7194,7.5243
			C73.3923,24.9177,73.9116,26.4022,75.103,27.135z"/>
		<path fill="#ffffff" d="M48.0957,43.8131l-1.9141,15.8061h5.2662l1.8386-15.1773l0.0005-0.0076l0.0007-0.0075
			c0.4216-3.5645,1.7983-4.8055,2.9504-5.4881c1.7391-1.0307,4.4256-1.5316,8.2127-1.5316c3.7873,0,6.4739,0.5009,8.2134,1.5316
			c0.6787,0.4024,1.4362,0.9992,2.0297,2.1507c-1.4763-0.3994-3.3864-0.602-5.7167-0.602c-3.5354,0-6.1109,0.4637-7.6546,1.3782
			c-0.9927,0.5887-2.0571,1.6043-2.4204,4.6735l-1.584,13.0801h25.4021l-1.9143-15.8061
			c-1.1211-9.4799-8.033-11.6336-16.3552-11.6336C56.1287,32.1795,49.2166,34.3332,48.0957,43.8131z"/>
		<path fill="#ffffff" d="M105.4631,64.4205H22.5369c-3.1006,0-5.6233,2.5226-5.6233,5.6232v38.7495
			c0,3.1007,2.5227,5.6231,5.6233,5.6231h82.9262c3.1006,0,5.6233-2.5224,5.6233-5.6231V70.0437
			C111.0864,66.9431,108.5637,64.4205,105.4631,64.4205z M103.1133,103.8222H24.2727V75.0151h78.8406V103.8222z"/>
		<path fill="#ffffff" d="M44.208,99.211c1.7698-7.9962,1.8418-8.1199,1.9219-9.4012h0.2339
			c0.0796,1.2771,0.1491,1.3925,1.9218,9.4012h5.8172l5.4277-18.5686h-6.7002c-1.6037,9.0195-1.8056,9.7816-1.8699,11.8423h-0.156
			c-0.0549-1.5369-0.1013-1.498-2.2072-11.8423h-4.7007C41.792,90.9783,41.7439,90.947,41.689,92.4847h-0.1558
			c-0.0645-2.0585-0.2594-2.7835-1.8696-11.8423h-6.7007l5.4277,18.5686H44.208z"/>
		<rect x="62.6724" y="80.6424" fill="#ffffff" width="6.778" height="18.5686"/>
		<path fill="#ffffff" d="M81.1265,92.5108c0-0.7533-0.0262-1.7401-0.2078-2.9347l5.7136,9.6349h6.5965V80.6424h-6.441v6.2328
			c0,0.1559,0,0.3376,0,0.5194c0,0.8051,0.0262,1.792,0.2078,2.9606l-5.7654-9.7128H74.686V99.211h6.4405V92.5108z"/>
	</g>
</g>
</svg>
