<?xml version="1.0" encoding="utf-8"?>

<svg version="1.2" baseProfile="tiny" xmlns="http://www.w3.org/2000/svg" xmlns:xlink="http://www.w3.org/1999/xlink" x="0px"
	 y="0px" width="64px" height="64px" viewBox="0 0 64 64" xml:space="preserve">

<g id="Production">
	<path fill="#ffffff" d="M48.4695,36.9996c-3.531,0-6.6921,1.6024-8.8032,4.1149l-13.0699-6.7598
		c0.4805-1.87,0.5145-3.7072,0.0007-5.7088l13.0699-6.7607c2.1111,2.5122,5.272,4.1145,8.8025,4.1145
		c6.342,0,11.5013-5.1586,11.5013-11.4999S54.8115,2.9999,48.4695,2.9999c-7.4333,0-13.0688,7.0443-11.1028,14.4456l-13.0293,6.7397
		c-2.1113-2.5546-5.303-4.1855-8.8689-4.1855c-6.3409,0-11.4993,5.1581-11.4993,11.4989c0,6.3417,5.1583,11.5009,11.4993,11.5009
		c3.5652,0,6.7563-1.6306,8.8677-4.1848l13.0303,6.7395c-1.9685,7.4136,3.6826,14.4451,11.103,14.4451
		c6.342,0,11.5013-5.1591,11.5013-11.5009C59.9708,42.1577,54.8115,36.9996,48.4695,36.9996z M48.4695,7.9999
		c3.5851,0,6.5012,2.916,6.5012,6.4999c0,3.584-2.9161,6.4999-6.5012,6.4999c-3.3796,0-6.1891-2.6036-6.4714-5.95
		C41.6748,11.1976,44.7224,7.9999,48.4695,7.9999z M19.7048,36.4193c-4.1932,3.6151-10.7355,0.6335-10.7355-4.9207
		c0-5.5488,6.5402-8.537,10.7369-4.9179C22.718,29.1777,22.7219,33.8183,19.7048,36.4193z M48.4695,54.9994
		c-6.0771,0-8.786-7.618-4.1633-11.4852c4.2092-3.5223,10.6646-0.5223,10.6646,4.9843
		C54.9707,52.0829,52.0546,54.9994,48.4695,54.9994z"/>
</g>
</svg>
