<?xml version="1.0" encoding="utf-8"?>

<svg version="1.2" baseProfile="tiny" xmlns="http://www.w3.org/2000/svg" xmlns:xlink="http://www.w3.org/1999/xlink" x="0px"
	 y="0px" width="64px" height="64px" viewBox="0 0 64 64" xml:space="preserve">

<g id="Production">
	<g>
		<path fill="#ffffff" d="M32.0004,34.9996c7.9816,0,14.0004-7.2343,14.0004-16.828C46.0008,10.4893,39.5895,4,32.0004,4
			C24.4113,4,18,10.4893,18,18.1716C18,27.7654,24.0188,34.9996,32.0004,34.9996z M32.0004,8.8955c4.8419,0,9.09,4.328,9.09,9.2625
			c0,6.8105-3.9083,11.9463-9.09,11.9463c-5.1828,0-9.0901-5.1357-9.0901-11.9463C22.9103,13.2235,27.1584,8.8955,32.0004,8.8955z"
			/>
		<polygon fill="#ffffff" points="36.5167,47.2795 31.9462,40.0569 27.3757,47.2795 29.9247,49.6383 27.2615,60 36.631,60 
			33.9678,49.6383 		"/>
		<path fill="#ffffff" d="M19.0913,40.8154c-2.1133,0.428-5.9933,1.2198-7.1643,1.5088c-3.4845,0.8522-5.7374,3.521-6.1799,7.3013
			C5.5489,51.3279,5.2325,56.0154,5,60h4.9884c0.637-9.9617,0.3962-12.1577,3.1271-12.824
			c1.2002-0.2976,5.9836-1.2776,8.3459-1.7502l1.3916-0.2817l2.6026-7.436c-1.5723-0.6731-3.0225-1.5864-4.3282-2.7072
			L19.0913,40.8154z"/>
		<path fill="#ffffff" d="M58.2545,49.6235c-0.4424-3.7783-2.6954-6.4471-6.1741-7.2983c-1.1749-0.2899-5.0557-1.0818-7.1701-1.5098
			L42.8752,35c-1.3068,1.1206-2.756,2.0332-4.3292,2.7063l2.6025,7.4342l1.3916,0.2782c9.0825,1.8185,10.395,1.595,10.7679,4.7827
			c0.1797,1.5459,0.4775,5.814,0.7051,9.7986h4.9883C58.7691,56.0154,58.4527,51.3279,58.2545,49.6235z"/>
	</g>
</g>
</svg>
