<?xml version="1.0" encoding="utf-8"?>
<!-- Generator: Adobe Illustrator 18.1.1, SVG Export Plug-In . SVG Version: 6.00 Build 0)  -->
<svg version="1.2" baseProfile="tiny" xmlns="http://www.w3.org/2000/svg" xmlns:xlink="http://www.w3.org/1999/xlink" x="0px"
	 y="0px" width="128px" height="128px" viewBox="0 0 128 128" xml:space="preserve">
<g id="box">
	<rect fill="none" width="128" height="128"/>
</g>
<g id="Production">
	<g>
		<path fill="#ffffff" d="M74.6128,73.5217l6.4905,15.2915c3.6529-0.084,7.3701,1.1878,10.4685,3.2431L80.6816,66.3996
			c-0.9025-2.1251-3.3597-3.1218-5.487-2.2168l-9.7144,4.123c1.0164,2.7514,1.8528,5.173,2.721,7.9371L74.6128,73.5217z"/>
		<path fill="#ffffff" d="M38.3406,48.884c0.3409,1.0542,4.4999,11.3105,11.428,26.0908l-14.1043,5.9878
			c-2.126,0.9015-3.1204,3.3594-2.217,5.4868l5.2695,12.4141c1.7502-1.4609,3.7456-3.7013,6.9426-5.0633l-2.8733-6.769
			l10.6936-4.5393c1.0866,2.0823,2.51,4.6905,3.7461,6.6904c2.9358,4.7333,10.2768,1.6597,8.9077-3.7703
			c-0.7424-2.9509-2.4072-8.3916-5.0119-15.2561c-5.542-14.6151-10.1516-25.2217-10.8025-26.414
			c2.9477-8.5753,3.1489-18.4335-0.0564-28.2117c-0.7649-3.4763-4.4877-5.3709-7.7327-3.9944l-21.9614,9.3223
			c-3.2068,1.361-4.4559,5.2971-2.543,8.2659C23.9631,40.7092,32.7683,46.3354,38.3406,48.884z M43.6377,23.352
			c1.179,6.4675,0.5311,12.8107-1.3955,18.1228c-5.2175-2.2862-10.203-6.2116-14.0012-11.5869L43.6377,23.352z"/>
		<path fill="#ffffff" d="M102.3838,104.8991c-4.8328-1.1277-7.2876-3.3462-11.1233-6.9892
			c-3.1772-3.0191-7.9434-5.2432-12.707-3.9283c-4.1997,1.1592-7.4092,5.022-12.4419,6.0816
			c-4.2632,0.8972-10.3777-2.6126-14.6675-2.6126c-7.7835,0-8.6912,7.4668-15.5689,7.4668
			c-9.5314,0-12.5285,11.9976-12.5285,11.9976h87.5312C110.8779,116.915,111.1023,106.934,102.3838,104.8991z"/>
	</g>
</g>
</svg>
