<?xml version="1.0" encoding="utf-8"?>
<!-- Generator: Adobe Illustrator 18.1.1, SVG Export Plug-In . SVG Version: 6.00 Build 0)  -->
<svg version="1.2" baseProfile="tiny" xmlns="http://www.w3.org/2000/svg" xmlns:xlink="http://www.w3.org/1999/xlink" x="0px"
	 y="0px" width="128px" height="128px" viewBox="0 0 128 128" xml:space="preserve">
<g id="_x31_28px_boxes">
	<rect fill="none" width="128" height="128"/>
</g>
<g id="Production">
	<path fill="#ffffff" d="M101.2019,75.8744c-0.6914,3.2598-4.0518,7.8283-4.0518,7.8283c6.0586,6.2597,8.5105,9.9884,9.4993,11.9422
		c-5.7419-1.0237-14.9553-5.9114-20.0117-8.7865c8.6331-7.7285,12.9175-19.5387,10.7993-31.3114h0.0305
		c2.6983-2.5634,5.1668-5.0522,7.3584-7.4269c9.8238-10.6436,12.7315-17.3571,9.4278-21.7686
		c-0.9358-1.2491-2.7832-2.7381-6.272-2.7381c-4.2185,0-10.6563,2.2259-19.1599,6.6206c1.1706,0.9322,6.4917,6.1209,6.4917,6.1209
		c5.8989-2.8629,9.3506-3.8621,11.1887-4.1978c-2.2871,4.5728-8.3174,10.9277-11.9438,14.5299
		c-7.0899-14.6489-23.8812-22.4574-39.992-17.8059c-9.5356,2.7528-17.0981,9.3852-21.2121,17.9585
		c-3.6641-3.6065-9.7139-9.9236-12.0225-14.485c1.832,0.3266,5.2805,1.3053,11.175,4.1294c0,0,5.3484-5.2371,6.4788-6.1435
		c-8.4771-4.33-14.8989-6.5231-19.1138-6.5231c-3.5254,0-5.3818,1.5045-6.3181,2.767c-5.6323,7.5918,9.6814,22.3034,16.9214,29.1178
		h0.0364c-0.8596,4.9253-0.6428,10.1172,0.8371,15.2442c1.8025,6.2439,5.3001,11.755,10.1121,16.0104
		c-5.043,2.8972-14.2432,7.838-19.9824,8.8862c0.9807-1.9608,3.4201-5.7083,9.4692-12.0128c0,0-3.3093-4.3468-4.0517-7.8457
		c-6.837,6.8726-18.2181,18.9222-13.1687,25.6643c0.9357,1.2489,2.7834,2.7378,6.2722,2.7378
		c8.0129,0,22.3169-8.1167,29.2246-12.268c9.3974,4.5395,20.2807,4.5112,29.675-0.0625
		c6.8738,4.0867,21.1848,12.1262,29.2107,12.1262c3.5254,0,5.3814-1.5047,6.3181-2.7675
		C119.5393,94.5242,107.5652,82.2155,101.2019,75.8744z M80.5813,59.3219l-7.0283,6.8512l1.6584,9.6743
		c0.2447,1.4292-1.261,2.5097-2.5337,1.8404l-8.6875-4.5673l-8.6884,4.5675c-1.2779,0.6714-2.7784-0.416-2.5335-1.8409
		l1.6597-9.6742l-7.0283-6.851c-1.0345-1.0083-0.4629-2.7707,0.9675-2.9784l9.7131-1.4112l4.3443-8.8023
		c0.6389-1.2953,2.4919-1.2957,3.1316,0.0002l4.3435,8.8021l9.7136,1.4112C81.0422,56.551,81.616,58.3125,80.5813,59.3219z"/>
</g>
</svg>
