<?xml version="1.0" encoding="utf-8"?>
<!-- Generator: Adobe Illustrator 18.1.1, SVG Export Plug-In . SVG Version: 6.00 Build 0)  -->
<svg version="1.2" baseProfile="tiny" xmlns="http://www.w3.org/2000/svg" xmlns:xlink="http://www.w3.org/1999/xlink" x="0px"
	 y="0px" width="64px" height="64px" viewBox="0 0 64 64" xml:space="preserve">

<g id="Production">
	<g>
		<path fill="#ffffff" d="M52,11H12c-2.7568,0-5,2.2432-5,5v26c0,2.7568,2.2432,5,5,5h40c2.7568,0,5-2.2432,5-5V16
			C57,13.2432,54.7568,11,52,11z M55,42c0,1.6543-1.3457,3-3,3H12c-1.6543,0-3-1.3457-3-3V16c0-1.6543,1.3457-3,3-3h40
			c1.6543,0,3,1.3457,3,3V42z"/>
	</g>
	<g>
		<path fill="#ffffff" d="M51,41H13V17h38V41z M15,39h34V19H15V39z"/>
	</g>
	<rect x="31" y="21" fill="#ffffff" width="2" height="3"/>
	<g>
		<rect x="31" y="26" fill="#ffffff" width="2" height="4"/>
		<rect x="31" y="32" fill="#ffffff" width="2" height="5"/>
	</g>
	<g>
		<rect x="31" y="46" fill="#ffffff" width="2" height="8"/>
	</g>
	<g>
		<rect x="20" y="53" fill="#ffffff" width="24" height="2"/>
	</g>
	<polygon fill="#ffffff" points="46.561,37 36.7833,21 34.439,21 44.2167,37 	"/>
	<polygon fill="#ffffff" points="19.7833,37 29.561,21 27.2167,21 17.439,37 	"/>
</g>
</svg>
