<?xml version="1.0" encoding="utf-8"?>
<!-- Generator: Adobe Illustrator 18.1.1, SVG Export Plug-In . SVG Version: 6.00 Build 0)  -->
<svg version="1.2" baseProfile="tiny" xmlns="http://www.w3.org/2000/svg" xmlns:xlink="http://www.w3.org/1999/xlink" x="0px"
	 y="0px" width="64px" height="64px" viewBox="0 0 64 64" xml:space="preserve">

<g id="Production">
	<g>
		<path fill="#ffffff" d="M40.9985,52C40.6616,52,40.332,51.97,40,51.9494V54c0,0.5513-0.4487,1-1,1H10c-1.103,0-2-0.897-2-2
			V13.4634C8.5889,13.8047,9.272,14,10,14h29c0.5513,0,1,0.4487,1,1v5.0486C40.3318,20.0283,40.6621,20,40.9976,20
			c0.3369-0.0001,0.6689,0.0282,1.0024,0.0487V15c0-1.6543-1.3457-3-3-3H10c-1.103,0-2-0.897-2-2s0.897-2,2-2h30V6H10
			c-2.2056,0-4,1.7944-4,4l0.01,43c0,2.2056,1.7844,4,3.99,4h29c1.6543,0,3-1.3457,3-3v-2.0486
			C41.668,51.9717,41.3372,52,41.0015,52H40.9985z"/>
		<path fill="#ffffff" d="M63.4326,55.5859L52.2104,44.3636c1.8015-2.405,2.79-5.3051,2.7896-8.3632
			c0.0005-3.7402-1.4561-7.2559-4.1006-9.9004c-2.6445-2.644-6.1611-4.1006-9.9019-4.1001c-3.7388,0-7.2539,1.4565-9.8979,4.1006
			c-2.644,2.6445-4.1001,6.1602-4.0996,9.8989C27,43.7192,33.2798,50,40.9985,50h0.0029c3.0669,0,5.9749-0.9942,8.3833-2.8055
			l11.2197,11.2196L63.4326,55.5859z M41.001,48l-0.0024,1v-0.0001V48C34.3828,48,29,42.6167,29,35.9995
			c0-3.2046,1.248-6.2178,3.5142-8.4844C34.7808,25.2485,37.7944,24,40.9995,24c3.2061,0,6.2197,1.248,8.4858,3.5146
			C51.752,29.7808,53,32.7944,53,36.0005c0.0005,3.2051-1.2476,6.2183-3.5137,8.4849C47.2197,46.752,44.2065,48,41.001,48z"/>
	</g>
</g>
</svg>
