<?xml version="1.0" encoding="utf-8"?>

<svg version="1.2" baseProfile="tiny" xmlns="http://www.w3.org/2000/svg" xmlns:xlink="http://www.w3.org/1999/xlink" x="0px"
	 y="0px" width="32px" height="32px" viewBox="0 0 32 32" xml:space="preserve">
<g id="_x33_2px_boxes">
	<rect fill="none" width="32" height="32"/>
</g>
<g id="Production">
	<path fill="#ffffff" d="M29.3809,26.1128L22.8604,23.5l6.5205-2.603c1.3359-0.5362,1.9716-2.0215,1.4189-3.3174
		c-0.5537-1.2969-2.0879-1.9121-3.4228-1.377l-2.4776,1.0533c0.2432-2.5396-0.2969-5.8482-1.373-7.8658C20.4004,3.5239,14,1,14,1
		c1.9375,7.1528-6.4434,9.6919-6.6992,16.2656l-2.6787-1.0732c-1.3553-0.5385-2.8766,0.0951-3.4229,1.3769
		c-0.5527,1.2959,0.083,2.7813,1.419,3.3169L9.1406,23.5l-6.5224,2.6138c-1.336,0.5356-1.9717,2.021-1.419,3.3169
		c0.5477,1.2852,2.0709,1.9141,3.4229,1.3769L16,26.2485l11.377,4.5586c1.3349,0.5352,2.8691-0.08,3.4228-1.3769
		C31.3525,28.1343,30.7168,26.6489,29.3809,26.1128z M16.2666,22.3608c-3.79,0-7.2002-4.1792-1.9853-9.0278
		c-0.1983,0.7124-0.7999,3.4663,1.1689,3.6465c3.2783,0.2993,2.4424-7.2578,2.4424-7.2578
		C22.1877,15.9174,21.4907,22.3608,16.2666,22.3608z"/>
</g>
</svg>
