<?xml version="1.0" encoding="utf-8"?>

<svg version="1.2" baseProfile="tiny" xmlns="http://www.w3.org/2000/svg" xmlns:xlink="http://www.w3.org/1999/xlink" x="0px"
	 y="0px" width="64px" height="64px" viewBox="0 0 64 64" xml:space="preserve">

<g id="Production">
	<g>
		<circle fill="#ffffff" cx="16.5" cy="36.5" r="3.5"/>
		<circle fill="#ffffff" cx="47.5" cy="36.5" r="3.5"/>
		<rect x="26" y="35" fill="#ffffff" width="12" height="5"/>
		<path fill="#ffffff" d="M54.4196,23.6485l-3.5558-9.9151c-1.2734-3.9531-4.9424-6.6094-9.1294-6.6094H22.2656
			c-4.187,0-7.856,2.6562-9.1035,6.5322L9.5729,23.6681C7.1533,25.3266,4,28.4436,4,33.4375V53.5C4,55.4297,5.5703,57,7.5,57h9
			c1.9297,0,3.5-1.5703,3.5-3.5V49h24v4.5c0,1.9297,1.5703,3.5,3.5,3.5h9c1.9297,0,3.4775-1.5703,3.4775-3.5L60,33.4375
			C60,28.4224,56.8431,25.3016,54.4196,23.6485z M55,52h-6v-8H15v8H9V33.4375c0-3.7804,3.4667-5.814,4.6878-6.4136L15.4886,22
			h-0.0062l2.4126-6.7334C18.5005,13.3867,20.2568,12,22.2656,12h19.4688c2.0088,0,3.7651,1.3867,4.3965,3.3438L48.5171,22H19.738
			l-1.7922,5h32.3416c1.1723,0.5685,4.7351,2.6107,4.7351,6.4375L55,52z"/>
	</g>
</g>
</svg>
