<?xml version="1.0" encoding="utf-8"?>
<!-- Generator: Adobe Illustrator 18.1.1, SVG Export Plug-In . SVG Version: 6.00 Build 0)  -->
<svg version="1.2" baseProfile="tiny" xmlns="http://www.w3.org/2000/svg" xmlns:xlink="http://www.w3.org/1999/xlink" x="0px"
	 y="0px" width="128px" height="128px" viewBox="0 0 128 128" xml:space="preserve">
<g id="_x31_28px_boxes" display="none">
	<rect display="inline" fill="none" width="128" height="128"/>
</g>
<g id="Production">
	<g>
		<path fill="#ffffff" d="M125.9446,68.734L81.563,59.8119c-2.5431-6.5525-7.7642-11.4211-14.0586-12.7568V31.0356
			c0-4.6366-7.0071-4.626-7.0071,0v16.0195c-6.294,1.3359-11.515,6.2046-14.0581,12.7568L2.0575,68.734
			c-3.1737,0.6504-2.4806,5.3918,0.7428,5.0979l7.5605-0.6887c-1.8277,1.5401-2.7155,4.0449-2.0752,6.5122
			c0.8889,3.4258,4.3877,5.4817,7.8138,4.5926c3.4267-0.889,5.4827-4.3863,4.5939-7.8116
			c-0.4528-1.7443-1.5828-3.1325-3.0349-3.9585l8.9226-0.8129c-1.9243,1.528-2.8772,4.0981-2.2203,6.6298
			c0.8893,3.4258,4.3873,5.4812,7.8139,4.5926c3.4261-0.8894,5.4832-4.3868,4.5939-7.812c-0.4694-1.8084-1.666-3.2344-3.1952-4.0477
			l11.2024-1.0212c0.1105,11.0418,2.0015,19.9475,16.4655,20.9268c-0.3483,0.5239-0.5525,1.1518-0.5525,1.8269v4.3679
			c0,4.3761,6.6247,4.3761,6.6247,0v-4.3679c0-0.6751-0.2041-1.303-0.5524-1.8269c14.4645-0.9795,16.3555-9.885,16.465-20.9268
			l11.2028,1.0212c-1.5292,0.8133-2.7262,2.2393-3.1951,4.0477c-0.8893,3.4252,1.1673,6.9226,4.5939,7.812
			c3.4261,0.8886,6.9245-1.1668,7.8139-4.5926c0.6568-2.5317-0.296-5.1018-2.2208-6.6298l8.9226,0.8129
			c-1.4516,0.826-2.5817,2.2142-3.0344,3.9585c-0.8895,3.4253,1.1677,6.9226,4.5939,7.8116
			c3.4261,0.8891,6.9249-1.1668,7.8138-4.5926c0.6403-2.4673-0.2476-4.9721-2.0752-6.5122l7.5605,0.6887
			C128.4317,74.1265,129.108,69.3822,125.9446,68.734z M73.0965,60.5768H54.9057C58.5823,51.7447,69.4185,51.7414,73.0965,60.5768z"
			/>
		<path fill="#ffffff" d="M86.531,89.4484c-1.1278,0-2.1251,0.5676-2.7234,1.4314c-0.5982-0.8638-1.5951-1.4314-2.7233-1.4314
			c-1.8266,0-3.3123,1.4856-3.3123,3.3118v4.3679c0,3.2304,4.1875,4.5476,6.0356,1.8801c1.8481,2.6675,6.0357,1.3504,6.0357-1.8801
			v-4.3679C89.8433,90.934,88.3575,89.4484,86.531,89.4484z"/>
		<path fill="#ffffff" d="M44.1941,90.8798c-1.8482-2.668-6.0352-1.3506-6.0352,1.8804v4.3679c0,3.2304,4.1869,4.5475,6.0352,1.8801
			c1.848,2.6675,6.0361,1.3514,6.0361-1.8801v-4.3679C50.2302,89.5293,46.0413,88.2126,44.1941,90.8798z"/>
	</g>
</g>
</svg>
