<?xml version="1.0" encoding="utf-8"?>
<!-- Generator: Adobe Illustrator 17.1.0, SVG Export Plug-In . SVG Version: 6.00 Build 0)  -->
<!DOCTYPE svg [
	<!ENTITY ns_flows "http://ns.adobe.com/Flows/1.0/">
	<!ENTITY ns_extend "http://ns.adobe.com/Extensibility/1.0/">
	<!ENTITY ns_ai "http://ns.adobe.com/AdobeIllustrator/10.0/">
	<!ENTITY ns_graphs "http://ns.adobe.com/Graphs/1.0/">
]>
<svg version="1.2" baseProfile="tiny" xmlns:x="&ns_extend;" xmlns:i="&ns_ai;" xmlns:graph="&ns_graphs;"
	 xmlns="http://www.w3.org/2000/svg" xmlns:xlink="http://www.w3.org/1999/xlink" xmlns:a="http://ns.adobe.com/AdobeSVGViewerExtensions/3.0/"
	 x="0px" y="0px" width="128px" height="128px" viewBox="0 0 128 128" xml:space="preserve">
<g id="_x31_28px_boxes">
	<rect fill="none" width="128" height="128"/>
</g>
<g id="Production">
	<g>
		<path fill="#ffffff" d="M56.3574,36.761c7.1423,6.8065,10.2413,18.5897,10.3867,22.7699
			c0.1027,2.9627,3.4905,3.5764,4.1028,0.6768c4.5713-21.6468,4.4648-26.8886,4.4231-30.3136
			c-0.1914-15.6488-7.887-19.0522-13.9414-19.0522c-6.4617,0-12.4257,4.9076-12.4257,11.8111
			C48.9029,29.0732,53.1679,33.721,56.3574,36.761z"/>
		<path fill="#ffffff" d="M36.5407,50.1955c2.5814-0.0938,4.9254-1.2915,7.507-2.0187c3.9703-1.1181,8.7753-0.9904,12.4372,1.6446
			c1.5133,1.1067,3.2202-0.9564,2.3774-2.8764c-0.1238-0.2829-1.2939-2.8443-4.1621-5.7163
			c-0.0237-0.0237-0.0474-0.0464-0.0719-0.0683c-13.3478-12.0203-26.2704-8.0445-26.1843,1.4458
			c0.0004,0.0219,0.0011,0.0439,0.0021,0.0663C28.6148,47.6836,32.1972,50.3523,36.5407,50.1955z"/>
		<path fill="#ffffff" d="M77.221,51.4189c0.589,0.3591,1.3273,0.3173,1.7819-0.3923c1.5215-2.3756,3.0299-4.8371,5.3674-6.1214
			c3.5933-1.9735,8.8057-0.8167,12.822-1.7263c6.479-1.4677,7.9017-9.2557,4.385-13.8598
			c-4.0158-5.2613-15.4942-5.0062-22.0946,9.8278c-0.982,2.2073-1.749,4.3445-2.4813,6.6991
			C76.5642,47.2517,75.5324,50.3889,77.221,51.4189z"/>
		<path fill="#ffffff" d="M108.812,111.8706L81.7262,63.3643c-1.1149-1.9963-3.8014-2.4347-5.4939-0.8978l-8.0904,7.3505
			L56.9893,57.2538c-1.6014-1.8038-4.4909-1.5177-5.7152,0.5457l-32.0393,53.99c-1.4037,2.3655,0.3041,5.3686,3.0568,5.3686h83.4167
			C108.4183,117.1581,110.1333,114.2375,108.812,111.8706z M28.5344,110.049l26.3695-44.4356l7.9757,8.9845l-8.3369,7.5744
			l6.647,3.5664l16.5109-15.0011l21.9516,39.3114H28.5344z"/>
	</g>
</g>
</svg>

