<?xml version="1.0" encoding="utf-8"?>
<!-- Generator: Adobe Illustrator 19.1.0, SVG Export Plug-In . SVG Version: 6.00 Build 0)  -->
<svg version="1.2" baseProfile="tiny" xmlns="http://www.w3.org/2000/svg" xmlns:xlink="http://www.w3.org/1999/xlink" x="0px"
	 y="0px" width="64px" height="64px" viewBox="0 0 64 64" xml:space="preserve">
<g id="box">
	<rect fill="none" width="64" height="64"/>
</g>
<g id="Production">
	<path fill="#ffffff" d="M34,4c-2.1533,0-3.9766,1.376-4.679,3.2889C28.4355,6.4966,27.2787,6,25.999,6
		C23.2427,6.0005,21,8.2437,21,11v24.8921L18.5225,26c-0.5903-2.3545-2.8433-3.8452-5.2407-3.4668
		c-2.46,0.3882-4.1724,2.6274-3.9023,5.0991c0.4507,4.1006,1.1523,10.2754,1.9365,16.4043C13.166,58.502,27.0444,60,32.9253,60
		C50.4746,60,54,51.8379,54,38.5664V18.5c0-2.4814-2.0186-4.5-4.5-4.5c-0.9247,0-1.7843,0.2816-2.5,0.7618V11c0-2.7568-2.2432-5-5-5
		c-1.2792,0-2.4354,0.4971-3.3206,1.2902C37.9774,5.3767,36.1537,4,34,4z M37,9v21.3342c1,0.1373,1.3614,0.2105,2,0.3317V11
		c0-1.6543,1.3457-3,3-3s3,1.3457,3,3v21.3552c0.7377,0.2931,1.404,0.603,2,0.9224V18.5c0-1.3784,1.1216-2.5,2.5-2.5
		s2.5,1.1216,2.5,2.5v20.0664C52,50.9146,48.8789,58,32.9253,58c-6.6475,0-18.0366-1.792-19.626-14.2173
		c-0.7817-6.1143-1.4819-12.2764-1.9316-16.3691c-0.1528-1.4038,0.8223-2.6831,2.2256-2.9048
		c1.3677-0.2158,2.6523,0.6343,2.9888,1.9775l3.0137,12.0317c0.2153,0.8584,1.0093,1.4033,1.8877,1.2949
		C22.3623,39.7046,23,38.9829,23,38.0977V11c0-1.6538,1.3457-2.9995,2.9995-3C27.6538,8,29,9.3428,29,10.9932v19.2541
		c0.6117-0.0993,1.2796-0.1699,2-0.2084V9c0-1.6543,1.3457-3,3-3S37,7.3457,37,9z"/>
</g>
</svg>

