<?xml version="1.0" encoding="utf-8"?>
<!-- Generator: Adobe Illustrator 18.1.1, SVG Export Plug-In . SVG Version: 6.00 Build 0)  -->
<svg version="1.2" baseProfile="tiny" xmlns="http://www.w3.org/2000/svg" xmlns:xlink="http://www.w3.org/1999/xlink" x="0px"
	 y="0px" width="128px" height="128px" viewBox="0 0 128 128" xml:space="preserve">
<g id="box">
	<rect fill="none" width="128" height="128"/>
</g>
<g id="Production">
	<g>
		<path fill="#ffffff" d="M102.5859,37.6505c-4.5263,1.5264-7.0883-1.1606-12.1479-5.2082
			c-6.1538-4.9231-12.9812-5.7773-20.0298-1.8101c-1.0019,0.5647-10.1758,6.1256-20.6326,13.2361
			c-2.4189,1.6485-2.9282,4.5507-1.5915,6.7729c0.0102,0.0169,0.0207,0.0335,0.031,0.0501
			c1.7917,2.9021,5.3584,3.0114,8.5178,1.5149c8.9336-4.2202,11.7932-5.9063,14.7937-7.3828
			c2.835-1.3929,4.5195-0.1581,6.6555,2.1093c2.1914,2.3323,21.0782,21.1322,23.3599,23.4024l18.8972-4.8286l0.0676-34.3418
			C120.5068,31.1647,107.3005,36.0665,102.5859,37.6505z"/>
		<path fill="#ffffff" d="M73.6621,48.6383c0,0-8.1094,4.219-15.0683,7.5066c-3.9405,1.8616-8.313,1.9707-11.7078-0.5657
			c-4.9595-3.7063-5.2891-11.4181,0.4402-15.3132c3.2627-2.2188,7.5407-5.1277,15.2297-9.9273
			c-7.1228-3.25-14.449-2.7439-22.0486,2.8553c-4.4074,3.2466-8.7656,6.3466-14.8022,4.5691
			C15.7778,34.84,7.6809,31.4718,7.6809,31.4718L7.4932,65.5065l13.5808,4.0998c0.8872-2.0335,1.9482-2.8912,4.175-5.1179
			c1.8264-1.8267,4.2549-2.8325,6.8379-2.8325s5.0115,1.0058,6.8377,2.8323c1.2585,1.2585,2.1135,2.8181,2.5293,4.4829
			c1.6897,0.416,3.2385,1.2851,4.499,2.5459c1.2573,1.2563,2.1145,2.8166,2.531,4.4841c1.6902,0.4163,3.2397,1.2859,4.5012,2.5476
			c1.2586,1.2586,2.1133,2.8181,2.5291,4.4827c1.6899,0.4162,3.2392,1.2856,4.5,2.5468c2.5151,2.5138,3.3711,6.0859,2.5058,9.3404
			l1.9295,1.9294c1.6364,1.636,4.2878,1.6355,5.924-0.0002c1.5349-1.5348,1.8409-4.123-0.3139-6.2775l-2.1795-2.1793
			c-1.0857-1.0851,0.5559-2.7299,1.6426-1.6431c2.771,2.7708,3.5408,3.5299,3.6502,3.6395c2.4677,2.4676,4.9152,2.2386,6.54,0.6142
			c1.5527-1.5529,1.8015-4.1607-0.2505-6.2127l-3.9905-3.9904c-1.0854-1.0849,0.5562-2.7302,1.6426-1.6426
			c4.7371,4.737,5.4529,5.4415,5.5615,5.5503c2.3504,2.3502,4.855,1.9692,6.3748,0.4497c1.6357-1.6355,1.6352-4.2871,0.0014-5.9231
			c-0.1931-0.1934-3.5229-3.5437-5.9882-6.0259c-1.0816-1.089,0.5556-2.7301,1.6425-1.6431
			c6.4844,6.4844,7.4498,7.4383,7.7579,7.7464c1.6367,1.636,4.2885,1.636,5.9245,0c1.9595-1.9592,1.5611-4.4139-0.2893-6.2551
			C88.1064,63.1115,73.6621,48.6383,73.6621,48.6383z"/>
		<path fill="#ffffff" d="M50.9807,87.5831c0.9754-2.1466,0.396-4.4261-1.0342-5.9029c-1.6579-1.7121-4.0808-1.9997-5.9965-1.1273
			c2.0502-4.5094-2.6102-9.0372-7.0298-7.0301c0.8899-1.9585,0.5349-4.3435-1.076-5.9543c-2.0752-2.0752-5.4394-2.0753-7.5146,0
			c-1.8906,1.8902-2.4805,2.3388-3.0254,3.3149c-2.4888,4.4505,2.1631,9.5491,6.8325,7.4229
			c-2.0388,4.4908,2.6123,9.0371,7.0298,7.03c-2.0449,4.5064,2.6033,9.0458,7.0303,7.03c-1.6038,3.5306,0.9885,7.5108,4.8342,7.5108
			c2.6992,0,3.8928-1.6918,5.9036-3.7031C61.0657,92.0441,56.3735,85.134,50.9807,87.5831z"/>
	</g>
</g>
</svg>
