<?xml version="1.0" encoding="utf-8"?>
<!-- Generator: Adobe Illustrator 19.1.0, SVG Export Plug-In . SVG Version: 6.00 Build 0)  -->
<svg version="1.2" baseProfile="tiny" xmlns="http://www.w3.org/2000/svg" xmlns:xlink="http://www.w3.org/1999/xlink" x="0px"
	 y="0px" width="64px" height="64px" viewBox="0 0 64 64" xml:space="preserve">
<g id="box">
	<rect fill="none" width="64" height="64"/>
</g>
<g id="Production">
	<g>
		<circle fill="#ffffff" cx="28.5" cy="33.5" r="1.5"/>
		<path fill="#ffffff" d="M8.5355,45.095c0.0255-0.0151,0.0492-0.0321,0.075-0.0471C8.5531,45.0812,8.5326,45.0945,8.5355,45.095z"
			/>
		<path fill="#ffffff" d="M59.3062,18.8931c-2.9829-0.6093-8.7809-2.157-15.7495,1.2466L29.271,27.2103
			c-3.3752-2.3627-7.6467-3.2057-11.8959-4.3036c1.6488-0.6381,2.9492-1.7863,3.576-3.3544
			c1.4185-3.5513-1.1411-7.9233-5.7051-9.7466c-4.4822-1.7897-9.3909-0.52-10.8501,3.1338
			c-1.1812,2.9568,0.3999,6.4775,3.5962,8.626c1,0.6722,5.3529,2.7463,9.4087,5.7817c3.0229,2.2623,3.2399,4.0839,4.146,6.1399
			c-0.9099,2.0629-1.127,3.8775-4.146,6.137c-3.3199,2.4855-8.8252,5.4774-8.8654,5.4709
			c-3.5558,2.1013-5.3854,5.8464-4.1395,8.9656c1.4596,3.6544,6.3683,4.9232,10.8501,3.1338
			c4.564-1.8232,7.1235-6.1953,5.7051-9.7466c-0.6328-1.5833-1.9534-2.7365-3.6249-3.3706
			c4.3608-1.1298,8.5245-1.9395,11.9399-4.3129l14.2948,7.098c2.8848,1.4097,6.0723,2.1333,9.269,2.1333
			c2.4966,0,4.0105-0.3851,6.4736-0.8882c-3.3569-2.3358-12.0608-8.3935-21.0062-14.6179L59.3062,18.8931z M10.8433,20.8286
			c-3.5135-1.4027-5.5957-4.6288-4.5898-7.147c1.1193-2.8034,5.1495-3.2584,8.2505-2.0186c3.54,1.4141,5.5991,4.6201,4.5898,7.147
			C18.0835,21.3369,14.3833,22.2432,10.8433,20.8286z M19.0938,48.1899c1.0093,2.5269-1.0498,5.7329-4.5898,7.147
			c-3.5074,1.4036-7.2439,0.5024-8.2505-2.0186c-1.0842-2.7145,1.3567-5.8563,4.5898-7.147
			C14.3818,44.7581,18.0845,45.6627,19.0938,48.1899z M44.439,21.9346c2.6108-1.2754,5.4961-1.9307,8.3887-1.9307
			c0.4365,0,0.873,0.0151,1.3091,0.0449L36.5458,32.2708c-2.1223-1.4767-3.9998-2.7828-5.4004-3.757L44.439,21.9346z
			 M17.623,41.9312c2.7336-1.9115,4.0398-3.2928,5.2197-6.3107c1.2432,1.4918,2.8352,2.3621,4.3284,3.1035
			C24.4655,40.2949,21.0073,41.0851,17.623,41.9312z M54.1401,46.9507c-3.3276,0.2266-6.6953-0.4165-9.6953-1.8823L27.29,36.5508
			c-3.061-1.623-3.6201-3.0679-4.3281-4.897c-0.6753-1.7437-1.4404-3.7207-4.3628-5.9082
			c-0.3149-0.2354-0.6416-0.4712-0.9761-0.7056c3.6748,0.9246,7.5897,1.7863,10.4224,3.7544
			C31.3833,31.1143,48.1772,42.8008,54.1401,46.9507z"/>
	</g>
</g>
</svg>

