<?xml version="1.0" encoding="utf-8"?>

<svg version="1.2" baseProfile="tiny" xmlns="http://www.w3.org/2000/svg" xmlns:xlink="http://www.w3.org/1999/xlink" x="0px"
	 y="0px" width="128px" height="128px" viewBox="0 0 128 128" xml:space="preserve">
<g id="_x31_28px_boxes">
	<rect fill="none" width="128" height="128"/>
</g>
<g id="Production">
	<g>
		<path fill="#ffffff" d="M30.8581,36.6328c3.4299-1.448,13.5874-4.7751,19.3471-2.7947
			c7.1924,2.4713,10.4752,10.5417,22.1563,4.8267c1.7888-0.8733,3.478-1.6982,6.2978-2.094
			c6.012-0.8641,15.3653,4.3457,18.4585,6.4199c1.6529,1.1106,3.9172,0.6827,5.041-0.99c1.1199-1.6646,0.6778-3.9218-0.9848-5.0413
			c-1.3716-0.9228-13.6636-8.9772-23.5281-7.5861c-2.9934,0.4207-5.1531,1.2209-6.8972,2.0125
			c0.8498-1.191,1.3628-2.639,1.3628-4.2128c0-0.0729-0.0195-0.142-0.0215-0.2149c-0.1172-3.9127-3.3074-7.0534-7.2471-7.0534
			c-3.3608,0-6.1626,2.2944-6.9931,5.3945C57.4692,26.7156,57.4467,28,58.027,29.622c-1.4067-0.9213-3.1387-1.8616-5.4614-2.6585
			c-9.4194-3.2295-23.0225,2.3319-24.5415,2.9758c-1.8472,0.7846-2.7095,2.914-1.9273,4.7629
			C26.8776,36.5496,29.0124,37.4136,30.8581,36.6328z"/>
		<path fill="#ffffff" d="M87.5566,99.0099H75.7455c-0.0034-4.3953-2.6101-8.1733-6.3596-9.8945V43.745
			c-3.1089,0.8289-6.3013,0.6825-9.0854-0.1597v45.5301c-3.7479,1.7212-6.3565,5.4992-6.3599,9.8945h-11.811
			c-1.0044,0-1.8169,0.8125-1.8169,1.8171v5.4512c0,1.0046,0.8125,1.8171,1.8169,1.8171h45.427
			c1.0046,0,1.8171-0.8125,1.8171-1.8171v-5.4512C89.3737,99.8224,88.5612,99.0099,87.5566,99.0099z"/>
		<path fill="#ffffff" d="M48.4753,77.9697c0.2021-0.6106,0.0405-1.5422-0.2344-2.1098L31.6015,41.6813
			c-0.9561-1.9633-3.8866-2.0845-4.9011,0c0,0-16.6375,34.1732-16.6395,34.1786c-0.2697,0.5554-0.4367,1.4975-0.2343,2.1098
			c2.3388,7.068,9.925,11.6357,19.3244,11.6357C38.5487,89.6054,46.1347,85.0377,48.4753,77.9697z M16.2592,75.5811L29.151,49.1004
			l12.8916,26.4807H16.2592z"/>
		<path fill="#ffffff" d="M117.9377,82.9347l-16.6394-34.1786c-0.9912-2.0401-3.9096-2.0411-4.9012,0
			c0,0-16.6342,34.1679-16.6396,34.1786c-0.2676,0.5518-0.4346,1.5034-0.2339,2.1099c2.3384,7.0678,9.9246,11.6352,19.3242,11.6352
			c9.3977,0,16.9837-4.5674,19.3242-11.6352C118.3688,84.4484,118.2267,83.483,117.9377,82.9347z M85.956,82.6564l12.8918-26.4811
			l12.8916,26.4811H85.956z"/>
	</g>
</g>
</svg>
