<?xml version="1.0" encoding="utf-8"?>
<!-- Generator: Adobe Illustrator 18.1.1, SVG Export Plug-In . SVG Version: 6.00 Build 0)  -->
<svg version="1.2" baseProfile="tiny" xmlns="http://www.w3.org/2000/svg" xmlns:xlink="http://www.w3.org/1999/xlink" x="0px"
	 y="0px" width="128px" height="128px" viewBox="0 0 128 128" xml:space="preserve">
<g id="_x31_28px_boxes">
	<rect fill="none" width="128" height="128"/>
</g>
<g id="Production">
	<g>
		<circle fill="#ffffff" cx="99.0151" cy="105.9393" r="9.3397"/>
		<circle fill="#ffffff" cx="51.2075" cy="105.9393" r="9.3397"/>
		<path fill="#ffffff" d="M112.6997,27.1131H45.177c-0.1514-0.8401-0.2996-1.6621-0.4431-2.4587
			c-1.2864-7.1376-6.9341-11.9334-14.0537-11.9334H17.6028c-7.2408,0-7.2517,10.9609,0,10.9609h13.0774
			c1.8188,0,2.9179,0.9811,3.2665,2.9168c5.815,32.2563,9.3353,51.9418,9.659,54.0095c0.9704,6.1977,6.8999,12.6085,15.1428,12.6085
			h44.9761c3.0268,0,5.4805-2.4535,5.4805-5.4804c0-3.0268-2.4537-5.4805-5.4805-5.4805H58.7485
			c-4.3217,0-4.4662-4.284-4.9184-6.8577h52.75c1.5551,0,2.8747-1.1413,3.0988-2.6803l1.2049-8.2737
			c-25.5639-20.9135-43.6137-10.6826-39.5386-11.117c4.4134-0.4704,15.1153,0.2186,23.2632,6.6836
			c-6.5941,10.1201-22.8818,6.3628-31.2407-2.5427c-7.7178-8.2196-7.7063-15.929-7.7019-16.2531
			c0.0128-0.9862,1.2213-1.457,1.8984-0.7399c0.0291,0.0306,3.1565,3.2556,7.8496,3.4215c3.5386,0.1275,5.9104-1.4036,8.4282-3.0255
			c2.4934-1.6057,5.0718-3.2664,8.7754-3.2664c6.7433,0,13.4112,4.7532,14.2905,12.644c4.9212,2.0283,9.6712,4.8781,14.7598,8.8133
			l4.1309-28.3658C116.074,28.8061,114.6057,27.1131,112.6997,27.1131z"/>
	</g>
</g>
</svg>
