<?xml version="1.0" encoding="utf-8"?>
<!-- Generator: Adobe Illustrator 18.1.1, SVG Export Plug-In . SVG Version: 6.00 Build 0)  -->
<svg version="1.2" baseProfile="tiny" xmlns="http://www.w3.org/2000/svg" xmlns:xlink="http://www.w3.org/1999/xlink" x="0px"
	 y="0px" width="64px" height="64px" viewBox="0 0 64 64" xml:space="preserve">

<g id="Production">
	<path fill="#ffffff" d="M57,5h-2v7.1011c0,2.1412-1.625,4-3.9741,4L17,16.0732V50c0,2.2056-1.7944,4-4,4H6v2h7
		c1.6492,0,3.1446-0.6692,4.2302-1.7498l0.0266,0.0266c4.8553-4.8553,33.769-33.769,38.5-38.5l-0.015-0.015
		C56.5272,14.7468,57,13.4783,57,12.1011V5z M50.6028,18L19,49.7056V18C18.9992,17.9781,41.4941,17.9768,50.6028,18z"/>
</g>
</svg>
