<?xml version="1.0" encoding="utf-8"?>
<!-- Generator: Adobe Illustrator 18.1.1, SVG Export Plug-In . SVG Version: 6.00 Build 0)  -->
<svg version="1.2" baseProfile="tiny" xmlns="http://www.w3.org/2000/svg" xmlns:xlink="http://www.w3.org/1999/xlink" x="0px"
	 y="0px" width="128px" height="128px" viewBox="0 0 128 128" xml:space="preserve">
<g id="_x31_28px_boxes">
	<rect fill="none" width="128" height="128"/>
</g>
<g id="Production">
	<g>
		<path fill="#ffffff" d="M50.3949,87.7833V73.725H40.2568v14.0592l-18.5215,16.8842c-2.0689,1.8862-2.2173,5.0923-0.3311,7.1613
			c1.8862,2.0687,5.0921,2.217,7.1611,0.3312l16.761-15.2795l16.761,15.2795c2.0706,1.8871,5.2764,1.7366,7.1612-0.3312
			c1.8862-2.069,1.7377-5.2751-0.3311-7.1613L50.3949,87.7833z"/>
		<path fill="#ffffff" d="M104.2846,14.5161H84.1469c-1.3091,0-1.9033,0.2778-2.73,0.9378
			c-3.6477,2.9113-26.6494,21.2702-29.6016,23.6265c-0.0075,0.0061-23.3293,0.0195-23.3293,0.0195
			c-2.0073,0-3.6343,1.6271-3.6343,3.6343v22.3921c0,2.0072,1.627,3.6344,3.6343,3.6344c20.7434,0,2.7305,0,23.3076,0
			c0.4741,0.3824,29.8086,23.7936,29.8086,23.7936c0.9775,0.7332,2.043,0.9423,3.0962,0.6929l20.4207-4.8178
			c1.6408-0.3869,2.7998-1.8515,2.7998-3.5372V18.1505C107.9189,16.1433,106.2919,14.5161,104.2846,14.5161z M100.6503,82.0155
			l-13.1518,3.1028V21.7849h13.1518V82.0155z"/>
	</g>
</g>
</svg>
