<?xml version="1.0" encoding="utf-8"?>
<!-- Generator: Adobe Illustrator 18.1.1, SVG Export Plug-In . SVG Version: 6.00 Build 0)  -->
<svg version="1.2" baseProfile="tiny" xmlns="http://www.w3.org/2000/svg" xmlns:xlink="http://www.w3.org/1999/xlink" x="0px"
	 y="0px" width="128px" height="128px" viewBox="0 0 128 128" xml:space="preserve">
<g id="_x31_28px_boxes">
	<rect fill="none" width="128" height="128"/>
</g>
<g id="Production">
	<g>
		<path fill="#ffffff" d="M119.3593,100.8263c-4.8035-20.7072-24.3578-47.4178-45.3507-61.0203L50.583,80.3807
			c16.4016,5.645,33.9282,7.3187,52.7358,26.5284c0.4757,0.4858,1.1853,0.6516,1.8236,0.434l13.0713-4.4553
			C119.0682,102.5966,119.5633,101.7057,119.3593,100.8263z"/>
		<path fill="#ffffff" d="M70.1663,37.4608c-0.6394-0.3752-5.0659-2.9717-5.0659-2.9717l1.4444-2.5193
			c1.0302-1.7966,0.409-4.0881-1.3875-5.1183l-5.3757-3.0831c-1.7949-1.0297-4.0884-0.4094-5.1188,1.3877l-1.4357,2.5037
			l-15.0039-8.6299c-4.7315-2.7153-10.1275-3.3394-15.1929-1.7566C13.0749,20.3837,6.7369,31.375,9.084,41.5746
			c1.1897,5.1702,4.4507,9.5129,9.1818,12.228l11.6355,6.6785c1.6489,4.5214,6.0917,13.4995,16.433,18.2585L70.1663,37.4608z
			 M32.2481,29.4298l9.1633,5.2705L33.3641,48.639l-9.128-5.239C15.712,38.5078,23.7154,24.5335,32.2481,29.4298z"/>
		<circle fill="#ffffff" cx="44.603" cy="106.4003" r="5.182"/>
		<circle fill="#ffffff" cx="59.5752" cy="95.5119" r="5.1819"/>
		<circle fill="#ffffff" cx="80.906" cy="106.4003" r="5.1819"/>
	</g>
</g>
</svg>
