<?xml version="1.0" encoding="utf-8"?>
<!-- Generator: Adobe Illustrator 18.1.1, SVG Export Plug-In . SVG Version: 6.00 Build 0)  -->
<svg version="1.2" baseProfile="tiny" xmlns="http://www.w3.org/2000/svg" xmlns:xlink="http://www.w3.org/1999/xlink" x="0px"
	 y="0px" width="128px" height="128px" viewBox="0 0 128 128" xml:space="preserve">
<g id="_x31_28px_boxes">
	<rect fill="none" width="128" height="128"/>
</g>
<g id="Production">
	<g>
		<path fill="#ffffff" d="M110.2505,76.227c-2.2862-13.0215-7.598-26.52-18.8139-33.6201V18.4741
			c0-2.29-1.8562-4.1466-4.1463-4.1466h-6.2492c-4.6717-3.8199-10.6912-5.9213-17.0403-5.9213
			c-6.3489,0-12.3684,2.1014-17.0398,5.9213h-6.2495c-2.2898,0-4.1463,1.8566-4.1463,4.1466v24.1328
			c-11.2175,7.0987-16.5283,20.5966-18.8139,33.6203c-1.6685,9.4359,8.5261,16.8562,17.8823,13.0619
			c-0.9097,3.815-2.0294,7.4848-3.3496,10.9705l-0.0213,0.0553c-0.0092,0.024-0.0183,0.0476-0.0273,0.0716
			c-1.2735,3.3946-1.1387,7.0882,0.3797,10.4005c1.6396,3.5773,4.6952,6.3385,8.6034,7.7754
			c7.8418,2.883,16.6548-0.494,20.0652-7.4427c0.8325-1.6962,1.7686-3.8101,2.7171-6.0659c1.7173,4.089,2.727,6.0851,2.727,6.0851
			c3.2256,6.5206,11.2793,9.9635,18.8645,7.8109c8.3804-2.3799,13.1215-10.7589,10.1592-18.6001l-0.0188-0.05
			c-0.002-0.0048-0.0039-0.01-0.0056-0.0149c-1.324-3.4925-2.4468-7.1702-3.3582-10.9938
			C101.7329,93.084,111.9088,85.6767,110.2505,76.227z M91.6458,79.8051l-0.0159-0.0473
			c-3.6384-10.5951-8.7627-15.5804-8.7627-15.5804c-0.2014,6.2381,0.3533,12.5384,1.3362,18.6958
			c1.0767,6.7419,2.7688,13.4051,5.197,19.81l0.0188,0.0501c2.0452,5.4369-3.3069,10.0894-8.4265,10.0894
			c-3.498,0-6.7778-1.8082-8.2007-4.684c-3.5244-7.1802-8.791-21.8307-8.791-21.8307c-0.0266,0.1031-5.2671,14.6505-8.7915,21.8307
			c-1.4377,2.9297-4.7261,4.6873-8.1853,4.6873c-5.1593,0-10.5166-4.5645-8.4539-10.0629l0.0311-0.0799
			c2.4277-6.4049,4.1201-13.0681,5.1972-19.81c0.5371-3.371,0.9193-6.7647,1.1438-10.1501
			c0.1883-2.8366,0.2752-5.7269,0.1929-8.5462c0,0-4.648,4.3481-8.7632,15.5809l-0.0166,0.046
			c-2.2468,6.2523-13.0557,3.9517-11.9399-2.4071c1.2302-7.0088,3.3811-14.2732,7.2302-20.2893
			c3.1948-4.9934,7.8796-9.5964,13.7605-11.1338c0.0068-4.3019,0.0002-7.5798,0.0002-14.7086
			c0-8.8879,8.3252-16.0926,18.5943-16.0926c10.2695,0,18.5942,7.2047,18.5942,16.0926v14.7086
			c3.4131,0.6399,9.2344,4.0552,13.7615,11.1338c3.8337,5.9956,5.9886,13.2232,7.2297,20.2893
			C104.696,83.7216,93.7787,86.0537,91.6458,79.8051z"/>
		<path fill="#ffffff" d="M71.2034,53.4266H56.7981c-2.0256,0-3.6679,1.6421-3.6679,3.6678v17.0281
			c0,2.0257,1.6423,3.6678,3.6679,3.6678h14.4053c2.0256,0,3.668-1.6421,3.668-3.6678V57.0944
			C74.8714,55.0687,73.229,53.4266,71.2034,53.4266z"/>
		<path fill="#ffffff" d="M63.9991,19.9656c-6.8494,0-13.3401,5.0592-13.3401,11.2621c0,0.0437-0.0247,12.2189-0.0247,12.2189
			c0,1.2154,0.9854,2.2006,2.2007,2.2006h22.3286c1.2153,0,2.2002-0.9852,2.2002-2.2006V31.4149
			C77.3638,25.1017,71.3687,19.9656,63.9991,19.9656z M72.9629,41.246h-3.947v-9.8311c0-2.5106-0.9326-4.8638-2.5742-6.7798
			c3.7585,0.8385,6.5212,3.5594,6.5212,6.7798V41.246z"/>
	</g>
</g>
</svg>
