<?xml version="1.0" encoding="utf-8"?>
<!-- Generator: Adobe Illustrator 18.1.0, SVG Export Plug-In . SVG Version: 6.00 Build 0)  -->
<svg version="1.2" baseProfile="tiny" xmlns="http://www.w3.org/2000/svg" xmlns:xlink="http://www.w3.org/1999/xlink" x="0px"
	 y="0px" width="64px" height="64px" viewBox="0 0 64 64" xml:space="preserve">
<g id="_x36_4px_boxes">
	<rect fill="none" width="64" height="64"/>
</g>
<g id="Production">
	<g>
		<path fill="#ffffff" d="M54.5002,38.9981C49.2618,38.9981,45,43.2598,45,48.498c0,5.2383,4.2618,9.4999,9.5002,9.4999
			c5.2385,0,9.5003-4.2616,9.5003-9.4999C64.0005,43.2598,59.7388,38.9981,54.5002,38.9981z M54.5002,52.9979
			c-2.4814,0-4.5001-2.0185-4.5001-4.4999c0-2.4813,2.0187-4.4999,4.5001-4.4999c2.4815,0,4.5001,2.0186,4.5001,4.4999
			C59.0004,50.9794,56.9818,52.9979,54.5002,52.9979z"/>
		<circle fill="#ffffff" cx="34.5001" cy="56.4979" r="4.4999"/>
		<path fill="#ffffff" d="M35.0694,1.7969L10.9945,25.8708c5.7304,5.7302,16.5918,16.6315,16.5918,16.6315
			c-7.8281,7.8279-8.699,9.4957-12.5409,9.4957c-0.8091,0-1.9708-0.1455-2.9029-0.8345c-2.3946-1.7832-4.5118-3.9009-6.2888-6.287
			c-1.5997-2.1631-0.7208-6.0727,1.0732-7.8676l4.7749-4.7745l-3.5356-3.5354l-4.775,4.7748
			C0.0079,36.858-1.4253,43.4419,1.838,47.8559c2.0718,2.7822,4.5343,5.2441,7.3249,7.3227
			c4.2737,3.16,10.8973,1.9204,14.3764-1.5586L55.217,21.9436L35.0694,1.7969z M18.0453,25.8912L35.0694,8.8681l13.076,13.0755
			L31.1215,38.9672L18.0453,25.8912z"/>
	</g>
</g>
</svg>

