<?xml version="1.0" encoding="utf-8"?>
<!-- Generator: Adobe Illustrator 18.1.1, SVG Export Plug-In . SVG Version: 6.00 Build 0)  -->
<svg version="1.2" baseProfile="tiny" xmlns="http://www.w3.org/2000/svg" xmlns:xlink="http://www.w3.org/1999/xlink" x="0px"
	 y="0px" width="128px" height="128px" viewBox="0 0 128 128" xml:space="preserve">
<g id="_x31_28px_boxes">
	<rect fill="none" width="128" height="128"/>
</g>
<g id="Production">
	<path fill="#ffffff" d="M109.5974,35.7575l-9.7888,6.0788c0.6596,1.5046,1.0664,3.1658,1.0664,4.9136V65.036
		c0,6.7632-5.6326,12.021-12.3992,12.021h-8.8501l-20.9389,23.8525l5.4555-23.8525H39.3381c-6.7627,0-12.2131-5.2578-12.2131-12.021
		V46.7499c0-6.7627,5.4504-12.4429,12.2131-12.4429h44.553l-0.0059,5.2185c-0.0021,2.032,2.1532,3.1883,3.7657,2.2004
		c6.3575-3.8905,4.922-3.0113,17.7168-10.851c1.5641-0.959,1.5787-3.2447,0.0048-4.2138l-17.698-10.8927
		c-1.6282-1.003-3.7631,0.1656-3.7656,2.003l-0.0041,5.0356H39.3381c-13.092,0-23.7131,10.8464-23.7131,23.9429V65.036
		c0,13.0923,10.6211,23.521,23.7131,23.521h10.377l-2.2388,9.8999c-1.1739,5.1323,1.2875,10.4619,5.9751,12.8589
		c4.9273,2.5188,10.4459,1.1874,13.8777-2.7222L84.833,88.557h3.6428c13.0945,0,23.8992-10.4287,23.8992-23.521V46.7499
		C112.375,42.7858,111.322,39.0463,109.5974,35.7575z"/>
</g>
</svg>
