<?xml version="1.0" encoding="utf-8"?>
<!-- Generator: Adobe Illustrator 18.1.1, SVG Export Plug-In . SVG Version: 6.00 Build 0)  -->
<svg version="1.2" baseProfile="tiny" xmlns="http://www.w3.org/2000/svg" xmlns:xlink="http://www.w3.org/1999/xlink" x="0px"
	 y="0px" width="128px" height="128px" viewBox="0 0 128 128" xml:space="preserve">
<g id="_x31_28px_boxes">
	<rect fill="none" width="128" height="128"/>
</g>
<g id="Production">
	<g>
		<path fill="#ffffff" d="M105.6675,83.2838H22.3981c-1.3585,0-2.5138,0.991-2.7211,2.3338
			c-0.0471,0.3071-0.4299,3.0952,0.7017,6.3131c0.956,2.7186,3.1582,6.1864,8.2191,8.1219
			c1.796,12.0871,22.5499,13.8457,34.8463,13.8457c12.2935,0,33.0459-1.7573,34.8457-13.8434
			c8.1717-3.1014,10.2302-10.4132,10.1297-14.0931C108.3789,84.4711,107.1587,83.2838,105.6675,83.2838z"/>
		<path fill="#ffffff" d="M56.4744,45.7725c-18.5873-1.9259-30.1963,18.5819-18.6343,33.2601h35.3806
			c-14.7782-3.9352-19.9279-5.8322-23.062-9.5017c-3.2446-4.0832-0.4049-8.6331,4.6985-8.0297
			c16.0475,2.2804,33.8545,1.5886,45.3755-9.9325c11.218-11.2179,4.5413-25.791-2.7195-31.3587
			c-13.987-10.7262-42.7856-5.6023-45.3266,2.1964l-6.8675-0.0233l-7.946-3.232c-0.8378-0.3409-1.4665,0.8181-0.7183,1.333
			l5.1548,3.5448l-5.2305,3.4043c-0.8626,0.5611-0.1664,1.8923,0.7849,1.5108l7.9208-3.1028l8.2121,0.0276
			c2.28,2.1518,8.0384,4.9294,22.58,4.9294c0.1968,0,0.2762-1.7551,0.2517-2.6618c-0.0586-2.4376-0.6854-4.7824-1.6211-7.0345
			c-0.7363-1.7491,1.7369-3.0472,2.7532-1.4384c1.4954,2.3626,2.678,5.0256,3.2617,7.9458
			c1.4952,7.4796-1.8103,12.13-2.8161,13.4702C72.3738,48.4711,65.2176,46.7316,56.4744,45.7725z M63.2364,24.8992
			c-1.5975,0-2.8926-1.2953-2.8926-2.8927c0-1.5977,1.2951-2.8927,2.8926-2.8927c1.5976,0,2.8925,1.295,2.8925,2.8927
			C66.1289,23.6039,64.834,24.8992,63.2364,24.8992z"/>
	</g>
</g>
</svg>

