<?xml version="1.0" encoding="utf-8"?>

<svg version="1.2" baseProfile="tiny" xmlns="http://www.w3.org/2000/svg" xmlns:xlink="http://www.w3.org/1999/xlink" x="0px"
	 y="0px" width="128px" height="128px" viewBox="0 0 128 128" xml:space="preserve">
<g id="_x31_28px_boxes">
	<rect fill="none" width="128" height="128"/>
</g>
<g id="Production">
	<path fill="#ffffff" d="M108.0737,40.2472c-5.4549,2.7569-13.4076,11.2076-8.0625,23.62
		c3.0859,7.1667,2.565,13.2951-4.3969,17.0305V68.3955c0-1.1599-0.6151-2.218-1.6327-2.775
		c-3.2578-1.8565-13.2311-10.4393-13.2311-29.4862c0-12.742-4.4218-24.9705-17.0081-24.9705
		c-8.3721,0-16.4928,5.9809-16.4928,24.9705c0,16.0611-7.3668,26.1557-13.1941,29.4656c-1.0286,0.5537-1.6699,1.6277-1.6699,2.7957
		v12.4982c-6.9387-3.7255-7.4988-9.8228-4.3969-17.0265c3.5538-8.2531,1.1479-14.2834-1.4966-17.8888
		c-2.7314-3.7247-6.1815-5.5367-6.5659-5.7312c-3.7484-1.8947-6.6171,3.7704-2.8651,5.6676c0.024,0.012,2.4507,1.2837,4.3103,3.8191
		c2.4204,3.3002,2.6843,7.2102,0.7844,11.6218c-5.5243,12.8297-0.6855,22.3769,10.2297,26.4976v25.8077
		c0,1.7538,1.4214,3.1752,3.1753,3.1752h56.8782c1.7534,0,3.1752-1.4214,3.1752-3.1752V87.8533
		c10.9073-4.1181,15.7585-13.6573,10.2294-26.4976c-1.8678-4.3381-1.644-8.1927,0.6655-11.4564
		c1.8397-2.5994,4.3618-3.9486,4.4434-3.9918C114.6843,43.9984,111.814,38.3556,108.0737,40.2472z M63.7426,17.5144
		c8.8546,0,10.5164,10.6361,10.6482,17.6508c-4.91,3.5059-15.0038,3.9803-20.7858,0.209
		C53.7104,27.048,55.6084,17.5144,63.7426,17.5144z M67.3691,92.9023c1.2544-1.0671,2.0615-2.9172,2.0615-5.7341
		C69.4307,82.2715,64,76.321,64,76.321s-5.4307,5.9504-5.4307,10.8472c0,2.9192,0.8679,4.798,2.2014,5.845
		c-12.561-2.4792-17.1545-20.239,5.0668-35.3495c-3.2488,12.2766,4.144,19.6091,7.6954,10.1121
		C81.3617,82.21,75.6523,90.9858,67.3691,92.9023z"/>
</g>
</svg>
