<?xml version="1.0" encoding="utf-8"?>
<!-- Generator: Adobe Illustrator 18.1.1, SVG Export Plug-In . SVG Version: 6.00 Build 0)  -->
<svg version="1.2" baseProfile="tiny" xmlns="http://www.w3.org/2000/svg" xmlns:xlink="http://www.w3.org/1999/xlink" x="0px"
	 y="0px" width="64px" height="64px" viewBox="0 0 64 64" xml:space="preserve">

<g id="Production">
	<g>
		<path fill="#ffffff" d="M48.4141,9H9v46h46V15.5864L48.4141,9z M22,11h20v12h-3V13h-2v10H22V11z M46,53H18V38c0-1.103,0.897-2,2-2
			h24c1.103,0,2,0.897,2,2V53z M53,53h-5V38c0-2.2056-1.7944-4-4-4H20c-2.2056,0-4,1.7944-4,4v15h-5V11h9v14h24V11h3.5859
			L53,16.4146V53z"/>
		<rect x="23" y="41" fill="#ffffff" width="18" height="2"/>
		<rect x="23" y="46" fill="#ffffff" width="18" height="2"/>
	</g>
</g>
</svg>
