<?xml version="1.0" encoding="utf-8"?>
<!-- Generator: Adobe Illustrator 18.1.1, SVG Export Plug-In . SVG Version: 6.00 Build 0)  -->
<svg version="1.2" baseProfile="tiny" xmlns="http://www.w3.org/2000/svg" xmlns:xlink="http://www.w3.org/1999/xlink" x="0px"
	 y="0px" width="64px" height="64px" viewBox="0 0 64 64" xml:space="preserve">

<g id="Production">
	<g>
		<path fill="#ffffff" d="M25,22h13V9H25V22z M27,11h9v9h-9V11z"/>
		<path fill="#ffffff" d="M41,9v13h13V9H41z M52,20h-9v-9h9V20z"/>
		<path fill="#ffffff" d="M9,22h13V9H9V22z M11,11h9v9h-9V11z"/>
		<path fill="#ffffff" d="M25,38h13V25H25V38z M27,27h9v9h-9V27z"/>
		<path fill="#ffffff" d="M41,38h13V25H41V38z M43,27h9v9h-9V27z"/>
		<path fill="#ffffff" d="M9,38h13V25H9V38z M11,27h9v9h-9V27z"/>
		<path fill="#ffffff" d="M25,54h13V41H25V54z M27,43h9v9h-9V43z"/>
		<path fill="#ffffff" d="M41,54h13V41H41V54z M43,43h9v9h-9V43z"/>
		<path fill="#ffffff" d="M9,54h13V41H9V54z M11,43h9v9h-9V43z"/>
	</g>
</g>
</svg>
