<?xml version="1.0" encoding="utf-8"?>

<svg version="1.2" baseProfile="tiny" xmlns="http://www.w3.org/2000/svg" xmlns:xlink="http://www.w3.org/1999/xlink" x="0px"
	 y="0px" width="64px" height="64px" viewBox="0 0 64 64" xml:space="preserve">

<g id="Production">
	<g>
		<path fill="#ffffff" d="M29.6082,41.3209c0.6846,1.9243,0.2744,4.1537-1.2666,5.6908c-3.3605,3.3532-4.4498,5.0229-7.3118,5.0229
			c-2.8395,0-3.6527-1.3739-8.5217-6.231c-2.1329-2.1293-2.1329-5.5941,0.001-7.7239c3.0511-3.0451,5.1487-6.1445,9.1935-4.6758
			l3.7053-3.6953c-4.0407-2.5557-9.4598-2.0828-12.977,1.4287l-3.4385,3.4321c-4.0744,4.0645-4.0753,10.6791-0.001,14.7454
			c4.5475,4.5369,6.7493,7.6844,12.0384,7.6844c5.1109,0,7.3239-2.978,10.8284-6.4764c3.4883-3.4772,4.007-8.85,1.459-12.9037
			L29.6082,41.3209z"/>
		<path fill="#ffffff" d="M53.8881,13.6854l-4.6398-4.6411c-4.0701-4.0719-10.6896-4.054-14.7416-0.0005L31.076,12.475
			c-3.5005,3.4987-3.996,8.9017-1.4287,12.9485l3.6944-3.6953c-0.7812-2.1447-0.1747-4.3234,1.2432-5.7426
			c3.4557-3.455,4.468-5.0209,7.2932-5.0209c2.8362,0,3.6486,1.3779,8.5013,6.2314c2.129,2.1293,2.129,5.5941,0.001,7.7234
			c-3.036,3.035-5.1024,6.1006-9.1174,4.6909l-3.7052,3.7056c1.6406,1.0283,3.5391,1.5884,5.5304,1.5884
			c5.088,0,7.2862-2.9589,10.8011-6.4745C57.9547,24.3644,57.9526,17.7504,53.8881,13.6854z"/>
		
			<rect x="19.0462" y="29.1447" transform="matrix(-0.7071 0.7071 -0.7071 -0.7071 75.7992 31.8782)" fill="#ffffff" width="24.5018" height="4.9872"/>
	</g>
</g>
</svg>
