<?xml version="1.0" encoding="utf-8"?>
<!-- Generator: Adobe Illustrator 18.1.1, SVG Export Plug-In . SVG Version: 6.00 Build 0)  -->
<svg version="1.2" baseProfile="tiny" xmlns="http://www.w3.org/2000/svg" xmlns:xlink="http://www.w3.org/1999/xlink" x="0px"
	 y="0px" width="128px" height="128px" viewBox="0 0 128 128" xml:space="preserve">
<g id="_x31_28px_boxes">
	<rect fill="none" width="128" height="128"/>
</g>
<g id="Production">
	<g>
		<path fill="#ffffff" d="M99.6279,25.137c-3.0729-1.01-9.922-1.326-17.0899,2.9945c-0.1714-9.1977-3.3824-13.1513-3.8174-13.6449
			c-0.6553-0.7437-1.6477-1.0965-2.6258-0.9322c-0.7937,0.133-6.9287,1.4375-12.1247,10.4756
			c-5.1961-9.0381-11.3309-10.3426-12.1246-10.4756c-0.9781-0.1646-1.9706,0.1883-2.6257,0.9322
			c-0.435,0.4936-3.6462,4.4472-3.8176,13.6449c-6.4363-3.8795-13.7574-4.0907-17.0901-2.9945
			c-1.4792,0.4868-2.5935,2.385-1.5959,4.1399c0.9792,1.7224,2.42,3.4899,4.0886,5.5366
			c5.125,6.2864,12.2693,15.0575,12.9143,30.6758h40.5022c0.645-15.6184,7.7893-24.3896,12.9141-30.6758
			c1.6684-2.0467,3.1096-3.8142,4.0887-5.5366C102.212,27.5386,101.4769,25.7457,99.6279,25.137z"/>
		<path fill="#ffffff" d="M84.7208,76.0228h1.1283c1.6566,0,3-1.3434,3-3c0-1.6568-1.3434-3-3-3H41.9066c-1.6569,0-3,1.3432-3,3
			c0,1.6566,1.3431,3,3,3h1.3128c-1.1968,9.3324-4.4649,20.6087-10.8836,34.3852c-0.9739,2.0905,0.3657,4.0774,2.5986,4.0774h8.0977
			c0,0,0.0017-0.0046,0.0026-0.0071c0.8912-0.013,1.6554-0.5429,2.0089-1.3037c2.0152-4.0511,6.2671-15.0965,9.8238-30.9414
			l0.0004-0.0016c0.1882-0.8382,1.375-0.6247,1.4055,0.1305c0.5051,12.5415-2.3074,23.6665-3.7993,29.8654
			c-0.1482,1.2118,0.9719,2.2124,2.184,2.2491c0,0-0.0016,0.0058-0.0024,0.0088c0,0,19.5537-0.0055,19.6204-0.0055
			c1.2441,0,2.4238-1.0201,2.2529-2.2524c-0.938-6.7614-1.3471-8.6259-1.2661-15.4588c0.0108-0.9251,1.3403-1.0144,1.5684-0.2094
			l0.0007,0.003c1.2766,4.5106,3.3857,11.4524,5.2053,16.3134c0.2786,0.9278,1.1385,1.6042,2.157,1.6042h0.0007
			c0.0005,0.0017,0.0008,0.0037,0.0015,0.0055h8.8093c2.3294,0,3.4159-2.3232,2.5987-4.0774
			C89.1857,96.6315,85.9176,85.3552,84.7208,76.0228z"/>
	</g>
</g>
</svg>

