<?xml version="1.0" encoding="utf-8"?>
<!-- Generator: Adobe Illustrator 18.1.1, SVG Export Plug-In . SVG Version: 6.00 Build 0)  -->
<svg version="1.2" baseProfile="tiny" xmlns="http://www.w3.org/2000/svg" xmlns:xlink="http://www.w3.org/1999/xlink" x="0px"
	 y="0px" width="128px" height="128px" viewBox="0 0 128 128" xml:space="preserve">
<g id="box">
	<rect fill="none" width="128" height="128"/>
</g>
<g id="Production">
	<g>
		<path fill="#ffffff" d="M116.1018,81.2099h-13.5647c-0.635-22.0962-10.3472-37.8818-11.7519-40.0822
			c-5.4361-10.2679-14.0315-13.0091-21.1861-12.6951H24.9835c-9.0183,0-16.3185,7.3076-16.3233,16.3154v26.607
			c0.0048,9.0161,7.305,16.3159,16.3233,16.3159h10.5816c0.7113-7.6441,7.0603-13.646,14.8905-13.6538
			c7.8252,0.0078,14.1794,6.0046,14.8855,13.6538h50.7607c1.7822,0,3.238-1.4483,3.238-3.2303
			C119.3398,82.6557,117.884,81.2099,116.1018,81.2099z M38.2577,53.8205c0,2.2434-1.8206,4.0642-4.062,4.0642H22.6379
			c-2.2439,0-4.0644-1.8208-4.0644-4.0642v-8.1238c0-2.2436,1.8205-4.0666,4.0644-4.0666h11.5578c2.2414,0,4.062,1.823,4.062,4.0666
			V53.8205z M82.6921,57.8847H55.8049c-2.2461,0-4.0642-1.8208-4.0642-4.0642v-8.1238c0-2.2436,1.8181-4.0666,4.0642-4.0666h21.4844
			c2.9602,0,4.615,1.2671,6.1118,3.511c0.7293,1.0964,2.9754,6.1755,3.3147,8.289C87.2332,56.6425,84.9358,57.8847,82.6921,57.8847z
			"/>
		<path fill="#ffffff" d="M50.4556,78.5097c-5.3468,0-9.7145,3.9954-10.4003,9.1612c-0.8888,6.622,4.2952,11.9122,10.4003,11.9201
			c6.1207-0.0079,11.2855-5.3002,10.4006-11.9201C60.1729,82.5051,55.8025,78.5097,50.4556,78.5097z M50.4556,93.2319
			c-2.7016,0-4.9369-2.6175-3.9036-5.561c0.5736-1.6241,2.0831-2.8047,3.9036-2.8098c2.5162,0.007,4.1798,2.2166,4.1892,4.1892
			C54.6372,91.3603,52.7657,93.2319,50.4556,93.2319z"/>
	</g>
</g>
</svg>
