<?xml version="1.0" encoding="utf-8"?>

<svg version="1.2" baseProfile="tiny" xmlns="http://www.w3.org/2000/svg" xmlns:xlink="http://www.w3.org/1999/xlink" x="0px"
	 y="0px" width="64px" height="64px" viewBox="0 0 64 64" xml:space="preserve">

<g id="Production">
	<g>
		<path fill="#ffffff" d="M1,48v2h10.6819l4.4285,4h31.7793l4.4285-4H63v-2C56.3249,48,8.2778,48,1,48z M47.1104,52H16.8896
			l-2.249-2h34.7188L47.1104,52z"/>
		<path fill="#ffffff" d="M21.9385,46h20.123C45.3701,46,48,43.3086,48,40v-2h4.5c3.584,0,6.5-2.916,6.5-6.5S56.084,25,52.5,25H48
			v-5H16v20C16,43.3086,18.6299,46,21.9385,46z M18,22h28c0,6.6513,0,11.3662,0,18c0,2.2056-1.7324,4-3.9385,4h-20.123
			C19.7324,44,18,42.2056,18,40V22z M52.5,27c2.4814,0,4.5,2.0186,4.5,4.5S54.9814,36,52.5,36H48v-9H52.5z"/>
		<path fill="#ffffff" d="M24.0117,13.1724c-0.0301,1.1063,0.4666,2.0185,0.9598,2.8276h2.3275
			c-0.627-1.1361-1.3107-1.9412-1.2872-2.772c0.0469-1.7171,2.9328-2.7425,2.8916-5.5103c-0.017-1.0605-0.5082-1.937-0.986-2.7178
			h-2.3236c0.571,1.0507,1.2963,1.9251,1.3096,2.7485C26.9306,9.4836,24.0879,10.4636,24.0117,13.1724z"/>
		<path fill="#ffffff" d="M36.0117,13.1724c-0.0301,1.1063,0.4666,2.0185,0.9598,2.8276h2.3275
			c-0.627-1.1361-1.3107-1.9412-1.2872-2.772c0.0469-1.7171,2.9328-2.7425,2.8916-5.5103c-0.017-1.0605-0.5082-1.937-0.986-2.7178
			h-2.3236c0.571,1.0507,1.2963,1.9251,1.3096,2.7485C38.9306,9.4836,36.0879,10.4636,36.0117,13.1724z"/>
	</g>
</g>
</svg>
