<?xml version="1.0" encoding="utf-8"?>
<!-- Generator: Adobe Illustrator 19.1.0, SVG Export Plug-In . SVG Version: 6.00 Build 0)  -->
<svg version="1.2" baseProfile="tiny" xmlns="http://www.w3.org/2000/svg" xmlns:xlink="http://www.w3.org/1999/xlink" x="0px"
	 y="0px" width="64px" height="64px" viewBox="0 0 64 64" xml:space="preserve">
<g id="box">
	<rect fill="none" width="64" height="64"/>
</g>
<g id="Production">
	<g>
		<polygon fill="#ffffff" points="53.1158,37.0086 56.6436,38.9902 32,54.8115 7.3564,38.9902 10.8842,37.0086 8.9785,35.7852 
			3.4766,38.876 32,57.1885 60.5234,38.876 55.0215,35.7852 		"/>
		<path fill="#ffffff" d="M53.1158,28.0086l3.5277,1.9816L32,45.8115L7.3564,29.9902l3.5277-1.9816l-1.9056-1.2234l-5.502,3.0908
			L32,48.1885c0,0,22.8174-14.6491,28.5234-18.3125l-5.502-3.0908L53.1158,28.0086z"/>
		<path fill="#ffffff" d="M60.5234,20.876L32,4.853L3.4766,20.876L32,39.1885L60.5234,20.876z M32,7.147l24.6436,13.8433L32,36.8115
			L7.3564,20.9902L32,7.147z"/>
	</g>
</g>
</svg>

