<?xml version="1.0" encoding="utf-8"?>
<!-- Generator: Adobe Illustrator 18.1.1, SVG Export Plug-In . SVG Version: 6.00 Build 0)  -->
<svg version="1.2" baseProfile="tiny" xmlns="http://www.w3.org/2000/svg" xmlns:xlink="http://www.w3.org/1999/xlink" x="0px"
	 y="0px" width="128px" height="128px" viewBox="0 0 128 128" xml:space="preserve">
<g id="_x31_28px_boxes" display="none">
	<rect display="inline" fill="none" width="128" height="128"/>
</g>
<g id="Production">
	<g>
		<path fill="#ffffff" d="M87.4482,110.6582H40.5517c-5.6721,0-5.6779,8.5847,0,8.5847h9.6426v7.0503h27.6113v-7.0503h9.6426
			C93.1197,119.2429,93.1273,110.6582,87.4482,110.6582z"/>
		<path fill="#ffffff" d="M50.7368,77.0203c-3.5372-4.3511-3.5816-12.3418-0.0123-19.5198
			c8.2585,16.284,23.6496,9.549,26.1583-5.6147c0,0,11.1718,13.2175,1.3393,25.1196c29.3565-5.315,24.3877-35.6248,4.9292-55.7378
			c-9.3047-9.6177-9.7412-19.5608-9.7412-19.5608c-8.8797,6.361-3.9332,16.8042-3.4434,23.8237
			c1.0069,14.4138-9.6274,17.6519-9.9248,17.4529c-0.2983-0.1987,3.7583-14.9702-4.7187-22.1567
			c-3.8701-3.2813-7.501-4.2866-7.501-4.2866s5.3423,10.0253-5.6191,22.4907C17.6332,66.9727,43.7421,78.2656,50.7368,77.0203z"/>
		<path fill="#ffffff" d="M104.0522,81.2166H23.9477c-1.6408,0-2.8797,1.4849-2.5903,3.0969
			c1.1762,6.5508,5.8486,11.9858,13.5107,15.7175c15.1603,7.3834,43.1171,7.3768,58.2637,0
			c7.6621-3.7317,12.3344-9.1667,13.5107-15.7175C106.9326,82.703,105.6932,81.2166,104.0522,81.2166z"/>
	</g>
</g>
</svg>
