<?xml version="1.0" encoding="utf-8"?>
<!-- Generator: Adobe Illustrator 18.1.0, SVG Export Plug-In . SVG Version: 6.00 Build 0)  -->
<svg version="1.2" baseProfile="tiny" xmlns="http://www.w3.org/2000/svg" xmlns:xlink="http://www.w3.org/1999/xlink" x="0px"
	 y="0px" width="128px" height="128px" viewBox="0 0 128 128" xml:space="preserve">
<g id="_x31_28px_boxes">
	<rect fill="none" width="128" height="128"/>
</g>
<g id="Production">
	<g>
		<path fill="#ffffff" d="M111.1055,100.3281H16.8999c-0.8431,0-1.4704,0.6872-1.4704,1.4755
			c0.3149,10.2429,38.0408,10.1505,48.5731,10.1531c10.6963-0.0026,48.2541,0.0563,48.568-10.1531
			C112.5705,100.9631,111.8945,100.3281,111.1055,100.3281z"/>
		<path fill="#ffffff" d="M53.4985,94.8362h21.0079c8.27-0.0233,13.0992-6.1343,15.6322-12.8849
			c2.3242,1.6688,5.1566,2.6775,8.2393,2.6802c7.834-0.0054,14.1745-6.3535,14.1797-14.1851
			c-0.0051-7.8342-6.3457-14.1799-14.1797-14.1799c-1.6406,0-3.1884,0.3326-4.6536,0.8462
			c-0.0129-3.3148-0.1627-5.4817-0.1704-5.5383c-0.116-1.5426-1.3928-2.7268-2.9356-2.7268H37.3786
			c-1.5502,0-2.8346,1.1996-2.9353,2.7497c0,0.0516-0.1215,1.9143-0.1215,4.8421c0.0078,5.435,0.3716,14.4844,2.7344,22.5196
			C39.2876,86.8085,44.1271,94.7664,53.4985,94.8362z M98.3779,65.0913c2.956,0.0075,5.3501,2.399,5.355,5.3551
			c-0.0049,2.9536-2.3989,5.3551-5.355,5.3551c-2.9641,0-5.3527-2.4015-5.3527-5.3551
			C93.0253,67.4904,95.4138,65.0989,98.3779,65.0913z"/>
		<path fill="#ffffff" d="M57.9819,44.3799c0.013-7.553,1.2793-11.0791,7.9863-13.8934c15.885-6.6915,7.5143-20.4431,7.5143-20.4431
			c-0.1447,20.1411-24.2145,8.479-23.6134,34.3365H57.9819z"/>
		<path fill="#ffffff" d="M68.6792,44.3799h8.0097c0.0541-2.969,1.4832-3.7894,5.3372-5.9538
			c4.8159-2.706-0.8667-11.2132-0.8667-11.2132C82.0234,38.3745,68.8057,31.0099,68.6792,44.3799z"/>
	</g>
</g>
</svg>

