<?xml version="1.0" encoding="utf-8"?>
<!-- Generator: Adobe Illustrator 18.1.1, SVG Export Plug-In . SVG Version: 6.00 Build 0)  -->
<svg version="1.2" baseProfile="tiny" xmlns="http://www.w3.org/2000/svg" xmlns:xlink="http://www.w3.org/1999/xlink" x="0px"
	 y="0px" width="128px" height="128px" viewBox="0 0 128 128" xml:space="preserve">
<g id="box">
	<rect fill="none" width="128" height="128"/>
</g>
<g id="Production">
	<g>
		<path fill="#ffffff" d="M101.8,24.3523H35.6863c-1.5221,0-2.7881,1.2214-2.7881,2.7903v5.7422h6.9748
			c4.5196,0.0149,8.1683,3.6733,8.1683,8.1877c-0.0074,4.5049-3.6563,8.1733-8.1831,8.1831h-6.96v5.9771h6.96v0.007
			c4.5268,0.0049,8.1757,3.6685,8.1831,8.1807c0,4.5049-3.6487,8.1755-8.1831,8.188l-6.96-0.0027v5.9724h6.9748
			c4.5196,0.0171,8.1683,3.6778,8.1683,8.19c-0.0074,4.507-3.6563,8.1755-8.1831,8.1826h-6.96v6.9089
			c0,1.5678,1.2727,2.7881,2.7881,2.7881H101.8c1.5184,0,2.7808-1.2176,2.7808-2.7881v-73.717
			C104.5808,25.5505,103.2943,24.3523,101.8,24.3523z M99.0046,98.0691H55.4221V29.9307h43.5825V98.0691z"/>
		<path fill="#ffffff" d="M80.988,82.3052c2.4358,1.1152,6.4563,1.6606,10.6944-0.7874c0.927-0.5381,1.25-1.7219,0.7119-2.6487
			l-5.686-9.8532c-0.5381-0.9344-1.6165-1.3181-2.6609-0.7141c-2.0906,1.2058-4.6587,2.5581-5.72,1.7363
			c-2.4467-1.8729-6.2202-8.2023-6.4981-11.1763c-0.1418-1.4941,2.2867-2.9004,4.3946-4.1184
			c1.042-0.5967,1.2473-1.7214,0.7094-2.6558l-5.6835-9.8508c-0.5381-0.9292-1.729-1.2449-2.656-0.7068
			c-4.0008,2.3135-5.6907,6.0994-6.0528,8.6282C61.3804,58.238,72.4403,78.3619,80.988,82.3052z"/>
		<path fill="#ffffff" d="M27.2854,67.3018H39.863c2.1475-0.0076,3.8765-1.7439,3.8765-3.8814c0-2.1423-1.729-3.8811-3.8765-3.8811
			H27.2854c-2.1448,0-3.8662,1.7388-3.8662,3.8811C23.4192,65.5579,25.1406,67.2942,27.2854,67.3018z"/>
		<path fill="#ffffff" d="M43.7395,85.7681c0-2.1377-1.729-3.8738-3.8765-3.8789H27.2854
			c-2.1448,0.0051-3.8662,1.7412-3.8662,3.8789c0,2.1421,1.7214,3.8813,3.8662,3.8813H39.863
			C42.0105,89.6494,43.7395,87.9102,43.7395,85.7681z"/>
		<path fill="#ffffff" d="M27.2854,44.9514H39.863c2.1475,0,3.8765-1.7363,3.8765-3.8789c0-2.1399-1.729-3.8735-3.8765-3.8811
			H27.2854c-2.1448,0.0076-3.8662,1.7412-3.8662,3.8811C23.4192,43.2151,25.1406,44.9514,27.2854,44.9514z"/>
	</g>
</g>
</svg>
