<?xml version="1.0" encoding="utf-8"?>
<!-- Generator: Adobe Illustrator 18.1.1, SVG Export Plug-In . SVG Version: 6.00 Build 0)  -->
<svg version="1.2" baseProfile="tiny" xmlns="http://www.w3.org/2000/svg" xmlns:xlink="http://www.w3.org/1999/xlink" x="0px"
	 y="0px" width="128px" height="128px" viewBox="0 0 128 128" xml:space="preserve">
<g id="_x31_28px_boxes">
	<rect fill="none" width="128" height="128"/>
</g>
<g id="Production">
	<g>
		<path fill="#ffffff" d="M58.4321,45.0349h12.5464l4.5803,5.7711c0.8227,1.0365,2.0732,1.6407,3.3962,1.6411l14.9844,0.0047
			c0,0,0.0007,0,0.0015,0c2.395,0,4.337-1.9412,4.3376-4.3363c0.0007-2.3957-1.9407-4.3383-4.3362-4.3391l-12.8901-0.0039
			l-4.8773-6.1452l4.8816-6.1421l12.8897,0.0038c0.0005,0,0.0005,0,0.0005,0c2.3955-0.0002,4.3378-1.9413,4.3384-4.3364
			c0.0007-2.3956-1.9407-4.3383-4.3363-4.3389l-14.9839-0.0046h-0.0013c-1.3225,0-2.5729,0.6034-3.3958,1.6388l-4.4531,5.6029
			H47.5746c1.5523,2.5829,2.0284,4.9405,2.1714,6.2181L58.4321,45.0349z"/>
		<path fill="#ffffff" d="M106.934,61.9656H68.5568L45.402,38.045c0.4826-4.3435-3.375-11.0562-10.7548-11.0562
			c-5.8196,0-10.5542,4.7345-10.5542,10.554c0,5.7372,4.6025,10.4166,10.3087,10.548L47.758,61.9656H21.0661
			c-5.9891,0-10.8445,4.8553-10.8445,10.8442c0,3.4205,1.5855,6.4693,4.0595,8.4569c3.4436-4.9472,9.1678-8.1939,15.6388-8.1939
			c7.451,0,13.9123,4.3029,17.04,10.5523c3.1282-6.2494,9.5894-10.5523,17.0403-10.5523c7.4507,0,13.9121,4.3029,17.04,10.552
			c3.1277-6.2491,9.5894-10.552,17.0401-10.552c6.4709,0,12.1953,3.2467,15.6389,8.1939c2.4739-1.9878,4.0592-5.0365,4.0592-8.4569
			C117.7784,66.8209,112.9232,61.9656,106.934,61.9656z"/>
		<path fill="#ffffff" d="M29.9199,79.0468c-7.208,0-13.0721,5.864-13.0721,13.072s5.8641,13.0721,13.0721,13.0721
			c7.2082,0,13.0722-5.8641,13.0722-13.0721S37.1281,79.0468,29.9199,79.0468z M29.9199,96.4139
			c-2.3684,0-4.2953-1.9267-4.2953-4.2951s1.9269-4.2953,4.2953-4.2953c2.3686,0,4.2956,1.9269,4.2956,4.2953
			S32.2885,96.4139,29.9199,96.4139z"/>
		<path fill="#ffffff" d="M64.0002,79.0468c-7.208,0-13.0724,5.864-13.0724,13.072s5.8644,13.0721,13.0724,13.0721
			c7.2081,0,13.0724-5.8641,13.0724-13.0721S71.2083,79.0468,64.0002,79.0468z M64.0002,96.4139
			c-2.3684,0-4.2954-1.9267-4.2954-4.2951s1.927-4.2953,4.2954-4.2953c2.3685,0,4.2954,1.9269,4.2954,4.2953
			S66.3687,96.4139,64.0002,96.4139z"/>
		<path fill="#ffffff" d="M98.0803,79.0468c-7.2083,0-13.0724,5.864-13.0724,13.072s5.8641,13.0721,13.0724,13.0721
			c7.208,0,13.0722-5.8641,13.0722-13.0721S105.2883,79.0468,98.0803,79.0468z M98.0803,96.4139
			c-2.3687,0-4.2957-1.9267-4.2957-4.2951s1.927-4.2953,4.2957-4.2953c2.3685,0,4.2954,1.9269,4.2954,4.2953
			S100.4488,96.4139,98.0803,96.4139z"/>
	</g>
</g>
</svg>
