<?xml version="1.0" encoding="utf-8"?>
<!-- Generator: Adobe Illustrator 18.1.1, SVG Export Plug-In . SVG Version: 6.00 Build 0)  -->
<svg version="1.2" baseProfile="tiny" xmlns="http://www.w3.org/2000/svg" xmlns:xlink="http://www.w3.org/1999/xlink" x="0px"
	 y="0px" width="128px" height="128px" viewBox="0 0 128 128" xml:space="preserve">
<g id="box">
	<rect fill="none" width="128" height="128"/>
</g>
<g id="Production">
	<g>
		<path fill="#ffffff" d="M42.1509,86.2297c8.9385,0,16.1855-10.8672,16.1855-21.916c0-11.048-7.247-18.0928-16.1855-18.0928
			c-8.9397,0-16.1865,7.0448-16.1865,18.0928C25.9644,75.3625,33.2112,86.2297,42.1509,86.2297z"/>
		<path fill="#ffffff" d="M54.6851,87.8794c-1.5118,4.8589-4.0865,11.5039-7.6372,14.9541
			c-0.7183-1.8735-1.5411-3.4668-2.388-4.5879c1.2053-1.6384,2.1629-3.9543,2.1629-5.2505c0-2.146-1.0313-3.8877-4.6727-3.8877
			c-3.6403,0-4.6721,1.7417-4.6721,3.8877c0,1.2959,0.9571,3.6118,2.1616,5.25c-0.833,1.1048-1.6445,2.667-2.3557,4.5059
			c-3.5131-3.4688-6.0893-10.0374-7.6162-14.876c-8.338,1.6257-20.9487,6.4406-20.9487,14.8442v4.94h66.8635v-4.94
			C75.5825,94.3231,63.0005,89.5191,54.6851,87.8794z"/>
		<path fill="#ffffff" d="M103.823,20.3408H57.9377c-8.5222,0-15.4553,6.9359-15.4553,15.4617v5.6285
			c1.9097,0.0059,3.7656,0.2668,5.5362,0.7586v-6.3871c0-5.4788,4.4401-9.9255,9.9191-9.9255h45.8853
			c5.4814,0,9.9216,4.4467,9.9216,9.9255v22.8529c0,5.4792-4.4402,9.9194-9.9216,9.9194H90.374L75.4355,83.8477l2.7994-15.2729
			H62.9792c-0.2692,1.8814-0.7058,3.74-1.3022,5.5363h9.915l-1.602,8.7385c-0.439,2.3943,0.738,4.7944,2.8996,5.9141
			c2.1619,1.1192,4.801,0.6954,6.504-1.0449l13.3098-13.6077h11.1196c8.5234,0,15.458-6.9334,15.458-15.4557V35.8025
			C119.281,27.2767,112.3464,20.3408,103.823,20.3408z"/>
		<path fill="#ffffff" d="M91.9456,61.9845c1.1118,0,2.0131-0.9012,2.0131-2.0131V48.5439
			c-5.5354-4.9231-1.9614-1.7444-11.7761-10.4736c-9.6113,8.5482-6.7617,6.0139-11.7763,10.4739v11.4272
			c0,1.1119,0.9013,2.0131,2.0131,2.0131h5.523c0-9.0112,0-0.8806,0-9.8337h8.4805c0,8.9359,0,0.8438,0,9.8337H91.9456z"/>
		<path fill="#ffffff" d="M97.7463,48.179c1.8379,0,2.7239-2.2856,1.3387-3.5175L83.5205,30.8186
			c-0.7627-0.6785-1.9131-0.6785-2.6758,0L65.2803,44.6615c-1.9873,1.7675,0.6853,4.7787,2.6758,3.0085
			c5.332-4.7423,8.9508-7.9608,14.2265-12.653c5.6997,5.0692,8.9618,7.9705,14.2266,12.653
			C96.7927,48.0112,97.2705,48.179,97.7463,48.179z"/>
	</g>
</g>
</svg>
