<?xml version="1.0" encoding="utf-8"?>
<!-- Generator: Adobe Illustrator 17.1.0, SVG Export Plug-In . SVG Version: 6.00 Build 0)  -->
<!DOCTYPE svg [
	<!ENTITY ns_flows "http://ns.adobe.com/Flows/1.0/">
	<!ENTITY ns_extend "http://ns.adobe.com/Extensibility/1.0/">
	<!ENTITY ns_ai "http://ns.adobe.com/AdobeIllustrator/10.0/">
	<!ENTITY ns_graphs "http://ns.adobe.com/Graphs/1.0/">
]>
<svg version="1.2" baseProfile="tiny" xmlns:x="&ns_extend;" xmlns:i="&ns_ai;" xmlns:graph="&ns_graphs;"
	 xmlns="http://www.w3.org/2000/svg" xmlns:xlink="http://www.w3.org/1999/xlink" xmlns:a="http://ns.adobe.com/AdobeSVGViewerExtensions/3.0/"
	 x="0px" y="0px" width="128px" height="128px" viewBox="0 0 128 128" xml:space="preserve">
<g id="_x31_28px_boxes">
	<rect fill="none" width="128" height="128"/>
</g>
<g id="Production">
	<g>
		<path fill="#ffffff" d="M48.3553,71.1527c-9.4629-1.5042-16.7199-9.7188-16.7199-19.5984
			c0-10.9434,8.9033-19.8467,19.8466-19.8467c11.8003,0,21.1369,10.3278,19.6968,22.2417c1.5189-0.1585,3.004-0.03,4.4072,0.344
			c3.7165-2.8474,8.7184-3.3486,12.897-1.1672V19.2809c0-2.0296-1.6456-3.6751-3.675-3.6751H18.1559
			c-2.0296,0-3.6751,1.6455-3.6751,3.6751v64.5473c0,2.0296,1.6455,3.6751,3.6751,3.6751h26.8407
			c3.1601-2.7576,6.745-3.3333,10.5991-3.2532L48.3553,71.1527z"/>
		<path fill="#ffffff" d="M110.5249,78.5995c-3-5.4305-5.3934-9.8006-7.036-12.8128c-1.6427-3.0122-2.5313-4.6587-2.5343-4.6633
			c-2.5922-4.7125-8.6778-5.4518-11.9629-1.8103c-3.2727-4.2758-9.4849-3.912-12.3378,0.3222
			c-3.248-2.1138-7.5942-1.5231-10.136,1.5289l-5.9626-10.7808c-2.1524-3.8396-7.0341-5.3998-11.0343-3.1607
			c-4,2.215-5.2899,7.1935-3.1587,11.024c18.3586,33.2087,16.1883,29.2865,17.1691,31.0481
			c-3.4874-0.4495-6.5655-0.5262-9.0025-0.563c-0.0456-0.0008-0.1142-0.0022-0.1987-0.0022
			c-5.4583-0.0143-8.788,3.548-8.8463,7.2346c0,0.0413-0.0009,0.094-0.0009,0.1455c-0.025,4.0124,2.4107,7.0001,7.1113,7.519
			c10.7957,1.2158,13.8698,2.8768,19.4311,5.4278c9.4423,4.3228,16.1979,4.7214,27.2132-0.4312
			C112.2803,102.5224,117.2533,90.7842,110.5249,78.5995z M97.1167,104.087c-11.3144,5.2822-16.7108,3.2919-23.0075,0.4143
			c-5.5774-2.5429-9.0844-4.5034-20.9505-5.8511c-2.1789-0.2579-2.6477-1.024-2.6659-2.5405v-0.0688
			c0-1.0855,1.4845-2.3909,3.953-2.2998c3.5455,0.0517,8.1446,0.1962,13.2745,1.3847c2.1088,0.4895,3.8096-1.7634,2.7544-3.6587
			c-4.2119-7.5651-0.7571-1.3278-19.7314-35.6511c-2.0021-3.5846,3.4776-6.6121,5.4303-3.0039
			c0.0796,0.1439,14.8111,26.7789,14.8902,26.9246c1.5625,2.8735,6.0218,0.5665,4.4011-2.3933l-5.3916-9.9097
			c-1.7438-3.173,3.035-5.751,4.7441-2.6389c0.0486,0.0891,1.7182,3.1533,6.503,11.9343c1.5246,2.8002,6.0985,0.7165,4.2788-2.6172
			c-0.0141-0.0278-0.0254-0.0564-0.0406-0.0845l-4.7622-8.7656l-0.0141-0.0264c-1.7435-3.1287,2.715-5.6727,4.4864-2.4897
			c6.4637,11.8054,5.6203,10.2614,6.2304,11.3901c1.5285,2.8266,6.1198,0.7356,4.2574-2.6694h-0.001
			c-0.5399-0.9857-0.0127-0.0152-3.1095-5.7425l-0.0166-0.03c-1.8299-3.278,2.2857-5.1856,3.9253-2.1748
			c-0.0053-0.0102,3.5758,6.626,9.5839,17.501C111.5724,90.8841,107.2337,99.3558,97.1167,104.087z"/>
	</g>
</g>
</svg>
