<?xml version="1.0" encoding="utf-8"?>
<!-- Generator: Adobe Illustrator 18.1.1, SVG Export Plug-In . SVG Version: 6.00 Build 0)  -->
<svg version="1.2" baseProfile="tiny" xmlns="http://www.w3.org/2000/svg" xmlns:xlink="http://www.w3.org/1999/xlink" x="0px"
	 y="0px" width="64px" height="64px" viewBox="0 0 64 64" xml:space="preserve">

<g id="Production">
	<g>
		<path fill="#ffffff" d="M60.5083,44L48.8096,7c-14.603,0-17.343,0-33.6191,0L3.4917,44C10.461,44,53.6814,44,60.5083,44z
			 M23.9688,42l1.8105-17h12.4414l1.8105,17H23.9688z M42.0428,42l-1.8109-17h12.1718l5.3751,17H42.0428z M47.3447,9l4.4266,14
			H40.0189L38.5275,9H47.3447z M36.5166,9l1.4911,14H25.9923l1.4911-14H36.5166z M16.6553,9h8.8172l-1.4913,14H12.2287L16.6553,9z
			 M6.2212,42l5.3751-17h12.1718l-1.8109,17H6.2212z"/>
		<polygon fill="#ffffff" points="33,46 31,46 31,55 20,55 20,57 44,57 44,55 33,55 		"/>
	</g>
</g>
</svg>
