<?xml version="1.0" encoding="utf-8"?>
<!-- Generator: Adobe Illustrator 18.1.1, SVG Export Plug-In . SVG Version: 6.00 Build 0)  -->
<svg version="1.2" baseProfile="tiny" xmlns="http://www.w3.org/2000/svg" xmlns:xlink="http://www.w3.org/1999/xlink" x="0px"
	 y="0px" width="128px" height="128px" viewBox="0 0 128 128" xml:space="preserve">
<g id="box">
	<rect fill="none" width="128" height="128"/>
</g>
<g id="Production">
	<g>
		<path fill="#ffffff" d="M103.3635,32.7399c-19.6087,19.5402-32.742,52.3369-43.3101,58.5232
			c-10.5681,6.1862-19.0742-1.0306-19.332-5.9278c0,0-10.9976,5.1809-18.356,8.6621c-8.6372,4.0865-10.8525,6.6617-10.2969,10.648
			c0.5586,4.0083,4.5225,5.5693,12.6704,5.5693c5.1485,0,25.0108,0,30.1595,0c8.7636,0,12.3723-3.2253,16.3777-7.7229
			c5.2202-5.8611,9.4397-13.9524,16.0349-21.7842c6.482-7.6977,11.8425-5.1948,11.7375,1.0809
			c-0.0947,5.6696-0.0669,28.2919-0.0669,28.2919h7.2152c0,0-1.0814-24.1079,1.7082-33.1521
			c2.5269-8.1926,7.5603-12.7568,8.0731-20.9169C116.4806,48.015,111.3011,36.3214,103.3635,32.7399z"/>
		<path fill="#ffffff" d="M24.5038,45.6364l29.2068,15.4328c1.0567,0.5584,2.2915,0.6743,3.4336,0.3215l14.8191-4.5747
			c2.3735-0.7333,3.7122-3.2534,2.9754-5.6357l-4.5704-14.781c-0.353-1.1414-1.144-2.0952-2.2002-2.6531L38.9396,18.3077
			c-2.2002-1.1621-4.9255-0.3205-6.0879,1.8794L22.6249,39.548C21.4628,41.7484,22.3039,44.4738,24.5038,45.6364z M59.6374,46.7211
			c0.99-1.8738,3.31-2.5894,5.1824-1.5999c1.8732,0.989,2.59,3.3091,1.6008,5.1821c-0.9895,1.8726-3.3098,2.5892-5.1831,1.5999
			C59.3647,50.9139,58.6484,48.5939,59.6374,46.7211z"/>
	</g>
</g>
</svg>
