<?xml version="1.0" encoding="utf-8"?>
<!-- Generator: Adobe Illustrator 18.1.0, SVG Export Plug-In . SVG Version: 6.00 Build 0)  -->
<svg version="1.2" baseProfile="tiny" xmlns="http://www.w3.org/2000/svg" xmlns:xlink="http://www.w3.org/1999/xlink" x="0px"
	 y="0px" width="64px" height="64px" viewBox="0 0 64 64" xml:space="preserve">
<g id="_x36_4px_boxes">
	<rect fill="none" width="64" height="64"/>
</g>
<g id="Production">
	<g>
		<path fill="#ffffff" d="M12,13.4882C12,12.1098,13.062,11,14.4404,11h34.001C49.8199,11,51,12.1098,51,13.4882v12.157
			c2,0.819,3,1.7592,5,2.8094V13.4882C56,9.3525,52.5773,6,48.4414,6h-34.001C10.3046,6,7,9.3525,7,13.4882v14.9664
			c1-1.0502,3-1.9904,5-2.8094V13.4882z"/>
		<path fill="#ffffff" d="M48.588,28.9786c2.874-9.0408-10.213-16.0122-17.1324-9.2811
			c-6.9437-6.7542-19.9614,0.2662-17.0956,9.2812C9.1973,31.0817,4,34.9359,4,40.4879V57c1.3353,0,1.8825,0,2.0869,0
			c0.0826,0,0.1121,0,0.1104,0C6.4375,57,7.1439,57,9,57c0-6,0-10.5499,0-16.5121c0-3.4908,5.1953-6.1449,8.4852-7.3097
			C33.1225,27.6422,54,33.391,54,40.4879c0,2.3547,0,2.9286,0,3.0463c0,0.0238,0,0.0312,0,0.0285c0,0.1244,0,0.7556,0,3.4373
			c-11,0-19,0-41,0v5c14,0,18,0,41,0v5c1.3353,0,1.8825,0,2.0869,0c0.0826,0,0.1121,0,0.1104,0c0.2402,0,0.9467,0,2.8027,0V40.4879
			C59,34.9367,53.7618,31.0864,48.588,28.9786z M28.8477,26.0489c-3.5159,0.1581-6.8014,0.6356-9.7601,1.382
			c-0.8464-2.6624,2.1744-5.3828,5.4679-5.3828C27.0796,22.0481,29.3019,23.6301,28.8477,26.0489z M43.7943,27.4309
			c-2.9586-0.7464-6.2441-1.2238-9.7598-1.382c-0.3496-1.8638,0.9095-3.2421,2.6881-3.772
			C40.5377,21.1402,44.7769,24.3399,43.7943,27.4309z"/>
	</g>
</g>
</svg>

