<?xml version="1.0" encoding="utf-8"?>
<!-- Generator: Adobe Illustrator 18.1.1, SVG Export Plug-In . SVG Version: 6.00 Build 0)  -->
<svg version="1.2" baseProfile="tiny" xmlns="http://www.w3.org/2000/svg" xmlns:xlink="http://www.w3.org/1999/xlink" x="0px"
	 y="0px" width="128px" height="128px" viewBox="0 0 128 128" xml:space="preserve">
<g id="_x31_28px_boxes" display="none">
	<rect display="inline" fill="none" width="128" height="128"/>
</g>
<g id="Production">
	<g>
		<path fill="#ffffff" d="M47.8006,66.9883c-0.2998-0.1895-3.5005-1.5455-3.4907-1.6821c-0.0553,0.736,0.7708,1.773,1.52,2.9805
			c1.2014,0.4964,2.4105,1.0503,3.6361,1.4544C49.5418,68.4644,48.9335,67.7026,47.8006,66.9883z"/>
		<polygon fill="#ffffff" points="49.9428,71.1421 51.8912,71.9047 54.7062,71.9047 54.9218,71.1421 50.8089,69.8101 		"/>
		<path fill="#ffffff" d="M64,120.5479c24.3306,0,44.125-19.7944,44.125-44.1251c0-11.2683-4.2479-21.5618-11.2236-29.3684
			c-1.3433,1.5217-2.7067,2.9374-4.0391,4.4355c-0.0073,0.0084-0.0141,0.0167-0.0216,0.0249
			c3.2358,3.7415,5.7558,8.1173,7.3492,12.9125c-3.5884,1.8673-5.0846,3.5812-5.2906,9.9658
			C98.6495,83.215,99.5432,85.7539,94,93.9228l1.1238,4.495c-6.9123,9.7523-18.287,16.1301-31.1238,16.1301
			c-25.012,0-43.4486-23.8944-36.7672-48.2152c0.7821,1.054,1.3839,2.0404,1.9186,2.4969c1.7811,1.5219,3.6926,2.7075,4.1378,2.3158
			c0.3231-0.2841-1.1288-1.2181-1.7555-2.0951c-1.5637-2.188-2.5719-2.687-0.7817-3.7891c1.8057,3.1757,2.217,3.4756,3.9383,5.207
			c0.7123,0.7169,0.6038,2.045,1.3307,2.4615c2.6601,1.5239,5.0461,2.02,5.0461,2.02c1.3558,1.987,2.1057,2.9381,3.4637,3.2369
			l1.2991-0.1906c0,0,0.4275,2.2775,0.4323,2.3038c-0.0292-0.1592-2.9185,1.143-3.0942,1.75
			c-0.4548,1.5652,2.9076,6.1971,3.9076,7.0268c1.8698,1.5504,5.5036,1.3607,6.652,3.4852
			c1.6133,2.9846,1.961,11.9777,3.1347,14.0896c1.9494,3.5092,1.9268,5.3876,6.3948,3.3076
			c2.1726-1.0113,4.1519-9.9293,6.0716-11.1978c1.7761-1.1742,1.3442-2.6459,3.4265-2.982
			c5.7624-0.9306,4.9485-7.1738,4.9485-10.6494c-4.5303-1.6068-4.294-2.5126-9.1268-3.2181
			c-0.9314-0.6217-1.8464-2.256-1.5583-2.8272c-1.0001-0.3896-9.1842-2.7078-15.939-2.793c-3.0705-0.038-4.0688,0.997-6.9817-0.5792
			c-1.941,0.2423-1.4,0.8718-1.8127-3.2464c-0.2134-2.0635-0.5758-1.9624-2.7336-3.2276c0.5772-1.2672,1.155-2.5391,1.7316-3.8071
			c-1.9714-0.8789-2.8991-0.0494-4.763,0.7606c-0.3111-2.7402-1.979-8.581,3.7999-8.2909c1.6275,0.081,3.8026,1.5658,5.2937,2.1991
			c-0.0727,1.3327-0.1446,2.6661-0.2175,3.9981c0.7939,0.1904,1.588,0.3809,2.3823,0.5713c0.5244-6.122-1.5086-4.79,4.7632-7.4242
			c0.0562-2.6356-1.2196-2.9887,10.8237-6.0558c-4.3902-4.8881-9.0724-8.9788-10.6468-17.4274
			C33.8357,38.7596,19.875,55.9904,19.875,76.4228C19.875,100.7618,39.6891,120.5479,64,120.5479z"/>
		<path fill="#ffffff" d="M66.9996,48.4994c6.3007,7.0846,7.3602,13.5835,8.1557,21.8506c0.3913,4.0625,5.7969,4.0708,6.1887,0
			c0.7957-8.2671,1.8554-14.766,8.1557-21.8506c4.5482-5.1147,10.2292-9.7398,10.2292-19.5726
			c0-11.8413-9.5926-21.4747-21.4757-21.4747c-11.8828,0-21.4827,9.6334-21.4827,21.4747
			C56.7705,38.7485,62.4325,43.3635,66.9996,48.4994z M78.2189,19.6288c5.1447,0,9.3151,4.1705,9.3151,9.315
			c0,5.144-4.1704,9.3149-9.3151,9.3149c-5.1444,0-9.3153-4.1709-9.3153-9.3149C68.9036,23.7993,73.0745,19.6288,78.2189,19.6288z"
			/>
	</g>
</g>
</svg>
