<?xml version="1.0" encoding="utf-8"?>
<!-- Generator: Adobe Illustrator 18.1.1, SVG Export Plug-In . SVG Version: 6.00 Build 0)  -->
<svg version="1.2" baseProfile="tiny" xmlns="http://www.w3.org/2000/svg" xmlns:xlink="http://www.w3.org/1999/xlink" x="0px"
	 y="0px" width="128px" height="128px" viewBox="0 0 128 128" xml:space="preserve">
<g id="box">
	<rect fill="none" width="128" height="128"/>
</g>
<g id="Production">
	<g>
		<path fill="#ffffff" d="M57.5243,23.3834H20.9247c-2.0977,0-3.7979,1.7002-3.7979,3.7979v73.6374
			c0,2.0977,1.7002,3.7979,3.7979,3.7979h36.5996c2.0976,0,3.7978-1.7002,3.7978-3.7979V27.1813
			C61.3221,25.0836,59.6219,23.3834,57.5243,23.3834z M49.0031,89.3324c0,0.8262-0.6702,1.4963-1.4961,1.4963
			c-0.0022-0.0005-0.0042-0.0005-0.0064,0h-4.1511c-0.9561,0-1.666-0.8875-1.4614-1.8173l1.0991-4.9991
			c-1.5513-0.8598-2.6021-2.5119-2.6021-4.4111c0-2.7842,2.2569-5.0415,5.0415-5.0415c2.7845,0,5.0415,2.2573,5.0415,5.0415
			c0,1.8984-1.0503,3.5505-2.6008,4.4102C47.9139,84.2241,49.0031,89.1155,49.0031,89.3324z M48.4779,60.306H29.9711
			c-1.2388,0-2.2427-1.0044-2.2427-2.2429c0-1.2388,1.0039-2.2429,2.2427-2.2429h18.5068c1.239,0,2.2429,1.0041,2.2429,2.2429
			C50.7208,59.3016,49.7169,60.306,48.4779,60.306z M48.4779,49.4523H29.9711c-1.2388,0-2.2427-1.0039-2.2427-2.2425
			c0-1.239,1.0039-2.2429,2.2427-2.2429h18.5068c1.239,0,2.2429,1.0039,2.2429,2.2429
			C50.7208,48.4484,49.7169,49.4523,48.4779,49.4523z M48.4779,38.5983H29.9711c-1.2388,0-2.2427-1.0039-2.2427-2.2427
			c0-1.239,1.0039-2.2429,2.2427-2.2429h18.5068c1.239,0,2.2429,1.0039,2.2429,2.2429
			C50.7208,37.5944,49.7169,38.5983,48.4779,38.5983z"/>
		<path fill="#ffffff" d="M107.0756,23.3834H70.476c-2.0977,0-3.7986,1.7002-3.7986,3.7979v73.6374
			c0,2.0977,1.7009,3.7979,3.7986,3.7979h36.5996c2.0976,0,3.7976-1.7002,3.7976-3.7979V27.1813
			C110.8732,25.0836,109.1732,23.3834,107.0756,23.3834z M98.5538,89.3324c0,0.8262-0.6699,1.4963-1.4963,1.4963h-0.0061H92.901
			c-0.957,0-1.666-0.8864-1.4614-1.8173l1.0991-4.9996c-1.5515-0.8596-2.6028-2.5114-2.6028-4.4106
			c0-2.7842,2.2583-5.0415,5.042-5.0415c2.7847,0,5.0415,2.2573,5.0415,5.0415c0,1.8989-1.0505,3.5505-2.6013,4.4104
			C97.4652,84.2271,98.5538,89.1127,98.5538,89.3324z M98.0294,60.306H79.5226c-1.239,0-2.2432-1.0044-2.2432-2.2429
			c0-1.2388,1.0042-2.2429,2.2432-2.2429h18.5068c1.2385,0,2.2427,1.0041,2.2427,2.2429
			C100.2721,59.3016,99.2679,60.306,98.0294,60.306z M98.0294,49.4523H79.5226c-1.239,0-2.2432-1.0039-2.2432-2.2425
			c0-1.239,1.0042-2.2429,2.2432-2.2429h18.5068c1.2385,0,2.2427,1.0039,2.2427,2.2429
			C100.2721,48.4484,99.2679,49.4523,98.0294,49.4523z M98.0294,38.5983H79.5226c-1.239,0-2.2432-1.0039-2.2432-2.2427
			c0-1.239,1.0042-2.2429,2.2432-2.2429h18.5068c1.2385,0,2.2427,1.0039,2.2427,2.2429
			C100.2721,37.5944,99.2679,38.5983,98.0294,38.5983z"/>
	</g>
</g>
</svg>
