<?xml version="1.0" encoding="utf-8"?>
<!-- Generator: Adobe Illustrator 18.1.1, SVG Export Plug-In . SVG Version: 6.00 Build 0)  -->
<svg version="1.2" baseProfile="tiny" xmlns="http://www.w3.org/2000/svg" xmlns:xlink="http://www.w3.org/1999/xlink" x="0px"
	 y="0px" width="128px" height="128px" viewBox="0 0 128 128" xml:space="preserve">
<g id="_x31_28px_boxes">
	<rect fill="none" width="128" height="128"/>
</g>
<g id="Production">
	<g>
		<path fill="#ffffff" d="M98.8928,105.378h19.146c0-8.7029-7.0578-15.7634-15.7641-15.7634c-4.3045,0-8.2044,1.7285-11.0491,4.5264
			C94.7681,97.0355,97.4668,100.9244,98.8928,105.378z"/>
		<circle fill="#ffffff" cx="102.2761" cy="76.5047" r="9.5752"/>
		<circle fill="#ffffff" cx="49.9065" cy="76.5047" r="9.5752"/>
		<circle fill="#ffffff" cx="76.1309" cy="75.3328" r="12.3748"/>
		<path fill="#ffffff" d="M96.5027,112.6497c0-14.4659-14.6848-24.3169-28.052-18.8689l0.01-0.0251l-21.4194,9.2803
			c0,0-18.6162-44.8549-18.6182-44.8596c21.9705,5.6873,31.9163-1.0614,40.3604-11.9355
			c8.7839-11.3123,18.3758-15.9415,38.1335-5.5522c1.0069,0.5293,2.1073-0.5483,1.596-1.5667l-6.5547-13.0434
			c-1.8933-3.9033-16.8237-10.7283-27.3448-10.7283c-20.0751,0-28.0798,25.2795-57.4209,13.8212
			c-2.2198-0.8672-3.199-1.8218-5.0578-1.0502c-1.7971,0.7458-2.6494,2.8072-1.9036,4.6042l33.1426,79.9242H96.5027z"/>
	</g>
</g>
</svg>
