<?xml version="1.0" encoding="utf-8"?>

<svg version="1.2" baseProfile="tiny" xmlns="http://www.w3.org/2000/svg" xmlns:xlink="http://www.w3.org/1999/xlink" x="0px"
	 y="0px" width="128px" height="128px" viewBox="0 0 128 128" xml:space="preserve">
<g id="_x31_28px_boxes">
	<rect fill="none" width="128" height="128"/>
</g>
<g id="Production">
	<g>
		<g>
			<path fill="#ffffff" d="M104.9798,23.0208c-9.0258-9.0263-23.4577-9.3778-32.2415-0.5941
				c-4.7797,4.78-6.1737,9.1694-7.522,13.4144c-0.7515,2.3667-1.5168,4.7723-2.9147,7.4461l-1.9802-1.9804
				c-3.7911-3.7892-9.925-3.79-13.7172,0.001c-3.7811,3.7822-3.781,9.9359,0.0004,13.7179l26.3707,26.3698
				c3.7891,3.7896,9.9253,3.7926,13.7164,0.0005c3.7913-3.7893,3.7919-9.9255,0.0005-13.7169l-1.9649-1.9649
				c2.6343-1.3675,5.0153-2.1287,7.3585-2.877c4.2706-1.3642,8.6865-2.7747,13.4876-7.5757
				C114.3375,46.4973,114.0352,32.0752,104.9798,23.0208z M55.7701,50.4736c-0.85,0.85-1.4462,1.8446-1.7834,2.8732l-2.8515-2.8514
				c-1.2839-1.284-1.2839-3.3735-0.0004-4.6573c1.2886-1.2883,3.372-1.2848,4.6568-0.0005l2.8519,2.8522
				C57.6149,49.0269,56.6203,49.6234,55.7701,50.4736z M81.5112,31.1997c-6.2472,6.2472-5.0588,12.5388-9.9947,21.3026
				l-4.5128-4.5128c2.3203-3.9169,3.385-7.2679,4.3191-10.209c1.268-3.9929,2.2696-7.1469,5.9461-10.8234
				c2.9074-2.9074,6.8298-4.5085,11.0449-4.5085c2.8876,0,5.6821,0.7373,8.1817,2.1201
				C91.4825,24.5074,85.924,26.7868,81.5112,31.1997z"/>
			<path fill="#ffffff" d="M45.2673,90.921c-1.7065,1.7064-2.9052,2.0015-4.2933,2.3432c-1.3307,0.3274-2.9867,0.7349-4.5,2.2485
				c-2.8573,2.8573-1.5445,5.3902-4.2654,8.1104c-1.188,1.1881-2.7235,1.8716-4.3235,1.9249
				c-3.1334,0.1086-5.5379-2.2845-5.4331-5.4329c0.0532-1.6002,0.7368-3.1355,1.9246-4.3234
				c2.7262-2.7262,5.2483-1.4025,8.1114-4.2655c1.5132-1.5136,1.9207-3.1695,2.2481-4.5002
				c0.3415-1.3881,0.6364-2.5869,2.3429-4.2935l15.4832-15.4828l-4.5303-4.5303L32.5486,78.2023
				c-2.9704,2.9705-3.6105,5.5718-4.0339,7.293c-0.4005,1.6275-0.3546,1.6445-2.1365,2.1316
				c-1.5882,0.4343-3.9882,1.0908-6.5321,3.6347c-4.8804,4.8804-5.1181,12.6255-0.4255,17.3176
				c4.6824,4.6826,12.4308,4.4615,17.3181-0.4255c2.5438-2.5434,3.2003-4.9433,3.6348-6.5315
				c0.4868-1.7796,0.5016-1.7355,2.1316-2.1368c1.7212-0.4235,4.3223-1.0638,7.2924-4.0338
				c1.2662-1.2661,9.5078-9.5076,15.4833-15.4828l-4.5305-4.5305C54.775,81.4134,46.5337,89.6549,45.2673,90.921z"/>
		</g>
	</g>
</g>
</svg>
