<?xml version="1.0" encoding="utf-8"?>
<!-- Generator: Adobe Illustrator 18.1.1, SVG Export Plug-In . SVG Version: 6.00 Build 0)  -->
<svg version="1.2" baseProfile="tiny" xmlns="http://www.w3.org/2000/svg" xmlns:xlink="http://www.w3.org/1999/xlink" x="0px"
	 y="0px" width="128px" height="128px" viewBox="0 0 128 128" xml:space="preserve">
<g id="_x31_28px_boxes">
	<rect fill="none" width="128" height="128"/>
</g>
<g id="Production">
	<g>
		<path fill="#ffffff" d="M68.1198,67.0845c-8.063,0.0121-14.5862,6.5392-14.6023,14.5899
			c0.0161,8.065,6.5393,14.5841,14.6023,14.6042c8.0568-0.0201,14.5778-6.5392,14.5898-14.6042
			C82.6976,73.6176,76.1766,67.0966,68.1198,67.0845z"/>
		<path fill="#ffffff" d="M89.7721,59.9012h-4.4436L79.6542,51.84c-0.4141-0.5926-1.0989-0.9533-1.8208-0.9533H58.41
			c-0.728,0-1.4128,0.3607-1.831,0.9533l-5.6699,8.0612H47.87v-0.0637c0-1.6877-1.3699-3.0573-3.0596-3.0573h-5.6638
			c-1.6855,0-3.0574,1.3696-3.0574,3.0573v0.289c-4.7021,0.9823-8.2373,5.1513-8.2373,10.1527v33.6803
			c0,5.7334,4.6426,10.3781,10.3699,10.3781h51.5503c5.7317,0,10.376-4.6447,10.376-10.3781V70.2792
			C100.1481,64.5458,95.5038,59.9012,89.7721,59.9012z M38.9088,74.9135c-2.1428,0-3.8757-1.7308-3.8757-3.8716
			c0-2.1386,1.7329-3.8695,3.8757-3.8695c2.1348,0,3.8716,1.7309,3.8716,3.8695C42.7804,73.1827,41.0436,74.9135,38.9088,74.9135z
			 M68.1198,101.4731c-10.9317,0-19.7925-8.8609-19.7986-19.7987c0.0061-10.9235,8.8669-19.7841,19.7986-19.7924
			c10.9316,0.0083,19.7863,8.8689,19.7902,19.7924C87.91,92.6122,79.0514,101.4731,68.1198,101.4731z"/>
		<path fill="#ffffff" d="M55.5795,36.678l4.9809,10.4468h14.751l4.9812-10.4465c3.0884-1.2252,5.2788-4.2401,5.2788-7.7592v-6.9112
			c0-4.6018-3.7439-8.3455-8.3457-8.3455H58.6469c-4.6016,0-8.3453,3.7437-8.3453,8.3455v6.9112
			C50.3016,32.4379,52.4918,35.4528,55.5795,36.678z M55.5511,22.0079c0-1.7071,1.3887-3.096,3.0958-3.096h18.5788
			c1.7073,0,3.0962,1.3889,3.0962,3.096v6.9112c0,1.7072-1.3889,3.096-3.0962,3.096H58.6469c-1.7071,0-3.0958-1.3888-3.0958-3.096
			V22.0079z"/>
	</g>
</g>
</svg>
