<?xml version="1.0" encoding="utf-8"?>
<!-- Generator: Adobe Illustrator 18.1.0, SVG Export Plug-In . SVG Version: 6.00 Build 0)  -->
<svg version="1.2" baseProfile="tiny" xmlns="http://www.w3.org/2000/svg" xmlns:xlink="http://www.w3.org/1999/xlink" x="0px"
	 y="0px" width="64px" height="64px" viewBox="0 0 64 64" xml:space="preserve">
<g id="_x36_4px_boxes">
	<rect fill="none" width="64" height="64"/>
</g>
<g id="Production">
	<g>
		<path fill="#ffffff" d="M51.9233,18H45v-6.5118C45,9.003,42.9084,7,40.423,7H23.4225C20.9372,7,19,9.003,19,11.4882V18h-7.0778
			C8.0562,18,5,21.1221,5,24.9881v22.9997C5,51.8538,8.0562,55,11.9222,55h1c0,4,6.0002,4,6.0002,0h26.0007c0,4,6.0002,4,6.0002,0h1
			C55.7895,55,59,51.8538,59,47.9878V24.9881C59,21.1221,55.7895,18,51.9233,18z M54,47.9878C54,49.0923,53.028,50,51.9233,50
			H11.9222C10.8176,50,10,49.0923,10,47.9878V24.9881C10,23.8835,10.8176,23,11.9222,23H24V12h16v6H28v5h23.9233
			C53.028,23,54,23.8835,54,24.9881V47.9878z"/>
		<circle fill="#ffffff" cx="43" cy="37.9999" r="4.9999"/>
		<path fill="#ffffff" d="M26.6695,29.1594c-0.4579-1.0052-1.644-1.4489-2.6493-0.991l-7.2804,3.3163
			c-1.0052,0.4579-1.4489,1.6439-0.9909,2.6491l2.0728,4.5501c0.4579,1.0052,1.644,1.4489,2.6492,0.991l7.2804-3.3164
			c1.0052-0.4578,1.4489-1.6439,0.991-2.6491L26.6695,29.1594z"/>
	</g>
</g>
</svg>

