<?xml version="1.0" encoding="utf-8"?>

<svg version="1.2" baseProfile="tiny" xmlns="http://www.w3.org/2000/svg" xmlns:xlink="http://www.w3.org/1999/xlink" x="0px"
	 y="0px" width="128px" height="128px" viewBox="0 0 128 128" xml:space="preserve">
<g id="_x31_28px_boxes">
	<rect fill="none" width="128" height="128"/>
</g>
<g id="Production">
	<g>
		<path fill="#ffffff" d="M12.4043,93.9281h35.7524c0.3179-3.2275,0.8284-6.7938,1.6294-10.5H15.386L12.4043,93.9281z"/>
		<path fill="#ffffff" d="M59.3682,60.4294h-37.451l-2.9817,10.5h34.6966C55.1411,67.2926,57.0234,63.7331,59.3682,60.4294z"/>
		<path fill="#ffffff" d="M114.9558,50.5926c-1.3025-2.2272-4.1636-2.9765-6.3906-1.6741
			C95.5669,56.5207,81.115,71.8801,70.8059,88.4332c-0.2705,0.4345-1.0251,0.1847-0.8962-0.371
			c0.0432-0.1862,4.2668-17.7836,19.2273-33.1186c-8.3536-2.6798-17.7195-0.2993-23.3755,6.5787
			c-10.1358,12.3257-13.2701,33.0798-12.2088,46.695c0.0718,0.9301,0.8167,1.6659,1.7476,1.7265
			c19.3138,1.2247,39.8941-8.9198,46.2009-23.9898c3.7215-8.8924,1.3123-16.83-0.0781-20.1491
			c3.6738-3.5836,9.2859-7.3169,11.8586-8.8217C115.5088,55.6807,116.2583,52.8195,114.9558,50.5926z"/>
		<path fill="#ffffff" d="M91.863,31.2339c0-2.7671-1.7036-13.8876-18.6411-13.2001c-4.1501,0.4422-4.0974,5.5212-0.4062,6.2187
			c6.4001,1.2095,8.5473,4.493,8.5473,6.9814c0,3.7065-3.1345,6.1968-7.7998,6.1968h-45.115l-2.9816,10.5h48.0966
			C84.4303,47.9307,91.863,40.4536,91.863,31.2339z"/>
	</g>
</g>
</svg>
