<?xml version="1.0" encoding="utf-8"?>
<!-- Generator: Adobe Illustrator 18.1.1, SVG Export Plug-In . SVG Version: 6.00 Build 0)  -->
<svg version="1.2" baseProfile="tiny" xmlns="http://www.w3.org/2000/svg" xmlns:xlink="http://www.w3.org/1999/xlink" x="0px"
	 y="0px" width="128px" height="128px" viewBox="0 0 128 128" xml:space="preserve">
<g id="_x31_28px_boxes">
	<rect fill="none" width="128" height="128"/>
</g>
<g id="Production">
	<g>
		<path fill="#ffffff" d="M13.0169,34.101c-6.2689,2.0381-7.5747,6.7686,2.9499,11.6059c-7.5299,4.2935-7.8124,9.411,4.2513,10.8518
			c-6.5682,5.9551-5.9518,10.1618,7.5888,9.2969c-6.4403,11.4636,4.7783,9.3138,16.7251,6.6182
			c-1.0078,2.6081-1.9116,5.7673-1.7173,8.2493c-5.1208-1.1663-10.3496,3.9438-12.8767,7.5832
			c-2.075,2.9903,2.4431,6.1571,4.5393,3.157c4.6819-6.703,10.056-7.1306,7.6465-1.1482c-1.4036,3.3706,3.6961,5.4996,5.1045,2.124
			c0.7935-1.9062,1.4326-5.0471,0.3975-7.6787c2.9194-0.1746,7.0884-1.7622,10.0493-3.0564
			c-1.7315,9.7629-9.1904,14.9268-9.5508,15.1699c-0.8847,0.5943-1.0919,1.8277-0.4175,2.6768
			c3.314,4.1811,9.7144,6.991,15.9278,6.991c6.2152,0,12.616-2.8099,15.9276-6.991c0.657-0.8325,0.4811-2.0668-0.4156-2.6748
			c-0.3671-0.2466-7.9863-5.5349-9.6025-15.5174c2.9644,1.3335,7.644,3.2112,10.8315,3.4019
			c-1.0366,2.6316-0.3955,5.7725,0.396,7.6787c1.3844,3.3232,6.4837,1.2863,5.1104-2.1113
			c-2.4722-6.1327,3.0877-5.3777,7.6387,1.1318c2.0851,3.0013,6.629-0.15,4.5434-3.1533
			c-2.5307-3.6433-7.7612-8.7495-12.8769-7.5832c0.1909-2.4839-0.711-5.6412-1.7193-8.2493
			c12.5457,2.8304,23.0358,4.6295,16.7251-6.6182c13.567,0.8677,14.1422-3.3551,7.5889-9.2969
			c12.1026-1.4454,11.7395-6.58,4.2534-10.8518c10.4753-4.8169,9.2504-9.556,2.9483-11.6059
			c5.5332-4.5862,5.2592-10.6018,5.2412-10.9058c-0.0684-1.1632-1.1815-1.9647-2.295-1.6777l-30.5107,7.7651
			c-1.0435,0.2633-1.6361,1.3654-1.2886,2.3831c5.651,16.4775-2.2638,23.1506-6.9931,23.1506
			c-5.9614,0-5.4639-9.0729-4.8472-15.0293c0.6878-6.5639,1.9679-16.2925-9.0101-17.4092
			c-6.7232-0.6982-9.5992,3.2618-10.5318,6.1665c-5.3899-0.2399-8.8781,3.177-7.6714,10.3338
			c0.195,1.1708,1.7057,1.5737,2.45,0.6228c1.2675-1.6197,4.4964-2.9342,6.0964-1.3052c2.8425,2.8986,0.7695,16.6206-6.7607,16.6206
			c-4.7376,0-12.6441-6.6776-6.9946-23.1506c0.3464-1.0216-0.2457-2.1198-1.2886-2.3831l-30.5093-7.7651
			c-1.0991-0.2872-2.225,0.503-2.2949,1.6777C7.7574,23.4992,7.4837,29.5148,13.0169,34.101z M63.2337,29.7128
			c1.458,0,2.638,1.1448,2.638,2.5596c0,1.4131-1.18,2.5576-2.638,2.5576s-2.6389-1.1445-2.6389-2.5576
			C60.5948,30.8576,61.7757,29.7128,63.2337,29.7128z"/>
	</g>
</g>
</svg>
