<?xml version="1.0" encoding="utf-8"?>
<!-- Generator: Adobe Illustrator 19.1.0, SVG Export Plug-In . SVG Version: 6.00 Build 0)  -->
<svg version="1.2" baseProfile="tiny" xmlns="http://www.w3.org/2000/svg" xmlns:xlink="http://www.w3.org/1999/xlink" x="0px"
	 y="0px" width="64px" height="64px" viewBox="0 0 64 64" xml:space="preserve">
<g id="box">
	<rect fill="none" width="64" height="64"/>
</g>
<g id="Production">
	<g>
		<path fill="#ffffff" d="M18.9727,54c-0.7039,0.3525-1.3965,0.7924-2.0728,1.3179L16.0232,56H57v-2H18.9727z"/>
		<path fill="#ffffff" d="M27.6729,50.8169c0.9727,0.1138,1.9312-0.2266,2.6782-0.9785l25.9106-30.3916
			c1.0376-1.2163,0.9648-3.0552-0.1655-4.1865l-7.3384-7.3379c-1.1304-1.1309-2.9692-1.2036-4.186-0.167L14.1782,33.6641
			c-0.6841,0.6836-1.021,1.6274-0.918,2.6572c0.2041,2.0303,0.1084,4.0742-0.2837,6.0757
			c-0.4346,2.2188-1.4961,4.3623-3.0703,6.1987l-3.4604,4.0376l7.4541,2.4849l1.7725-1.3789
			c1.5723-1.2227,3.2388-2.0537,4.9536-2.4707C22.937,50.707,25.3071,50.5552,27.6729,50.8169z M45.8691,9.2773
			c0.4287-0.3652,1.0757-0.3384,1.4741,0.0591l7.3379,7.3379c0.3984,0.3984,0.4243,1.0464,0.0591,1.4746L32.239,44.5457
			L19.4705,31.777L45.8691,9.2773z M14.4443,52.1606l-0.9272,0.7212l-3.6172-1.2056l1.5249-1.7788
			c0.4175-0.4871,0.8-0.9955,1.1531-1.5184l2.9907,2.9903C15.1899,51.6184,14.813,51.874,14.4443,52.1606z M17.3671,50.3397
			l-3.7438-3.7433c0.6133-1.2229,1.0597-2.5058,1.3162-3.8147c0.4297-2.1943,0.5347-4.4351,0.3042-6.7271
			c-0.0361-0.3628,0.0908-0.7188,0.29-0.9224l2.4099-2.054l12.994,12.994l-2.0543,2.41c-0.2612,0.2612-0.6201,0.3872-0.9897,0.3472
			c-2.5972-0.2891-5.2012-0.1216-7.7402,0.4956C19.2062,49.5556,18.2766,49.8997,17.3671,50.3397z"/>
	</g>
</g>
</svg>

