<?xml version="1.0" encoding="utf-8"?>
<!-- Generator: Adobe Illustrator 18.1.0, SVG Export Plug-In . SVG Version: 6.00 Build 0)  -->
<svg version="1.2" baseProfile="tiny" xmlns="http://www.w3.org/2000/svg" xmlns:xlink="http://www.w3.org/1999/xlink" x="0px"
	 y="0px" width="64px" height="64px" viewBox="0 0 64 64" xml:space="preserve">
<g id="_x36_4px_boxes">
	<rect fill="none" width="64" height="64"/>
</g>
<g id="Production">
	<g>
		<circle fill="#ffffff" cx="56" cy="15" r="3"/>
		<circle fill="#ffffff" cx="56" cy="26" r="3"/>
		<circle fill="#ffffff" cx="56" cy="37" r="3"/>
		<circle fill="#ffffff" cx="56" cy="48" r="3"/>
		<path fill="#ffffff" d="M39.501,9C33.7109,9,29,13.7109,29,19.5C29,25.29,33.7109,30,39.501,30C45.29,30,50,25.29,50,19.5
			C50,13.7109,45.29,9,39.501,9z M39.501,25.0547c-3.0635,0-5.5557-2.4912-5.5557-5.5547c0-3.0625,2.4922-5.5547,5.5557-5.5547
			c3.0625,0,5.5547,2.4922,5.5547,5.5547C45.0557,22.5635,42.5635,25.0547,39.501,25.0547z"/>
		<path fill="#ffffff" d="M39.501,33C33.7109,33,29,37.7109,29,43.5C29,49.29,33.7109,54,39.501,54C45.29,54,50,49.29,50,43.5
			C50,37.7109,45.29,33,39.501,33z M39.501,49.0557c-3.0635,0-5.5557-2.4922-5.5557-5.5557c0-3.0625,2.4922-5.5547,5.5557-5.5547
			c3.0625,0,5.5547,2.4922,5.5547,5.5547C45.0557,46.5635,42.5635,49.0557,39.501,49.0557z"/>
		<path fill="#ffffff" d="M15.501,9C9.7109,9,5,13.7109,5,19.5C5,25.29,9.7109,30,15.501,30C21.29,30,26,25.29,26,19.5
			C26,13.7109,21.29,9,15.501,9z M15.501,25.0547c-3.0645,0-5.5566-2.4912-5.5566-5.5547c0-3.0625,2.4922-5.5547,5.5566-5.5547
			c3.0625,0,5.5537,2.4922,5.5537,5.5547C21.0547,22.5635,18.5635,25.0547,15.501,25.0547z"/>
		<path fill="#ffffff" d="M15.501,33C9.7109,33,5,37.7109,5,43.5C5,49.29,9.7109,54,15.501,54C21.29,54,26,49.29,26,43.5
			C26,37.7109,21.29,33,15.501,33z M15.501,49.0557c-3.0645,0-5.5566-2.4922-5.5566-5.5557c0-3.0625,2.4922-5.5547,5.5566-5.5547
			c3.0625,0,5.5537,2.4922,5.5537,5.5547C21.0547,46.5635,18.5635,49.0557,15.501,49.0557z"/>
	</g>
</g>
</svg>

