<?xml version="1.0" encoding="utf-8"?>
<!-- Generator: Adobe Illustrator 18.1.1, SVG Export Plug-In . SVG Version: 6.00 Build 0)  -->
<svg version="1.2" baseProfile="tiny" xmlns="http://www.w3.org/2000/svg" xmlns:xlink="http://www.w3.org/1999/xlink" x="0px"
	 y="0px" width="64px" height="64px" viewBox="0 0 64 64" xml:space="preserve">

<g id="Production">
	<g>
		<path fill="#ffffff" d="M16,55h13.2861l8.2432-5.1519l-1.0596-1.6963L28.7129,53H18V39h19c0-9.7728,0-11.4875,0-21h16v19h-9v16h-5
			v2h7V39h9V16H16V55z M35,18c0,10.7169,0,8.2526,0,19H18V18H35z"/>
		<polygon fill="#ffffff" points="13,22 10,16 7,22 9,22 9,49 7,49 10,55 13,49 11,49 11,22 		"/>
		<polygon fill="#ffffff" points="22,11 49,11 49,13 55,10 49,7 49,9 22,9 22,7 16,10 22,13 		"/>
	</g>
</g>
</svg>
