<?xml version="1.0" encoding="utf-8"?>
<!-- Generator: Adobe Illustrator 18.1.1, SVG Export Plug-In . SVG Version: 6.00 Build 0)  -->
<svg version="1.2" baseProfile="tiny" xmlns="http://www.w3.org/2000/svg" xmlns:xlink="http://www.w3.org/1999/xlink" x="0px"
	 y="0px" width="128px" height="128px" viewBox="0 0 128 128" xml:space="preserve">
<g id="_x31_28px_boxes">
	<rect fill="none" width="128" height="128"/>
</g>
<g id="Production">
	<path fill="#ffffff" d="M104.8916,38.9651C99.3678,25.0546,97.3746,10.7169,64,10.7169c-33.4106,0-35.3809,14.3912-40.8925,28.2759
		C10.6916,51.8906,12.745,74.8216,12.8399,75.8077C13.0172,77.6515,14.5663,79,16.4179,79c0.0021,0,0.0044,0,0.0064,0l8.8365,0.0433
		c0.0104,0.0195,0.0204,0.0398,0.0307,0.0592c1.5157,2.8238,3.5668,4.5762,5.3846,5.542
		c2.9643,10.3293,9.1602,18.7178,16.9775,24.2693c0.9547,1.8225,5.6017,9.4689,16.3464,9.4689c10.23,0,14.9308-6.9298,16.182-9.1671
		c8.0285-5.5243,14.2908-14.0169,17.1718-24.5869c1.8104-0.9691,3.8474-2.7179,5.3546-5.5265
		c0.0104-0.0194,0.0203-0.0397,0.0307-0.0591L111.5756,79c0.0023,0,0.0043,0,0.0066,0c1.8513,0,3.4005-1.3476,3.578-3.1914
		C115.2549,74.8225,117.3086,51.8628,104.8916,38.9651z M91.36,78.803c-2.1459,9.2741-5.5551,17.3041-14.3036,23.8134
		c-2.737-1.6125-7.5248-3.8453-13.0564-3.8453c-5.4328,0-10.1457,2.1527-12.9054,3.7575
		c-7.5361-5.6862-12.8205-14.2812-14.2697-23.6901c-1.9118-0.2936-3.4153-0.1295-4.9981-2.7566
		c1.1815-1.4655,3.4967-3.8164,6.8002-4.8458c0.0012,0.0142,0.0019,0.0278,0.0033,0.042c0.001-0.0003,0.0019-0.0006,0.0029-0.0009
		c0.5814,6.3335,2.8009,13.9974,8.8937,15.2869c5.7676,1.2156,10.1416-2.302,12.522-7.155
		c1.1547-2.3413,2.5517-3.5301,3.9477-3.5352c1.3985,0.0051,2.7998,1.1914,3.9536,3.5327c2.3806,4.8531,6.7515,8.3669,12.521,7.1514
		c6.1208-1.2921,8.3329-8.9718,8.903-15.3046c0,0,0.0006-0.0085,0.001-0.0128c3.2074,0.9984,5.576,3.2295,6.8706,4.7164
		C94.6758,78.6744,93.0867,78.5435,91.36,78.803z M102.2378,71.912c-0.9537-1.1786-2.4483-2.7982-4.4531-4.2997
		c0,0-0.0006-0.0122-0.001-0.018C94.8981,65.4331,90.9549,63.5,86.0396,63.5h-8.4092c3.1241-6.8293,9.4053-8.0674,13.4316-5.6262
		c4.6807,2.8362,7.8165-2.4126,4.1709-6.5191c-4.2386-4.7747-11.4069-5.9761-16.7756-1.9585
		c-5.4092,4.0476-12.7711-7.8353-17.0372-4.0643C55.5627,50.5088,69.7704,52.75,68.4269,63.5H41.9605
		c-4.9779,0-8.9069,1.977-11.7492,4.1738c-0.0003,0.0059-0.0005,0.0121-0.0005,0.0121c-1.906,1.479-3.3236,3.0587-4.2387,4.2261
		c-3.9718,0.0069-2.0545,0.0036-6.1139,0.0107c-0.0282-2.4591,0.0813-6.0823,0.6936-10.0575
		c0.0024-0.0162,0.0055-0.0328,0.008-0.049c2.2324-2.551,5.1024-3.5845,8.9021-2.8296c2.9272,0.5813,5.9317,0.4851,8.6817-0.2279
		c3.5-0.9008,6.5723-2.7865,8.6147-5.5414c3.1753-4.2827-0.9461-7.8223-5.4051-4.3286c-3.9376,3.0847-6.4226,3.6143-10.4596,1.3906
		c-1.9407-1.2299-4.3136-3.1909-4.9277-3.4369c0.8452-1.3723,2.1763-2.6429,2.6566-3.1923c0.4383-0.5014,1.3348-2.4152,2.688-5.9972
		c3.1714-8.3951,5.5134-14.7996,15.6117-17.8185c-0.4686,1.6412-0.3215,3.6012,0.5471,6.0328
		c2.2724,6.3625-10.2974,6.584-9.9981,12.2705c0.4546,8.6348,10.9068-5.4534,16.815-1.3633
		c5.9082,4.0901,12.7251,0.4541,6.3623-6.8169c-5.2882-6.0438-5.5503-8.948-3.14-11.844c8.0684-0.5377,20.3013-0.3545,27.59,3.2874
		c-0.3064,2.2808-2.6806,4.4067-5.9779,5.4372c-5.1162,1.5994-7.7509,6.6619-5.8364,10.177
		c1.916,3.5149,3.9536,0.2088,8.5342-3.0442c4.581-3.2531,6.9805,4.7581,11.8496,1.1949c0.6079-0.4449,1.0938-0.9673,1.4788-1.5407
		c2.6192,6.4727,2.9636,8.7718,4.1615,9.9474c8.0484,7.8993,8.891,21.9978,8.8276,28.3501
		C104.227,71.9155,105.5465,71.9178,102.2378,71.912z"/>
</g>
</svg>
