<?xml version="1.0" encoding="utf-8"?>
<!-- Generator: Adobe Illustrator 18.1.1, SVG Export Plug-In . SVG Version: 6.00 Build 0)  -->
<svg version="1.2" baseProfile="tiny" xmlns="http://www.w3.org/2000/svg" xmlns:xlink="http://www.w3.org/1999/xlink" x="0px"
	 y="0px" width="128px" height="128px" viewBox="0 0 128 128" xml:space="preserve">
<g id="box">
	<rect fill="none" width="128" height="128"/>
</g>
<g id="Production">
	<g>
		<path fill="#ffffff" d="M102.9199,25.7718l-0.0029-0.0076c-7.9963-8.0124-20.9431-7.9463-28.8289-0.0132L63.5842,36.2414
			c-1.7141,1.6988-1.7141,4.464-0.0102,6.1759c4.4316,4.4709,10.3081,6.5953,15.8872,6.3663
			c-0.1025,6.3501,2.5088,12.1086,6.6018,16.1799c1.5833,1.5989,4.3328,1.7944,6.1416,0.0419l10.4956-10.2187
			c0.0679-0.0574,0.1333-0.1149,0.1936-0.1803v-0.0078h0.0049c0.0132-0.0208,0.0237-0.0286,0.0395-0.0418
			C110.8635,46.6101,110.8601,33.7119,102.9199,25.7718z M94.0838,42.9633c-2.4463,2.4437-6.4109,2.4437-8.8521-0.0079
			c-2.4385-2.4435-2.4331-6.4106,0.0105-8.8466c2.4514-2.4435,6.4109-2.4357,8.8494,0.0054
			C96.5352,36.5602,96.5271,40.5276,94.0838,42.9633z"/>
		<path fill="#ffffff" d="M79.0615,63.5394L56.5464,86.0569c-0.6509-3.672-2.3757-7.2105-5.2112-10.0332
			c-3.6667-3.6875-8.5254-5.5404-13.3315-5.5351H37.988l-2.9062,8.5095c3.9558-1.109,7.8718,0.0618,10.5322,2.7388
			c3.8614,3.847,4.5662,10.0935,0.0027,15.2522h0.0051c0,0-0.0051,0.0052-0.0078,0.0052c-2.1142,2.1066-4.8476,3.1493-7.6103,3.1493
			c-4.1846,0-7.7537-2.3455-9.5501-5.7647c-1.7749-3.3779-1.4697-6.062-0.2563-9.5798c0.2925-0.8476,19.782-57.8773,19.782-57.8773
			c0.7187-2.1144-0.4156-4.4141-2.5245-5.1327c-2.104-0.7109-4.4011,0.4181-5.1276,2.5245
			C27.5867,61.6192,22.4768,76.1185,20.4414,82.473c-0.5696,1.7783-2.5141,6.6529-0.25,13.1206
			c0.9092,2.5969,2.3999,5.0352,4.4653,7.1008c3.6692,3.6798,8.5174,5.5326,13.347,5.5276h0.0288
			c4.801,0,9.636-1.8556,13.3027-5.5144c0.0078-0.0054,0.0103-0.0132,0.0208-0.021L84.5105,69.519
			C82.4465,68.268,80.3225,65.5049,79.0615,63.5394z"/>
	</g>
</g>
</svg>
