<?xml version="1.0" encoding="utf-8"?>
<!-- Generator: Adobe Illustrator 18.1.1, SVG Export Plug-In . SVG Version: 6.00 Build 0)  -->
<svg version="1.2" baseProfile="tiny" xmlns="http://www.w3.org/2000/svg" xmlns:xlink="http://www.w3.org/1999/xlink" x="0px"
	 y="0px" width="128px" height="128px" viewBox="0 0 128 128" xml:space="preserve">
<g id="_x31_28px_boxes">
	<rect fill="none" width="128" height="128"/>
</g>
<g id="Production">
	<g>
		<path fill="#ffffff" d="M75.2299,43.3304c-3.5425,0.5034-6.0172,3.7861-5.5269,7.3305c0.5029,3.5562,3.7888,6.0196,7.3335,5.5157
			c3.5534-0.4993,6.0195-3.7754,5.5215-7.3223C82.0689,45.3069,78.7811,42.8348,75.2299,43.3304z"/>
		<path fill="#ffffff" d="M111.2094,107.1714c-0.3393-0.2548-6.2502-4.564-23.5683-9.6611
			c4.9658-9.2198-0.1661-16.4244-10.5585-19.6244c0.282-2.9507,0.976-7.2788,2.6803-11.1251
			c4.9251,1.4792,8.7958,3.9599,11.1083,10.3317c1.3949,3.8434,7.4404,2.0502,5.917-2.1474
			c-8.5883-23.6639-33.7602-8.1748-40.3577-28.8013c-1.2832-4.0119-7.2785-2.0942-5.9953,1.9175
			c2.9191,9.1267,8.3685,12.9799,14.2771,15.0564c-0.9602,3.1074-1.9537,7.724-1.6488,12.9323
			c-8.0369,0.6242-12.6585,5.0445-13.5533,13.1744c5.1447,8.6515,13.4149,16.0333,24.2934,21.5821
			c16.6902,1.9415,30.5292,1.0133,36.7005-0.3632C112.039,110.1007,112.467,108.1159,111.2094,107.1714z M79.9195,95.3929
			c-7.6695-1.9616-18.4396-4.1018-22.7392-4.8768c0.0836-2.4204,0.6889-4.1653,1.8095-5.1943
			c4.1217-3.7851,20.7514-0.4205,22.647,4.3206C82.3131,91.334,81.2202,93.5564,79.9195,95.3929z"/>
		<path fill="#ffffff" d="M87.9291,121.1282C12.7617,98.769,37.1753,20.6323,75.0914,32.2926
			c1.4468,8.1492,9.0897,9.325,11.7165,9.1482c2.261,2.2141,5.3552,3.581,8.7698,3.581c4.5003,0,8.4449-2.3727,10.6564-5.934
			c9.426-2.7313,10.9296-16.2135-1.1529-24.0084C94.2919,8.1182,63.1923,1.592,40.0672,13.3379
			C3.5002,31.9115-5.0159,111.4395,87.9291,121.1282z M101.8844,20.0344c7.3458,4.7392,6.853,10.9482,3.9758,12.8181
			c-1.2398,0.8632-2.6886,1.018-3.4951,1.6912c-0.9275,0.7742-1.3506,2.6061-3.4568,3.6819
			c-5.0782,2.958-8.5043-1.8475-10.1682-2.411c-1.3608-0.4609-6.1501,0.6932-7.6567-3.8302h-0.0068
			c-2.7304-8.6023-13.6665-19.4369-38.9796-13.0536C62.4052,8.0419,92.0377,13.6816,101.8844,20.0344z"/>
	</g>
</g>
</svg>

