<?xml version="1.0" encoding="utf-8"?>
<!-- Generator: Adobe Illustrator 18.1.1, SVG Export Plug-In . SVG Version: 6.00 Build 0)  -->
<svg version="1.2" baseProfile="tiny" xmlns="http://www.w3.org/2000/svg" xmlns:xlink="http://www.w3.org/1999/xlink" x="0px"
	 y="0px" width="64px" height="64px" viewBox="0 0 64 64" xml:space="preserve">

<g id="Production">
	<g>
		<path fill="#ffffff" d="M47,3.7983l-3,2l-3-2l-3,2l-3-2l-3,2l-3-2l-3,2l-3-2l-3,2l-3-2l-3,2v52.4033l3,2l3-2l3,2l3-2l3,2l3-2l3,2
			l3-2l3,2l3-2l3,2l3-2V5.7983L47,3.7983z M48,57.1313l-1,0.667l-3-2l-3,2l-3-2l-3,2l-3-2l-3,2l-3-2l-3,2l-3-2l-3,2l-1-0.667V6.8687
			l1-0.667l3,2l3-2l3,2l3-2l3,2l3-2l3,2l3-2l3,2l3-2l1,0.667V57.1313z"/>
		<rect x="21" y="24" fill="#ffffff" width="22" height="2"/>
		<rect x="33" y="36" fill="#ffffff" width="10" height="2"/>
		<rect x="33" y="42" fill="#ffffff" width="10" height="2"/>
		<rect x="21" y="18" fill="#ffffff" width="22" height="2"/>
		<path fill="#ffffff" d="M25.4321,38.2598v-3.7979c0.6479,0,1.1187,0.1621,1.4131,0.4863c0.2939,0.3242,0.4526,0.792,0.4771,1.4033
			h2.0518c0-0.5869-0.105-1.1035-0.3149-1.5479c-0.21-0.4434-0.4922-0.8096-0.8462-1.0977
			c-0.7654-0.6229-1.798-0.8643-2.7808-0.8643v-1.4033h-0.7739v1.4033c-1.5042,0-3.0532,0.6259-3.7529,2.0068
			c-0.5239,1.0341-0.8766,3.7962,2.2856,5.0039c0.4863,0.1865,0.9751,0.3457,1.4673,0.4775v4.3555
			c-1.4756-0.0417-2.3317-0.8036-2.3042-2.5918h-2.0518c-0.025,1.3762,0.4427,2.4012,1.188,3.0869
			c0.8463,0.7817,2.011,1.1041,3.168,1.125V47.71h0.7739v-1.4043c2.5283-0.0988,4.2661-1.4858,4.2661-4.0498
			C29.6982,39.7462,27.778,38.8876,25.4321,38.2598z M24.6582,38.0615c-1.0693-0.2528-2.0342-0.7155-2.0342-1.8359
			c0-1.2842,0.7551-1.7637,2.0342-1.7637V38.0615z M27.0249,44.1191c-0.4136,0.3301-0.9448,0.5195-1.5928,0.5664v-4.1934
			c0.8087,0.2118,1.6246,0.48,2.0249,1.2061C27.7886,42.2972,27.7349,43.5532,27.0249,44.1191z"/>
	</g>
</g>
</svg>
