<?xml version="1.0" encoding="utf-8"?>
<!-- Generator: Adobe Illustrator 18.1.1, SVG Export Plug-In . SVG Version: 6.00 Build 0)  -->
<svg version="1.2" baseProfile="tiny" xmlns="http://www.w3.org/2000/svg" xmlns:xlink="http://www.w3.org/1999/xlink" x="0px"
	 y="0px" width="128px" height="128px" viewBox="0 0 128 128" xml:space="preserve">
<g id="_x31_28px_boxes">
	<rect fill="none" width="128" height="128"/>
</g>
<g id="Production">
	<path fill="#ffffff" d="M125.2838,78.2651l-16.475-4.7973c0.4515-9.3331-11.9606-12.8155-16.5214-4.8118L77.183,64.2571
		c1.3301-7.5205,2.0932-14.4002,2.0932-18.1048c0-11.0937-6.8396-22.9003-15.2768-22.9003S48.7226,35.0586,48.7226,46.1523
		c0,3.7046,0.763,10.5843,2.0933,18.1048L35.7117,68.656c-4.5697-8.0187-16.9785-4.5093-16.5212,4.8118L2.7151,78.2651
		c-4.3844,1.2739-3.1352,7.862,1.4332,7.4124l50.4004-4.9526c0.9544,3.3054,2.001,6.3505,3.1196,8.8818L44.2495,99.884
		c-2.3586,1.8061-0.4662,5.5804,2.4025,4.7427l17.3474-5.0605l17.3473,5.0605c2.9514,0.8624,4.7938-3.0963,2.3003-4.821
		l-13.3163-10.199c1.1186-2.5313,2.165-5.5764,3.1196-8.8821l50.4003,4.9529C128.4149,86.1267,129.6739,79.5406,125.2838,78.2651z"
		/>
</g>
</svg>
