<?xml version="1.0" encoding="utf-8"?>

<svg version="1.2" baseProfile="tiny" xmlns="http://www.w3.org/2000/svg" xmlns:xlink="http://www.w3.org/1999/xlink" x="0px"
	 y="0px" width="128px" height="128px" viewBox="0 0 128 128" xml:space="preserve">
<g id="_x31_28px_boxes">
	<rect fill="none" width="128" height="128"/>
</g>
<g id="Production">
	<path fill="#ffffff" d="M84.7575,15.68c-3.5189-2.279-7.7832-3.5189-12.19-3.5189c-4.8511,0-9.4313,1.4579-13.1042,4.1396
		c-11.735-2.4703-22.8529,6.2929-22.8529,17.9929c0,5.0778,2.1209,9.6816,5.5445,13.0152h-2.6022
		c-8.6154,0-18.0676,5.8995-19.4643,17.1751c-1.1945,9.6424,2.779,18.8465,11.4918,26.6172
		c4.8639,4.3381,9.9448,6.5816,14.3016,7.7135c1.3586,4.5787,2.8965,8.378,3.8525,10.5596
		c0.5379,1.2276,1.7523,2.0146,3.0935,2.0146h38.9688c1.3775,0,2.62-0.8324,3.1335-2.1094
		c1.8819-4.6807,6.0943-16.4068,6.0943-27.5906V44.7505c3.7229-3.0964,6.072-7.5229,6.072-12.4488
		C107.0965,21.6469,96.3111,13.6218,84.7575,15.68z M38.9224,82.8683c-5.9732-5.327-8.6265-11.0563-7.8867-17.0281
		c0.7348-5.9333,5.8925-7.5007,8.5171-7.5007h3.5217v23.3492c0,1.4276,0.0757,2.8637,0.21,4.2931
		C41.8421,85.1784,40.3711,84.1606,38.9224,82.8683z M95.3345,40.1173h-8.5963c0.0731,5.5174,0.5347,12.1057,1.9803,17.2214
		c2.0781,7.3537-1.5967,11.6997-5.8357,11.6997c-4.2394,0-7.9142-4.346-5.8361-11.6997c1.4456-5.1158,1.9072-11.7041,1.9803-17.2214
		H67.978c-0.9501,0-2.1792-0.1381-3.3189,1.2219c-2.247,2.683-5.5859,4.2217-9.1604,4.2217
		c-6.4779,0-11.7484-5.0548-11.7484-11.2673s5.2705-11.2673,11.7484-11.2673c3.5876,0,5.0014,1.7905,7.1788-0.1535
		c2.5411-2.2697,6.1458-3.5718,9.8901-3.5718c3.4391,0,6.7159,1.0743,9.2277,3.0244c2.0237,1.5714,3.1534,0.1749,6.5804,0.1749
		c6.3856,0,11.5809,4.397,11.5809,9.8015C99.9566,35.4943,98.1351,38.3266,95.3345,40.1173z"/>
</g>
</svg>
