<?xml version="1.0" encoding="utf-8"?>
<!-- Generator: Adobe Illustrator 18.1.1, SVG Export Plug-In . SVG Version: 6.00 Build 0)  -->
<svg version="1.2" baseProfile="tiny" xmlns="http://www.w3.org/2000/svg" xmlns:xlink="http://www.w3.org/1999/xlink" x="0px"
	 y="0px" width="64px" height="64px" viewBox="0 0 64 64" xml:space="preserve">
<g id="box">
	<rect fill="none" width="64" height="64"/>
</g>
<g id="Production">
	<g>
		<rect x="34" y="16" fill="#465860" width="16" height="5"/>
		<circle fill="#465860" cx="36" cy="27.001" r="2"/>
		<circle fill="#465860" cx="42" cy="27.001" r="2"/>
		<circle fill="#465860" cx="48" cy="27.001" r="2"/>
		<circle fill="#465860" cx="35.998" cy="33" r="2"/>
		<circle fill="#465860" cx="42" cy="33" r="2"/>
		<circle fill="#465860" cx="48" cy="33" r="2"/>
		<circle fill="#465860" cx="36" cy="39" r="2"/>
		<circle fill="#465860" cx="42" cy="39" r="2"/>
		<circle fill="#465860" cx="48.002" cy="39" r="2"/>
		<path fill="#465860" d="M59.168,7.8281C58.8662,6.748,57.8809,6,56.7578,6H26.4697C25.0869,6,24,7.1201,24,8.501V42h5V11h26.0313
			c2.8837,11,2.8837,24,0,35H24v7.001c0,1.1025-0.8984,1.998-2,1.999h-6.7197c0.8476,2.958,3.5361,5,6.7187,5
			C25.8584,60,29,56.8604,29,53.001V51h27.7578c1.1231,0,2.1084-0.748,2.4102-1.8281C62.9443,35.6484,62.9443,21.3516,59.168,7.8281
			z"/>
		<path fill="#465860" d="M19.9668,48.5c0-5.8477,0.0312-12.3252,0.0312-12.3271c0.0059-1.0928-0.6992-2.0616-1.7402-2.3936
			L16,33.0596v-9.1153l2.2598-0.7216c1.04-0.3331,1.7431-1.3018,1.7382-2.3936c0-0.002-0.0312-6.5811-0.0312-12.3291
			c0-1.3809-1.1191-2.5-2.5-2.5h-10C6.3643,6,5.3916,6.7227,5.0732,7.7773c-4.0908,13.5567-4.0908,27.8887,0,41.4454
			C5.3916,50.2773,6.3643,51,7.4668,51h10C18.8477,51,19.9668,49.8809,19.9668,48.5z M12.7402,37.2686l2.2813,0.7177
			C15.0137,39.8379,15.0039,43,15,46H9.1533c-3.126-11-3.126-24,0-35H15c0.0039,3,0.0156,6.1543,0.0215,8.0176l-2.2832,0.7187
			C11.7021,20.0674,11,21,11,22.3564v12.5303C11,35.9746,11.7031,36.9385,12.7402,37.2686z"/>
	</g>
</g>
</svg>
