<?xml version="1.0" encoding="utf-8"?>
<!-- Generator: Adobe Illustrator 18.1.1, SVG Export Plug-In . SVG Version: 6.00 Build 0)  -->
<svg version="1.2" baseProfile="tiny" xmlns="http://www.w3.org/2000/svg" xmlns:xlink="http://www.w3.org/1999/xlink" x="0px"
	 y="0px" width="64px" height="64px" viewBox="0 0 64 64" xml:space="preserve">

<g id="Production">
	<g>
		<path fill="#ffffff" d="M57,17c0-5.6074-10.9814-10-25-10S7,11.3926,7,17c0,0.4122,0,21.5563,0,27.9976
			C7,52.0708,20.1753,57,32,57s25-4.9292,25-12.0024C57,38.5633,57,17.4122,57,17z M9,20.9866C12.7803,24.5555,21.5438,27,32,27
			s19.2197-2.4445,23-6.0134v5.9567C55,31.6914,42.8789,35,32,35S9,31.6914,9,26.9434V20.9866z M32,8.9887
			c10.8789,0,23,3.29,23,8.0113s-12.1211,8.0112-23,8.0112S9,21.7213,9,17S21.1211,8.9887,32,8.9887z M55,44.9976
			c0,2.1069-2.3281,4.5918-6.0757,6.4844C44.4321,53.7505,38.4219,55,32,55s-12.4321-1.2495-16.9243-3.5181
			C11.3281,49.5894,9,47.1045,9,44.9976V40.308C12.8547,44.1974,21.8359,47,32,47s19.1453-2.8026,23-6.692V44.9976z M55,36.1211
			C55,40.2271,44.9531,45,32,45S9,40.2271,9,36.1211V36v-5.0474C12.7803,34.5417,21.5438,37,32,37s19.2197-2.4583,23-6.0474V36
			V36.1211z"/>
		<circle fill="#ffffff" cx="32" cy="31" r="2"/>
		<circle fill="#ffffff" cx="32" cy="41" r="2"/>
		<circle fill="#ffffff" cx="32" cy="51" r="2"/>
	</g>
</g>
</svg>
