<?xml version="1.0" encoding="utf-8"?>
<!-- Generator: Adobe Illustrator 19.1.0, SVG Export Plug-In . SVG Version: 6.00 Build 0)  -->
<svg version="1.2" baseProfile="tiny" xmlns="http://www.w3.org/2000/svg" xmlns:xlink="http://www.w3.org/1999/xlink" x="0px"
	 y="0px" width="64px" height="64px" viewBox="0 0 64 64" xml:space="preserve">
<g id="box">
	<rect fill="none" width="64" height="64"/>
</g>
<g id="Production">
	<g>
		<path fill="#ffffff" d="M63,15.582C63,9.7471,58.2529,5,52.418,5c-0.9189,0-1.8359,0.1226-2.7349,0.3652
			c-2.3555-2.6479-5.6885-4.1533-9.2476-4.1533c-4.1787,0-8.0977,2.1436-10.3765,5.6348C24.0573,6.5688,19,11.388,19,17.4175
			c0,0.7928,0.0923,1.5718,0.2666,2.3339c0.7077-0.1204,1.3915-0.186,2.0184-0.1878C21.1017,18.8645,21,18.1485,21,17.4175
			c0-4.6311,3.7427-9.1356,10.1294-8.4663c2.3359-4.016,5.714-5.7393,9.3062-5.7393c3.6685,0,6.3228,1.6627,8.5635,4.4736
			C49.999,7.3473,50.9389,7,52.418,7C57.1499,7,61,10.8501,61,15.582c0,1.6902-0.444,2.8564-1.0347,4.0884
			c0.3906,1.0001,0.8101,2.1478,0.8101,3.8418c0,5.2314-4.2563,9.4878-9.4878,9.4878c-2.2242,0-3.6367-0.7256-4.6367-1.1865
			C45.0151,33.6942,43.2355,35,40.4248,35c-2.9158,0-4.8021-1.3704-6.4937-3.5972c-1.0002,0.3535-1.6783,0.6141-2.8825,0.7082
			c0.1749,0.4733,0.3072,0.9855,0.3525,1.5626c0.0103,0.1307,0.0087,0.2635,0.0136,0.3953
			c0.6116-0.0603,1.2197-0.1545,1.8167-0.3223C35.0576,35.8228,37.6411,37,40.4248,37c2.5283,0,4.9458-1.002,6.7393-2.772
			C48.4844,34.7407,49.8682,35,51.2876,35c6.3345,0,11.4878-5.1533,11.4878-11.4878c0-1.2778-0.2153-2.5405-0.6401-3.7607
			C62.7095,18.4219,63,17.0215,63,15.582z"/>
		<path fill="#ffffff" d="M29.4698,46.605c-2.7888-0.8463-3.2601-1.1633-3.362-2.2617c-0.0353-0.3806,0.0243-0.9314,0.095-1.3576
			c1.0436-1.4383,1.2693-2.7569,1.4706-3.9327c0.0084-0.0487,0.0167-0.0978,0.0252-0.1472
			c1.4294-1.1669,1.8336-3.4852,1.7087-5.0757c-0.0538-0.685-0.2535-1.2396-0.5412-1.6714
			c0.1987-1.2986,0.3946-3.3256,0.0182-4.8672c-0.8365-3.4267-3.8784-5.729-7.5695-5.729c-3.1419,0-8.2354,1.8208-9.1894,5.729
			c-0.3763,1.5416-0.1804,3.5687,0.0183,4.8672c-0.2877,0.4318-0.4874,0.9865-0.5413,1.6714
			c-0.1254,1.5977,0.2831,3.9301,1.7284,5.0917c0.2928,1.4274,0.6089,2.8882,1.4799,4.0861c0.0688,0.4219,0.126,0.961,0.0912,1.3354
			c-0.1018,1.0969-0.5644,1.4092-3.3001,2.2277c-2.1946,0.6566-4.9258,1.4738-7.2997,3.873c-3.34,3.3755-3.1146,5.5955-3.2975,7.556
			h38.9908c-0.1824-1.9536,0.0497-4.173-3.2975-7.556C34.371,48.0923,31.6534,47.2677,29.4698,46.605z M3.2,56
			c0,0,0.1647-1.7651,2.5239-4.1493c4.455-4.5026,10.7257-2.5394,11.1696-7.3225c0.0971-1.0465-0.2145-2.3914-0.2145-2.3914
			c-0.9808-1.0568-1.1945-2.7697-1.5807-4.5352c-1.2444-0.2522-1.588-2.518-1.5018-3.6149c0.0744-0.9471,0.5677-1.0103,0.698-1.0103
			c0.02,0,0.0315,0.0015,0.0315,0.0015s-0.7295-3.2786-0.2575-5.2122c0.6584-2.6969,4.629-4.2033,7.2465-4.2033
			s4.9681,1.5064,5.6265,4.2033c0.472,1.9335-0.2574,5.2122-0.2574,5.2122s0.0114-0.0015,0.0314-0.0015
			c0.1303,0,0.6237,0.0632,0.698,1.0103c0.0861,1.0969-0.2574,3.3627-1.5018,3.6149c-0.3862,1.7654-0.3057,2.9979-1.5807,4.5352
			c0,0-0.3116,1.3449-0.2145,2.3914c0.4415,4.757,6.7814,2.8974,11.1599,7.3225C37.6353,54.2349,37.8,56,37.8,56H3.2z"/>
		<path fill="#ffffff" d="M38,42c0-2.2056-1.7944-4-4-4s-4,1.7944-4,4s1.7944,4,4,4S38,44.2056,38,42z M32,42c0-1.103,0.897-2,2-2
			s2,0.897,2,2s-0.897,2-2,2S32,43.103,32,42z"/>
	</g>
</g>
</svg>

