<?xml version="1.0" encoding="utf-8"?>
<!-- Generator: Adobe Illustrator 17.1.0, SVG Export Plug-In . SVG Version: 6.00 Build 0)  -->
<!DOCTYPE svg [
	<!ENTITY ns_flows "http://ns.adobe.com/Flows/1.0/">
	<!ENTITY ns_extend "http://ns.adobe.com/Extensibility/1.0/">
	<!ENTITY ns_ai "http://ns.adobe.com/AdobeIllustrator/10.0/">
	<!ENTITY ns_graphs "http://ns.adobe.com/Graphs/1.0/">
]>
<svg version="1.2" baseProfile="tiny" xmlns:x="&ns_extend;" xmlns:i="&ns_ai;" xmlns:graph="&ns_graphs;"
	 xmlns="http://www.w3.org/2000/svg" xmlns:xlink="http://www.w3.org/1999/xlink" xmlns:a="http://ns.adobe.com/AdobeSVGViewerExtensions/3.0/"
	 x="0px" y="0px" width="128px" height="128px" viewBox="0 0 128 128" xml:space="preserve">
<g id="_x31_28px_boxes">
	<rect fill="none" width="128" height="128"/>
</g>
<g id="Production">
	<g>
		<path fill="#ffffff" d="M75.589,79.8457L74.5192,100.73L56.7563,89.6939l-16.9949,12.1845l-2.4468-20.768l-20.1227-5.6907
			l14.7117-14.8615l-8.0972-19.2804l20.7919,2.2358l10.0256-18.352l7.3836,11.6197c2.3655-1.7556,4.3083-3.19,5.925-4.38
			L54.1464,10.7051L40.5021,35.6807l-28.296-3.0428L23.2256,58.877L3.2045,79.1023l27.385,7.7444l3.3297,28.2637l23.1291-16.5821
			l24.1735,15.0193l1.4563-28.4221l0.0555-0.0195c-1.5175-2.1253-2.8924-4.2698-4.1182-6.3364L75.589,79.8457z"/>
		<path fill="#ffffff" d="M124.6117,107.9463c-0.2821-0.5835-7.0666-14.4453-20.4763-27.6312
			c-5.9845-5.8848-7.2375-10.5276-8.343-14.6239c-1.4036-5.2009-1.4548-4.3924-4.3801-10.1915L76.9224,65.881
			c2.3781,5.3822,7.6146,15.8769,15.2892,23.8026c9.0406,9.3372,16.1024,26.3042,16.1727,26.4744
			c0.4138,1.0031,1.5973,1.4245,2.548,0.9287l12.8747-6.7109C124.6879,109.9168,125.0444,108.8406,124.6117,107.9463z"/>
		<path fill="#ffffff" d="M57.101,81.5515c2.8596,1.3522,4.758,1.8148,7.6687,2.6378l8.0076-20.7636L89.938,51.1309
			c1.0356-0.742,1.4755-2.0663,1.0896-3.2804c-0.9403-2.9586-0.7623-5.5422,0.5441-7.8987
			c3.3678-6.0746,12.9211-8.5804,13.0124-8.6039c3.0093-0.7594,2.9253-5.0923-0.118-5.7283
			c-9.818-2.0524-21.2545,0.9769-28.0332,6.0055c-12.9586,9.6133-25.876,18.3154-40.4401,25.1463
			C40.1357,67.5481,47.2289,76.8833,57.101,81.5515z M63.4611,71.2417l-2.199,5.7015c-9.7363-3.878-15.394-12.9108-17.6504-17.2776
			c0.5973-0.2905,4.3631-2.1617,5.6746-2.8355C50.6576,59.1487,55.2487,66.1297,63.4611,71.2417z"/>
	</g>
</g>
</svg>
