<?xml version="1.0" encoding="utf-8"?>
<!-- Generator: Adobe Illustrator 18.1.1, SVG Export Plug-In . SVG Version: 6.00 Build 0)  -->
<svg version="1.2" baseProfile="tiny" xmlns="http://www.w3.org/2000/svg" xmlns:xlink="http://www.w3.org/1999/xlink" x="0px"
	 y="0px" width="128px" height="128px" viewBox="0 0 128 128" xml:space="preserve">
<g id="_x31_28px_boxes">
	<rect fill="none" width="128" height="128"/>
</g>
<g id="Production">
	<g>
		<path fill="#ffffff" d="M111.5624,24.8488H66.2501v78.3024h45.3123c4.2343,0,7.6671-3.4327,7.6671-7.667V32.5159
			C119.2295,28.2815,115.7967,24.8488,111.5624,24.8488z M103.7789,78.8189c-2.4486,1.7789-5.8008-0.3981-5.1926-3.3513
			l-6.2984-3.3111l-6.2408,3.281c0.5571,2.9428-2.7806,5.0595-5.2028,3.2996c-2.4319-1.7664-1.4317-5.6194,1.5623-5.9718
			l1.1877-6.9249l-5.0792-4.9511c-2.6279,1.4594-5.6894-1.0644-4.7621-3.9191c0.9371-2.8836,4.9334-3.0862,6.1733-0.3348
			l6.9884-1.0155l3.1297-6.3414c-2.2094-2.036-0.7771-5.7516,2.2435-5.7516c3.023,0,4.4532,3.7158,2.2436,5.7517l3.1297,6.3413
			l6.9823,1.0146c1.2428-2.7516,5.2367-2.541,6.1723,0.3375c0.9294,2.86-2.1384,5.3729-4.7589,3.9215l-5.0751,4.9469l1.2015,7.0035
			C105.192,73.1679,106.2271,77.0398,103.7789,78.8189z"/>
		<path fill="#ffffff" d="M61.7501,24.8488H16.4376c-4.2344,0-7.6671,3.4327-7.6671,7.6671v62.9683
			c0,4.2343,3.4327,7.667,7.6671,7.667h45.3125V24.8488z M51.0554,90.565H20.1485V36.4529h30.9069V90.565z"/>
		<path fill="#ffffff" d="M37.5419,81.1795c-2.0913,0-4.163-0.7044-5.6876-1.8343c-0.9751-0.6982-1.4059-1.1914-2.123-1
			c-0.7619,0.2032-1.4259,1.9869-2.1892,3.9903c-0.5408,1.4184-1.4333,3.3772-2.94,4.3147h22.5147V63.7576H24.6021
			c1.5066,0.9375,2.3992,2.8965,2.94,4.3149c0.7633,2.0032,1.4273,3.7869,2.1892,3.99c0.7171,0.1914,1.1479-0.3015,2.123-0.9997
			c1.5246-1.1299,3.5963-1.8343,5.6876-1.8343C46.4487,69.2285,46.4471,81.1795,37.5419,81.1795z"/>
		<rect x="42.6552" y="41.3189" fill="#ffffff" width="4.5" height="15.3884"/>
		<rect x="34.3016" y="41.3189" fill="#ffffff" width="4.5" height="15.3884"/>
	</g>
</g>
</svg>
