<?xml version="1.0" encoding="utf-8"?>
<!-- Generator: Adobe Illustrator 18.1.1, SVG Export Plug-In . SVG Version: 6.00 Build 0)  -->
<svg version="1.2" baseProfile="tiny" xmlns="http://www.w3.org/2000/svg" xmlns:xlink="http://www.w3.org/1999/xlink" x="0px"
	 y="0px" width="128px" height="128px" viewBox="0 0 128 128" xml:space="preserve">
<g id="box">
	<rect fill="none" width="128" height="128"/>
</g>
<g id="Production">
	<g>
		<polygon fill="#ffffff" points="61.5431,59.5174 61.5427,59.5174 61.5426,59.5174 		"/>
		<path fill="#ffffff" d="M25.0948,100.4141c2.7919,1.1277,4.821,1.2091,8.4297-0.5553l16.5684-28.6967
			c0.5644-0.9772,0.6255-2.1668,0.1638-3.1967l-3.3037-7.3773l19.8457-34.3743l18.7158,34.0847l-23.5031,40.7079
			c7.2344,1.7096,15.6922-8.1209,19.2829-11.7129c4.7682,4.7659,6.0433,6.2965,9.24,8.5095
			c6.8765-11.9105,18.1565-31.4481,22.2239-38.4945c3.2512-5.6152,2.2087-11.4435-1.5686-15.0123
			c-5.1231-4.8657-13.9435-4.5013-18.5056,3.4219c-1.2779,2.2128-2.2937,3.9724-3.1014,5.3707L69.9598,17.3511
			c-1.3174-2.3988-4.7615-2.4367-6.1308-0.0655L39.9608,58.627c-0.5649,0.9774-0.6255,2.1663-0.1643,3.1968l3.3042,7.3773
			L25.0822,100.409C25.0863,100.4106,25.0907,100.4124,25.0948,100.4141z"/>
		<path fill="#ffffff" d="M62.2684,69.8825c0.066,0,0.1321-0.0023,0.199-0.0075l9.8572-0.7376l-1.3909-15.601L61.15,54.2688
			c-3.4666,0.2593-3.0803,5.5077,0.3927,5.2486l4.6095-0.3455l0.4558,5.1151l-4.5332,0.3389
			C58.7165,64.877,58.9298,69.8822,62.2684,69.8825z"/>
		<path fill="#ffffff" d="M116.37,95.0744l-2.5242,2.5243l-0.0002-0.0003c-2.5281,2.5281-9.3143,7.7369-15.0112,7.7254
			c-7.9196,0.0182-16.0976-8.8086-17.5389-10.2494c-0.9999,1.0001-9.362,10.2659-17.5337,10.2494
			c-6.5517,0.0145-13.0723-5.783-17.539-10.2499c-1.0001,1.0002-9.3275,10.2657-17.5349,10.2499
			c-5.3485,0.0123-12.0089-4.7235-15.0074-7.722c-0.004,0.0042-0.1249,0.1262-0.1291,0.1302
			c-0.0612-0.0677-1.9912-2.2068-2.0542-2.2766v9.7229c4.8172,3.8567,10.9916,7.2878,17.1907,7.2954
			c6.3147-0.0078,12.6486-3.5787,17.5354-7.5733c4.9044,4.0039,11.2304,7.5656,17.5385,7.5733
			c6.3312-0.0078,12.6555-3.5908,17.535-7.5735c4.9048,4.0038,11.2313,7.5658,17.5376,7.5735
			c6.3703-0.0078,12.763-3.6443,17.6684-7.6831v-9.5835L116.37,95.0744z"/>
	</g>
</g>
</svg>
