<?xml version="1.0" encoding="utf-8"?>
<!-- Generator: Adobe Illustrator 18.1.1, SVG Export Plug-In . SVG Version: 6.00 Build 0)  -->
<svg version="1.2" baseProfile="tiny" xmlns="http://www.w3.org/2000/svg" xmlns:xlink="http://www.w3.org/1999/xlink" x="0px"
	 y="0px" width="128px" height="128px" viewBox="0 0 128 128" xml:space="preserve">
<g id="box">
	<rect fill="none" width="128" height="128"/>
</g>
<g id="Production">
	<path fill="#ffffff" d="M112.5437,60.5341h-7.7163c2.323-3.7876,3.533-8.8306,3.533-14.3672
		c0-11.7625-5.4605-21.2986-15.4563-21.2986H58.175c-6.8225,0-12.7629,4.4433-15.8474,11.0044c-3.1745,0,1.026,0-15.3071,0
		c-4.831,0-7.8435,4.6086-7.8435,10.2942c0,5.6855,3.0125,10.2946,7.8435,10.2946h15.3071
		c2.9402,6.254,8.4746,10.5835,14.8953,10.9751h7.2542c-0.9678,1.2408-1.8116,2.617-2.5096,4.1016H46.6602
		c-4.8311,0-7.8435,4.6089-7.8435,10.2944c0,4.8184,2.1643,8.8623,5.7648,9.9844c-5.7207-0.2834-9.2651-5.6289-9.2651-12.1833
		c0-6.7364,3.7422-12.1971,9.7441-12.1971h0.8169c-2.3416-1.7773-4.4201-4.0746-6.1113-6.9025
		c-7.865,0-13.5398,4.4625-16.6152,11.0041H7.8438C3.0122,71.5382,0,76.1471,0,81.8326c0,5.6856,3.0122,10.2945,7.8438,10.2945
		h15.3071c3.0842,6.5613,9.0244,11.0046,15.8471,11.0046h26.5645c-3.5099-2.6463-6.3692-6.4253-8.1338-11.0046h4.5388
		c3.0843,6.5613,9.0247,11.0046,15.8474,11.0046h34.7288c9.9959,0,15.4563-9.5359,15.4563-21.2991
		C128,70.2463,122.6551,60.5341,112.5437,60.5341z M62.0908,35.6769c-0.2627,3.4262-3.173,9.2809-6.4443,11.9429
		c0.7018-5.8331-2.8438-11.0065-7.6206-11.6724c0.0449-0.0698,0.0879-0.1401,0.134-0.2095c0.0139-0.021,0.0288-0.0405,0.0427-0.061
		h-0.0395c2.327-3.4098,5.8562-5.8181,10.0119-5.8181h34.7291c3.9693,0,6.6218,2.2313,8.3605,5.8181H90.9995
		c1.4165,2.345,2.2532,5.1421,2.4707,8.1777H75.0874c-0.2173-3.0356-1.0537-5.8327-2.4702-8.1777H62.0908z M113.1099,80.2169
		H94.7271c-0.2393-3.342-1.2283-6.396-2.917-8.8742H81.7305c-0.2633,3.4335-3.1803,9.2873-6.4444,11.9426
		c0.7018-5.8297-2.8416-11.0059-7.6206-11.6721c0.0449-0.0699,0.0879-0.1402,0.1343-0.2098
		c0.0137-0.0207,0.0288-0.0402,0.0425-0.0607h-0.0396c2.3295-3.4135,5.8597-5.8182,10.0122-5.8182h34.7288
		c3.9686,0,6.6213,2.2302,8.3606,5.8182h-10.7119C111.8813,73.8209,112.8704,76.8749,113.1099,80.2169z"/>
</g>
</svg>
