<?xml version="1.0" encoding="utf-8"?>
<!-- Generator: Adobe Illustrator 18.1.1, SVG Export Plug-In . SVG Version: 6.00 Build 0)  -->
<svg version="1.2" baseProfile="tiny" xmlns="http://www.w3.org/2000/svg" xmlns:xlink="http://www.w3.org/1999/xlink" x="0px"
	 y="0px" width="128px" height="128px" viewBox="0 0 128 128" xml:space="preserve">
<g id="box">
	<rect fill="none" width="128" height="128"/>
</g>
<g id="Production">
	<g>
		<path fill="#ffffff" d="M100.9318,58.4831c-1.1573,2.2303-3.2891,3.7848-5.535,4.9361c2.8235,1.1288,2.6101,6.1086,2.1414,9.112
			c-0.803,5.1465-3.5105,6.2798-4.0374,6.4531L91.36,79.3061c-4.1336,21.3467-20.3382,29.1348-27.3379,29.1348
			c-8.2976,0-24.3818-10.8176-27.197-29.0994l-2.3247-0.3567c-0.5242-0.1724-3.2349-1.304-4.0386-6.4537
			c-0.447-2.8648-0.6807-7.7754,1.9477-9.027c-2.2248-1.1182-4.3747-2.6118-5.5954-4.7935
			c-3.9285,3.6253-4.2766,9.6668-3.4553,14.9289c1.0185,6.5265,4.4577,9.9889,7.3173,11.5079
			c5.5032,19.1747,22.2881,30.4824,33.346,30.4824c10.0066,0,27.6926-9.8048,33.3318-30.4983
			c2.8537-1.5273,6.2727-4.988,7.2873-11.4917C105.4869,68.2244,105.0799,62.0576,100.9318,58.4831z"/>
		<path fill="#ffffff" d="M36.4523,65.1866c0.1391,6.5006,2.1352,16.4217,9.7636,17.8924
			c6.2173,1.1929,10.9319-2.2573,13.4978-7.0224c1.2444-2.298,2.7515-3.4635,4.2564-3.4684
			c1.5068,0.0049,3.0173,1.1704,4.2612,3.4684c2.5662,4.7651,7.2783,8.2153,13.4976,7.0224
			c7.6723-1.4755,9.6479-11.5083,9.7666-18.0102c-1.0733,0.3784-2.2295,0.737-3.4671,1.0742
			c-6.8999,1.876-15.498,2.9091-24.2192,2.9091C53.2926,69.0307,43.4049,67.5971,36.4523,65.1866z"/>
		<path fill="#ffffff" d="M97.3585,54.815c-0.0666-1.1741-0.5942-1.989-1.3274-2.6567
			c-21.1892-4.5788-42.5918-4.6703-64.4402,0.0122c-1.3254,1.2023-1.6972,2.7643-0.8662,4.2981
			c1.1914,2.1996,5.0969,3.7489,7.4541,4.5446c6.104,2.061,15.263,3.5179,25.6397,3.5389
			C73.5492,64.5521,96.932,62.2034,97.3585,54.815z"/>
		<path fill="#ffffff" d="M30.4689,47.7376c21.1499-7.4955,43.8684-8.0961,66.6938,0l5.9326-9.73
			c1.0552-1.7425,0.1602-3.9087-1.6706-4.4868c-5.2407-1.6269-11.6314-6.6667-17.9041-11.4917
			C66.8773,9.6344,62.045,8.9011,45.3048,21.3831c-6.0283,4.5901-12.3623,9.6201-19.2444,12.1841
			c-1.8081,0.6766-2.5139,2.8324-1.5315,4.4404L30.4689,47.7376z M57.5599,21.8824c1.6861,0.2449,4.5789-0.0368,5.7298-1.5684
			c0.3359-0.4317,1.0153-0.4281,1.3484,0c1.018,1.3186,3.0852,1.6536,4.4816,1.6468c0.7488,0,1.2386-0.0735,1.2386-0.0784
			c0.7461-0.1308,1.3005,0.7691,0.7995,1.3847c0.0174,0.0196-1.2993,1.7371-1.25,2.9334c-0.061,1.238,1.0887,2.7644,1.1253,5.1404
			c0.0884,2.0991-1.4627,3.1218-2.73,3.4519c-1.3262,0.4502-2.6423,0.7463-3.7017,1.9155c-0.3376,0.368-0.9382,0.3688-1.2749,0
			c-1.0766-1.189-2.3877-1.4922-3.7046-1.9302c-1.2668-0.3232-2.8154-1.3381-2.7273-3.4372
			c0.0437-2.3828,1.1863-3.8753,1.1282-5.1404c0.0435-1.218-1.2261-2.9185-1.2461-2.9258
			C56.2723,22.6461,56.8107,21.7774,57.5599,21.8824z"/>
	</g>
</g>
</svg>
