<?xml version="1.0" encoding="utf-8"?>

<svg version="1.2" baseProfile="tiny" xmlns="http://www.w3.org/2000/svg" xmlns:xlink="http://www.w3.org/1999/xlink" x="0px"
	 y="0px" width="64px" height="64px" viewBox="0 0 64 64" xml:space="preserve">

<g id="Production">
	<g>
		<path fill="#ffffff" d="M46.5117,7H32.8701L3.5859,36.3284L27.6716,60.392L57,31.1299V17.4883C57,11.7539,52.2461,7,46.5117,7z
			 M55,30.3018L27.6716,57.5859L6.4362,36.3284L33.6982,9h12.8135C51.1436,9,55,12.8564,55,17.4883V30.3018z"/>
		<path fill="#ffffff" d="M46.5,13c-2.4814,0-4.5,2.0186-4.5,4.5s2.0186,4.5,4.5,4.5s4.5-2.0186,4.5-4.5S48.9814,13,46.5,13z
			 M46.5,20c-1.3784,0-2.5-1.1216-2.5-2.5s1.1216-2.5,2.5-2.5s2.5,1.1216,2.5,2.5S47.8784,20,46.5,20z"/>
	</g>
</g>
</svg>
