<?xml version="1.0" encoding="utf-8"?>
<!-- Generator: Adobe Illustrator 19.1.0, SVG Export Plug-In . SVG Version: 6.00 Build 0)  -->
<svg version="1.2" baseProfile="tiny" xmlns="http://www.w3.org/2000/svg" xmlns:xlink="http://www.w3.org/1999/xlink" x="0px"
	 y="0px" width="64px" height="64px" viewBox="0 0 64 64" xml:space="preserve">
<g id="box">
	<rect fill="none" width="64" height="64"/>
</g>
<g id="Production">
	<g>
		<path fill="#ffffff" d="M31.9829,11.02c3.042,0,5.5171-2.4717,5.5171-5.5098C37.5,2.4717,35.0249,0,31.9829,0
			s-5.5171,2.4717-5.5171,5.5103C26.4658,8.5483,28.9409,11.02,31.9829,11.02z M31.9829,2C33.9224,2,35.5,3.5747,35.5,5.5103
			c0,1.9351-1.5776,3.5098-3.5171,3.5098s-3.5171-1.5747-3.5171-3.5098C28.4658,3.5747,30.0435,2,31.9829,2z"/>
		<path fill="#ffffff" d="M32,15c7.293,0,8.022,1.0347,9.9697,3.8003c0.7135,1.0114,1.0719,1.6553,1.8589,3.1763
			c0.7871,1.521,1.2207,2.3584,1.9854,2.5547c2.853,0.7241,6.7021-5.0098,8.2275-7.5107c0.2871-0.4717,0.1382-1.0869-0.3335-1.3745
			c-0.4727-0.2881-1.0874-0.1377-1.3745,0.3335c-2.0977,3.4404-4.8394,6.5103-5.8706,6.6226
			c-0.2104-0.2939-0.5649-0.9785-0.8579-1.5444c-0.7456-1.4406-1.183-2.25-2-3.4087C41.2759,14.3418,40.0112,13,32,13
			c-8.0273,0-10.7241,1.3599-11.543,5.8193c-0.3894,2.1202-0.4487,4.7713-0.4556,7.1807h-3.0458
			c-0.0558-2.0189,0.0177-7.0134,1.7528-11.1076c0.6514-0.1831,1.2731-0.6926,1.6445-1.4387
			c0.6152-1.236,0.3124-2.637-0.6765-3.1293c-0.9888-0.4922-2.2891,0.1107-2.9044,1.3468c-0.4523,0.9086-0.4049,1.9035,0.043,2.5639
			C14.979,18.6561,14.8879,23.803,14.9514,26H14v2h3.1208l3.6127,28H17v8h30v-8h-3.7335l3.6127-28H50v-2H39.228l0.3198-4.8677
			c0.0869-1.3253-1.9091-1.4391-1.9961-0.1309L37.2235,26h-10.447l-0.3282-4.9985c-0.0875-1.3166-2.0827-1.1893-1.9961,0.1309
			L24.772,26h-2.7705c0.0066-2.3196,0.0625-4.8578,0.4224-6.8193C22.9575,16.2739,24.0249,15,32,15z M45,58v4H19v-4H45z M44.8628,28
			l-3.6132,28H22.7504l-3.6132-28H44.8628z"/>
	</g>
</g>
</svg>

