<?xml version="1.0" encoding="utf-8"?>
<!-- Generator: Adobe Illustrator 18.1.1, SVG Export Plug-In . SVG Version: 6.00 Build 0)  -->
<svg version="1.2" baseProfile="tiny" xmlns="http://www.w3.org/2000/svg" xmlns:xlink="http://www.w3.org/1999/xlink" x="0px"
	 y="0px" width="128px" height="128px" viewBox="0 0 128 128" xml:space="preserve">
<g id="box">
	<rect fill="none" width="128" height="128"/>
</g>
<g id="Production">
	<g>
		<path fill="#ffffff" d="M102.2136,83.0847l-12.822-18.7688c-1.2234-1.7866-3.4214-2.3684-5.4099-1.0374
			c-3.9717,2.7454-8.8968,5.816-11.1319,4.354C67.6354,64.2164,59.2346,52.2414,58.1814,46.32
			c-0.4951-2.9526,4.1289-6.1228,8.153-8.863c1.9966-1.3677,2.2452-3.6311,1.0062-5.4021L54.5295,13.281
			c-1.2002-1.7737-3.6338-2.2478-5.4075-1.0374c-7.6318,5.2215-10.4323,13.0391-10.757,18.1321
			c-0.3409,5.0955,3.3662,19.2297,14.2834,35.187c10.7256,15.73,22.3291,24.2366,27.3486,26.0967
			c7.0362,2.6043,15.0538,1.0109,21.2156-3.178l0.003-0.0076C102.9602,87.2868,103.4236,84.8791,102.2136,83.0847z M53.518,26.4851
			l-5.9733,4.5613c-1.2535,0.9555-3.0342,0.0172-2.9605-1.5433c0.126-3.0888,1.585-5.9052,4.1865-9.083
			c0.7829-0.956,2.3063-0.8913,2.9895,0.1807l2.19,3.4268C54.4638,24.8347,54.2676,25.9087,53.518,26.4851z M87.5842,76.299
			l-5.9656,4.5533c-1.2911,0.9523-3.0269-0.0266-2.9602-1.543c0.1282-3.0964,1.5874-5.908,4.1917-9.083
			c0.8059-0.9872,2.3126-0.8653,2.9836,0.1728l2.188,3.4424C88.5456,74.6484,88.3518,75.7151,87.5842,76.299z"/>
		<path fill="#ffffff" d="M91.4538,97.2214c0.5232,3.4207-0.5666,6.4058-2.903,8.7815c-4.5083,4.4554-11.0657,3.6725-14.7234-0.0156
			c-4.9832-4.9778-22.4312-22.4627-25.8369-25.8709c-5.2586-5.2361-13.4009-5.5539-18.8526,0.0157
			c-5.4961,5.4156-5.2458,13.54,0.0105,18.8183c2.1819,2.1824,10.5735,10.5684,16.2847,16.2825
			c1.4358,1.4485,3.7754,1.4485,5.2217,0.0078c1.4433-1.4409,1.4433-3.7832,0-5.2188c-5.7141-5.719-14.1028-14.1054-16.2906-16.2876
			c-2.2728-2.2686-2.7263-5.6279,0-8.394c2.7691-2.7397,6.1411-2.2911,8.4075,0c3.3975,3.3928,20.8538,20.8855,25.8391,25.8792
			c6.7923,6.7222,18.0062,7.163,25.159,0c4.0682-4.0689,6.0891-9.8151,4.8383-16.0811
			C96.1797,96.1892,93.7668,96.8676,91.4538,97.2214z"/>
	</g>
</g>
</svg>
