<?xml version="1.0" encoding="utf-8"?>
<!-- Generator: Adobe Illustrator 18.1.1, SVG Export Plug-In . SVG Version: 6.00 Build 0)  -->
<svg version="1.2" baseProfile="tiny" xmlns="http://www.w3.org/2000/svg" xmlns:xlink="http://www.w3.org/1999/xlink" x="0px"
	 y="0px" width="64px" height="64px" viewBox="0 0 64 64" xml:space="preserve">
<g id="_x36_4px_boxes">
	<rect fill="none" width="64" height="64"/>
</g>
<g id="Production">
	<g>
		<polygon fill="#ffffff" points="33,53.9999 36,51.4999 33,48.9999 		"/>
		<polygon fill="#ffffff" points="31,53.9999 31,48.9999 28,51.4999 		"/>
		<path fill="#ffffff" d="M43,6H21c-2.2056,0-4,1.7944-4,4v44c0,2.2056,1.7944,4,4,4h22c2.2056,0,4-1.7944,4-4V10
			C47,7.7944,45.2056,6,43,6z M21,8h22c1.103,0,2,0.897,2,2v35H19V10C19,8.897,19.897,8,21,8z M43,56H21c-1.103,0-2-0.897-2-2v-7h26
			v7C45,55.103,44.103,56,43,56z"/>
		<rect x="24" y="16" fill="#ffffff" width="16" height="2"/>
		<rect x="24" y="22" fill="#ffffff" width="12" height="2"/>
		<rect x="24" y="28" fill="#ffffff" width="16" height="2"/>
		<rect x="24" y="34" fill="#ffffff" width="14" height="2"/>
	</g>
</g>
</svg>

