<?xml version="1.0" encoding="utf-8"?>
<!-- Generator: Adobe Illustrator 18.1.1, SVG Export Plug-In . SVG Version: 6.00 Build 0)  -->
<svg version="1.2" baseProfile="tiny" xmlns="http://www.w3.org/2000/svg" xmlns:xlink="http://www.w3.org/1999/xlink" x="0px"
	 y="0px" width="128px" height="128px" viewBox="0 0 128 128" xml:space="preserve">
<g id="box">
	<rect fill="none" width="128" height="128"/>
</g>
<g id="Production">
	<path fill="#ffffff" d="M79.0406,42.5189c-8.0457-15.0823-13.457-28.1493-13.457-28.1493c-0.5835-1.412-2.6015-1.4053-3.1738,0.018
		c-2.445,6.0803-7.6356,17.3769-13.4468,28.1231C40.3362,58.4829,32.0217,67.444,32.0353,82.7275
		c0.001,17.6509,14.3066,31.956,31.9592,31.9571h0.0126c17.6495-0.0011,31.9564-14.3062,31.9576-31.9571
		C95.9802,67.4459,87.5832,58.544,79.0406,42.5189z M43.9608,66.7834c-1.077,14.8454,2.8907,30.1593,13.1896,39.1711
		C44.714,102.2827,33.454,87.5598,43.9608,66.7834z M75.7958,103.8698c4.966-7.7478,5.174-19.812-2.6221-37.6483
		c-5.0571-11.571-7.1687-25.3878-8.0398-34.0612c9.8472,20.5582,14.21,25.6469,18.6245,34.1493
		c3.1343,6.0325,4.4683,10.9394,4.4634,16.4096C88.2211,91.7983,83.202,99.7228,75.7958,103.8698z"/>
</g>
</svg>
