<?xml version="1.0" encoding="utf-8"?>
<!-- Generator: Adobe Illustrator 18.1.1, SVG Export Plug-In . SVG Version: 6.00 Build 0)  -->
<svg version="1.2" baseProfile="tiny" xmlns="http://www.w3.org/2000/svg" xmlns:xlink="http://www.w3.org/1999/xlink" x="0px"
	 y="0px" width="128px" height="128px" viewBox="0 0 128 128" xml:space="preserve">
<g id="_x31_28px_boxes" display="none">
	<rect display="inline" fill="none" width="128" height="128"/>
</g>
<g id="Production">
	<g>
		<path fill="#ffffff" d="M116.7035,73.0146c-0.2455-3.2427-1.0732-7.1538-2.8381-10.8176
			c-2.0363-4.3435-6.1906-8.8255-12.5009-8.8186H90.1312c-1.2313,0.1812-2.104,1.1462-2.2339,2.302v27.956
			c0,2.3725-3.591,2.3756-3.591,0V50.4826c0-1.559-1.2756-2.8346-2.8345-2.8346H65.0714
			c-0.9997-16.0179-14.3462-28.744-30.6113-28.744c-16.913,0-30.6728,13.7604-30.6728,30.6743
			c0,10.5884,5.3934,19.9406,13.5769,25.4545v19.1045c0,1.5591,1.2756,2.8347,2.8345,2.8347h7.9328
			c1.0537-6.7343,6.8843-11.6395,13.5988-11.6395c6.6745,0,12.5248,4.8298,13.594,11.6395c0,0,32.1171,0.0035,34.9139,0
			c1.1135-6.9525,7.0614-11.6395,13.5914-11.6395c6.6731,0,12.5031,4.8229,13.588,11.5997c0.353,0.0041,3.0965,0.0131,3.0965,0.0131
			c2.0229,0,3.6986-1.6414,3.6986-3.6963V81.8234C124.0616,77.9758,120.2799,75.3715,116.7035,73.0146z M34.4601,73.6774
			c-13.2884,0-24.0993-10.8108-24.0993-24.0991c0-13.2892,10.8109-24.1008,24.0993-24.1008
			c13.2889,0,24.1004,10.8116,24.1004,24.1008C58.5605,62.8666,47.749,73.6774,34.4601,73.6774z M96.2412,73.9284V60.7873h5.1233
			c5.2447,0.0193,7.6501,7.9142,7.9559,13.1411H96.2412z"/>
		<path fill="#ffffff" d="M38.1168,49.5783l-1.3134-15.6686c-0.2369-2.856-4.4471-2.856-4.6866,0l-1.1689,13.9458l-9.2316,8.4318
			c-2.0802,1.8972,0.4056,5.178,2.7949,3.7043l12.1514-7.4942c0.9565-0.5925,1.5575-1.6896,1.4569-2.8877L38.1168,49.5783z"/>
		<path fill="#ffffff" d="M41.7383,89.0335c-5.5401,0-10.0312,4.4912-10.0312,10.0313c0,5.54,4.4911,10.0312,10.0312,10.0312
			c5.5402,0,10.0313-4.4912,10.0313-10.0312C51.7696,93.5247,47.2785,89.0335,41.7383,89.0335z M41.7383,102.847
			c-2.1228,0-3.8437-1.6934-3.8437-3.7822c0-2.0889,1.7209-3.7823,3.8437-3.7823c2.1229,0,3.8438,1.6934,3.8438,3.7823
			C45.5821,101.1536,43.8612,102.847,41.7383,102.847z"/>
		<path fill="#ffffff" d="M103.7383,89.0335c-5.5401,0-10.0312,4.4912-10.0312,10.0313c0,5.54,4.4911,10.0312,10.0312,10.0312
			c5.5402,0,10.0313-4.4912,10.0313-10.0312C113.7696,93.5247,109.2785,89.0335,103.7383,89.0335z M103.7383,102.847
			c-2.1228,0-3.8437-1.6934-3.8437-3.7822c0-2.0889,1.7209-3.7823,3.8437-3.7823c2.1229,0,3.8438,1.6934,3.8438,3.7823
			C107.5821,101.1536,105.8612,102.847,103.7383,102.847z"/>
	</g>
</g>
</svg>
