<?xml version="1.0" encoding="utf-8"?>
<!-- Generator: Adobe Illustrator 18.1.1, SVG Export Plug-In . SVG Version: 6.00 Build 0)  -->
<svg version="1.2" baseProfile="tiny" xmlns="http://www.w3.org/2000/svg" xmlns:xlink="http://www.w3.org/1999/xlink" x="0px"
	 y="0px" width="64px" height="64px" viewBox="0 0 64 64" xml:space="preserve">

<g id="Production">
	<g>
		<path fill="#ffffff" d="M47.0122,36.0063c-0.0049,0-0.0093,0-0.0146,0c-3.9629,0-7.5122,2.6528-8.6328,6.4551l-2.2158,7.5181
			C35.2739,52.9482,32.54,54.9863,29.4058,55H19.0354l-1.1534,2h11.516c0.0122,0,0.0239,0,0.0366,0
			c3.9639,0,7.5107-2.6499,8.6323-6.4551l2.2158-7.5181c0.8721-2.9575,3.6323-5.0305,6.7148-5.0305c0.0039,0,0.0078,0,0.0117,0
			L56,37.99v-1.9695L47.0122,36.0063z"/>
		<path fill="#ffffff" d="M29.7686,44.3867l9.8677-31.7632c0.4619-1.4878-0.2739-3.061-1.7119-3.6592l-9.5786-3.9873
			c-1.3979-0.582-3.0947,0.0288-3.8032,1.3633L8.9561,35.7227l2.4277,13.9528l-2.2441,7.2758l6.4189,0.0249l2.5836-4.4702
			L29.7686,44.3867z M13.3013,49.0283l-2.0037-11.5162l15.5513,6.4742l-9.5837,6.6923L13.3013,49.0283z M26.3091,7.2778
			c0.2354-0.4434,0.7988-0.6499,1.2681-0.4541l9.5786,3.9873c0.4795,0.1992,0.7246,0.7236,0.5703,1.2192l-9.4403,30.3876
			l-16.8878-7.0306L26.3091,7.2778z M14.4072,54.9717l-2.5605-0.0098l1.1948-3.875l2.9105,1.2117L14.4072,54.9717z"/>
	</g>
</g>
</svg>
