<?xml version="1.0" encoding="utf-8"?>
<!-- Generator: Adobe Illustrator 18.1.1, SVG Export Plug-In . SVG Version: 6.00 Build 0)  -->
<svg version="1.2" baseProfile="tiny" xmlns="http://www.w3.org/2000/svg" xmlns:xlink="http://www.w3.org/1999/xlink" x="0px"
	 y="0px" width="128px" height="128px" viewBox="0 0 128 128" xml:space="preserve">
<g id="_x31_28px_boxes">
	<rect fill="none" width="128" height="128"/>
</g>
<g id="Production">
	<g>
		<path fill="#ffffff" d="M91.7083,72.4961c1.479,1.5652,2.3142,3.4236,1.5017,5.4819c-3.2271,8.1758-28.6907,7.7798-31.4112,18.503
			c-2.0717,8.1645,6.5552,13.0844,14.4258,15.8164c19.832-2.5899,34.4219-11.3267,34.4219-21.7083
			C110.6465,83.1709,103.1963,76.5925,91.7083,72.4961z"/>
		<path fill="#ffffff" d="M82.3062,75.895c1.1362-3.5334-2.8028-5.6858-6.3121-6.8706c0-6.2829,0-0.9419,0-10.9377
			c10.8521-1.0996,18.2144-5.3396,19.5205-12.5789c1.0123-5.6108-0.9248-12.2803-7.8735-14.0688
			c-2.1059-9.0664-9.1951-15.7361-17.6221-15.7364c-8.7141,0.0003-15.5932,7.0105-17.623,15.7364
			c-6.9485,1.7885-8.8848,8.458-7.8726,14.0688c1.5249,8.4558,10.9214,11.708,19.5203,12.5789c0,1.641,0,2.7975,0,3.603
			c0,1.2669,0,1.6552,0,1.6145c0,0.9886,0,2.5048,0,4.7949c-6.8787,0-13.1965,0.7057-18.7986,1.8933v-6.0591
			c3.304-0.5725,6.2759-1.726,8.6919-3.3972c-7-2.4167-12.5286-7.0077-13.831-14.2317c-1.2271-6.8022,1.0429-14.9961,8.6025-18.3283
			c0.0276-0.0838,0.0583-0.1656,0.0867-0.2488c-2.5926-1.7141-5.489-2.7551-8.5459-2.7551c-11.0745,0-20.053,13.6435-20.053,23.5918
			c0,8.3989,6.3996,13.8691,15.0571,15.3693v8.9432c-10.897,4.1167-17.8999,10.5202-17.8999,17.7126
			c0,7.2654,7.147,13.7246,18.2339,17.8362c-2.8386-5.9102-4.0459-13.1565,2.8745-18.0996
			C51.7847,80.8096,80.2756,82.2114,82.3062,75.895z"/>
	</g>
</g>
</svg>
