<?xml version="1.0" encoding="utf-8"?>
<!-- Generator: Adobe Illustrator 18.1.1, SVG Export Plug-In . SVG Version: 6.00 Build 0)  -->
<svg version="1.2" baseProfile="tiny" xmlns="http://www.w3.org/2000/svg" xmlns:xlink="http://www.w3.org/1999/xlink" x="0px"
	 y="0px" width="128px" height="128px" viewBox="0 0 128 128" xml:space="preserve">
<g id="_x31_28px_boxes" display="none">
	<rect display="inline" fill="none" width="128" height="128"/>
</g>
<g id="Production">
	<g>
		<path fill="#ffffff" d="M21.7596,50.7268c-5.9189,0-10.7344,4.8154-10.7344,10.7344c0,5.9189,4.8155,10.7343,10.7344,10.7343
			c5.919,0,10.7344-4.8154,10.7344-10.7343C32.494,55.5422,27.6786,50.7268,21.7596,50.7268z M21.7596,65.6955
			c-2.3349,0-4.2344-1.8995-4.2344-4.2343c0-2.3349,1.8995-4.2344,4.2344-4.2344c2.335,0,4.2344,1.8995,4.2344,4.2344
			C25.994,63.796,24.0946,65.6955,21.7596,65.6955z"/>
		<path fill="#ffffff" d="M46.5606,72.1955c5.919,0,10.7344-4.8154,10.7344-10.7343c0-5.919-4.8154-10.7344-10.7344-10.7344
			c-5.9189,0-10.7343,4.8154-10.7343,10.7344C35.8263,67.3801,40.6417,72.1955,46.5606,72.1955z M46.5606,57.2268
			c2.335,0,4.2344,1.8995,4.2344,4.2344c0,2.3348-1.8994,4.2343-4.2344,4.2343c-2.3349,0-4.2343-1.8995-4.2343-4.2343
			C42.3263,59.1263,44.2257,57.2268,46.5606,57.2268z"/>
		<path fill="#ffffff" d="M57.3424,90.6061c0-6.6564-5.5525-10.7784-10.7766-10.7333c-5.8994,0.0229-10.6922,4.8285-10.6922,10.7333
			c0,5.9047,4.7928,10.7103,10.6922,10.7332c0.0141,0.0002,0.028,0.0011,0.0422,0.0011
			C52.5269,101.3404,57.3424,96.525,57.3424,90.6061z M42.3736,90.6061c0-2.3206,1.8767-4.2093,4.1922-4.2322
			c1.9741-0.0341,4.2766,1.6346,4.2766,4.2322c0,2.3348-1.8994,4.2343-4.2344,4.2343c-0.0144,0-0.0281-0.0019-0.0422-0.0022
			C44.2503,94.8153,42.3736,92.9266,42.3736,90.6061z"/>
		<path fill="#ffffff" d="M71.3617,72.1955c5.9189,0,10.7343-4.8154,10.7343-10.7343c0-5.919-4.8154-10.7344-10.7343-10.7344
			c-5.919,0-10.7344,4.8154-10.7344,10.7344C60.6273,67.3801,65.4427,72.1955,71.3617,72.1955z M71.3617,57.2268
			c2.3349,0,4.2343,1.8995,4.2343,4.2344c0,2.3348-1.8994,4.2343-4.2343,4.2343c-2.335,0-4.2344-1.8995-4.2344-4.2343
			C67.1273,59.1263,69.0267,57.2268,71.3617,57.2268z"/>
		<path fill="#ffffff" d="M14.2225,42.6858c1.4629,1.4631,3.5068,1.0895,4.5962,0l2.9409-2.9409l2.9409,2.9409
			c1.3682,1.3685,3.5105,1.0859,4.5962,0c1.2693-1.2693,1.2693-3.327,0-4.5962l-2.9409-2.9409l2.9409-2.941
			c1.2693-1.2691,1.2693-3.327,0-4.5961c-1.269-1.2693-3.3271-1.2693-4.5962,0l-2.9409,2.9409l-2.9409-2.9408
			c-1.269-1.2693-3.3272-1.2693-4.5962,0c-1.2693,1.2691-1.2693,3.327,0,4.5962l2.9409,2.9408l-2.9409,2.9409
			C12.9532,39.3588,12.9532,41.4166,14.2225,42.6858z"/>
		<path fill="#ffffff" d="M39.0235,42.6858c1.3267,1.327,3.3579,1.2384,4.5962,0l2.9409-2.9409l2.941,2.9409
			c1.2216,1.2219,3.2512,1.3453,4.5961,0c1.2693-1.2693,1.2693-3.327,0-4.5962l-2.9409-2.9409l2.9409-2.941
			c1.2693-1.2691,1.2693-3.327,0-4.5961c-1.269-1.2693-3.3271-1.2693-4.5961,0l-2.941,2.9409l-2.9409-2.9408
			c-1.269-1.2693-3.3271-1.2693-4.5962,0c-1.2693,1.2691-1.2693,3.327,0,4.5962l2.9409,2.9408l-2.9409,2.9409
			C37.7542,39.3588,37.7542,41.4166,39.0235,42.6858z"/>
		<path fill="#ffffff" d="M63.8246,42.6858c1.3259,1.3261,3.3579,1.2386,4.5961,0l2.941-2.9409l2.9409,2.9409
			c1.2876,1.2879,3.3188,1.2774,4.5962,0c1.2693-1.2693,1.2693-3.327,0-4.5962l-2.9409-2.9409l2.9409-2.941
			c1.2693-1.2691,1.2693-3.327,0-4.5961c-1.2691-1.2693-3.3272-1.2693-4.5962,0l-2.9409,2.9409l-2.941-2.9408
			c-1.269-1.2693-3.3271-1.2693-4.5961,0c-1.2693,1.2691-1.2693,3.327,0,4.5962l2.9409,2.9408l-2.9409,2.9409
			C62.5553,39.3588,62.5553,41.4166,63.8246,42.6858z"/>
		<path fill="#ffffff" d="M116.4049,52.7872l-12.0965-13.2597c-0.718-0.7872-2.0358-0.8053-2.7705,0L89.3644,52.8716
			c-1.4046,1.5398,0.2158,3.1386,1.3852,3.1386h5.9441c-0.7549,7.2256-3.5139,15.2499-10.7651,20.4588
			c-5.7337,4.1468-14.2976,5.9083-19.8033,6.3297c-0.1018,0.0079-2.8181-0.0834-2.7382,2.0196v11.2872
			c-0.0508,1.3376,1.1018,2.0445,2.073,1.941v0.0016c0.7475-0.0737,1.496-0.1585,2.2456-0.2555
			c13.1765-1.6943,25.862-6.9347,33.6369-17.7333c5.1077-7.0701,7.4258-17.1029,7.6768-24.0491h6.0774
			c0.0017,0,0.0029-0.0001,0.0049,0C116.8919,56.0102,117.5521,53.8956,116.4049,52.7872z"/>
	</g>
</g>
</svg>
