<?xml version="1.0" encoding="utf-8"?>
<!-- Generator: Adobe Illustrator 18.1.1, SVG Export Plug-In . SVG Version: 6.00 Build 0)  -->
<svg version="1.2" baseProfile="tiny" xmlns="http://www.w3.org/2000/svg" xmlns:xlink="http://www.w3.org/1999/xlink" x="0px"
	 y="0px" width="64px" height="64px" viewBox="0 0 64 64" xml:space="preserve">

<g id="Production">
	<g>
		<path fill="#ffffff" d="M32,7C18.2148,7,7,18.2148,7,32s11.2148,25,25,25s25-11.2148,25-25S45.7852,7,32,7z M32,55
			C19.3179,55,9,44.6821,9,32S19.3179,9,32,9s23,10.3179,23,23S44.6821,55,32,55z"/>
		<path fill="#ffffff" d="M17.1008,46.8765l17.739-12.0594l12.0593-17.6936l-17.739,12.0594L17.1008,46.8765z M30.0376,30.0375
			l3.9248,3.9249L21.6497,42.333l8.3738-12.2859L30.0376,30.0375z"/>
	</g>
</g>
</svg>
