<?xml version="1.0" encoding="utf-8"?>
<!-- Generator: Adobe Illustrator 18.1.1, SVG Export Plug-In . SVG Version: 6.00 Build 0)  -->
<svg version="1.2" baseProfile="tiny" xmlns="http://www.w3.org/2000/svg" xmlns:xlink="http://www.w3.org/1999/xlink" x="0px"
	 y="0px" width="64px" height="64px" viewBox="0 0 64 64" xml:space="preserve">

<g id="Production">
	<path fill="#ffffff" d="M50,23H25c-1.103,0-2-0.897-2-2c0-0.0385,0.0093-0.0744,0.0112-0.1124C23.071,19.8377,23.9355,19,25,19
		c31.4861,0,10.475,0,24,0v-2c-10.8239,0-18.0366,0-29,0c-1.103,0-2-0.897-2-2c0-0.0385,0.0093-0.0744,0.0112-0.1124
		C18.071,13.8377,18.9355,13,20,13c9.9342,0,14.1169,0,24,0v-2c-10.8239,0-18.0366,0-29,0c-1.103,0-2-0.897-2-2s0.897-2,2-2h24V5H15
		c-2.2056,0-4,1.7944-4,4v34c0,2.2056,1.7944,4,4,4h1v2c0,2.2056,1.7944,4,4,4h1v2c0,2.2056,1.7944,4,4,4h25c1.6543,0,3-1.3457,3-3
		V26C53,24.3457,51.6543,23,50,23z M15,45c-1.103,0-2-0.897-2-2V12.4634C13.5889,12.8047,14.272,13,15,13h1.5564
		C16.2119,13.5908,16,14.2682,16,15v30.0423L15,45z M20,51c-1.103,0-2-0.897-2-2V18.4634C18.5889,18.8047,19.272,19,20,19h1.5564
		C21.2119,19.5908,21,20.2682,21,21v30H20z M51,56c0,0.5513-0.4487,1-1,1H25c-1.103,0-2-0.897-2-2V24.4634
		C23.5889,24.8047,24.272,25,25,25h25c0.5513,0,1,0.4487,1,1V56z"/>
</g>
</svg>
