<?xml version="1.0" encoding="utf-8"?>
<!-- Generator: Adobe Illustrator 18.1.1, SVG Export Plug-In . SVG Version: 6.00 Build 0)  -->
<svg version="1.2" baseProfile="tiny" xmlns="http://www.w3.org/2000/svg" xmlns:xlink="http://www.w3.org/1999/xlink" x="0px"
	 y="0px" width="128px" height="128px" viewBox="0 0 128 128" xml:space="preserve">
<g id="box">
	<rect fill="none" width="128" height="128"/>
</g>
<g id="Production">
	<g>
		<path fill="#ffffff" d="M25.8352,46.6509l14.6794,4.1345c1.5099-5.5171,5.8361-9.8633,11.3407-11.4028l-4.1352-14.6807
			C37.1319,27.6667,28.7717,36.0444,25.8352,46.6509z"/>
		<path fill="#ffffff" d="M31.8253,79.5327c-6.2576-6.2615-10.1185-14.8804-10.1199-24.4314
			c0.0022-19.087,15.467-34.5498,34.5534-34.5527c9.5505,0.001,18.1704,3.862,24.4326,10.1201
			c6.7081,6.7124,10.4181,15.8573,10.0995,25.5769c2.0399,0.3066,4.0148,0.8098,5.906,1.4893
			c1.5064-23.5222-17.1475-43.1567-40.4381-43.159C33.876,14.5781,15.7349,32.719,15.7328,55.1013
			c0.0021,22.2527,17.9331,40.3074,40.1361,40.5188c-0.5333-1.9316-0.8881-3.938-1.042-5.9995
			C45.8478,89.2544,37.7733,85.4756,31.8253,79.5327z"/>
		<path fill="#ffffff" d="M90.2362,61.4097c-16.7577-2.6619-31.6339,11.0477-30.218,28.0383
			c1.1142,13.4236,12.3617,23.9761,26.0781,23.9761c14.4539,0,26.1709-11.7171,26.1709-26.1702
			C112.2672,74.2037,102.7143,63.3933,90.2362,61.4097z M89.3852,104.4189c4.4207-3.619,3.986-8.5876,1.2134-13.5832
			c0.2463,3.1502-1.6988,8.5576-5.7809,7.8586c-2.2184-0.3865-2.4425-2.6197-2.1075-4.8374
			c-2.2799,2.0225-3.8188,3.2997-3.3436,7.1802c0.1491,1.21,0.8915,2.4883,1.9446,3.4617
			c-4.8403-1.0426-8.7857-3.8643-9.2986-8.8303c-0.8527-8.2639,7.3815-11.9403,6.0224-19.0657
			c1.6801,1.7527,4.1937,5.5981,5.4695,9.8479c0.487-5.9018,2.5798-14.8391,7.5857-17.9602
			c-1.9353,12.5216,4.8215,14.1379,8.2317,21.3357C102.6255,96.8049,97.2115,102.6755,89.3852,104.4189z"/>
		<path fill="#ffffff" d="M69.705,55.1025c-0.0018-7.4287-6.0191-13.445-13.4462-13.4467c-7.4201,0-13.4453,6.0295-13.4468,13.4467
			c0.002,7.4268,6.0191,13.4439,13.4468,13.4456C63.7207,68.5463,69.7031,62.4875,69.705,55.1025z M56.2588,62.5762
			c-4.1268-0.0081-7.4675-3.3477-7.4749-7.4737c0.0084-4.1506,3.3749-7.4655,7.4749-7.4755
			c4.1262,0.0075,7.4669,3.3476,7.4742,7.4755C63.7257,59.2285,60.385,62.5681,56.2588,62.5762z"/>
	</g>
</g>
</svg>
