<?xml version="1.0" encoding="utf-8"?>
<!-- Generator: Adobe Illustrator 18.1.0, SVG Export Plug-In . SVG Version: 6.00 Build 0)  -->
<svg version="1.2" baseProfile="tiny" xmlns="http://www.w3.org/2000/svg" xmlns:xlink="http://www.w3.org/1999/xlink" x="0px"
	 y="0px" width="64px" height="64px" viewBox="0 0 64 64" xml:space="preserve">
<g id="_x36_4px_boxes">
	<rect fill="none" width="64" height="64"/>
</g>
<g id="Production">
	<g>
		<path fill="#ffffff" d="M48.1055,22.0522C45.8486,13.8062,38.4287,8,29.8096,8c-5.6319,0-10.6612,2.0801-14.1621,5.8569
			c-3.1348,3.3814-4.8282,7.958-4.8643,13.0474C5.3145,29.0239,2,33.7578,2,39.6582C2,47.0151,7.9561,53,15.2764,53H22v-5h-6.7236
			C10.7129,48,7,44.2578,7,39.6582c0-4.2349,2.6016-7.4224,6.96-8.5269l2.038-0.5166l-0.1591-2.0961
			c-0.3457-4.543,0.8564-8.4375,3.4756-11.2627C21.8584,14.5112,25.5859,13,29.8096,13c6.8086,0,12.6035,4.9395,13.7783,11.7451
			l0.332,1.9185l1.9405,0.1489C52.4189,27.3164,57,31.6738,57,37.4087C57,43.2485,52.291,48,46.502,48H41v5h5.502
			C55.0479,53,62,46.0059,62,37.4087C62,29.5259,56.376,23.4258,48.1055,22.0522z"/>
		<polygon fill="#ffffff" points="29,27 29,42.9365 22.4746,36.0806 18.8535,39.5278 31.5,52.8164 44.1465,39.5278 40.5254,36.0806 
			34,42.9365 34,27 		"/>
	</g>
</g>
</svg>

