<?xml version="1.0" encoding="utf-8"?>
<!-- Generator: Adobe Illustrator 18.1.1, SVG Export Plug-In . SVG Version: 6.00 Build 0)  -->
<svg version="1.2" baseProfile="tiny" xmlns="http://www.w3.org/2000/svg" xmlns:xlink="http://www.w3.org/1999/xlink" x="0px"
	 y="0px" width="128px" height="128px" viewBox="0 0 128 128" xml:space="preserve">
<g id="_x31_28px_boxes">
	<rect fill="none" width="128" height="128"/>
</g>
<g id="Production">
	<g>
		<circle fill="#ffffff" cx="44.3259" cy="42.6783" r="3.3899"/>
		<path fill="#ffffff" d="M63.9946,6.3084c-31.8467,0-49.2563,37.0678-29.51,61.4588c4.7288,5.8391,15.4773,15.063,21.8403,30.6132
			c2.7548,6.7347,2.1231,13.6291,2.3006,18.4215c0.2338,6.3144,10.9659,6.6813,11.1086,0.1169
			c0.1169-5.3789,0.1899-12.9451,2.0066-18.6707c3.8624-12.1721,19.6276-27.6771,22.543-31.4487
			C112.6236,43.0776,95.8661,6.3084,63.9946,6.3084z M85.3003,60.2086v4.2407c0,0.659-0.5348,1.1616-1.156,1.1616h-4.9178
			c-0.6318,0-1.1596-0.5109-1.1596-1.1616v-4.2407H63.1477v4.2441c0,0.6419-0.5257,1.1582-1.1597,1.1582H57.07
			c-0.6297,0-1.1584-0.5123-1.1584-1.1582v-4.2441c-1.5818,0-2.6101-0.4056-3.373-2.598c-0.7398-2.2545-0.74-5.7455,0-7.9926
			c0.3635-1.0488,1.0029-2.3794,2.6425-2.5711c0.0259-0.0996,2.3687-7.6259,2.3687-7.6259
			c0.7258-2.2412,2.7651-3.6863,5.0473-3.7322h16.0347c2.2793,0.0459,4.3128,1.4963,5.0303,3.7122c0,0,2.3396,7.5368,2.3606,7.6239
			c1.4641,0.0116,2.2533,1.263,2.6863,2.6424c0.757,2.4892,0.8377,7.3289-0.8003,9.5644
			C87.0964,60.2814,86.3005,60.2086,85.3003,60.2086z M41.7844,54.546c-0.6284,0-1.1584-0.511-1.1584-1.1582v-4.2442
			c-1.5821,0-2.61-0.4055-3.3731-2.5979c-0.7398-2.2552-0.7398-5.7454,0-7.9927c0.3635-1.0488,1.0029-2.3794,2.6426-2.571
			c0.0259-0.0996,2.3686-7.626,2.3686-7.626c0.7259-2.2412,2.7652-3.6863,5.0474-3.7321h16.0347
			c2.2793,0.0458,4.3127,1.4963,5.0302,3.7121c0,0,0.4084,1.3154,0.8852,2.8528h-5.5748l-0.2107-0.6736
			c-0.1158-0.5347-0.9151-1.1121-1.459-1.0774c0,0-13.4129-0.0019-13.4287-0.0019c-0.5435,0-1.3106,0.5673-1.4217,1.0918
			l-1.6023,5.1113h8.8573c-1.2622,1.9108-2.0731,5.3477-2.9233,8.0861c-1.8582,1.234-2.9469,3.2188-3.5001,5.4185H47.862
			c0,1.0001-0.4474,2.2951-0.3668,5.0864c-0.214,0.1974-0.4989,0.316-0.7928,0.316H41.7844z"/>
		<circle fill="#ffffff" cx="81.583" cy="53.7432" r="3.3899"/>
		<circle fill="#ffffff" cx="59.6113" cy="53.743" r="3.3897"/>
		<path fill="#ffffff" d="M78.7617,41.5802c-0.1124-0.5193-0.8696-1.0789-1.4114-1.0789c-0.0161,0-0.032,0.0005-0.0476,0.0015
			c0,0-13.4128-0.002-13.4287-0.002c-0.5435,0-1.3105,0.5674-1.4216,1.0918l-1.6023,5.1113h19.5142L78.7617,41.5802z"/>
	</g>
</g>
</svg>
