<?xml version="1.0" encoding="utf-8"?>
<!-- Generator: Adobe Illustrator 18.1.1, SVG Export Plug-In . SVG Version: 6.00 Build 0)  -->
<svg version="1.2" baseProfile="tiny" xmlns="http://www.w3.org/2000/svg" xmlns:xlink="http://www.w3.org/1999/xlink" x="0px"
	 y="0px" width="64px" height="64px" viewBox="0 0 64 64" xml:space="preserve">

<g id="Production">
	<g>
		<polygon fill="#ffffff" points="22.2124,33.7212 22.1851,33.7212 18.0269,27.0376 15.8501,27.0376 15.8501,37 17.9009,37 
			17.9009,30.3306 17.9292,30.3306 22.0728,37 24.2632,37 24.2632,27.0376 22.2124,27.0376 		"/>
		<polygon fill="#ffffff" points="29.2163,32.7163 34.0444,32.7163 34.0444,31.0142 29.2163,31.0142 29.2163,28.8794 
			34.4771,28.8794 34.4771,27.0376 27.0259,27.0376 27.0259,37 34.5884,37 34.5884,35.1582 29.2163,35.1582 		"/>
		<polygon fill="#ffffff" points="45.2915,33.9023 45.2632,33.9023 43.561,27.0376 41.5103,27.0376 39.7798,33.8188 
			39.7524,33.8188 38.1753,27.0376 35.9849,27.0376 38.6216,37 40.8403,37 42.5005,30.2188 42.5288,30.2188 44.2173,37 46.394,37 
			49.0728,27.0376 46.9243,27.0376 		"/>
		<path fill="#ffffff" d="M55.3149,33.5708c-0.4004-0.6606-0.4004-1.481,0-2.1416l2.4575-4.0518
			c0.6138-1.0122,0.7559-2.2383,0.3906-3.3643c-0.3657-1.1255-1.2017-2.0337-2.2935-2.4917L51.5,19.6875
			c-0.7119-0.2983-1.1943-0.9624-1.2583-1.7319l-0.3936-4.7227c-0.0986-1.1802-0.7041-2.2554-1.6616-2.9512
			c-0.9521-0.6919-2.1738-0.938-3.3198-0.6685l-4.6128,1.0854c-0.7427,0.1768-1.5405-0.0859-2.0371-0.6616l-3.0942-3.5894
			c-0.7725-0.8965-1.8945-1.4106-3.0786-1.4106c-1.1831,0-2.3052,0.5142-3.0786,1.4106l-3.0942,3.5894
			c-0.4961,0.5762-1.2939,0.8369-2.0366,0.6616l-4.6128-1.0854c-1.1455-0.2676-2.3667-0.0229-3.3203,0.6685
			c-0.9575,0.6958-1.5635,1.7715-1.6611,2.9512l-0.3936,4.7227c-0.064,0.7695-0.5464,1.4336-1.2583,1.7319l-4.3706,1.834
			c-1.0908,0.458-1.9263,1.3657-2.293,2.4922c-0.3652,1.1255-0.2231,2.3516,0.3906,3.3638l2.4575,4.0518
			c0.4004,0.6606,0.4004,1.481,0,2.1416l-2.4575,4.0518c-0.6138,1.0122-0.7559,2.2383-0.3901,3.3647
			c0.3662,1.1255,1.2017,2.0332,2.293,2.4917l4.3701,1.8335c0.7119,0.2983,1.1943,0.9624,1.2583,1.7319l0.3936,4.7222
			c0.0977,1.1802,0.7036,2.2559,1.6616,2.9517c0.9526,0.6919,2.1733,0.9365,3.3198,0.6685l4.6123-1.0854
			c0.7427-0.1748,1.541,0.0859,2.0371,0.6616l3.0942,3.5898c0.7734,0.896,1.8955,1.4102,3.0786,1.4102
			c1.1841,0,2.3062-0.5142,3.0786-1.4106l3.0942-3.5894c0.4961-0.5757,1.2939-0.8379,2.0366-0.6616l4.6133,1.0854
			c1.147,0.269,2.3682,0.0229,3.3198-0.6685c0.9575-0.6958,1.563-1.771,1.6616-2.9512l0.3936-4.7227
			c0.064-0.7695,0.5464-1.4336,1.2583-1.7324l4.3701-1.8335c1.0913-0.458,1.9272-1.3662,2.293-2.4922
			c0.3652-1.1255,0.2231-2.3516-0.3906-3.3638L55.3149,33.5708z M56.2607,40.3687c-0.1855,0.5718-0.6104,1.0332-1.1646,1.2661
			l-4.3696,1.833c-1.4023,0.5884-2.3521,1.8955-2.478,3.4106l-0.3936,4.7227c-0.0498,0.5991-0.3579,1.1455-0.8442,1.499
			c-0.4834,0.3516-1.1025,0.478-1.686,0.3394l-4.6138-1.0854c-1.4561-0.3423-3.0317,0.1694-4.0088,1.3032l-3.0942,3.5894
			c-0.7847,0.9102-2.3423,0.9102-3.1279,0l-3.0942-3.5894c-0.7725-0.8965-1.8945-1.4111-3.0786-1.4111
			c-0.3125,0-0.6255,0.0366-0.9307,0.1079l-4.6128,1.0854c-0.582,0.1367-1.2026,0.0122-1.6865-0.3394
			c-0.4863-0.3535-0.7939-0.8994-0.8438-1.499l-0.3936-4.7227c-0.126-1.5151-1.0757-2.8223-2.478-3.4106l-4.3696-1.833
			c-0.5542-0.2329-0.979-0.6943-1.165-1.2656c-0.1855-0.5723-0.1133-1.1953,0.1982-1.7095l2.4575-4.0518
			c0.7881-1.3003,0.7881-2.9155,0-4.2158l-2.4575-4.0518c-0.3115-0.5142-0.3838-1.1372-0.1987-1.7085
			c0.1865-0.5723,0.6113-1.0337,1.165-1.2661l4.3701-1.8335c1.4023-0.5884,2.3521-1.8955,2.478-3.4106l0.3936-4.7231
			c0.0498-0.5991,0.3574-1.145,0.8433-1.4985c0.4849-0.3516,1.105-0.4766,1.687-0.3394l4.6133,1.0854
			c1.4595,0.3418,3.0327-0.1704,4.0088-1.3032L30.48,7.7539c0.7856-0.9116,2.3433-0.9102,3.1279-0.0005l3.0942,3.5894
			c0.9771,1.1338,2.5498,1.6436,4.0093,1.3032l4.6133-1.0854c0.582-0.1382,1.2021-0.0122,1.686,0.3394
			c0.4863,0.3535,0.7944,0.8999,0.8442,1.499l0.3936,4.7227c0.126,1.5151,1.0757,2.8223,2.478,3.4102l4.3691,1.8335
			c0.5547,0.2329,0.9795,0.6943,1.165,1.2656c0.1855,0.5723,0.1133,1.1953-0.1982,1.7095l-2.4575,4.0518
			c-0.7881,1.3003-0.7881,2.9155,0,4.2158l2.4575,4.0518C56.374,39.1738,56.4463,39.7969,56.2607,40.3687z"/>
	</g>
</g>
</svg>
