<?xml version="1.0" encoding="utf-8"?>
<!-- Generator: Adobe Illustrator 18.1.1, SVG Export Plug-In . SVG Version: 6.00 Build 0)  -->
<svg version="1.2" baseProfile="tiny" xmlns="http://www.w3.org/2000/svg" xmlns:xlink="http://www.w3.org/1999/xlink" x="0px"
	 y="0px" width="128px" height="128px" viewBox="0 0 128 128" xml:space="preserve">
<g id="box">
	<rect fill="none" width="128" height="128"/>
</g>
<g id="Production">
	<g>
		<path fill="#ffffff" d="M66.1681,52.3405c-1.4575-2.9478-2.0505-6.2526-1.6776-9.5994c0.3346-3.0025,1.4209-5.8003,3.135-8.1893
			c-12.2044-2.2177-10.6541-1.9349-11.6541-2.1198c-3.1961-0.5748-6.5472,0.8784-8.2435,3.8622l-0.0002,0.0002
			c-2.6257,5.2713-5.9336,6.0382-13.3321,9.3057c-10.4399,4.5898-19.5479,11.0474-29.3648,25.954
			c-3.0075,4.5562,3.4161,9.5253,7.0532,5.3677l0.0058-0.0069c21.0999-24.122,32.7149-14.8691,45.6054-26.728L66.1681,52.3405z"/>
		<path fill="#ffffff" d="M72.0895,59.1038l1.0771,9.5484c-7.1204,5.6549-13.362,12.1395-18.4995,19.7329
			c-5.99,8.851-10.8245,20.0473-11.8432,30.2749c-0.2114,2.0994,1.1326,4.0974,3.2385,4.6429
			c2.3258,0.602,4.6994-0.7955,5.3016-3.1211c2.2845-8.8348,7.278-17.2068,13.3833-24.0384
			c6.5444-7.3253,13.1005-12.0904,21.6795-16.8459h0.0003c2.4206-1.2295,4.1005-3.7963,3.9291-7.5963l-0.4843-11.6896
			C84.0201,63.0911,77.2228,62.5535,72.0895,59.1038z"/>
		<path fill="#ffffff" d="M119.7513,32.2402c-9.3501,6.5812-16.6359,8.028-21.1527,8.0639
			c1.5533,6.0062-0.1873,12.5819-4.9264,17.0237c11.2087-1.7738,18.2559-6.5129,22.4196-10.6274
			c5.7832-5.715,7.4481-11.4915,7.5162-11.7347C124.2408,32.7043,121.6758,30.8852,119.7513,32.2402z"/>
		<path fill="#ffffff" d="M93.578,39.7705c1.2336-1.0687,2.3598-2.2209,3.4011-3.5156c2.6754-3.3269,5.1104-8.0225,5.4635-14.2819
			c0.539-9.5458-4.7646-16.208-4.9907-16.4869c-1.0505-1.2965-3.0472-1.2221-4.0011,0.1407L78.0011,27.6995
			c-0.2506,0.358-3.1821,4.4855-4.8624,6.9481c-2.1577,3.1623-3.6641,4.9081-4.0758,8.6029
			c-0.3467,3.1117,0.4397,6.1744,2.2158,8.7178c1.651,2.3632,4.0025,4.078,6.7171,4.9122c4.0651,1.249,8.4029,0.394,11.6567-2.1563
			c0.0319-0.0251,0.0652-0.0487,0.097-0.0742C94.3215,50.9943,95.6987,44.8666,93.578,39.7705z M86.7205,45.2179
			c-0.2961,2.6591-2.6493,4.6476-5.3838,4.4119c-2.779-0.2392-4.835-2.7184-4.5232-5.5157c0.2828-2.537,2.4244-4.4328,4.9479-4.4328
			C84.7844,39.6813,87.0437,42.3136,86.7205,45.2179z"/>
		
			<ellipse transform="matrix(-0.6245 -0.7811 0.7811 -0.6245 49.6615 149.8646)" fill="#ffffff" cx="60.8586" cy="62.9935" rx="8.0573" ry="3.6234"/>
	</g>
</g>
</svg>
