<?xml version="1.0" encoding="utf-8"?>
<!-- Generator: Adobe Illustrator 18.1.1, SVG Export Plug-In . SVG Version: 6.00 Build 0)  -->
<svg version="1.2" baseProfile="tiny" xmlns="http://www.w3.org/2000/svg" xmlns:xlink="http://www.w3.org/1999/xlink" x="0px"
	 y="0px" width="128px" height="128px" viewBox="0 0 128 128" xml:space="preserve">
<g id="_x31_28px_boxes">
	<rect fill="none" width="128" height="128"/>
</g>
<g id="Production">
	<g>
		<path fill="#ffffff" d="M92.0492,45.895c-1.0057-3.7138-2.6106-8.5224-4.5345-10.2739c-3.3056-3.0085-7.0952-1.487-8.487-3.1526
			c-1.3916-1.6657-0.7097-5.0098-2.5244-6.7754c-1.814-1.7651-3.4529-0.5971-5.6348-3.0734
			c-2.1819-2.4764,1.1829-4.6905-2.5452-7.7986c-1.7119-1.4275-4.9299-1.6826-7.3994-2.8699
			c-3.3176-1.5952-4.5283-4.7114-7.5937-3.9861c-5.668,1.3408-8.7276,8.6487-8.7276,8.6487
			c7.563-2.0308,12.5977,1.8076,12.5977,1.8076c-13.5874,0.8455-21.5789,5.5361-23.0913,12.7547
			c6.0896-3.2608,13.9509-3.5567,18.5107-2.044c-15.3808,3.6387-27.0508,10.9251-28.3506,23.8147
			c9.1216-9.4197,22.6802-12.7424,32.2247-12.2126c-12.7864,4.9726-38.3201,18.6552-34.8077,39.7255
			c1.6558,9.9319,8.5635,16.7776,15.8426,21.3445c-1.7741-18.7535,9.3493-41.5457,26.0959-48.9431
			c-5.1846,4.7681-9.6411,11.2644-12.7014,18.9265c-8.177,20.4715-3.208,41.0508,11.3127,46.8511
			c14.6031,5.8306,32.3395-5.7949,40.4761-26.1653C110.7657,72.3111,106.0668,52.0437,92.0492,45.895z M67.6524,105.0769
			c-5.9521-2.3773-8.3933-14.7903-3.1677-27.8725c5.1792-12.9671,15.4751-20.426,21.498-18.0206
			c5.9507,2.3773,8.395,14.7866,3.1678,27.8726C83.8648,100.2894,73.5306,107.4249,67.6524,105.0769z"/>
	</g>
</g>
</svg>

