<?xml version="1.0" encoding="utf-8"?>
<!-- Generator: Adobe Illustrator 18.1.1, SVG Export Plug-In . SVG Version: 6.00 Build 0)  -->
<svg version="1.2" baseProfile="tiny" xmlns="http://www.w3.org/2000/svg" xmlns:xlink="http://www.w3.org/1999/xlink" x="0px"
	 y="0px" width="128px" height="128px" viewBox="0 0 128 128" xml:space="preserve">
<g id="box">
	<rect fill="none" width="128" height="128"/>
</g>
<g id="Production">
	<g>
		<path fill="#ffffff" d="M17.4692,26.8132h4.1949v16.9782h-4.1949c-1.0398,0-1.8828,0.8432-1.8828,1.8831v8.7161
			c0,1.0396,0.843,1.8827,1.8828,1.8827h36.5223c1.0398,0,1.8828-0.8431,1.8828-1.8827v-8.7161c0-1.0399-0.843-1.8831-1.8828-1.8831
			H30.6792V26.8132h23.3123c1.0881,0,1.9702-0.8821,1.9702-1.9701v-5.7389c0-0.8257-0.5149-1.5636-1.2893-1.8489l-18.2244-6.71
			c-0.4385-0.1614-0.9204-0.1617-1.3589-0.0009l-18.2983,6.7098c-0.7757,0.2848-1.2918,1.0233-1.2918,1.85v5.7389
			C15.499,25.9311,16.3811,26.8132,17.4692,26.8132z"/>
		<path fill="#ffffff" d="M49.7209,31.8577c-1.6691,0.2571-2.9484,1.6951-2.9484,3.4364c0,1.7277,1.2597,3.1576,2.9101,3.4308
			v0.0011l64.491,11.3441V20.5182L49.7209,31.8577z"/>
		<polygon fill="#ffffff" points="26.8188,96.252 29.2429,79.2396 52.1721,79.2396 49.6973,61.8698 21.7642,61.8698 
			13.8264,117.5757 57.6343,117.576 54.5959,96.252 		"/>
	</g>
</g>
</svg>
