<?xml version="1.0" encoding="utf-8"?>
<!-- Generator: Adobe Illustrator 18.1.1, SVG Export Plug-In . SVG Version: 6.00 Build 0)  -->
<svg version="1.2" baseProfile="tiny" xmlns="http://www.w3.org/2000/svg" xmlns:xlink="http://www.w3.org/1999/xlink" x="0px"
	 y="0px" width="128px" height="128px" viewBox="0 0 128 128" xml:space="preserve">
<g id="box">
	<rect fill="none" width="128" height="128"/>
</g>
<g id="Production">
	<g>
		<path fill="#ffffff" d="M60.4946,55.0666c-0.1549,0-0.3108,0.0136-0.4632,0.0405c-2.3591,0.4162-3.8521,4.0511-3.1948,7.7786
			c0.6815,3.865,3.2297,6.2576,5.1998,6.2578h0.0001c0.1545,0,0.3102-0.0136,0.4627-0.0405
			c2.359-0.4161,3.8521-4.0511,3.1947-7.7789C65.0125,57.4589,62.4646,55.0666,60.4946,55.0666z"/>
		<path fill="#ffffff" d="M76.1716,50.348c-0.1057,0-0.2129,0.0095-0.3186,0.0282c-0.9862,0.1738-1.643,1.1113-1.4687,2.0974
			c0.1528,0.8675,0.9011,1.4971,1.779,1.4971c0.1058,0,0.2129-0.0094,0.3184-0.0281c0.9834-0.1734,1.6426-1.1145,1.4692-2.0978
			C77.7979,50.9775,77.0496,50.348,76.1716,50.348z"/>
		<path fill="#ffffff" d="M111.4768,66.412c0,0-6.3098-6.7549-8.6482-9.2595c0.8162-1.9193,4.9605-11.6568,4.9605-11.6568
			c1.3449-3.1584-0.553-6.7936-3.9622-7.4519c0,0-9.0747-1.7554-12.439-2.4057c-0.4665-2.032-2.8378-12.3477-2.8378-12.3477
			c-0.7774-3.3648-4.4524-5.163-7.585-3.6987c0,0-8.374,3.9138-11.4775,5.3635c-1.5728-1.3689-9.5552-8.3203-9.5552-8.3203
			c-2.6079-2.2702-6.6387-1.5552-8.3106,1.4646c0,0-4.4743,8.0903-6.132,11.0874c-2.079-0.1834-12.6209-1.1148-12.6209-1.1148
			c-3.4385-0.3031-6.2861,2.6406-5.8612,6.0701c0,0,1.1344,9.1729,1.5543,12.5735c-1.7881,1.073-10.8652,6.5149-10.8652,6.5149
			c-2.9785,1.7843-3.5173,5.8499-1.1731,8.3581c0,0,6.31,6.7537,8.6477,9.2569c-0.8167,1.9199-4.9601,11.6604-4.9601,11.6604
			c-1.3424,3.1399,0.5402,6.7898,3.9614,7.4489c0,0,9.0749,1.7559,12.4385,2.4068c0.4678,2.0337,2.839,12.3472,2.839,12.3472
			c0.7726,3.361,4.4492,5.1645,7.5842,3.6994c0,0,8.3743-3.9136,11.4783-5.3638c1.5732,1.3699,9.5542,8.3194,9.5542,8.3194
			c2.6089,2.272,6.6378,1.5566,8.3108-1.4641c0,0,4.4746-8.0894,6.1333-11.0869c2.0779,0.1826,12.6191,1.1151,12.6191,1.1151
			c3.4529,0.3033,6.2836-2.6499,5.8628-6.0705c0,0-1.1347-9.1733-1.5561-12.5735c1.79-1.0727,10.8655-6.5161,10.8655-6.5161
			C113.2843,72.9825,113.8186,68.9136,111.4768,66.412z M50.3311,76.5284l-11.5408,2.0352
			c-2.3503,0.4171-4.0979-2.1518-2.8451-4.1873c0.0427-0.0693,4.2991-6.9859,6.9423-11.4321
			c0.8565-1.441,0.9945-2.7435,0.3881-3.6677c-0.4975-0.7582-1.4398-1.1905-2.3436-1.0749
			c-1.0996,0.1402-1.9984,1.0821-2.5311,2.6521c-0.4923,1.4514-2.0682,2.2282-3.5193,1.7364
			c-1.4513-0.4923-2.2288-2.068-1.7363-3.5194c1.2329-3.6344,3.8154-5.9577,7.0851-6.3744c3.0079-0.3827,6.025,1.0046,7.6856,3.5358
			c1.8064,2.7535,1.7123,6.2337-0.258,9.548c-1.1169,1.8788-2.5172,4.1914-3.7703,6.2492l5.4795-0.9663
			c1.5081-0.265,2.9486,0.7416,3.2147,2.2508C52.848,74.8231,51.8403,76.2623,50.3311,76.5284z M70.0291,69.3242
			c-1.4095,2.8453-3.8028,4.7568-6.5661,5.2444c-5.5342,0.9744-10.8658-3.7656-12.092-10.7192
			c-0.5603-3.1778-0.1588-6.3611,1.1305-8.9638c1.4094-2.8451,3.8026-4.7565,6.5659-5.2439c0.47-0.083,0.9501-0.125,1.4272-0.125
			c5.0721,0,9.5572,4.5604,10.6648,10.8438C71.7197,63.5378,71.3181,66.7213,70.0291,69.3242z M76.1633,57.3623
			c-2.5268-0.0001-4.6796-1.8084-5.1193-4.2996c-0.4991-2.8316,1.3878-5.5275,4.2199-6.0266
			c2.8356-0.5005,5.5269,1.3854,6.0269,4.2197C81.8499,54.4272,79.4067,57.3623,76.1633,57.3623z M80.3521,70.3467
			c-0.3243,0.8871-1.3024,1.3299-2.1748,1.0102c-0.8799-0.3216-1.3321-1.2956-1.0105-2.175l8.4331-23.0592
			c0.3217-0.8795,1.2959-1.3321,2.1748-1.0102c0.8798,0.3217,1.332,1.2956,1.0102,2.1751L80.3521,70.3467z M94.2905,67.2742
			c-0.7968,1.1384-1.9895,1.8982-3.3581,2.1394c-0.2996,0.0528-0.605,0.0796-0.9075,0.0796h-0.0002
			c-2.5269,0-4.6797-1.8083-5.1194-4.2996c-0.4978-2.8245,1.3955-5.528,4.22-6.0265c0.3-0.053,0.6054-0.0798,0.9082-0.0798
			c2.5263,0,4.6792,1.8083,5.1189,4.2997C95.3936,64.7554,95.0877,66.1359,94.2905,67.2742z"/>
		<path fill="#ffffff" d="M90.0335,62.4789c-0.106,0-0.2129,0.0095-0.3186,0.0282c-0.9834,0.1736-1.6426,1.1145-1.4695,2.0975
			c0.153,0.8673,0.9013,1.497,1.7795,1.4971c0.1055,0,0.2127-0.0095,0.3184-0.0282c0.4765-0.0841,0.8916-0.3484,1.1692-0.7445
			c0.2771-0.3963,0.3837-0.8766,0.2998-1.3528C91.6592,63.1085,90.9109,62.4789,90.0335,62.4789z"/>
	</g>
</g>
</svg>
