<?xml version="1.0" encoding="utf-8"?>
<!-- Generator: Adobe Illustrator 18.1.1, SVG Export Plug-In . SVG Version: 6.00 Build 0)  -->
<svg version="1.2" baseProfile="tiny" xmlns="http://www.w3.org/2000/svg" xmlns:xlink="http://www.w3.org/1999/xlink" x="0px"
	 y="0px" width="128px" height="128px" viewBox="0 0 128 128" xml:space="preserve">
<g id="_x31_28px_boxes">
	<rect fill="none" width="128" height="128"/>
</g>
<g id="Production">
	<g>
		<path fill="#ffffff" d="M81.6321,72.6284c0-1.9844-1.4461-2.5986-3.4226-2.5986H73.551v5.2926h5.0386
			C80.3662,75.3224,81.6321,74.529,81.6321,72.6284z"/>
		<path fill="#ffffff" d="M78.97,78.7132h-5.419v6.2115h5.324c2.1494,0,3.676-0.8017,3.676-2.9791
			C82.551,79.6913,81.2151,78.7132,78.97,78.7132z"/>
		<path fill="#ffffff" d="M95.4351,34.3253l-9.7259-9.7257c-1.0066-1.0067-2.372-1.5722-3.7956-1.5722H36.3608
			c-2.9646,0-5.3681,2.4034-5.3681,5.368v71.2094c0,2.9643,2.4035,5.3678,5.3681,5.3678h55.2784
			c2.9646,0,5.3681-2.4035,5.3681-5.3678V38.1211C97.0073,36.6974,96.4417,35.3321,95.4351,34.3253z M75.9619,34.1198
			c0-0.0149,0-0.0248,0-0.0266c0-0.1403,0-1.0003,0-5.3178h5.5506c0,6.9574,0,6.0907,0,10.6366h-5.5506
			C75.9619,35.1151,75.9619,34.2594,75.9619,34.1198z M56.4905,34.1198c0-0.0149,0-0.0248,0-0.0266c0-0.1403,0-1.0003,0-5.3178
			h5.5505c0,10.9094,0,0.6164,0,10.6366h-5.5505C56.4905,35.1151,56.4905,34.2594,56.4905,34.1198z M46.7544,34.1198
			c0-0.0149,0-0.0248,0-0.0266c0-0.1403,0-1.0003,0-5.3178h5.5508c0,10.9094,0,0.6164,0,10.6366h-5.5508
			C46.7544,35.1151,46.7544,34.2594,46.7544,34.1198z M37.0188,28.7754h5.5505c0,10.9094,0,0.6164,0,10.6366
			c-0.4477,0-0.6623,0-0.7592,0c-0.0579,0-0.0757,0-0.0718,0c-0.245,0-1.2415,0-4.7195,0V28.7754z M62.2061,88.7909h-3.169
			L58.53,86.224c-1.5216,1.9564-3.558,3.0741-6.2114,3.0741c-6.8446,0-11.1233-5.0177-11.1233-11.7256
			c0-6.7104,4.1426-11.9476,11.1233-11.9476c4.804,0,9.0466,2.981,9.5388,7.986H57.104c-0.5957-2.55-2.3921-3.8028-4.7854-3.8028
			c-4.2728,0-6.1479,3.5255-6.1479,7.7644c0,4.198,1.9946,7.5738,6.1479,7.5738c3.3611,0,5.0977-1.7762,5.3875-4.8803H52.699
			v-3.7076h9.5071V88.7909z M66.2258,34.1198c0-0.0149,0-0.0248,0-0.0266c0-0.1403,0-1.0003,0-5.3178h5.5511
			c0,10.9094,0,0.6164,0,10.6366h-5.5511C66.2258,35.1151,66.2258,34.2594,66.2258,34.1198z M79.5405,88.7909H68.5754V66.1637
			h10.6482c3.2481,0,6.3042,0.7816,7.0476,3.9438c0.648,2.7586-0.1855,5.0889-2.8962,6.3873
			c2.8071,0.8078,4.1514,2.9233,4.1514,5.7359C87.5264,86.6297,83.9324,88.7909,79.5405,88.7909z M91.2485,44.8264
			c-2.0794,0-3.1298,0-3.6247,0c-0.301,0-0.3978,0-0.3924,0c-0.2897,0-0.7662,0-1.5336,0c0-1.8765,0-3.2098,0-4.1489
			c0-1.4893,0-1.9726,0-1.9499c0-1.0026,0-2.4565,0-4.5378c0.8232,0,1.1193,0,1.2137,0c0.0248,0,0.0363,0,0.0391,0
			c0.167,0,0.9787,0,4.2979,0C91.2485,40.2037,91.2485,35.0746,91.2485,44.8264z"/>
	</g>
</g>
</svg>
