<?xml version="1.0" encoding="utf-8"?>
<!-- Generator: Adobe Illustrator 18.1.1, SVG Export Plug-In . SVG Version: 6.00 Build 0)  -->
<svg version="1.2" baseProfile="tiny" xmlns="http://www.w3.org/2000/svg" xmlns:xlink="http://www.w3.org/1999/xlink" x="0px"
	 y="0px" width="128px" height="128px" viewBox="0 0 128 128" xml:space="preserve">
<g id="_x31_28px_boxes">
	<rect fill="none" width="128" height="128"/>
</g>
<g id="Production">
	<g>
		<path fill="#ffffff" d="M46.8632,39.315c20.6527,0,3.2703,0,23.9854,0c0.7646,0,1.3785-0.6902,1.3785-1.4552V27.7121
			c0-0.765-0.6139-1.3971-1.3785-1.3971h-3.1215v-3.5146c-6.5833,1.6539-6.5831-10.4898,0-8.8352v-2.8579
			c0-0.7654-0.7257-1.2923-1.4913-1.2923H51.4754c-0.7649,0-1.4983,0.5269-1.4983,1.2923V26.315h-3.1139
			c-0.7657,0-1.3861,0.6321-1.3861,1.3971v10.1477C45.4771,38.6248,46.0975,39.315,46.8632,39.315z"/>
		<circle fill="#ffffff" cx="76.309" cy="18.1411" r="2.6966"/>
		<circle fill="#ffffff" cx="91.8271" cy="18.1411" r="2.6966"/>
		<circle fill="#ffffff" cx="91.8271" cy="9.1317" r="2.6967"/>
		<circle fill="#ffffff" cx="91.8271" cy="27.2261" r="2.6965"/>
		<circle fill="#ffffff" cx="84.0502" cy="13.5914" r="2.6964"/>
		<circle fill="#ffffff" cx="84.0502" cy="22.6911" r="2.6963"/>
		<path fill="#ffffff" d="M58.8541,43.687c-16.7959,0-25.377,10.3211-25.377,23.3957v50.656c0,2.1673,1.851,3.8263,4.0181,3.8263
			h42.7201c2.167,0,4.0118-1.659,4.0118-3.8263v-50.656C84.2271,54.1983,75.8755,43.687,58.8541,43.687z"/>
	</g>
</g>
</svg>
