<?xml version="1.0" encoding="utf-8"?>

<svg version="1.2" baseProfile="tiny" xmlns="http://www.w3.org/2000/svg" xmlns:xlink="http://www.w3.org/1999/xlink" x="0px"
	 y="0px" width="128px" height="128px" viewBox="0 0 128 128" xml:space="preserve">
<g id="_x31_28px_boxes">
	<rect fill="none" width="128" height="128"/>
</g>
<g id="Production">
	<g>
		<path fill="#ffffff" d="M63,78.5386c0-3.2971,0-22.5752,0-43.0972C73.3877,22.4937,77.9901,32.6426,91.9406,35
			c0.0205,0.0034,0.0389,0.0081,0.0594,0.0115c0,6.854,0,11.291,0,18.0884c4.1484,0.3439,8.2312,1.6272,12.0439,4.0446V38.5
			c0-1.9326-1.5668-3.5-3.5-3.5H99v-6.4343c-12.9919,0-16.7246-6.2407-25.1144-6.5508c-5.3749-0.2019-11.3048,2.928-14.3414,6.5508
			l-0.0056-0.0064c-1.5989-1.8999-6.3479-6.0029-12.5652-6.4963C37.408,21.3142,33.9373,28.5657,20,28.5657V35h-1.4561
			c-1.9331,0-3.5,1.5674-3.5,3.5v52c0,1.9326,1.5669,3.5,3.5,3.5h31.8865c1.1883,2.3074,5.0376,4,9.6138,4
			c3.428,0,6.4507-0.9497,8.2524-2.3958C62.6765,87.9883,63,81.8354,63,78.5386z M56,36.2712c0,1.304,0,1.7381,0,1.732
			c0,3.6184,0,13.9719,0,40.4944c-12.5503-6.0672-21.8801,2.3566-29,3.7583c0-9.7051,0-36.7828,0-47.2444
			c0.0205-0.0034,0.0391-0.0081,0.0596-0.0115C40.853,32.6692,45.9995,22.5039,56,35.4167C56,35.7383,56,36.0186,56,36.2712z"/>
		<path fill="#ffffff" d="M123.6294,102.1538c-12.5391-12.5393-9.1602-9.1604-13.4963-13.4966
			c1.2813-2.9179,1.8711-5.9502,1.8711-8.9277c0-11.5066-8.7649-21.002-20.0042-22.1184
			c-8.9092-0.8882-17.0781,3.574-21.3618,10.8025c-5.9817,10.0918-3.0209,23.0788,6.582,29.6626
			c6.3829,4.3762,14.5125,5.0615,21.4547,2.0244c4.6763,4.6777,2.8039,2.8047,13.5055,13.5098
			c5.0504,5.0573,13.8196,1.5004,13.8196-5.7273C126,105.8079,125.2004,103.7197,123.6294,102.1538z M101.021,89.5867
			C93.2749,98.418,78.793,95.2632,75.4375,84c-2.0283-6.8083,1.0315-14.2805,7.5613-17.6052
			c8.2439-4.197,18.2959,0.1023,21.0451,8.8418C105.674,80.4172,104.3022,85.8457,101.021,89.5867z"/>
	</g>
</g>
</svg>
