<?xml version="1.0" encoding="utf-8"?>
<!-- Generator: Adobe Illustrator 18.1.1, SVG Export Plug-In . SVG Version: 6.00 Build 0)  -->
<svg version="1.2" baseProfile="tiny" xmlns="http://www.w3.org/2000/svg" xmlns:xlink="http://www.w3.org/1999/xlink" x="0px"
	 y="0px" width="64px" height="64px" viewBox="0 0 64 64" xml:space="preserve">

<g id="Production">
	<g>
		<path fill="#ffffff" d="M56,9H8c-1.6543,0-3,1.3457-3,3v32c0,1.6543,1.3457,3,3,3h17.8472l-0.7144,5H22v2c6.6571,0,13.3079,0,20,0
			v-2h-3.1328l-0.7144-5H56c1.6543,0,3-1.3457,3-3V12C59,10.3457,57.6543,9,56,9z M8,11h48c0.5513,0,1,0.4487,1,1v27H7V12
			C7,11.4487,7.4487,11,8,11z M36.8472,52h-9.6943l0.7144-5h8.2656L36.8472,52z M56,45c-4.4893,0-43.5135,0-48,0
			c-0.5513,0-1-0.4487-1-1v-3h50v3C57,44.5513,56.5513,45,56,45z"/>
		<path fill="#ffffff" d="M29.0601,28.6602h-2.2803c-0.0522,2.9562,1.9585,4.625,4.8403,4.6797v1.5605H32.48v-1.5605
			c2.7974-0.1107,4.7397-1.6397,4.7397-4.5c0-2.7618-2.0889-3.7363-4.7397-4.4395v-4.2207c1.2871,0,2.04,0.5757,2.1001,2.1006
			h2.2798c0-2.5291-1.8569-3.9004-4.3799-3.9004v-1.5596h-0.8599v1.5596c-2.3245,0-4.54,1.3206-4.54,3.9199
			c0,2.6948,1.9646,3.7106,4.54,4.4004V31.54C30.0149,31.4941,29.0288,30.6819,29.0601,28.6602z M32.48,26.8799
			c1.3699,0.3577,2.46,0.8517,2.46,2.2803c0,1.5363-0.9358,2.2682-2.46,2.3799V26.8799z M29.3599,22.1396
			c0-1.1988,0.5679-1.96,2.2603-1.96v4C30.4338,23.8986,29.3599,23.384,29.3599,22.1396z"/>
	</g>
</g>
</svg>
