<?xml version="1.0" encoding="utf-8"?>
<!-- Generator: Adobe Illustrator 18.1.1, SVG Export Plug-In . SVG Version: 6.00 Build 0)  -->
<svg version="1.2" baseProfile="tiny" xmlns="http://www.w3.org/2000/svg" xmlns:xlink="http://www.w3.org/1999/xlink" x="0px"
	 y="0px" width="64px" height="64px" viewBox="0 0 64 64" xml:space="preserve">

<g id="Production">
	<g>
		<path fill="#ffffff" d="M34.8314,40.4221c-1.841-0.629-2.8524-1.8308-3.0235-3.6617c-0.1292-1.3813,0.2852-2.6076,0.2852-2.6076
			c1.6951-2.029,1.588-3.1069,2.1015-5.4371c1.6544-0.3329,2.1111-3.3235,1.9966-4.7714c-0.1141-1.4425-0.9698-1.3315-0.9698-1.3315
			s0.9698-4.3275,0.3423-6.8796c-0.8753-3.5597-4.0005-5.548-7.4803-5.548c-3.4799,0-8.7587,1.9883-9.634,5.548
			c-0.6275,2.5521,0.3423,6.8796,0.3423,6.8796s-0.8557-0.111-0.9698,1.3315c-0.1145,1.4478,0.3423,4.4385,1.9966,4.7714
			c0.5135,2.3301,0.7975,4.0421,2.1015,5.4371c0,0,0.4144,1.2263,0.2852,2.6076c-0.1711,1.8309-1.1825,3.0327-3.0235,3.6617
			c-2.1108,0.7213-8.909,2.0879-12.0453,5.2349C4,48.804,4,53,4,53h46c0,0,0-4.196-3.1364-7.343
			C43.7273,42.5099,36.9421,41.1433,34.8314,40.4221z"/>
		<rect x="43" y="19" fill="#ffffff" width="16" height="2"/>
		<rect x="43" y="25" fill="#ffffff" width="16" height="2"/>
		<rect x="43" y="31" fill="#ffffff" width="16" height="2"/>
	</g>
</g>
</svg>
