<?xml version="1.0" encoding="utf-8"?>
<!-- Generator: Adobe Illustrator 17.1.0, SVG Export Plug-In . SVG Version: 6.00 Build 0)  -->
<!DOCTYPE svg [
	<!ENTITY ns_flows "http://ns.adobe.com/Flows/1.0/">
	<!ENTITY ns_extend "http://ns.adobe.com/Extensibility/1.0/">
	<!ENTITY ns_ai "http://ns.adobe.com/AdobeIllustrator/10.0/">
	<!ENTITY ns_graphs "http://ns.adobe.com/Graphs/1.0/">
]>
<svg version="1.2" baseProfile="tiny" xmlns:x="&ns_extend;" xmlns:i="&ns_ai;" xmlns:graph="&ns_graphs;"
	 xmlns="http://www.w3.org/2000/svg" xmlns:xlink="http://www.w3.org/1999/xlink" xmlns:a="http://ns.adobe.com/AdobeSVGViewerExtensions/3.0/"
	 x="0px" y="0px" width="128px" height="128px" viewBox="0 0 128 128" xml:space="preserve">
<g id="_x31_28px_boxes">
	<rect fill="none" width="128" height="128"/>
</g>
<g id="Production">
	<g>
		<path fill="#ffffff" d="M45.6032,33.7204c-5.521,9.0428-6.9705,21.2572-5.8145,31.8796
			c5.9248-1.4525,12.8726-2.9309,20.5891-4.1787l-3.3447-33.749c1.7197-0.3718,3.3465-0.5437,5.0069-0.5607l2.6767,27.0076
			c2.7454-3.3821,6.7273-5.5531,11.1455-5.9697c2.0965-0.1979,4.7207-0.392,7.6868-0.5577
			c-2.0801-7.045-5.3325-13.0218-9.2737-17.2402c6.1924,3.443,11.4414,9.432,14.864,16.9815
			c4.5528-0.1691,9.5503-0.2558,14.5186-0.194c-0.5637-6.2555-1.7083-14.2818-3.3772-20.1655
			c-1.0996-3.8778-2.0149-5.3958-3.6284-6.0172c-2.2889-0.8798-4.2281,0.5406-5.8165,1.6718
			c-4.635,3.3011-8.1943,2.5629-13.2297,0.5857c-3.678-1.4439-8.2554-3.2409-14.5056-3.2409
			c-17.0305,0-31.4431,9.6693-37.8611,30.0013c-2.5019,7.926-3.2573,15.6505-3.4516,20.7247
			c3.4043-1.1008,7.3237-2.2838,11.6865-3.468C32.6349,53.4271,37.518,40.9705,45.6032,33.7204z"/>
		<path fill="#ffffff" d="M94.0548,62.528l-4.8999,10.2196c7.084-0.3241,14.4744-0.3119,22.0364,0.1709V62.8461
			C105.3566,62.4928,99.6266,62.4066,94.0548,62.528z"/>
		<path fill="#ffffff" d="M119.3888,52.2775c-13.4529-1.5295-33.4275-0.7869-43.1255,0.128
			c-4.0859,0.3853-7.6706,2.8065-9.5891,6.4768c-1.0024,1.9182-1.4626,3.9906-1.3904,6.07
			c-24.5395,3.546-46.603,10.6491-56.8273,15.1369c-2.5411,1.1163-3.6961,4.0813-2.5799,6.6224
			c1.1167,2.5424,4.0833,3.6954,6.6223,2.5797c8.6487-3.7932,30.7119-11.2428,56.5816-14.7215
			c3.8054,6.6303,9.7842,16.1527,19.9138,25.4519c9.5476,8.7652,22.8093,9.4074,31.2158,6.3269
			c1.4046-0.5137,2.3389-1.8502,2.3389-3.3457V55.8173C122.549,54.0054,121.1891,52.4821,119.3888,52.2775z M72.277,64.6593
			c0-2.9885,2.4226-5.4111,5.4111-5.4111c2.9883,0,5.4109,2.4226,5.4109,5.4111c0,2.9885-2.4226,5.4108-5.4109,5.4108
			C74.6996,70.0701,72.277,67.6478,72.277,64.6593z M115.424,100.2673c-7.6323,1.574-15.5166,0.1008-21.6113-5.4942
			c-5.5037-5.0526-9.6514-10.1152-12.887-14.7376l10.2095-21.3617c7.5793-0.2424,16.6662-0.2517,24.2888,0.3758V100.2673z"/>
	</g>
</g>
</svg>
