<?xml version="1.0" encoding="utf-8"?>
<!-- Generator: Adobe Illustrator 18.1.1, SVG Export Plug-In . SVG Version: 6.00 Build 0)  -->
<svg version="1.2" baseProfile="tiny" xmlns="http://www.w3.org/2000/svg" xmlns:xlink="http://www.w3.org/1999/xlink" x="0px"
	 y="0px" width="64px" height="64px" viewBox="0 0 64 64" xml:space="preserve">

<g id="Production">
	<g>
		<path fill="#ffffff" d="M12,31.98h7.0085c-0.0229,4.9521-0.4045,8.6015-6.3933,11.0971L12,43.3335V51
			c10.9635-2.7398,17-7.7325,17-20V15H12V31.98z M14,17h13v14c0,9.5752-4.0225,14.9801-13,17.5943v-3.9396
			c7.3233-3.3421,7-8.7252,7-14.6548h-7V17z"/>
		<path fill="#ffffff" d="M35,15v16.98h7.0085c-0.0291,6.2805-1.028,8.8616-7.0085,11.3535V51c10.9635-2.7398,17-7.7325,17-20V15H35
			z M50,31c0,9.5752-4.0225,14.9801-13,17.5943v-3.9396c7.3233-3.3421,7-8.7252,7-14.6548h-7V17h13V31z"/>
	</g>
</g>
</svg>
