<?xml version="1.0" encoding="utf-8"?>
<!-- Generator: Adobe Illustrator 18.1.1, SVG Export Plug-In . SVG Version: 6.00 Build 0)  -->
<svg version="1.2" baseProfile="tiny" xmlns="http://www.w3.org/2000/svg" xmlns:xlink="http://www.w3.org/1999/xlink" x="0px"
	 y="0px" width="64px" height="64px" viewBox="0 0 64 64" xml:space="preserve">

<g id="Production">
	<g>
		<path fill="#ffffff" d="M13.0389,11l-0.4852-2.8418C12.1421,5.749,10.0693,4,7.625,4H2v2h5.625
			c1.4668,0,2.7104,1.0493,2.957,2.4951l5.8643,34.3467C16.8579,45.251,18.9307,47,21.375,47H54v-2H21.375
			c-1.4668,0-2.7104-1.0493-2.957-2.4951l-0.4406-2.5803l32.86-3.5769c2.3682-0.2563,4.2373-2.1646,4.4438-4.5381L57.0908,11
			H13.0389z M53.9529,24H47.875l0.298-11h6.7362L53.9529,24z M29.6309,24h-6.1688l-1.3879-11h6.694L29.6309,24z M30.7745,13h6.6989
			l0.3021,11h-6.1382L30.7745,13z M29.7877,26l0.8264,10.5372l-5.4947,0.5981L23.7145,26H29.7877z M31.7941,26h6.0363l0.267,9.7227
			l-5.4938,0.598L31.7941,26z M39.8309,26h5.9894l-0.2413,8.9083l-5.4871,0.5973L39.8309,26z M39.7759,24l-0.3021-11h6.6986
			l-0.298,11H39.7759z M20.0583,13l1.3879,11h-6.1877l-1.8781-11H20.0583z M15.6,26h6.0986l1.4323,11.3517l-5.4907,0.5977L15.6,26z
			 M50.6216,34.3594l-3.0362,0.3305L47.8208,26h5.9583l-0.49,5.6362C53.1646,33.0605,52.0435,34.2056,50.6216,34.3594z"/>
		<path fill="#ffffff" d="M19,49c-2.7568,0-5,2.2432-5,5s2.2432,5,5,5s5-2.2432,5-5S21.7568,49,19,49z M19,57
			c-1.6543,0-3-1.3457-3-3s1.3457-3,3-3s3,1.3457,3,3S20.6543,57,19,57z"/>
		<path fill="#ffffff" d="M50,49c-2.7568,0-5,2.2432-5,5s2.2432,5,5,5s5-2.2432,5-5S52.7568,49,50,49z M50,57
			c-1.6543,0-3-1.3457-3-3s1.3457-3,3-3s3,1.3457,3,3S51.6543,57,50,57z"/>
	</g>
</g>
</svg>
