<?xml version="1.0" encoding="utf-8"?>
<!-- Generator: Adobe Illustrator 19.1.0, SVG Export Plug-In . SVG Version: 6.00 Build 0)  -->
<svg version="1.2" baseProfile="tiny" xmlns="http://www.w3.org/2000/svg" xmlns:xlink="http://www.w3.org/1999/xlink" x="0px"
	 y="0px" width="64px" height="64px" viewBox="0 0 64 64" xml:space="preserve">
<g id="box">
	<rect fill="none" width="64" height="64"/>
</g>
<g id="Production">
	<g>
		<circle fill="#ffffff" cx="31.5" cy="33.5" r="1.5"/>
		<circle fill="#ffffff" cx="31.5" cy="39.5" r="1.5"/>
		<path fill="#ffffff" d="M38.8325,28.5161l5.7437-3.9482C47.3462,22.6631,49,19.519,49,16.1577V7c0-1.6543-1.3457-3-3-3H17
			c-1.6543,0-3,1.3457-3,3v9.1577c0,3.3613,1.6538,6.5054,4.4238,8.4102l5.7432,3.9478C25.3149,29.3052,26,30.6074,26,32
			s-0.6851,2.6948-1.8325,3.4839l-5.7437,3.9482C15.6538,41.3369,14,44.481,14,47.8423V57c0,1.6543,1.3457,3,3,3h29
			c1.6543,0,3-1.3457,3-3v-9.1577c0-3.3613-1.6538-6.5054-4.4238-8.4102l-5.7432-3.9478C37.6851,34.6948,37,33.3926,37,32
			S37.6851,29.3052,38.8325,28.5161z M35,32c0,2.0508,1.0093,3.9697,2.6997,5.1323l5.7437,3.9482
			C45.6704,42.6118,47,45.1396,47,47.8423v3.4674l-13.1846-6.3649c-1.4717-0.7109-3.1592-0.7109-4.6309,0L18,50.3442v2.2203
			l12.0537-5.819c0.9189-0.4434,1.9736-0.4434,2.8926,0L47,53.5301V57c0,0.5513-0.4487,1-1,1H17c-0.5513,0-1-0.4487-1-1v-9.1577
			c0-2.7026,1.3296-5.2305,3.5566-6.7617l5.7441-3.9487C26.9907,35.9697,28,34.0508,28,32s-1.0093-3.9697-2.6997-5.1323
			l-5.7437-3.9482C17.3296,21.3882,16,18.8604,16,16.1577V7c0-0.5513,0.4487-1,1-1h29c0.5513,0,1,0.4487,1,1v9.0239H18v0.1338
			c0,0.6343,0.1074,1.242,0.2914,1.8323h28.4918c-0.4562,1.9786-1.6299,3.7538-3.3398,4.9294l-5.7441,3.9487
			C36.0093,28.0303,35,29.9492,35,32z"/>
	</g>
</g>
</svg>

