<?xml version="1.0" encoding="utf-8"?>

<svg version="1.2" baseProfile="tiny" xmlns="http://www.w3.org/2000/svg" xmlns:xlink="http://www.w3.org/1999/xlink" x="0px"
	 y="0px" width="64px" height="64px" viewBox="0 0 64 64" xml:space="preserve">

<g id="Production">
	<g>
		<path fill="#ffffff" d="M22.0813,58.8877c4.545,0,8.8186-1.7705,12.0335-4.9843l19.776-19.7752
			C64.6077,23.4117,56.915,5.0797,41.8573,5.0797c-4.5451,0-8.8186,1.7705-12.0326,4.9843l-19.776,19.7752
			C-0.6664,40.5539,7.0236,58.8877,22.0813,58.8877z M13.584,33.3743L33.36,13.5991c4.6964-4.6962,12.297-4.6964,16.9956,0
			c4.6847,4.6855,4.6847,12.3085,0,16.9939l-8.1912,8.1908c-3.3769-3.3767-3.5209-3.5208-14.1425-14.1419L15.9524,36.711
			c-2.0001,2.3662-2.4074,5.5902-1.2425,8.3126l13.312-13.3114c10.1558,10.1554,4.2901,4.2899,10.6072,10.6068l-8.0495,8.0492
			c-4.6978,4.6956-12.2984,4.6971-16.9956,0C8.8993,45.6827,8.8993,38.0598,13.584,33.3743z"/>
	</g>
</g>
</svg>
