<?xml version="1.0" encoding="utf-8"?>
<!-- Generator: Adobe Illustrator 18.1.0, SVG Export Plug-In . SVG Version: 6.00 Build 0)  -->
<svg version="1.2" baseProfile="tiny" xmlns="http://www.w3.org/2000/svg" xmlns:xlink="http://www.w3.org/1999/xlink" x="0px"
	 y="0px" width="64px" height="64px" viewBox="0 0 64 64" xml:space="preserve">
<g id="_x36_4px_boxes">
	<rect fill="none" width="64" height="64"/>
</g>
<g id="Production">
	<g>
		<path fill="#ffffff" d="M34.1104,37.7812c-1.9019-0.6792-2.6719-1.1094-2.6719-1.6758c0-0.498,0.4077-0.9736,1.7437-0.9736
			c1.7212,0,2.8081,0.521,3.4194,0.77l0.7246-3.0117c-0.7925-0.3394-1.8569-0.6567-3.4194-0.7246v-1.9019h-2.5815v2.083
			c-2.5811,0.521-4.0078,2.1514-4.0078,4.2119c0,2.2871,1.7437,3.4419,4.189,4.2344c1.6987,0.521,2.355,0.9512,2.355,1.6533
			c0,0.7246-0.7925,1.0415-1.9473,1.0415c-1.5396,0-2.9438-0.4985-3.9629-0.9966l-0.7471,3.1475
			c0.8833,0.4531,2.4229,0.8833,4.0078,0.9512v2.106h2.5815v-2.3096c2.7173-0.4756,4.2119-2.2192,4.2119-4.3252
			C38.0054,40.0005,36.9639,38.71,34.1104,37.7812z"/>
		<path fill="#ffffff" d="M44,24.5842v-0.8359l9.7961-14.2009c-3.5684-2.4137-4.2617-3.3428-11.0289-1.5122
			c-4.7932,1.2975-6.2311,1.1064-6.2311,1.1064c-4.9622,0-5.1606-4.1396-12.9644-4.1396
			c-6.5916,0.0292-11.4753,3.1891-13.563,4.3832L20,23.7484v0.8359C4,39.6515,6.671,57.9824,31.9998,57.9824
			C57.2866,57.9824,60,39.6815,44,24.5842z M31.9146,52.9862C10.0875,52.9862,10.7957,39,24.7235,27H35v-5H24.7317l-7.4372-10.7403
			c1.6109-0.6035,3.8229-1.2314,6.1061-1.2548c2.9555-0.0171,4.1011,0.6455,5.8283,1.7862
			c5.7129,3.7708,9.6053,2.3006,16.5034,0.6348l-6.7246,9.771l0.002,4.6693C53.3292,38.9428,53.5244,52.9862,31.9146,52.9862z"/>
	</g>
</g>
</svg>

