<?xml version="1.0" encoding="utf-8"?>
<!-- Generator: Adobe Illustrator 18.1.1, SVG Export Plug-In . SVG Version: 6.00 Build 0)  -->
<svg version="1.2" baseProfile="tiny" xmlns="http://www.w3.org/2000/svg" xmlns:xlink="http://www.w3.org/1999/xlink" x="0px"
	 y="0px" width="128px" height="128px" viewBox="0 0 128 128" xml:space="preserve">
<g id="box">
	<rect fill="none" width="128" height="128"/>
</g>
<g id="Production">
	<path fill="#ffffff" d="M120.1261,41.3888c-0.5879-0.6635-13.8669-15.306-40.6193-17.1526l2.3067-8.4565
		c0.2334-0.8551-0.1524-3.0162-2.3037-3.0162h-0.001l-13.0484,0.0054c-1.5849,0.0005-2.7294,1.5175-2.2954,3.0418l2.4395,8.565
		c-25.603,2.3365-38.3276,16.364-38.9024,17.0131c-0.6079,0.6859-0.9433,1.5703-0.9433,2.4866v29.7119h-4.4199v-8.4038
		c0-0.7188-0.5772-3-3-3h-8.1656c-1.6567,0-3,1.3431-3,3c0,1.6568,1.3433,3,3,3h5.1656v5.42
		c-3.855,0.2526-9.4077,3.0142-9.4077,9.7523v5.9087c0,4.9737,7.5,4.9737,7.5,0v-5.9087c0-1.9283,1.7211-2.1903,2.4184-2.2685
		h9.9092v2.5117c0,0.9163,0.3354,1.8007,0.9433,2.4866c0.2891,0.3264,3.6543,4.0384,10.1832,7.9447v19.7062
		c0,0.8283,0.6718,1.5,1.5,1.5h6.392c0.6802,0,1.2754-0.4596,1.4502-1.1166c1.0664-4.0108,4.2242-9.382,7.252-13.1507
		c12.2842,3.2663,26.1055,3.2121,37.938,0.2408c3.187,4.02,6.0812,9.2568,7.0592,12.9077c0.1731,0.6592,0.769,1.1188,1.4507,1.1188
		h6.3921c0.8283,0,1.5-0.6717,1.5-1.5V94.6863c7.268-4.137,11.0012-8.256,11.3066-8.6007c0.6074-0.6859,0.9429-1.5703,0.9429-2.4866
		V43.8754C121.069,42.9591,120.7335,42.0747,120.1261,41.3888z M113.569,82.0465c-3.3196,3.1055-8.0013,6.1112-12.6438,8.2418
		V42.1887c-4.9073-2.5124-10.2411-4.2641-15.9506-5.235v58.1106c-5.4101,1.017-15.1914,1.3295-22.1211,0V36.9537
		c-5.7099,0.9709-11.0434,2.7226-15.9507,5.235v48.0996c-4.2685-1.9587-9.7768-5.5593-12.644-8.2412V45.4279
		c6.166-5.7685,19.6035-13.8829,39.6553-13.8829c21.3911,0,34.6048,9.1587,39.6549,13.8822V82.0465z"/>
</g>
</svg>
