<?xml version="1.0" encoding="utf-8"?>
<!-- Generator: Adobe Illustrator 18.1.1, SVG Export Plug-In . SVG Version: 6.00 Build 0)  -->
<svg version="1.2" baseProfile="tiny" xmlns="http://www.w3.org/2000/svg" xmlns:xlink="http://www.w3.org/1999/xlink" x="0px"
	 y="0px" width="128px" height="128px" viewBox="0 0 128 128" xml:space="preserve">
<g id="box">
	<rect fill="none" width="128" height="128"/>
</g>
<g id="Production">
	<g>
		<path fill="#ffffff" d="M91.7375,18.1634l-12.6404-0.0078c-1.793,0-3.2432,1.4579-3.2432,3.2534
			c0,1.793,1.4502,3.2509,3.2432,3.2509l12.6404-0.0052c1.5293,0.0052,2.7685,1.2392,2.7685,2.7736
			c0,1.2955,0.1431,3.0718-4.3161,5.2522c-18.7949,9.1012-14.1934,6.8722-22.2803,10.7914v-8.7586h5.8613
			c1.9458,0,3.5174-1.5792,3.5174-3.5226c0-1.9456-1.5716-3.5197-3.5174-3.5197H54.1696c-1.9433,0-3.5227,1.5741-3.5227,3.5197
			c0,1.9434,1.5794,3.5226,3.5227,3.5226h5.864v8.7454c-8.0444-3.9029-3.467-1.6836-22.1958-10.7597
			c-4.4739-2.1833-4.3508-3.9157-4.3718-5.2758c0.0081-1.5267,1.2473-2.7658,2.7739-2.7658h12.6404
			c1.7876,0,3.2459-1.4608,3.2459-3.2538c0-1.7928-1.4583-3.2453-3.2459-3.2453H36.2399c-10.2495,0-13.8327,14.7626-1.1865,20.4095
			c17.0913,8.283,5.6489,2.7381,17.186,8.3317v14.0241c0,0.6573,0.5325,1.1734,1.1707,1.1734h21.1177
			c0.6616,0,1.1706-0.5394,1.1706-1.1734v-3.1323h5.8245v3.1323c0,0.6344,0.5251,1.1734,1.1706,1.1734h6.7818
			c0.6394,0,1.1706-0.5228,1.1706-1.1734V48.8664c0-0.645-0.5393-1.1705-1.1706-1.1705h-6.7818
			c-0.622,0-1.1706,0.5017-1.1706,1.1705v3.1324h-5.8245v-5.0835c0,0,5.6548-2.7392,17.2705-8.3685
			C105.7719,32.8441,101.7824,18.1634,91.7375,18.1634z"/>
		<path fill="#ffffff" d="M76.3654,66.732H51.5698c-8.7593,4.5059-14.7603,13.6129-14.7603,24.1439v17.8057
			c0,0.6386,0.5156,1.1628,1.1733,1.1628h51.9776c0.6562,0,1.1655-0.534,1.1655-1.1628V90.8759
			C91.1259,80.3449,85.1247,71.2379,76.3654,66.732z M54.507,73.8481c0.0081,0.0132-4.1264,6.7922-4.1184,13.0119
			c0.01,4.6868,0.0078,1.4844,0.0078,16.0367c0,0.1213-0.0527,0.2319-0.1396,0.3269c-0.0899,0.0791-0.2032,0.1318-0.3245,0.1318
			h-5.2021c-0.1214,0-0.2427-0.0527-0.3269-0.1318c-0.0923-0.095-0.1373-0.2056-0.1373-0.3269v-13.616
			c0.0276-10.248,9.0962-17.1848,10.1963-15.9808C54.5915,73.4526,54.6125,73.6716,54.507,73.8481z"/>
	</g>
</g>
</svg>
