<?xml version="1.0" encoding="utf-8"?>

<svg version="1.2" baseProfile="tiny" xmlns="http://www.w3.org/2000/svg" xmlns:xlink="http://www.w3.org/1999/xlink" x="0px"
	 y="0px" width="128px" height="128px" viewBox="0 0 128 128" xml:space="preserve">
<g id="_x31_28px_boxes">
	<rect fill="none" width="128" height="128"/>
</g>
<g id="Production">
	<g>
		<path fill="#ffffff" d="M119.0896,48.9769l-8.334-4.0809c-0.0766-2.171-0.5403-4.3157-1.4094-6.3549l5.8042-7.2323
			c0.4612-0.5796,0.4402-1.4121-0.0603-1.9469l-4.0391-4.4027c-0.5112-0.5505-1.3257-0.648-1.9475-0.2319l-7.698,5.1721
			c-1.9551-1.0382-4.0522-1.6835-6.2124-1.9364l-3.3645-8.6604c-0.2685-0.6955-0.9988-1.088-1.7258-0.9193l-5.812,1.299
			c-0.7246,0.1502-1.2254,0.8245-1.1697,1.5649l0.6243,9.2082c-1.9906,1.2393-3.3755,2.4814-4.8448,4.4473l-9.1157-1.4016
			c-0.7334-0.1161-1.4421,0.3267-1.6601,1.0325l-1.7867,5.6883c-0.2236,0.7084,0.1001,1.4622,0.7691,1.7967l8.3313,4.0864
			c0.0735,2.1736,0.5344,4.3128,1.407,6.3575l-5.8045,7.2296c-0.4634,0.5768-0.4292,1.4096,0.0681,1.9574l4.0342,4.3869
			c0.2925,0.3185,0.6948,0.4846,1.104,0.4846c0.2898,0,0.5794-0.0818,0.8377-0.2528l7.6982-5.1665
			c1.9575,1.0433,4.0574,1.6887,6.2151,1.9469l3.3618,8.6495c0.2295,0.5823,0.7935,0.9564,1.407,0.9564
			c0.1079,0,0.2163-0.013,0.3237-0.0371l5.8152-1.304c0.7168-0.1607,1.2173-0.8324,1.1643-1.5701l-0.624-9.1819
			c2.0632-1.2779,3.4579-2.5837,4.8584-4.4551l9.1003,1.4015c0.0786,0.0108,0.1607,0.0187,0.2339,0.0187
			c0.6455,0,1.2334-0.4191,1.4331-1.0515l1.784-5.6934C120.0823,50.0701,119.7532,49.3063,119.0896,48.9769z M97.8748,50.7026
			c-2.8687,2.6374-7.3321,2.4474-9.9693-0.4294c-2.6369-2.8693-2.4548-7.3272,0.4187-9.9617
			c2.8694-2.6373,7.3328-2.4476,9.9697,0.4215C100.9309,43.6075,100.7446,48.0652,97.8748,50.7026z"/>
		<path fill="#ffffff" d="M76.7766,69.9938l-9.7585-1.2755c-0.5848-2.35-1.5122-4.6237-2.7906-6.7498l5.9939-7.7961
			c0.4246-0.5559,0.3797-1.341-0.1259-1.831l-4.7105-4.7188c-0.4983-0.4847-1.2759-0.5401-1.8315-0.1159l-7.7906,5.9938
			c-2.1313-1.2804-4.4025-2.213-6.75-2.7952l-1.2724-9.7564c-0.0899-0.6877-0.6773-1.2066-1.3731-1.2066h-6.676
			c-0.7039,0-1.2913,0.5189-1.3833,1.2066l-1.2725,9.7537c-2.3476,0.5823-4.6189,1.5175-6.7448,2.7953l-7.793-5.9912
			c-0.5508-0.4242-1.3359-0.3822-1.8291,0.1159l-4.7153,4.7238c-0.4927,0.485-0.5406,1.2701-0.116,1.826l5.9912,7.7879
			c-1.2829,2.1315-2.2131,4.4053-2.7981,6.758l-9.748,1.2755c-0.6961,0.0815-1.2095,0.6766-1.2095,1.3724v6.6681
			c0,0.6957,0.5134,1.2832,1.2095,1.3727l9.748,1.2753c0.585,2.3472,1.5176,4.6239,2.7981,6.7524l-5.9912,7.7882
			c-0.4246,0.5559-0.3767,1.3329,0.116,1.8392l4.7153,4.7107c0.2693,0.2683,0.6223,0.4055,0.9805,0.4055
			c0.2978,0,0.5984-0.092,0.8486-0.2896l7.7959-5.9938c2.123,1.2831,4.3943,2.2129,6.7419,2.7954l1.2725,9.7559
			c0.0869,0.6931,0.6794,1.2094,1.3833,1.2094h6.6682c0.6953,0,1.283-0.5163,1.3726-1.2094l1.2727-9.751
			c2.3528-0.5847,4.6267-1.515,6.7527-2.7925l7.7959,5.9939c0.2502,0.1921,0.5478,0.2871,0.8454,0.2871
			c0.3587,0,0.7117-0.1372,0.9861-0.4109l4.7105-4.7107c0.4978-0.498,0.5454-1.2754,0.1157-1.8311l-5.9942-7.7963
			c1.2832-2.1285,2.2134-4.3994,2.8011-6.7524l9.7585-1.2753c0.6878-0.0895,1.2092-0.677,1.2092-1.3727v-6.6681
			C77.9858,70.6628,77.4722,70.0753,76.7766,69.9938z M43.0242,85.2823c-5.9048-0.0114-10.586-4.7811-10.586-10.5834
			c0-5.8325,4.7098-10.5657,10.586-10.5834c5.8548,0.0176,10.57,4.7091,10.5805,10.5834
			C53.5943,80.4932,48.9481,85.2709,43.0242,85.2823z"/>
	</g>
</g>
</svg>
