<?xml version="1.0" encoding="utf-8"?>
<!-- Generator: Adobe Illustrator 18.1.1, SVG Export Plug-In . SVG Version: 6.00 Build 0)  -->
<svg version="1.2" baseProfile="tiny" xmlns="http://www.w3.org/2000/svg" xmlns:xlink="http://www.w3.org/1999/xlink" x="0px"
	 y="0px" width="128px" height="128px" viewBox="0 0 128 128" xml:space="preserve">
<g id="box">
	<rect fill="none" width="128" height="128"/>
</g>
<g id="Production">
	<g>
		<path fill="#ffffff" d="M35.4406,64.4992c0,0,18.1555-2.8854,18.9651-3.07c0.8066-0.1843,1.3598-0.366,2.0493-1.0579
			l14.7541-14.7622c0,0-31.9555-31.9475-33.4626-33.4519c-1.5044-1.5068-3.2464-1.0955-3.1743,3.1743
			c0.0669,4.0025,0.7002,5.6189-1.6888,8.0076c-2.3911,2.3887-12.6804,12.6833-15.1572,15.1575
			c-2.4851,2.4848-3.4602,1.6994-8.0105,1.6911c-4.5473,0-4.4966,1.8572-3.1821,3.1824c1.3171,1.3145,7.9087,7.8606,12.5151,12.467
			C23.663,60.4433,30.2011,64.9563,35.4406,64.4992z M26.7382,51.7009c-1.5762-1.5791-1.4749-3.8633-0.0054-5.333l14.1746-14.166
			c1.4721-1.4778,3.8606-1.4778,5.3354,0l5.3411,5.3327c1.4721,1.4695,1.4028,3.9305,0,5.3333
			c-1.4107,1.4106-6.7757,6.6209-13.0279,9.4717C32.3119,55.1904,29.1642,54.1269,26.7382,51.7009z"/>
		<path fill="#ffffff" d="M121.7233,96.03c-0.5423-0.5449-31.2312-31.178-46.8806-46.7978c-0.0052,0-0.0052,0.008-0.0052,0.008
			L59.2177,64.8598c-0.6787,0.6763-1.5657,1.1412-2.5196,1.2933l-20.1408,3.2573L36.309,69.437l-2.7708,5.146l1.197,6.1853
			l5.4588-2.188l1.1167,5.7737l5.4612-2.1829l1.1169,5.7686l5.4587-2.1829l1.117,5.7764l5.4612-2.1907l1.122,5.7764l5.4561-2.1909
			l1.1196,5.7766l5.4561-2.1909l1.1194,5.7819l5.4585-2.1884l1.1142,5.7685l5.4641-2.1828l1.1167,5.7741l5.4588-2.1802
			l1.1167,5.7659l5.4587-2.1804l1.1167,5.7661l5.8357-2.3354c0,0,14.5107-14.4307,15.283-15.2029
			C122.3969,98.3225,122.4555,96.7649,121.7233,96.03z M106.5206,100.1448c-1.6809,1.6887-4.4143,1.6965-6.0947,0.0134
			c-1.6887-1.6834-1.6887-4.4085-0.0107-6.0921c1.6833-1.6884,4.4084-1.6965,6.092-0.0134
			C108.1984,95.7283,108.2011,98.4614,106.5206,100.1448z"/>
	</g>
</g>
</svg>
