<?xml version="1.0" encoding="utf-8"?>
<!-- Generator: Adobe Illustrator 18.1.0, SVG Export Plug-In . SVG Version: 6.00 Build 0)  -->
<svg version="1.2" baseProfile="tiny" xmlns="http://www.w3.org/2000/svg" xmlns:xlink="http://www.w3.org/1999/xlink" x="0px"
	 y="0px" width="64px" height="64px" viewBox="0 0 64 64" xml:space="preserve">
<g id="_x36_4px_boxes">
	<rect fill="none" width="64" height="64"/>
</g>
<g id="Production">
	<g>
		<path fill="#ffffff" d="M29.8721,53c-0.8231,0.8269-1.2913,1.3517-2.1547,2H58v-2H29.8721z"/>
		<path fill="#ffffff" d="M55,24.0957c0-0.5347-0.208-1.0371-0.5859-1.4141L40.3188,8.5864
			c-0.7544-0.7568-2.0708-0.7578-2.8301,0.001L8.0503,38.1509c-2.7355,2.7355-2.7362,7.1632,0,9.8994l4.6064,4.6064
			C14.1675,54.168,16.1768,55,18.3135,55c0.9532,0,2.4865,0,3.4219,0c2.1995,0,4.2171-0.9031,5.6587-2.3447l27.02-27.1455
			C54.792,25.1318,55,24.6299,55,24.0957z M25.978,51.2427C24.8447,52.376,23.3379,53,21.7354,53c-5.2465,0,1.7262,0-3.4219,0
			c-1.6025,0-3.1094-0.624-4.2427-1.7573l-4.6064-4.6064c-1.9492-1.9497-1.9492-5.1216,0.0015-7.0728l7.3262-7.3574
			c4.7088,4.7088,9.3954,9.3954,14.0999,14.0999L25.978,51.2427z M32.3027,44.8886c-5.5606-5.5606-9.3737-9.3737-14.0995-14.0995
			L38.9043,10L52.998,24.0972L32.3027,44.8886z"/>
		<circle fill="#ffffff" cx="38" cy="49" r="2"/>
		<circle fill="#ffffff" cx="47" cy="45" r="3"/>
	</g>
</g>
</svg>

