<?xml version="1.0" encoding="utf-8"?>
<!-- Generator: Adobe Illustrator 19.1.0, SVG Export Plug-In . SVG Version: 6.00 Build 0)  -->
<svg version="1.2" baseProfile="tiny" xmlns="http://www.w3.org/2000/svg" xmlns:xlink="http://www.w3.org/1999/xlink" x="0px"
	 y="0px" width="64px" height="64px" viewBox="0 0 64 64" xml:space="preserve">
<g id="box">
	<rect fill="none" width="64" height="64"/>
</g>
<g id="Production">
	<g>
		<path fill="#ffffff" d="M29.5249,25H26v-2c0-1.103-0.897-2-2-2h-5c-1.103,0-2,0.897-2,2v2H0v14h29.5249
			c1.6636,2.4814,4.4761,4,7.4751,4h14V21H37C34.001,21,31.1885,22.5186,29.5249,25z M19,23h5v2h-5V23z M49,41H37
			c-2.4434,0-4.685-1.1375-6.3447-4H2V27h28.6553c1.6456-2.838,3.8751-4,6.3447-4h12V41z"/>
		<rect x="56" y="31" fill="#ffffff" width="8" height="2"/>
		
			<rect x="58.1199" y="12.4474" transform="matrix(0.5847 0.8113 -0.8113 0.5847 37.7522 -41.2064)" fill="#ffffff" width="1.9994" height="7.639"/>
		
			<rect x="55.3001" y="46.7335" transform="matrix(-0.8113 -0.5847 0.5847 -0.8113 79.1732 121.0232)" fill="#ffffff" width="7.639" height="1.9994"/>
	</g>
</g>
</svg>

