<?xml version="1.0" encoding="utf-8"?>
<!-- Generator: Adobe Illustrator 18.1.1, SVG Export Plug-In . SVG Version: 6.00 Build 0)  -->
<svg version="1.2" baseProfile="tiny" xmlns="http://www.w3.org/2000/svg" xmlns:xlink="http://www.w3.org/1999/xlink" x="0px"
	 y="0px" width="128px" height="128px" viewBox="0 0 128 128" xml:space="preserve">
<g id="_x31_28px_boxes">
	<rect fill="none" width="128" height="128"/>
</g>
<g id="Production">
	<g>
		<path fill="#ffffff" d="M117.3633,78.2923c-2.4026,0-4.3504,1.9478-4.3504,4.3505c0,0.0024,0.0008,0.0046,0.0008,0.007
			l-18.4495,9.5215c3.5681-5.3246,4.7659-11.0216,3.4627-16.7978c-2.0808-9.225-8.7557-15.1016-19.5271-16.2782l19.0437-9.5099
			c0.7324,0.5603,1.6369,0.9061,2.6301,0.9061c2.4028,0,4.3506-1.9478,4.3506-4.3505c0-2.4027-1.9478-4.3505-4.3506-4.3505
			c-2.3425,0-4.2385,1.8553-4.3328,4.1746L69.7954,58.9716v-1.498H55.1909v5.0792c-9.1165,1.7407-15.1669-0.4236-17.7251-9.191
			C34.033,41.5945,50.1492,30.5865,53.5293,28.431l6.8101-0.0164L60.3086,15.436l-12.979,0.0308l0.0176,7.4634
			c-0.6999,0.4855,2.3042-1.1092-33.8787,17.5642c-0.7146-0.5147-1.5852-0.8261-2.5332-0.8261
			c-2.4026,0-4.3506,1.9478-4.3506,4.3505c0,2.4027,1.948,4.3505,4.3506,4.3505c2.3887,0,4.3237-1.9262,4.3464-4.3095
			l20.4104-10.5335c-4.8093,5.9249-8.3859,13.5748-5.906,22.0758c2.6658,9.1382,8.5785,14.0251,16.2754,15.2214l-19.426,9.7007
			c-0.6951-0.4709-1.5334-0.7464-2.4365-0.7464c-2.4026,0-4.3504,1.9478-4.3504,4.3505c0,2.4027,1.9478,4.3505,4.3504,4.3505
			c2.4028,0,4.3506-1.9478,4.3506-4.3505c0-0.0291-0.0081-0.056-0.0086-0.085L55.1909,70.735v1.3428h14.6045V67.236
			c9.3727-1.2713,18.3251,0.5739,20.4277,9.8978c2.7234,12.0737-13.6232,20.7001-16.6284,22.1728l-7.9946,0.0015l0.0029,12.9985
			l12.9981-0.0024l-0.0012-6.5738c1.7272-0.9218,36.2648-19.5347,36.2648-19.5347c0.7081,0.4989,1.5669,0.7976,2.4986,0.7976
			c2.4028,0,4.3506-1.9478,4.3506-4.3505S119.7661,78.2923,117.3633,78.2923z M51.3506,24.436l-0.0112-4.979l4.979-0.0112
			l0.0112,4.9785L51.3506,24.436z M74.5996,103.3066l0.0005,4.9986l-4.998,0.0005l-0.001-4.9986L74.5996,103.3066z"/>
	</g>
</g>
</svg>
