<?xml version="1.0" encoding="utf-8"?>
<!-- Generator: Adobe Illustrator 17.1.0, SVG Export Plug-In . SVG Version: 6.00 Build 0)  -->
<!DOCTYPE svg [
	<!ENTITY ns_flows "http://ns.adobe.com/Flows/1.0/">
	<!ENTITY ns_extend "http://ns.adobe.com/Extensibility/1.0/">
	<!ENTITY ns_ai "http://ns.adobe.com/AdobeIllustrator/10.0/">
	<!ENTITY ns_graphs "http://ns.adobe.com/Graphs/1.0/">
]>
<svg version="1.2" baseProfile="tiny" xmlns:x="&ns_extend;" xmlns:i="&ns_ai;" xmlns:graph="&ns_graphs;"
	 xmlns="http://www.w3.org/2000/svg" xmlns:xlink="http://www.w3.org/1999/xlink" xmlns:a="http://ns.adobe.com/AdobeSVGViewerExtensions/3.0/"
	 x="0px" y="0px" width="128px" height="128px" viewBox="0 0 128 128" xml:space="preserve">
<g id="_x31_28px_boxes">
	<rect fill="none" width="128" height="128"/>
</g>
<g id="Production">
	<g>
		<path fill="#ffffff" d="M87.2951,67.4025c12.273,0,22.2223-8.5844,22.2223-19.1736c0-10.218-9.2637-18.5676-20.9405-19.1408
			c-5.4482-6.759-14.5141-11.1843-24.7798-11.1843c-10.2775,0-19.3529,4.4354-24.7992,11.2076
			c-11.4754,0.7523-20.5153,9.0241-20.5153,19.1175c0,10.5892,9.9496,19.1736,22.2228,19.1736c3.4881,0,7.7947-1.04,7.7947-1.04
			c1.8799,5.3641,3.3595,11.1018,3.4651,16.061c-8.0381-0.6184-13.6288-1.7297-17.0697-2.7211
			c3.3506-0.9656,7.3255-1.646,10.8139-2.0902c-0.2801-1.8071-0.7589-3.7938-1.3368-5.7717
			c-11.773,1.5652-19.6994,4.4998-19.6994,7.8619c0,5.007,17.5781,9.0656,39.2612,9.0656c21.6832,0,39.2609-4.0586,39.2609-9.0656
			c0-3.3739-7.9821-6.3169-19.8234-7.8782c-0.5784,1.9775-1.0577,3.9638-1.3389,5.7717c3.5143,0.4427,7.5541,1.1308,10.9405,2.1065
			c-3.466,0.9991-9.1027,2.1152-17.1991,2.7309c0.1045-4.9892,1.6009-10.7671,3.4972-16.1605
			C79.2716,66.2728,83.5613,67.4025,87.2951,67.4025z"/>
		<path fill="#ffffff" d="M89.15,99.0951c-1.666,0-3.2146,0.4622-4.5047,1.2535c-0.8637-3.7576-4.1748-6.5603-8.1383-6.5879
			c-0.0003-0.0005-0.0003-0.0012-0.0003-0.002c-8.53,0.5659-17.0562,0.5149-25.2721-0.0154
			c-0.0009,0.0062-0.0014,0.0123-0.002,0.0181c-3.9502,0.0415-7.2469,2.8391-8.1085,6.5872
			c-1.2898-0.7913-2.8384-1.2535-4.5044-1.2535c-4.493,0-8.1355,3.3536-8.1355,7.4908c0,1.2685,0.3438,2.4629,0.9484,3.5103h64.8979
			c0.6062-1.0477,0.955-2.2408,0.955-3.5103C97.2855,102.4487,93.6429,99.0951,89.15,99.0951z"/>
	</g>
</g>
</svg>
