<?xml version="1.0" encoding="utf-8"?>
<!-- Generator: Adobe Illustrator 18.1.1, SVG Export Plug-In . SVG Version: 6.00 Build 0)  -->
<svg version="1.2" baseProfile="tiny" xmlns="http://www.w3.org/2000/svg" xmlns:xlink="http://www.w3.org/1999/xlink" x="0px"
	 y="0px" width="128px" height="128px" viewBox="0 0 128 128" xml:space="preserve">
<g id="_x31_28px_boxes">
	<rect fill="none" width="128" height="128"/>
</g>
<g id="Production">
	<g>
		<path fill="#ffffff" d="M90.4046,57.4936l0.0191,0.0003c2.3545,0,4.5503-0.7302,6.143-2.3247
			c0.1905-0.1909,0.2955-0.4448,0.2955-0.7149c0-0.2697-0.105-0.5236-0.2955-0.7141l-6.2924-6.2927l0.25-0.25
			c0.622-0.6228,1.0937-1.3371,1.4282-2.0979c1.105-2.519,0.6328-5.5627-1.4292-7.6245c-2.0615-2.0618-5.105-2.5335-7.6231-1.429
			c-0.7607,0.334-1.476,0.8065-2.0996,1.4295l-0.2495,0.2497l-6.2925-6.2924c-0.3945-0.3943-1.0337-0.3948-1.4277-0.0008
			c-1.6006,1.5972-2.3306,3.8006-2.3267,6.1616c0.0132,4.3174,2.3272,9.3047,6.4556,13.4459
			C81.0995,55.167,86.0863,57.4807,90.4046,57.4936z"/>
		<path fill="#ffffff" d="M83.9461,63.752L64.2469,44.0525c-1.2812-1.2815-3.3589-1.2815-4.6401,0.0002
			c0,0-21.5889,21.5889-25.4326,25.4329c-3.9217,3.9108-3.8316,8.885-0.9932,13.7717c2.3684,4.058,7.4973,9.308,11.7432,11.7395
			c4.7395,2.7054,9.6499,2.7727,13.5893-1.1714c3.7031-3.7028,25.4326-25.4336,25.4326-25.4336
			C85.2274,67.1121,85.2293,65.0338,83.9461,63.752z"/>
		<path fill="#ffffff" d="M92.868,72.7363c-1.2744-1.2744-3.3564-1.2835-4.6406,0L63.5145,97.4504
			c-1.2822,1.2813-1.2817,3.3589,0,4.6399l20.0684,20.0696c1.2666,1.2689,3.3427,1.2949,4.6406,0l24.7129-24.7139
			c1.2783-1.2794,1.28-3.36,0.0005-4.6396L92.868,72.7363z M85.9027,115.1995L70.4745,99.771l20.0732-20.0737l15.4277,15.4284
			L85.9027,115.1995z"/>
		<path fill="#ffffff" d="M55.263,35.1306L35.1947,15.0618c-1.2823-1.2813-3.3589-1.2813-4.6407,0L5.8402,39.7754
			c-1.2813,1.2817-1.2818,3.3591,0,4.6411l20.0683,20.0681c1.2729,1.2744,3.3569,1.2841,4.6407,0.0003L55.263,39.7708
			C56.5384,38.4951,56.5457,36.415,55.263,35.1306z M28.2289,57.5242L12.8006,42.096l20.0738-20.0738l15.4282,15.4285
			L28.2289,57.5242z"/>
		<path fill="#ffffff" d="M97.0125,30.9859c3.5757,3.5815,5.7774,8.4929,5.7789,13.9521c-0.001,0.0359,0,0.074,0.0009,0.114
			c0,0.0146-0.0009,0.0288-0.0009,0.0435h6.873c0-0.0525,0.0034-0.104,0.0034-0.1565c0-0.0342-0.0005-0.0684-0.0014-0.1023
			c-0.0572-14.6482-11.9449-26.5034-26.6065-26.5064c-0.0229,0-0.0464,0.0005-0.0693,0.001c-0.0293,0-0.0572,0.0025-0.0865,0.0025
			v6.8759c0.0523-0.0005,0.1036-0.0039,0.1558-0.0039C88.5194,25.2078,93.431,27.4094,97.0125,30.9859z"/>
		<path fill="#ffffff" d="M123.119,44.9141c-0.0659-22.1233-18.0156-40.0335-40.1553-40.0354h-0.001
			c-0.0195,0-0.039,0.0004-0.0586,0.0004v6.875c0.0474,0.001,0.0957,0.001,0.1426,0c9.1685,0.024,17.4351,3.7379,23.4497,9.7466
			c6.0279,6.0333,9.7461,14.3318,9.7476,23.5323c-0.0005,0.021,0.0005,0.0417,0.0005,0.0625l6.8755-0.0003
			c0-0.02,0.0009-0.0403,0.0009-0.0603C123.1209,44.9946,123.1209,44.9543,123.119,44.9141z"/>
	</g>
</g>
</svg>
