<?xml version="1.0" encoding="utf-8"?>
<!-- Generator: Adobe Illustrator 18.1.1, SVG Export Plug-In . SVG Version: 6.00 Build 0)  -->
<svg version="1.2" baseProfile="tiny" xmlns="http://www.w3.org/2000/svg" xmlns:xlink="http://www.w3.org/1999/xlink" x="0px"
	 y="0px" width="128px" height="128px" viewBox="0 0 128 128" xml:space="preserve">
<g id="box">
	<rect fill="none" width="128" height="128"/>
</g>
<g id="Production">
	<g>
		<path fill="#ffffff" d="M77.4305,41.3562c2.3909,4.2511,7.7762,5.7655,12.0403,3.3643c4.24-2.4053,5.7407-7.8007,3.3513-12.0492
			c-2.4047-4.2509-7.8015-5.7604-12.0437-3.352C76.5287,31.7179,75.0282,37.0988,77.4305,41.3562z"/>
		<path fill="#ffffff" d="M59.446,107.1283c7.9775-2.0171,17.279-4.7128,27.7177-5.0815c-2.5237-2.3929-5.0447-4.5914-7.5466-6.6202
			c5.2636-2.93,14.5793-8.8455,18.2253-13.2673c8.802-9.3698-0.1804-29.0052-1.2703-31.2876
			c-0.8955-2.0592-3.1777-3.2179-5.4165-2.6299h-0.0009c-4.3494,1.1416-8.2388,1.607-11.7185,1.6078
			c-9.6077-0.0159-16.7013-3.2222-20.4805-5.8967c-2.2429-1.5869-4.0364-3.5685-5.3513-5.242l8.4907-3.306
			c0.3194,2.3734,0.7602,5.4716,1.1798,8.3722c2.014,0.8828,5.7364,2.3485,9.486,2.9764
			c-0.9436-4.1882-2.4148-10.6823-3.2637-14.2308l5.54-2.1571c1.0457-0.4074,1.5633-1.5847,1.1563-2.6296
			c-0.4068-1.0456-1.5847-1.5629-2.6299-1.1556l-0.832,0.3238l-10.13-20.2608L59.654,7.5615l10.227,20.4528l-1.7537,0.6826
			c-0.9426-1.1648-2.385-1.6677-3.5343-1.438c-1.4783,0.2946-2.9125,1.9653-2.9628,3.9679l-4.1209,1.6044L46.865,11.5438
			l-2.9474,0.9182l10.7397,21.4798l-3.5802,1.3943c-1.1495-1.1075-2.9292-1.5143-4.5797-0.7753
			c-1.3928,0.6235-1.9102,1.9412-1.8237,3.2688l-3.1685,1.2334L30.3215,16.6959l-2.9476,0.9179L38.654,40.173l-0.2207,0.0862
			c-1.0456,0.4071-1.5631,1.5842-1.156,2.6293c0.3127,0.8033,1.0805,1.2947,1.8931,1.2947c0.2452,0,0.4944-0.0447,0.7366-0.1389
			l6.3524-2.4734c1.2914,2.0874,3.5043,5.0977,6.9629,8.2251c5.01,4.5304,13.6118,9.0016,24.9475,9.3006
			c1.7161,3.832,2.3149,8.0324,2.4568,11.4676c-4.8318-2.2482-9.2278-3.2345-13.2095-3.2355
			c-7.6354-0.0089-14.2251,3.7169-18.5786,10.0284c-12.3918-4.8157-20.8682-5.3707-21.0132-5.3792
			c-0.8506-0.0536-1.6393,0.4541-1.9421,1.2517l-2.5457,6.7063c-0.2621,0.6907-0.1072,1.4773,0.3961,2.0181
			C35.9114,95.004,48.774,102.6505,59.446,107.1283z M67.4171,76.5937c3.6121-0.0024,8.6875,1.331,15.5073,5.9384
			c-3.6214,2.476-7.5978,4.7692-11.5158,6.7815c-4.8155-3.2815-9.476-5.9468-13.8467-8.1082
			C60.2159,78.1487,63.495,76.6106,67.4171,76.5937z"/>
		<path fill="#ffffff" d="M114.1981,118.2948c-0.6274-1.3296-7.6735-11.8763-24.7983-11.8047
			c-17.6594,0.0339-32.4069,7.681-44.86,7.6089c-11.809-0.095-21.2687-3.5371-29.5538-10.6316
			c-0.6315-0.5239-1.5626,0.2567-1.1985,0.98c0.0362,0.083,8.1242,16.4961,29.7574,16.8962
			c26.3669,0.3257,43.7951-18.0451,69.5578-1.9839C113.7715,119.7768,114.5706,118.9633,114.1981,118.2948z"/>
	</g>
</g>
</svg>

