<?xml version="1.0" encoding="utf-8"?>
<!-- Generator: Adobe Illustrator 18.1.1, SVG Export Plug-In . SVG Version: 6.00 Build 0)  -->
<svg version="1.2" baseProfile="tiny" xmlns="http://www.w3.org/2000/svg" xmlns:xlink="http://www.w3.org/1999/xlink" x="0px"
	 y="0px" width="128px" height="128px" viewBox="0 0 128 128" xml:space="preserve">
<g id="box">
	<rect fill="none" width="128" height="128"/>
</g>
<g id="Production">
	<g>
		<path fill="#ffffff" d="M53.8672,33.469H2.2153C0.9948,33.469,0,34.4615,0,35.6844v45.0951c0,1.217,0.9889,2.2156,2.2153,2.2156
			h21.1372c1.0143-6.1127,6.3123-10.5306,12.4214-10.5245c6.0896-0.0052,11.4,4.3899,12.4214,10.5245h5.6719
			c1.2275,0,2.2153-0.9991,2.2153-2.2156V35.6844C56.0825,34.4689,55.0951,33.469,53.8672,33.469z M25.4888,58.9106H9.5112V42.8792
			h15.9776V58.9106z M48.8401,58.9106H32.8628V42.8792h15.9773V58.9106z"/>
		<path fill="#ffffff" d="M35.7739,75.5999c-4.5144,0.0016-8.2933,3.1661-9.2353,7.3952
			c-1.3258,5.9324,3.1908,11.5331,9.2353,11.5359c5.229-0.0029,9.4624-4.2393,9.4654-9.4692
			C45.2357,79.8625,41.0186,75.6027,35.7739,75.5999z M35.7739,88.2727c-1.7715-0.0034-3.2041-1.4365-3.2075-3.2109
			c0.0033-1.7567,1.4331-3.2008,3.2075-3.2044c1.7698,0.0036,3.2038,1.4494,3.2071,3.2044
			C38.9775,86.8342,37.5408,88.2693,35.7739,88.2727z"/>
		<path fill="#ffffff" d="M127.9341,62.903l-5.0215-20.1225l2.2219-6.3662c0.5025-1.4414-0.5692-2.9453-2.0915-2.9453H75.377
			c-1.2189,0-2.2154,0.9903-2.2154,2.2154v45.0951c0,1.2202,0.9914,2.2156,2.2154,2.2156h15.5732
			c1.0181-6.1142,6.3136-10.5297,12.4238-10.5245c6.1059-0.0052,11.4027,4.4066,12.4214,10.5245h9.9893
			c1.2231,0,2.2153-0.9941,2.2153-2.2156V63.4397C128,63.2545,127.979,63.0826,127.9341,62.903z M96.2749,58.9106h-15.977V42.8792
			h15.977V58.9106z M103.0918,58.9106V42.8792h12.7375l5.0135,18.9431L103.0918,58.9106z"/>
		<path fill="#ffffff" d="M103.374,75.5999c-4.519,0.002-8.2931,3.1693-9.237,7.3952c-1.3237,5.9229,3.1831,11.5325,9.237,11.5359
			c6.0652-0.0034,10.5564-5.6236,9.2351-11.5359C111.6648,78.7677,107.8903,75.6019,103.374,75.5999z M103.374,88.2727
			c-1.77-0.0034-3.2063-1.4385-3.2094-3.2109c0.0032-1.7558,1.4377-3.2008,3.2094-3.2044c1.7707,0.0036,3.2038,1.4476,3.2071,3.2044
			C106.5781,86.8352,105.1431,88.2693,103.374,88.2727z"/>
		<path fill="#ffffff" d="M60.9692,33.469c-1.2236,0-2.2153,0.9919-2.2153,2.2154v45.0951c0,1.2242,0.9917,2.2161,2.2153,2.2161
			c1.2232,0,2.2151-0.9919,2.2151-2.2161V35.6844C63.1843,34.4609,62.1924,33.469,60.9692,33.469z"/>
		<path fill="#ffffff" d="M68.0708,33.469c-1.2234,0-2.2153,0.9919-2.2153,2.2154v45.0951c0,1.2242,0.9919,2.2161,2.2153,2.2161
			c1.2236,0,2.2153-0.9919,2.2153-2.2161V35.6844C70.2861,34.4609,69.2944,33.469,68.0708,33.469z"/>
	</g>
</g>
</svg>
