<?xml version="1.0" encoding="utf-8"?>
<!-- Generator: Adobe Illustrator 18.1.1, SVG Export Plug-In . SVG Version: 6.00 Build 0)  -->
<svg version="1.2" baseProfile="tiny" xmlns="http://www.w3.org/2000/svg" xmlns:xlink="http://www.w3.org/1999/xlink" x="0px"
	 y="0px" width="128px" height="128px" viewBox="0 0 128 128" xml:space="preserve">
<g id="box">
	<rect fill="none" width="128" height="128"/>
</g>
<g id="Production">
	<g>
		<path fill="#ffffff" d="M109.5834,55.7447c-1.0528-6.8608-5.992-11.4704-12.2901-11.4704
			c-14.5318,0-21.6789,18.2088-24.0979,32.8328c8.0474,0,8.1066-0.0549,8.7134,0c1.2914-4.5575,3.8926-10.8535,8.6021-10.8535
			c3.6558,0,3.2475,5.8413,0.5493,10.0437c-0.7098,1.1054,0.3539,2.5007,1.6094,2.1069
			C106.1073,74.1808,110.847,63.9804,109.5834,55.7447z"/>
		<path fill="#ffffff" d="M59.288,77.1071c3.2046,0,4.3482,0,4.7088,0c0.1103,0,0.1483,0,0.1483,0c0.3531,0,1.4638,0,4.5669,0
			c0.7481-6.138,2.3081-11.188,3.8294-16.0908c2.0559-6.6259,3.9978-12.8844,3.9978-21.356c0-9.5525-3.8665-19.1788-9.685-26.6967
			c-2.0313-2.625-2.2387-2.625-2.8541-2.625c-0.6155,0-0.8229,0-2.8543,2.625c-5.7931,7.4853-9.6845,17.1039-9.6845,26.6967
			c0,8.4717,1.9418,14.7301,3.9974,21.3561C56.9799,65.9191,58.5399,70.9692,59.288,77.1071z"/>
		<path fill="#ffffff" d="M37.4891,66.2536c4.7126,0,7.3103,6.3134,8.5989,10.8535c0.5502-0.049,8.164,0,8.7163,0
			c-2.444-14.776-9.659-32.8328-24.0974-32.8328c-6.2985,0-11.2375,4.6096-12.2903,11.4705
			c-1.2636,8.2356,3.4762,18.436,16.9141,22.6594c1.3218,0.4154,2.3679-1.1157,1.5539-2.1938
			C34.2489,72.0451,33.8469,66.2536,37.4891,66.2536z"/>
		<path fill="#ffffff" d="M86.546,99.2052c-4.8454-2.4504-7.604-5.0813-9.1716-7.2009c-9.9346,0-17.0674,0-26.7432,0
			c-1.5666,2.1182-4.3265,4.7476-9.1778,7.2009c-1.0946,0.5539-1.2233,2.0676-0.241,2.7991
			c2.5815,1.9234,8.1253,3.3237,14.6078,1.5195c-0.8087,6.3869,2.9134,11.7507,7.2493,13.9514c0.4883,0.2487,1.375,0.2477,1.8613,0
			c3.7508-1.9042,8.1321-6.9788,7.249-13.9514c6.6503,1.8509,12.1195,0.3354,14.6074-1.5197
			C87.7691,101.2725,87.6404,99.7589,86.546,99.2052z"/>
		<path fill="#ffffff" d="M42.5978,84.5509c0,2.2957,1.8677,4.1634,4.1633,4.1634c7.3215,0,27.1979,0,34.4775,0
			c2.2959,0,4.1639-1.8677,4.1639-4.1634c0-2.2961-1.868-4.1643-4.1639-4.1643H81.128c-4.1231,0-30.3004,0-34.3669,0
			C44.4655,80.3866,42.5978,82.2548,42.5978,84.5509z"/>
	</g>
</g>
</svg>
