<?xml version="1.0" encoding="utf-8"?>
<!-- Generator: Adobe Illustrator 18.1.1, SVG Export Plug-In . SVG Version: 6.00 Build 0)  -->
<svg version="1.2" baseProfile="tiny" xmlns="http://www.w3.org/2000/svg" xmlns:xlink="http://www.w3.org/1999/xlink" x="0px"
	 y="0px" width="128px" height="128px" viewBox="0 0 128 128" xml:space="preserve">
<g id="_x31_28px_boxes">
	<rect fill="none" width="128" height="128"/>
</g>
<g id="Production">
	<g>
		<path fill="#ffffff" d="M78.3442,61.1821H54.433c-7.5661,3.2395-12.6865,9.4574-12.6865,16.5976v31.0791
			c0.0054,1.6488,1.3428,2.9841,2.9915,2.9895l0.0002,0.0056c0,0,43.2918-0.005,43.2974-0.005c1.6567,0,3-1.3434,3-3
			c0-0.0058,0-31.0692,0-31.0692C91.0356,70.6395,85.9103,64.4216,78.3442,61.1821z M83.5307,104.3539h-6.468V77.3683
			c0-4.2459-2.2473-8.0468-5.7678-10.5606c3.0153,0.6292,5.7766,1.8263,7.9419,3.4939c1.6035,1.2353,4.2939,3.849,4.2939,7.4781
			V104.3539z"/>
		<path fill="#ffffff" d="M122.1293,16.1486c-10.2497-0.0843-20.885,1.9298-31.2346,6.8801
			c-10.1763,4.8651-18.072,11.6368-23.0823,17.4034h-0.0207c-0.9522,0.8327-2.3469,0.8129-3.2764,0H64.476l-8.041-11.6788
			c-0.7837-1.1206-2.1052-1.869-3.5759-1.8505l-0.0218,0.0004h-0.0017c-3.865,0.3251-7.7439,0.0577-11.384-1.0258
			c-2.7859-0.828-7.3818-3.0285-9.6873-5.8496c-2.2302-2.3645-6.1552,0.5456-4.2539,3.3925
			c1.0086,1.368,2.3836,3.2314,5.2244,5.3907c4.7105,3.5791,10.7661,5.8538,17.8252,6.4876l3.5342,5.1335H33.2968
			c-14.1875,0-19.2927,9.7965-20.1096,11.5933L3.666,70.6489c-3.1619,6.25-0.8707,14.2133,5.7636,17.5686
			c4.6277,2.3429,13.469,2.3443,17.564-5.7496l11.5686-22.7168c2.6326-6.0897,7.2353-10.319,11.9094-10.319h4.3389v7.25h23.1562
			V46.4764c4.0884-5.1156,9.9515-10.5902,17.4026-14.8925c8.2129-4.7442,17.2906-7.4565,26.9685-8.1291l0.0288-0.0017
			C126.9465,23.1221,126.8515,16.1874,122.1293,16.1486z M30.268,56.2555L18.9702,78.3906
			c-2.5591,5.0598-9.6285,0.9765-7.2823-3.6618l9.7251-19.0533c2.563-4.8891,8.2818-6.4204,12.8015-6.2434
			C31.9064,52.4952,30.632,55.3721,30.268,56.2555z"/>
	</g>
</g>
</svg>
