<?xml version="1.0" encoding="utf-8"?>
<!-- Generator: Adobe Illustrator 18.1.1, SVG Export Plug-In . SVG Version: 6.00 Build 0)  -->
<svg version="1.2" baseProfile="tiny" xmlns="http://www.w3.org/2000/svg" xmlns:xlink="http://www.w3.org/1999/xlink" x="0px"
	 y="0px" width="128px" height="128px" viewBox="0 0 128 128" xml:space="preserve">
<g id="_x31_28px_boxes">
	<rect fill="none" width="128" height="128"/>
</g>
<g id="Production">
	<path fill="#ffffff" d="M112.5858,91.4083c-8.457-15.5194-27.0622-19.6972-41.641-6.2162L67.3867,74.155
		c-0.4127-1.2801-2.0469-1.6638-2.9849-0.6931l-10.434,10.7993c-0.9359,0.9684-0.5013,2.5898,0.7953,2.9592l11.0403,3.1443
		c-5.0334,5.0965-8.97,8.9421-14.8404,14.741c-8.2722,8.1708-16.917,7.5557-21.4983,2.946
		c-5.4634-5.497-3.5572-13.7104,1.8873-19.8805l3.4319,10.6468c0.4103,1.273,2.0412,1.6696,2.9849,0.6932l10.4343-10.7989
		c0.938-0.9707,0.4982-2.5909-0.7953-2.9593l-10.6801-3.0417l12.8027-12.8027c0.0042-0.0008,0.0084-0.001,0.0127-0.0019
		l52.6257-10.6659c1.6318-0.3308,2.8048-1.7653,2.8048-3.4303V14.1119c0-1.933-1.567-3.5-3.5-3.5h-42.218
		c-1.67,0-3.1073,1.1798-3.4329,2.8178L45.4783,65.4753L32.3725,78.5812l-3.4437-10.6831c-0.4129-1.2804-2.0467-1.6635-2.9849-0.693
		L15.5098,78.0043c-0.9358,0.9688-0.5011,2.5899,0.7955,2.9593l10.7119,3.0508c-9.1333,10.2047-8.405,21.6295-1.8081,28.2669
		c6.7643,6.8063,19.2075,7.7239,29.9703-2.9069c5.682-5.6128,9.6907-9.5307,14.7322-14.6313l3.3304,10.3318
		c0.4112,1.2755,2.0434,1.6675,2.9849,0.6931l10.4343-10.7989c0.9377-0.9707,0.4982-2.5909-0.7954-2.9592l-10.2755-2.9267
		c11.4686-10.075,25.1605-6.8539,31.7269,5.1962C109.2135,97.7598,114.4846,94.8932,112.5858,91.4083z"/>
</g>
</svg>
