<?xml version="1.0" encoding="utf-8"?>
<!-- Generator: Adobe Illustrator 18.1.1, SVG Export Plug-In . SVG Version: 6.00 Build 0)  -->
<svg version="1.2" baseProfile="tiny" xmlns="http://www.w3.org/2000/svg" xmlns:xlink="http://www.w3.org/1999/xlink" x="0px"
	 y="0px" width="128px" height="128px" viewBox="0 0 128 128" xml:space="preserve">
<g id="_x31_28px_boxes">
	<rect fill="none" width="128" height="128"/>
</g>
<g id="Production">
	<g>
		<path fill="#ffffff" d="M24.6639,45.4066v-1.8792c0-1.7884,1.4549-3.2434,3.2432-3.2434h3.0142
			c-0.1036-1.1775-0.0974-6.2554,0.0193-7.5h-3.0335c-5.9238,0-10.7432,4.8195-10.7432,10.7434v1.8864
			C18.3881,45.3012,23.4657,45.2989,24.6639,45.4066z"/>
		<path fill="#ffffff" d="M97.0785,40.284h3.0142c1.7885,0,3.2436,1.455,3.2436,3.2434v1.8792
			c1.9536-0.1322,5.3052-0.1947,7.5,0.0072v-1.8864c0-5.9239-4.8196-10.7434-10.7436-10.7434h-3.0333
			C97.3903,36.3112,97.2875,37.9121,97.0785,40.284z"/>
		<path fill="#ffffff" d="M84.496,72.9908c-0.0283-0.1155-3.1382-10.1345-3.1382-10.1345c-0.9536-2.9451-3.657-4.8734-6.6873-4.9345
			H53.3563c-3.0342,0.0611-5.7446,1.9818-6.7094,4.961c0,0-3.1143,10.005-3.149,10.1375c-2.1794,0.2541-3.0293,2.0232-3.5127,3.4175
			c-0.9853,2.9923-0.9995,7.5789,0,10.6242c1.19,3.4205,2.8208,3.2933,4.4839,3.4541v5.6422c0,0.8495,0.6839,1.5388,1.5401,1.5388
			h6.5376c1.3562,0,1.5407-1.3667,1.5407-1.5388v-5.6422h19.8328v5.6373c0,0.9653,0.8086,1.5437,1.5412,1.5437h6.5374
			c0.8535,0,1.5366-0.6954,1.5366-1.5437v-5.6373c1.6414-0.3642,2.2415,0.285,3.4673-1.2981
			c2.2874-3.122,2.0723-9.3981,1.0632-12.7149C87.5807,74.9547,86.5817,73.0074,84.496,72.9908z M49.3876,86.0938
			c-2.3042,0-4.1721-1.8678-4.1721-4.1724c0-2.3041,1.8679-4.1722,4.1721-4.1722c2.3044,0,4.1723,1.8681,4.1723,4.1722
			C53.5599,84.226,51.692,86.0938,49.3876,86.0938z M51.0336,72.5642l2.1303-6.7946c0.1477-0.6971,1.1675-1.4512,1.8899-1.4512
			c0.0213,0,17.8504,0.0025,17.8504,0.0025c0.7229-0.0462,1.7856,0.7214,1.9394,1.4321l2.1304,6.8112H51.0336z M78.5936,86.0938
			c-2.3044,0-4.1723-1.8678-4.1723-4.1724c0-2.3041,1.8679-4.1722,4.1723-4.1722c2.3045,0,4.1724,1.8681,4.1724,4.1722
			C82.766,84.226,80.8981,86.0938,78.5936,86.0938z"/>
		<path fill="#ffffff" d="M89.1371,24.882H38.8629c-1.9883,0-3.5998,5.266-3.5998,11.7619c0,6.4963,1.6115,11.7627,3.5998,11.7627
			h50.2742c1.988,0,3.5998-5.2664,3.5998-11.7627C92.7369,30.148,91.1251,24.882,89.1371,24.882z"/>
		<path fill="#ffffff" d="M20.9559,49.7423c-6.4958,0-11.7619,1.6115-11.7619,3.5998V99.518c0,1.9884,5.2661,3.6,11.7619,3.6
			c6.4961,0,11.762-1.6116,11.762-3.6V53.3421C32.7179,51.3538,27.452,49.7423,20.9559,49.7423z"/>
		<path fill="#ffffff" d="M107.0441,49.7423c-6.4959,0-11.7622,1.6115-11.7622,3.5998V99.518c0,1.9884,5.2663,3.6,11.7622,3.6
			c6.4961,0,11.7619-1.6116,11.7619-3.6V53.3421C118.806,51.3538,113.5402,49.7423,107.0441,49.7423z"/>
	</g>
</g>
</svg>
