<?xml version="1.0" encoding="utf-8"?>
<!-- Generator: Adobe Illustrator 18.1.1, SVG Export Plug-In . SVG Version: 6.00 Build 0)  -->
<svg version="1.2" baseProfile="tiny" xmlns="http://www.w3.org/2000/svg" xmlns:xlink="http://www.w3.org/1999/xlink" x="0px"
	 y="0px" width="64px" height="64px" viewBox="0 0 64 64" xml:space="preserve">

<g id="Production">
	<path fill="#ffffff" d="M55,9H37c-2.0858,0-3.9245,1.0709-5,2.6904C30.9245,10.0709,29.0858,9,27,9H9c-1.6543,0-3,1.3457-3,3v36
		c0,1.6543,1.3457,3,3,3h17.3911c3.4312,0,4.5962,4.0889,4.644,4.2627c0.2616,0.9627,1.6622,0.9739,1.9297,0
		C33.0127,55.0889,34.1777,51,37.6089,51H55c1.6543,0,3-1.3457,3-3V12C58,10.3457,56.6543,9,55,9z M26.3911,49H9
		c-0.5513,0-1-0.4487-1-1V12c0-0.5513,0.4487-1,1-1h18c2.2056,0,4,1.7944,4,4v36.1338C29.9771,49.9814,28.4902,49,26.3911,49z
		 M56,48c0,0.5513-0.4487,1-1,1H37.6089c-2.0991,0-3.5859,0.9814-4.6089,2.1338V15c0-2.2056,1.7944-4,4-4h18c0.5513,0,1,0.4487,1,1
		V48z"/>
</g>
</svg>
