<?xml version="1.0" encoding="utf-8"?>
<!-- Generator: Adobe Illustrator 18.1.1, SVG Export Plug-In . SVG Version: 6.00 Build 0)  -->
<svg version="1.2" baseProfile="tiny" xmlns="http://www.w3.org/2000/svg" xmlns:xlink="http://www.w3.org/1999/xlink" x="0px"
	 y="0px" width="128px" height="128px" viewBox="0 0 128 128" xml:space="preserve">
<g id="box">
	<rect fill="none" width="128" height="128"/>
</g>
<g id="Production">
	<g>
		<path fill="#ffffff" d="M35.7292,57.1274C41.105,56.053,49.935,51.6652,56.803,50.114
			c2.4734,3.6491,4.9257,11.1554,4.9257,11.1554s-10.2385,4.6969-23.7224,13.122c17.3005-0.0135,25.9416-3.6475,42.0596-5.6747
			c-3.1904-7.1244-9.8938-21.3997-14.6201-26.6581c-1.9966-2.2147-4.4429-3.3232-8.6428-2.4355
			c-6.0945,1.2844-19.741,8.2219-23.7273,10.7503C28.4741,53.2998,30.3669,58.202,35.7292,57.1274z"/>
		<path fill="#ffffff" d="M90.1233,66.2555c5.581,0,10.114-4.5292,10.114-10.1144c0-5.5831-4.533-10.1145-10.114-10.1145
			c-5.5808,0-10.114,4.5314-10.114,10.1145C80.0093,61.7263,84.5425,66.2555,90.1233,66.2555z"/>
		<path fill="#ffffff" d="M127.5913,79.0182c-0.1404-0.1073-8.6194-6.3503-30.0823-6.3394c-25.0098,0-36.3822,6.8359-59.5769,6.8359
			c-26.1019-0.0059-36.3948-9.8726-36.3948-9.8726c-0.7427-0.7389-1.925,0.2357-1.4235,1.2225
			c0.0835,0.2243,9.3129,17.819,41.2023,17.819h0.0774c21.727,0,41.1985-8.8199,72.6499-8.8199
			c8.9236,0,12.8301,0.9547,12.8301,0.9547C127.8518,81.0445,128.4437,79.6497,127.5913,79.0182z"/>
	</g>
</g>
</svg>

