<?xml version="1.0" encoding="utf-8"?>
<!-- Generator: Adobe Illustrator 18.1.1, SVG Export Plug-In . SVG Version: 6.00 Build 0)  -->
<svg version="1.2" baseProfile="tiny" xmlns="http://www.w3.org/2000/svg" xmlns:xlink="http://www.w3.org/1999/xlink" x="0px"
	 y="0px" width="64px" height="64px" viewBox="0 0 64 64" xml:space="preserve">
<g id="_x36_4px_boxes">
	<rect fill="none" width="64" height="64"/>
</g>
<g id="Production">
	<g>
		<path fill="#ffffff" d="M18,45h8V18h-8V45z M20,20h4v23h-4V20z"/>
		<path fill="#ffffff" d="M28,45h8V18h-8V45z M30,20h4v23h-4V20z"/>
		<path fill="#ffffff" d="M38,45h8V18h-8V45z M40,20h4v23h-4V20z"/>
		<path fill="#ffffff" d="M49,12h-3V9c0-1.6543-1.3457-3-3-3H21c-1.6543,0-3,1.3457-3,3v3h-3c-1.6543,0-3,1.3457-3,3v43h40V15
			C52,13.3457,50.6543,12,49,12z M36,56h-8v-5h8V56z M50,56H38v-7H26v7H14V15c0-0.5513,0.4487-1,1-1h5V9c0-0.5513,0.4487-1,1-1h22
			c0.5513,0,1,0.4487,1,1v5h5c0.5513,0,1,0.4487,1,1V56z"/>
	</g>
</g>
</svg>

