<?xml version="1.0" encoding="utf-8"?>

<svg version="1.2" baseProfile="tiny" xmlns="http://www.w3.org/2000/svg" xmlns:xlink="http://www.w3.org/1999/xlink" x="0px"
	 y="0px" width="64px" height="64px" viewBox="0 0 64 64" xml:space="preserve">

<g id="Production">
	<path fill="#ffffff" d="M31,24.0088v-11.957L5.2842,30.5L31,48.9482V37.0107c11.2402,0.2456,19.2822,4.521,24.5654,13.354
		c0.6868,1.1532,2.4538,0.6253,2.4209-0.6943C57.583,32.855,48.5059,24.3242,31,24.0088z M29,35.01v10.0418L8.7158,30.5L29,15.9482
		V26c1.3265,0,3.3269-0.0234,5.856,0.233c13.0071,1.3185,19.9068,8.0959,20.9927,20.8984
		c-5.0107-7.1052-11.9911-10.9265-21.1949-11.8959C32.2285,34.9801,30.3927,35.01,29,35.01z"/>
</g>
</svg>
