<?xml version="1.0" encoding="utf-8"?>
<!-- Generator: Adobe Illustrator 19.1.0, SVG Export Plug-In . SVG Version: 6.00 Build 0)  -->
<svg version="1.2" baseProfile="tiny" xmlns="http://www.w3.org/2000/svg" xmlns:xlink="http://www.w3.org/1999/xlink" x="0px"
	 y="0px" width="64px" height="64px" viewBox="0 0 64 64" xml:space="preserve">
<g id="box">
	<rect fill="none" width="64" height="64"/>
</g>
<g id="Production">
	<g>
		<path fill="#ffffff" d="M20,10c0-0.5513,0.4487-1,1-1s1,0.4487,1,1v26h2V10c0-1.6543-1.3457-3-3-3s-3,1.3457-3,3v26h2V10z"/>
		<path fill="#ffffff" d="M36,55h-1.0383C34.5786,49.5711,31.1021,44.8707,26,42.9258V40c0-1.103-0.897-2-2-2h-6
			c-1.103,0-2,0.897-2,2v2.9258C10.8979,44.8707,7.4214,49.5711,7.0383,55H6c-0.5522,0-1,0.4478-1,1s0.4478,1,1,1h30
			c0.5522,0,1-0.4478,1-1S36.5522,55,36,55z M9.041,55c0.302-3.6638,2.2507-6.9269,5.2239-8.9346
			C15.7845,45.0393,17,44.685,18,44.3613V40h6v4.3613c1,0.3237,2.0095,0.6205,3.3605,1.4612
			c3.1835,1.981,5.2841,5.362,5.5985,9.1775H9.041z"/>
		<path fill="#ffffff" d="M47,54c0,0.5513-0.4487,1-1,1s-1-0.4487-1-1V29h-2v25c0,1.6543,1.3457,3,3,3s3-1.3457,3-3V29h-2V54z"/>
		<path fill="#ffffff" d="M56,19c0.5522,0,1-0.4478,1-1s-0.4478-1-1-1h-8v-2h8c0.5522,0,1-0.4478,1-1s-0.4478-1-1-1h-6.2676
			l5.4277-3.1338c0.4785-0.2764,0.6421-0.8877,0.3662-1.3662c-0.2769-0.4785-0.8887-0.644-1.3662-0.3662l-5.4276,3.1337
			l3.1337-5.4276C52.1421,5.3613,51.9785,4.75,51.5,4.4736c-0.48-0.2769-1.0898-0.1123-1.3662,0.3662L47,10.2676V4
			c0-0.5522-0.4478-1-1-1s-1,0.4478-1,1v6.2676l-3.1338-5.4278C41.5894,4.3613,40.9771,4.1968,40.5,4.4736
			c-0.4785,0.2764-0.6421,0.8877-0.3662,1.3662l3.1337,5.4276l-5.4276-3.1337C37.3589,7.856,36.7495,8.0215,36.4736,8.5
			s-0.1123,1.0898,0.3662,1.3662L42.2676,13H36c-0.5522,0-1,0.4478-1,1s0.4478,1,1,1h8v2h-8c-0.5522,0-1,0.4478-1,1s0.4478,1,1,1h8
			v2h-8c-0.5522,0-1,0.4478-1,1s0.4478,1,1,1h8v2h-8c-0.5522,0-1,0.4478-1,1s0.4478,1,1,1h8h4h8c0.5522,0,1-0.4478,1-1
			s-0.4478-1-1-1h-8v-2h8c0.5522,0,1-0.4478,1-1s-0.4478-1-1-1h-8v-2H56z"/>
	</g>
</g>
</svg>

