<?xml version="1.0" encoding="utf-8"?>

<svg version="1.2" baseProfile="tiny" xmlns="http://www.w3.org/2000/svg" xmlns:xlink="http://www.w3.org/1999/xlink" x="0px"
	 y="0px" width="128px" height="128px" viewBox="0 0 128 128" xml:space="preserve">
<g id="_x31_28px_boxes">
	<rect fill="none" width="128" height="128"/>
</g>
<g id="Production">
	<g>
		<path fill="#ffffff" d="M16.5787,96.1116c0,1.7944,1.4632,3.25,3.2576,3.25h88.3379c1.7947,0,3.2471-1.4556,3.2471-3.25
			c0-1.7945-1.4524-3.2471-3.2471-3.2471H19.8363C18.0419,92.8645,16.5787,94.3171,16.5787,96.1116z"/>
		<path fill="#ffffff" d="M24.3876,59.8738c-1.4871,0-2.6812,1.2149-2.6812,2.6785v25.7165h23.8435V62.5523
			c0-1.4609-1.1846-2.6785-2.6731-2.6785H24.3876z"/>
		<path fill="#ffffff" d="M54.0919,28.6384c-1.4463,0-2.6787,1.1791-2.6787,2.6787v56.9517h23.8464V31.3171
			c0-1.4617-1.188-2.6787-2.6784-2.6787H54.0919z"/>
		<path fill="#ffffff" d="M83.8038,47.2241c-1.4597,0-2.6814,1.1849-2.6814,2.6841v38.3606h23.8438V49.9082
			c0-1.4916-1.2158-2.6841-2.6809-2.6841H83.8038z"/>
	</g>
</g>
</svg>
