<?xml version="1.0" encoding="utf-8"?>
<!-- Generator: Adobe Illustrator 18.1.1, SVG Export Plug-In . SVG Version: 6.00 Build 0)  -->
<svg version="1.2" baseProfile="tiny" xmlns="http://www.w3.org/2000/svg" xmlns:xlink="http://www.w3.org/1999/xlink" x="0px"
	 y="0px" width="128px" height="128px" viewBox="0 0 128 128" xml:space="preserve">
<g id="box">
	<rect fill="none" width="128" height="128"/>
</g>
<g id="Production">
	<g>
		<path fill="#ffffff" d="M60.2409,51.6962h6.6204c-0.427-2.9266,0.3832-5.9231,2.7754-8.1736
			c2.967-2.7735,6.0868-2.5547,8.4548-2.5547c3.5056,0,1.7551,0,8.7275,0.0066c10.3645-0.0179,19.3661-6.5867,19.368-17.094
			c0-0.0091,0-0.0171,0-0.0232c0.0153-1.7149-1.3018-3.1719-3.0367-3.3045c-1.8359-0.1422-3.5343,1.2656-3.5417,3.3216
			c-0.0252,6.998-6.4129,10.5302-12.7859,10.5222c-6.9636-0.0068-5.2234-0.0068-8.7312-0.0068
			c-2.2145,0-7.7971-0.4415-12.9321,4.3129C61.7507,41.8443,59.7946,46.4975,60.2409,51.6962z"/>
		<path fill="#ffffff" d="M107.0392,56.5592H20.9606c-3.6311,0-6.575,2.9438-6.575,6.5752v37.7473
			c0,3.6316,2.9439,6.5754,6.575,6.5754h86.0786c3.6309,0,6.5752-2.9438,6.5752-6.5754V63.1344
			C113.6144,59.503,110.6701,56.5592,107.0392,56.5592z M57.4377,66.943h7.2314v7.2307l-7.2314,0.0005V66.943z M70.1718,78.151
			v7.2302h-7.2311V78.151H70.1718z M58.9372,78.1503v7.2319h-7.2316v-7.2319H58.9372z M46.2028,66.943h7.2311l0.0006,7.2314h-7.2317
			V66.943z M47.7026,78.151v7.2302H40.471V78.151H47.7026z M34.9684,66.943h7.2311v7.2307h-7.2311V66.943z M36.4677,78.151v7.2302
			h-7.2308V78.151H36.4677z M23.7338,66.943h7.2311v7.2307h-7.2311V66.943z M30.9649,96.5895h-7.2311V89.358h7.2311V96.5895z
			 M64.6696,96.589H34.9687v-7.2305h29.7009V96.589z M75.9033,96.5897H68.673v-7.2319h7.2303V96.5897z M75.9033,74.1744H68.673
			V66.943h7.2303V74.1744z M91.7438,96.5897h-7.2314v-7.2319h7.2314V96.5897z M91.7438,85.3822h-7.2319v-7.2319h7.2319V85.3822z
			 M91.7438,74.1744h-7.2314V66.943h7.2314V74.1744z M95.7458,78.1507h7.2312v7.2303h-7.2312V78.1507z M95.7463,96.589v-7.2312
			h7.2307l0.0007,7.2312H95.7463z M95.7463,74.1737V66.943h7.2307l0.0007,7.2307H95.7463z"/>
	</g>
</g>
</svg>
