<?xml version="1.0" encoding="utf-8"?>
<!-- Generator: Adobe Illustrator 18.1.1, SVG Export Plug-In . SVG Version: 6.00 Build 0)  -->
<svg version="1.2" baseProfile="tiny" xmlns="http://www.w3.org/2000/svg" xmlns:xlink="http://www.w3.org/1999/xlink" x="0px"
	 y="0px" width="64px" height="64px" viewBox="0 0 64 64" xml:space="preserve">

<g id="Production">
	<g>
		<path fill="#ffffff" d="M48.1826,9.0454H15.8174L8,20.6958v34.2588h48V20.6958L48.1826,9.0454z M53.1249,20H33v-9h14.1162
			L53.1249,20z M16.8838,11H31v9H10.8751L16.8838,11z M10,53V22h21v6h2v-6h21v31H10z"/>
		<polygon fill="#ffffff" points="20.9717,36.6431 22.3857,38.0571 25,35.4429 25,46 27,46 27,35.3854 29.6714,38.0571 
			31.0854,36.6431 26.0288,31.5859 		"/>
		<polygon fill="#ffffff" points="32.9146,36.6431 34.3286,38.0571 37,35.3854 37,46 39,46 39,35.4429 41.6143,38.0571 
			43.0283,36.6431 37.9712,31.5859 		"/>
	</g>
</g>
</svg>
