<?xml version="1.0" encoding="utf-8"?>

<svg version="1.2" baseProfile="tiny" xmlns="http://www.w3.org/2000/svg" xmlns:xlink="http://www.w3.org/1999/xlink" x="0px"
	 y="0px" width="64px" height="64px" viewBox="0 0 64 64" xml:space="preserve">

<g id="Production">
	<g>
		<path fill="#ffffff" d="M51.4932,24.7783C47.7588,18.833,34.3408,5.3418,33.7715,4.7705L32,2.9922l-1.7715,1.7793
			C29.6592,5.3418,16.2422,18.833,12.5068,24.7793C10.2129,28.4336,9,32.6572,9,36.9932c0,12.6826,10.3174,22.999,23,22.999
			c12.6826,0,23-10.3164,23-22.999C55,32.6563,53.7871,28.4316,51.4932,24.7783z M32,54.9961c-9.9248,0-18-8.0762-18-18.0029
			c0-3.3955,0.9482-6.7022,2.7422-9.5586C19.4258,23.1631,28.2061,13.9893,32,10.0986c3.7949,3.8907,12.5752,13.0645,15.2578,17.335
			C49.0518,30.291,50,33.5957,50,36.9932C50,46.9199,41.9248,54.9961,32,54.9961z"/>
		<path fill="#ffffff" d="M20.1318,29.5352C18.7373,31.7559,18,34.3291,18,36.9756c0,3.8193,1.5117,7.3916,4.2559,10.0576
			l3.4843-3.5859C23.9727,41.7305,23,39.4316,23,36.9756c0-1.7051,0.4727-3.3584,1.3662-4.7822
			c1.1045-1.7598,4.6397-5.8809,9.458-11.0254l-3.6484-3.418C27.1787,20.9492,21.8887,26.7354,20.1318,29.5352z"/>
	</g>
</g>
</svg>
