<?xml version="1.0" encoding="utf-8"?>
<!-- Generator: Adobe Illustrator 18.1.1, SVG Export Plug-In . SVG Version: 6.00 Build 0)  -->
<svg version="1.2" baseProfile="tiny" xmlns="http://www.w3.org/2000/svg" xmlns:xlink="http://www.w3.org/1999/xlink" x="0px"
	 y="0px" width="64px" height="64px" viewBox="0 0 64 64" xml:space="preserve">

<g id="Production">
	<g>
		<path fill="#ffffff" d="M4,40c0-0.3968,0.4739-0.8916,1.3782-1.3961c2.9624,1.3275,7.5398,2.1012,12.3486,2.3184
			c-0.2654-0.6599-0.5039-1.333-0.7106-2.0201C8.459,38.4215,4,36.2375,4,35c0-0.3983,0.4775-0.8943,1.3933-1.3997
			c2.6707,1.1938,6.6421,1.9481,10.9189,2.246c-0.1072-0.6614-0.1833-1.3326-0.235-2.0108C8.14,33.2534,4,31.1908,4,30
			c0-0.3983,0.4739-0.895,1.3876-1.4014c2.6119,1.1691,6.4701,1.9183,10.6422,2.2296c0.0322-0.6683,0.0977-1.3277,0.1838-1.9807
			C8.1846,28.2796,4,26.1978,4,25c0-1.3143,5.0349-3.6939,14.6638-3.9683c0.3584-0.6946,0.7495-1.3693,1.1719-2.0225
			C10.8639,19.1061,2,21.1559,2,25c0,0.9437,0.5475,1.7755,1.4865,2.5005C2.5449,28.2246,2,29.0566,2,30
			c0,0.9435,0.5464,1.7755,1.4851,2.5003C2.5432,33.2241,2,34.0566,2,35c0,0.9428,0.5452,1.7748,1.4824,2.5
			C2.5452,38.2252,2,39.0572,2,40c0,3.939,9.3066,6,18.5,6c0.0081,0,0.0164-0.0004,0.0244-0.0004
			c-0.4683-0.6495-0.9041-1.3232-1.3069-2.0189C9.2291,43.7836,4,41.3392,4,40z"/>
		<path fill="#ffffff" d="M40,10c-12.1309,0-22,9.8691-22,22s9.8691,22,22,22s22-9.8691,22-22S52.1309,10,40,10z M40,52
			c-11.0278,0-20-8.9722-20-20s8.9722-20,20-20s20,8.9722,20,20S51.0278,52,40,52z"/>
		<path fill="#ffffff" d="M39.8779,28.2578c-1.657,0-3.4409,0.6807-4.543,1.9961l-0.0615-0.0615l1.3813-7.1221h9.3936V21.29H35.3042
			l-2.0874,11.1426h1.6577c1.0892-1.6763,2.8685-2.5479,4.7886-2.5479c2.2427,0,4.1864,1.1937,5.0806,3.377
			c1.3658,3.3398-0.6001,8.0732-4.9575,8.0732c-3.1125,0-5.2034-2.1425-5.2803-4.9727h-1.9341
			c0.0763,3.8058,2.7493,6.5693,7.0605,6.5693c5.5471,0,8.8296-5.183,6.9531-10.2373
			C45.5275,29.8372,43.0146,28.2578,39.8779,28.2578z"/>
	</g>
</g>
</svg>
