<?xml version="1.0" encoding="utf-8"?>
<!-- Generator: Adobe Illustrator 18.1.1, SVG Export Plug-In . SVG Version: 6.00 Build 0)  -->
<svg version="1.2" baseProfile="tiny" xmlns="http://www.w3.org/2000/svg" xmlns:xlink="http://www.w3.org/1999/xlink" x="0px"
	 y="0px" width="128px" height="128px" viewBox="0 0 128 128" xml:space="preserve">
<g id="box">
	<rect fill="none" width="128" height="128"/>
</g>
<g id="Production">
	<g>
		<path fill="#ffffff" d="M49.5396,29.7283c2.904,0,4.5737,0.8415,7.2595,1.9176c1.344-2.0949,4.7546-8.7346,13.271-8.7346
			c8.1684,0,11.8515,5.4133,14.2036,12.1229c2.3396-0.5938,4.1518-1.2111,6.4577-0.9618c3.6949,0.3995,5.6927,2.3056,6.751,4.5195
			c0.3352,0,6.5542-0.0063,6.8889,0.0097c-2.1506-7.7173-8.6792-11.5899-16.0276-11.0257
			c-3.4768-6.7733-10.5175-11.1646-18.2736-11.1646c-6.1709,0-11.9077,2.7284-15.7879,7.4065
			c-10.7732-2.732-21.4426,4.1868-23.6572,14.7741h6.719C39.0171,33.4534,43.8503,29.7283,49.5396,29.7283z"/>
		<path fill="#ffffff" d="M104.0251,43.0919c-7.8852,0-65.5903,0-73.4775,0c-1.5696,0-2.8391,1.3164-2.7407,2.9184
			c2.8357,12.7984,0.4978,2.2457,4.1597,18.7733c0.0131-0.0235,0.0256-0.047,0.039-0.0705
			c1.4824,6.5187,3.158,13.8591,4.6646,20.399c-2.8216-1.3634-5.5171-5.2287-6.5054-8.013
			c-0.3269-0.9211,0.0957,0.7866-4.1616-18.4267c-0.0176,0.0275-0.0352,0.055-0.0528,0.0824
			c-1.5681,2.4686-2.8857,5.0949-3.737,7.9287c-1.9407,6.4608-1.0193,12.5729,2.7307,18.2283
			c10.2095,15.398,28.1174,10.061,41.1099-2.0183c6.5124-6.0548,11.7854-13.7669,15.6621-21.8516
			c-0.0703-0.0843-0.1382-0.1706-0.2036-0.2589c-2.8936-3.8935-0.1214-9.5079,4.7856-9.5079c1.6809,0,3.1982,0.6971,4.2817,1.8168
			c3.4324,3.5489,1.2869,9.5388-3.6416,10.0654c-3.9699,8.3564-9.2798,16.2633-15.7995,22.6576
			c-8.2603,8.102-19.4805,14.688-31.003,14.1241c0.3909,1.6217,0.6834,2.7914,0.8445,3.3653
			c1.9966,7.1065,6.2329,8.1677,8.5801,8.1677c2.0576,0,33.1516,0.1167,35.5779,0.1167c4.157,0,7.0593-2.8526,8.626-8.4782
			c1.3869-4.9803,12.4733-54.5605,12.9445-56.6687C107.1018,44.684,105.7378,43.0919,104.0251,43.0919z"/>
	</g>
</g>
</svg>
