<?xml version="1.0" encoding="utf-8"?>
<!-- Generator: Adobe Illustrator 18.1.1, SVG Export Plug-In . SVG Version: 6.00 Build 0)  -->
<svg version="1.2" baseProfile="tiny" xmlns="http://www.w3.org/2000/svg" xmlns:xlink="http://www.w3.org/1999/xlink" x="0px"
	 y="0px" width="128px" height="128px" viewBox="0 0 128 128" xml:space="preserve">
<g id="_x31_28px_boxes">
	<rect fill="none" width="128" height="128"/>
</g>
<g id="Production">
	<g>
		<path fill="#ffffff" d="M60.7705,26.8031c-2.0337-9.1786-8.4492-7.6911-11.0097,0.2315
			c-2.5591,7.9226,2.6538,25.1318,2.6538,25.1318s-13.0308,0.0202-19.368,0.0202c-6.3366,0-8.133,2.2336-8.8615,5.2946
			c-0.645,2.7094,0.6679,4.83,1.3794,8.3308c0.5591,2.7478-4.0303,4.4746-2.8374,9.0741c1.0634,4.1042,2.6289,3.5009,3.0854,6.2375
			c0.5249,3.1522-1.8169,4.0965-0.7339,7.6978c1.2256,4.0727,4.4803,5.034,4.9649,7.3097c0.5757,2.7055-0.3731,3.0398,0.7441,5.9425
			c2.0073,5.2183,6.4741,5.4366,13.4292,5.4366s11.1287,0,16.7405,0c9.4477,0,12.0674-8.7784,19.7082-8.7784
			c0.8091,0,1.9405,0,3.2266,0V57.07c-4.2505-1.5005-8.7436-3.7307-11.9199-7.0005C64.8101,42.6966,63.1243,37.4304,60.7705,26.8031
			z"/>
		<rect x="91.9844" y="56.9169" fill="#ffffff" width="13.4873" height="50.5933"/>
	</g>
</g>
</svg>
