<?xml version="1.0" encoding="utf-8"?>
<!-- Generator: Adobe Illustrator 18.1.1, SVG Export Plug-In . SVG Version: 6.00 Build 0)  -->
<svg version="1.2" baseProfile="tiny" xmlns="http://www.w3.org/2000/svg" xmlns:xlink="http://www.w3.org/1999/xlink" x="0px"
	 y="0px" width="128px" height="128px" viewBox="0 0 128 128" xml:space="preserve">
<g id="box">
	<rect fill="none" width="128" height="128"/>
</g>
<g id="Production">
	<g>
		<rect x="21.625" y="44.386" fill="#ffffff" width="46.9311" height="44.8598"/>
		<path fill="#ffffff" d="M21.6539,97.408c0,3.0896,2.5553,5.6026,5.6958,5.6026h35.4817c3.1405,0,5.6958-2.513,5.6958-5.6026
			v-2.8338H21.6539V97.408z"/>
		<path fill="#ffffff" d="M68.5272,36.222c0-3.0893-2.5553-5.6026-5.6963-5.6026h-8.1893v-1.8699
			c0-2.0732-1.6866-3.7601-3.7603-3.7601H38.6987c-2.0736,0-3.7602,1.6869-3.7602,3.7601v1.8699h-7.5888
			c-3.1405,0-5.6958,2.5133-5.6958,5.6026v2.9604h46.8733V36.222z"/>
		<path fill="#ffffff" d="M100.4943,44.6327l-26.4735-0.0126v5.0205h5.6655v5.438h-5.6655V79.094h5.6655v5.4385h-5.6655v4.8425
			c0.2883-0.0031,0.8657-0.0051,1.9558-0.0051c3.3237,0,7.0339,0.1533,10.964-7.8354c2.6921-5.4719,6.8187-6.3924,12.5604-6.3924
			c3.948,0,6.8739-3.1033,6.8739-8.4865V50.769C106.3749,47.1897,106.1191,44.6327,100.4943,44.6327z M90.3115,55.0786h-5.7817
			v-5.438h5.7817V55.0786z M100.9364,55.0786h-5.7819v-5.438h5.7819V55.0786z"/>
	</g>
</g>
</svg>
