<?xml version="1.0" encoding="utf-8"?>
<!-- Generator: Adobe Illustrator 18.1.1, SVG Export Plug-In . SVG Version: 6.00 Build 0)  -->
<svg version="1.2" baseProfile="tiny" xmlns="http://www.w3.org/2000/svg" xmlns:xlink="http://www.w3.org/1999/xlink" x="0px"
	 y="0px" width="128px" height="128px" viewBox="0 0 128 128" xml:space="preserve">
<g id="box">
	<rect fill="none" width="128" height="128"/>
</g>
<g id="Production">
	<g>
		<path fill="#ffffff" d="M101.7777,38.2222c0-0.3303,0.0068-20.6416-0.0122-20.97c1.7271-0.035,3.1167-1.4433,3.1167-3.1788
			c0-1.7575-1.4246-3.182-3.1819-3.182H77.5597c-1.7576,0-3.1821,1.4245-3.1821,3.182c0,1.7355,1.3899,3.1438,3.1169,3.1788
			c-0.0195,0.3242-0.0124,20.6439-0.0124,20.97c-6.8094,2.246-11.7369,8.6686-11.7369,16.2208v3.6592
			c2.3035,1.4407,4.4373,3.1316,6.3643,5.0493V54.443c0-5.1584,3.7039-10.7109,11.7368-10.7109V17.6337h11.5674v26.0984
			c7.7466,0,11.7368,5.2679,11.7368,10.7109v56.2815H75.6644c-1.6457,2.2104-3.5373,4.2295-5.6333,6.0151
			c1.4307,0.4942-1.04,0.3492,37.1194,0.3492c3.5147,0,6.364-2.8494,6.364-6.3643V54.443
			C113.5145,46.8908,108.587,40.4682,101.7777,38.2222z"/>
		<path fill="#ffffff" d="M100.7863,104.3603V70.8905H78.474v0.774c2.8748,5.3012,4.384,11.2224,4.384,17.3315
			c0,5.3257-1.1687,10.5749-3.3955,15.3643H100.7863z"/>
		<path fill="#ffffff" d="M72.1095,70.0194c-3.4795-4.7013-8.2183-8.3916-13.6172-10.5971V36.0141
			c1.7573,0,3.1819-1.4247,3.1819-3.1822c0-1.7574-1.4246-3.182-3.1819-3.182v-0.0001H34.3517v0.0001
			c-1.7576,0-3.1821,1.4246-3.1821,3.182c0,1.7575,1.4245,3.1822,3.1821,3.1822v23.4082
			C22.6979,64.1835,14.4855,75.6297,14.4855,88.996c0,11.7041,6.2973,21.9363,15.6877,27.4971h32.4976
			c9.4443-5.5923,15.6872-15.8742,15.6872-27.4971C78.358,81.8888,76.036,75.3246,72.1095,70.0194z M60.8224,110.129h-28.801
			c-3.146-2.1494-5.7933-4.987-7.7149-8.2849c-2.2615-3.8813-3.457-8.3239-3.457-12.8481c0-5.1797,1.539-10.1655,4.4504-14.419
			c4.865-7.1073,10.8313-9.0071,15.4158-10.8801c0-10.6354,0-17.1148,0-27.6828h11.4124c0,10.5659,0,17.048,0,27.6828
			c4.062,1.6595,9.1088,3.2895,13.5869,8.4947c4.2033,4.8861,6.2788,10.783,6.2788,16.8044
			C71.9938,97.7409,67.5944,105.5026,60.8224,110.129z"/>
		<path fill="#ffffff" d="M28.1051,83.2123c-2.2661,7.1649-0.2122,15.3922,6.0256,20.5525H58.713
			c6.2346-5.158,8.294-13.3858,6.0254-20.5525H28.1051z"/>
	</g>
</g>
</svg>
