<?xml version="1.0" encoding="utf-8"?>
<!-- Generator: Adobe Illustrator 18.1.1, SVG Export Plug-In . SVG Version: 6.00 Build 0)  -->
<svg version="1.2" baseProfile="tiny" xmlns="http://www.w3.org/2000/svg" xmlns:xlink="http://www.w3.org/1999/xlink" x="0px"
	 y="0px" width="128px" height="128px" viewBox="0 0 128 128" xml:space="preserve">
<g id="box">
	<rect fill="none" width="128" height="128"/>
</g>
<g id="Production">
	<g>
		<path fill="#ffffff" d="M106.9651,30.7186c-4.8203,5.8006-12.1548,8.3828-19.4829,7.8035
			c-7.9634-0.6297-13.91-3.7302-18.5169-6.5225c-7.1247-4.3184-15.2456-8.2481-23.3848-7.4688
			c-11.004,1.0532-18.6981,9.0415-17.698,8.1199c0.019,0.0712,14.0706,52.8641,14.0899,52.9349
			c4.0798-3.7897,10.7989-9.135,21.4197-8.261c6.7605,0.5564,13.1469,3.9143,18.8537,7.3731
			c18.9738,11.5003,32.7473,6.4455,38.8472-0.9693C106.4944,28.8844,106.9651,30.7186,106.9651,30.7186z M97.8598,72.08
			l3.7273,14.0801c-4.9349-0.4179-10.0345-2.0076-15.0522-4.971l-3.4551-13.0583c-4.2532-2.1455-7.3245-4.7636-13.9143-7.4253
			c0,0,3.5745,13.5247,3.5747,13.5251c-4.6084-1.6746-8.5055-2.611-14.2634-2.0024l-3.7527-14.2075
			c-5.5088,0.5232-10.2031,2.7583-13.3787,4.708l-3.7241-14.1123c2.9407-1.918,7.7254-4.3945,13.354-4.7893l-3.7444-14.1792
			c5.6348-0.1966,12.8213,3.3147,14.8924,4.4197l3.498,13.2331c5.8457,2.6816,8.6011,5.2888,13.9309,7.4941l-3.5825-13.5366
			c4.6329,1.5906,9.5101,2.6793,14.4038,2.5533l3.7476,14.1518c4.9876,0,9.5373-1.3577,13.5837-3.917l3.7329,14.0845
			C107.5589,70.8342,102.9419,72.2854,97.8598,72.08z"/>
		<path fill="#ffffff" d="M50.9753,43.8271l3.7488,14.1936c5.3716-0.5108,9.4678,0.6768,14.4414,2.6848l-3.5442-13.4048
			C58.2934,43.939,54.4334,43.5842,50.9753,43.8271z"/>
		<path fill="#ffffff" d="M79.5522,54.7948l3.5276,13.336c4.6835,2.3615,10.75,3.7925,14.78,3.9492l-3.7387-14.1167
			C89.4201,57.949,83.4833,56.4224,79.5522,54.7948z"/>
		<path fill="#ffffff" d="M23.3657,29.2221c2.2629-0.6067,3.6057-2.9326,2.9995-5.1948c-0.6069-2.2632-2.9326-3.6065-5.1953-3
			l-11.1182,2.9795c-2.2627,0.6064-3.6052,2.9323-2.9992,5.1948c0.508,1.8955,2.2214,3.145,4.0949,3.145
			c0.7973,0,1.3567-0.2139,2.562-0.5369l20.1785,75.3086h8.7835L21.904,29.6137L23.3657,29.2221z"/>
	</g>
</g>
</svg>
