<?xml version="1.0" encoding="utf-8"?>
<!-- Generator: Adobe Illustrator 18.1.1, SVG Export Plug-In . SVG Version: 6.00 Build 0)  -->
<svg version="1.2" baseProfile="tiny" xmlns="http://www.w3.org/2000/svg" xmlns:xlink="http://www.w3.org/1999/xlink" x="0px"
	 y="0px" width="128px" height="128px" viewBox="0 0 128 128" xml:space="preserve">
<g id="_x31_28px_boxes">
	<rect fill="none" width="128" height="128"/>
</g>
<g id="Production">
	<g>
		<path fill="#ffffff" d="M107.7728,38.9533c-2.0825-2.083-27.0757-27.0757-29.1582-29.1587
			c-2.0828-2.0823-4.5012,0.3357-4.5012,0.3357L25.7464,58.497c4.1614,4.1615,9.3378-1.0047,13.5025,3.1594
			c4.0477,4.0478-0.779,9.7548,3.0661,13.5962c3.8388,3.8362,9.5253-1.0047,13.596,3.0659
			c4.1642,4.1648-1.0014,9.3415,3.1594,13.5022l48.3669-48.3669C107.4373,43.4538,109.8556,41.036,107.7728,38.9533z"/>
		<path fill="#ffffff" d="M22.6771,74.0636c0,0-1.9837,10.3135-2.9761,15.4717c-1.3223,6.8762,1.4561,9.6533,8.3313,8.3306
			c5.1577-0.9917,15.4724-2.9754,15.4724-2.9754L22.6771,74.0636z"/>
		<path fill="#ffffff" d="M104.2486,104.548c-0.5593-0.0964-13.8166-2.2566-29.2361,6.5615
			c3.6207-9.2388-2.5865-14.3321-12.1826-13.3298c-6.4377,0.672-14.5728,3.5392-23.8921,6.3196
			c-3.6967,1.1025-2.0327,6.6987,1.669,5.5957c8.7575-2.6122,17.0873-5.5079,22.8293-6.1077
			c14.7508-1.5381,0.0898,10.218,4.9514,14.6126c5.0521,4.5678,16.3132-10.8782,34.8665-7.898
			C107.0698,110.9621,108.0421,105.2039,104.2486,104.548z"/>
	</g>
</g>
</svg>
