<?xml version="1.0" encoding="utf-8"?>
<!-- Generator: Adobe Illustrator 18.1.1, SVG Export Plug-In . SVG Version: 6.00 Build 0)  -->
<svg version="1.2" baseProfile="tiny" xmlns="http://www.w3.org/2000/svg" xmlns:xlink="http://www.w3.org/1999/xlink" x="0px"
	 y="0px" width="128px" height="128px" viewBox="0 0 128 128" xml:space="preserve">
<g id="_x31_28px_boxes" display="none">
	<rect display="inline" fill="none" width="128" height="128"/>
</g>
<g id="Production">
	<g>
		<path fill="#ffffff" d="M21.7912,70.7395c2.5618,1.5502,7.4877,3.2067,13.6315,3.2067c21.8536,0,23.9485-20.36,11.7253-25.5436
			c10.1127-5.7324,7.7492-22.1571-9.7712-22.1571c-6.0424,0-11.4843,1.7543-14.1969,3.4929
			c-0.448,0.2872-0.6556,0.8335-0.511,1.3456l2.0888,7.4125c0.2182,0.7728,1.116,1.1207,1.7972,0.7014
			c5.0228-3.0911,13.7235-3.7061,13.7235,0.9252c0,4.3408-7.4136,3.845-10.5163,3.845c-0.6675,0-1.2087,0.541-1.2087,1.2087v7.3452
			c0,0.6676,0.5412,1.2088,1.2087,1.2088c3.0657,0,11.7294-0.7656,11.7294,5.1252c0,6.0078-10.3094,5.4268-16.3984,2.0431
			c-0.686-0.381-1.55-0.0156-1.7544,0.7421l-2.0888,7.7496C21.1097,69.9106,21.3305,70.4607,21.7912,70.7395z"/>
		<path fill="#ffffff" d="M89.3829,73.9462h0.0676c11.0943,0,17.7178-8.9915,17.7178-24.0524
			c0-14.8078-6.5478-23.6483-17.5158-23.6483c-12.5802,0-17.853,11.2893-17.853,23.9245
			C71.8677,62.7207,76.9892,73.9462,89.3829,73.9462z M89.4505,63.7793c-4.5242,0-5.0887-9.1881-5.0583-13.7506
			c0-8.5259,1.8911-13.6159,5.0583-13.6159c4.3423,0,4.9907,8.5307,4.9907,13.6159C94.4413,54.5322,93.9851,63.7793,89.4505,63.7793
			z"/>
		<polygon fill="#ffffff" points="100.5451,98.2519 95.3824,98.2519 95.3824,87.667 90.8824,87.667 90.8824,98.2519 
			85.7199,98.2519 85.7199,87.667 81.2199,87.667 81.2199,98.2519 76.0572,98.2519 76.0572,87.667 71.5572,87.667 71.5572,98.2519 
			66.6884,98.2519 66.6884,22.2481 59.1884,22.2481 59.1884,98.2519 54.3194,98.2519 54.3194,87.667 49.8194,87.667 
			49.8194,98.2519 44.6569,98.2519 44.6569,87.667 40.1569,87.667 40.1569,98.2519 34.9942,98.2519 34.9942,87.667 30.4942,87.667 
			30.4942,98.2519 25.3317,98.2519 25.3317,87.667 20.8317,87.667 20.8454,105.7519 105.0313,105.7519 105.0451,87.667 
			100.5451,87.667 		"/>
	</g>
</g>
</svg>
