<?xml version="1.0" encoding="utf-8"?>
<!-- Generator: Adobe Illustrator 18.1.1, SVG Export Plug-In . SVG Version: 6.00 Build 0)  -->
<svg version="1.2" baseProfile="tiny" xmlns="http://www.w3.org/2000/svg" xmlns:xlink="http://www.w3.org/1999/xlink" x="0px"
	 y="0px" width="128px" height="128px" viewBox="0 0 128 128" xml:space="preserve">
<g id="_x31_28px_boxes">
	<rect fill="none" width="128" height="128"/>
</g>
<g id="Production">
	<g>
		<path fill="#ffffff" d="M109.6389,21.2083H50.5361c-2.1727,0-3.9341,1.7615-3.9341,3.9342v3.9355l59.1028-0.0014l-0.0007,50.5412
			h3.9348c2.1728,0,3.9341-1.7613,3.9341-3.9341V25.1425C113.573,22.9698,111.8117,21.2083,109.6389,21.2083z"/>
		<path fill="#ffffff" d="M96.0139,34.8333H34.4111c-2.1727,0-3.9341,1.7615-3.9341,3.9342v3.9355l61.6028-0.0014l-0.0007,50.5412
			h3.9348c2.1728,0,3.9341-1.7613,3.9341-3.9341V38.7675C99.948,36.5948,98.1867,34.8333,96.0139,34.8333z"/>
		<path fill="#ffffff" d="M82.4638,48.3822H18.3611c-2.1728,0-3.9341,1.7614-3.9341,3.9342v50.5412
			c0,2.1726,1.7613,3.9341,3.9341,3.9341h64.1027c2.1729,0,3.9341-1.7615,3.9341-3.9341V52.3164
			C86.3979,50.1436,84.6367,48.3822,82.4638,48.3822z M78.5298,98.9234H22.2951V56.2503h56.2347V98.9234z"/>
		<path fill="#ffffff" d="M40.5068,93.4574l25.8645-14.9339c0.8314-0.4798,0.8313-1.6849,0-2.1649L40.5068,61.425
			c-0.8314-0.4803-1.875,0.1223-1.875,1.0825v29.8673C38.6318,93.3433,39.6826,93.9337,40.5068,93.4574z"/>
	</g>
</g>
</svg>
