<?xml version="1.0" encoding="utf-8"?>
<!-- Generator: Adobe Illustrator 18.1.1, SVG Export Plug-In . SVG Version: 6.00 Build 0)  -->
<svg version="1.2" baseProfile="tiny" xmlns="http://www.w3.org/2000/svg" xmlns:xlink="http://www.w3.org/1999/xlink" x="0px"
	 y="0px" width="128px" height="128px" viewBox="0 0 128 128" xml:space="preserve">
<g id="box">
	<rect fill="none" width="128" height="128"/>
</g>
<g id="Production">
	<g>
		<path fill="#ffffff" d="M105.8155,23.6498H86.2991c-3.3246-7.6256-13.552-11.1742-22.299-11.1742
			c-8.9479,0-19.0285,3.673-22.2992,11.1742H22.1846c-2.5957,0-4.7,2.1044-4.7,4.7001s2.1043,4.7,4.7,4.7h19.1275l6.5008,27.0793
			c0.4292,1.7875,2.0279,3.0479,3.8664,3.0479h2.6031v8.5109c0,2.5957,2.1044,4.6999,4.7001,4.6999h10.0351
			c2.5957,0,4.7-2.1042,4.7-4.6999v-8.5109h2.5759c1.8372,0,3.4351-1.2585,3.8655-3.0445l6.5276-27.0827h19.1289
			c2.5957,0,4.6999-2.1043,4.6999-4.7S108.4112,23.6498,105.8155,23.6498z"/>
		<path fill="#ffffff" d="M48.622,83.1184L25.7431,65.5851c-1.4729-1.1286-3.4438,0.5986-2.5103,2.2075l9.0954,15.6754
			l-12.3683,4.5349c-1.2686,0.4654-1.5153,2.1563-0.4333,2.9649l26.6877,19.9394c1.5484,1.1575,3.5532-0.7889,2.4029-2.3672
			L37.1033,90.0627l11.0603-3.989C49.4273,85.6179,49.6917,83.9385,48.622,83.1184z"/>
		<path fill="#ffffff" d="M104.0211,82.7734l-9.9929-2.1413c-0.7771-0.167-1.5645,0.2258-1.9006,0.9446l-12.7307,27.2441
			c-0.8237,1.7629,1.5019,3.3065,2.8069,1.865l22.7236-25.1028C105.806,84.6119,105.3035,83.0477,104.0211,82.7734z"/>
		<path fill="#ffffff" d="M68.4022,93.269V80.2976h-8.8047v12.971l-4.6129,9.3208c-0.2387,0.4824-0.2708,1.041-0.0888,1.5476
			l3.6206,10.0771c0.2824,0.7859,1.0279,1.3103,1.8631,1.3103h7.2409c0.8352,0,1.5806-0.5244,1.8631-1.3103l3.6203-10.0771
			c0.1819-0.5066,0.1499-1.0652-0.0888-1.5476L68.4022,93.269z"/>
	</g>
</g>
</svg>
