<?xml version="1.0" encoding="utf-8"?>
<!-- Generator: Adobe Illustrator 19.1.0, SVG Export Plug-In . SVG Version: 6.00 Build 0)  -->
<svg version="1.2" baseProfile="tiny" xmlns="http://www.w3.org/2000/svg" xmlns:xlink="http://www.w3.org/1999/xlink" x="0px"
	 y="0px" width="64px" height="64px" viewBox="0 0 64 64" xml:space="preserve">
<g id="box">
	<rect fill="none" width="64" height="64"/>
</g>
<g id="Production">
	<path fill="#ffffff" d="M61.6836,39.0513L48,43.6125v-5.8916l14.3164-4.7722l-0.6328-1.8975L48,35.6125V24c0-2.2056-1.7944-4-4-4
		H30v-2.2791l14.3164-4.7722l-0.6328-1.8975L30,15.6125V11c0-2.2056-1.7944-4-4-4H9c-2.2056,0-4,1.7944-4,4v42
		c0,2.2056,1.7944,4,4,4h35c2.2056,0,4-1.7944,4-4v-7.2791l14.3164-4.7722L61.6836,39.0513z M9,9h17c1.103,0,2,0.897,2,2v11h16
		c1.103,0,2,0.897,2,2v6H7V11C7,9.897,7.897,9,9,9z M20,32h13v1c0,1.103-0.897,2-2,2h-9c-1.103,0-2-0.897-2-2V32z M44,55H9
		c-1.103,0-2-0.897-2-2V32h11v1c0,2.2056,1.7944,4,4,4h9c2.2056,0,4-1.7944,4-4v-1h11v21C46,54.103,45.103,55,44,55z"/>
</g>
</svg>

