<?xml version="1.0" encoding="utf-8"?>
<!-- Generator: Adobe Illustrator 18.1.1, SVG Export Plug-In . SVG Version: 6.00 Build 0)  -->
<svg version="1.2" baseProfile="tiny" xmlns="http://www.w3.org/2000/svg" xmlns:xlink="http://www.w3.org/1999/xlink" x="0px"
	 y="0px" width="128px" height="128px" viewBox="0 0 128 128" xml:space="preserve">
<g id="_x31_28px_boxes">
	<rect fill="none" width="128" height="128"/>
</g>
<g id="Production">
	<g>
		<path fill="#ffffff" d="M99.297,10.7861C96.7141,0.0518,76.3006-4.5141,65.8614,5.7803
			c10.593,9.2492,8.4419,22.3441,7.5044,36.8389c5.8061-0.5999,9.9551-1.8423,9.2341-12.2483
			c-0.1165-1.6831-0.2087-3.0126,0.3363-3.8939C85.0855,23.0016,102.6854,24.8756,99.297,10.7861z"/>
		<path fill="#ffffff" d="M82.0962,57.0409C88.679,65.4881,79.1789,75.44,64.7584,75.44c-14.3283,0-23.7986-9.825-17.4589-18.2455
			c-9.1882,4.0092-13.225,11.5036-12.3856,20.5602c1.645,17.8026,23.3998,26.6411,25.3944,28.1091
			c9.0466,6.6569-8.2548,12.4386,3.4419,21.7689c1.3174,1.049,3.5533-0.2851,2.3965-2.3489
			c-2.7291-3.7415-1.8688-4.2772,0.8075-7.0745c3.3778-3.5764,5.5605-7.7672,4.1943-13.3662
			c1.1962-0.4048,22.1208-10.1489,23.6909-27.0879C95.6929,68.5453,91.5049,60.9966,82.0962,57.0409z"/>
		<path fill="#ffffff" d="M57.2007,5.3529c-12.1713-5.98-26.2986,0.6708-28.4744,10.3067
			c-2.2509,9.9646,4.2393,13.4167,10.8846,15.4791c3.6369,1.129,3.7112,1.9217,3.9877,4.8712
			c1.5263,16.2701,14.557,9.5025,17.6459,24.7433c0.8859,4.3692,7.3803,3.6021,7.2736-0.8189
			C67.8113,30.7289,76.1577,14.6669,57.2007,5.3529z"/>
	</g>
</g>
</svg>

