<?xml version="1.0" encoding="utf-8"?>

<svg version="1.2" baseProfile="tiny" xmlns="http://www.w3.org/2000/svg" xmlns:xlink="http://www.w3.org/1999/xlink" x="0px"
	 y="0px" width="64px" height="64px" viewBox="0 0 64 64" xml:space="preserve">

<g id="Production">
	<g>
		<path fill="#ffffff" d="M50,35.6787v17.0845l-12-2.5718V35.6787c-0.7345-1.104-1.3171-1.9499-2-2.9499v17.5168l-12,3.4286V20.7543
			l6.0281-1.7223c-0.0526-1.0093-0.028-1.3758,0.0254-2.0873l-7.0876,2.025L8,15.7632v37.0454l15.0342,3.2217l14-4L52,55.2368
			v-22.508C51.317,33.7289,50.7345,34.5747,50,35.6787z M10,18.2368l12,2.5718v32.9541l-12-2.5714V18.2368z"/>
		<path fill="#ffffff" d="M44,6c-6.6755,0-12,5.4717-12,12c0,4.3424,1.6316,7.5442,4,11.1537c2.6238,3.9989,3.9195,5.4262,8,12.4703
			c4.0783-7.0404,5.3704-8.4626,8-12.4703c2.3999-3.6575,4-6.8091,4-11.1537C56,11.3833,50.6172,6,44,6z M44,37.6636
			c-3.3502-5.5584-6.1412-8.9545-8-12.3837c-1.6121-2.9741-2.4776-6.3348-1.7329-9.5391C35.2952,11.3128,39.2642,8,44,8
			c5.5137,0,10,4.4858,10,10c0,2.7484-0.7466,4.9675-2,7.2799C50.135,28.7205,47.3575,32.0931,44,37.6636z"/>
		<path fill="#ffffff" d="M44,13c-2.8442,0-5,2.4055-5,5c0,2.7568,2.2432,5,5,5c2.9314,0,5.2247-2.5545,4.9534-5.4615
			C48.7163,15.0005,46.5989,13,44,13z M44,21c-2.5905,0-3.9554-3.0733-2.2207-4.9988C42.3289,15.3912,43.1162,15,44,15
			c2.1134,0,3.5635,2.1763,2.7789,4.1184C46.3342,20.2193,45.2584,21,44,21z"/>
	</g>
</g>
</svg>
