<?xml version="1.0" encoding="utf-8"?>
<!-- Generator: Adobe Illustrator 17.1.0, SVG Export Plug-In . SVG Version: 6.00 Build 0)  -->
<!DOCTYPE svg [
	<!ENTITY ns_flows "http://ns.adobe.com/Flows/1.0/">
	<!ENTITY ns_extend "http://ns.adobe.com/Extensibility/1.0/">
	<!ENTITY ns_ai "http://ns.adobe.com/AdobeIllustrator/10.0/">
	<!ENTITY ns_graphs "http://ns.adobe.com/Graphs/1.0/">
]>
<svg version="1.2" baseProfile="tiny" xmlns:x="&ns_extend;" xmlns:i="&ns_ai;" xmlns:graph="&ns_graphs;"
	 xmlns="http://www.w3.org/2000/svg" xmlns:xlink="http://www.w3.org/1999/xlink" xmlns:a="http://ns.adobe.com/AdobeSVGViewerExtensions/3.0/"
	 x="0px" y="0px" width="128px" height="128px" viewBox="0 0 128 128" xml:space="preserve">
<g id="_x31_28px_boxes">
	<rect fill="none" width="128" height="128"/>
</g>
<g id="Production">
	<g>
		<path fill="#ffffff" d="M117.903,55.9661h-7.68c1.9737-0.992,3.2096-2.4063,3.2096-3.9771c0-3.0004-4.5042-5.4326-10.0608-5.4326
			c-5.5562,0-10.0606,2.4322-10.0606,5.4326c0,1.5708,1.2359,2.9851,3.2095,3.9771H72.96c-2.0296,0-3.6749,1.6455-3.6749,3.675
			v10.6437h-53.792c-1.7953,0-3.3279,1.2972-3.6245,3.068l-5.3953,32.2004c-0.3754,2.2404,1.3546,4.2822,3.6244,4.2822h12.1372
			c-0.1848-9.1453,7.2292-16.4965,16.162-16.4965c8.995,0,16.346,7.3896,16.1621,16.4965c8.4714,0,12.7574,0,22.8064,0
			c-0.1853-9.1749,7.2572-16.4965,16.1621-16.4965c9.0939,0,16.3611,7.5083,16.162,16.4965h8.2135
			c2.0296,0,3.6751-1.6455,3.6751-3.675c0-9.6721,0-35.2533,0-46.5193C121.5781,57.6116,119.9326,55.9661,117.903,55.9661z
			 M94.7924,78.2439H76.6352V63.3162h18.1572V78.2439z M114.228,78.2439h-13.3084V63.3162h13.3084V78.2439z"/>
		<path fill="#ffffff" d="M38.3969,97.7488c-6.5179,0-11.7602,5.3158-11.7602,11.7605c0,6.4839,5.2756,11.7595,11.7602,11.7595
			c6.4815,0,11.7605-5.2755,11.7605-11.7595C50.1574,103.0231,44.88,97.7488,38.3969,97.7488z M38.3969,114.0395
			c-2.5397,0-4.5304-2.0854-4.5304-4.5302c0-2.4983,2.0321-4.531,4.5304-4.531s4.5305,2.0327,4.5305,4.531
			C42.9274,111.9543,40.9368,114.0395,38.3969,114.0395z"/>
		<path fill="#ffffff" d="M22.1052,64.792c0.4994,0.3176,1.071,0.4787,1.6449,0.4787c0.0273,0,28.8038-0.0043,28.8038-0.0043
			l-0.0585-13.0528l53.8725-25.0615c0.0368-0.0172,0.0737-0.0352,0.1098-0.0537c3.6822-1.7803,6.0553-5.5553,6.0553-9.6479
			c0-7.6404-7.9008-13.0245-15.2077-9.7339L22.4548,41.4937c-1.1,0.496-1.8062,1.5917-1.804,2.7985l0.0357,17.9212
			C20.6884,63.2585,21.2234,64.2306,22.1052,64.792z M101.82,12.8645c2.5287,0,4.5858,2.0574,4.5858,4.586
			c0,1.7675-1.0346,3.3972-2.6361,4.1512c-0.0232,0.0108-0.0461,0.0221-0.0691,0.0336l-10.1383,4.7163L93.5401,16.146
			C100.4271,13.0389,100.5187,12.8645,101.82,12.8645z M87.4191,18.9073l0.0225,10.2917l-10.569,4.9167l-0.0224-10.4404
			L87.4191,18.9073z M70.7293,26.4368l0.0226,10.5264l-10.569,4.9167l-0.0227-10.6751L70.7293,26.4368z M54.0391,33.9662
			l0.023,10.7611l-10.5689,4.9165l-0.0227-10.9094L54.0391,33.9662z M37.3493,41.4958l0.023,10.9953L26.804,57.4077l-0.0221-11.1445
			L37.3493,41.4958z"/>
		<path fill="#ffffff" d="M93.5275,97.7488c-6.5168,0-11.7602,5.3147-11.7602,11.7605c0,6.4839,5.2756,11.7595,11.7602,11.7595
			c6.5071,0,11.7605-5.3024,11.7605-11.7595C105.288,103.0275,100.0146,97.7488,93.5275,97.7488z M93.5275,114.0395
			c-2.5402,0-4.5302-2.0849-4.5302-4.5302c0-2.4983,2.0318-4.531,4.5302-4.531c2.498,0,4.5304,2.0327,4.5304,4.531
			C98.0579,111.9545,96.0673,114.0395,93.5275,114.0395z"/>
	</g>
</g>
</svg>
