<?xml version="1.0" encoding="utf-8"?>
<!-- Generator: Adobe Illustrator 18.1.1, SVG Export Plug-In . SVG Version: 6.00 Build 0)  -->
<svg version="1.2" baseProfile="tiny" xmlns="http://www.w3.org/2000/svg" xmlns:xlink="http://www.w3.org/1999/xlink" x="0px"
	 y="0px" width="128px" height="128px" viewBox="0 0 128 128" xml:space="preserve">
<g id="_x31_28px_boxes" display="none">
	<rect display="inline" fill="none" width="128" height="128"/>
</g>
<g id="Production">
	<g>
		<path fill="#ffffff" d="M26.5643,87.0683c5.3805-0.5077,8.9292-4.925,8.7151-9.7957c-0.2699-6.1516-4.9469-6.7986-5.2389-9.8418
			c2.2777-1.0394,3.8312-3.1079,3.8312-5.4913v-2.4243c0-2.7502-2.0674-5.0808-4.9299-5.8952V19.9113l37.5159,44.951v7.5425
			c0,1.2687,1.0284,2.2973,2.2971,2.2973h33.0575c1.2686,0,2.2971-1.0286,2.2971-2.2973V46.8755
			c0-1.2687-1.0285-2.2971-2.2971-2.2971h-4.1786l-11.99-23.4768c-0.5261-1.03-1.6846-1.7339-2.5462-1.8981
			C82.717,19.1309,29.4762,8.9704,29.089,8.9811c-2.5639-0.3597-4.8153,1.712-4.6436,4.3175
			c-0.0007,0.0244-0.0036,40.3275-0.0036,40.3275c-2.8517,0.8197-4.9093,3.1457-4.9093,5.8891v2.4243
			c0,2.4098,1.762,4.683,3.9074,5.525c0.2961,5.7963,4.1234,7.4252,4.9567,8.9226c1.0294,1.849-0.2025,4.4323-3.0162,4.4424
			c-3.4417,0.0111-3.6948-2.2264-4.2505-5.1255c-0.3819-1.9904-3.7378-2.9403-4.4826,0.7471
			C15.4396,82.435,19.7469,87.7109,26.5643,87.0683z M75.2012,44.5784l7.4758-14.6378l7.4758,14.6378H75.2012z M67.9524,44.1239
			l-31.3825-29.193l42.1917,8.0282L67.9524,44.1239z"/>
		<path fill="#ffffff" d="M55.2997,119.0597c0,0,6.4641,0,6.4642-0.0012c1.2802-0.0012,2.3178-1.0388,2.3192-2.3215
			c0-0.0081,0-11.6763,0-11.6763l18.0035-10.4736l18.3521,10.5002c0,0-0.0024,11.646,0,11.6497c0,1.2822,1.047,2.3217,2.333,2.3227
			c0,0,6.464,0,6.4642-0.0012c1.2802-0.0012,2.3177-1.0388,2.3193-2.3215c0-0.0818,0-14.8682,0-14.8682
			c0-1.3176-0.6183-2.7681-1.4628-3.7471c-0.2449-0.2837-14.2981-17.2229-14.3102-17.2373
			c-1.0547-1.2702-2.6201-2.0051-4.2711-2.0051H73.0094c-1.651,0-3.2164,0.7349-4.2711,2.0051
			c-14.3556,17.2852-14.8328,17.6479-15.4219,19.1909c-0.2114,0.5633-0.342,1.1883-0.342,1.792c0,0,0.0002,14.8418,0,14.8697
			C52.9744,118.0192,54.0138,119.0587,55.2997,119.0597z"/>
	</g>
</g>
</svg>
