<?xml version="1.0" encoding="utf-8"?>
<!-- Generator: Adobe Illustrator 18.1.1, SVG Export Plug-In . SVG Version: 6.00 Build 0)  -->
<svg version="1.2" baseProfile="tiny" xmlns="http://www.w3.org/2000/svg" xmlns:xlink="http://www.w3.org/1999/xlink" x="0px"
	 y="0px" width="128px" height="128px" viewBox="0 0 128 128" xml:space="preserve">
<g id="_x31_28px_boxes">
	<rect fill="none" width="128" height="128"/>
</g>
<g id="Production">
	<g>
		<path fill="#ffffff" d="M91.4816,38.9941c-0.9029,4.1904-2.3338,7.9579-3.5962,10.7722
			c20.5837,1.0313,12.0181,31.2709-5.8797,24.315c-5.915-1.6414-14.0429-7.663-17.8283-12.9414
			c-2.254-3.5498,1.1207-5.8898,3.2934-2.6934c2.5308,3.8396,8.0679,8.443,13.7417,10.8792
			c-0.343-4.0388-1.4385-7.7105-3.2744-10.9404c0.0967-0.1641,3.0586-4.3991,5.1045-8.4146
			c0.0183-0.0022,0.0357-0.0036,0.054-0.0059c23.4615-47.4422-45.7584-54.374-43.0657-15.5044
			c2.9001-0.0642,7.0341,0.0965,11.4104,1.0816c-3.2095-21.9463,32.7765-20.0464,23.8049,4.6929
			c-1.5727,0.4822-6.1509,2.185-11.3015,4.7508C23.7061,24.9403,9.6257,57.4279,20.8734,75.125
			c5.1099,8.0408,14.5857,11.7625,23.5156,10.622c-0.75-2.6271-1.6271-6.4796-1.9475-10.9184
			C31.7423,75.792,27.461,66.499,28.2369,60.1364c0.8368-8.6139,7.8752-11.2316,16.6099-10.1657
			c2.0459,4.0155,5.0078,8.2505,5.1045,8.4146c-6.4661,11.3755-2.4756,26.5541,2.3078,35.6137
			c2.5062,5.1607,2.6111,8.7925,2.6111,12.2066c0,2.5215,0,9.1514,0,12.4463h18.149c0-3.2949,0-9.9248,0-12.4463
			c0-10.5916,3.0847-10.7903,6.2822-21.3575c9.3303,2.8824,21.5439-0.0136,27.7148-9.7231
			C115.2058,62.238,110.4549,41.8121,91.4816,38.9941z M63.9447,93.2446c-1.0706-2.95-4.208-8.5234-5.2634-13.3544
			c1.8774-1.2364,3.6328-2.5777,5.2634-3.9639c1.6306,1.3862,3.386,2.7275,5.2634,3.9639
			C68.0282,85.1797,64.7992,90.6587,63.9447,93.2446z"/>
	</g>
</g>
</svg>

