<?xml version="1.0" encoding="utf-8"?>
<!-- Generator: Adobe Illustrator 18.1.1, SVG Export Plug-In . SVG Version: 6.00 Build 0)  -->
<svg version="1.2" baseProfile="tiny" xmlns="http://www.w3.org/2000/svg" xmlns:xlink="http://www.w3.org/1999/xlink" x="0px"
	 y="0px" width="128px" height="128px" viewBox="0 0 128 128" xml:space="preserve">
<g id="box">
	<rect fill="none" width="128" height="128"/>
</g>
<g id="Production">
	<g>
		<path fill="#ffffff" d="M81.7794,108.3887c0,1.4104,1.1521,2.5461,2.5511,2.5461h7.664c1.3982,0,2.5412-1.1422,2.5412-2.5461
			v-7.9734H81.7794V108.3887z"/>
		<path fill="#ffffff" d="M33.4194,108.3887c0,1.3478,1.1116,2.5461,2.5513,2.5461h7.664c1.4216,0,2.5513-1.1681,2.5513-2.5461
			v-7.9734l-12.7666-0.0078V108.3887z"/>
		<path fill="#ffffff" d="M39.1359,67.156c0.8537-2.8383,3.2219-5.0028,6.7815-6.1049c4.3884-1.3593,31.7317-1.3587,36.1201,0
			c3.9111,1.2109,5.9508,3.6615,6.74,6.1049h8.1659c0.5735,0,1.1112,0.0407,1.6209,0.1107l0.0003-35.7522
			c0-7.9801-15.1305-14.4493-34.5643-14.4493c-19.434,0-34.5644,6.4692-34.5644,14.4493V67.261
			c0.4965-0.0663,1.0192-0.105,1.576-0.105H39.1359z M83.431,25.2246c1.836,0,3.3243,1.4887,3.3243,3.3242
			c0,1.836-1.4883,3.3242-3.3243,3.3242c-1.8361,0-3.3242-1.4882-3.3242-3.3242C80.1068,26.7133,81.5949,25.2246,83.431,25.2246z
			 M55.2023,25.6649h17.5639c1.5864,0,2.8738,1.2902,2.8738,2.8865c0,1.5814-1.2874,2.8815-2.8738,2.8815H55.2023
			c-1.5941,0-2.8813-1.3001-2.8813-2.8815C52.321,26.9551,53.6082,25.6649,55.2023,25.6649z M44.5239,25.2246
			c1.8362,0,3.3242,1.4887,3.3242,3.3242c0,1.836-1.488,3.3242-3.3242,3.3242c-1.8357,0-3.3242-1.4882-3.3242-3.3242
			C41.1997,26.7133,42.6882,25.2246,44.5239,25.2246z M35.5889,39.8412c0-1.6411,1.3304-2.9717,2.9716-2.9717h50.8339
			c1.6415,0,2.9717,1.3306,2.9717,2.9717v12.0536c0,1.6412-1.3302,2.9717-2.9717,2.9717H38.5605
			c-1.6412,0-2.9716-1.3305-2.9716-2.9717V39.8412z"/>
		<path fill="#ffffff" d="M96.9434,72.1093H86.697c-1.3677,0-2.4765-1.1088-2.4765-2.4767c0-1.7038-1.3637-3.1431-3.6481-3.8506
			c-3.4117-1.0562-29.7774-1.0562-33.1898,0c-3.648,1.1297-3.648,3.1777-3.648,3.8506c0,1.3679-1.1089,2.4767-2.4764,2.4767H31.0119
			c-2.6453,0-3.6727,1.4282-4.0713,2.5593v17.186c0,2.1884,1.7738,3.9622,3.9622,3.9622h66.1946
			c2.1883,0,3.9621-1.7738,3.9621-3.9622V74.8037C100.6957,73.6549,99.695,72.1093,96.9434,72.1093z M43.791,84.4258
			c0,1.3751-1.115,2.49-2.4902,2.49H36.268c-1.3753,0-2.49-1.1149-2.49-2.49v-5.0332c0-1.3751,1.1147-2.4899,2.49-2.4899h5.0328
			c1.3752,0,2.4902,1.1148,2.4902,2.4899V84.4258z M76.7374,87.2142h-25.52c-0.9473,0-1.7153-0.7678-1.7153-1.7154
			c0-0.9475,0.768-1.7154,1.7153-1.7154h25.52c0.9475,0,1.7155,0.7679,1.7155,1.7154
			C78.4529,86.4464,77.6849,87.2142,76.7374,87.2142z M76.7374,80.4828h-25.52c-0.9473,0-1.7153-0.768-1.7153-1.7155
			c0-0.9475,0.768-1.7154,1.7153-1.7154h25.52c0.9475,0,1.7155,0.7679,1.7155,1.7154
			C78.4529,79.7148,77.6849,80.4828,76.7374,80.4828z M76.7374,73.7512h-25.52c-0.9473,0-1.7153-0.7678-1.7153-1.7153
			c0-0.9476,0.768-1.7155,1.7153-1.7155h25.52c0.9475,0,1.7155,0.7679,1.7155,1.7155
			C78.4529,72.9834,77.6849,73.7512,76.7374,73.7512z M94.1772,84.4258c0,1.3751-1.1149,2.49-2.4902,2.49h-5.0328
			c-1.375,0-2.4899-1.1149-2.4899-2.49v-5.0332c0-1.3751,1.1149-2.4899,2.4899-2.4899h5.0328c1.3753,0,2.4902,1.1148,2.4902,2.4899
			V84.4258z"/>
	</g>
</g>
</svg>
