<?xml version="1.0" encoding="utf-8"?>
<!-- Generator: Adobe Illustrator 18.1.1, SVG Export Plug-In . SVG Version: 6.00 Build 0)  -->
<svg version="1.2" baseProfile="tiny" xmlns="http://www.w3.org/2000/svg" xmlns:xlink="http://www.w3.org/1999/xlink" x="0px"
	 y="0px" width="64px" height="64px" viewBox="0 0 64 64" xml:space="preserve">

<g id="Production">
	<g>
		<path fill="#ffffff" d="M30.9305,45c0.0913,0.7274,0.093,1.2536,0.0015,1.9901l13.1365,0.0043
			c-0.0918-0.7349-0.091-1.2626,0.0009-1.9944H30.9305z"/>
		<path fill="#ffffff" d="M61.3149,20.376C61.0225,18.9995,59.7881,18,58.3804,18H48c-1.6543,0-3,1.3457-3,3v15h-2V7
			C27.7298,7,16.2445,7,0,7v2c8.3365,0-20.997,0,41,0v27H8v-4H6c0,12.0464,0-0.8887,0,11.8613l9.0397,1.3558
			c0.0665-0.6812,0.2259-1.3339,0.453-1.9545L8,42.1387V38h35h4V21c0-0.5513,0.4487-1,1-1h10.3804
			c0.4692,0,0.8809,0.333,0.9785,0.792L59.8282,23H51v11h11v10c0,0.5513-0.4487,1-1,1h-1.0695
			c0.0924,0.7364,0.0925,1.2633,0.0001,1.9996L61,47c1.6543,0,3-1.3457,3-3V33.1113L61.3149,20.376z M53,25h7.2534l1.488,7H53V25z"
			/>
		<path fill="#ffffff" d="M23,40c-3.3086,0-6,2.6914-6,6s2.6914,6,6,6s6-2.6914,6-6S26.3086,40,23,40z M23,50
			c-2.2056,0-4-1.7944-4-4s1.7944-4,4-4s4,1.7944,4,4S25.2056,50,23,50z"/>
		<path fill="#ffffff" d="M52,40c-3.3086,0-6,2.6914-6,6s2.6914,6,6,6s6-2.6914,6-6S55.3086,40,52,40z M52,50
			c-2.2056,0-4-1.7944-4-4s1.7944-4,4-4s4,1.7944,4,4S54.2056,50,52,50z"/>
		<polygon fill="#ffffff" points="6,11 6,15 2,15 2,17 6,17 8,17 18,17 18,15 8,15 8,11 		"/>
		<polygon fill="#ffffff" points="8,30 14,30 14,28 8,28 8,19 6,19 6,28 0,28 0,30 6,30 		"/>
	</g>
</g>
</svg>
