<?xml version="1.0" encoding="utf-8"?>
<!-- Generator: Adobe Illustrator 18.1.1, SVG Export Plug-In . SVG Version: 6.00 Build 0)  -->
<svg version="1.2" baseProfile="tiny" xmlns="http://www.w3.org/2000/svg" xmlns:xlink="http://www.w3.org/1999/xlink" x="0px"
	 y="0px" width="128px" height="128px" viewBox="0 0 128 128" xml:space="preserve">
<g id="box">
	<rect fill="none" width="128" height="128"/>
</g>
<g id="Production">
	<g>
		<rect x="44.2816" y="31.5045" fill="#ffffff" width="39.2437" height="6.1456"/>
		<rect x="44.2816" y="42.368" fill="#ffffff" width="39.2437" height="6.1456"/>
		<rect x="44.2816" y="53.2316" fill="#ffffff" width="21.8123" height="6.1457"/>
		<path fill="#ffffff" d="M96.8676,12.6284H31.1327c-1.6643,0-3.0137,1.3493-3.0137,3.0136v85.3398
			c0,1.6638,1.3494,3.0136,3.0137,3.0136h13.2539v9.1734c0,2.2505,2.4011,2.5769,3.4935,1.7873l4.5421-3.2773l4.5196,3.2749
			c1.4154,1.0227,3.4978,0.0693,3.4978-1.7849V94.233c0.4499-0.1758,3.4131-0.833,3.4131-0.833
			c1.8396-0.3792,2.8564-2.1585,2.2683-3.9295c-1.4798-4.4558-1.5227-6.0105,0-10.5906c0.5925-1.7822-0.5977-3.5844-2.2683-3.9284
			c-5.3616-1.104-6.4418-2.0183-10.2879-5.5415c-1.3845-1.2683-3.6166-0.699-4.4483,0.51
			c-2.1889,3.1814-3.6235,4.1008-8.1441,5.0315c-1.8391,0.3786-2.763,2.4355-2.2677,3.9284c1.5026,4.5286,1.5028,6.7657,0,10.5906
			c-0.5486,1.3963,0.4286,3.5503,2.2677,3.9295c0,0,2.9641,0.6572,3.4142,0.833v3.7348h-10.24v-79.312h59.7068
			c0,0-0.0044,50.2481-0.0073,50.294c-0.3335,5.5232-4.3396,6.4006-9.4578,6.9467C82.1735,76.1324,79.5052,76.2,75.9574,76.2
			c-2.0591,0-3.4619,1.2625-3.3564,3.1614c0.0854,1.5571,0.1462,3.3096,0.1384,5.0908c-0.0217,4.8667-0.5476,9.9622-2.5596,11.8528
			c-1.9612,1.843-2.7241,1.5496-4.3313,1.5989v6.0425c0,0,1.9234-0.0162,2.6072-0.0162c2.1013,0,4.133-0.7175,6.0486-1.8198
			c2.7072-1.5569,19.4341-19.4199,21.3886-21.6706c1.9505-2.2456,3.9781-5.4478,3.9881-13.2278v-0.001v-0.0524V15.642
			C99.881,13.9777,98.5316,12.6284,96.8676,12.6284z M52.4125,78.1053c4.1548,0,6.071,3.6221,6.071,6.0701
			c0,2.757-2.1869,6.0703-6.071,6.0703c-2.6333,0-6.0701-2.0608-6.0701-6.0703C46.3424,81.8629,48.1301,78.1053,52.4125,78.1053z"/>
	</g>
</g>
</svg>
