<?xml version="1.0" encoding="utf-8"?>
<!-- Generator: Adobe Illustrator 18.1.1, SVG Export Plug-In . SVG Version: 6.00 Build 0)  -->
<svg version="1.2" baseProfile="tiny" xmlns="http://www.w3.org/2000/svg" xmlns:xlink="http://www.w3.org/1999/xlink" x="0px"
	 y="0px" width="128px" height="128px" viewBox="0 0 128 128" xml:space="preserve">
<g id="box">
	<rect fill="none" width="128" height="128"/>
</g>
<g id="Production">
	<g>
		<path fill="#ffffff" d="M29.0564,72.6467h32.0364v5.8199h6.1928v-5.8199h32.0389v5.8199h6.1958v-8.9283
			c0-1.6734-1.3413-3.0901-3.095-3.0901H67.2856v-5.8728h-6.1928v5.8728H25.9585c-1.6966,0-3.103,1.3709-3.103,3.0901v8.9283h6.2009
			V72.6467z"/>
		<path fill="#ffffff" d="M44.3364,55.9277h39.6922c1.8121,0,3.299-1.4624,3.299-3.2885V25.5474
			c0-1.7919-1.4537-3.3018-3.299-3.3018H44.3364c-1.8329,0-3.2988,1.4991-3.2988,3.3018v27.0918
			C41.0376,54.4063,42.4809,55.9277,44.3364,55.9277z"/>
		<path fill="#ffffff" d="M76.3542,83.1228H52.0134c-1.7984,0-3.2988,1.4642-3.2988,3.3015v16.0342
			c0,1.8233,1.4908,3.2881,3.2988,3.2881h24.3408c1.8719,0,3.2989-1.5098,3.2989-3.2881V86.4243
			C79.6531,84.6191,78.184,83.1228,76.3542,83.1228z"/>
		<path fill="#ffffff" d="M114.2739,83.1228H89.9333c-1.8144,0-3.3044,1.4855-3.3044,3.2935v16.0422
			c0,1.7702,1.4574,3.2959,3.3044,3.2959h24.3406c1.782,0,3.2964-1.4594,3.2964-3.2959V86.4163
			C117.5703,84.6014,116.0743,83.1228,114.2739,83.1228z"/>
		<path fill="#ffffff" d="M38.0667,83.1228H13.7231c-1.8009,0-3.2934,1.4769-3.2934,3.2935v16.0422
			c0,1.8177,1.4947,3.2959,3.2934,3.2959H38.064c1.786,0,3.2937-1.4543,3.2937-3.2959V86.4163
			C41.3577,84.5576,39.834,83.1228,38.0667,83.1228z"/>
	</g>
</g>
</svg>
