<?xml version="1.0" encoding="utf-8"?>

<svg version="1.2" baseProfile="tiny" xmlns="http://www.w3.org/2000/svg" xmlns:xlink="http://www.w3.org/1999/xlink" x="0px"
	 y="0px" width="128px" height="128px" viewBox="0 0 128 128" xml:space="preserve">
<g id="_x31_28px_boxes">
	<rect fill="none" width="128" height="128"/>
</g>
<g id="Production">
	<g>
		<path fill="#ffffff" d="M109.5123,36H54c0,19.2096,0-2.7691,0,16h3l1,3h1l0.6379-4.095l2.5729-1.785L63,46l4-1l0.5919-1h26.0748
			c-0.9271,2.7812-0.5742,1.7226-1.6667,5l2,1h2l2-4h3l3,1l1,2v4.1475h-1.375L100.5,50l-7.2916,2.3644l-4.1667,4.5578L89,62.879
			l3,2.9193c5.2,1.1678,3.7928,0.9732,6.4167,0.9732L100,69.3564v6.7512l-1,2.2504v2.2504l1.2709,3.3756l2.3125,2.2504H105V97
			H31.3144c-4.8482,0-8.7951-3.9617-8.7951-8.8107c0-4.8499,3.9469-8.8059,8.7951-8.8059c4.7252,0,7.926,3.0731,10.5488,6.7032
			C43.892,88.8939,47,87.7255,47,84.7242c0,0,0-48.6465,0-48.6589c-2-7.5712-8.4986-13.0469-16.2886-13.0469
			C21.4628,23.0184,14,30.5425,14,39.7932c0,0,0,48.2181,0,48.3806C14,97.4152,22.0551,105,31.3144,105h78.1979
			c2.2015,0,3.4877-1.8393,3.4877-4.0437c0-44.6484,0-16.3186,0-61.2004C113,37.5527,111.7138,36,109.5123,36z"/>
		<path fill="#ffffff" d="M57.5244,62.55l3.3999,0.85l-2.3891,2.805l0.2757,2.295l2.6648,3.57l3.2487,2.295L62,83.8v4.08L65.3351,94
			h3.9514l-3.4-3.06c1.3888-3.747,0.5337-2.126,3.9513-7.225l3.7676-1.445c4.1902-5.0999,3.2536-3.743,4.4108-6.205l2.8487-0.595
			l2.0216-2.21l-0.0919-2.465L85,68.61L82.0594,66h-5.6972l-1.1027-3l-4.8703-3h-5.5135l-3.8595,1.19L57.8,60.51
			c-1.9185-2.5575-1.1847-1.68-3.2162-3.8462L54,56.7385v3.2763l0.8595,0.3252L57.5244,62.55z"/>
		<polygon fill="#ffffff" points="79,52 78,49 76,49 75,50 76,52 		"/>
	</g>
</g>
</svg>
