<?xml version="1.0" encoding="utf-8"?>

<svg version="1.2" baseProfile="tiny" xmlns="http://www.w3.org/2000/svg" xmlns:xlink="http://www.w3.org/1999/xlink" x="0px"
	 y="0px" width="64px" height="64px" viewBox="0 0 64 64" xml:space="preserve">

<g id="Production">
	<g>
		<polygon fill="#ffffff" points="48.0891,34.2023 56.668,39.4346 31.9482,55.8008 7.2275,39.4346 15.8068,34.2023 13.9357,33.001 
			3.501,39.3652 31.9482,58.1992 60.3945,39.3652 49.9602,33.0011 		"/>
		<path fill="#ffffff" d="M31.9482,42.1885c8.5016-5.4582,20.0197-12.853,28.5234-18.3125L31.9482,7.853L3.4238,23.876
			C17.789,33.0984,13.1606,30.127,31.9482,42.1885z M56.5908,23.9902c-11.4023,7.3206-6.1116,3.9238-24.6426,15.8213
			c-14.1857-9.1074-8.8073-5.6544-24.6436-15.8213L31.9482,10.147L56.5908,23.9902z"/>
	</g>
</g>
</svg>
