<?xml version="1.0" encoding="utf-8"?>
<!-- Generator: Adobe Illustrator 18.1.1, SVG Export Plug-In . SVG Version: 6.00 Build 0)  -->
<svg version="1.2" baseProfile="tiny" xmlns="http://www.w3.org/2000/svg" xmlns:xlink="http://www.w3.org/1999/xlink" x="0px"
	 y="0px" width="128px" height="128px" viewBox="0 0 128 128" xml:space="preserve">
<g id="box">
	<rect fill="none" width="128" height="128"/>
</g>
<g id="Production">
	<g>
		<path fill="#ffffff" d="M78.6638,55.984c0.9-0.9004,1.2604-1.8901,1.2554-3.2407c-0.0039-1.0994-0.0042-2.5803-0.0022-4.2505
			l7.8519-0.0015l0.0005-12.9299h-7.8162c0.0077-2.1274,0.0132-3.6306,0.0124-3.8833c-0.0023-1.0349-0.3683-1.8342-1.1779-2.6438
			c-0.81-0.8096-12.7835-12.783-12.7835-12.783c-5.9864-5.9873-12.0314-3.2314-16.127,0.8628L19.5811,47.4108
			c-1.3009,1.3012-1.3011,3.4109,0.0001,4.7126l29.1153,29.1148c1.3017,1.302,3.4114,1.302,4.7124,0.0007
			C53.4089,81.2389,77.7635,56.8829,78.6638,55.984z M67.5592,35.2902L57.4181,25.15c-1.3999-1.4006-1.3999-3.6714,0.0001-5.071
			c1.4005-1.4007,3.6699-1.3999,5.0706,0.0005l10.1406,10.1411c1.4004,1.3999,1.4004,3.6692,0.0001,5.0701
			C71.2291,36.6908,68.9596,36.6915,67.5592,35.2902z"/>
		<path fill="#ffffff" d="M104.9303,82.6576c-2.9898-4.4059-8.2659-10.1363-14.5294-21.3164c-0.5602-1-0.8689-1.8494-2.1907-1.8494
			v0.0003l-0.001-0.0003c-0.6302,0.0081-1.2647,0.2588-1.6435,0.8792h-0.0003c-0.027,0.0444-0.0406,0.07-0.0406,0.07l0.0001,0.0003
			c-9.6855,18.2282-19.4945,23.0009-19.4945,35.3103c0,5.2729,2.2926,10.1528,6.0821,13.6955
			c3.789,3.5455,9.0838,5.7666,15.0967,5.7676h0.0083c6.0124-0.0005,11.3065-2.2221,15.0956-5.7676
			C110.2066,103.0007,111.8911,92.9045,104.9303,82.6576z M75.9701,86.3258c-1.0015,8.8825,2.0086,17.2664,7.5935,22.0877
			C75.3355,106.1211,68.8687,97.2691,75.9701,86.3258z M96.0381,107.1574c3.1511-4.8577,3.0061-12.0994-2.2875-22.1468
			c-2.6843-5.0947-4.0023-10.6914-4.6453-14.7036c3.6271,5.8024,5.8246,8.6285,7.7774,11.169
			c3.5242,4.5838,6.232,8.0623,6.6033,13.1503C103.8734,99.8629,100.8433,104.6334,96.0381,107.1574z"/>
	</g>
</g>
</svg>
