<?xml version="1.0" encoding="utf-8"?>

<svg version="1.2" baseProfile="tiny" xmlns="http://www.w3.org/2000/svg" xmlns:xlink="http://www.w3.org/1999/xlink" x="0px"
	 y="0px" width="128px" height="128px" viewBox="0 0 128 128" xml:space="preserve">
<g id="_x31_28px_boxes">
	<rect fill="none" width="128" height="128"/>
</g>
<g id="Production">
	<g>
		<path fill="#ffffff" d="M63.9999,53.4156c-5.8362,0-10.5842,4.7481-10.5842,10.5844s4.748,10.5844,10.5842,10.5844
			c5.8364,0,10.5846-4.7481,10.5846-10.5844S69.8363,53.4156,63.9999,53.4156z"/>
		<path fill="#ffffff" d="M63.9999,36.4782c-13.7882,0-25.2078,10.14-27.2099,23.3695c0.5689-0.2103,1.1839-0.3256,1.8259-0.3256
			c2.9078,0,5.2649,2.3569,5.2649,5.2654c0,2.9077-2.3571,5.2646-5.2649,5.2646c-0.5275,0-1.0364-0.0784-1.5168-0.2228
			c2.6744,12.3994,13.7015,21.692,26.9008,21.692c6.0104,0,11.5696-1.9277,16.096-5.1971c0.3352,2.5847,2.5434,4.5814,5.2194,4.5814
			c2.9082,0,5.2654-2.3569,5.2654-5.2646c0-2.6488-1.9553-4.8394-4.5012-5.2095C89.4978,75.8457,91.5215,70.1593,91.5215,64
			C91.5215,48.8003,79.2,36.4782,63.9999,36.4782z M63.9999,78.8347c-8.1798,0-14.8344-6.6549-14.8344-14.8347
			s6.6547-14.8347,14.8344-14.8347c0.7445,0,1.4758,0.0565,2.1911,0.163c-0.0069-0.1114-0.0118-0.223-0.0118-0.336
			c0-2.9085,2.3573-5.2653,5.2651-5.2653c2.9082,0,5.2653,2.3569,5.2653,5.2653c0,1.8348-0.9389,3.4494-2.3623,4.3918
			C77.1128,56.0803,78.8348,59.842,78.8348,64C78.8348,72.1798,72.1799,78.8347,63.9999,78.8347z"/>
		<path fill="#ffffff" d="M63.9999,17.0001C38.084,17.0001,17,38.0843,17,64s21.084,46.9999,46.9999,46.9999
			C89.9158,110.9999,111,89.9157,111,64S89.9158,17.0001,63.9999,17.0001z M63.9999,101.4999C43.3223,101.4999,26.5,84.6774,26.5,64
			s16.8223-37.4999,37.4999-37.4999C84.6775,26.5001,101.5,43.3226,101.5,64S84.6775,101.4999,63.9999,101.4999z"/>
	</g>
</g>
</svg>
