<?xml version="1.0" encoding="utf-8"?>
<!-- Generator: Adobe Illustrator 18.1.0, SVG Export Plug-In . SVG Version: 6.00 Build 0)  -->
<svg version="1.2" baseProfile="tiny" xmlns="http://www.w3.org/2000/svg" xmlns:xlink="http://www.w3.org/1999/xlink" x="0px"
	 y="0px" width="64px" height="64px" viewBox="0 0 64 64" xml:space="preserve">
<g id="_x36_4px_boxes">
	<rect fill="none" width="64" height="64"/>
</g>
<g id="Production">
	<g>
		<path fill="#ffffff" d="M30.1869,30.2019l3.3929-8.5402c1.7114,2.9908,4.5256,6.5763,10.5874,9.3336l2.0703-4.5508
			c-11.423-5.1971-8.0798-13.5391-15.2611-15.2322c-3.0587-0.7217-6.0392,0.5225-7.5999,3.1611l-5.1893,8.7966
			c-2.248,3.8232-1.2217,8.6494,2.3867,11.2266l7.3135,5.2051l2.5372,15.2234l4.9318-0.8223l-2.6387-15.8386
			c-0.1594-0.9441-0.6981-1.7576-1.4181-2.2695c-3.7692-2.6921-1.2057-0.8359-7.8292-5.5664
			c-1.3605-0.9714-1.8156-2.7152-1.1779-4.2083c0.205-0.4797,5.1168-8.7439,5.3878-9.2028
			c0.6036-1.0216,1.8157-1.1232,2.6544-0.6295l-4.3357,10.9136L30.1869,30.2019z"/>
		<path fill="#ffffff" d="M14.5002,38.0002C8.1593,38.0002,3,43.1594,3,49.5001S8.1593,61,14.5002,61
			c6.3411,0,11.5005-5.1592,11.5005-11.4999S20.8413,38.0002,14.5002,38.0002z M14.5002,56c-3.584,0-6.5001-2.916-6.5001-6.4999
			s2.9161-6.4999,6.5001-6.4999c3.5842,0,6.5002,2.916,6.5002,6.4999S18.0845,56,14.5002,56z"/>
		<path fill="#ffffff" d="M49.5002,38C43.1593,38,38,43.1592,38,49.4999s5.1593,11.4999,11.5002,11.4999
			c6.3411,0,11.5005-5.1592,11.5005-11.4999S55.8413,38,49.5002,38z M49.5002,55.9998c-3.584,0-6.5001-2.916-6.5001-6.4999
			c0-3.584,2.9161-6.4999,6.5001-6.4999c3.5842,0,6.5002,2.9159,6.5002,6.4999C56.0005,53.0837,53.0845,55.9998,49.5002,55.9998z"/>
		<circle fill="#ffffff" cx="34.5001" cy="5.4999" r="4.4999"/>
	</g>
</g>
</svg>

