<?xml version="1.0" encoding="utf-8"?>
<!-- Generator: Adobe Illustrator 18.1.1, SVG Export Plug-In . SVG Version: 6.00 Build 0)  -->
<svg version="1.2" baseProfile="tiny" xmlns="http://www.w3.org/2000/svg" xmlns:xlink="http://www.w3.org/1999/xlink" x="0px"
	 y="0px" width="128px" height="128px" viewBox="0 0 128 128" xml:space="preserve">
<g id="_x31_28px_boxes">
	<rect fill="none" width="128" height="128"/>
</g>
<g id="Production">
	<g>
		<path fill="#ffffff" d="M112.8627,25.7238c-0.3751-6.1212-5.8601-10.4351-11.6213-10.6006
			c-5.9869-0.1719-12.3228,2.4751-17.4824,5.2877c-3.468,1.8907-6.9379,4.2784-9.8151,6.9977
			c-7.2983,3.1097-17.3778,2.9825-25.23,2.6872c-4.5888-0.1731-8.5963-0.3257-13.3972,0.6831
			c-6.8522,1.4401-15.0804,8.2105-15.4274,8.4981c-1.1941,0.9895-1.3702,2.7555-0.3953,3.9618
			c0.0904,0.1114,18.0921,20.5061,18.0921,20.5061l-3.2554,3.255c-1.2899,1.2901-1.2902,3.383,0,4.6735L56.2546,93.597
			c1.2881,1.2881,3.3779,1.2914,4.6692,0.0041c0.2548-0.2541,3.2629-3.2514,3.2629-3.2514s20.4578,18.0607,20.5698,18.1511
			c1.2063,0.9755,2.9724,0.7984,3.9615-0.3953c0.2876-0.3471,7.0581-8.5751,8.4981-15.427
			c1.0071-4.7931,0.8571-8.7807,0.6831-13.3979c-0.295-7.8421-0.4244-17.93,2.6881-25.2315
			C108.4893,45.6725,113.2975,32.8191,112.8627,25.7238z M25.7559,41.9151c2.8757-2.0753,7.3136-4.875,10.726-5.5922
			c8.3748-1.7602,16.9262,0.6842,29.5949-1.0689L41.5942,59.7366C33.9805,51.5665,28.4535,45.1266,25.7559,41.9151z
			 M92.2382,79.4938c0.1665,4.4185,0.2979,7.9085-0.5661,12.0196c-0.7171,3.4123-3.5171,7.8504-5.5923,10.7258
			c-3.218-2.7026-9.6783-8.2468-17.878-15.8906c7.0342-7.0094,17.5841-17.5227,24.5431-24.4577
			C91.9178,67.8481,92.0356,74.1137,92.2382,79.4938z M95.1736,50.1389c-0.512,0.5121-28.2507,28.1538-36.5781,36.4522
			l-5.9327-5.9325c0.0508-0.0458,0.1032-0.0885,0.1521-0.1376l12.1758-12.1756c1.4751-1.475,1.4751-3.8663,0.0002-5.3411
			c-1.475-1.4751-3.8662-1.4751-5.3411-0.0002L47.4739,75.1799c-0.0488,0.0488-0.0919,0.1012-0.1375,0.1521l-5.9954-5.9953
			l36.5151-36.5152c3.782-3.7821,8.5995-6.6394,13.0804-8.5092c5.5627,0.2665,12.4458,7.1403,12.7556,12.7235
			C101.7978,41.5597,98.9108,46.4018,95.1736,50.1389z"/>
		<path fill="#ffffff" d="M33.1133,94.8818c0.0544-1.7727,2.37-7.9884,6.0735-12.8128l-5.5921-5.5921
			c-3.3418,0.96-7.5389,4.9041-9.5774,7.273c-7.597,8.826-9.3065,26.1804-8.8349,29.0624
			c2.8822,0.4719,20.2365-1.2381,29.0627-8.8347c2.3688-2.0385,6.3129-6.2355,7.2729-9.5778l-5.5918-5.5916
			C41.1021,92.512,34.8859,94.8273,33.1133,94.8818z"/>
		<path fill="#ffffff" d="M86.3852,31.99c-2.1275-0.0478-4.0427,0.6561-5.3941,1.9729c-0.0356,0.035-0.0675,0.0724-0.1007,0.1089
			l3.497,3.4969c1.3332-1.2001,3.9048-0.5323,5.15,0.7871l0.1015,0.1017c1.6512,1.5581,1.7343,4.1719,0.8435,5.0866
			c-0.0201,0.0205-0.0372,0.0423-0.0562,0.0633l3.4971,3.4971c0.0364-0.0333,0.074-0.0651,0.1089-0.1009
			c1.3167-1.3511,2.0174-3.2667,1.9729-5.3937c-0.0525-2.5057-1.1397-5.0075-2.9121-6.7082
			C91.3923,33.1295,88.8908,32.0425,86.3852,31.99z"/>
	</g>
</g>
</svg>
