<?xml version="1.0" encoding="utf-8"?>
<!-- Generator: Adobe Illustrator 19.1.0, SVG Export Plug-In . SVG Version: 6.00 Build 0)  -->
<svg version="1.2" baseProfile="tiny" xmlns="http://www.w3.org/2000/svg" xmlns:xlink="http://www.w3.org/1999/xlink" x="0px"
	 y="0px" width="64px" height="64px" viewBox="0 0 64 64" xml:space="preserve">
<g id="box">
	<rect fill="none" width="64" height="64"/>
</g>
<g id="Production">
	<path fill="#ffffff" d="M44.188,52C40.2246,52,37,48.7754,37,44.812v-2.9023c2.8331-0.4783,5-2.9424,5-5.9097
		c0-0.3615-0.0351-0.7144-0.0983-1.0577l12.318-4.4247c1.5566-0.5591,2.3682-2.2808,1.8086-3.8374l-5.4092-15.0581
		c-0.5596-1.5566-2.2832-2.3701-3.8374-1.8086L12.9014,21.9839h-0.0005c-1.5562,0.5591-2.3677,2.2803-1.8086,3.8374l0.8326,2.3179
		l-8.7438-0.1216L9.001,44.2197l6.6678-5.6584l0.8327,2.3181c0.56,1.558,2.2831,2.3684,3.8374,1.8086l10.4445-3.7518
		c0.8725,1.5466,2.4045,2.6703,4.2166,2.9767v2.8991C35,49.8784,39.1216,54,44.188,54H62v-2H44.188z M9.9072,40.8271L6.0386,30.0576
		l6.6084,0.0918l2.2997,6.4019L9.9072,40.8271z M19.6626,40.8062c-0.52,0.1846-1.0933-0.0854-1.2793-0.603l-5.4087-15.0576
		c-0.1865-0.519,0.084-1.0933,0.603-1.2798h-0.0005L47.458,11.6953c0.5186-0.188,1.0923,0.0845,1.2793,0.603l5.4092,15.0581
		c0.1865,0.5186-0.0845,1.0928-0.603,1.2793L19.6626,40.8062z M32.7173,38.2415l7.2473-2.6033C40.2106,38.0067,38.3156,40,36,40
		C34.6293,40,33.4346,39.2972,32.7173,38.2415z"/>
</g>
</svg>

