<?xml version="1.0" encoding="utf-8"?>
<!-- Generator: Adobe Illustrator 18.1.1, SVG Export Plug-In . SVG Version: 6.00 Build 0)  -->
<svg version="1.2" baseProfile="tiny" xmlns="http://www.w3.org/2000/svg" xmlns:xlink="http://www.w3.org/1999/xlink" x="0px"
	 y="0px" width="64px" height="64px" viewBox="0 0 64 64" xml:space="preserve">

<g id="Production">
	<g>
		<path fill="#ffffff" d="M33.5171,13.9995c3.042,0,5.5171-2.4517,5.5171-5.4903c0-3.0381-2.4751-5.4998-5.5171-5.4998
			S28,5.4712,28,8.5093C28,11.5479,30.4751,13.9995,33.5171,13.9995z M33.5171,4.9995c1.9395,0,3.5171,1.5747,3.5171,3.5098
			c0,1.9355-1.5776,3.5103-3.5171,3.5103S30,10.4448,30,8.5093C30,6.5742,31.5776,4.9995,33.5171,4.9995z"/>
		<path fill="#ffffff" d="M26.5752,50.7012L18.5195,61l-1.5361-2.2036l6.3037-9.6318l1.0891-4.3096
			c-0.4556-0.7748-0.9783-1.399-1.5305-2.0429c-0.0043-0.005-0.0083-0.01-0.0127-0.015l-1.4033,5.5531L15.293,57.728
			c-0.4087,0.6699-0.3872,1.521,0.0547,2.168l1.519,2.2295c0.7713,1.1333,2.4193,1.163,3.2344,0.0986l8.2554-10.5542l0.0247-0.0715
			c-0.499-0.8158-0.9512-1.5557-1.3516-2.2134L26.5752,50.7012z"/>
		<path fill="#ffffff" d="M43.4468,60.2642L32.7349,35.9771c0.2432-0.7576,0.8386-2.6144,1.5042-4.7079
			c-0.6757-1.7453-0.7478-2.1298-0.8933-3.8078c-1.2007,3.8189-2.6309,8.264-2.6313,8.2653l-0.1162,0.3618l10.9902,24.9111
			l-2.9663,0.0039c-1.5327-3.0876-9.5304-15.7238-10.394-17.4512c-2.3206-4.6397-5.4513-4.1997-3.9434-10.7705
			c0.4341-1.8901,2.2515-7.8697,3.7397-12.3888c1.0344-3.1387,6.4119-3.4759,6.8286,0.587c0.3197,3.1355,0.3981,6.2772,0.6592,7.79
			c0.2578,1.4907,3.3945,8.2007,4.0205,9.5303c0.5622,1.1953,2.3734,0.3452,1.8096-0.8516
			c-1.4053-2.9849-3.6953-8.0728-3.8594-9.019c-0.1478-0.8556-0.4117-5.2359-0.5948-7.1671l0,0
			c-0.4669-4.9251-4.4777-5.946-7.452-4.8437c0,0-5.6007,1.6589-9.9038,4.8028c-3.2381,2.3658-5.2896,7.2261-5.4624,9.5015
			c-0.2856,3.7407,2.0224,6.2745,7.8291,4.9524c-0.0299,4.543,2.8367,5.3632,4.54,8.7712
			c0.9245,1.8479,8.9152,14.4708,10.3916,17.4458c0.3389,0.6826,1.0244,1.1069,1.7896,1.1069h2.9683
			C42.8982,62.9995,43.966,61.7228,43.4468,60.2642z M16.064,30.875c0.1387-1.8252,2.0923-5.9844,4.7202-8.0938
			c1.257-1.0087,3.3823-2.0797,5.2891-2.9358c-1.3501,4.1111-3.2566,10.3934-3.7378,12.489
			c-0.0999,0.4355-0.175,0.8401-0.2395,1.2313C17.0112,34.9754,15.8835,33.2421,16.064,30.875z"/>
	</g>
</g>
</svg>
