<?xml version="1.0" encoding="utf-8"?>
<!-- Generator: Adobe Illustrator 18.1.1, SVG Export Plug-In . SVG Version: 6.00 Build 0)  -->
<svg version="1.2" baseProfile="tiny" xmlns="http://www.w3.org/2000/svg" xmlns:xlink="http://www.w3.org/1999/xlink" x="0px"
	 y="0px" width="128px" height="128px" viewBox="0 0 128 128" xml:space="preserve">
<g id="box">
	<rect fill="none" width="128" height="128"/>
</g>
<g id="Production">
	<g>
		<path fill="#ffffff" d="M29.0808,93.9114c-8.4579-0.0024-15.3752-6.8462-15.3782-15.3784
			c0.0015-4.2551,1.7176-8.0826,4.5044-10.8738c3.0071-3.0024,7.152-4.7002,11.6162-4.4857l2.7256-5.0282
			C19.8227,55.9958,8.3997,65.8096,8.3972,78.533c0.0022,11.4237,9.2594,20.6819,20.6836,20.6831
			c7.7341-0.0008,14.4712-4.2474,18.0195-10.5334c-2.4617-0.2985-5.6942-0.6933-5.8801-0.7158
			C38.3584,91.6441,33.9635,93.91,29.0808,93.9114z"/>
		<path fill="#ffffff" d="M96.1416,58.0407c0.8909,2.8503,0.9578,3.137,1.7681,5.1511c8.9132-0.5831,16.3849,6.4818,16.3869,15.341
			c-0.0019,8.4458-6.8327,15.3756-15.3779,15.378c-8.464-0.0024-15.3747-6.8509-15.3777-15.378
			c0.0012-3.2346,0.9951-6.2208,2.6956-8.6941c-0.7666-1.7738-1.5944-3.836-2.158-5.7047
			c-3.6133,3.7237-5.8415,8.7992-5.8425,14.3988c0.0022,11.4242,9.259,20.6819,20.6826,20.6839
			c11.4236-0.002,20.6819-9.2597,20.6841-20.6839C119.6004,66.0872,108.6506,56.3589,96.1416,58.0407z"/>
		<path fill="#ffffff" d="M86.4774,58.2982c0.6532,2.1218,3.9325,14.2936,10.4294,21.9633c0.956,1.1123,2.6306,1.2367,3.7405,0.2841
			c1.1121-0.9552,1.239-2.6296,0.2837-3.7416v0.0003c-0.1182-0.1393-2.8043-3.3641-5.5733-9.3913
			c-1.8498-4.0265-2.5046-6.4112-3.527-9.762c-1.0275-3.368-2.7978-9.1732-6.1311-19.9068
			c-1.2891-4.144-1.4534-5.3203-3.1121-6.6151c-2.7282-2.131-7.6125-2.3438-11.1548-2.3458c-3.5051,0-3.5097,5.3056,0,5.3056
			c1.531-0.0028,7.003,0.141,7.9487,1.2804c0.3028,0.8448,2.5156,8.035,2.7798,8.8926H48.0083l-1.6501-3.6868
			c1.6701-0.4536,4.1127-1.1291,5.7736-1.6396c2.7034-0.8257,2.4297-3.6649,0-3.6649H36.2542c-4.581,0-0.3021,8.0788,4.0715,6.9194
			c0.2795-0.0742,0.5608-0.1486,0.8428-0.2236c0.2741,0.6134-0.0688-0.153,2.1338,4.7679
			c-3.255,6.0044-12.9109,23.8157-16.5535,30.5343c-0.0159,0.03-0.0271,0.0618-0.0422,0.0921
			c-0.9755,1.832-0.1196,4.546,2.9001,5.0025c2.9592,0.3643,26.2139,3.2257,29.2229,3.53c4.3807,0.4419,8.7819-4.1181,7.312-8.9837
			C70.6951,72.7421,81.5158,62.8386,86.4774,58.2982z M34.1038,74.8329c1.2005-2.2145,10.8926-20.0914,11.9274-22.0002
			c5.629,12.5779,5.1656,11.5416,8.7095,19.4616C49.1086,72.9318,39.7378,74.1135,34.1038,74.8329z M62.7573,72.8138
			c-0.716-0.3933-1.507-0.6773-2.3452-0.8334c-0.0742-0.1659-8.6119-19.2441-10.0298-22.4131H83.793
			c0.3213,1.0462,0.643,2.0928,0.958,3.1187C79.8273,57.1913,67.6647,68.3226,62.7573,72.8138z"/>
	</g>
</g>
</svg>
