<?xml version="1.0" encoding="utf-8"?>

<svg version="1.2" baseProfile="tiny" xmlns="http://www.w3.org/2000/svg" xmlns:xlink="http://www.w3.org/1999/xlink" x="0px"
	 y="0px" width="128px" height="128px" viewBox="0 0 128 128" xml:space="preserve">
<g id="_x31_28px_boxes">
	<rect fill="none" width="128" height="128"/>
</g>
<g id="Production">
	<g>
		<path fill="#ffffff" d="M93.801,22H34.199C27.4617,22,22,27.4617,22,34.1989v59.6024C22,100.5383,27.4617,106,34.199,106h59.602
			c6.7373,0,12.199-5.4617,12.199-12.1987V34.1989C106,27.4617,100.5383,22,93.801,22z M79.5259,87.5h-30.846
			c-7.5522-5-12.5356-13.6349-12.5356-23.3749c0-9.7392,4.9825-18.3751,12.5339-23.3751h30.8487
			c7.5505,5,12.5327,13.6359,12.5327,23.3751C92.0596,73.8651,87.0766,82.5,79.5259,87.5z"/>
		<rect x="50.5" y="50" fill="#ffffff" width="6.25" height="16.25"/>
		<rect x="71.5" y="50.75" fill="#ffffff" width="6.25" height="15"/>
		<path fill="#ffffff" d="M64.1308,72.7222c-2.9447,0-5.3546,2.4184-5.3546,5.3628l-0.0151,5.165H69.5v-5.1875
			C69.5,75.1179,67.0757,72.7222,64.1308,72.7222z"/>
	</g>
</g>
</svg>
