<?xml version="1.0" encoding="utf-8"?>
<!-- Generator: Adobe Illustrator 18.1.1, SVG Export Plug-In . SVG Version: 6.00 Build 0)  -->
<svg version="1.2" baseProfile="tiny" xmlns="http://www.w3.org/2000/svg" xmlns:xlink="http://www.w3.org/1999/xlink" x="0px"
	 y="0px" width="128px" height="128px" viewBox="0 0 128 128" xml:space="preserve">
<g id="_x31_28px_boxes">
	<rect fill="none" width="128" height="128"/>
</g>
<g id="Production">
	<g>
		<circle fill="#ffffff" cx="21.1265" cy="33.3655" r="8.5853"/>
		<circle fill="#ffffff" cx="45.1658" cy="33.3655" r="8.5853"/>
		<circle fill="#ffffff" cx="69.2046" cy="33.3655" r="8.5853"/>
		<circle fill="#ffffff" cx="21.1265" cy="57.4047" r="8.5857"/>
		<circle fill="#ffffff" cx="21.1265" cy="81.4435" r="8.5856"/>
		<path fill="#ffffff" d="M107.9742,59.0037c-5.3449-5.345-14.6666-14.6353-14.734-14.6966l0.0026-0.0026
			c-4.2327-4.2405-10.5501,1.348-5.881,5.9281l5.9018,5.9534c1.5147,1.5283-0.8183,3.746-2.2865,2.2659L79.7764,47.2621
			c-4.5072-4.4393-10.9137,2.0789-6.402,6.5159c0,0,8.9479,9.0039,8.9934,9.0617c1.2235,1.5605-0.9447,3.5932-2.4034,2.1295
			l-11.6962-11.723c-4.3802-4.3594-11.2323,2.2117-6.6802,6.7511l9.6996,9.7335c1.4995,1.5093-0.7665,3.7943-2.2814,2.2707
			L46.0333,49.0286c-4.497-4.5273-12.6704,2.2581-7.3857,7.4341l31.5813,31.581c1.0725,1.0557,0.328,2.4564-1.1052,2.6902
			c-3.2954,0.5365-10.1742,1.8892-10.8923,2.0292c-3.0595,0.5971-5.1666,3.1167-4.9013,5.8604
			c0.1994,2.0616,1.9945,4.4688,6.3976,4.4687c20.8588,0,36.5978,1.9637,48.0826-9.521
			C117.8536,83.5281,118.1063,69.1354,107.9742,59.0037z"/>
		<circle fill="#ffffff" cx="45.1658" cy="81.4435" r="8.5856"/>
	</g>
</g>
</svg>
