<?xml version="1.0" encoding="utf-8"?>
<!-- Generator: Adobe Illustrator 18.1.1, SVG Export Plug-In . SVG Version: 6.00 Build 0)  -->
<svg version="1.2" baseProfile="tiny" xmlns="http://www.w3.org/2000/svg" xmlns:xlink="http://www.w3.org/1999/xlink" x="0px"
	 y="0px" width="64px" height="64px" viewBox="0 0 64 64" xml:space="preserve">

<g id="Production">
	<g>
		<path fill="#ffffff" d="M20.1656,38.4537c-1.6269-0.8187-3.4888-1.2874-4.2328-1.5602c-0.9514-0.3489-1.474-1.0372-1.5624-2.0527
			c-0.0042-0.0483-0.0044-0.0949-0.0065-0.1424c2.4446-0.2378,4.166-0.821,5.1291-1.2439c0.2386-0.1048,0.4211-0.3064,0.5017-0.5541
			c0.0807-0.2478,0.0516-0.5181-0.0793-0.7433c-2.1348-3.6741-1.6965-5.6292-1.6965-9.3347c0-4.8528-4.8132-6.5709-7.2473-4.5715
			c-3.6571,0-5.4857,2.7159-5.4857,5.4857c0,4.2694,0.4339,5.1693-0.8742,8.0417c-0.1836,0.4032-0.052,0.8807,0.313,1.1317
			c0.7515,0.5168,2.2152,1.3044,4.4938,1.6818c-0.0015,0.0748-0.0036,0.1501-0.0103,0.2272
			c-0.0885,1.0154-0.6111,1.682-1.5625,2.0309c-1.0908,0.4-4.6039,1.2449-6.2247,2.9904C0,41.5858,0,44,0,44h11.8235
			c0.3931-0.6182,0.8666-1.2326,1.448-1.814C15.0459,40.4113,17.7499,39.2573,20.1656,38.4537z"/>
		<path fill="#ffffff" d="M62.3792,39.8403c-1.6207-1.7454-5.1271-2.5469-6.2179-2.9469c-0.9514-0.3489-1.474-1.0372-1.5624-2.0527
			c-0.0041-0.0471-0.0042-0.0925-0.0063-0.1389c2.4666-0.2352,4.2028-0.8221,5.1711-1.2474
			c0.2386-0.1048,0.4211-0.3064,0.5018-0.5541c0.0806-0.2478,0.0515-0.5181-0.0793-0.7433
			c-2.1349-3.6741-1.6966-5.6292-1.6966-9.3347c0-4.8528-4.8132-6.5709-7.2473-4.5715c-3.6572,0-5.4857,2.7159-5.4857,5.4857
			c0,4.2694,0.4339,5.1693-0.8742,8.0417c-0.1836,0.4032-0.0521,0.8807,0.313,1.1317c0.7466,0.5135,2.1985,1.2933,4.4518,1.6735
			c-0.0014,0.0775-0.0037,0.1556-0.0107,0.2356c-0.0884,1.0154-0.6111,1.682-1.5624,2.0309
			c-0.7455,0.2734-2.6223,0.7552-4.2534,1.5897c2.4149,0.8041,5.1232,1.9614,6.9078,3.7464c0.5814,0.5814,1.0549,1.1958,1.448,1.814
			H64C64,44,64,41.5858,62.3792,39.8403z"/>
		<path fill="#ffffff" d="M38.8488,39.0374c-1.61-0.5483-2.4945-1.5957-2.6442-3.1915c-0.1129-1.2039,0.2495-2.2727,0.2495-2.2727
			c1.4824-1.7684,1.3888-2.7079,1.8378-4.7388c1.4468-0.2902,1.8463-2.8967,1.7462-4.1586
			c-0.0997-1.2573-0.8481-1.1605-0.8481-1.1605s0.8481-3.7718,0.2993-5.9961c-0.7654-3.1025-3.4985-4.8356-6.5418-4.8356
			c-3.0433,0-7.6598,1.733-8.4252,4.8356c-0.5488,2.2243,0.2993,5.9961,0.2993,5.9961s-0.7484-0.0967-0.8481,1.1605
			c-0.1002,1.2618,0.2994,3.8684,1.7462,4.1586c0.449,2.0309,0.6974,3.5231,1.8378,4.7388c0,0,0.3624,1.0688,0.2495,2.2727
			c-0.1497,1.5958-1.0342,2.6432-2.6442,3.1915c-1.8459,0.6287-7.7912,1.8198-10.5341,4.5626S11.8857,50,11.8857,50h40.2286
			c0,0,0-3.6572-2.7429-6.4S40.6948,39.666,38.8488,39.0374z"/>
	</g>
</g>
</svg>
