<?xml version="1.0" encoding="utf-8"?>
<!-- Generator: Adobe Illustrator 18.1.1, SVG Export Plug-In . SVG Version: 6.00 Build 0)  -->
<svg version="1.2" baseProfile="tiny" xmlns="http://www.w3.org/2000/svg" xmlns:xlink="http://www.w3.org/1999/xlink" x="0px"
	 y="0px" width="128px" height="128px" viewBox="0 0 128 128" xml:space="preserve">
<g id="box">
	<rect fill="none" width="128" height="128"/>
</g>
<g id="Production">
	<path fill="#ffffff" d="M96.7151,30.7239c-12.2669-11.9091-24.3409-19.3347-35.3872-7.9597
		c-6.5176,6.7156-9.2625,14.1092-10.4378,21.4287c-1.1701,7.3272,0.4763,15.4986-6.7053,25.6665
		c-7.0415,9.9666-16.8438,8.897-22.7603,14.8162c-5.9165,5.9138-6.0087,15.7588,0,21.773c6.0142,6.0117,15.9651,5.8159,21.7784,0
		c5.8081-5.8133,5.3764-15.5572,15.1257-22.4456c10.1677-7.1841,16.9575-5.7466,25.3069-6.771
		c8.3464-1.0247,15.446-4.4605,22.1225-11.3325C116.7991,54.522,108.9846,42.6339,96.7151,30.7239z M96.7468,61.5025
		c-5.4639,3.9419-9.8262,5.1834-12.6428,5.1834c-1.5037,0-2.552-0.3553-3.1157-0.7364c-1.9168-0.7036-1.6148-7.4092-6.3767-12.3462
		c-5.0325-4.601-11.5816-4.4389-12.3333-6.361c-0.3865-0.5691-0.7415-1.6224-0.7361-3.1238
		c-0.0054-2.8164,1.2285-7.1814,5.1831-12.6375c2.1919-3.0122,4.3389-3.886,6.1148-3.9018c2.417-0.0288,4.5215,1.8296,4.9821,3.685
		c1.1727,4.513,2.3321,8.8411,6.3479,12.8413c4.0079,4.0103,8.1028,4.9712,12.7564,6.2842c1.9036,0.522,3.7539,2.6311,3.7222,5.0191
		C100.6433,57.1641,99.7566,59.2972,96.7468,61.5025z"/>
</g>
</svg>
