<?xml version="1.0" encoding="utf-8"?>

<svg version="1.2" baseProfile="tiny" xmlns="http://www.w3.org/2000/svg" xmlns:xlink="http://www.w3.org/1999/xlink" x="0px"
	 y="0px" width="128px" height="128px" viewBox="0 0 128 128" xml:space="preserve">
<g id="_x31_28px_boxes">
	<rect fill="none" width="128" height="128"/>
</g>
<g id="Production">
	<g>
		<path fill="#ffffff" d="M53.7111,62.3896c-4.4674-7.9393-1.635-18.3734,6.8458-26.3526
			c-3.5494,12.9254-0.2238,19.2393,6.9298,21.7095c6.7603,2.334,15.1961-4.7661,15.1961-4.7661
			c0.1706,3.5224-0.6436,6.6857-1.8943,9.4092h13.5952c3.3118-8.2284,3.5444-18.0232-1.8792-27.4736
			c0,0-10.7705,14.3978-17.7205,8.8213c-7.8908-6.332,16.3701-17.5852-4.4585-40.5518c0,0,0.3135,10.3941-18.4681,22.5309
			c-18.8192,12.161-21.7056,25.7498-17.3082,36.6732H53.7111z"/>
		<path fill="#ffffff" d="M82.2308,98.2958c10.3935-5.2955,17.7612-15.1535,17.7612-26.9087c0-2.2586-1.8311-4.0898-4.0899-4.0898
			H32.0978c-2.2588,0-4.0898,1.8312-4.0898,4.0898c0,11.735,7.3467,21.6015,17.7604,26.9082L35.2795,118.132
			c-1.6169,3.0575,0.6403,6.6824,4.0214,6.6824c1.6332,0,3.2123-0.8813,4.029-2.4258l11.0689-20.9331
			c1.6483,0.3921,3.3345,0.6826,5.0482,0.8687v17.936c0,2.5146,2.0384,4.5535,4.5532,4.5535c2.5145,0,4.5531-2.0388,4.5531-4.5535
			v-17.936c1.7134-0.1861,3.3994-0.4766,5.0471-0.8687l11.07,20.9331c1.1753,2.2231,3.9307,3.0725,6.1536,1.8967
			c2.2232-1.1755,3.072-3.9309,1.8965-6.1536L82.2308,98.2958z M36.6278,75.477h9.9111
			c1.2013,7.7046,5.3349,14.2927,11.0803,18.3008C46.9239,91.6931,38.5907,84.4902,36.6278,75.477z"/>
	</g>
</g>
</svg>
