<?xml version="1.0" encoding="utf-8"?>
<!-- Generator: Adobe Illustrator 18.1.1, SVG Export Plug-In . SVG Version: 6.00 Build 0)  -->
<svg version="1.2" baseProfile="tiny" xmlns="http://www.w3.org/2000/svg" xmlns:xlink="http://www.w3.org/1999/xlink" x="0px"
	 y="0px" width="128px" height="128px" viewBox="0 0 128 128" xml:space="preserve">
<g id="_x31_28px_boxes">
	<rect fill="none" width="128" height="128"/>
</g>
<g id="Production">
	<g>
		<path fill="#ffffff" d="M88.3785,41.6616c-1.3066,1.8214-3.4399,3.0114-5.8474,3.0114h-9.3279v5.2522
			c14.1241,2.1889,24.4712,9.2904,24.4712,17.7132c0,10.167-15.0766,18.409-33.6743,18.409c-18.5976,0-33.6745-8.242-33.6745-18.409
			c0-8.4228,10.3474-15.5243,24.4714-17.7132V44.673h-9.3279c-2.4075,0-4.5408-1.19-5.8474-3.0114
			c-19.1973,5.1875-32.4695,16.31-32.4695,29.1955c0,17.8443,25.4514,32.3101,56.8477,32.3101
			c11.3012,0,21.8318-1.8745,30.6828-5.106c-4.01-0.2328-7.1899-3.557-7.1899-7.6253c0-4.2192,3.4202-7.6396,7.6394-7.6396
			c4.219,0,7.6397,3.4204,7.6397,7.6396c0,1.9088-0.702,3.6527-1.8592,4.9917c12.1995-5.9261,19.9351-14.7342,19.9351-24.5705
			C120.8478,57.9717,107.5756,46.8494,88.3785,41.6616z"/>
		<path fill="#ffffff" d="M45.4691,40.173H59.297v14.1009c-2.5637,1.6591-4.3081,4.372-4.3081,6.3316
			c0,2.8719,4.0422,5.2082,9.0112,5.2082c4.9685,0,9.011-2.3363,9.011-5.2082c0-1.9596-1.7446-4.6728-4.3079-6.3316V40.173h13.8279
			c1.4876,0,2.6939-1.2063,2.6939-2.6939s-1.2063-2.6938-2.6939-2.6938H68.7032v-5.2492c0-2.5976-2.1057-4.7033-4.7031-4.7033
			c-2.5979,0-4.7031,2.1057-4.7031,4.7033v5.2492H45.4691c-1.488,0-2.6938,1.2062-2.6938,2.6938S43.9811,40.173,45.4691,40.173z"/>
	</g>
</g>
</svg>
