<?xml version="1.0" encoding="utf-8"?>
<!-- Generator: Adobe Illustrator 19.1.0, SVG Export Plug-In . SVG Version: 6.00 Build 0)  -->
<svg version="1.2" baseProfile="tiny" xmlns="http://www.w3.org/2000/svg" xmlns:xlink="http://www.w3.org/1999/xlink" x="0px"
	 y="0px" width="64px" height="64px" viewBox="0 0 64 64" xml:space="preserve">
<g id="_x36_4px_boxes">
	<rect fill="none" width="64" height="64"/>
</g>
<g id="Production">
	<g>
		<path fill="#ffffff" d="M14,59c-4.9624,0-9-4.0376-9-9s4.0376-9,9-9c0.4424,0,0.876,0.0363,1.3013,0.0983l0.9423-1.8588
			C15.5182,39.0883,14.7698,39,14,39C7.9346,39,3,43.9346,3,50s4.9346,11,11,11c3.9268,0,7.367-2.0755,9.3113-5.1808l-2.2206-0.2998
			C19.4451,57.6345,16.8819,59,14,59z"/>
		<path fill="#ffffff" d="M35.9727,45.9399l7.9792-7.2536l1.1458,4.4875c0.5151,2.019,1.3691,3.918,2.5386,5.6431l1.4663,2.1641
			c0.3096,0.4567,0.9322,0.5765,1.3887,0.2666c0.457-0.3096,0.5767-0.9312,0.2666-1.3887l-1.4663-2.1641
			c-1.0391-1.5332-1.7979-3.2212-2.2563-5.0161L43.353,28.2583C43.0137,26.9287,41.8184,26,40.4463,26H38.099
			c-2.0295-1.0905-4.3182-2.5333-4.6361-3.0425c-0.3441-0.5878-1.8751-4.3428-2.5399-5.8264
			c-0.9136-2.0386-1.5429-3.7146-3.7906-4.1561c-2.1299-0.4194-4.4492,0.7271-5.5146,2.7241
			c-1.7578,3.2964-3.8037,9.9263-4.1924,11.6221c-1.246,5.4301,0.603,7.2324,2.752,8.5809l-5.1345,10.1286
			C13.3417,46.1876,12,47.6064,12,49.3477c0,1.668,1.2466,3.0942,2.8999,3.3179l14.2134,1.9189
			c0.624,0.0839,1.1052,0.0301,1.7004-0.1396c0.9816,0.7578,2.1727,1.1302,3.4276,1.0283c1.0547-0.0859,1.8613-0.9814,1.8374-2.0303
			l-0.1105-7.5001C35.9695,45.9415,35.9713,45.9412,35.9727,45.9399z M21.8935,36.9407c0.0558,0.0349,0.1103,0.065,0.1661,0.1008
			c0.5229,0.3359,4.5435,2.6392,5.9858,3.4644L28.488,46h-4.2558c-0.8477-2.1604-2.3541-3.9895-4.2774-5.235L21.8935,36.9407z
			 M19.043,42.5636C20.314,43.43,21.3483,44.6144,22.0408,46H17.301L19.043,42.5636z M15.1675,50.6831
			C14.502,50.5933,14,50.019,14,49.3477C14,48.6045,14.6045,48,15.3477,48H28.649l0.2352,2.9199
			c0.0475,0.5916,0.2115,1.1526,0.4526,1.6762L15.1675,50.6831z M31.9146,52.7832c-0.605-0.5142-0.9731-1.2329-1.0371-2.0239
			l-0.9229-11.4658c0,0-7.5498-4.3882-7.9092-4.6001c-2.3403-1.3784-3.7524-2.2109-2.6709-6.9248
			c0.3618-1.5781,2.3599-8.0376,4.0078-11.1279c0.6509-1.2202,2.0996-1.9541,3.3643-1.7031
			c0.6691,0.1313,1.1664,0.5212,1.4791,1.1412c0.8351,1.6557,3.1719,7.3088,3.5106,7.8886
			c0.7119,1.2168,4.1895,3.1484,5.6519,3.9224c0.1489,0.0791,0.4962,0.1109,0.5112,0.1102c0.0002,0,0.0003,0.0001,0.0005,0.0001
			h2.5464c0.4575,0,0.856,0.3096,0.9692,0.7529L42.4999,33H31.198l-4.1028-2.8037c0.434-1.3058,1.3825-4.171,2.1993-6.7067
			c-0.4344-0.992-0.7804-1.8394-1.2028-2.8163c-1.1019,3.5214-3.371,10.3223-3.371,10.3223l8.2749,5.6558
			c0.5239,0.3633,0.8447,0.9604,0.8589,1.5894L34.0786,53.48C33.2871,53.5425,32.519,53.2974,31.9146,52.7832z M35.854,38.2036
			c-0.0283-1.2744-0.6704-2.4688-1.7236-3.1997L34.1246,35H43c0.0036,0,0.0065-0.002,0.0101-0.002l0.3817,1.4948l-7.463,6.7843
			L35.854,38.2036z"/>
		<path fill="#ffffff" d="M29,12c2.7568,0,5-2.2432,5-5s-2.2432-5-5-5s-5,2.2432-5,5S26.2432,12,29,12z M29,4c1.6543,0,3,1.3457,3,3
			s-1.3457,3-3,3s-3-1.3457-3-3S27.3457,4,29,4z"/>
		<path fill="#ffffff" d="M50,39c-0.6136,0-1.2116,0.0631-1.7982,0.1602l0.4965,1.9449C49.1245,41.043,49.5568,41,50,41
			c4.9624,0,9,4.0376,9,9s-4.0376,9-9,9s-9-4.0376-9-9c0-2.2834,0.8619-4.3646,2.2685-5.9532
			c-0.214-0.7692,0.1358,0.5801-0.5839-2.2387C40.4297,43.8239,39,46.7446,39,50c0,6.0654,4.9346,11,11,11s11-4.9346,11-11
			S56.0654,39,50,39z"/>
	</g>
</g>
</svg>

