<?xml version="1.0" encoding="utf-8"?>
<!-- Generator: Adobe Illustrator 18.1.1, SVG Export Plug-In . SVG Version: 6.00 Build 0)  -->
<svg version="1.2" baseProfile="tiny" xmlns="http://www.w3.org/2000/svg" xmlns:xlink="http://www.w3.org/1999/xlink" x="0px"
	 y="0px" width="128px" height="128px" viewBox="0 0 128 128" xml:space="preserve">
<g id="_x31_28px_boxes">
	<rect fill="none" width="128" height="128"/>
</g>
<g id="Production">
	<g>
		<path fill="#ffffff" d="M101.9122,25.0839C86.7934,38.5837,84.6363,38.5837,63.9996,38.5837
			c-22.9327,0-21.6258,1.4788-37.8571-13.4492c-4.9722-4.5736-11.9025,2.9482-6.9222,7.529
			C32.675,45.0379,36.9902,48.3263,49.9096,48.7627v28.0034c0,2.6682,0.1197,1.0479-5.6495,44.3337
			c-1.0397,7.851,10.7986,9.7592,12.0674,1.7603c0,0,6.3427-39.8889,6.4836-40.6031c0.2874-1.4287,2.133-1.3969,2.3727-0.0227
			c0.1489,0.8575,6.4877,40.626,6.4877,40.626c1.2591,7.9319,13.1175,6.1686,12.0677-1.7612
			c-5.7623-43.2325-5.639-41.586-5.639-44.333V48.4836c11.58-0.8804,17.5507-4.0977,30.6227-15.7698
			C113.7629,28.2144,106.9588,20.5774,101.9122,25.0839z"/>
		<path fill="#ffffff" d="M53.2638,24.6716c4.2667,13.1685,17.2481,13.1528,21.5086-0.001
			c3.1569-0.1062,5.6836-2.6975,5.6836-5.8804c0-3.2268-2.5963-5.8454-5.8133-5.884c-3.9513-9.6967-17.2895-9.7148-21.2494-0.001
			c-3.2341,0.0186-5.8504,2.6458-5.8504,5.885C47.543,21.9856,50.0897,24.5844,53.2638,24.6716z"/>
		<path fill="#ffffff" d="M115.8712,1.5188l-8.2268,13.4716c-3.8862,6.3645,6.9588,11.64,9.3049,4.1946l4.6434-15.0862
			C122.6738,0.5919,117.8107-1.6555,115.8712,1.5188z"/>
		<path fill="#ffffff" d="M20.3549,14.9904L12.128,1.5188c-1.9387-3.1753-6.7982-0.9191-5.7218,2.5798l4.6453,15.0913
			C13.3683,26.5401,24.3386,21.5141,20.3549,14.9904z"/>
	</g>
</g>
</svg>
