<?xml version="1.0" encoding="utf-8"?>
<!-- Generator: Adobe Illustrator 18.1.1, SVG Export Plug-In . SVG Version: 6.00 Build 0)  -->
<svg version="1.2" baseProfile="tiny" xmlns="http://www.w3.org/2000/svg" xmlns:xlink="http://www.w3.org/1999/xlink" x="0px"
	 y="0px" width="64px" height="64px" viewBox="0 0 64 64" xml:space="preserve">

<g id="Production">
	<g>
		<path fill="#ffffff" d="M26,39v-1.79c0-0.1289-0.0249-0.2563-0.0732-0.3755l-9-22.21C16.7739,14.2471,16.4072,14,16,14
			s-0.7739,0.2471-0.9268,0.6245l-9,22.21C6.0249,36.9536,6,37.0811,6,37.21V39c0,3.8599,3.1401,7,7,7h6
			C22.8599,46,26,42.8599,26,39z M16,17.6626L23.8359,37H8.1641L16,17.6626z M8,38.98h16c0,2.7568-2.2432,5.02-5,5.02h-6
			C10.2432,44,8,41.7368,8,38.98z"/>
		<path fill="#ffffff" d="M57.9268,36.8345l-9-22.21C48.7739,14.2471,48.4072,14,48,14s-0.7739,0.2471-0.9268,0.6245l-9,22.21
			C38.0249,36.9536,38,37.0811,38,37.21V39c0,3.8599,3.1401,7,7,7h6c3.8599,0,7-3.1401,7-7v-1.79
			C58,37.0811,57.9751,36.9536,57.9268,36.8345z M48,17.6626L55.8359,37H40.1641L48,17.6626z M51,44h-6c-2.7568,0-5-2.2632-5-5.02
			h16C56,41.7368,53.7568,44,51,44z"/>
		<path fill="#ffffff" d="M33,49.0711V12h21v-2H35.4436C35.7881,9.4092,36,8.7318,36,8c0-2.2056-1.7944-4-4-4s-3.99,1.7944-3.99,4
			c0,0.7318,0.2019,1.4092,0.5464,2H10v2h21v37.0711c-3.2273,0.4116-5.9255,2.7761-6.7419,5.9289H16v2h32v-2h-8.2581
			C38.9255,51.8472,36.2273,49.4827,33,49.0711z M30,8c0-1.103,0.897-2,2-2s2,0.897,2,2s-0.897,2-2,2S30,9.103,30,8z M26.3494,55
			c0.8345-2.3432,3.0848-4,5.6506-4s4.8162,1.6568,5.6506,4H26.3494z"/>
	</g>
</g>
</svg>
