<?xml version="1.0" encoding="utf-8"?>
<!-- Generator: Adobe Illustrator 18.1.1, SVG Export Plug-In . SVG Version: 6.00 Build 0)  -->
<svg version="1.2" baseProfile="tiny" xmlns="http://www.w3.org/2000/svg" xmlns:xlink="http://www.w3.org/1999/xlink" x="0px"
	 y="0px" width="128px" height="128px" viewBox="0 0 128 128" xml:space="preserve">
<g id="_x31_28px_boxes">
	<rect fill="none" width="128" height="128"/>
</g>
<g id="Production">
	<g>
		<path fill="#ffffff" d="M52.7377,24.5964h2.4336v6.2173c2.3535-0.4231,4.8868-0.6602,7.4268-0.6602
			c2.5212,0,5.0469,0.2323,7.4267,0.6602v-6.2173h2.4341c0.8262,0,1.4961-0.6697,1.4961-1.4961V12.823
			c0-0.8262-0.6699-1.4961-1.4961-1.4961H52.7377c-0.8261,0-1.4961,0.6699-1.4961,1.4961v10.2773
			C51.2416,23.9267,51.9116,24.5964,52.7377,24.5964z"/>
		<path fill="#ffffff" d="M102.3373,39.0183l-6.9506-7.2002c-0.5684-0.5883-1.5142-0.6176-2.1158-0.0374l-6.3837,6.1629
			c3.5678,2.5534,6.7072,5.6439,9.2846,9.1069l6.1284-5.9165C102.895,40.5603,102.9116,39.613,102.3373,39.0183z"/>
		<path fill="#ffffff" d="M62.5981,34.6423c-20.5725,0-37.3555,16.7343-37.3555,37.3552c0,10.5876,4.4278,20.1596,11.5283,26.9638
			l8.1675-6.3179c-5.8242-4.9892-9.5215-12.3935-9.5215-20.6459c0-14.9875,12.1934-27.1809,27.1812-27.1809
			S89.7792,57.01,89.7792,71.9975c0,14.1967-10.9404,25.8844-24.8325,27.079c0-7.3549,0-2.5881,0-6.7639
			c0-1.4356-1.6172-2.2865-2.8008-1.4666l-16.2885,11.2876c-1.023,0.7084-1.0235,2.2241,0,2.9332
			c17.1179,11.8628,16.3921,11.6059,17.3051,11.6059c0.9844,0,1.7842-0.8001,1.7842-1.7844c0-0.203,0-0.3693,0-0.5194
			c0-0.5706,0-0.7901,0-0.811c0-0.7285,0-2.0378,0-4.2802c19.5078-1.2163,35.0069-17.4707,35.0069-37.2802
			C99.9536,51.4079,83.1957,34.6423,62.5981,34.6423z"/>
		<path fill="#ffffff" d="M69.6826,71.9978c0-2.729-1.544-5.0962-3.8052-6.2796L65.121,52.1335
			c-0.0761-1.29-1.1152-2.3537-2.435-2.4175c-1.4141-0.0683-2.6153,1.0225-2.6836,2.4361l-0.6543,13.5512
			c-2.2774,1.1783-3.835,3.5538-3.835,6.2945c0,3.9128,3.1724,7.0851,7.085,7.0851S69.6826,75.9106,69.6826,71.9978z"/>
	</g>
</g>
</svg>
