<?xml version="1.0" encoding="utf-8"?>
<!-- Generator: Adobe Illustrator 19.1.0, SVG Export Plug-In . SVG Version: 6.00 Build 0)  -->
<svg version="1.2" baseProfile="tiny" xmlns="http://www.w3.org/2000/svg" xmlns:xlink="http://www.w3.org/1999/xlink" x="0px"
	 y="0px" width="64px" height="64px" viewBox="0 0 64 64" xml:space="preserve">
<g id="box">
	<rect fill="none" width="64" height="64"/>
</g>
<g id="Production">
	<path fill="#ffffff" d="M52,14v-2.5801L44.2656,7H14.2935c-4.502,0-8.2217,3.5293-8.2925,7.8667
		c-0.0469,2.8745,1.4629,5.5679,3.9409,7.0288c1.1167,0.6587,2.0552,1.0723,2.8096,1.4048
		c1.7856,0.7871,1.9727,0.8696,1.7974,2.4756L13.123,37.894C13.1157,37.9541,13.0649,38,13,38c-2.2056,0-4,1.7944-4,4v11
		c0,2.2056,1.7944,4,4,4h20c2.2056,0,4-1.7944,4-4V42c0-2.2056-1.7944-4-4-4h-6.7407l-0.1191-0.1343L27.0656,30h1.2665
		c2.0278,0,3.7358-1.5186,3.9727-3.5327L32.7126,23h11.553L52,18.5801V16h10v-2H52z M35,53c0,1.103-0.897,2-2,2H13
		c-1.103,0-2-0.897-2-2v-8h24V53z M30.3184,26.2339C30.1997,27.2407,29.3462,28,28.332,28h-1.0311l0.5883-5h2.8098L30.3184,26.2339z
		 M38,21H26.1108l-1.957,16.6323c-0.0703,0.6011,0.1196,1.2051,0.5215,1.6567S25.6548,40,26.2593,40H33c1.103,0,2,0.897,2,2v1H11v-1
		c0-1.103,0.897-2,2.0039-2c1.0747,0,1.98-0.8047,2.1055-1.8726l1.4268-12.1265c0.335-3.0708-1.127-3.7148-2.978-4.5308
		c-0.7061-0.3115-1.585-0.6987-2.6006-1.2974c-1.8589-1.0962-2.9922-3.1172-2.9565-5.2734C8.0537,11.6465,10.8765,9,14.2935,9H38V21
		z M50,17.4199L43.7344,21H40V9h3.7344L50,12.5801V17.4199z"/>
</g>
</svg>

