<?xml version="1.0" encoding="utf-8"?>
<!-- Generator: Adobe Illustrator 18.1.1, SVG Export Plug-In . SVG Version: 6.00 Build 0)  -->
<svg version="1.2" baseProfile="tiny" xmlns="http://www.w3.org/2000/svg" xmlns:xlink="http://www.w3.org/1999/xlink" x="0px"
	 y="0px" width="128px" height="128px" viewBox="0 0 128 128" xml:space="preserve">
<g id="_x31_28px_boxes" display="none">
	<rect display="inline" fill="none" width="128" height="128"/>
</g>
<g id="Production">
	<g>
		<path fill="#ffffff" d="M96.3177,40.6142c8.2633-13.6908-4.1866-24.5922-21.6171-27.2062
			c-1.3888-0.2073-2.5896,0.9824-2.3915,2.3744C74.7153,32.6922,84.016,35.6939,96.3177,40.6142z"/>
		<path fill="#ffffff" d="M85.0447,43.062c-2.0405-0.2768-4.1099,1.9105-3.0041,4.1423c4.727,9.5406,9.7855,12.6628,16.0588,16.8566
			c7.6206-2.6631,17.6878-8.3737,16.6071-26.381c-0.0708-1.1801-1.5641-3.157-3.6676-2.5752
			c-5.0498,1.396-10.3242,7.9573-12.7328,11.2862C95.1876,45.4039,89.2487,43.6352,85.0447,43.062z"/>
		<path fill="#ffffff" d="M116.8747,64.5482c-7.3529,0.1091-17.5304,5.3851-19.9423,6.4864
			c-5.1331-3.1152-11.2496-6.6763-16.3162-7.3751c-1.2112-0.1666-2.9333,0.8898-2.8057,2.6316
			c0.401,5.4806,3.2357,12.0935,8.431,19.6828c-2.2838,2.0236-6.0337,4.1393-11.6205,5.4469
			c3.3256,0.988,6.6827,2.3616,10.1756,4.4856c3.6202-1.8317,6.9345-4.7275,8.6976-6.7951
			c10.6823-1.1443,23.1877-8.5967,25.8414-21.5941C119.5821,66.3104,118.5306,64.5288,116.8747,64.5482z"/>
		<path fill="#ffffff" d="M54.6657,91.7054c-5.3692-1.1334-9.3633-2.6049-12.8921-5.7315
			c5.1955-7.5893,8.0302-14.2022,8.4312-19.6827c0.1148-1.5702-1.2486-2.8461-2.8057-2.6317
			c-5.0668,0.6987-11.1831,4.2599-16.3163,7.3751c-3.1861-1.4549-12.6871-6.3788-19.9422-6.4864
			c-1.5567-0.0354-2.7797,1.4087-2.461,2.969c2.4502,12.0011,14.1153,20.3372,25.8413,21.5938
			c3.5838,4.2036,7.7142,6.877,13.7243,8.8554c-4.533,2.2585-8.0672,4.7141-12.088,9.5843
			c-0.012,0.0147-0.0379,0.0464-0.0497,0.0613c-3.525,4.4331,3.1808,9.7755,6.7108,5.3359l0.0488-0.0615
			c6.0474-7.6053,13.339-9.8216,21.1405-11.4232c8.0293,1.6484,15.0536,3.7683,21.1404,11.4232l0.049,0.0615
			c3.5248,4.4332,10.2409-0.8962,6.7108-5.3359c-0.0119-0.0149-0.0374-0.0469-0.0497-0.0613
			C81.3469,95.2493,70.8966,95.1331,54.6657,91.7054z"/>
		<path fill="#ffffff" d="M55.7061,15.7824c0.1978-1.3907-1.0008-2.5817-2.3916-2.3744
			c-17.0021,2.5504-29.9552,13.3936-21.6169,27.2062C43.2659,35.9868,53.2452,33.076,55.7061,15.7824z"/>
		<path fill="#ffffff" d="M29.9157,64.0609c6.6295-4.3704,11.0449-7.4317,16.059-16.8566c1.1551-2.1716-0.8083-4.4399-3.0042-4.1423
			c-4.2041,0.5732-10.1429,2.3419-13.2613,3.3289c-2.4086-3.3289-7.683-9.8902-12.7329-11.2862
			c-1.4961-0.4136-3.4977,0.3694-3.6675,2.5752C11.6069,59.8035,28.7152,63.4583,29.9157,64.0609z"/>
	</g>
</g>
</svg>
