<?xml version="1.0" encoding="utf-8"?>
<!-- Generator: Adobe Illustrator 18.1.1, SVG Export Plug-In . SVG Version: 6.00 Build 0)  -->
<svg version="1.2" baseProfile="tiny" xmlns="http://www.w3.org/2000/svg" xmlns:xlink="http://www.w3.org/1999/xlink" x="0px"
	 y="0px" width="128px" height="128px" viewBox="0 0 128 128" xml:space="preserve">
<g id="_x31_28px_boxes">
	<rect fill="none" width="128" height="128"/>
</g>
<g id="Production">
	<g>
		<path fill="#ffffff" d="M38.5443,78.823c-0.1439,3.1006,0.1456,5.3984,0.9365,8.1776h49.0171
			c1.1284-3.9651,1.1536-9.1002,0.316-12.7512C67.1561,69.4897,57.1823,82.6461,38.5443,78.823z"/>
		<circle fill="#ffffff" cx="65.6483" cy="55.6161" r="3.7944"/>
		<circle fill="#ffffff" cx="54.2389" cy="67.4972" r="5.1487"/>
		<path fill="#ffffff" d="M106.2885,119.8991l-9.6373-21.5063c3.0632-5.4287,4.8145-11.6919,4.8145-18.3573
			c0-15.0554-9.1481-28.0771-21.4663-33.893V27.3934c0-2.071-1.679-3.75-3.75-3.75H51.7293c-2.071,0-3.75,1.679-3.75,3.75v18.7491
			C36.1754,51.7156,26.513,64.0121,26.513,80.0355c0,6.6653,1.7512,12.9285,4.8145,18.3573l-9.6374,21.5063
			c-2.431,5.4256,5.7784,9.1142,8.2132,3.6805l7.6297-17.0264c14.6402,14.6064,38.2598,14.6197,52.9126,0l7.6298,17.0264
			C100.4541,128.888,108.8013,125.5068,106.2885,119.8991z M53.0931,52.1016c1.439-0.5618,2.3862-1.9485,2.3862-3.4933V31.1434
			h17.0201v17.4649c0,1.5448,0.9472,2.9315,2.3862,3.4933c11.5907,4.5247,19.0801,15.4896,19.0801,27.9339
			c0,4.0571-0.8118,7.9277-2.2788,11.4602H36.2918c-1.467-3.5325-2.2788-7.4031-2.2788-11.4602
			C34.013,67.5912,41.5024,56.6263,53.0931,52.1016z M42.1032,100.4957h6.7239c8.8904,6.6055,21.2119,6.7706,30.3247,0h6.7238
			C74.0101,113.1803,53.9765,113.1882,42.1032,100.4957z"/>
		<path fill="#ffffff" d="M73.7208,15.7142c0-2.0959-1.699-3.7947-3.7947-3.7947c-2.0957,0-3.7944,1.6988-3.7944,3.7947
			c0,2.1287,1.7462,3.7945,3.7944,3.7945C71.9738,19.5087,73.7208,17.8436,73.7208,15.7142z"/>
		<circle fill="#ffffff" cx="56.5328" cy="6.6689" r="4.9184"/>
	</g>
</g>
</svg>
