<?xml version="1.0" encoding="utf-8"?>

<svg version="1.2" baseProfile="tiny" xmlns="http://www.w3.org/2000/svg" xmlns:xlink="http://www.w3.org/1999/xlink" x="0px"
	 y="0px" width="128px" height="128px" viewBox="0 0 128 128" xml:space="preserve">
<g id="_x31_28px_boxes">
	<rect fill="none" width="128" height="128"/>
</g>
<g id="Production">
	<g>
		<path fill="#ffffff" d="M21.9958,84.347c0,1.3861,1.1197,2.5979,2.6023,2.5979l13.8287-0.0063
			c0.0097-0.169,0.0271-0.3085,0.0397-0.402c0.1473-3.0407,1.3205-5.7913,3.1773-7.9222h-19.648V84.347z"/>
		<path fill="#ffffff" d="M126.1607,67.6321c-1.6936-1.8694-4.0801-3.4675-5.6111-4.4761
			c-0.2437-3.2171-1.0645-7.0973-2.8154-10.7322c-2.0205-4.3092-6.142-8.7555-12.4022-8.7489H94.1877
			c-1.2235,0.1801-2.088,1.1395-2.216,2.2838v27.7354c0,2.3527-3.5629,2.3574-3.5629,0l-0.0123-39.9644
			c0-1.4247-1.1597-2.5981-2.6094-2.5981c-4.2322,0-67.656-0.0372-71.887-0.0372c-2.7485,0.0062-2.8509,4.0642-0.141,4.2443
			l0.141,0.0093c15.0435,0.9983,29.7005,1.9709,45.0477,2.9894c-0.233,2.4884-2.3257,4.4364-4.8752,4.4364H21.9958v6.2403H8.0086
			c-2.6645,0.0064-2.7949,3.9546-0.1419,4.1371l0.1419,0.0097c18.4993,1.2692,12.4966,0.8573,45.0477,3.0901
			c-0.2301,2.4913-2.3238,4.4431-4.8757,4.4431H21.9958v6.2404H2.1166c-2.7428,0.0049-2.8396,4.0688-0.1252,4.23l0.1252,0.0072
			l19.8869,1.1805l31.0518,1.8437c-0.0029,0.0277-0.0072,0.0548-0.0106,0.0824c6.1657,0.7794,10.9883,5.8692,11.3136,12.2403
			c0.0141,0.0964,0.032,0.2379,0.0422,0.4074l31.4267-0.015c0.0058-0.0867,0.0136-0.1627,0.0213-0.2252
			c0.126-3.3464,1.5085-6.4733,3.9006-8.815c2.4318-2.38,5.6479-3.6942,9.0567-3.6996h0.0053h0.0056
			c3.4057,0.0054,6.6208,1.3196,9.0526,3.6996c2.3838,2.3324,3.7659,5.4429,3.903,8.7854c0.0087,0.0649,0.0174,0.1473,0.0242,0.2427
			l2.5338-0.0014c2.0117,0,3.6697-1.6338,3.6697-3.6671V71.895C127.9138,69.7131,126.9396,68.5898,126.1607,67.6321z
			 M100.249,64.0629V51.0251h5.083c2.5025,0.0096,4.1937,1.5101,5.8012,4.6228c1.2985,2.6093,1.9505,5.9932,2.092,8.415H100.249z"/>
		<path fill="#ffffff" d="M118.5136,86.8975c-0.1533-5.242-4.4213-9.4521-9.7025-9.4608c-5.2879,0.0087-9.5508,4.2188-9.7019,9.4608
			c0,0.0043-0.001,0.0077-0.001,0.0121c-0.0024,0.0901-0.0247,0.1753-0.0247,0.2635c0,5.3742,4.3559,9.7233,9.7276,9.7325
			c5.3742-0.0092,9.7301-4.3583,9.7301-9.7325c0-0.0916-0.0247-0.1793-0.0276-0.2727
			C118.5136,86.8994,118.5136,86.8984,118.5136,86.8975z M108.8111,91.1763c-2.2024,0-4.0013-1.7942-4.01-4.0032
			c0-0.1037,0.0141-0.1928,0.03-0.2664c0.0126-0.0562,0.0262-0.1042,0.0364-0.1381c0.2201-2.0573,1.9081-3.6031,3.9436-3.6031
			c2.0356,0,3.7233,1.5453,3.9437,3.6012c0.0102,0.0334,0.0235,0.0809,0.0358,0.1361c0.0165,0.0751,0.0311,0.1666,0.0311,0.2742
			C112.8124,89.3825,111.0133,91.1763,108.8111,91.1763z"/>
		<path fill="#ffffff" d="M61.1011,86.7768c-0.2178-5.1867-4.4417-9.3314-9.6884-9.3401c-0.0175,0-0.0349,0.001-0.0524,0.0015
			c-5.2033,0.0366-9.427,4.1644-9.6356,9.3386c-0.0026,0.0548-0.0106,0.1071-0.0179,0.1599
			c-0.0106,0.0785-0.0213,0.156-0.0213,0.2364c0,5.3742,4.3559,9.7233,9.7272,9.7325c5.3741-0.0092,9.73-4.3583,9.73-9.7325
			c0-0.0833-0.0121-0.1642-0.0237-0.2456C61.1117,86.8781,61.1035,86.8287,61.1011,86.7768z M51.4127,91.1763
			c-2.2017,0-4.0009-1.7938-4.0101-4.0032c0-0.0887,0.0097-0.1671,0.0218-0.2388c0.017-0.0974,0.0397-0.1797,0.0582-0.2422
			c0.0046-0.0155,0.0096-0.0306,0.0135-0.0465c0.281-2.0172,1.9266-3.4801,3.9166-3.4801c1.9984,0,3.6474,1.4683,3.9213,3.4917
			c0.0034,0.015,0.0083,0.03,0.0126,0.0445c0.017,0.0596,0.0378,0.1371,0.0541,0.2287c0.0128,0.0727,0.0225,0.1545,0.0225,0.2466
			C55.4145,89.3821,53.6153,91.1763,51.4127,91.1763z"/>
	</g>
</g>
</svg>
