<?xml version="1.0" encoding="utf-8"?>
<!-- Generator: Adobe Illustrator 18.1.1, SVG Export Plug-In . SVG Version: 6.00 Build 0)  -->
<svg version="1.2" baseProfile="tiny" xmlns="http://www.w3.org/2000/svg" xmlns:xlink="http://www.w3.org/1999/xlink" x="0px"
	 y="0px" width="128px" height="128px" viewBox="0 0 128 128" xml:space="preserve">
<g id="_x31_28px_boxes" display="none">
	<rect display="inline" fill="none" width="128" height="128"/>
</g>
<g id="Production">
	<g>
		<path fill="#ffffff" d="M100.0464,17.9617H27.9536c-2.75,0-5,2.25-5,5v82.0766c0,2.75,2.25,5,5,5h72.0928c2.75,0,5-2.25,5-5
			V22.9617C105.0464,20.2117,102.7964,17.9617,100.0464,17.9617z M54.9482,29.575h18.1031c7.1767,0,7.1842,10.8621,0,10.8621
			H54.9482C47.7715,40.4371,47.764,29.575,54.9482,29.575z M74.2393,70.4377l3.1196,21.6829l-3.0903,3.0969l-8.1065-16.7029
			l-7.2549,7.2549l0.8853,6.0046l-2.272,2.2713l-3.5478-8.4639l-8.6011-3.6853l2.272-2.2708l5.955,0.9336l7.3033-7.3029
			L44.1992,65.149l3.0982-3.0887l21.6831,3.1165c3.3235-3.3228,11.4436-12.7903,14.7461-9.4878
			C87.0293,58.9917,77.5822,67.0949,74.2393,70.4377z"/>
	</g>
</g>
</svg>
