<?xml version="1.0" encoding="utf-8"?>
<!-- Generator: Adobe Illustrator 18.1.0, SVG Export Plug-In . SVG Version: 6.00 Build 0)  -->
<svg version="1.2" baseProfile="tiny" xmlns="http://www.w3.org/2000/svg" xmlns:xlink="http://www.w3.org/1999/xlink" x="0px"
	 y="0px" width="64px" height="64px" viewBox="0 0 64 64" xml:space="preserve">
<g id="_x36_4px_boxes">
	<rect fill="none" width="64" height="64"/>
</g>
<g id="Production">
	<g>
		<path fill="#ffffff" d="M12.3633,42c1.383-5.823,6.7441-10.2988,13.2973-9.9665c-0.9105,0.9399-1.7035,1.9899-2.3718,3.1238
			c-3.7039,0.6425-6.7175,3.32-7.8278,6.8427h2.1279c0.8304-2.0435,2.4811-3.6634,4.542-4.459
			c-0.5469,1.4055-0.9135,2.8987-1.055,4.459h2.002c0.7494-7.2582,6.9659-13,14.422-13c7.4886,0,13.6689,5.7072,14.422,13h2.002
			c-0.7613-8.3969-7.8322-15-16.424-15c-3.6718,0-7.0557,1.2204-9.7999,3.2565C26.8228,30.0961,25.923,30,25,30
			c-7.2438,0-13.3038,5.1617-14.6976,12H12.3633z"/>
		<path fill="#ffffff" d="M46.8698,42h2.0209C48.1519,36.3666,43.3318,32,37.5,32c-5.689,0-10.6388,4.2652-11.3906,10h2.0209
			c0.7453-4.667,4.8001-8,9.3698-8C42.2267,34,46.1469,37.4737,46.8698,42z"/>
		<path fill="#ffffff" d="M37.5,37c-3.0201,0-5.6295,2.0995-6.3183,5h2.0947c1.4473-4.0535,7.0509-3.916,8.4471,0h2.0947
			C43.121,39.0644,40.4764,37,37.5,37z"/>
		<path fill="#ffffff" d="M2,44v1.99h4.9409c1.6785,1.2516,3.7065,2.7691,5.3926,4.01c44.4883,0-5.4132,0,39.333,0
			c0.9971-0.7366,1.5425-1.1466,5.3926-4.01H62V44C34.2852,44,30.2295,44,2,44z M51.0054,48c-17.0478,0-21.7056,0-38.0107,0
			c-0.9695-0.7138-0.619-0.4638-2.6963-2.01c4.9093,0,38.5609,0,43.4033,0C52.8546,46.6216,52.2458,47.0872,51.0054,48z"/>
		<path fill="#ffffff" d="M18.0122,20.1724c-0.031,1.1062,0.4659,2.0186,0.9589,2.8276h2.3268
			c-0.6161-1.1221-1.3096-1.9385-1.2867-2.772c0.048-1.7169,2.9336-2.743,2.8916-5.5098c-0.0161-1.0609-0.5079-1.9371-0.9857-2.7183
			h-2.3238c0.5558,1.0251,1.2968,1.9228,1.3094,2.7485C20.9301,16.4843,18.0885,17.462,18.0122,20.1724z"/>
		<path fill="#ffffff" d="M30.0122,18.1724c-0.031,1.1062,0.4659,2.0186,0.9589,2.8276h2.3268
			c-0.6161-1.1221-1.3096-1.9385-1.2867-2.772c0.048-1.7169,2.9336-2.743,2.8916-5.5098c-0.0161-1.0609-0.5079-1.9371-0.9857-2.7183
			h-2.3238c0.5558,1.0251,1.2968,1.9228,1.3094,2.7485C32.9301,14.4843,30.0885,15.462,30.0122,18.1724z"/>
		<path fill="#ffffff" d="M42.0122,20.1724c-0.031,1.1062,0.4659,2.0186,0.9589,2.8276h2.3268
			c-0.6161-1.1221-1.3096-1.9385-1.2867-2.772c0.048-1.7169,2.9336-2.743,2.8916-5.5098c-0.0161-1.0609-0.5079-1.9371-0.9857-2.7183
			h-2.3238c0.5558,1.0251,1.2968,1.9228,1.3094,2.7485C44.9301,16.4843,42.0885,17.462,42.0122,20.1724z"/>
	</g>
</g>
</svg>

