<?xml version="1.0" encoding="utf-8"?>
<!-- Generator: Adobe Illustrator 18.1.1, SVG Export Plug-In . SVG Version: 6.00 Build 0)  -->
<svg version="1.2" baseProfile="tiny" xmlns="http://www.w3.org/2000/svg" xmlns:xlink="http://www.w3.org/1999/xlink" x="0px"
	 y="0px" width="128px" height="128px" viewBox="0 0 128 128" xml:space="preserve">
<g id="_x31_28px_boxes">
	<rect fill="none" width="128" height="128"/>
</g>
<g id="Production">
	<g>
		<path fill="#ffffff" d="M112.5737,49.5318L97.8208,29.5357c-0.3589-0.4863-1.0439-0.5898-1.5303-0.2307l-11.0323,8.1397
			c-0.0979,0.0722-2.4194,1.8093-3.7685,4.892c-0.6272,1.4341-1.0979,3.3001-0.8943,5.5069
			c-4.1094-2.8963-8.9522-4.833-14.2144-5.4732l-13.677-25.4773l0.1196-0.0641c1.8249-0.9795,2.5099-3.253,1.5303-5.0777
			c-0.9795-1.8249-3.2528-2.5098-5.0776-1.5303l-0.1196,0.0642L17.3095,27.3819l-0.12,0.0645
			c-1.8249,0.9795-2.5099,3.2529-1.5303,5.0776c0.6766,1.2605,1.9702,1.977,3.3072,1.977c0.7314,0,1.2886-0.1877,1.8904-0.5112
			L34.517,59.4354c-2.1798,4.344-3.3236,9.1609-3.3236,14.0564c0,9.1755,3.9619,17.4426,10.2645,23.1816l-10.0115,15.7947
			c-1.5801,2.4932,0.2157,5.7576,3.1674,5.7576h55.8679c0.0015-0.0003,0.0032-0.0003,0.0051,0c3.0468,0,4.807-3.4451,3.0649-5.9109
			L83.637,96.6732c6.3025-5.7388,10.2644-14.0061,10.2644-23.1814c0-4.4165-0.9158-8.6275-2.5696-12.4492
			c1.5447,0.4209,2.9805,0.4536,4.1934,0.3161c3.3428-0.3791,5.6875-2.0847,5.7854-2.1574l11.0327-8.1397
			C112.8294,50.7027,112.9324,50.0181,112.5737,49.5318z M83.6648,110.7257H41.4306l6.1434-9.6924
			c4.4519,2.4299,9.5542,3.8125,14.9734,3.8125s10.5215-1.3826,14.9734-3.8127L83.6648,110.7257z M62.5474,97.3458
			c-13.1532,0-23.854-10.701-23.854-23.854c0-4.2769,1.1457-8.4722,3.3133-12.1326l1.078-1.8206L27.465,30.4425l18.6312-10.002
			l15.6325,29.1201l2.107,0.1119c12.6536,0.6721,22.5657,11.1347,22.5657,23.8193C86.4014,86.6448,75.7005,97.3458,62.5474,97.3458z
			"/>
		<circle fill="#ffffff" cx="67.3194" cy="74.8162" r="5.5"/>
		<circle fill="#ffffff" cx="53.8194" cy="63.8162" r="4"/>
		<path fill="#ffffff" d="M62.5474,92.8458c7.1472,0,13.3974-3.8972,16.7492-9.6753H45.7981
			C49.1499,88.9486,55.4002,92.8458,62.5474,92.8458z"/>
	</g>
</g>
</svg>
