<?xml version="1.0" encoding="utf-8"?>
<!-- Generator: Adobe Illustrator 18.1.0, SVG Export Plug-In . SVG Version: 6.00 Build 0)  -->
<svg version="1.2" baseProfile="tiny" xmlns="http://www.w3.org/2000/svg" xmlns:xlink="http://www.w3.org/1999/xlink" x="0px"
	 y="0px" width="64px" height="64px" viewBox="0 0 64 64" xml:space="preserve">
<g id="_x36_4px_boxes">
	<rect fill="none" width="64" height="64"/>
</g>
<g id="Production">
	<g>
		<path fill="#ffffff" d="M19.7004,28.2206c0.6458,0.4464,1.3158,0.8962,2.0112,1.3451c0.1594-2.7911-0.733-4.09,0.762-5.8015
			c2.334-2.6706-0.8349-4.2052,1.4258-6.3486c2.1315-2.0269-0.3828-3.4389,2.0342-5.8721C27.6471,9.8165,27.9665,4,32,4
			c3.8451,0,4.5605,5.6355,5.584,7.0083c0.75,1,1.7501,1.3193,1.6143,3.4375c-0.2622,4.032,2.3992,2.2588,1.6035,5.8823
			c-0.516,2.3455,0.1815,2.7402,0.9943,3.7545c0.5067-0.4082,1.028-0.8237,1.5619-1.2454c-0.7718-0.966-0.8998-0.7281-0.603-2.0798
			c0.1631-0.7393,0.3643-1.6587,0.0273-2.7847c-0.3213-1.0742-0.9131-1.6362-1.3047-2.0078
			c-0.1006-0.0957-0.2383-0.2266-0.2539-0.2354c-0.2665-1.3241,0.7348-3.1054-1.7373-5.5947C38.2917,8.935,37.5562,2,32,2
			c-5.5424,0-6.3334,6.9769-7.4863,8.1348c-2.4804,2.4977-1.4943,4.3113-1.7227,5.5518c-0.0303,0.0518-0.168,0.1826-0.2686,0.2783
			c-1.5049,1.428-1.7073,2.8434-1.2773,4.7925c0.2722,1.24,0.121,1.2339-0.2783,1.6919
			C19.4165,24.2257,19.5424,25.3012,19.7004,28.2206z"/>
		<path fill="#ffffff" d="M50.751,19.7007c-6.374,4.706-14.8861,11.4846-20.1825,17.4133
			c-3.7973-2.6819-10.9611-5.4786-19.2208-12.7941l-1.3428,1.4819c12.3195,11.492,7.7631,16.7049,9.541,22.9365
			c1.5092,5.2901,5.8069,8.8499,11.4541,9.2249c0,4.9037,0-1.8324,0,3.0369h2c0-7.2603,0,3.2132,0-3.0399
			c5.7091-0.3947,10.142-4.2269,11.6402-10.3644c1.521-6.237-3.0157-18.6275,7.2934-26.2827L50.751,19.7007z M42.6969,47.1216
			c-0.7757,3.1798-2.4723,5.9972-5.3136,7.5602c3.3866-5.4042,0.1449-12.0083-5.2217-16.3661
			c3.5962-3.8792,8.6536-8.2504,12.7651-11.5759C41.4956,34.2431,43.7141,42.9524,42.6969,47.1216z M23.6481,52.3159
			c-4.8047-5.661-0.6803-10.0685-4.4183-17.9766c-0.3855-0.8156-0.8513-1.6652-1.4221-2.5557
			c7.102,4.8415,10.1017,5.1157,14.5056,9.3212c4.9849,4.7604,4.5735,9.0275,4.2141,10.5181C36.0001,53.814,34.2296,56,32,56
			C28.7384,56,25.7289,54.7674,23.6481,52.3159z"/>
	</g>
</g>
</svg>

