<?xml version="1.0" encoding="utf-8"?>
<!-- Generator: Adobe Illustrator 18.1.1, SVG Export Plug-In . SVG Version: 6.00 Build 0)  -->
<svg version="1.2" baseProfile="tiny" xmlns="http://www.w3.org/2000/svg" xmlns:xlink="http://www.w3.org/1999/xlink" x="0px"
	 y="0px" width="128px" height="128px" viewBox="0 0 128 128" xml:space="preserve">
<g id="_x31_28px_boxes">
	<rect fill="none" width="128" height="128"/>
</g>
<g id="Production">
	<g>
		<path fill="#ffffff" d="M51.6593,66.661c-2.9917,0-5.4155,2.4248-5.4155,5.4175c0,2.9888,2.4238,5.4134,5.4155,5.4134
			c2.9868,0,5.4148-2.4246,5.4148-5.4134C57.0741,69.0858,54.6461,66.661,51.6593,66.661z"/>
		<path fill="#ffffff" d="M75.9513,77.4919c2.9861,0,5.4106-2.4246,5.4106-5.4134c0-2.9927-2.4245-5.4175-5.4106-5.4175
			c-2.9922,0-5.4172,2.4248-5.4172,5.4175C70.5341,75.0673,72.9591,77.4919,75.9513,77.4919z"/>
		<path fill="#ffffff" d="M103.1671,51.871c-0.0329-0.0014-0.0659-0.002-0.0991-0.002h-0.0012l-1.8594,0.001
			C100.9899,35.5619,83.025,18.8497,63.048,18.8497c-19.9532,0-35.8445,16.8875-36.0752,33.0204l-2.0401-0.0011
			c-0.0356-0.0034-0.0669,0.0005-0.1003,0.002c-5.8003,0.2333-10.5164,5.3897-10.5125,11.4945l0.0044,9.5304
			c0.0032,6.0831,4.5315,10.8478,10.3091,10.8478c0.1184,0,0.2371-0.002,0.3567-0.0064l6.8692,0.0034
			c3.445,9.0223,10.2402,17.5302,18.1809,22.5889c-0.1985-2.6503,0.5908-5.1914,2.1059-7.3218
			c-8.6518-6.4164-15.0376-16.6995-15.8371-29.1686c3.8745-2.5649,9.6989-8.2861,12.7412-20.445c0,0,10.4848,15.8119,42.665,14.2521
			C92.2828,78.035,86.9083,89.738,76.9928,97.896c3.0352-0.2698,10.1755-1.1328,12.6331-2.8926
			c1.3925-1.8763,3.142-4.3884,6.1584-11.0669c0.0254-0.0649,0.0508-0.1303,0.0757-0.1953h0.0127l4.8498-0.0024
			c-1.7827,4.1362-4.7321,10.4175-7.6147,14.059c-1.3074,1.6514-4.8872,2.8526-9.2048,3.6548
			c-3.3716,0.6263-7.1287,0.9986-10.523,1.1646c-1.5872-2.9539-5.2158-4.6035-8.8433-4.6035c-5.2985,0-9.5918,3.3689-9.5918,7.5205
			c0,4.1412,4.2859,7.521,9.5918,7.521c4.3387,0,8.118-2.2856,9.251-5.5342c6.6472-0.3363,19.0701-1.4521,23.1917-6.6587
			c3.906-4.9346,7.6948-13.6641,9.2758-17.5376c0.9407-0.2793,1.8226-0.6919,2.6272-1.2197
			c2.8978-1.8999,4.7913-5.2781,4.7933-9.2093l0.0044-9.53C113.6835,57.2607,108.9674,52.1041,103.1671,51.871z"/>
	</g>
</g>
</svg>
