<?xml version="1.0" encoding="utf-8"?>
<!-- Generator: Adobe Illustrator 18.1.1, SVG Export Plug-In . SVG Version: 6.00 Build 0)  -->
<svg version="1.2" baseProfile="tiny" xmlns="http://www.w3.org/2000/svg" xmlns:xlink="http://www.w3.org/1999/xlink" x="0px"
	 y="0px" width="64px" height="64px" viewBox="0 0 64 64" xml:space="preserve">

<g id="Production">
	<g>
		<path fill="#ffffff" d="M53,7c-1.6567,0-3,1.3431-3,3c0,0.5444,0.156,1.0478,0.4097,1.4879l-8.3237,9.7224
			c-1.1197-0.4362-2.2972-0.1687-3.1226,0.5984l-13.002-6.4272C26.2051,13.4999,24.7382,12,23,12c-1.6567,0-3,1.3431-3,3
			c0,0.6271,0.1936,1.2083,0.5225,1.6896l-8.7375,12.4273C9.806,28.5781,8,30.0826,8,32c0,1.6569,1.3433,3,3,3s3-1.3431,3-3
			c0-0.6536-0.2146-1.2538-0.5693-1.7466L22.144,17.861C22.417,17.9427,22.7004,18,23,18c0.8015,0,1.5256-0.319,2.0637-0.8311
			l12.9783,6.4157C37.7764,25.4712,39.2433,27,41,27c1.6567,0,3-1.3431,3-3c0-0.5403-0.1543-1.04-0.4041-1.4779l8.3293-9.729
			C53.9347,13.5671,56,12.0633,56,10C56,8.3431,54.6567,7,53,7z"/>
		<path fill="#ffffff" d="M9,57h12V43H9V57z M11,45h8v10h-8V45z"/>
		<path fill="#ffffff" d="M43,57h12V38H43V57z M45,40h8v15h-8V40z"/>
		<path fill="#ffffff" d="M26,57h12V31H26V57z M28,33h8v22h-8V33z"/>
	</g>
</g>
</svg>
