<?xml version="1.0" encoding="utf-8"?>
<!-- Generator: Adobe Illustrator 18.1.1, SVG Export Plug-In . SVG Version: 6.00 Build 0)  -->
<svg version="1.2" baseProfile="tiny" xmlns="http://www.w3.org/2000/svg" xmlns:xlink="http://www.w3.org/1999/xlink" x="0px"
	 y="0px" width="128px" height="128px" viewBox="0 0 128 128" xml:space="preserve">
<g id="box">
	<rect fill="none" width="128" height="128"/>
</g>
<g id="Production">
	<g>
		<path fill="#ffffff" d="M106.8928,55.8455c-0.0727,0-0.1373,0.0378-0.2099,0.0432v-0.0808c0-4.9834-4.2116-8.8096-8.8099-8.8096
			c-4.6395,0-8.815,3.8008-8.815,8.8096v24.2358c0,2.7239,1.2623,5.1277,3.2003,6.7454
			c-3.2938,6.6836-8.8783,11.036-15.8807,13.2805c-1.798-2.6189-4.8153-4.3443-8.2338-4.3443c-5.5071,0-9.9698,4.4627-9.9698,9.9537
			c0,5.5288,4.4627,9.978,9.9698,9.978c4.7588,0,8.729-3.3296,9.725-7.8003c10.8371-3.1898,18.3619-10.1702,22.2842-19.3342
			c3.7547-1.0122,6.5299-4.4036,6.5299-8.4788v-0.0808c0.0726,0.0029,0.1372,0.0432,0.2099,0.0432
			c2.8047,0,5.0845-2.2771,5.0845-5.0846V60.9302C111.9773,58.1255,109.6975,55.8455,106.8928,55.8455z"/>
		<path fill="#ffffff" d="M33.9194,47.8865c-2.8607-1.3737-5.953-1.1036-8.4598,0.4763c-2.4844,1.5586-4.1451,4.2986-4.1451,7.4451
			v0.0781c-0.07-0.0027-0.1292-0.0405-0.2046-0.0405c-2.8047,0-5.0872,2.28-5.0872,5.0847v13.9913
			c0,2.8075,2.2825,5.0846,5.0872,5.0846c0.0754,0,0.1346-0.0403,0.2046-0.0403v0.0779c0,4.8694,3.9459,8.8154,8.8125,8.8154
			c4.8691,0,8.8151-3.946,8.8151-8.8154V55.8079C38.9421,52.3062,36.8802,49.3049,33.9194,47.8865z"/>
		<path fill="#ffffff" d="M93.8436,42.9363c2.7639-0.8648,5.5246-1.0021,8.7183,0.186
			C98.7506,25.5295,83.1174,12.343,64.3862,12.343c-18.645,0-34.2027,13.052-38.1111,30.5073
			c2.8475-0.8389,5.5893-0.8138,8.5892,0.3096c3.6202-12.9226,15.4284-22.4001,29.5219-22.427
			C78.3909,20.7598,90.1534,30.124,93.8436,42.9363z"/>
	</g>
</g>
</svg>
