<?xml version="1.0" encoding="utf-8"?>
<!-- Generator: Adobe Illustrator 18.1.1, SVG Export Plug-In . SVG Version: 6.00 Build 0)  -->
<svg version="1.2" baseProfile="tiny" xmlns="http://www.w3.org/2000/svg" xmlns:xlink="http://www.w3.org/1999/xlink" x="0px"
	 y="0px" width="128px" height="128px" viewBox="0 0 128 128" xml:space="preserve">
<g id="_x31_28px_boxes" display="none">
	<rect display="inline" fill="none" width="128" height="128"/>
</g>
<g id="Production">
	<g>
		<path fill="#ffffff" d="M49.1586,93.268c-12.9517-5.7209-22.0142-18.6867-22.0142-33.7317V43.0556h-6.886v16.4807
			c0,15.6595,8.273,29.4207,20.676,37.1495v19.4336h8.2242V93.268z"/>
		<path fill="#ffffff" d="M100.8556,59.5363c0,15.0545-9.0742,28.0274-22.0392,33.7427v22.8404h8.2491V96.6858
			c12.403-7.7288,20.6761-21.49,20.6761-37.1495V43.0556h-6.886V59.5363z"/>
		<path fill="#ffffff" d="M89.04,59.5363c0,13.8072-11.233,25.0401-25.04,25.0401S38.9601,73.3435,38.9601,59.5363V43.0556h-6.886
			v16.4807c0,14.1558,9.2616,26.1871,22.0429,30.3582l-0.0287,26.2249h7.4343V90.8142h4.9296v25.3052h7.4346l0.0056-26.2278
			c12.7763-4.1741,22.0335-16.2029,22.0335-30.3553V43.0556H89.04V59.5363z"/>
		<path fill="#ffffff" d="M47.5051,41.6728v16.3367c0,2.5593,2.2566,18.6809,16.4949,18.6809
			c14.3242,0,16.495-15.3567,16.495-18.6809V41.6728c0-1.031-0.6053-1.9658-1.546-2.3874l-13.8788-6.2229
			c-0.681-0.3057-1.4601-0.3057-2.141,0l-13.8781,6.2229C48.1105,39.707,47.5051,40.6418,47.5051,41.6728z M63.9998,38.3176
			l11.2621,5.0496v9.8732c-7.6152-4.0699-14.4955-4.2913-22.5236-0.0002v-9.873L63.9998,38.3176z"/>
		<path fill="#ffffff" d="M22.0974,38.8596c0.0003,0.029,0.0023,0.0586,0.0032,0.0879H35.874l5.234-12.6873
			c1.2518-3.0258-3.0139-5.2414-4.7701-2.4729l-1.8858,2.9744l-6.7482-13.2688c-1.4095-2.7577-5.6045-1.7609-5.6045,1.3472
			L22.0974,38.8596z"/>
		<path fill="#ffffff" d="M93.5478,26.7614l-1.8858-2.9741c-1.7577-2.7709-6.0206-0.5493-4.77,2.4729l5.2342,12.6873h13.7734
			c0.0006-0.0293,0.0027-0.0589,0.0029-0.0879l-0.0019-24.0195c0-3.1072-4.1966-4.1023-5.6044-1.3472L93.5478,26.7614z"/>
	</g>
</g>
</svg>
