<?xml version="1.0" encoding="utf-8"?>
<!-- Generator: Adobe Illustrator 17.1.0, SVG Export Plug-In . SVG Version: 6.00 Build 0)  -->
<!DOCTYPE svg [
	<!ENTITY ns_flows "http://ns.adobe.com/Flows/1.0/">
	<!ENTITY ns_extend "http://ns.adobe.com/Extensibility/1.0/">
	<!ENTITY ns_ai "http://ns.adobe.com/AdobeIllustrator/10.0/">
	<!ENTITY ns_graphs "http://ns.adobe.com/Graphs/1.0/">
]>
<svg version="1.2" baseProfile="tiny" xmlns:x="&ns_extend;" xmlns:i="&ns_ai;" xmlns:graph="&ns_graphs;"
	 xmlns="http://www.w3.org/2000/svg" xmlns:xlink="http://www.w3.org/1999/xlink" xmlns:a="http://ns.adobe.com/AdobeSVGViewerExtensions/3.0/"
	 x="0px" y="0px" width="128px" height="128px" viewBox="0 0 128 128" xml:space="preserve">
<g id="_x31_28px_boxes">
	<rect fill="none" width="128" height="128"/>
</g>
<g id="Production">
	<g>
		<path fill="#ffffff" d="M80.3553,99.0719c-1.0721-0.5984-14.8328-8.135-16.0601-8.8047
			c-1.2274-0.6695-2.6041-0.4472-3.4751,0.4236c-0.8711,0.8711-5.5471,5.5479-5.5471,5.5479
			c-1.981,1.9812-3.7105,2.6974-6.0574,1.1653c-5.9514-3.8862-11.2464-9.1777-15.1387-15.1388
			c-1.5322-2.3465-0.8156-4.0763,1.1656-6.057c0,0,4.6766-4.6764,5.5473-5.5475c0.8711-0.8711,1.0933-2.2478,0.4239-3.4751
			c-0.6695-1.2273-8.2063-14.9879-8.8047-16.06c-0.5982-1.0717-1.8489-2.0244-3.2521-1.856
			c-4.1542,0.4984-7.5621,1.8468-10.2567,4.5415c-9.4666,9.4671-3.9446,30.3377,12.2436,46.526
			c16.1883,16.1881,37.0591,21.7102,46.5259,12.2439c2.6948-2.6949,4.0432-6.1028,4.5419-10.2569
			C82.3799,100.9209,81.427,99.6701,80.3553,99.0719z"/>
		<path fill="#ffffff" d="M80.5683,10.7887c-18.3151,0-33.162,14.8471-33.162,33.1621c0,9.3286,3.8534,17.7561,10.0536,23.7818
			c-1.3844,2.8421-3.9302,5.8776-6.4618,7.1684c-1.9323,1.0022-0.8408,3.454,1.3962,3.242c0,0,7.1387-0.6654,14.6211-3.9182
			c4.1377,1.8551,8.7246,2.8881,13.5529,2.8881c18.3149,0,33.1621-14.8474,33.1621-33.1621
			C113.7304,25.6358,98.8832,10.7887,80.5683,10.7887z M95.552,54.7414c-1.7016,5.3446-6.5244,8.6986-11.9045,9.885
			c8.6852-11.7712-2.9368-25.5274-2.9368-25.5274s3.5711,12.6848,0.4002,15.3176c-3.4806,2.8893-5.9801-3.9478-5.9801-3.9478
			c-2.9644,6.8183-1.9701,11.3368-0.1771,14.177c-4.6006-1.0345-8.5799-3.8103-10.2085-8.4533
			C59.705,41.8231,84.3453,22.4494,84.3453,22.4494s-0.5391,6.8227,2.8265,12.5285C90.5374,40.6839,98.5096,45.4533,95.552,54.7414z
			"/>
	</g>
</g>
</svg>
