<?xml version="1.0" encoding="utf-8"?>
<!-- Generator: Adobe Illustrator 18.1.1, SVG Export Plug-In . SVG Version: 6.00 Build 0)  -->
<svg version="1.2" baseProfile="tiny" xmlns="http://www.w3.org/2000/svg" xmlns:xlink="http://www.w3.org/1999/xlink" x="0px"
	 y="0px" width="128px" height="128px" viewBox="0 0 128 128" xml:space="preserve">
<g id="_x31_28px_boxes">
	<rect fill="none" width="128" height="128"/>
</g>
<g id="Production">
	<g>
		<path fill="#ffffff" d="M69.3815,26.0365c0,0,2.9316,3.8111,3.1207,8.6062h6.7609c-0.1974-15.6287-9.8816-28.219-9.8816-28.219
			s-9.6844,12.5903-9.8818,28.219h6.7608C66.4498,29.8476,69.3815,26.0365,69.3815,26.0365z"/>
		<path fill="#ffffff" d="M86.8417,80.0475c1.1341-0.4517,1.5358-1.8532,0.8303-2.8347L77.0905,60.1107v-7.6633h3.6293
			c1.0357,0,1.875-0.8393,1.875-1.875v-9.5259c0-1.0356-0.8393-1.875-1.875-1.875H58.0426c-1.0355,0-1.875,0.8394-1.875,1.875
			v9.5259c0,1.0357,0.8395,1.875,1.875,1.875h3.6296v7.6638L51.0248,77.3197c-0.779,1.2591,0.1901,2.4446,0.9051,2.7278H86.8417z"/>
		<path fill="#ffffff" d="M81.9156,90.6283v-6.0808H56.8471v6.0808l-10.5257-0.0002c-20.0854,0-30.855,16.8342-30.855,30.9482
			c0,0,8.2539,0,8.991,0c0-8.6555,6.2369-21.9482,21.864-21.9482l10.5257,0.0002v5.7981
			c-13.0696,3.2175-22.3346,10.2803-22.8326,10.6658c-2.1335,1.6501-1.0805,5.4841,1.8355,5.4841h67.0627
			c0.0016-0.0002,0.0033-0.0002,0.0051,0c3.1988,0,3.9136-4.0525,1.7049-5.58c-1.2418-0.9378-10.2449-7.5025-22.7071-10.5704
			v-5.7976l12.5043,0.0003v-9L81.9156,90.6283z"/>
		<path fill="#ffffff" d="M98.9199,103.4508c0,1.0355,0.8401,1.875,1.875,1.875c0.527,0,9.9932-3.4259,10.4898-3.6018
			c0.7486-0.2651,1.2489-0.9731,1.2489-1.7673v-9.396c0-0.7783-0.4806-1.4756-1.208-1.7524l-9.8638-3.7544
			c-1.229-0.4668-2.5419,0.4433-2.5419,1.7524V103.4508z"/>
	</g>
</g>
</svg>
