<?xml version="1.0" encoding="utf-8"?>
<!-- Generator: Adobe Illustrator 18.1.1, SVG Export Plug-In . SVG Version: 6.00 Build 0)  -->
<svg version="1.2" baseProfile="tiny" xmlns="http://www.w3.org/2000/svg" xmlns:xlink="http://www.w3.org/1999/xlink" x="0px"
	 y="0px" width="64px" height="64px" viewBox="0 0 64 64" xml:space="preserve">

<g id="Production">
	<g>
		<path fill="#ffffff" d="M7,14v38h50V14H7z M55,50H9V16h46V50z"/>
		<path fill="#ffffff" d="M44.5,31c2.4814,0,4.5-2.0186,4.5-4.5S46.9814,22,44.5,22S40,24.0186,40,26.5S42.0186,31,44.5,31z
			 M44.5,24c1.3784,0,2.5,1.1216,2.5,2.5S45.8784,29,44.5,29S42,27.8784,42,26.5S43.1216,24,44.5,24z"/>
		<polygon fill="#ffffff" points="25.4688,32.6992 32.3643,42.5498 37.4463,37.4678 44.8149,46 47.4578,46 37.5537,34.5322 
			32.6357,39.4502 25.5312,29.3008 12.9028,46 15.4097,46 		"/>
	</g>
</g>
</svg>
