<?xml version="1.0" encoding="utf-8"?>

<svg version="1.2" baseProfile="tiny" xmlns="http://www.w3.org/2000/svg" xmlns:xlink="http://www.w3.org/1999/xlink" x="0px"
	 y="0px" width="128px" height="128px" viewBox="0 0 128 128" xml:space="preserve">
<g id="_x31_28px_boxes">
	<rect fill="none" width="128" height="128"/>
</g>
<g id="Production">
	<g>
		<path fill="#ffffff" d="M108.3524,19.6456c-5.1719-5.172-14.7923,0.9617-20.2644,6.435L71.6545,42.514l-17.7782-3.7715
			c0.9969-2.1992,0.5978-4.8767-1.2106-6.6851c-2.3314-2.3314-6.1114-2.3314-8.4426,0l-3.8258,3.8257l-14.4405-3.0633
			c-0.6203-0.1314-1.2661,0.0595-1.7148,0.5084l-5.96,5.96c-0.9087,0.9087-0.6529,2.4443,0.501,3.0096l35.6321,17.4555
			L38.7897,75.379L26.306,73.4212c-0.5916-0.0926-1.1924,0.1028-1.6161,0.5262l-4.6149,4.6129
			c-0.9424,0.942-0.6269,2.5418,0.6019,3.0558l18.3355,7.67l7.3653,18.0239c0.5069,1.2398,2.1149,1.5626,3.0613,0.617l4.6159-4.6138
			c0.4195-0.4195,0.616-1.0127,0.5294-1.5996l-1.8584-12.6045l15.5245-15.5248l17.4555,35.635
			c0.562,1.1473,2.0953,1.4153,3.0096,0.501l5.9606-5.9607c0.4489-0.4489,0.6401-1.0943,0.5083-1.7151l-3.0648-14.4392
			l3.8257-3.8257c2.3314-2.3314,2.3314-6.1113,0-8.4426c-1.8086-1.8086-4.4868-2.2075-6.6864-1.21l-3.7733-17.7777l16.435-16.4351
			C107.441,34.3941,113.5288,24.8223,108.3524,19.6456z"/>
	</g>
</g>
</svg>
