<?xml version="1.0" encoding="utf-8"?>
<!-- Generator: Adobe Illustrator 18.1.0, SVG Export Plug-In . SVG Version: 6.00 Build 0)  -->
<svg version="1.2" baseProfile="tiny" xmlns="http://www.w3.org/2000/svg" xmlns:xlink="http://www.w3.org/1999/xlink" x="0px"
	 y="0px" width="64px" height="64px" viewBox="0 0 64 64" xml:space="preserve">
<g id="_x36_4px_boxes">
	<rect fill="none" width="64" height="64"/>
</g>
<g id="Production">
	<g>
		<polygon fill="#ffffff" points="17.1911,56 52,56 52,54 19.1778,54 		"/>
		<path fill="#ffffff" d="M11.7947,45.901l-3.1414,3.1625c-1.0605,1.0669-1.0576,2.8003,0.0059,3.8638l2.4561,2.3635
			C11.625,55.8005,12.3301,56,13.0518,56h0.0039c1.5264,0,2.0704-0.8033,3.3029-2.0231l1.762-1.7622L11.7947,45.901z
			 M15.2945,52.2335l-1.7222,1.7338c-0.2744,0.2788-0.7666,0.2778-1.043,0.002l-2.4561-2.4561
			c-0.2861-0.2866-0.2871-0.7529-0.001-1.0405l1.7247-1.7363C15.2389,52.1779,12.5642,49.5034,15.2945,52.2335z"/>
		<path fill="#ffffff" d="M48.1826,9.2686L13.204,44.4822c0.8679,0.8678,0.5462,0.5462,1.4142,1.414l34.5898-34.822l2.3937-0.5979
			l1.6773,1.6777l-0.5789,2.4241L18.1158,49.3934c2.0708,2.0706-0.6418-0.6417,1.4141,1.414l34.9847-35.2186l2.0068-8.4028
			L48.1826,9.2686z"/>
		<circle fill="#ffffff" cx="29" cy="50" r="2"/>
		<circle fill="#ffffff" cx="38" cy="46" r="3"/>
	</g>
</g>
</svg>

