<?xml version="1.0" encoding="utf-8"?>
<!-- Generator: Adobe Illustrator 18.1.1, SVG Export Plug-In . SVG Version: 6.00 Build 0)  -->
<svg version="1.2" baseProfile="tiny" xmlns="http://www.w3.org/2000/svg" xmlns:xlink="http://www.w3.org/1999/xlink" x="0px"
	 y="0px" width="64px" height="64px" viewBox="0 0 64 64" xml:space="preserve">

<g id="Production">
	<path fill="#ffffff" d="M61,43.3394v-6.9092L38,22.8003V8c0-3.3086-2.6914-6-6-6s-6,2.6914-6,6v14.8003L3,36.4302v6.9092l23-6.8149
		v14.9092l-5,3v6.9106l11-3.3003l11,3.3003v-6.9106l-5-3V36.5244L61,43.3394z M41,55.5664v3.0894l-9-2.6997l-9,2.6997v-3.0894l5-3
		V33.8457L5,40.6606v-3.0908l23-13.6299V8c0-2.2056,1.7944-4,4-4s4,1.7944,4,4v15.9399l23,13.6299v3.0908l-23-6.8149v18.7207
		L41,55.5664z"/>
</g>
</svg>
