<?xml version="1.0" encoding="utf-8"?>
<!-- Generator: Adobe Illustrator 17.1.0, SVG Export Plug-In . SVG Version: 6.00 Build 0)  -->
<!DOCTYPE svg [
	<!ENTITY ns_flows "http://ns.adobe.com/Flows/1.0/">
	<!ENTITY ns_extend "http://ns.adobe.com/Extensibility/1.0/">
	<!ENTITY ns_ai "http://ns.adobe.com/AdobeIllustrator/10.0/">
	<!ENTITY ns_graphs "http://ns.adobe.com/Graphs/1.0/">
]>
<svg version="1.2" baseProfile="tiny" xmlns:x="&ns_extend;" xmlns:i="&ns_ai;" xmlns:graph="&ns_graphs;"
	 xmlns="http://www.w3.org/2000/svg" xmlns:xlink="http://www.w3.org/1999/xlink" xmlns:a="http://ns.adobe.com/AdobeSVGViewerExtensions/3.0/"
	 x="0px" y="0px" width="128px" height="128px" viewBox="0 0 128 128" xml:space="preserve">
<g id="_x31_28px_boxes">
	<rect fill="none" width="128" height="128"/>
</g>
<g id="Production">
	<g>
		<path fill="#ffffff" d="M51.7329,89.75h-4.9712V95h4.9712c1.9385,0,3.2851-0.6211,3.2851-2.5593
			C55.018,90.3711,53.5727,89.75,51.7329,89.75z"/>
		<path fill="#ffffff" d="M54.0654,83.5166c0-1.7085-1.2153-2.2666-2.4966-2.2666h-4.8071v4.5h4.8071
			C52.6201,85.75,54.0654,85.1919,54.0654,83.5166z"/>
		<path fill="#ffffff" d="M109.0605,85.8291l-14.75-15.9663c-0.6623-0.7175-1.5945-1.1128-2.571-1.1128H21.4091
			c-1.9323,0-3.3974,1.541-3.3974,3.4734v31.9578c0,1.9323,1.4651,3.5688,3.3974,3.5688h70.3304
			c0.9765,0,1.9087-0.4429,2.571-1.1606l14.75-15.9962C110.2976,89.2529,110.2976,87.1694,109.0605,85.8291z M51.9956,100H40.7617
			V76.5h10.9385c4.0405,0,8.4756,1.0083,8.4756,5.9033c0,2.1025-1.2481,3.8223-3.0879,4.7422
			c2.4965,0.7227,4.0405,2.8958,4.0405,5.5567C61.1284,98.2871,57.0219,100,51.9956,100z"/>
		<path fill="#ffffff" d="M21.4091,59.25h52.0384c0.9765,0,1.9087-0.4482,2.571-1.166l14.7503-15.999
			c1.237-1.3404,1.237-3.4166,0-4.7569L76.0185,21.3623c-0.6623-0.7175-1.5945-1.1123-2.571-1.1123H21.4091
			c-1.9323,0-3.3974,1.53-3.3974,3.4624v31.958C18.0117,57.6028,19.4768,59.25,21.4091,59.25z M47.1006,28h6.2089l8.772,23.5H55.708
			l-1.4453-4.25h-8.1802L44.604,51.5h-6.2749L47.1006,28z"/>
		<polygon fill="#ffffff" points="50.2216,34.5 50.1557,34.5 47.4951,42.75 52.8169,42.75 		"/>
	</g>
</g>
</svg>
