<?xml version="1.0" encoding="utf-8"?>
<!-- Generator: Adobe Illustrator 18.1.1, SVG Export Plug-In . SVG Version: 6.00 Build 0)  -->
<svg version="1.2" baseProfile="tiny" xmlns="http://www.w3.org/2000/svg" xmlns:xlink="http://www.w3.org/1999/xlink" x="0px"
	 y="0px" width="128px" height="128px" viewBox="0 0 128 128" xml:space="preserve">
<g id="_x31_28px_boxes">
	<rect fill="none" width="128" height="128"/>
</g>
<g id="Production">
	<g>
		<path fill="#ffffff" d="M30.2658,58.5121l14.6568-1.1139c1.5547,2.2081,3.4267,4.1355,5.6348,5.6902l-1.1416,15.0959
			C49.3128,79.5522,50.3231,81,51.695,81h24.4155c1.3718,0,2.4099-1.4478,2.3066-2.8157l-1.114-14.9317
			c2.2083-1.5547,4.1355-3.564,5.6902-5.7723l14.6436,1.0728C99.0051,58.6563,100,57.5773,100,56.2053V31.7898
			c0-1.3719-0.9949-2.4099-2.3631-2.3068l-14.7052,1.1139c-1.5547-2.2083-3.4512-4.1359-5.6597-5.6908l1.1299-14.593
			C78.5049,8.9451,77.4823,8,76.1105,8H51.695c-1.3719,0-2.4099,0.9451-2.3069,2.3131l1.114,14.6804
			c-2.2082,1.5547-4.136,3.4387-5.6907,5.6469l-14.5456-1.1357C28.8977,29.4017,28,30.4179,28,31.7898v24.4155
			C28,57.5773,28.8977,58.6153,30.2658,58.5121z M63.9027,30.2744c7.5789,0,13.7234,6.1446,13.7234,13.7232
			s-6.1445,13.7231-13.7234,13.7231c-7.5796,0-13.7234-6.1445-13.7234-13.7231S56.3231,30.2744,63.9027,30.2744z"/>
		<path fill="#ffffff" d="M101.9151,111.9483L71,92.155V85H57v7.1326l-30.9757,19.8157c-2.1314,1.364-2.7622,4.1977-1.398,6.3288
			c1.3647,2.132,3.9983,2.7527,6.1281,1.3889L59,101.4578v14.3498c0,2.5306,2.4695,4.5818,5,4.5818c2.5305,0,5-2.0512,5-4.5818
			v-14.3274l28.1896,18.1858c2.1292,1.3634,4.8565,0.7436,6.2216-1.3889C104.7755,116.146,104.0465,113.3123,101.9151,111.9483z"/>
	</g>
</g>
</svg>
