<?xml version="1.0" encoding="utf-8"?>
<!-- Generator: Adobe Illustrator 18.1.1, SVG Export Plug-In . SVG Version: 6.00 Build 0)  -->
<svg version="1.2" baseProfile="tiny" xmlns="http://www.w3.org/2000/svg" xmlns:xlink="http://www.w3.org/1999/xlink" x="0px"
	 y="0px" width="128px" height="128px" viewBox="0 0 128 128" xml:space="preserve">
<g id="box">
	<rect fill="none" width="128" height="128"/>
</g>
<g id="Production">
	<g>
		<path fill="#ffffff" d="M89.0877,62.8711l31.3743-9.2961c1.9197-0.5687,3.0146-2.586,2.4458-4.5054
			c-0.5686-1.9197-2.5855-3.0149-4.5054-2.4458l-31.3742,9.2961c-1.9197,0.5686-3.0147,2.586-2.4458,4.5054
			C85.151,62.3453,87.1683,63.4399,89.0877,62.8711z"/>
		<path fill="#ffffff" d="M89.0877,75.603l31.3743-9.2961c1.9197-0.5686,3.0146-2.586,2.4458-4.5054
			c-0.5686-1.9197-2.5855-3.0151-4.5054-2.4458l-31.3742,9.2962c-1.9197,0.5686-3.0147,2.5859-2.4458,4.5053
			C85.1508,75.0768,87.1679,76.172,89.0877,75.603z"/>
		<path fill="#ffffff" d="M75.5152,37.625h-25.22l21.8138-6.4478c1.9196-0.5683,3.0146-2.5778,2.4458-4.4973
			c-0.5686-1.9196-2.5823-3.0112-4.502-2.4419l-30.364,9.0017v-8.1665c0-2.4392-1.9841-4.4482-4.4236-4.4482H9.3487
			c-2.4392,0-4.4099,2.009-4.4099,4.4482c0,5.9734,0,10.4329,0,23.8018h75v-6.8018C79.9388,39.634,77.9547,37.625,75.5152,37.625z"
			/>
		<path fill="#ffffff" d="M48.356,96.125H36.5763c-3.7425,0-6.7276-2.75-7.1036-6.5H4.9388v13.3647
			c0,2.4393,1.9707,4.3853,4.4099,4.3853h66.1665c2.4395,0,4.4236-1.946,4.4236-4.3853V89.625H55.639
			C55.2423,93.375,52.0987,96.125,48.356,96.125z"/>
		<rect x="4.9388" y="53.375" fill="#ffffff" width="75" height="31.75"/>
		<path fill="#ffffff" d="M122.9112,74.5334c-0.5686-1.9196-2.5854-3.0151-4.5054-2.4458l-34.217,10.0967v7.6643l36.2722-10.8098
			C122.3807,78.4702,123.4801,76.4529,122.9112,74.5334z"/>
	</g>
</g>
</svg>
