<?xml version="1.0" encoding="utf-8"?>

<svg version="1.2" baseProfile="tiny" xmlns="http://www.w3.org/2000/svg" xmlns:xlink="http://www.w3.org/1999/xlink" x="0px"
	 y="0px" width="128px" height="128px" viewBox="0 0 128 128" xml:space="preserve">
<g id="_x31_28px_boxes">
	<rect fill="none" width="128" height="128"/>
</g>
<g id="Production">
	<g>
		<path fill="#ffffff" d="M100.9482,40.9971c-3.4495-17.4277-18.7977-30.3279-36.9478-30.3279
			c-18.1493,0-33.4986,12.899-36.9485,30.3279c-11.293,4.997-19.138,16.3121-19.138,29.4194
			c0,20.5095,19.1014,35.9741,39.3329,31.3618c0.6483-2.6626,1.2395-5.1943,1.7698-7.6022
			c-16.6251,6.2495-34.3159-6.1212-34.3159-23.7596c0-10.5664,6.654-20.1335,16.5576-23.8061
			c1.1663-0.4326,2.0024-1.4685,2.1791-2.7C35.6,28.8289,48.7393,17.4558,64.0004,17.4558
			c15.2607,0,28.3998,11.3731,30.5623,26.4546c0.1766,1.2315,1.0127,2.2674,2.1791,2.7
			c9.9036,3.6726,16.5576,13.2397,16.5576,23.8061c0,17.2205-16.9329,29.5801-33.4242,24.0752
			c0.4463,2.3345,0.962,4.774,1.5594,7.4346c19.9173,4.0868,38.6515-11.1518,38.6515-31.5098
			C120.0861,57.3156,112.2472,45.9967,100.9482,40.9971z"/>
		<path fill="#ffffff" d="M74.896,89.5928C87.2835,82.229,93.5335,80.604,99.5438,79.023c4.0264-0.9944,3.4311-7.3587-1.02-7.1861
			c0,0-10.4974,1.1717-10.9374,1.2508l2.4486-7.9129c1.229-3.9567-4.4118-6.2205-6.2773-2.541l-6.5366,12.8855
			c-1.1712,0.3381-2.3367,0.7024-3.4988,1.0813c-0.8128-10.9426,0.2128-15.4463,3.8796-26.2012l0.002-0.0048
			c1.5239-4.4601-4.7628-7.2764-7.0943-3.2017c-1.8594,3.2493-4.9985,9.0391-6.3513,12.5999
			c-2.1854-4.1341-4.1595-8.2227-7.4129-11.6082c-3.4609-3.6016-8.7174,0.8006-6.189,4.6938
			c4.3521,7.6841,6.5894,13.8287,5.3025,25.7779c-3.3046-2.3438-11.2223-9.9981-14.0447-14.4522s-7.6766-0.5998-6.7822,2.5142
			c0.4817,1.6772,3.4492,6.4814,5.8667,9.832l-11.085,3.4199c-3.7927,1.1663-2.7208,7.1607,1.4434,6.6167l16.1416-2.1088
			c2.0458,2.2036,4.2184,4.3039,6.5066,6.2905c-1.2643,6.2595-3.003,13.24-5.1394,21.4553C48.0085,115.136,50.4613,117,52.5867,117
			h23.2945c0.0022,0,0.0034,0,0.005,0c3.656,0,4.2137-3.4717,3.7837-4.9126C77.3948,102.6091,75.8894,96.1343,74.896,89.5928z"/>
	</g>
</g>
</svg>
