<?xml version="1.0" encoding="utf-8"?>
<!-- Generator: Adobe Illustrator 18.1.1, SVG Export Plug-In . SVG Version: 6.00 Build 0)  -->
<svg version="1.2" baseProfile="tiny" xmlns="http://www.w3.org/2000/svg" xmlns:xlink="http://www.w3.org/1999/xlink" x="0px"
	 y="0px" width="64px" height="64px" viewBox="0 0 64 64" xml:space="preserve">

<g id="Production">
	<g>
		<rect x="31" y="50" fill="#ffffff" width="2" height="12"/>
		<path fill="#ffffff" d="M63.9624,47L50,39.3071V46H15.5662l-2.9998-5H1.2339l3.6001,6l-3.6001,6h11.3325l2.9998-5H50v6.6929
			L63.9624,47z M11.4336,51H4.7661l2.3999-4l-2.3999-4h6.6675l2.4004,4L11.4336,51z M52,42.6929L59.8179,47L52,51.3071V42.6929z"/>
		<path fill="#ffffff" d="M31,39.9485V44h2v-4.0507c5.0464-0.5034,9-4.7727,9-9.9493v-7.7612
			c1.7759-0.2603,2.5513-1.1836,2.8887-1.9751c0.6538-1.5337,0.0161-3.4468-1.0605-4.9912l4.0435-1.7388l-5.5723-4.7598
			c1.5569-2.3316,0.3316-4.7081-1.9224-5.8555c-2.5386-1.293-6.937-2.4541-7.123-2.5029L32,0.0864v5.9375l-5.4805,8.9507
			C24.3018,12.4004,21.5693,11,18.7056,11C13.0721,11,6,16.8502,6,31h16.0498C22.5204,35.7167,26.2832,39.4777,31,39.9485z
			 M18.7056,13c3.7736,0,6.0144,2.7777,7.9766,5.5391L34,6.5874V2.7026c1.4717,0.4316,3.9082,1.2031,5.4697,1.998
			c1.1342,0.5775,1.9986,1.7138,1.2676,2.811l-1.0864,1.6304l4.4775,3.8242l-3.6226,1.5576
			c2.7053,2.8497,4.1188,5.7656,0.4888,5.7861L40,20.3154V30c0,4.4111-3.5889,8-8,8s-8-3.5889-8-8v-1H8.0181
			C8.3457,20.0898,13.0142,13,18.7056,13z"/>
	</g>
</g>
</svg>
