<?xml version="1.0" encoding="utf-8"?>
<!-- Generator: Adobe Illustrator 18.1.1, SVG Export Plug-In . SVG Version: 6.00 Build 0)  -->
<svg version="1.2" baseProfile="tiny" xmlns="http://www.w3.org/2000/svg" xmlns:xlink="http://www.w3.org/1999/xlink" x="0px"
	 y="0px" width="128px" height="128px" viewBox="0 0 128 128" xml:space="preserve">
<g id="_x31_28px_boxes">
	<rect fill="none" width="128" height="128"/>
</g>
<g id="Production">
	<g>
		<path fill="#ffffff" d="M103.811,28.0527L65.1018,15.6948c-0.713-0.2281-1.4904-0.2279-2.2031-0.0002L24.1891,28.0525
			c-1.5076,0.4812-2.5205,1.8677-2.5205,3.4502v22.6889c0,35.5113,21.7155,55.1145,41.7777,58.2423
			c0.3527,0.0543,0.7269,0.0587,1.1107-0.0005c14.6658-2.2846,41.7744-17.4702,41.7744-58.2418V31.5027
			C106.3314,29.9202,105.3185,28.5337,103.811,28.0527z M31.2348,62.9297c-0.2696-2.505-0.4099-5.1014-0.4099-7.7911V35.9532
			L64,25.3621h0.0001v37.4847h32.7742c-2.5091,23.5996-17.6911,36.9078-32.7742,39.8504V62.9297H31.2348z"/>
	</g>
</g>
</svg>
