<?xml version="1.0" encoding="utf-8"?>
<!-- Generator: Adobe Illustrator 18.1.1, SVG Export Plug-In . SVG Version: 6.00 Build 0)  -->
<svg version="1.2" baseProfile="tiny" xmlns="http://www.w3.org/2000/svg" xmlns:xlink="http://www.w3.org/1999/xlink" x="0px"
	 y="0px" width="64px" height="64px" viewBox="0 0 64 64" xml:space="preserve">

<g id="Production">
	<g>
		<path fill="#ffffff" d="M48.7949,19.3057C47.4819,10.5283,39.9609,4,31,4c-9.9253,0-18,8.0747-18,18
			c0,0.3608,0.0107,0.7246,0.0327,1.0874C8.7969,25.0205,6.02,29.314,6.02,34c0,6.6167,5.3633,12,11.98,12h11v-2H18
			c-5.5142,0-9.98-4.4858-9.98-10c0-4.1147,2.5694-7.8667,6.4238-9.3359l0.7158-0.2729l-0.0771-0.7622
			C15.0278,23.0894,15,22.5415,15,22c0-8.8223,7.1777-16,16-16c8.1895,0,15.0259,6.1333,15.9023,14.2661l0.0825,0.7656
			l0.7607,0.1162C53.3066,21.9961,57.5,26.8765,57.5,32.5C57.5,38.8413,52.3413,44,46,44H35v2h11c7.4438,0,13.5-6.0562,13.5-13.5
			C59.5,26.0435,55.042,20.6104,48.7949,19.3057z"/>
		<path fill="#ffffff" d="M38.189,30.7446l-5.2083,5.5225c-0.0496-1.7634-0.5925-3.4566-1.6076-4.9062l-0.7608-1.0869l3.3604-5.4761
			l-1.7051-1.0459l-2.9059,4.7355l-3.5424-5.0607l-1.6387,1.1465l5.5537,7.9346C30.5625,33.6899,31,35.0781,31,36.522v3.7526
			l-6.5029-3.7258l-0.9941,1.7354L31,42.5795V49v6v6h2v-2v-4v-6v-8.25c0-1.0249,0.3872-1.9995,1.0903-2.7446l5.5537-5.8887
			L38.189,30.7446z"/>
	</g>
</g>
</svg>
