<?xml version="1.0" encoding="utf-8"?>
<!-- Generator: Adobe Illustrator 18.1.1, SVG Export Plug-In . SVG Version: 6.00 Build 0)  -->
<svg version="1.2" baseProfile="tiny" xmlns="http://www.w3.org/2000/svg" xmlns:xlink="http://www.w3.org/1999/xlink" x="0px"
	 y="0px" width="128px" height="128px" viewBox="0 0 128 128" xml:space="preserve">
<g id="_x31_28px_boxes">
	<rect fill="none" width="128" height="128"/>
</g>
<g id="Production">
	<g>
		<path fill="#ffffff" d="M103.969,63.8965c2.1548-4.9105,2.5287-10.918,0.9374-16.8405c-1.2477-4.6463-3.5795-8.8623-6.743-12.1914
			c-2.2898-2.4095-4.8875-4.23-7.6549-5.3833c-1.5138-3.0797-3.6836-5.8742-6.3025-8.0763
			c-3.7341-3.1399-8.1145-4.8691-12.3343-4.8691c-2.9786,0-5.7504,0.8503-8.1253,2.4349c-2.4117-1.5021-5.1575-2.3265-8.1473-2.3266
			c-7.4453-0.0008-14.568,5.1427-18.2356,12.8512c-2.7549,1.1538-5.3409,2.9693-7.6216,5.3692
			c-3.1634,3.3289-5.4952,7.545-6.7434,12.1925c-1.5909,5.922-1.217,11.9294,0.9376,16.8398
			c-2.1546,4.9104-2.5284,10.9182-0.9371,16.8405c1.2477,4.6463,3.5795,8.8623,6.7428,12.1913
			c2.2798,2.3991,4.8649,4.2144,7.6188,5.3684c3.3769,7.1543,10.0248,13.167,17.6808,13.167c2.4395,0,5.7434-0.6167,8.9907-3.1594
			c3.2345,2.3807,6.4735,2.9578,8.8528,2.9578c7.5848,0,14.2392-5.762,17.6562-12.9639c2.7552-1.1541,5.3416-2.9699,7.6223-5.3699
			c3.1635-3.329,5.4953-7.545,6.7432-12.1925C106.4978,74.8145,106.124,68.807,103.969,63.8965z M61,102.221
			c-6,5.7203-13.9441,0.3181-17.3233-7.0141c5.441-3.365,5.477-11.4175,2.7106-17.6033c-0.6175-1.3806-2.2871-1.9995-3.6689-1.3822
			c-1.3809,0.6177-2.0249,2.2377-1.4073,3.6187c2.0733,4.6359,1.4012,8.806-0.272,10.3757
			c-0.9608,0.9011-2.2928,0.9306-3.9464,0.0927c-3.373-2.4585-6.1732-6.4906-7.4776-11.3482
			c-1.5537-5.7821-0.6127-11.3116,2.082-14.8712c-0.0295-0.0627-0.033-0.1269-0.0121-0.1922
			c-0.0209-0.0655-0.0186-0.1297,0.0109-0.1926c-2.6947-3.5593-3.6372-9.0892-2.0839-14.8712
			c2.0354-7.5789,7.3847-11.3591,11.6725-11.6189c5.0513-0.3032,9.0248,3.8926,9.0973,3.9701
			c1.0191,1.1114,2.7459,1.1905,3.862,0.1746c1.1189-1.0181,1.2005-2.7504,0.1825-3.8693
			c-0.2006-0.2204-4.2071-4.763-10.3887-5.6274C47.6998,24.8166,55,21.173,61,25.1027V102.221z M84.9807,49.7283
			c-0.8373-4.9088-3.584-8.2174-3.7006-8.356c-0.9741-1.1573-2.7022-1.3058-3.8592-0.3318
			c-1.1575,0.9742-1.306,2.7021-0.3319,3.8595c0.0189,0.0224,1.9112,2.3466,2.4917,5.7494c0.7842,4.5979-1.2,8.9624-5.8975,12.9719
			c-1.1506,0.9822-1.2872,2.7109-0.3052,3.8615c0.9823,1.1507,2.7106,1.2874,3.8616,0.3052
			c2.3244-1.9839,4.0158-3.9826,5.2302-5.9323c4.1536,4.6688,9.6782,7.0894,15.4866,5.4182
			c1.2698,3.2998,1.4823,7.424,0.3369,11.6864c-1.9643,7.3155-7.3125,12.7635-12.9186,13.7744
			c-2.1191,6.6145-7.4827,11.6802-12.6437,11.6802c-1.8979,0-3.731-0.6911-5.731-2.2706V24.8281
			c6-4.2154,15.3605,1.2815,18.2208,10.2309c5.6061,1.0106,11.0312,6.4586,12.9955,13.7741
			c1.2779,4.7552,0.9042,9.3387-0.7808,12.797c-3.354,1.6091-8.1827,0.8228-12.5932-5.6034
			C85.3406,53.6746,85.2871,51.5244,84.9807,49.7283z"/>
		<path fill="#ffffff" d="M78.1947,89.3842h0.0002c1.5126,0,2.739-1.2261,2.7392-2.7387c0.0001-1.2347,1.1806-3.628,3.1559-5.4963
			c1.538-1.4546,3.1961-2.242,4.551-2.1706c1.5064,0.0834,2.8028-1.0723,2.8868-2.5827c0.0841-1.5103-1.0722-2.8029-2.5826-2.8869
			c-2.8928-0.1616-5.9538,1.1388-8.6194,3.6603c-2.9579,2.7976-4.8694,6.5169-4.8698,9.4755
			C75.4558,88.1575,76.682,89.384,78.1947,89.3842z"/>
		<path fill="#ffffff" d="M53.8362,61.4833c0.2997-0.8707,0.1419-1.8336-0.4201-2.5631c-0.5619-0.7296-1.4526-1.1288-2.3711-1.06
			c-3.6744,0.2712-6.4182-1.1309-8.3835-4.2857c-1.6138-2.5902-2.0519-5.3899-2.0617-5.4532
			c-0.2157-1.4932-1.599-2.5302-3.0937-2.3205c-1.4979,0.2115-2.5407,1.5973-2.3292,3.0951c0.0218,0.1548,0.56,3.8307,2.7252,7.3966
			c2.4089,3.9678,5.8338,6.3185,10.0261,6.9227c-0.3547,3.1907-0.1213,8.0039,3.27,12.1093
			c0.9633,1.1658,2.6892,1.331,3.8561,0.3672c1.1663-0.9634,1.3307-2.6899,0.3673-3.8561
			C51.8744,67.5414,53.8203,61.5312,53.8362,61.4833z"/>
	</g>
</g>
</svg>
