<?xml version="1.0" encoding="utf-8"?>

<svg version="1.2" baseProfile="tiny" xmlns="http://www.w3.org/2000/svg" xmlns:xlink="http://www.w3.org/1999/xlink" x="0px"
	 y="0px" width="128px" height="128px" viewBox="0 0 128 128" xml:space="preserve">
<g id="_x31_28px_boxes">
	<rect fill="none" width="128" height="128"/>
</g>
<g id="Production">
	<g>
		<polygon fill="#ffffff" points="21.8223,76.658 34.4736,84.7627 20.8013,96.2309 27.1272,100.3036 40.813,88.824 56.2085,98.6871 
			43.5894,110.9021 49.7942,114.8968 62.4255,102.6697 81.8623,115.1217 87.1074,109.948 27.8828,72.0066 		"/>
		<path fill="#ffffff" d="M66.7808,57.6637l-14.764,12.3838L40.074,62.6501l-6.0945,4.6774l59.1763,36.6545l5.2637-5.192
			L58.4487,74.0314l12.9026-10.8226C69.9534,61.0756,68.5956,59.6303,66.7808,57.6637z"/>
		<path fill="#ffffff" d="M84.4265,12.8783c-12.6006,0-22.7798,10.2159-22.7798,22.771c0,5.2362,1.7937,10.0677,4.5474,13.6275
			c6.8504,8.8629,13.0194,10.2669,14.9475,30.2965c0.1865,1.9341,1.6326,3.2488,3.2812,3.2488c1.649,0,3.095-1.3147,3.2811-3.2488
			c1.9256-20.0156,8.1142-21.4551,14.948-30.2965c2.7672-3.5787,4.5468-8.4098,4.5468-13.6275
			C107.1987,23.0942,97.0273,12.8783,84.4265,12.8783z M74.5127,35.6676c0-5.4553,4.4224-9.8774,9.8772-9.8774
			c5.4553,0,9.8779,4.4221,9.8779,9.8774c0,5.4549-4.4226,9.8771-9.8779,9.8771C78.9351,45.5447,74.5127,41.1225,74.5127,35.6676z"
			/>
	</g>
</g>
</svg>
