<?xml version="1.0" encoding="utf-8"?>
<!-- Generator: Adobe Illustrator 19.1.0, SVG Export Plug-In . SVG Version: 6.00 Build 0)  -->
<svg version="1.2" baseProfile="tiny" xmlns="http://www.w3.org/2000/svg" xmlns:xlink="http://www.w3.org/1999/xlink" x="0px"
	 y="0px" width="64px" height="64px" viewBox="0 0 64 64" xml:space="preserve">
<g id="box">
	<rect fill="none" width="64" height="64"/>
</g>
<g id="Production">
	<g>
		<path fill="#ffffff" d="M32,14c3.0326,0,5.5-2.4672,5.5-5.4998C37.5,5.4672,35.0326,3,32,3s-5.5,2.4672-5.5,5.5002
			C26.5,11.5328,28.9674,14,32,14z M32,4.9964c1.9334,0,3.5062,1.5718,3.5062,3.5039c0,1.9315-1.5728,3.5034-3.5062,3.5034
			s-3.5062-1.5718-3.5062-3.5034C28.4938,6.5682,30.0666,4.9964,32,4.9964z"/>
		<path fill="#ffffff" d="M41.979,21.0127C40.9556,17.1245,38.7173,16,32,16s-8.9556,1.1245-9.9785,5.0122
			c-0.541,2.0537-1.9561,15.3184-2.0161,15.8818c-0.0581,0.5493,0.3398,1.042,0.8887,1.1006
			c0.5479,0.0571,1.042-0.3389,1.1006-0.8887c0.4038-3.7979,1.5435-14.0005,1.9609-15.5845C24.5996,19.0732,25.5557,18,32,18
			s7.4004,1.0732,8.0449,3.522c0.417,1.5835,1.5566,11.7861,1.9604,15.584C42.0601,37.6191,42.4941,38,42.9985,38
			c0.0356,0,0.0713-0.002,0.1074-0.0054c0.5488-0.0586,0.9468-0.5513,0.8887-1.1006C43.9346,36.3306,42.5195,23.0659,41.979,21.0127
			z"/>
		<path fill="#ffffff" d="M38,24c0-0.5522-0.4478-1-1-1s-1,0.4478-1,1v6l3.7192,15h-4.6504l-0.8525,11.9365
			C34.1338,58.0938,33.1602,59,32,59s-2.1338-0.9062-2.2163-2.0635L28.9312,45h-4.6504l3.6895-14.7573L28,24c0-0.5522-0.4478-1-1-1
			s-1,0.4478-1,1v5.877L21.7192,47h5.3496l0.7197,10.0791C27.9458,59.2778,29.7959,61,32,61s4.0542-1.7222,4.2114-3.9209L36.9312,47
			h5.3496L38,29.877V24z"/>
	</g>
</g>
</svg>

