<?xml version="1.0" encoding="utf-8"?>
<!-- Generator: Adobe Illustrator 18.1.1, SVG Export Plug-In . SVG Version: 6.00 Build 0)  -->
<svg version="1.2" baseProfile="tiny" xmlns="http://www.w3.org/2000/svg" xmlns:xlink="http://www.w3.org/1999/xlink" x="0px"
	 y="0px" width="128px" height="128px" viewBox="0 0 128 128" xml:space="preserve">
<g id="_x31_28px_boxes">
	<rect fill="none" width="128" height="128"/>
</g>
<g id="Production">
	<g>
		<path fill="#ffffff" d="M85.5502,31.708c-3.36-2.029-6.4916,2.9802-3.1927,5.1123c6.5081,4.4885,13.1956,11.3635,14.3733,23.8188
			H81.5814c-0.6169-9.5067-3.7007-16.9225-7.5351-21.2768c-1.8838,1.4841-4.1031,2.5588-6.525,3.0893
			c3.5225,2.7149,6.6505,9.3635,7.2981,18.1875H53.3165c0.6472-8.821,3.7735-15.468,7.2944-18.1846
			c-2.4226-0.5286-4.6423-1.602-6.5275-3.0848c-3.708,4.2149-6.8965,11.5276-7.5288,21.2694h-15.042
			c1.9492-14.7893,12.8693-24.026,23.5146-26.593c2.1402,2.6138,5.3911,4.2825,9.0327,4.2825
			c6.4453,0,11.6697-5.2246,11.6697-11.6692S70.5052,14.99,64.0599,14.99c-4.8845,0-9.0659,3.0025-10.8051,7.2616
			C21.1882,31.938,10.3884,73.9274,42.5265,96.292c3.3602,2.0296,6.4913-2.9803,3.1926-5.1124
			c-4.2273-3.2054-13.1963-9.5949-14.3706-23.7905h15.2061c0.6133,9.4485,3.674,16.8667,7.4966,21.2323
			c1.884-1.4794,4.102-2.5501,6.5222-3.0774c-3.5057-2.735-6.6118-9.365-7.2569-18.1549h21.5029
			c-0.6464,8.8091-3.7646,15.4496-7.2795,18.1735c2.4151,0.539,4.6272,1.6191,6.5034,3.1072
			c3.6485-4.1409,6.8987-11.429,7.5381-21.2807h14.9783C94.7106,81.328,84.5719,91.1754,73.0494,93.9538
			c-2.1401-2.6137-5.3913-4.2825-9.0329-4.2825c-6.4448,0-11.6695,5.2246-11.6695,11.6693c0,6.4445,5.2247,11.6694,11.6695,11.6694
			c4.8847,0,9.0659-3.0026,10.8054-7.2616C107.5975,95.8431,116.992,51.8521,85.5502,31.708z"/>
	</g>
</g>
</svg>
