<?xml version="1.0" encoding="utf-8"?>

<svg version="1.2" baseProfile="tiny" xmlns="http://www.w3.org/2000/svg" xmlns:xlink="http://www.w3.org/1999/xlink" x="0px"
	 y="0px" width="128px" height="128px" viewBox="0 0 128 128" xml:space="preserve">
<g id="_x31_28px_boxes">
	<rect fill="none" width="128" height="128"/>
</g>
<g id="Production">
	<path fill="#ffffff" d="M90,75c-3.6573,0-7.0062,1.312-9.6093,3.4868L52.9609,64.772c0.0539-1.0513,0.0539-0.4927,0-1.5439
		l27.4298-13.7148C82.9938,51.688,86.3427,53,90,53c8.2843,0,15-6.7158,15-15s-6.7157-15-15-15s-15,6.7158-15,15
		c0,0.2607,0.0259,0.5146,0.0391,0.772L47.6093,52.4868C45.0062,50.312,41.6573,49,38,49c-8.2843,0-15,6.7158-15,15s6.7157,15,15,15
		c3.6573,0,7.0062-1.312,9.6093-3.4868L75.0391,89.228C75.0259,89.4854,75,89.7393,75,90c0,8.2842,6.7157,15,15,15s15-6.7158,15-15
		S98.2843,75,90,75z"/>
</g>
</svg>
