<?xml version="1.0" encoding="utf-8"?>
<!-- Generator: Adobe Illustrator 18.1.1, SVG Export Plug-In . SVG Version: 6.00 Build 0)  -->
<svg version="1.2" baseProfile="tiny" xmlns="http://www.w3.org/2000/svg" xmlns:xlink="http://www.w3.org/1999/xlink" x="0px"
	 y="0px" width="128px" height="128px" viewBox="0 0 128 128" xml:space="preserve">
<g id="box">
	<rect fill="none" width="128" height="128"/>
</g>
<g id="Production">
	<g>
		<path fill="#ffffff" d="M62.6265,68.053l-4.4553,7.7168c2.07,1.1975,3.4643,3.4336,3.4643,5.9969h8.909
			C70.5445,75.9068,67.3589,70.7934,62.6265,68.053z"/>
		<path fill="#ffffff" d="M51.2468,87.7635l-4.4541,7.7161c4.8234,2.7909,10.8701,2.8717,15.8338,0l-4.4553-7.7164
			C56.0435,88.9941,53.3996,89.0083,51.2468,87.7635z"/>
		<circle fill="#ffffff" cx="54.7092" cy="81.7664" r="4.2385"/>
		<path fill="#ffffff" d="M93.0745,14.7128C86.4391,8.6249,77.0241-2.793,59.0574,18.0175c-1.9291,2.2277-3.3058,1.86-7.2854,0.5672
			c-8.4553-2.6503-13.7161-0.6325-16.4827,2.6654c-3.0227,3.6039-3.6029,8.9789-3.4179,13.7114
			c1.8147-0.4866,3.9367-0.8279,5.8005-1.0656c-0.1241-8.8752,2.9885-10.7787,7.1875-10.7904
			c5.6373-0.014,12.3091,6.0446,18.6121-1.2816c2.1259-2.4702,4.5932-5.0434,7.1459-6.9095
			c13.7838-10.1389,15.3835,8.4937,29.8816,9.447c-5.6928,7.1896-9.8566,3.0155-15.7994,1.9058
			c-5.9501-1.111-11.0244,1.5256-13.5238,7.5532c1.9952,0.2435,4.0472,0.5666,5.9622,1.0586
			c3.7068-6.4402,10.2123-0.5748,16.1115-0.5782c10.8899,0.0186,14.8933-11.314,16.9649-16.7348
			C101.2747,18.8985,98.5091,19.7178,93.0745,14.7128z"/>
		<path fill="#ffffff" d="M51.2468,75.7698l-4.4541-7.7168c-4.7324,2.7388-7.9182,7.8538-7.9182,13.7137h8.9087
			C47.7832,79.2034,49.1768,76.9671,51.2468,75.7698z"/>
		<path fill="#ffffff" d="M77.7371,59.6932c0.3862-10.3838,1.0832-13.4105,2.1855-19.007c1.1227-5.7086-51.9575-5.5466-50.5906,0
			c1.3409,5.4417,1.8035,8.6232,2.1937,19.007c0.758,20.2197-10.6434,45.167-13.4549,50.7082
			c-0.2358,0.4646-0.321,0.9346-0.2717,1.4053c0.5249,5.0193,16.7217,10.1304,37.0732,10.1304
			c17.7078,0,32.3975-3.4824,35.9458-7.9444c0.9116-1.1467,1.0889-2.3579,0.3909-3.5913
			C87.7122,104.2193,76.9851,79.9129,77.7371,59.6932z M54.7092,101.0567c-10.6975,0-19.3723-8.6731-19.3723-19.3696
			c0-10.7017,8.6748-19.3712,19.3723-19.3712c10.6983,0,19.3733,8.6695,19.3733,19.3712
			C74.0825,92.3836,65.4075,101.0567,54.7092,101.0567z"/>
	</g>
</g>
</svg>
