<?xml version="1.0" encoding="utf-8"?>
<!-- Generator: Adobe Illustrator 18.1.1, SVG Export Plug-In . SVG Version: 6.00 Build 0)  -->
<svg version="1.2" baseProfile="tiny" xmlns="http://www.w3.org/2000/svg" xmlns:xlink="http://www.w3.org/1999/xlink" x="0px"
	 y="0px" width="128px" height="128px" viewBox="0 0 128 128" xml:space="preserve">
<g id="box">
	<rect fill="none" width="128" height="128"/>
</g>
<g id="Production">
	<g>
		<path fill="#ffffff" d="M90.4313,67.6159c-6.7601,40.5792-6.0079,36.0636-7.83,47.002
			c11.2437-2.8163,12.3984-7.0964,12.3984-7.0964l16.2085-49.3995C108.4641,62.0818,100.8439,65.4656,90.4313,67.6159z"/>
		<path fill="#ffffff" d="M45.308,114.5945c4.2261,1.0666,9.2918,1.7805,14.8069,2.0105c0-14.5444,0-31.9934,0-46.5567
			c-8.3143-0.2085-16.0343-1.0815-22.6303-2.45C39.0126,76.7777,43.7615,105.3042,45.308,114.5945z"/>
		<path fill="#ffffff" d="M63.1149,70.094c0,23.4782,0,37.1178,0,46.5874c5.4345,0.0494,11.0858-0.3619,16.3293-1.3687
			c0.84-5.0426,7.0518-42.3307,7.8464-47.1003C79.3969,69.5849,71.027,70.1396,63.1149,70.094z"/>
		<path fill="#ffffff" d="M39.1693,61.3078c7.1973-0.969,15.5052-1.5224,24.3543-1.5224c9.0778,0,17.5856,0.5825,24.9097,1.5986
			c9.2507-1.7336,15.1948-4.4294,15.1948-7.4573c0-3.0234-5.9278-5.7163-15.1573-7.4502c-2.4142-0.8687-3.9638-3.6483-3.9638-6.6279
			c0-5.9983,5.3242-6.0589,5.3242-14.4238c0-7.7927-6.3173-14.1101-14.1101-14.1101c-7.7927,0-14.1101,6.3174-14.1101,14.1101
			c0,7.5273,5.0667,8.4007,3.122,14.1824c-0.8821,2.6228-3.1674,4.5773-5.9402,4.9296
			c-19.4246,0.6094-34.4205,4.5811-34.4205,9.3899C24.3723,56.9106,30.1472,59.5718,39.1693,61.3078z M75.9973,19.3298
			c2.3266,0,4.2124,1.886,4.2124,4.2127c0,2.3264-1.8858,4.2124-4.2124,4.2124c-2.3262,0-4.2124-1.886-4.2124-4.2124
			C71.7849,21.2158,73.6711,19.3298,75.9973,19.3298z"/>
		<path fill="#ffffff" d="M16.7918,58.1208c0.0711,0.2168,16.1278,49.4007,16.356,49.4007
			c0.8436,2.3918,4.1132,4.5351,8.9648,6.1464c-1.954-11.7363,0.949,5.701-7.7881-46.7834
			C25.5798,64.7348,19.2416,61.6574,16.7918,58.1208z"/>
	</g>
</g>
</svg>
