<?xml version="1.0" encoding="utf-8"?>
<!-- Generator: Adobe Illustrator 19.1.0, SVG Export Plug-In . SVG Version: 6.00 Build 0)  -->
<svg version="1.2" baseProfile="tiny" xmlns="http://www.w3.org/2000/svg" xmlns:xlink="http://www.w3.org/1999/xlink" x="0px"
	 y="0px" width="64px" height="64px" viewBox="0 0 64 64" xml:space="preserve">
<g id="box">
	<rect fill="none" width="64" height="64"/>
</g>
<g id="Production">
	<g>
		<path fill="#ffffff" d="M7,11v42h50V11H7z M55,51H9V13h46V51z"/>
		<path fill="#ffffff" d="M17,25c1.8583,0,3.4106-1.2797,3.8579-3h4.2842c0.4473,1.7203,1.9996,3,3.8579,3c2.2056,0,4-1.7944,4-4
			s-1.7944-4-4-4c-1.8583,0-3.4106,1.2797-3.8579,3h-4.2842c-0.4473-1.7203-1.9996-3-3.8579-3c-2.2056,0-4,1.7944-4,4
			S14.7944,25,17,25z M29,19c1.103,0,2,0.897,2,2s-0.897,2-2,2s-2-0.897-2-2S27.897,19,29,19z M17,19c1.103,0,2,0.897,2,2
			s-0.897,2-2,2s-2-0.897-2-2S15.897,19,17,19z"/>
		<path fill="#ffffff" d="M17,36c1.8583,0,3.4106-1.2797,3.8579-3h11.6162l9-11h1.668c0.4473,1.7203,1.9996,3,3.8579,3
			c2.2056,0,4-1.7944,4-4s-1.7944-4-4-4c-1.8583,0-3.4106,1.2797-3.8579,3h-2.6162l-9,11h-10.668c-0.4473-1.7203-1.9996-3-3.8579-3
			c-2.2056,0-4,1.7944-4,4S14.7944,36,17,36z M47,19c1.103,0,2,0.897,2,2s-0.897,2-2,2s-2-0.897-2-2S45.897,19,47,19z M17,30
			c1.103,0,2,0.897,2,2s-0.897,2-2,2s-2-0.897-2-2S15.897,30,17,30z"/>
		<path fill="#ffffff" d="M17,47c1.8583,0,3.4106-1.2797,3.8579-3h13.2842c0.4473,1.7203,1.9996,3,3.8579,3c2.2056,0,4-1.7944,4-4
			c0-0.8824-0.2963-1.6914-0.7821-2.3536l4.1107-5.0243C45.8389,35.8587,46.4016,36,47,36c2.2056,0,4-1.7944,4-4s-1.7944-4-4-4
			s-4,1.7944-4,4c0,0.8824,0.2964,1.6915,0.7822,2.3537l-4.1108,5.0241C39.1611,39.1412,38.5984,39,38,39
			c-1.8583,0-3.4106,1.2797-3.8579,3H20.8579c-0.4473-1.7203-1.9996-3-3.8579-3c-2.2056,0-4,1.7944-4,4S14.7944,47,17,47z M47,30
			c1.103,0,2,0.897,2,2s-0.897,2-2,2s-2-0.897-2-2S45.897,30,47,30z M38,41c1.103,0,2,0.897,2,2s-0.897,2-2,2s-2-0.897-2-2
			S36.897,41,38,41z M17,41c1.103,0,2,0.897,2,2s-0.897,2-2,2s-2-0.897-2-2S15.897,41,17,41z"/>
	</g>
</g>
</svg>

