<?xml version="1.0" encoding="utf-8"?>
<!-- Generator: Adobe Illustrator 17.1.0, SVG Export Plug-In . SVG Version: 6.00 Build 0)  -->
<!DOCTYPE svg [
	<!ENTITY ns_flows "http://ns.adobe.com/Flows/1.0/">
	<!ENTITY ns_extend "http://ns.adobe.com/Extensibility/1.0/">
	<!ENTITY ns_ai "http://ns.adobe.com/AdobeIllustrator/10.0/">
	<!ENTITY ns_graphs "http://ns.adobe.com/Graphs/1.0/">
]>
<svg version="1.2" baseProfile="tiny" xmlns:x="&ns_extend;" xmlns:i="&ns_ai;" xmlns:graph="&ns_graphs;"
	 xmlns="http://www.w3.org/2000/svg" xmlns:xlink="http://www.w3.org/1999/xlink" xmlns:a="http://ns.adobe.com/AdobeSVGViewerExtensions/3.0/"
	 x="0px" y="0px" width="128px" height="128px" viewBox="0 0 128 128" xml:space="preserve">
<g id="_x31_28px_boxes">
	<rect fill="none" width="128" height="128"/>
</g>
<g id="Production">
	<g>
		<path fill="#ffffff" d="M76.9584,83.7704l8.8775-0.0022l0.0005-14.6186h-8.8367c0.0085-2.4049,0.0149-4.1049,0.0139-4.3903
			c-0.0024-1.1697-0.4162-2.0738-1.3315-2.9894c-0.916-0.9148-14.4536-14.4521-14.4536-14.4521
			c-6.7686-6.7703-13.6028-3.6541-18.2339,0.9751l-33.2,33.2007c-1.4714,1.4715-1.4714,3.8562,0,5.3283L42.7133,119.74
			c1.4717,1.4716,3.857,1.4716,5.3279,0.0005c0,0,26.4827-26.4834,27.5005-27.5c1.0176-1.0182,1.425-2.1371,1.4194-3.6639
			C76.9565,87.3337,76.956,85.6584,76.9584,83.7704z M64.5414,87.9715H46.6455v17.8958c0,1.4535-1.1778,2.6313-2.6314,2.6313
			c-1.4536,0-2.6309-1.178-2.6309-2.6313V87.9715h-17.896c-1.4539,0-2.6311-1.1781-2.6311-2.6311
			c0-1.4535,1.1778-2.6313,2.6311-2.6313h17.896V64.813c0-1.4535,1.1778-2.6311,2.6309-2.6311c1.4536,0,2.6314,1.1776,2.6314,2.6311
			v17.8961h17.8959c1.4532,0,2.6312,1.1778,2.6312,2.6313C67.1726,86.7934,65.9946,87.9715,64.5414,87.9715z M68.7192,68.844
			c-1.5833,1.583-4.1494,1.5835-5.7324-0.0016L51.5205,57.3783c-1.5823-1.5835-1.5826-4.1505,0.0004-5.7334
			c1.5838-1.5832,4.149-1.5821,5.7332,0.0013l11.4646,11.465C70.3022,64.6942,70.3027,67.2602,68.7192,68.844z"/>
		<path fill="#ffffff" d="M111.288,44.7312c0,0-1.0376,21.0063-10.2544,35.3725c-10.1755,15.8609-30.5954,24.8797-22.9834,38.2118
			c5.4246,9.5001,27.0379,9.037,36.7276-13.7442C126.7163,76.5022,111.288,44.7312,111.288,44.7312z"/>
		<path fill="#ffffff" d="M81.7287,58.1845c0,0,18.9939-7.9611,21.8305-23.2981c3.0564-16.5239-10.9565-31.0391-10.9565-31.0391
			C94.3659,33.7702,76.205,31.303,81.7287,58.1845z"/>
	</g>
</g>
</svg>
