<?xml version="1.0" encoding="utf-8"?>
<!-- Generator: Adobe Illustrator 18.1.1, SVG Export Plug-In . SVG Version: 6.00 Build 0)  -->
<svg version="1.2" baseProfile="tiny" xmlns="http://www.w3.org/2000/svg" xmlns:xlink="http://www.w3.org/1999/xlink" x="0px"
	 y="0px" width="128px" height="128px" viewBox="0 0 128 128" xml:space="preserve">
<g id="box">
	<rect fill="none" width="128" height="128"/>
</g>
<g id="Production">
	<g>
		<path fill="#ffffff" d="M79.104,56.4063c-1.2563,1.2441-2.5847,2.372-3.9772,3.3344L88.6853,86.354
			c5.1477,1.8193,8.241,5.1162,9.0364,9.7481c0.8121,4.7172-1.7676,13.5322-10.7014,13.5322c-6.5691,0-51.6681,0-51.6681,0
			c-4.2589-0.0122-8.6376-3.6216-8.6376-9.4068c0-1.8969,0.4657-4.0727,1.6626-6.5c4.1738-8.5707,20.8391-37.2954,20.8391-37.2954
			c-2.0257,0.4184-4.9705,1.1182-7.2952,1.8492c-17.1748,5.4223-22.1315,18.0825-22.5067,31.8203
			c0,4.2876,0.6072,8.7929,1.6603,13.2929c1.4255,6.8745,7.2843,12.1762,14.2775,12.1924c56.1065,0,52.4992-0.0073,52.6664-0.0073
			c11.135,0,17.8522-5.7924,19.2077-11.2388c1.1659-4.6914,1.3593-9.9277,1.3593-14.2392
			C107.9838,69.175,97.5537,60.6414,79.104,56.4063z"/>
		<path fill="#ffffff" d="M58.5085,57.9565c4.7439,2.1913,9.3001,1.891,14.6834-2.0112c6.3435-4.5428,10.926-12.6366,10.926-21.1191
			c0-13.544-8.9387-22.4131-19.9673-22.4131c-11.0263,0-19.9625,8.8691-19.9625,22.4131
			C44.1881,45.577,51.3359,54.6483,58.5085,57.9565z"/>
		<path fill="#ffffff" d="M59.722,62.8965c16.6344,33.2164,12.6789,25.318,21.3216,42.5742c0,0,2.3865-0.0146,5.0832-0.0146
			c4.9925,0,8.0214-5.0523,6.8318-9.354c-1.1037-3.9942-6.6216-7.4625-13.6708-7.4483h-0.0096l-12.684-25.3301
			C64.7913,63.6171,62.7427,63.7342,59.722,62.8965z"/>
	</g>
</g>
</svg>
