<?xml version="1.0" encoding="utf-8"?>
<!-- Generator: Adobe Illustrator 18.1.1, SVG Export Plug-In . SVG Version: 6.00 Build 0)  -->
<svg version="1.2" baseProfile="tiny" xmlns="http://www.w3.org/2000/svg" xmlns:xlink="http://www.w3.org/1999/xlink" x="0px"
	 y="0px" width="128px" height="128px" viewBox="0 0 128 128" xml:space="preserve">
<g id="_x31_28px_boxes">
	<rect fill="none" width="128" height="128"/>
</g>
<g id="Production">
	<g>
		<path fill="#ffffff" d="M67.6708,47.0316l29.4343,37.8025c-4.1543,3.6003-4.9143,9.7956-1.7615,14.293l-13.5272,10.5327
			c-3.6729-4.1689-9.9273-4.8475-14.4126-1.5584l-31.7144-40.731c4.1526-3.6074,4.9057-9.8112,1.7382-14.3066l10.9776-8.5478
			c-0.0564-0.5748-0.0164-0.2244-0.3377-8.9722L19.1841,58.0333l53.1422,68.251l41.2686-32.1328L68.0406,35.6459l-0.0073,0.2043
			L67.6708,47.0316z"/>
		<path fill="#ffffff" d="M57.3246,64.536c-6.3828,5.0063-7.4981,14.2382-2.4918,20.6206
			c5.0069,6.3833,14.2389,7.498,20.6211,2.4917c6.3819-5.0064,7.498-14.2383,2.4918-20.6211
			C72.9392,60.6448,63.7068,59.5296,57.3246,64.536z M72.036,70.2066l1.8371-1.4409l1.8101,2.3066l-1.6849,1.3223
			c0.7771,1.1108,1.4856,2.2402,1.9618,3.7886l-3.0669,1.3503l-0.0214-0.0703c-1.6319-5.465-6.1309-7.3988-3.7824-0.7871
			c1.2608,3.2661,1.0003,5.2061-0.8986,6.6961c-0.7824,0.6135-1.715,0.9377-2.697,0.9377c-2.3231,0-3.6076-1.3965-4.3665-1.9968
			l-1.9123,1.4995l-1.8106-2.3072l1.7383-1.3627c-0.3012-0.5213-1.6323-2.0967-2.2099-4.52l3.2068-1.4236
			c0.8517,3.3991,3.2697,6.7452,4.702,5.6247c2.0128-1.5794-3.6993-7.354,0.3868-10.5576c0.7765-0.6096,1.6583-0.9187,2.621-0.9187
			C70.0517,68.3475,71.4781,69.8411,72.036,70.2066z"/>
		<path fill="#ffffff" d="M77.8824,98.4496c1.6282,2.0761,4.6142,2.4237,6.6765,0.8071c2.0684-1.6225,2.4297-4.6085,0.807-6.6773
			c-1.6286-2.0769-4.6158-2.424-6.6767-0.8068C76.626,93.391,76.264,96.3863,77.8824,98.4496z"/>
		<path fill="#ffffff" d="M54.7994,53.6107c-1.6294-2.0773-4.6155-2.4238-6.677-0.8069c-2.0631,1.6181-2.4251,4.6135-0.8069,6.677
			c1.6284,2.0764,4.6157,2.424,6.677,0.8069C56.0553,58.6698,56.4173,55.6744,54.7994,53.6107z"/>
		<path fill="#ffffff" d="M64.0609,21.1495L64.692,3.6583c0.0381-1.0604-0.8117-1.9426-1.8739-1.9426h-9.5249
			c-1.0608,0-1.912,0.8811-1.8737,1.9426l0.625,17.3162c-12.5652-0.3494-25.1773-1.2125-37.6394-2.5797v9.0513
			c12.5733,1.3526,25.2585,2.2026,37.9647,2.5391l0.5042,13.9695c0.0364,1.0085,0.8648,1.8074,1.8738,1.8074h6.6163
			c1.0093,0,1.8374-0.7989,1.8738-1.8074l0.4983-13.8067c14.3823,0.0376,28.7657-0.583,43.0991-1.8608v-9.0379
			C93.1001,20.4984,78.8259,21.1761,64.0609,21.1495z"/>
	</g>
</g>
</svg>
