<?xml version="1.0" encoding="utf-8"?>
<!-- Generator: Adobe Illustrator 18.1.1, SVG Export Plug-In . SVG Version: 6.00 Build 0)  -->
<svg version="1.2" baseProfile="tiny" xmlns="http://www.w3.org/2000/svg" xmlns:xlink="http://www.w3.org/1999/xlink" x="0px"
	 y="0px" width="128px" height="128px" viewBox="0 0 128 128" xml:space="preserve">
<g id="_x31_28px_boxes">
	<rect fill="none" width="128" height="128"/>
</g>
<g id="Production">
	<g>
		<path fill="#ffffff" d="M99.824,52.7726v-3.8639c-34.6582,0-30.9188,0-65.6936,0v3.7811
			c-2.5865,0.6613-4.2771,2.042-5.3159,3.2555c-2.6756,3.1255-3.5877,7.9948-2.6375,14.0814
			c1.0186,6.5264,4.4578,9.9887,7.3174,11.508c3.2077,11.1778,9.6045,18.3153,14.5322,22.3942
			c6.0266,4.9889,13.2359,8.0881,18.814,8.0881c5.6455,0,12.8701-3.0395,18.8542-7.932
			c4.9666-4.0608,11.3836-11.2145,14.4771-22.5663c2.8537-1.5274,6.2727-4.988,7.2876-11.4918
			c0.9502-6.0866,0.0383-10.9558-2.637-14.0812C103.8264,54.782,102.2336,53.4621,99.824,52.7726z M100.3564,68.9181
			c-0.8032,5.1466-3.5109,6.2799-4.0378,6.4534l-2.1404,0.3216c-0.5729,2.476-0.7041,3.0965-1.0388,4.2802
			c-4.8989,17.3247-19.5828,24.8545-26.2988,24.8545c-2.9773,0-8.4905-1.6858-14.2298-6.4367
			c-6.6734-5.5242-11.5742-13.6134-12.9675-22.6624l-2.3247-0.3569c-0.5247-0.1725-3.2349-1.3042-4.0386-6.4537
			c-0.5984-3.8349-0.2356-6.8593,0.9959-8.2977c0.4175-0.4878,1.196-1.1364,3.1264-1.1364h0.0162v5.3202
			c0,1.6362,1.3264,2.9625,2.9626,2.9625s2.9626-1.3263,2.9626-2.9625v-3.3054c2.606-0.1826,9.0815-2.8665,13.0601-7.4464
			c8.2511,9.5182,22.0886,8.5092,34.1375,4.6472v6.1046c0,1.6362,1.3264,2.9625,2.9626,2.9625s2.9627-1.3263,2.9627-2.9625V59.489
			c1.7595,0.0505,2.4941,0.6641,2.8945,1.1316C100.5923,62.0591,100.9551,65.0832,100.3564,68.9181z"/>
		<path fill="#ffffff" d="M112.5398,16.1089H18.8589c-1.9569,0-3.7468,1.5684-3.7495,3.7453
			c0.0027,0.0386,0.0168,1.2166,0.0168,21.1711c-2.4028,2.1964-3.416,7.6459-3.416,10.2403c0,5.1902,3.6858,5.1902,5.6658,5.1902
			c1.9802,0,5.666,0,5.666-5.1902c0-2.5942-1.0129-8.0434-3.4158-10.24V23.6089h14.5042v20.7998c8.0887,0,58.4658,0,65.6936,0
			V23.6089h12.7158c2.071,0,3.75-1.679,3.75-3.75S114.6108,16.1089,112.5398,16.1089z"/>
		<path fill="#ffffff" d="M15.1089,19.8589c0-0.0016,0.0005-0.0031,0.0005-0.0047C15.1091,19.85,15.1089,19.8589,15.1089,19.8589z"
			/>
		<path fill="#ffffff" d="M87.823,72.6275h-3.9055c0.3686-0.7315,0.5776-1.5572,0.5776-2.4319c0-2.9927-2.4248-5.4175-5.4104-5.4175
			c-2.9924,0-5.4172,2.4248-5.4172,5.4175c0,0.8747,0.209,1.7004,0.5779,2.4319c-2.9671,0-11.6542,0.0013-14.618,0.0032
			c0.3702-0.7322,0.5801-1.5591,0.5801-2.4351c0-2.9927-2.4282-5.4175-5.415-5.4175c-2.9915,0-5.4158,2.4248-5.4158,5.4175
			c0,0.8786,0.2109,1.7076,0.5825,2.4415l-3.9431,0.0026l-0.0007,0.0002c-0.979,0-1.8067,0.8267-1.7254,1.8782
			c1.042,12.3532,17.4017,15.431,21.792,1.5818l1.7078-0.0008c4.3047,13.5774,20.7263,11.0445,21.792-1.581
			C89.6724,73.4531,88.7968,72.6275,87.823,72.6275z M48.147,76.105l14.2282-0.0044C58.9412,84.4052,50.2598,82.9068,48.147,76.105z
			 M71.4836,76.0981l-0.0009-0.0022c4.4133,0.0016,1.5175,0,14.2556,0.0086C83.6552,82.9271,74.8643,84.3793,71.4836,76.0981z"/>
	</g>
</g>
</svg>
