<?xml version="1.0" encoding="utf-8"?>

<svg version="1.2" baseProfile="tiny" xmlns="http://www.w3.org/2000/svg" xmlns:xlink="http://www.w3.org/1999/xlink" x="0px"
	 y="0px" width="128px" height="128px" viewBox="0 0 128 128" xml:space="preserve">
<g id="_x31_28px_boxes">
	<rect fill="none" width="128" height="128"/>
</g>
<g id="Production">
	<g>
		<path fill="#ffffff" d="M54.6912,82.8865c-4.6321-5.8721-14.1555-19.3483-13.2459-30.2531
			c0.3811-4.5699,1.453-8.7534,3.2129-12.3528c-1.2142,21.1764,12.44,24.1015,22.8599,42.6059h19.3516
			c-0.3063-8.8654-4.308-16.2525-13.5809-25.2054c-3.6793-3.5524-4.6127-6.4643-4.7279-8.327
			c4.7521,1.7376,14.0855,5.1522,15.8175,5.8014c1.4908,0.5589,2.9574,0.5066,4.2358-0.3622
			c2.987-2.031,5.1869-6.3314,4.9038-9.5862c-0.3807-4.3773-5.5782-6.5291-10.6591-11.6096
			c-4.5063-4.5066-7.1622-9.0737-7.1872-9.1172c-0.3664-0.638-0.9953-1.082-1.719-1.2137l-8.2632-1.5024v-9.9378
			c0-1.7958-1.8449-3.0072-3.4937-2.2899c-8.0862,3.5185-12.2861,10.4802-14.0875,14.3708
			c-2.9545,1.6443-5.6007,3.7601-7.8538,6.3033c-4.9725,5.613-7.8128,12.9256-8.4422,21.7348
			c-1.0316,14.444,6.7076,25.8201,10.9949,30.9411H54.6912z"/>
		<path fill="#ffffff" d="M95.985,112.7096c-1.6969-5.0556-4.9972-9.2689-8.2413-12.4501c2.6531-0.8507,4.5793-3.3402,4.5793-6.272
			c0-3.6312-2.9542-6.5854-6.5854-6.5854h-42.69c-3.6312,0-6.5854,2.9542-6.5854,6.5854c0,2.932,1.9264,5.4216,4.5796,6.2721
			c-3.2948,3.231-6.6479,7.5268-8.32,12.6879c-0.9154,2.8257,1.196,5.7234,4.162,5.7234h55.0176c0.0015,0,0.0033,0,0.0033,0
			C94.9856,118.6709,97.0978,115.5691,95.985,112.7096z"/>
	</g>
</g>
</svg>
