<?xml version="1.0" encoding="utf-8"?>
<!-- Generator: Adobe Illustrator 18.1.1, SVG Export Plug-In . SVG Version: 6.00 Build 0)  -->
<svg version="1.2" baseProfile="tiny" xmlns="http://www.w3.org/2000/svg" xmlns:xlink="http://www.w3.org/1999/xlink" x="0px"
	 y="0px" width="128px" height="128px" viewBox="0 0 128 128" xml:space="preserve">
<g id="_x31_28px_boxes">
	<rect fill="none" width="128" height="128"/>
</g>
<g id="Production">
	<g>
		<path fill="#ffffff" d="M68.1667,53.7499c7.462-0.0191,13.501-6.0562,13.5124-13.525
			c-0.0114-7.4614-6.0504-13.5005-13.5124-13.5121c-7.4669,0.0116-13.5077,6.0561-13.523,13.5121
			C54.659,47.6937,60.6998,53.7308,68.1667,53.7499z"/>
		<path fill="#ffffff" d="M38.3137,65.7186h51.4741c5.723,0,10.361-4.6377,10.361-10.3628V28.8461
			c0-5.7252-4.638-10.3629-10.361-10.3629h-4.437l-5.6659-8.0488c-0.4132-0.5918-1.0973-0.9521-1.8183-0.9521H58.4722
			c-0.727,0-1.4106,0.3603-1.8288,0.9521l-5.6612,8.0488h-3.0346v-0.0634c0-1.6851-1.3678-3.0528-3.055-3.0528h-5.6552
			c-1.6831,0-3.0531,1.3677-3.0531,3.0528v0.2885c-4.6952,0.981-8.2251,5.1436-8.2251,10.1378v26.5097
			C27.9592,61.0809,32.595,65.7186,38.3137,65.7186z M68.1673,21.076c10.5761,0.0078,19.1426,8.5801,19.1465,19.1484
			c0,10.5821-8.5704,19.1543-19.1465,19.1543c-10.5759,0-19.1486-8.5722-19.154-19.1543
			C49.0187,29.6561,57.5914,21.0838,68.1673,21.076z"/>
		<path fill="#ffffff" d="M102.3763,109.8741L76.0235,77.3084c0.8648-1.7661,1.3517-3.7509,1.3517-5.8501H50.7327
			c0,2.0664,0.4705,4.0225,1.3101,5.7679l-26.4193,32.6479c-1.8432,2.2778-1.4909,5.6189,0.7868,7.4622
			c2.2769,1.8425,5.6183,1.4919,7.4621-0.7869l24.8757-30.7405v27.4029c0,2.9304,2.3755,5.3059,5.3057,5.3059
			c2.9304,0,5.3059-2.3755,5.3059-5.3059V85.9427l24.7677,30.6067c1.8443,2.2788,5.1849,2.6293,7.4621,0.7869
			C103.8675,115.493,104.2197,112.1519,102.3763,109.8741z"/>
	</g>
</g>
</svg>
