<?xml version="1.0" encoding="utf-8"?>
<!-- Generator: Adobe Illustrator 18.1.1, SVG Export Plug-In . SVG Version: 6.00 Build 0)  -->
<svg version="1.2" baseProfile="tiny" xmlns="http://www.w3.org/2000/svg" xmlns:xlink="http://www.w3.org/1999/xlink" x="0px"
	 y="0px" width="128px" height="128px" viewBox="0 0 128 128" xml:space="preserve">
<g id="box">
	<rect fill="none" width="128" height="128"/>
</g>
<g id="Production">
	<g>
		<path fill="#ffffff" d="M70.919,81.4105c10.0023,9.5539,18.8085,10.4809,19.0828,10.5041c0.9757,0.1517,1.9638-0.7683,1.87-1.852
			c-0.355-4.2133-3.7617-12.4947-11.2961-20.0353h-0.0026c-4.6636-4.6729-7.2453-7.2423-25.6554-25.653v-0.0075
			c2.031-11.8338-6.1949-23.7113-14.7334-32.2178c-2.0132-2.0155-5.2661-2.0155-7.2793,0L12.1597,32.8917
			c-2.0132,2.016-2.0132,5.2713,0,7.2845c8.5708,8.6099,20.1977,16.5268,32.1563,14.672
			C59.3514,69.8913,69.4999,80.0507,70.919,81.4105z M44.357,44.2899c-6.6964,2.3894-15.5165-3.0414-21.1447-7.8891L36.414,23.1991
			C41.1687,28.7056,46.8877,37.6025,44.357,44.2899z"/>
		<path fill="#ffffff" d="M110.6032,73.3469C99.1667,61.8997,92.366,55.1098,92.366,55.1098c-1.3448-1.3526-3.5145-1.3526-4.8565,0
			l-7.7381,7.7352c6.2979,6.3108,3.1129,3.0936,4.836,4.8797l5.3353-5.338c2.9254,2.9225,8.3837,8.381,15.8042,15.8064v0.0055
			c3.4733,3.4448,4.7386,8.5649,4.7386,13.9902c0,5.0692-1.1288,10.7798-2.7358,15.6091
			c-4.8418,1.5728-10.4241,2.699-15.5147,2.6897c-5.4249,0.0078-10.5759-1.2654-14.0339-4.7539
			c-7.4228-7.4179-12.884-12.8686-15.8066-15.7993l5.3381-5.3376c-1.0141-0.9709,0.6162,0.6646-4.8821-4.8333l-7.7406,7.7402
			c-1.3395,1.345-1.3395,3.5171,0,4.8616c0.0077,0,1.6955,1.6983,4.8257,4.8233c3.1301,3.1223,7.687,7.687,13.4089,13.4064
			c5.351,5.3177,12.5152,6.7623,18.8905,6.7676c10.2356-0.0259,19.2494-3.6272,19.4596-3.6836
			c0.8887-0.3584,1.5854-1.0551,1.9364-1.9441c0.0664-0.2099,3.691-9.2749,3.7192-19.5461
			C117.3502,85.8211,115.9106,78.68,110.6032,73.3469z"/>
	</g>
</g>
</svg>
