<?xml version="1.0" encoding="utf-8"?>
<!-- Generator: Adobe Illustrator 18.1.1, SVG Export Plug-In . SVG Version: 6.00 Build 0)  -->
<svg version="1.2" baseProfile="tiny" xmlns="http://www.w3.org/2000/svg" xmlns:xlink="http://www.w3.org/1999/xlink" x="0px"
	 y="0px" width="128px" height="128px" viewBox="0 0 128 128" xml:space="preserve">
<g id="_x31_28px_boxes">
	<rect fill="none" width="128" height="128"/>
</g>
<g id="Production">
	<g>
		<path fill="#ffffff" d="M70.9301,18.9414c2.563-2.5624,0.7228-6.9461-2.8773-6.9461c-3.5986,0-5.4418,4.3821-2.8767,6.9466
			C66.7652,20.5313,69.339,20.5326,70.9301,18.9414z"/>
		<path fill="#ffffff" d="M69.65,22.9319c-1.3582,1.3583-1.3582,3.5604,0.0001,4.9186l16.5471,16.5461
			c1.3583,1.3583,3.5602,1.3583,4.9186-0.0001c1.3582-1.3583,1.3582-3.5604,0-4.9186L74.5686,22.9318
			C73.2104,21.5736,71.0081,21.5737,69.65,22.9319z"/>
		<path fill="#ffffff" d="M50.672,41.9105c-1.3582,1.3582-1.3582,3.5604,0.0001,4.9186l16.5464,16.5462
			c1.3581,1.3581,3.56,1.3583,4.9185-0.0002c1.3582-1.3581,1.3582-3.5603-0.0001-4.9185L55.5905,41.9104
			C54.2324,40.5523,52.0304,40.5521,50.672,41.9105z"/>
		<path fill="#ffffff" d="M93.3995,32.6207c1.3585,1.3586,3.5605,1.3581,4.9186,0.0002c1.3583-1.3583,1.3583-3.5604,0.0001-4.9186
			L81.7723,11.156c-1.3583-1.3582-3.5605-1.3584-4.9186-0.0001c-1.3583,1.3583-1.3583,3.5604-0.0001,4.9186L93.3995,32.6207z"/>
		<path fill="#ffffff" d="M60.9929,38.1714l16.5464,16.5463c1.3582,1.3581,3.5597,1.3583,4.9185,0
			c1.3582-1.3583,1.3582-3.5605-0.0001-4.9187L65.9114,33.2527c-1.3582-1.3581-3.5602-1.3583-4.9186,0.0001
			C59.6346,34.611,59.6346,36.8131,60.9929,38.1714z"/>
		<path fill="#ffffff" d="M55.4421,70.5782c1.3583,1.3586,3.5606,1.3581,4.9185,0.0002c1.3582-1.3582,1.3584-3.5603,0.0002-4.9186
			L43.815,49.1132c-1.3581-1.3582-3.5602-1.3583-4.9186-0.0002c-1.3582,1.3582-1.3584,3.5604-0.0001,4.9186L55.4421,70.5782z"/>
		<path fill="#ffffff" d="M101.6883,21.1046c6.8183,8.5234-2.9682,24.5962-15.7405,37.3699
			C73.0082,71.4137,56.6037,81.2085,48.2434,73.933c-6.8956,2.6215-14.6588,6.6148-22.2796,13.4364
			c-11.1264,9.9594-14.9774,23.26-9.8695,28.3687c5.1084,5.1081,17.8091,0.6897,28.3686-9.8694
			c2.9892-2.989,5.9571-6.4661,9.3784-10.3505c8.8448-10.0434,21.3086-7.6919,41.3838-27.7663
			c13.2437-13.2437,17.9673-23.1753,18.852-32.6465C114.7818,27.5733,108.4051,21.2195,101.6883,21.1046z"/>
		<path fill="#ffffff" d="M63.2484,23.3564c-0.0002-2.2486-1.8203-4.0691-4.0695-4.0691c-3.5896,0-5.4452,4.3773-2.8767,6.9466
			C58.878,28.8102,63.2491,26.9424,63.2484,23.3564z"/>
		<path fill="#ffffff" d="M48.0442,40.484c0-2.2482-1.8197-4.0689-4.0689-4.0689c-3.5978,0-5.442,4.3805-2.8779,6.9463
			C43.6747,45.9376,48.0442,44.07,48.0442,40.484z"/>
		<path fill="#ffffff" d="M51.1372,35.5494c2.2485,0,4.069-1.8197,4.069-4.0693c0-2.2526-1.8239-4.0692-4.0687-4.0692
			c-2.248,0-4.0694,1.8202-4.0694,4.0697C47.0681,33.7288,48.8883,35.5494,51.1372,35.5494z"/>
	</g>
</g>
</svg>
