<?xml version="1.0" encoding="utf-8"?>
<!-- Generator: Adobe Illustrator 18.1.1, SVG Export Plug-In . SVG Version: 6.00 Build 0)  -->
<svg version="1.2" baseProfile="tiny" xmlns="http://www.w3.org/2000/svg" xmlns:xlink="http://www.w3.org/1999/xlink" x="0px"
	 y="0px" width="128px" height="128px" viewBox="0 0 128 128" xml:space="preserve">
<g id="_x31_28px_boxes">
	<rect fill="none" width="128" height="128"/>
</g>
<g id="Production">
	<g>
		<path fill="#ffffff" d="M59.9287,30.4078c2.3608-1.9595,5.782-1.9595,8.1427,0l0.0001,0.0002
			c1.5503-2.1421,3.2757-4.1367,5.1725-5.9719c-0.063-0.0926-0.1263-0.1861-0.1888-0.2766
			c-3.8964-5.6336-7.6978-8.8162-7.8577-8.949c-0.6943-0.5762-1.7007-0.5762-2.395,0c-0.1599,0.1328-3.9613,3.3154-7.8577,8.949
			c-0.0625,0.0903-0.1257,0.1838-0.1886,0.2761C56.6531,26.271,58.3784,28.2657,59.9287,30.4078z"/>
		<path fill="#ffffff" d="M47.6732,46.1695c2.9447-5.6392,6.4625-9.9297,8.9768-12.6026c-2.4003-3.4294-5.2822-6.4453-8.621-8.9965
			c-0.7894-0.6031-1.9126-0.4861-2.56,0.2673c-2.0629,2.3975-5.6402,8.2014-7.2553,15.3672
			C41.5918,41.7745,44.7511,43.771,47.6732,46.1695z"/>
		<path fill="#ffffff" d="M71.3502,33.5672c2.5142,2.6728,6.0316,6.9629,8.9761,12.6013c2.9225-2.3982,6.082-4.395,9.4603-5.9646
			c-1.5753-6.9879-5.0698-12.8264-7.2551-15.3662c-0.6475-0.7534-1.7706-0.8704-2.5601-0.2673
			C76.6326,27.1216,73.7506,30.1377,71.3502,33.5672z"/>
		<path fill="#ffffff" d="M56.1977,55.2144c6.977-7.6004,9.7758-6.3489,15.6037-0.001c1.5763-2.1362,3.2649-4.1086,5.0628-5.907
			c-1.2288-2.5083-2.5643-4.6872-3.809-6.487c-3.8964-5.6336-7.6978-8.8162-7.8577-8.949c-0.6943-0.5762-1.7007-0.5762-2.395,0
			c-0.1599,0.1328-3.9613,3.3154-7.8577,8.949c-1.2449,1.8-2.5806,3.9792-3.8094,6.488
			C52.9331,51.1058,54.6216,53.0782,56.1977,55.2144z"/>
		<path fill="#ffffff" d="M46.7314,69.2227c1.9711-4.1738,4.3108-7.6924,6.471-10.4648
			c-5.5741-7.8831-12.738-13.3877-21.151-16.1612c-0.9661-0.3186-2.0099,0.1914-2.3526,1.1492
			c-1.5766,4.4118-2.7094,12.3446-1.5079,19.8335C34.858,64.167,41.0561,66.0572,46.7314,69.2227z"/>
		<path fill="#ffffff" d="M74.7969,58.7566c2.1602,2.7727,4.5003,6.2918,6.4716,10.4661
			c5.6748-3.1655,11.8726-5.0554,18.5391-5.6431c1.1821-7.3691,0.109-15.3089-1.5079-19.8337
			c-0.3427-0.9578-1.3871-1.468-2.3525-1.1492C87.5344,45.3702,80.3708,50.8743,74.7969,58.7566z"/>
		<path fill="#ffffff" d="M50.5878,71.6258C55.7754,75.2145,60.278,79.8066,64,85.0997c3.7223-5.2935,8.2244-9.885,13.4122-13.4739
			c-1.3722-3.0003-2.9244-5.5755-4.357-7.6468c-3.8964-5.6333-7.6978-8.8159-7.8578-8.9487c-0.6941-0.5762-1.7007-0.5762-2.3948,0
			c-0.16,0.1328-3.9614,3.3154-7.8578,8.9487C53.5122,66.0503,51.9598,68.6255,50.5878,71.6258z"/>
		<path fill="#ffffff" d="M103.1352,67.8958C80.4455,68.4756,68.6866,84.886,64,93.6951
			c-4.6867-8.8091-16.4456-25.2195-39.1353-25.7993c-1.0903-0.028-1.9742,0.8783-1.9205,1.9663
			c0.0139,0.2832,0.3849,7.0134,4.2141,14.0237C30.5849,90.1592,37.4797,97.7664,51,99.1905v12.1562
			c0,1.0357,0.8395,1.875,1.875,1.875h22.25c1.0355,0,1.875-0.8393,1.875-1.875V99.1905
			c13.5202-1.4241,20.415-9.0313,23.8417-15.3047c3.8292-7.0103,4.2002-13.7405,4.2141-14.0237
			C105.1101,68.7575,104.2027,67.8618,103.1352,67.8958z"/>
	</g>
</g>
</svg>

