<?xml version="1.0" encoding="utf-8"?>
<!-- Generator: Adobe Illustrator 18.1.1, SVG Export Plug-In . SVG Version: 6.00 Build 0)  -->
<svg version="1.2" baseProfile="tiny" xmlns="http://www.w3.org/2000/svg" xmlns:xlink="http://www.w3.org/1999/xlink" x="0px"
	 y="0px" width="128px" height="128px" viewBox="0 0 128 128" xml:space="preserve">
<g id="_x31_28px_boxes">
	<rect fill="none" width="128" height="128"/>
</g>
<g id="Production">
	<g>
		<path fill="#ffffff" d="M90.406,100.8884L68.1538,81.9065c-1.886-1.6089-2.1152-4.44-0.5127-6.3311l2.926-3.4533l-5.6675-4.751
			L37.5632,99.6323c-1.4507,9.4277-2.5686,16.6943-2.5686,16.6943c-0.2062,1.3482,0.7808,2.72,2.4141,2.72h17.8371v-9.6087
			c0-10.4731,7.4917-10.4557,8.5-10.4557c0.9409,0,8.5-0.0174,8.5,10.4555v9.6089h18.117c0.0017,0,0.0036,0,0.0049,0
			c1.5645,0,2.7176-1.3944,2.3847-2.9031C92.7524,116.1435,91.7468,109.6164,90.406,100.8884z"/>
		<path fill="#ffffff" d="M85.3569,68.0629c-0.8589-5.5737-1.4846-9.6206-1.6306-10.5332c-0.425-3.1486-1.5874-6.0654-3.3018-8.5763
			l-7.3637,8.6906l-3.0865-2.6152l10.1226-11.9461l4.6265,3.9202c1.2605,1.0682,3.1438,0.9072,4.207-0.3476l20.769-24.5113
			c1.0646-1.2566,0.91-3.1409-0.3476-4.207l-8.9024-7.5428c-1.2568-1.0653-3.1406-0.9103-4.2067,0.3477L70.3689,41.2778
			c-2.0347-0.7002-4.2146-1.0855-6.4844-1.0855c-3.1423,0-6.1155,0.7308-8.7637,2.0269l-3.4883-2.9556l3.92-4.6259
			c1.0656-1.2579,0.9099-3.1411-0.3477-4.2068L30.6933,9.6608c-1.2525-1.061-3.1367-0.915-4.207,0.3477l-7.5432,8.9023
			c-1.0645,1.256-0.9099,3.1413,0.3477,4.2068l38.7351,32.8216l-2.6863,3.1704l-9.3272-7.9031
			c-0.9858,1.9482-1.667,4.0762-1.9702,6.3232c-0.072,0.4669-0.4309,2.7979-0.9668,6.2801
			c-0.5195-0.3699-1.1242-0.5518-1.7265-0.5518c-0.847,0-1.6885,0.3584-2.2789,1.0552L18.301,88.8244
			c-1.0657,1.2576-0.9099,3.1411,0.3477,4.2068l8.9018,7.543c1.2603,1.0679,3.1438,0.9073,4.207-0.3477l32.7112-38.6044
			l11.899,10.0822l-3.9197,4.6262c-1.0657,1.2576-0.9099,3.1411,0.3476,4.2068l24.5113,20.77
			c1.2544,1.0633,3.1389,0.9125,4.207-0.3476l7.5435-8.9021c1.0649-1.2569,0.9099-3.1416-0.3477-4.2071L85.3569,68.0629z"/>
	</g>
</g>
</svg>
