<?xml version="1.0" encoding="utf-8"?>
<!-- Generator: Adobe Illustrator 18.1.1, SVG Export Plug-In . SVG Version: 6.00 Build 0)  -->
<svg version="1.2" baseProfile="tiny" xmlns="http://www.w3.org/2000/svg" xmlns:xlink="http://www.w3.org/1999/xlink" x="0px"
	 y="0px" width="128px" height="128px" viewBox="0 0 128 128" xml:space="preserve">
<g id="_x31_28px_boxes">
	<rect fill="none" width="128" height="128"/>
</g>
<g id="Production">
	<g>
		<path fill="#ffffff" d="M107.002,28.0961c-1.4343-0.3545-2.876-0.1289-4.0784,0.5267
			c-0.7846-6.2873-6.103-11.2209-12.6174-11.3359c-7.1257-0.1294-13.0488,5.6269-13.1741,12.7178
			c-0.1283,7.2755,5.7324,13.176,12.9498,13.176c3.0271,0,5.8278-1.065,8.0451-2.8377l-2.844,11.5122
			c-1.365-1.3449-3.0864-2.3652-5.0723-2.8896c-6.0764-1.6045-12.3029,2.0205-13.9074,8.0967l-4.7364,17.9353l-28.1113-0.0008
			c-2.4709,0.0176-4.8931,1.2071-6.3906,3.4034l-19.3472,28.365c-1.5386,2.2544-1.3786,5.3527,0.5557,7.4387
			c2.2466,2.4223,6.0317,2.5652,8.4541,0.3186L46.285,96.3859c-0.3213,1.8047,0.5275,6.6838,5.5886,6.6838h38.0103
			c2.6118,0,4.8867-1.7813,5.5131-4.3169l15.7564-63.7817C111.9056,31.9263,110.0469,28.8482,107.002,28.0961z"/>
		<path fill="#ffffff" d="M46.4629,68.1015c13.6155,0,24.6927-12.6101,24.6927-28.11c0-15.4998-11.0772-28.1098-24.6927-28.1098
			c-8.3628,0-16.0459,4.753-20.5905,12.5723h-6.5347v8.3567h9.0657c1.6277,0,3.1074-0.9453,3.7915-2.4224
			c2.8996-6.2606,8.3669-10.1499,14.268-10.1499c9.0076,0,16.3357,8.8612,16.3357,19.7531s-7.3281,19.7533-16.3357,19.7533
			c-5.9011,0-11.3684-3.8893-14.268-10.1499c-0.6841-1.4771-2.1638-2.4224-3.7915-2.4224h-9.0657v8.3567h6.5347
			C30.417,63.3485,38.1001,68.1015,46.4629,68.1015z"/>
	</g>
</g>
</svg>
