<?xml version="1.0" encoding="utf-8"?>
<!-- Generator: Adobe Illustrator 19.1.0, SVG Export Plug-In . SVG Version: 6.00 Build 0)  -->
<svg version="1.2" baseProfile="tiny" xmlns="http://www.w3.org/2000/svg" xmlns:xlink="http://www.w3.org/1999/xlink" x="0px"
	 y="0px" width="64px" height="64px" viewBox="0 0 64 64" xml:space="preserve">
<g id="_x36_4px_boxes">
	<rect fill="none" width="64" height="64"/>
</g>
<g id="Production">
	<path fill="#ffffff" d="M32,7C18.2148,7,7,18.2148,7,32s11.2148,25,25,25s25-11.2148,25-25S45.7852,7,32,7z M32,55
		c-4.7097,0-9.0918-1.4252-12.7421-3.8638c3.9006-1.1829,7.1669-1.8311,7.5377-5.7891c0.1367-1.4586-0.3019-3.3332-0.3019-3.3332
		c-1.3802-1.473-1.6809-3.8605-2.2244-6.3211c-1.7511-0.3515-2.2346-3.5096-2.1134-5.0384c0.1047-1.3202,0.799-1.4082,0.9822-1.4081
		c0.0281,0,0.0443,0.0021,0.0443,0.0021s-1.0265-4.5698-0.3622-7.2647c0.9264-3.759,6.5139-5.8586,10.1972-5.8586
		s6.9912,2.0997,7.9177,5.8586c0.6642,2.6949-0.3623,7.2647-0.3623,7.2647s0.0161-0.0021,0.0443-0.0021
		c0.1833,0,0.8776,0.088,0.9822,1.4081c0.1212,1.5288-0.3623,4.6869-2.1134,5.0384c-0.5435,2.4606-0.4301,4.1785-2.2244,6.3211
		c0,0-0.4386,1.8746-0.3019,3.3332c0.3721,3.9712,3.7266,4.6384,7.6774,5.8564C41.0078,53.6,36.6652,55,32,55z M46.6214,49.7415
		c-0.8221-0.282-1.6192-0.5219-2.3699-0.7476c-3.8424-1.1548-5.1013-1.707-5.3005-3.8334c-0.0667-0.7121,0.066-1.682,0.1738-2.2756
		c1.4515-1.9099,1.7489-3.6308,2.0372-5.2988c0.0296-0.1713,0.0596-0.3447,0.0911-0.5204c1.9503-1.3698,2.5007-4.5425,2.34-6.5694
		c-0.0753-0.9495-0.3772-1.6772-0.8029-2.2009c0.2847-1.7198,0.6179-4.6357,0.0869-6.7904c-1.088-4.4142-5.0502-7.38-9.8596-7.38
		c-4.162,0-10.8983,2.3455-12.1391,7.38c-0.5311,2.1547-0.1979,5.0705,0.0868,6.7903c-0.4257,0.5237-0.7276,1.2515-0.8029,2.201
		c-0.1612,2.0325,0.3927,5.2173,2.3563,6.5807c0.0094,0.0453,0.0187,0.0905,0.0281,0.1357c0.4166,2.0148,0.8462,4.092,2.0889,5.7
		c0.1082,0.6015,0.2346,1.5463,0.1688,2.2477c-0.1992,2.1263-1.4376,2.6672-5.2166,3.787
		c-0.7291,0.2161-1.5027,0.4465-2.3002,0.7151C12.227,45.4402,9,39.0906,9,32C9,19.3179,19.3179,9,32,9s23,10.3179,23,23
		C55,39.1338,51.7352,45.5195,46.6214,49.7415z"/>
</g>
</svg>

