<?xml version="1.0" encoding="utf-8"?>

<svg version="1.2" baseProfile="tiny" xmlns="http://www.w3.org/2000/svg" xmlns:xlink="http://www.w3.org/1999/xlink" x="0px"
	 y="0px" width="64px" height="64px" viewBox="0 0 64 64" xml:space="preserve">

<g id="Production">
	<g>
		<polygon fill="#ffffff" points="21.0852,33.0159 28.4312,40.3616 21.0852,47.7072 24.6205,51.2423 31.9664,43.8967 
			39.3123,51.2423 42.8475,47.7072 35.5016,40.3616 42.8475,33.0159 39.3123,29.4808 31.9664,36.8264 24.6205,29.4808 		"/>
		<path fill="#ffffff" d="M48.4669,3H32.7047c-4.5007,0-6.7245,2.7769-8.5176,4.5933l2.7328,4.355
			C29.4838,9.3514,30.3955,8,32.7047,8h15.7621C50.3966,8,52,9.5454,52,11.4751V15H31.0001c-3.2874,0-4.2798,0.4365-5.9973,1.3694
			c-3.8309-6.0962-1.727-2.7349-5.5588-8.8326c-8.2655,5.1931-5.3381,3.3512-15.154,9.5184l5.5776,8.853
			C8.0542,27.3236,7,29.4725,7,31.8069v20.6677C7,57.1611,10.7792,61,15.4659,61h33.0009C53.1535,61,57,57.1611,57,52.4746V19.9751
			c0-7.5906,0-0.8289,0-8.5C57,6.7887,53.1535,3,48.4669,3z M52,52.4746C52,54.4043,50.3966,56,48.4669,56H15.4659
			C13.5362,56,12,54.4043,12,52.4746V31.8069c0-0.8625,0.4183-1.6506,1.1467-2.1111l6.8776-4.3274c0,0-2.6644-4.2329-2.6654-4.2341
			c-0.0057,0.0035-3.2942,2.0684-3.2999,2.072l-2.8774-4.5769c4.0745-2.5603,2.6836-1.6865,6.6803-4.1982l0.6033,0.9604
			l0.0037-0.0024c0.0055,0.0088,4.9338,7.8507,4.9338,7.8507l3.6109-2.2565C28.0499,20.3323,29.2449,20,30.4703,20H52V52.4746z"/>
	</g>
</g>
</svg>
