<?xml version="1.0" encoding="utf-8"?>

<svg version="1.2" baseProfile="tiny" xmlns="http://www.w3.org/2000/svg" xmlns:xlink="http://www.w3.org/1999/xlink" x="0px"
	 y="0px" width="128px" height="128px" viewBox="0 0 128 128" xml:space="preserve">
<g id="_x31_28px_boxes">
	<rect fill="none" width="128" height="128"/>
</g>
<g id="Production">
	<g>
		<path fill="#ffffff" d="M112.7981,43.4843l-47.1599-23.748c-1.0303-0.519-2.2461-0.519-3.2764,0l-47.1599,23.748
			c-1.229,0.6187-2.0041,1.8773-2.0041,3.2531v57.9155h15.7439V51.1593h70.1166v53.4936h15.7439V46.7374
			C114.8022,45.3616,114.0271,44.103,112.7981,43.4843z"/>
		<path fill="#ffffff" d="M60.6614,83.8643H52.604v6.1751h-5.3384v-6.1751h-7.9602c-0.8393,0-1.5198,0.6804-1.5198,1.5198v17.749
			c0,0.8394,0.6805,1.5198,1.5198,1.5198h21.356c0.8393,0,1.5198-0.6804,1.5198-1.5198v-17.749
			C62.1812,84.5447,61.5007,83.8643,60.6614,83.8643z"/>
		<path fill="#ffffff" d="M60.6614,59.4541H52.604v6.1749h-5.3384v-6.1749h-7.9602c-0.8393,0-1.5198,0.6806-1.5198,1.52v17.7486
			c0,0.8394,0.6805,1.5198,1.5198,1.5198h21.356c0.8393,0,1.5198-0.6804,1.5198-1.5198V60.9741
			C62.1812,60.1347,61.5007,59.4541,60.6614,59.4541z"/>
		<path fill="#ffffff" d="M88.6946,83.8643h-8.0574v6.1751h-5.3384v-6.1751h-7.9602c-0.8393,0-1.5198,0.6804-1.5198,1.5198v17.749
			c0,0.8394,0.6805,1.5198,1.5198,1.5198h21.356c0.8393,0,1.5198-0.6804,1.5198-1.5198v-17.749
			C90.2144,84.5447,89.5339,83.8643,88.6946,83.8643z"/>
		<path fill="#ffffff" d="M88.6946,59.4541h-8.0574v6.1749h-5.3384v-6.1749h-7.9602c-0.8393,0-1.5198,0.6806-1.5198,1.52v17.7486
			c0,0.8394,0.6805,1.5198,1.5198,1.5198h21.356c0.8393,0,1.5198-0.6804,1.5198-1.5198V60.9741
			C90.2144,60.1347,89.5339,59.4541,88.6946,59.4541z"/>
	</g>
</g>
</svg>
