<?xml version="1.0" encoding="utf-8"?>

<svg version="1.2" baseProfile="tiny" xmlns="http://www.w3.org/2000/svg" xmlns:xlink="http://www.w3.org/1999/xlink" x="0px"
	 y="0px" width="64px" height="64px" viewBox="0 0 64 64" xml:space="preserve">

<g id="Production">
	<g>
		<path fill="#ffffff" d="M9,5v54h28.6086L54,42.5405V5H9z M49,40.4761L35.5325,54H14V10h35V40.4761z"/>
		<polygon fill="#ffffff" points="30,50 35,50 35,40 45,40 45,35 30,35 		"/>
		<path fill="#ffffff" d="M25.3877,28.9118l2.1719-1.2537C28,27.9947,28,28.2806,29,28.4969V31h5v-2.5031
			c1-0.2164,0.999-0.5023,1.4395-0.8389l2.1714,1.2537l2.5-4.33l-2.1707-1.2531c0.0786-0.615,0.0786-1.0488,0-1.6638l2.1704-1.253
			l-2.5-4.3301l-2.1711,1.2537C34.999,16.999,35,16.7131,34,16.4967V14h-5v2.4967c-1,0.2164-1,0.5023-1.4404,0.8389l-2.1719-1.2537
			l-2.5,4.3301l2.1704,1.253c-0.0786,0.6151-0.0786,1.0488,0,1.6638l-2.1707,1.2531L25.3877,28.9118z M31,19.9969
			c4,0,4,4.9999,0,4.9999C28,24.9968,28,19.9969,31,19.9969z"/>
	</g>
</g>
</svg>
