<?xml version="1.0" encoding="utf-8"?>
<!-- Generator: Adobe Illustrator 18.1.1, SVG Export Plug-In . SVG Version: 6.00 Build 0)  -->
<svg version="1.2" baseProfile="tiny" xmlns="http://www.w3.org/2000/svg" xmlns:xlink="http://www.w3.org/1999/xlink" x="0px"
	 y="0px" width="128px" height="128px" viewBox="0 0 128 128" xml:space="preserve">
<g id="_x31_28px_boxes">
	<rect fill="none" width="128" height="128"/>
</g>
<g id="Production">
	<g>
		<path fill="#ffffff" d="M72.3954,61.43c8.4752-8.4748,21.2517-9.7632,31.001-4.2234c4.244,0,6.1448-2.1708,6.1448-4.9756v-4.3296
			c0-2.7479-2.2276-4.9755-4.9756-4.9755H69.2421c1.9355,2.3692,2.5002,5.7146,1.1753,8.7023
			c-1.3862,3.126-4.4517,4.9844-7.6643,4.9844c-1.1348,0-2.2879-0.2318-3.3921-0.7214L30.1239,42.9259h-9.146
			c-2.748,0-4.9755,2.2276-4.9755,4.9755v4.3296c0,2.748,2.2275,4.9756,4.9755,4.9756h1.4229l6.5627,31.7925
			c0.3365,1.6298,1.7715,2.7988,3.4356,2.7988h35.4407C62.4492,81.6302,64.5377,69.2882,72.3954,61.43z M41.2179,63.8822
			l2.2945,17.1455c0.5024,3.7533-5.1868,4.5907-5.6993,0.7627l-2.2944-17.1456C35.0147,60.8802,40.7131,60.1116,41.2179,63.8822z
			 M52.4755,81.5439l-0.8706-17.1234c-0.1943-3.8197,5.5478-4.1159,5.7427-0.292l0.8703,17.1234
			C58.4121,85.0707,52.6704,85.3689,52.4755,81.5439z"/>
		<path fill="#ffffff" d="M61.131,51.8996c4.9022,2.174,8.0553-5.2063,3.2534-7.3362L25.5878,27.3588
			c-4.8461-2.149-8.1069,5.1837-3.2534,7.3362L61.131,51.8996z"/>
		<path fill="#ffffff" d="M105.7489,64.6121c-8.332-8.3318-21.8398-8.3318-30.1714-0.0002
			c-8.3591,8.3595-8.2901,21.8819,0.0003,30.1714c8.3305,8.3305,21.8404,8.3307,30.1711,0
			C114.0805,86.4517,114.0807,72.9439,105.7489,64.6121z M94.5026,83.5379v8.6402l-7.6799,0.0002v-8.6404h-8.6402v-7.6804h8.6402
			v-8.6401l7.6799-0.0003v8.6404h8.6411l0.0003,7.6804H94.5026z"/>
	</g>
</g>
</svg>
