<?xml version="1.0" encoding="utf-8"?>
<!-- Generator: Adobe Illustrator 18.1.1, SVG Export Plug-In . SVG Version: 6.00 Build 0)  -->
<svg version="1.2" baseProfile="tiny" xmlns="http://www.w3.org/2000/svg" xmlns:xlink="http://www.w3.org/1999/xlink" x="0px"
	 y="0px" width="64px" height="64px" viewBox="0 0 64 64" xml:space="preserve">

<g id="Production">
	<g>
		<path fill="#ffffff" d="M32,24c-4.4111,0-8,3.5889-8,8s3.5889,8,8,8s8-3.5889,8-8S36.4111,24,32,24z M32,38
			c-3.3086,0-6-2.6914-6-6s2.6914-6,6-6s6,2.6914,6,6S35.3086,38,32,38z"/>
		<path fill="#ffffff" d="M48.6472,38.002L57,35.0371v-6.2407l-8.3528-2.9647c-0.5952-0.2108-0.8346-0.8471-0.5852-1.371
			l3.7979-7.989l-4.4131-4.412l-7.9897,3.8014c-0.5564,0.2637-1.184-0.0221-1.3721-0.5496L35.1206,7h-6.2412l-2.964,8.311
			c-0.1872,0.5231-0.8376,0.7985-1.3725,0.5439l-7.9908-3.7983l-4.4141,4.4136l3.7961,7.9902
			c0.2431,0.5118,0.0059,1.1631-0.5814,1.3711L7,28.7964v6.2407l8.3528,2.9653c0.5991,0.2122,0.833,0.852,0.5852,1.3725
			l-3.7979,7.9921l4.4131,4.4167l7.9897-3.7905c0.5027-0.2388,1.1511-0.0075,1.3721,0.612L28.8794,57h6.2412l2.964-8.3943
			c0.2365-0.6611,0.8465-0.8764,1.3725-0.6272l7.9908,3.7979l4.4142-4.4131l-3.7962-7.9907
			C47.8205,38.856,48.063,38.2088,48.6472,38.002z M46.2554,40.2333l3.1924,6.7177l-2.417,2.4207l-6.7163-3.185
			c-1.5069-0.7151-3.4752-0.0435-4.1143,1.7487L33.7095,55h-3.4189l-2.4913-7.0652c-0.644-1.8081-2.5602-2.4997-4.1147-1.7629
			l-6.7164,3.1924l-2.418-2.417l3.1897-6.7153c0.7526-1.5808-0.0141-3.5099-1.7171-4.1147L9,33.626v-3.4185l7.0227-2.491
			c1.7168-0.6108,2.4764-2.5262,1.7219-4.1142l-3.1924-6.7145l2.417-2.416l6.7163,3.1959c1.6225,0.7704,3.529-0.0431,4.1143-1.6863
			L30.2905,9h3.4189l2.4913,6.9819c0.5845,1.6431,2.5187,2.4366,4.1147,1.6797l6.7164-3.1929l2.4181,2.4175l-3.1898,6.7148
			c-0.7538,1.5855,0.0171,3.5104,1.7171,4.1152L55,30.2075v3.4185l-7.0227,2.4916C46.2571,36.7285,45.5021,38.6499,46.2554,40.2333z
			"/>
	</g>
</g>
</svg>
