<?xml version="1.0" encoding="utf-8"?>
<!-- Generator: Adobe Illustrator 18.1.1, SVG Export Plug-In . SVG Version: 6.00 Build 0)  -->
<svg version="1.2" baseProfile="tiny" xmlns="http://www.w3.org/2000/svg" xmlns:xlink="http://www.w3.org/1999/xlink" x="0px"
	 y="0px" width="128px" height="128px" viewBox="0 0 128 128" xml:space="preserve">
<g id="_x31_28px_boxes">
	<rect fill="none" width="128" height="128"/>
</g>
<g id="Production">
	<g>
		<path fill="#ffffff" d="M43.1572,107.9358c-12.7335,0-23.093-10.3594-23.093-23.0928c0-12.7335,10.3595-23.093,23.093-23.093
			h41.6856c10.2522,0,18.593-8.3408,18.593-18.593c0-10.2521-8.3408-18.5928-18.593-18.5928
			c-9.6581,0-18.5928,7.5344-18.5928,19.1858h13.5c0-3.8353,2.5272-5.6858,5.0928-5.6858c2.8082,0,5.093,2.2846,5.093,5.0928
			c0,2.8084-2.2848,5.093-5.093,5.093H43.1572c-20.1775,0-36.593,16.4155-36.593,36.593c0,20.1773,16.4155,36.5928,36.593,36.5928
			c19.3813,0,36.5928-15.3919,36.5928-37.1858h-13.5C66.25,98.3848,55.2944,107.9358,43.1572,107.9358z"/>
		<path fill="#ffffff" d="M84.8428,6.5642C65.4615,6.5642,48.25,21.9561,48.25,43.75h13.5
			c0-14.1348,10.9556-23.6858,23.0928-23.6858c12.7335,0,23.093,10.3594,23.093,23.0928c0,12.7335-10.3595,23.093-23.093,23.093
			H43.1572c-10.2522,0-18.593,8.3408-18.593,18.593s8.3408,18.5928,18.593,18.5928c9.6581,0,18.5928-7.5344,18.5928-19.1858h-13.5
			c0,3.8353-2.5272,5.6858-5.0928,5.6858c-2.8082,0-5.093-2.2847-5.093-5.0928c0-2.8083,2.2848-5.093,5.093-5.093h41.6856
			c20.1775,0,36.593-16.4155,36.593-36.593C121.4358,22.9796,105.0203,6.5642,84.8428,6.5642z"/>
	</g>
</g>
</svg>
