<?xml version="1.0" encoding="utf-8"?>
<!-- Generator: Adobe Illustrator 18.1.1, SVG Export Plug-In . SVG Version: 6.00 Build 0)  -->
<svg version="1.2" baseProfile="tiny" xmlns="http://www.w3.org/2000/svg" xmlns:xlink="http://www.w3.org/1999/xlink" x="0px"
	 y="0px" width="128px" height="128px" viewBox="0 0 128 128" xml:space="preserve">
<g id="_x31_28px_boxes">
	<rect fill="none" width="128" height="128"/>
</g>
<g id="Production">
	<g>
		<path fill="#ffffff" d="M79.6719,54.7013V40.8446c0-3.7244-3.0208-6.7454-6.7449-6.7454h-1.021
			c-0.2258-1.6174-0.7573-3.0875-1.5034-4.3002c-1.7048-2.7699-3.1885-5.8852-1.0276-10.7963
			c0.6533-1.4846-0.4358-3.1561-2.0596-3.1561H32.4197c-0.8924,0-1.7002,0.5272-2.0596,1.3438
			c-2.9009,6.5935-0.9631,11.2661,1.3147,14.9671c0.3457,0.5616,0.6116,1.2184,0.7771,1.9417h-5.0432
			c-3.7241,0-6.7432,3.021-6.7432,6.7454v64.5615c0,3.7241,3.0191,6.7473,6.7432,6.7473c7.1084,0,56.3669,0,63.4548,0V50.1449
			h-4.8142C83.0916,50.1449,80.5808,52.0514,79.6719,54.7013z M33.9619,20.3466h30.2224
			c-1.1711,4.9758,0.4895,8.7298,2.3858,11.8107c1.3679,2.2234,1.5102,5.9213-1.0484,9.4527H35.8276
			c2.0472-4.4157,1.4903-8.8687-0.3203-11.811C33.9634,27.2904,32.6008,24.4984,33.9619,20.3466z M36.0693,103.226h-3.9978
			c-2.0298,0-3.6718-1.6419-3.6718-3.6719c0-2.0281,1.642-3.6717,3.6718-3.6785h3.9978c2.0298,0.0068,3.6717,1.6504,3.678,3.6785
			C39.741,101.5841,38.0991,103.226,36.0693,103.226z M36.0693,91.9286h-3.9978c-2.0298-0.0044-3.6718-1.6465-3.6718-3.6763
			c0-2.03,1.642-3.6719,3.6718-3.6782h3.9978c2.0298,0.0063,3.6717,1.6482,3.678,3.6782
			C39.741,90.2821,38.0991,91.9242,36.0693,91.9286z M36.0693,80.6288h-3.9978c-2.0298-0.0064-3.6718-1.6485-3.6718-3.6721
			c0-2.0342,1.642-3.6719,3.6718-3.6783h3.9978c2.0298,0.0064,3.6717,1.6441,3.678,3.6783
			C39.741,78.9803,38.0991,80.6224,36.0693,80.6288z M51.7649,103.2281h-4.0017c-2.0322-0.0043-3.676-1.644-3.676-3.674
			c0-2.0301,1.6438-3.6717,3.676-3.6804h4.0017c2.0254,0.0087,3.6636,1.6503,3.6699,3.6804
			C55.4285,101.5841,53.7903,103.2238,51.7649,103.2281z M51.7649,91.9327h-4.0017c-2.0322-0.0063-3.676-1.6506-3.676-3.6804
			c0-2.0261,1.6438-3.6699,3.676-3.6765h4.0017c2.0254,0.0066,3.6636,1.6504,3.6699,3.6765
			C55.4285,90.2821,53.7903,91.9264,51.7649,91.9327z M51.7649,80.6266h-4.0017c-2.0322,0-3.676-1.6419-3.676-3.672
			c0-2.0321,1.6438-3.6698,3.676-3.6762h4.0017c2.0254,0.0064,3.6636,1.6441,3.6699,3.6762
			C55.4285,78.9847,53.7903,80.6266,51.7649,80.6266z M67.4353,103.2323H63.438c-2.0281-0.0063-3.668-1.6482-3.6719-3.6782
			c0.0039-2.0259,1.6438-3.6717,3.6719-3.6785h3.9973c2.0298,0.0068,3.6699,1.6526,3.6782,3.6785
			C71.1052,101.5841,69.4651,103.226,67.4353,103.2323z M67.4353,91.9327H63.438c-2.0281-0.0085-3.668-1.6506-3.6719-3.6784
			c0.0039-2.0281,1.6438-3.6699,3.6719-3.6739h3.9973c2.0298,0.004,3.6699,1.6458,3.6782,3.6739
			C71.1052,90.2821,69.4651,91.9242,67.4353,91.9327z M67.4353,80.6324H63.438c-2.0281-0.0058-3.668-1.6521-3.6719-3.6778
			c0.0039-2.0321,1.6438-3.6721,3.6719-3.6782h3.9973c2.0298,0.0061,3.6699,1.6461,3.6782,3.6782
			C71.1052,78.9803,69.4651,80.6266,67.4353,80.6324z M71.8918,60.5288c0,1.5335-1.2458,2.7748-2.7768,2.7748H31.1536
			c-1.5332,0-2.7788-1.2413-2.7788-2.7748V51.91c0-1.5312,1.2456-2.7768,2.7788-2.7768H69.115c1.531,0,2.7768,1.2456,2.7768,2.7768
			V60.5288z"/>
		<path fill="#ffffff" d="M100.5894,50.1449h-4.8123v62.0085h4.8123c3.7241,0,6.7451-3.0232,6.7451-6.7473V56.8903
			C107.3345,53.1661,104.3135,50.1449,100.5894,50.1449z"/>
		<circle fill="#ffffff" cx="37.9316" cy="56.2184" r="2.4282"/>
		<circle fill="#ffffff" cx="46.0662" cy="56.2184" r="2.4282"/>
		<circle fill="#ffffff" cx="54.2004" cy="56.2184" r="2.4282"/>
		<circle fill="#ffffff" cx="62.3345" cy="56.2184" r="2.4282"/>
	</g>
</g>
</svg>
