<?xml version="1.0" encoding="utf-8"?>
<!-- Generator: Adobe Illustrator 18.1.1, SVG Export Plug-In . SVG Version: 6.00 Build 0)  -->
<svg version="1.2" baseProfile="tiny" xmlns="http://www.w3.org/2000/svg" xmlns:xlink="http://www.w3.org/1999/xlink" x="0px"
	 y="0px" width="128px" height="128px" viewBox="0 0 128 128" xml:space="preserve">
<g id="_x31_28px_boxes">
	<rect fill="none" width="128" height="128"/>
</g>
<g id="Production">
	<g>
		<path fill="#ffffff" d="M85.8652,72.4287c-0.6474-2.1015-2.6533-3.4057-4.7578-3.2549h-7.5415v-11.663
			c0-1.5186-1.2312-2.75-2.75-2.75h-8.2876c-1.5188,0-2.75,1.2314-2.75,2.75v11.663h-7.3594
			c-2.1042-0.1518-4.1118,1.1529-4.7595,3.2549l-16.7602,54.3989h9.7l4.59-14.8969h14.5891v14.8969h13.7876v-14.8969H88.335
			l4.5896,14.8969h9.7002L85.8652,72.4287z M59.7783,102.6607H48.0452l7.4611-24.2168h4.272V102.6607z M73.5659,102.6607V78.4439
			h4.4524l7.4607,24.2168H73.5659z"/>
		<path fill="#ffffff" d="M48.767,27.9082c-3.8803-4.1919-15.8144-6.8149-22.5229-6.1753c5.6084,5.9199,3.4787,9.5279,7.3909,13.459
			c6.9603,6.9946,18.0126-0.0654,24.6005,9.6958c2.0362,3.0171,3.8681,5.2651,8.1837,5.2651
			c12.9905,0,17.1719-21.5063,11.8169-30.9243C65.3228-3.4824,43.5264,12.3164,25.3752,1.1724
			c6.5806,14.1894,11.6983,13.3637,19.7081,15.0117c10.2772,2.1138,16.1416,4.8135,15.6367,10.5561
			C60.4192,30.1621,54.4246,34.0195,48.767,27.9082z"/>
	</g>
</g>
</svg>
