<?xml version="1.0" encoding="utf-8"?>

<svg version="1.2" baseProfile="tiny" xmlns="http://www.w3.org/2000/svg" xmlns:xlink="http://www.w3.org/1999/xlink" x="0px"
	 y="0px" width="64px" height="64px" viewBox="0 0 64 64" xml:space="preserve">

<g id="Production">
	<g>
		<path fill="#ffffff" d="M0,29v5h9.8799c-0.1493-1.6777-0.1061-3.3572,0.1082-5H0z"/>
		<path fill="#ffffff" d="M53.0122,29c0.2139,1.6428,0.2568,3.322,0.1072,5H63v-5H53.0122z"/>
		<path fill="#ffffff" d="M52.0063,7.3281l-7.2485,7.2485c1.4392,1.0075,2.6232,2.1142,3.6796,3.3906l7.104-7.104L52.0063,7.3281z"
			/>
		<path fill="#ffffff" d="M18.2433,14.5778l-7.2496-7.2497l-3.5352,3.5352l7.1053,7.1053
			C15.608,16.7067,16.7893,15.5958,18.2433,14.5778z"/>
		<path fill="#ffffff" d="M34,10.9174V1h-5v9.9178C30.7596,10.7623,32.2399,10.7621,34,10.9174z"/>
		<path fill="#ffffff" d="M31.5015,16.001c-11.6165,0-17.2738,8.4145-16.4079,17.6426c0.4844,5.165,2.2748,7.8691,4.2606,10.4053
			C20.2756,45.2246,21,46.1533,21,48.5459v8.8379l4.5745,2.8623l0.4133,0.8193C26.5845,62.2588,27.7837,63,29.1182,63h4.7637
			c1.3345,0,2.5314-0.7412,3.1281-1.9346l0.4064-0.8174L42,57.3877v-8.8418c0-2.2959,0.6252-3.2051,1.6384-4.498
			c1.9854-2.5352,3.7922-5.2393,4.2751-10.4033C48.6695,25.634,44.2098,16.001,31.5015,16.001z M42.9332,33.1777
			c-0.3594,3.8438-1.5023,5.5791-3.2309,7.7871C38.8046,42.1105,37.9653,43.3108,37.467,45H30v5h7v4.6123l-3.4255,2.1396L32.9551,58
			h-2.9102l-0.6267-1.2461L26,54.6162v-6.0703c0-3.8027-1.2801-5.7559-2.7098-7.5801c-1.729-2.209-2.856-3.9443-3.2164-7.7891
			c-0.6158-6.558,2.9808-12.1758,11.4276-12.1758C39.8751,21.001,43.5544,26.5843,42.9332,33.1777z"/>
	</g>
</g>
</svg>
