<?xml version="1.0" encoding="utf-8"?>

<svg version="1.2" baseProfile="tiny" xmlns="http://www.w3.org/2000/svg" xmlns:xlink="http://www.w3.org/1999/xlink" x="0px"
	 y="0px" width="128px" height="128px" viewBox="0 0 128 128" xml:space="preserve">
<g id="_x31_28px_boxes">
	<rect fill="none" width="128" height="128"/>
</g>
<g id="Production">
	<g>
		<path fill="#ffffff" d="M42.8762,80.3279c-1.3247,1.3267-1.3247,3.4763,0,4.8106c1.3409,1.3256,3.488,1.3052,4.7986,0
			l36.501-36.4916c1.3222-1.3319,1.3222-3.4815,0-4.8084c-1.3267-1.3194-3.4834-1.3194-4.8106,0L42.8762,80.3279z"/>
		<path fill="#ffffff" d="M76.4487,34.6155c-4.0508,3.9806-8.1206,3.9806-10.8928,4.1809
			c-5.1917,0.3257-10.3132,2.4801-14.2844,6.4608L23.1011,73.428c-8.696,8.6814-8.708,22.771,0,31.4785
			c8.6951,8.7005,22.7772,8.6931,31.4829,0.0071l28.1733-28.1758c4.5121-4.5124,6.4556-10.6314,6.4556-14.1638
			c0.2221-2.9335,0.0363-6.762,4.1909-11.0082c3.3293-3.3365,14.5159-14.5208,14.5159-14.5208
			c4.6806-4.6952,4.6775-12.2795,0-16.9576c-4.7043-4.7096-12.3272-4.6712-16.9646,0.0194
			C90.9477,20.1068,79.9492,31.1126,76.4487,34.6155z M102.6821,23.5495L86.5403,39.6844l5.1213,5.1215
			c-1.0178,1.023-1.8984,1.899-2.509,2.5091c-9.4917,9.3241-2.321,16.8132-10.6436,25.1767l-28.1736,28.1638
			c-6.454,6.4254-16.7066,6.2773-22.9839,0c-6.3183-6.3182-6.3661-16.5349-0.0505-22.9235l5.9688,5.9734l3.0007-3.0062
			l-5.9732-5.9709l5.9107-5.913l5.9709,5.9733l3.0059-3.0057l-5.978-5.964l5.9104-5.9131l5.976,5.9709l2.9986-3.0058l-5.9663-5.9686
			l5.9062-5.9059l5.9734,5.9709l2.9988-2.9986l-5.8335-5.8382c8.2495-6.3251,14.6033-0.2617,23.5266-9.2617
			c3.5007-3.5028,14.5183-14.5232,14.5183-14.5232C97.2529,22.3,100.3836,22.0487,102.6821,23.5495z"/>
	</g>
</g>
</svg>
