<?xml version="1.0" encoding="utf-8"?>
<!-- Generator: Adobe Illustrator 18.1.1, SVG Export Plug-In . SVG Version: 6.00 Build 0)  -->
<svg version="1.2" baseProfile="tiny" xmlns="http://www.w3.org/2000/svg" xmlns:xlink="http://www.w3.org/1999/xlink" x="0px"
	 y="0px" width="128px" height="128px" viewBox="0 0 128 128" xml:space="preserve">
<g id="box">
	<rect fill="none" width="128" height="128"/>
</g>
<g id="Production">
	<g>
		<path fill="#ffffff" d="M38.04,64.2296c3.0784,6.3797,10.4571,10.0605,16.9889,11.4702
			c-3.1118-2.8768-4.5935-6.4782-3.9833-11.4702c0.5537-4.5312,3.2269-6.7981,6.8014-9.9695
			c-0.904,6.005,0.506,10.2714,6.5116,9.834c6.1736-0.4544,9.873-9.6338,9.3807-15.9201
			c5.5873,10.0663,6.4613,20.0744-2.444,27.3642c6.8176-1.5178,15.3887-5.6272,19.0607-11.3086
			c3.5105-5.4321,3.6117-12.4883,0.9566-18.0876c-4.0787-8.6097-12.9761-16.0508-15.417-23.2265
			c-2.9005-8.5365-1.1667-19.755-1.1667-19.755c-9.0795,5.6623-12.0344,15.1353-11.1976,21.6721
			c0.8025,6.2356,4.4687,8.7507,3.3504,12.354c-1.1924,3.8417-6.2864,4.6453-8.523,2.6006
			c-2.7754-2.5372-1.5015-5.3078-1.9071-10.2912c-0.4918-6.0387-8.0209-9.9936-8.0209-9.9936c-0.0022,0,1.1901,6.2065-1.75,11.698
			C42.7673,38.5056,31.6784,51.0541,38.04,64.2296z"/>
		<path fill="#ffffff" d="M97.9166,56.1685c-0.2333,3.2318-1.109,6.3186-2.5978,9.1092c2.5072,4.6476,3.9442,9.7825,4.1957,15.1817
			H87.5174c-0.0552-2.2149-0.2185-4.3814-0.4812-6.4874c-1.169,0.7867-2.3693,1.5088-3.5964,2.1651
			c0.1362,1.4143,0.2258,2.8559,0.2641,4.3223H65.9073v-11.72c-1.2191,0.2224-2.613,0.2494-3.8142,0.1227v11.5973
			c-34.5953,0-0.9901,0-17.7967,0c0.0311-1.1912,0.0966-2.366,0.1927-3.5237c-1.2505-0.6719-2.4574-1.4239-3.6126-2.2559
			c-0.2134,1.8828-0.347,3.8123-0.3958,5.7796H28.4831c0.2639-5.7117,1.8711-11.0611,4.5153-15.7535
			c-1.2619-3.2642-1.7538-6.6982-1.6133-10.1526c-6.2969,7.4405-10.096,17.0625-10.0973,27.5743
			c0.0027,23.5905,19.1224,42.7097,42.7124,42.7119c17.6922-0.0017,32.868-10.7566,39.3525-26.0857l0.0016,0.0007l-0.0007-0.0007
			c2.0103-4.6103,3.3586-10.5392,3.3586-16.6262C106.7122,72.7715,103.6877,63.6974,97.9166,56.1685z M33.351,100.1605
			c-2.7773-4.7073-4.4977-10.1052-4.8417-15.8867h11.9858c0.1827,5.6997,1.0793,11.0752,2.5554,15.8867H33.351z M35.9472,103.975
			h8.4406c1.6406,4.1213,3.9072,8.1634,6.9718,11.396C45.4194,113.1099,40.0446,109.2264,35.9472,103.975z M62.0931,117.4347
			c-6.3504-1.1257-10.9673-7.542-13.5724-13.4597h13.5724V117.4347z M62.0931,100.1605H47.0508
			c-1.5659-4.6958-2.543-10.1047-2.7385-15.8867h17.7808V100.1605z M65.9073,84.2738H83.689
			c-0.1941,5.7839-1.1801,11.1892-2.7459,15.8867H65.9073V84.2738z M65.9073,117.4347V103.975h13.5725
			C76.8854,109.8699,72.2699,116.3086,65.9073,117.4347z M76.6385,115.3712c2.8214-2.9724,5.1711-6.8677,6.9758-11.3962h8.4393
			C88.0987,109.0432,82.7985,113.0282,76.6385,115.3712z M96.764,95.9667l0.0012,0.0002c-0.6135,1.45-1.3225,2.8496-2.1157,4.1936
			h-9.6958c1.4751-4.8103,2.3689-10.1889,2.5504-15.8867H99.491C99.2486,88.3556,98.318,92.2928,96.764,95.9667z"/>
	</g>
</g>
</svg>
