<?xml version="1.0" encoding="utf-8"?>
<!-- Generator: Adobe Illustrator 17.1.0, SVG Export Plug-In . SVG Version: 6.00 Build 0)  -->
<!DOCTYPE svg [
	<!ENTITY ns_flows "http://ns.adobe.com/Flows/1.0/">
	<!ENTITY ns_extend "http://ns.adobe.com/Extensibility/1.0/">
	<!ENTITY ns_ai "http://ns.adobe.com/AdobeIllustrator/10.0/">
	<!ENTITY ns_graphs "http://ns.adobe.com/Graphs/1.0/">
]>
<svg version="1.2" baseProfile="tiny" xmlns:x="&ns_extend;" xmlns:i="&ns_ai;" xmlns:graph="&ns_graphs;"
	 xmlns="http://www.w3.org/2000/svg" xmlns:xlink="http://www.w3.org/1999/xlink" xmlns:a="http://ns.adobe.com/AdobeSVGViewerExtensions/3.0/"
	 x="0px" y="0px" width="128px" height="128px" viewBox="0 0 128 128" xml:space="preserve">
<g id="_x31_28px_boxes">
	<rect fill="none" width="128" height="128"/>
</g>
<g id="Production">
	<path fill="#ffffff" d="M110.0693,35.1733c-0.0158-1.1748-0.8647-2.4561-2.1196-2.9176L65.6426,16.7239
		c-0.73-0.268-1.5327-0.2572-2.2554,0.0301L19.9829,34.0131c-2.2627,0.8943-2.0952,2.489-2.0952,4.4109
		c0,4.1679-0.0127,16.1641-0.0127,45.6994c0,1.1394,0.6721,2.1904,1.6643,2.7504l42.8845,24.1893
		c0.0157,0.0087,0.0464,0.0148,0.0623,0.023c1.1045,0.5499,2.1833,0.4783,3.072-0.023l42.9082-24.1893
		c0.9922-0.56,1.6587-1.611,1.6587-2.7504C110.125,30.288,110.0693,35.4862,110.0693,35.1733z M64.5991,23.0696l34.2632,12.579
		l-12.9468,6.3943L52.7148,27.7953L64.5991,23.0696z M28.3198,59.2758c-1.4887-1.6568-0.9939-1.106-2.1072-2.3453
		c-0.7341-0.8174-0.9006-2.3038,0-2.5019c1.4925-0.3284,6.1392-1.3572,8.1543-1.8042c0.7769-0.1724,1.7581,0.7643,1.7581,2.0879
		v10.8799c0,1.1941-0.9893,1.2857-1.7727,0.4146l-1.8953-2.1175c-0.6963,2.7963,0.0039,6.0661,1.2808,8.7405l-4.0518,0.9077
		C27.731,69.2266,26.6855,63.707,28.3198,59.2758z M42.875,86.1116v2.9038c0,1.003-1.0955,1.4034-1.9834,0.4154
		c-2.5044-2.7789-6.0259-6.7001-8.1616-9.0759c-0.8692-0.9666-0.761-2.3362,0-2.5024c0.1042-0.0231,8.1538-1.8039,8.1538-1.8039
		c0.939-0.2074,1.9912,1.1264,1.9912,2.0875v2.4761c2.2827,0.4098,4.4609-0.4562,5.6528-2.7851L52.627,82.33
		C50.7187,85.7676,47.125,87.2737,42.875,86.1116z M54.875,77.465c0,1.2018-1.0667,1.2733-1.8398,0.4143
		c-1.4749-1.642-6.1868-6.8877-8.1534-9.0757c-0.7277-0.8099-0.904-2.3024,0-2.5024l1.9947-0.4415
		c-0.0152-0.0249-0.0298-0.0507-0.0457-0.0761c-1.5952-2.5493-3.9866-4.93-6.842-5.9112l-0.0093-5.4169
		c4.6736,1.7586,8.6135,6.0104,11.0315,10.4907l2.0256-0.4478c0.7759-0.1734,1.8572,0.8763,1.8572,2.0869
		C54.8706,72.0018,54.875,69.6774,54.875,77.465z M63.9482,52.8925L29.217,37.139l14.6497-5.8252l33.5,14.9513L63.9482,52.8925z
		 M103.625,82.2795l-36.5,20.6236V58.3492l14-6.9558v16.8222l8.5-4.1447V47.2997l14-6.9967V82.2795z"/>
</g>
</svg>
