<?xml version="1.0" encoding="utf-8"?>

<svg version="1.2" baseProfile="tiny" xmlns="http://www.w3.org/2000/svg" xmlns:xlink="http://www.w3.org/1999/xlink" x="0px"
	 y="0px" width="128px" height="128px" viewBox="0 0 128 128" xml:space="preserve">
<g id="_x31_28px_boxes">
	<rect fill="none" width="128" height="128"/>
</g>
<g id="Production">
	<g>
		<path fill="#ffffff" d="M33.4892,93.9724c0.1455,8.6531,5.229,15.3884,10.344,20.834c4.8028,5.019,12.9899-0.9458,9.5183-7.0759
			c7.7408-2.1125,22.7303-6.2123,28.8404-7.8851c0.3667,6.0622,8.8846,7.0857,10.6818,1.2857
			c2.6746-8.7866,1.5433-19.1194-14.4751-32.8206c-1.6064,1.1051-1.8517,1.2518-9.5446,6.3394
			c1.9321,1.521,3.9533,3.2659,5.8974,5.1782c-16.7502,1.5508-15.9166,1.473-24.2575,2.2427
			c12.8227-13.718,44.0173-21.8838,44.0173-46.8361c-0.1943-9.3772-6.0552-16.4918-11.6587-22.1629
			c-2.3521-2.3232-6.1423-2.3013-8.4656,0.0581c-2.5118,2.5457-2.1143,6.5759,0.1702,8.5752
			c-5.366,1.4699-2.3669,0.6505-29.3945,8.0402c0.2041-2.8352-1.7979-5.3944-4.6607-5.8024
			c-2.9861-0.4374-5.7612,1.6429-6.189,4.6362l-0.0048-0.0072C32.391,41.8373,37.988,50.9083,49.5827,60.7585
			c1.9054-1.3001,8.5552-5.6814,9.5569-6.3375c-1.7815-1.4017-3.6404-2.9812-5.4504-4.7213
			c18.3883-1.7189,11.0587-1.0347,23.3071-2.1769C63.5304,61.5488,33.4892,68.7077,33.4892,93.9724z M82.6633,91.2778
			c0.3745,1.2809,0.4648,2.1213,0.323,3.6179c-11.8671,2.7723-20.3029,4.761-33.7051,7.8924
			c-1.0986-1.4724-1.9902-2.9329-2.6387-4.3035C59.6307,95.8852,71.0871,93.5945,82.6633,91.2778z M78.3574,83.7087
			c0.9133,1.1343,1.7131,2.2718,2.3835,3.3848c-11.467,1.8486-25.2781,4.0716-35.1653,5.6665
			c0.1119-1.6306,0.4278-3.0957,0.9161-4.4421C64.6399,85.6927,68.7169,85.1041,78.3574,83.7087z M45.4128,38.0705
			c-0.536-1.6984-0.4287-2.3303-0.5105-3.4576c6.3985-1.5142,25.7191-6.0793,33.936-8.0187
			c1.0982,1.4988,1.9976,2.9789,2.6289,4.3638C71.1664,32.9952,61.4801,34.9,45.4128,38.0705z M49.823,45.6103
			c-0.8819-1.0741-1.6668-2.1552-2.3323-3.2172c11.4277-1.8608,21.4849-3.4884,34.9565-5.6811
			c-0.1484,1.6986-0.5349,3.2267-1.1399,4.6532C66.2378,43.4018,62.5861,43.8847,49.823,45.6103z"/>
	</g>
</g>
</svg>
