<?xml version="1.0" encoding="utf-8"?>

<svg version="1.2" baseProfile="tiny" xmlns="http://www.w3.org/2000/svg" xmlns:xlink="http://www.w3.org/1999/xlink" x="0px"
	 y="0px" width="64px" height="64px" viewBox="0 0 64 64" xml:space="preserve">

<g id="Production">
	<g>
		<path fill="#ffffff" d="M26,29v-7c0-3.3086,2.6914-6,6-6c2.9165,0,5.3989,2.085,5.9028,4.9575l0.1729,0.9858l6.8892-1.2158
			C43.6057,12.991,38.1173,9,32,9c-7.1685,0-13,5.8315-13,13v7h-5v26h36V29H26z M48,53H16V31c20.1583,0,11.8529,0,32,0V53z M21,22
			c0-6.0654,4.9346-11,11-11c5.0107,0,9.3228,3.3569,10.6055,8.1133l-2.9668,0.5234C38.6201,16.3179,35.5513,14,32,14
			c-4.4111,0-8,3.5889-8,8v7h-3V22z"/>
		<path fill="#ffffff" d="M30,47h4v-4.7786c0.6096-0.5491,1-1.3364,1-2.2214c0-1.6569-1.3431-3-3-3s-3,1.3431-3,3
			c0,0.885,0.3904,1.6723,1,2.2214V47z"/>
	</g>
</g>
</svg>
