<?xml version="1.0" encoding="utf-8"?>
<!-- Generator: Adobe Illustrator 18.1.1, SVG Export Plug-In . SVG Version: 6.00 Build 0)  -->
<svg version="1.2" baseProfile="tiny" xmlns="http://www.w3.org/2000/svg" xmlns:xlink="http://www.w3.org/1999/xlink" x="0px"
	 y="0px" width="128px" height="128px" viewBox="0 0 128 128" xml:space="preserve">
<g id="box">
	<rect fill="none" width="128" height="128"/>
</g>
<g id="Production">
	<g>
		<path fill="#ffffff" d="M42.1768,106.3993c-1.3473,2.9038-0.0857,6.3498,2.818,7.6973c2.906,1.3483,6.3508,0.0839,7.6973-2.8179
			l3.8151-8.2217c-3.6099-1.3292-7.1106-3.1771-10.2637-5.4221L42.1768,106.3993z"/>
		<path fill="#ffffff" d="M96.9943,97.6356c-3.1407,2.2362-6.639,4.0869-10.2637,5.4217l3.8154,8.2216
			c1.3479,2.9043,4.7942,4.1651,7.6975,2.8177c2.9036-1.3477,4.1651-4.7937,2.8177-7.6975L96.9943,97.6356z"/>
		<path fill="#ffffff" d="M111.0372,61.8873c0-21.7351-17.6828-39.4177-39.4179-39.4177c-9.7288,0-18.6438,3.5447-25.5265,9.408
			l9.6379,9.6377c4.3861-3.4285,9.9027-5.4744,15.8886-5.4744c14.2519,0,25.8466,11.5947,25.8466,25.8464
			S85.8712,87.7335,71.6193,87.7335c-14.2517,0-25.8465-11.5945-25.8465-25.8462c0-2.739,0.4297-5.3789,1.2228-7.8584L36.66,43.6932
			c-2.846,5.4466-4.4585,11.6351-4.4585,18.1941c0,21.7107,17.6606,39.4175,39.4178,39.4175
			C93.311,101.3048,111.0372,83.6599,111.0372,61.8873z"/>
		<path fill="#ffffff" d="M58.234,58.9196c-1.8877,8.5554,4.6143,16.6789,13.3853,16.6789c7.573,0,13.7114-6.1384,13.7114-13.7112
			c0-10.762-11.8379-17.2698-20.9021-11.674l8.7588,8.7587c1.6609,1.6612,0.8414,4.4861-1.4224,5.024
			c-0.1472-0.1611-31.1155-31.1253-31.2704-31.2803c0.4624-1.2975,1.892-5.3082,2.3542-6.6047L30.1022,13.3634l-3.4538,9.6865
			l-9.6856,3.4534L29.709,39.2509c3.9327-1.4023,4.3995-1.5683,6.5289-2.3277C40.9023,41.5877,53.462,54.1476,58.234,58.9196z"/>
	</g>
</g>
</svg>
