<?xml version="1.0" encoding="utf-8"?>
<!-- Generator: Adobe Illustrator 18.1.1, SVG Export Plug-In . SVG Version: 6.00 Build 0)  -->
<svg version="1.2" baseProfile="tiny" xmlns="http://www.w3.org/2000/svg" xmlns:xlink="http://www.w3.org/1999/xlink" x="0px"
	 y="0px" width="128px" height="128px" viewBox="0 0 128 128" xml:space="preserve">
<g id="_x31_28px_boxes">
	<rect fill="none" width="128" height="128"/>
</g>
<g id="Production">
	<g>
		<g>
			<polygon fill="#ffffff" points="18.9932,99.7588 18.9983,99.7588 109.0154,99.7588 108.0864,94.4316 19.9033,94.4316 			"/>
			<polygon fill="#ffffff" points="18.5935,84.6699 17.6565,89.9141 17.6619,89.9141 110.3523,89.9136 109.3958,84.6699 			"/>
		</g>
		<polygon fill="#ffffff" points="16.8679,74.3989 15.9258,80.0932 15.9309,80.0932 112.083,80.0932 111.1199,74.3989 		"/>
		<path fill="#ffffff" d="M105.8501,28h-0.0046H22v0.1406L14.1267,70h0.0059h99.7495L105.8501,28z M96.5955,65H31.3882
			c-1.3064-4-4.4036-6.6226-8.5242-7.9941l2.9832-18.5457C30.0188,37.2947,33.4958,35,35.4202,32H92.415
			c1.9002,3,5.2911,5.0886,9.3628,6.2742l3.073,18.7782C100.853,58.4503,97.8611,61,96.5955,65z"/>
		<path fill="#ffffff" d="M36.5369,44.1601c-2.2168,0-4.1917,1.3653-4.4141,3.0713c-0.2251,1.731,1.4336,3.1524,3.7085,3.1524
			c2.2744,0,4.2556-1.4214,4.4229-3.1524C40.4182,45.5254,38.7529,44.1601,36.5369,44.1601z"/>
		<path fill="#ffffff" d="M91.1201,44.1601c-2.2168,0-3.8762,1.3653-3.7055,3.0713c0.173,1.7305,2.1594,3.1524,4.434,3.1524
			c2.2747,0,3.9283-1.4219,3.6966-3.1524C95.3169,45.5254,93.3372,44.1601,91.1201,44.1601z"/>
		<path fill="#ffffff" d="M63.8125,35.2305c-8.6592,0-16.03,5.2216-16.4836,12.0009c-0.481,7.1856,6.9072,13.3345,16.5293,13.3345
			c9.6215,0,16.9877-6.1489,16.4809-13.3345C79.8608,40.4521,72.4717,35.23,63.8125,35.2305z M65.6436,52.9746L65.6621,55h-3.1184
			l0.0066-1.8452c-1.8999-0.0601-3.7385-0.4246-4.7864-0.823l0.9458-2.7241c3.0205,1.0798,6.9944,1.2292,6.9829-0.0353
			c-0.0171-1.7617-7.7055-1.158-7.6198-4.9464c0.0376-1.6846,1.6972-2.7774,4.6479-3.1948L62.7253,40h2.9236l0.0149,1.287
			c1.7818,0.0542,3.001,0.1971,3.9126,0.4696l-0.7722,2.3873c-5.0746-1.4584-9.0048-0.0406-2.8594,1.5225
			c3.3347,0.7735,4.5813,1.8282,4.6331,3.5787C70.6321,51.061,68.8896,52.5556,65.6436,52.9746z"/>
	</g>
</g>
</svg>
