<?xml version="1.0" encoding="utf-8"?>
<!-- Generator: Adobe Illustrator 19.1.0, SVG Export Plug-In . SVG Version: 6.00 Build 0)  -->
<svg version="1.2" baseProfile="tiny" xmlns="http://www.w3.org/2000/svg" xmlns:xlink="http://www.w3.org/1999/xlink" x="0px"
	 y="0px" width="64px" height="64px" viewBox="0 0 64 64" xml:space="preserve">
<g id="box">
	<rect fill="none" width="64" height="64"/>
</g>
<g id="Production">
	<g>
		<path fill="#ffffff" d="M42.1968,16.4737L29.9482,23.254c0,0,3.5059,0.3453,7.093-1.6404
			C40.6282,19.628,42.1968,16.4737,42.1968,16.4737z"/>
		<path fill="#ffffff" d="M52,30H36.2966c14.6375-8.2794,17.5508-18.5009,17.6687-18.938l0.3281-1.2148l-1.2573-0.0454
			c-0.27-0.0029-6.7358-0.1816-15.8735,4.877L7.7319,30.97C4.3499,32.5754,2,36.014,2,40c0,5.5142,4.4858,10,10,10h40
			c5.5142,0,10-4.4858,10-10S57.5142,30,52,30z M38.1313,16.4287c6.1733-3.4175,11.0898-4.3145,13.3989-4.5479
			c-1.3013,3.0059-5.502,10.5059-16.8213,16.7207L32.1848,30H13.6143L38.1313,16.4287z M52,48H12c-4.4111,0-8-3.5889-8-8
			s3.5889-8,8-8h40c4.4111,0,8,3.5889,8,8S56.4111,48,52,48z"/>
		<polygon fill="#ffffff" points="17,36 15,36 15,39 12,39 12,41 15,41 15,44 17,44 17,41 20,41 20,39 17,39 		"/>
	</g>
</g>
</svg>

