<?xml version="1.0" encoding="utf-8"?>

<svg version="1.2" baseProfile="tiny" xmlns="http://www.w3.org/2000/svg" xmlns:xlink="http://www.w3.org/1999/xlink" x="0px"
	 y="0px" width="128px" height="128px" viewBox="0 0 128 128" xml:space="preserve">
<g id="_x31_28px_boxes">
	<rect fill="none" width="128" height="128"/>
</g>
<g id="Production">
	<g>
		<path fill="#ffffff" d="M94.4692,50.511c-2.8786,3.008-5.2419,6.2466-6.4614,10.6836h5.0784
			c2.5945,4.4028,4.2175,9.4429,4.5737,14.824H51.8831c0.1377-5.5166,0.7766-10.5186,1.7524-14.824h15.4768
			c-0.4397-1.5518-1.0159-3.0327-1.804-4.5H54.854c1.3386-4.187,3.0178-7.4273,4.8098-9.471
			c-2.2025-2.5232-4.0812-5.01-5.5176-8.999c-17.9953,4.4295-31.3828,20.7014-31.3828,40.044
			c0,22.738,18.4986,41.2365,41.2366,41.2365s41.2366-18.4985,41.2366-41.2365C105.2366,67.5879,101.1545,57.843,94.4692,50.511z
			 M76.1172,80.5186c-0.138,5.5163-0.7766,10.5183-1.7527,14.8237h-20.729c-0.9758-4.3054-1.6147-9.3074-1.7524-14.8237H76.1172z
			 M55.1689,45.7068c-2.3044,3.1916-3.892,7.1936-4.9987,10.9878H38.084C42.459,51.4478,48.3936,47.5464,55.1689,45.7068z
			 M34.9138,61.1946h14.1311c-0.9656,4.5681-1.5334,9.5967-1.6606,14.824H30.3401C30.6963,70.6375,32.3193,65.5974,34.9138,61.1946z
			 M30.3401,80.5186h17.0442c0.1272,5.2272,0.6948,10.2556,1.6606,14.8237H34.9138C32.3193,90.9395,30.6963,85.8997,30.3401,80.5186
			z M38.0837,99.8423h12.0865c0.4677,1.6035,0.9875,3.1318,1.563,4.5618c1.0166,2.5261,2.1718,4.6757,3.436,6.426
			C48.3938,108.9905,42.459,105.0891,38.0837,99.8423z M64,111.7917c-3.27,0-6.7522-4.4624-9.146-11.9494h18.2922
			C70.7524,107.3293,67.2703,111.7917,64,111.7917z M72.8311,110.8301c1.2639-1.7503,2.4194-3.8999,3.436-6.426
			c0.5754-1.43,1.0952-2.9583,1.5627-4.5618h12.0865C85.541,105.0891,79.6064,108.9905,72.8311,110.8301z M93.0862,95.3423H78.9551
			c0.9658-4.5681,1.5337-9.5965,1.6606-14.8237h17.0442C97.3037,85.8997,95.6807,90.9395,93.0862,95.3423z"/>
		<path fill="#ffffff" d="M75.5432,69.8196c0.381,3.9607,5.6515,3.9702,6.0339,0c0.7754-8.0598,1.8089-14.3965,7.952-21.304
			c4.4523-5.0075,9.9731-9.5002,9.9731-19.0832c0-11.5445-9.3528-20.9375-20.9387-20.9375c-11.586,0-20.9456,9.393-20.9456,20.9375
			c0,9.5818,5.5298,14.0859,9.9734,19.0832C73.7344,55.4231,74.7673,61.7598,75.5432,69.8196z M78.5298,20.3669
			c5.0161,0,9.0823,4.0662,9.0823,9.0821c0,5.0158-4.0662,9.082-9.0823,9.082c-5.0156,0-9.0818-4.0662-9.0818-9.082
			C69.448,24.4331,73.5142,20.3669,78.5298,20.3669z"/>
	</g>
</g>
</svg>
