<?xml version="1.0" encoding="utf-8"?>
<!-- Generator: Adobe Illustrator 18.1.1, SVG Export Plug-In . SVG Version: 6.00 Build 0)  -->
<svg version="1.2" baseProfile="tiny" xmlns="http://www.w3.org/2000/svg" xmlns:xlink="http://www.w3.org/1999/xlink" x="0px"
	 y="0px" width="128px" height="128px" viewBox="0 0 128 128" xml:space="preserve">
<g id="_x31_28px_boxes">
	<rect fill="none" width="128" height="128"/>
</g>
<g id="Production">
	<g>
		<path fill="#ffffff" d="M100.4424,111.1186c0,0-6.8769-50.0036-6.9341-50.238c-0.9807-6.0891-3.3274-12.7219-6.5832-16.7595
			C75.179,29.5561,55.993,8.8716,55.993,8.8716l-28.5166,20.747l9.1391,12.4912c0,0-1.7705,17.4185-2.5092,23.6187
			c-1.0828,9.0842,5.4399,13.971,10.3735,13.5413l1.0259-8.1973c0.2568-2.0551,3.3691-1.6697,3.1113,0.3892l-0.8719,6.9665
			c0.3626,5.5639,6.7393,9.8535,12.4627,6.481l0.9912-7.9185c0.257-2.0594,3.3687-1.6656,3.1114,0.3897
			c-0.551,4.402,0.0461-0.6889-3.9341,33.8911c-1.0662,9.2612,12.951,10.8858,14.0185,1.6133l4.0845-35.4862l0.0193,0.0011
			c0.4094-1.6834,2.8596-1.5454,3.0759,0.1733l0.02,0.001l4.868,35.4636C87.7469,122.3939,101.7099,120.3541,100.4424,111.1186z"/>
	</g>
</g>
</svg>
