<?xml version="1.0" encoding="utf-8"?>

<svg version="1.2" baseProfile="tiny" xmlns="http://www.w3.org/2000/svg" xmlns:xlink="http://www.w3.org/1999/xlink" x="0px"
	 y="0px" width="128px" height="128px" viewBox="0 0 128 128" xml:space="preserve">
<g id="_x31_28px_boxes">
	<rect fill="none" width="128" height="128"/>
</g>
<g id="Production">
	<g>
		<path fill="#ffffff" d="M59.2201,57.9935c-2.8463-1.8697-3.934-5.5167-2.5768-8.64l0.7871-1.8118
			c0.2166-0.4982-0.0044-1.0782-0.4975-1.3061l-9.9649-4.6064c-0.3863-0.1785-0.8435-0.0931-1.1391,0.2133L24.2202,64.2339
			c-2.9265-0.5274-6.2195-0.339-9.4936,0.7222C6.4214,67.6477,1.4215,74.8606,3.559,81.0667
			c1.6687,4.8448,7.1977,7.6289,13.4926,7.3427c-0.286,6.2949,2.498,11.824,7.3429,13.4927
			c6.206,2.1375,13.419-2.8624,16.1106-11.1675c1.0645-3.2849,1.2504-6.5886,0.7166-9.5221l19.9189-20.5362
			c0.4369-0.4505,0.3557-1.1875-0.1688-1.532L59.2201,57.9935z"/>
		<path fill="#ffffff" d="M124.6326,69.8361c0.2895-6.5574-6.5508-12.0561-15.2784-12.2817
			c-3.4583-0.0894-6.6843,0.6725-9.3488,2.0212l-24.729-12.3822c-0.5828-0.2919-1.2847,0.0429-1.4243,0.6796l-0.6579,2.997
			c-0.0549,0.2504-0.0116,0.5122,0.1209,0.7316l2.7813,4.603c0.3853,0.6374-0.0366,1.4571-0.779,1.5143l-3.8684,0.2975
			c-2.7106,0.2085-4.7578,2.5444-4.6092,5.2589l0.3384,6.1756c0.0198,0.3587,0.2302,0.6792,0.5515,0.8399l20.8321,10.4099
			c0.3264,2.9516,1.4406,6.0506,3.3838,8.885c4.9367,7.2007,13.2714,9.9495,18.6164,6.1396
			c4.1726-2.9742,5.2742-9.0659,3.2146-15.0212C119.894,79.1931,124.4065,74.9553,124.6326,69.8361z"/>
		<path fill="#ffffff" d="M79.9219,33.3811l-9.6272-7.3718c-0.5636-0.4317-1.3848-0.1551-1.5724,0.5295l-5.442,19.8587
			c-0.2583,0.9426,0.8498,1.6578,1.6025,1.0341L79.952,34.9451C80.4468,34.5352,80.4321,33.7717,79.9219,33.3811z"/>
		<path fill="#ffffff" d="M41.8617,28.2373l16.3209,11.6218c0.7901,0.5625,1.838-0.216,1.5274-1.1349l-4.8155-14.2447
			c-0.1643-0.4858-0.6694-0.7687-1.1696-0.6547l-11.5054,2.623C41.3777,26.6396,41.1584,27.7366,41.8617,28.2373z"/>
	</g>
</g>
</svg>
