<?xml version="1.0" encoding="utf-8"?>

<svg version="1.2" baseProfile="tiny" xmlns="http://www.w3.org/2000/svg" xmlns:xlink="http://www.w3.org/1999/xlink" x="0px"
	 y="0px" width="128px" height="128px" viewBox="0 0 128 128" xml:space="preserve">
<g id="_x31_28px_boxes">
	<rect fill="none" width="128" height="128"/>
</g>
<g id="Production">
	<g>
		<path fill="#ffffff" d="M71.2236,81.125c-1.2402-1.6241-1-5.125-1-5.125H57.7104c-0.8364,4.1816,0.193,8.1675,2.7662,11.3198
			c2.5733,3.1522,5.2109,5.9828,7.1409,8.6204c1.9299,2.6376,2.1872,6.8192-0.772,9.1352
			c-2.9593,2.3159-7.2469,1.7996-9.8719-1.0754c-2.6729-2.9274-4.5053-5.7505-7.1612-9.4526
			c-1.081-1.5069-3.4608-0.8605-3.6159,0.9876c-0.3421,4.0749-0.1251,11.2774,2.6521,15.84
			c6.641,10.9104,21.3193,9.485,27.6514,3.875c7.9286-7.0245,7.0908-16.4548,3.75-22.5C77.625,88,73.5525,84.1747,71.2236,81.125z"
			/>
		<path fill="#ffffff" d="M92.2109,11H35.7014C33.008,11,31,13.142,31,15.7843v15.4662c0,1.6422,0.1421,3.2767,0.5953,4.8575
			l9.2458,32.403C41.4327,70.5744,43.307,72,45.4919,72h37.0162c2.1849,0,4.1031-1.4256,4.6947-3.489l9.2019-32.403
			C96.8579,34.5272,97,32.8927,97,31.2505V15.7843C97,13.142,94.9043,11,92.2109,11z M38,18h17.1577L38,28.4521V18z M80.9274,65
			H67.572l16.1474-9.8366L80.9274,65z M90,31.2505c0,0.9896-0.0509,1.9748-0.3242,2.9284l-1.8136,6.3892L47.7558,65h-0.6832
			l-2.0436-7.1999L90,30.4048V31.2505z M90,18.3333L42.1077,47.5081l-2.2958-8.0882L74.9739,18H90V18.3333z"/>
	</g>
</g>
</svg>
