<?xml version="1.0" encoding="utf-8"?>

<svg version="1.2" baseProfile="tiny" xmlns="http://www.w3.org/2000/svg" xmlns:xlink="http://www.w3.org/1999/xlink" x="0px"
	 y="0px" width="128px" height="128px" viewBox="0 0 128 128" xml:space="preserve">
<g id="_x31_28px_boxes">
	<rect fill="none" width="128" height="128"/>
</g>
<g id="Production">
	<g>
		<path fill="#ffffff" d="M103.625,55.1109C71.6927,55.1495,50.7471,76.7444,4.0678,87.4298
			c-0.11,1.4964-0.5946,4.4374,0.9573,7.5698c1.0469,2.3193,3.6706,4.2786,7.2306,4.2786h92.1349
			c0.419-17.882,19.3957-27.0479,19.7075-35.5397C124.1316,56.6335,110.2774,55.1109,103.625,55.1109z M89.716,80.7171
			l-10.3125,1.8338c-0.1047,0.0171-0.2102,0.022-0.3125,0.022c-0.7522,0-1.4406-0.4615-1.6994-1.1941l-1.7634-4.9302
			c-0.3345-0.9451,0.1174-1.9097,0.9257-2.1487c0.8081-0.2346,1.802,0.1587,2.1368,1.0989l1.3356,3.6528l7.0645-1.5408
			l-1.1233-3.7849h0.0049c-0.2883-0.9499,0.2517-1.9514,1.2112-2.2392c0.9497-0.2882,1.9511,0.2612,2.2392,1.2112l1.6995,5.726
			C91.4307,79.4509,90.7793,80.5157,89.716,80.7171z"/>
		<path fill="#ffffff" d="M16.8415,79.5521c0.8034-1.5554,1.8437-3.1792,3.2554-4.7517
			c8.4486-4.1876,24.0273-11.329,40.6653-22.9885l1.0596-3.863c4.9071-3.1582,13.8063-8.2773,19.4575-9.6114
			c9.602-2.3347,22.0848-0.9792,24.2014,1.3868l0.0146-0.0122c0.2029,0.7936,0.4934,2.0049,0.8304,3.4287
			c-2.8494-0.9034-11.1497-3.0135-22.7586-1.4873c-3.6045,0.4761-9.0476,3.1235-13.1743,5.2746l-0.8084,5.421
			c6.2249-3.2305,10.376-4.6154,14.2781-5.1304c9.8802-1.3235,19.5476,0.215,23.6551,1.0304
			c0.2148,0.9306,0.425,1.8487,0.6325,2.7522c1.5333,0.1263,3.6438,0.4154,5.8164,0.8595
			c-1.0573-4.6153-2.5175-10.9619-3.1596-13.5062c-1.9084-5.8535-12.2101-6.6984-18.3926-6.7056
			c-10.4433,0.0119-16.4077,2.0135-25.1228,6.7079c-1.0791,0.5839-2.1023,1.1625-3.0596,1.7169
			c-2.3954,0.0023-5.0765,0.1903-7.7604,0.818c-6.8519,1.5995-14.815,5.3722-20.6098,10.6737
			c-1.2746,4.2537-2.4076,8.2365-3.1208,10.7884c-7.3656,3.8754-13.2204,6.585-15.9752,7.9849
			c-2.9325,3.1499-5.1956,6.6035-6.6491,11.1498C12.3551,80.8878,14.6047,80.2345,16.8415,79.5521z"/>
		<path fill="#ffffff" d="M66.1904,35.0799c-1.4578-3.2329-4.244-6.5274-9.5845-6.354
			c-13.5879,0.4516-15.7344,7.1147-18.2876,14.9569c5.2576-4.4835,11.2744-7.2232,16.5099-8.3342
			C59.5217,34.3474,63.5337,34.6355,66.1904,35.0799z"/>
	</g>
</g>
</svg>
