<?xml version="1.0" encoding="utf-8"?>
<!-- Generator: Adobe Illustrator 18.1.1, SVG Export Plug-In . SVG Version: 6.00 Build 0)  -->
<svg version="1.2" baseProfile="tiny" xmlns="http://www.w3.org/2000/svg" xmlns:xlink="http://www.w3.org/1999/xlink" x="0px"
	 y="0px" width="64px" height="64px" viewBox="0 0 64 64" xml:space="preserve">

<g id="Production">
	<path fill="#ffffff" d="M32,7C18.2148,7,7,18.2148,7,32s11.2148,25,25,25s25-11.2148,25-25S45.7852,7,32,7z M43.2701,44.6291
		c1.0216-3.4197,1.6339-7.3811,1.7172-11.6391h9.9873c-0.2296,5.3369-2.2876,10.2149-5.5607,14.0094
		C47.437,46.0427,45.3826,45.2469,43.2701,44.6291z M14.5847,46.998C11.3125,43.2037,9.2549,38.3362,9.0254,33h9.9873
		c0.0831,4.2516,0.6938,8.1975,1.7126,11.6136C18.6277,45.2302,16.5798,46.0298,14.5847,46.998z M20.7257,19.385
		c-1.019,3.4164-1.6299,7.3629-1.713,11.615H9.0254c0.2295-5.3365,2.2874-10.2044,5.5601-13.9988
		C16.5804,17.9695,18.6279,18.7684,20.7257,19.385z M33,20.9699c2.7979-0.0704,5.582-0.4229,8.2954-1.0689
		c0.9928,3.2712,1.6047,7.0688,1.692,11.099H33V20.9699z M33,18.9709V9.1038c3.0709,0.6107,5.8206,3.994,7.6562,8.9046
		C38.1659,18.5881,35.6088,18.9048,33,18.9709z M31,9.1038v9.8672c-2.6086-0.0661-5.166-0.3824-7.6565-0.9621
		C25.1792,13.098,27.929,9.7145,31,9.1038z M31,20.971V31h-9.9874c0.0872-4.0236,0.6971-7.8154,1.6871-11.0831
		C25.3972,20.559,28.1704,20.9029,31,20.971z M21.0126,33H31v10.0288c-2.8291,0.0681-5.6028,0.4106-8.3008,1.0528
		C21.7095,40.8143,21.0997,37.023,21.0126,33z M31,45.0288v9.8674c-3.0713-0.6107-5.8213-3.9948-7.657-8.9064
		C25.8339,45.41,28.3916,45.0949,31,45.0288z M33,54.8962V45.029c2.6086,0.0661,5.166,0.3822,7.6565,0.9619
		C38.8209,50.9019,36.071,54.2855,33,54.8962z M33,43.03V32.99h9.9874c-0.0873,4.0299-0.6991,7.8371-1.6918,11.1082
		C38.5823,43.4522,35.7977,43.1004,33,43.03z M44.9873,31c-0.0833-4.2582-0.6956-8.21-1.7174-11.6298
		c2.1122-0.6178,4.1667-1.4131,6.144-2.3698C52.687,20.795,54.745,25.6631,54.9746,31H44.9873z M47.974,15.4755
		c-1.7355,0.8074-3.5128,1.4778-5.329,2.008c-1.1719-3.2067-2.7289-5.8356-4.554-7.6586
		C41.8589,10.8612,45.2412,12.8329,47.974,15.4755z M21.3547,17.4839c-1.8159-0.5301-3.5928-1.2016-5.3282-2.0089
		c2.7328-2.6424,6.1147-4.6139,9.8824-5.6501C24.0837,11.6479,22.5269,14.2771,21.3547,17.4839z M16.0271,48.5256
		c1.7354-0.8072,3.5115-1.4809,5.3271-2.0109c1.1721,3.2075,2.7292,5.8371,4.5547,7.6604
		C22.1416,53.139,18.7596,51.1676,16.0271,48.5256z M42.6453,46.5159c1.8159,0.53,3.5928,1.2018,5.3281,2.0092
		c-2.7327,2.6423-6.1147,4.6138-9.8823,5.6501C39.9163,52.352,41.4733,49.7228,42.6453,46.5159z"/>
</g>
</svg>
